<?xml version="1.0" encoding="UTF-8"?>
<svg xmlns="http://www.w3.org/2000/svg" width="53.150" height="53.150" viewBox="-9.000 -9.000 18.000 18.000">
<!-- generated by panel_src/gen_knobs.py : do not hand-edit -->
<path d="M 5.000 0.000 L 4.996 0.187 L 4.986 0.374 L 4.966 0.559 L 4.933 0.743 L 4.881 0.924 L 4.806 1.097 L 4.702 1.260 L 4.569 1.409 L 4.411 1.544 L 4.240 1.664 L 4.068 1.775 L 3.910 1.883 L 3.778 1.997 L 3.681 2.125 L 3.618 2.274 L 3.585 2.444 L 3.571 2.635 L 3.561 2.840 L 3.542 3.049 L 3.505 3.252 L 3.442 3.442 L 3.353 3.613 L 3.241 3.766 L 3.110 3.900 L 2.967 4.021 L 2.816 4.131 L 2.660 4.234 L 2.500 4.330 L 2.336 4.421 L 2.169 4.504 L 1.998 4.580 L 1.822 4.644 L 1.641 4.689 L 1.453 4.710 L 1.260 4.702 L 1.064 4.661 L 0.869 4.592 L 0.679 4.504 L 0.497 4.410 L 0.324 4.327 L 0.160 4.270 L 0.000 4.250 L -0.160 4.270 L -0.324 4.327 L -0.497 4.410 L -0.679 4.504 L -0.869 4.592 L -1.064 4.661 L -1.260 4.702 L -1.453 4.710 L -1.641 4.689 L -1.822 4.644 L -1.998 4.580 L -2.169 4.504 L -2.336 4.421 L -2.500 4.330 L -2.660 4.234 L -2.816 4.131 L -2.967 4.021 L -3.110 3.900 L -3.241 3.766 L -3.353 3.613 L -3.442 3.442 L -3.505 3.252 L -3.542 3.049 L -3.561 2.840 L -3.571 2.635 L -3.585 2.444 L -3.618 2.274 L -3.681 2.125 L -3.778 1.997 L -3.910 1.883 L -4.068 1.775 L -4.240 1.664 L -4.411 1.544 L -4.569 1.409 L -4.702 1.260 L -4.806 1.097 L -4.881 0.924 L -4.933 0.743 L -4.966 0.559 L -4.986 0.374 L -4.996 0.187 L -5.000 0.000 L -4.996 -0.187 L -4.986 -0.374 L -4.966 -0.559 L -4.933 -0.743 L -4.881 -0.924 L -4.806 -1.097 L -4.702 -1.260 L -4.569 -1.409 L -4.411 -1.544 L -4.240 -1.664 L -4.068 -1.775 L -3.910 -1.883 L -3.778 -1.997 L -3.681 -2.125 L -3.618 -2.274 L -3.585 -2.444 L -3.571 -2.635 L -3.561 -2.840 L -3.542 -3.049 L -3.505 -3.252 L -3.442 -3.442 L -3.353 -3.613 L -3.241 -3.766 L -3.110 -3.900 L -2.967 -4.021 L -2.816 -4.131 L -2.660 -4.234 L -2.500 -4.330 L -2.336 -4.421 L -2.169 -4.504 L -1.998 -4.580 L -1.822 -4.644 L -1.641 -4.689 L -1.453 -4.710 L -1.260 -4.702 L -1.064 -4.661 L -0.869 -4.592 L -0.679 -4.504 L -0.497 -4.410 L -0.324 -4.327 L -0.160 -4.270 L -0.000 -4.250 L 0.160 -4.270 L 0.324 -4.327 L 0.497 -4.410 L 0.679 -4.504 L 0.869 -4.592 L 1.064 -4.661 L 1.260 -4.702 L 1.453 -4.710 L 1.641 -4.689 L 1.822 -4.644 L 1.998 -4.580 L 2.169 -4.504 L 2.336 -4.421 L 2.500 -4.330 L 2.660 -4.234 L 2.816 -4.131 L 2.967 -4.021 L 3.110 -3.900 L 3.241 -3.766 L 3.353 -3.613 L 3.442 -3.442 L 3.505 -3.252 L 3.542 -3.049 L 3.561 -2.840 L 3.571 -2.635 L 3.585 -2.444 L 3.618 -2.274 L 3.681 -2.125 L 3.778 -1.997 L 3.910 -1.883 L 4.068 -1.775 L 4.240 -1.664 L 4.411 -1.544 L 4.569 -1.409 L 4.702 -1.260 L 4.806 -1.097 L 4.881 -0.924 L 4.933 -0.743 L 4.966 -0.559 L 4.986 -0.374 L 4.996 -0.187 Z" fill="#2e2e2e" stroke="#0b0b0b" stroke-width="0.30" stroke-linejoin="round"/>
<circle cx="0" cy="0" r="3.700" fill="#3a3a3a"/>
<line x1="0" y1="-1.000" x2="0" y2="-4.100" stroke="#e8e8e8" stroke-width="0.425" stroke-linecap="round"/>
</svg>