<?xml version="1.0" encoding="UTF-8"?>
<svg xmlns="http://www.w3.org/2000/svg" width="47.240" height="47.240" viewBox="-8.000 -8.000 16.000 16.000">
<!-- generated by panel_src/gen_knobs.py : do not hand-edit -->
<path d="M 3.400 0.000 L 3.416 0.224 L 3.458 0.455 L 3.516 0.699 L 3.574 0.958 L 3.612 1.226 L 3.614 1.497 L 3.567 1.759 L 3.464 2.000 L 3.307 2.210 L 3.104 2.382 L 2.868 2.515 L 2.616 2.616 L 2.364 2.695 L 2.123 2.767 L 1.902 2.846 L 1.700 2.944 L 1.514 3.070 L 1.335 3.222 L 1.152 3.395 L 0.958 3.574 L 0.744 3.742 L 0.511 3.879 L 0.260 3.969 L 0.000 4.000 L -0.260 3.969 L -0.511 3.879 L -0.744 3.742 L -0.958 3.574 L -1.152 3.395 L -1.335 3.222 L -1.514 3.070 L -1.700 2.944 L -1.902 2.846 L -2.123 2.767 L -2.364 2.695 L -2.616 2.616 L -2.868 2.515 L -3.104 2.382 L -3.307 2.210 L -3.464 2.000 L -3.567 1.759 L -3.614 1.497 L -3.612 1.226 L -3.574 0.958 L -3.516 0.699 L -3.458 0.455 L -3.416 0.224 L -3.400 0.000 L -3.416 -0.224 L -3.458 -0.455 L -3.516 -0.699 L -3.574 -0.958 L -3.612 -1.226 L -3.614 -1.497 L -3.567 -1.759 L -3.464 -2.000 L -3.307 -2.210 L -3.104 -2.382 L -2.868 -2.515 L -2.616 -2.616 L -2.364 -2.695 L -2.123 -2.767 L -1.902 -2.846 L -1.700 -2.944 L -1.514 -3.070 L -1.335 -3.222 L -1.152 -3.395 L -0.958 -3.574 L -0.744 -3.742 L -0.511 -3.879 L -0.260 -3.969 L -0.000 -4.000 L 0.260 -3.969 L 0.511 -3.879 L 0.744 -3.742 L 0.958 -3.574 L 1.152 -3.395 L 1.335 -3.222 L 1.514 -3.070 L 1.700 -2.944 L 1.902 -2.846 L 2.123 -2.767 L 2.364 -2.695 L 2.616 -2.616 L 2.868 -2.515 L 3.104 -2.382 L 3.307 -2.210 L 3.464 -2.000 L 3.567 -1.759 L 3.614 -1.497 L 3.612 -1.226 L 3.574 -0.958 L 3.516 -0.699 L 3.458 -0.455 L 3.416 -0.224 Z" fill="#e9e3d2" stroke="#2b2620" stroke-width="0.30" stroke-linejoin="round"/>
<circle cx="0" cy="0" r="3.200" fill="#f4f0e4"/>
<line x1="0" y1="-0.800" x2="0" y2="-3.280" stroke="#1b1815" stroke-width="0.340" stroke-linecap="round"/>
</svg>