<?xml version="1.0" encoding="UTF-8"?>
<svg xmlns="http://www.w3.org/2000/svg" width="62.010" height="62.010" viewBox="-10.500 -10.500 21.000 21.000">
<!-- generated by panel_src/gen_knobs.py : do not hand-edit -->
<path d="M 5.525 0.000 L 5.550 0.364 L 5.619 0.740 L 5.714 1.137 L 5.808 1.556 L 5.870 1.993 L 5.873 2.433 L 5.796 2.858 L 5.629 3.250 L 5.374 3.591 L 5.044 3.870 L 4.661 4.087 L 4.251 4.251 L 3.841 4.380 L 3.450 4.497 L 3.090 4.625 L 2.763 4.785 L 2.460 4.989 L 2.169 5.236 L 1.873 5.517 L 1.556 5.808 L 1.209 6.080 L 0.830 6.303 L 0.423 6.449 L 0.000 6.500 L -0.423 6.449 L -0.830 6.303 L -1.209 6.080 L -1.556 5.808 L -1.873 5.517 L -2.169 5.236 L -2.460 4.989 L -2.762 4.785 L -3.090 4.625 L -3.450 4.497 L -3.841 4.380 L -4.251 4.251 L -4.661 4.087 L -5.044 3.870 L -5.374 3.591 L -5.629 3.250 L -5.796 2.858 L -5.873 2.433 L -5.870 1.993 L -5.808 1.556 L -5.714 1.137 L -5.619 0.740 L -5.550 0.364 L -5.525 0.000 L -5.550 -0.364 L -5.619 -0.740 L -5.714 -1.137 L -5.808 -1.556 L -5.870 -1.993 L -5.873 -2.433 L -5.796 -2.858 L -5.629 -3.250 L -5.374 -3.591 L -5.044 -3.870 L -4.661 -4.087 L -4.251 -4.251 L -3.841 -4.380 L -3.450 -4.497 L -3.090 -4.625 L -2.763 -4.785 L -2.460 -4.989 L -2.169 -5.236 L -1.873 -5.517 L -1.556 -5.808 L -1.209 -6.080 L -0.830 -6.303 L -0.423 -6.449 L -0.000 -6.500 L 0.423 -6.449 L 0.830 -6.303 L 1.209 -6.080 L 1.556 -5.808 L 1.873 -5.517 L 2.169 -5.236 L 2.460 -4.989 L 2.763 -4.785 L 3.090 -4.625 L 3.450 -4.497 L 3.841 -4.380 L 4.251 -4.251 L 4.661 -4.087 L 5.044 -3.870 L 5.374 -3.591 L 5.629 -3.250 L 5.796 -2.858 L 5.873 -2.433 L 5.870 -1.993 L 5.808 -1.556 L 5.714 -1.137 L 5.619 -0.740 L 5.550 -0.364 Z" fill="#2e2e2e" stroke="#0b0b0b" stroke-width="0.30" stroke-linejoin="round"/>
<circle cx="0" cy="0" r="5.200" fill="#3a3a3a"/>
<line x1="0" y1="-1.300" x2="0" y2="-5.330" stroke="#e8e8e8" stroke-width="0.552" stroke-linecap="round"/>
</svg>