<?xml version="1.0" encoding="UTF-8"?>
<svg xmlns="http://www.w3.org/2000/svg" width="53.150" height="53.150" viewBox="-9.000 -9.000 18.000 18.000">
<!-- generated by panel_src/gen_knobs.py : do not hand-edit -->
<path d="M 4.250 0.000 L 4.269 0.280 L 4.323 0.569 L 4.395 0.874 L 4.467 1.197 L 4.515 1.533 L 4.518 1.871 L 4.459 2.199 L 4.330 2.500 L 4.134 2.762 L 3.880 2.977 L 3.585 3.144 L 3.270 3.270 L 2.955 3.369 L 2.654 3.459 L 2.377 3.557 L 2.125 3.681 L 1.892 3.837 L 1.668 4.028 L 1.441 4.244 L 1.197 4.467 L 0.930 4.677 L 0.638 4.848 L 0.325 4.961 L 0.000 5.000 L -0.325 4.961 L -0.638 4.848 L -0.930 4.677 L -1.197 4.467 L -1.441 4.244 L -1.668 4.028 L -1.892 3.837 L -2.125 3.681 L -2.377 3.557 L -2.654 3.459 L -2.955 3.369 L -3.270 3.270 L -3.585 3.144 L -3.880 2.977 L -4.134 2.762 L -4.330 2.500 L -4.459 2.199 L -4.518 1.871 L -4.515 1.533 L -4.467 1.197 L -4.395 0.874 L -4.323 0.569 L -4.269 0.280 L -4.250 0.000 L -4.269 -0.280 L -4.323 -0.569 L -4.395 -0.874 L -4.467 -1.197 L -4.515 -1.533 L -4.518 -1.871 L -4.459 -2.199 L -4.330 -2.500 L -4.134 -2.762 L -3.880 -2.977 L -3.585 -3.144 L -3.270 -3.270 L -2.955 -3.369 L -2.654 -3.459 L -2.377 -3.557 L -2.125 -3.681 L -1.892 -3.837 L -1.668 -4.028 L -1.441 -4.244 L -1.197 -4.467 L -0.930 -4.677 L -0.638 -4.848 L -0.325 -4.961 L -0.000 -5.000 L 0.325 -4.961 L 0.638 -4.848 L 0.930 -4.677 L 1.197 -4.467 L 1.441 -4.244 L 1.668 -4.028 L 1.892 -3.837 L 2.125 -3.681 L 2.377 -3.557 L 2.654 -3.459 L 2.955 -3.369 L 3.270 -3.270 L 3.585 -3.144 L 3.880 -2.977 L 4.134 -2.762 L 4.330 -2.500 L 4.459 -2.199 L 4.518 -1.871 L 4.515 -1.533 L 4.467 -1.197 L 4.395 -0.874 L 4.323 -0.569 L 4.269 -0.280 Z" fill="#2e2e2e" stroke="#0b0b0b" stroke-width="0.30" stroke-linejoin="round"/>
<circle cx="0" cy="0" r="4.000" fill="#3a3a3a"/>
<line x1="0" y1="-1.000" x2="0" y2="-4.100" stroke="#e8e8e8" stroke-width="0.425" stroke-linecap="round"/>
</svg>