<?xml version="1.0" encoding="UTF-8"?>
<svg xmlns="http://www.w3.org/2000/svg" width="64.961" height="64.961" viewBox="-11.000 -11.000 22.000 22.000">
<defs>
<radialGradient id="body" cx="36%" cy="28%" r="72%">
  <stop offset="0%"   stop-color="#484440"/>
  <stop offset="32%"  stop-color="#2e2c28"/>
  <stop offset="68%"  stop-color="#1e1c18"/>
  <stop offset="100%" stop-color="#080604"/>
</radialGradient>
<radialGradient id="sc" cx="50%" cy="60%" r="55%">
  <stop offset="0%"   stop-color="#0c0a08"/>
  <stop offset="60%"  stop-color="#141210"/>
  <stop offset="100%" stop-color="#1e1c18"/>
</radialGradient>
<radialGradient id="skirt" cx="50%" cy="50%" r="50%">
  <stop offset="78%"  stop-color="transparent"/>
  <stop offset="90%"  stop-color="#0c0a08" stop-opacity="0.5"/>
  <stop offset="100%" stop-color="#080604" stop-opacity="0.7"/>
</radialGradient>
<filter id="sh"><feDropShadow dx="0" dy="0.9" stdDeviation="1.3" flood-color="#000" flood-opacity="0.6"/></filter>
</defs>
<line x1="-5.798" y1="5.798" x2="-7.283" y2="7.283" stroke="#909088" stroke-width="0.55" stroke-linecap="round"/>
<line x1="-7.799" y1="2.534" x2="-8.845" y2="2.874" stroke="#606058" stroke-width="0.35" stroke-linecap="round"/>
<line x1="-8.099" y1="-1.283" x2="-9.186" y2="-1.455" stroke="#606058" stroke-width="0.35" stroke-linecap="round"/>
<line x1="-6.634" y1="-4.820" x2="-7.524" y2="-5.466" stroke="#606058" stroke-width="0.35" stroke-linecap="round"/>
<line x1="-3.723" y1="-7.306" x2="-4.222" y2="-8.286" stroke="#606058" stroke-width="0.35" stroke-linecap="round"/>
<line x1="0.000" y1="-8.200" x2="0.000" y2="-10.300" stroke="#909088" stroke-width="0.55" stroke-linecap="round"/>
<line x1="3.723" y1="-7.306" x2="4.222" y2="-8.286" stroke="#606058" stroke-width="0.35" stroke-linecap="round"/>
<line x1="6.634" y1="-4.820" x2="7.524" y2="-5.466" stroke="#606058" stroke-width="0.35" stroke-linecap="round"/>
<line x1="8.099" y1="-1.283" x2="9.186" y2="-1.455" stroke="#606058" stroke-width="0.35" stroke-linecap="round"/>
<line x1="7.799" y1="2.534" x2="8.845" y2="2.874" stroke="#606058" stroke-width="0.35" stroke-linecap="round"/>
<line x1="5.798" y1="5.798" x2="7.283" y2="7.283" stroke="#909088" stroke-width="0.55" stroke-linecap="round"/>
<circle r="8.300" fill="#0e0c0a" stroke="#1e1c18" stroke-width="0.5" filter="url(#sh)"/>
<circle r="7.800" fill="#181614" stroke="#282420" stroke-width="0.45"/>
<circle r="7.300" fill="none" stroke="#303028" stroke-width="0.22"/>
<circle r="6.500" fill="url(#body)" filter="url(#sh)"/>
<g>
<ellipse cx="5.850" cy="0.000" rx="1.040" ry="2.080" fill="url(#sc)" transform="rotate(0.00,5.850,0.000)"/>
<ellipse cx="6.117" cy="-0.637" rx="0.541" ry="1.082" fill="none" stroke="#484440" stroke-width="0.4" opacity="0.3" transform="rotate(0.00,6.117,-0.637)"/>
<ellipse cx="4.733" cy="3.439" rx="1.040" ry="2.080" fill="url(#sc)" transform="rotate(36.00,4.733,3.439)"/>
<ellipse cx="5.136" cy="3.237" rx="0.541" ry="1.082" fill="none" stroke="#484440" stroke-width="0.4" opacity="0.3" transform="rotate(36.00,5.136,3.237)"/>
<ellipse cx="1.808" cy="5.564" rx="1.040" ry="2.080" fill="url(#sc)" transform="rotate(72.00,1.808,5.564)"/>
<ellipse cx="2.193" cy="5.875" rx="0.541" ry="1.082" fill="none" stroke="#484440" stroke-width="0.4" opacity="0.3" transform="rotate(72.00,2.193,5.875)"/>
<ellipse cx="-1.808" cy="5.564" rx="1.040" ry="2.080" fill="url(#sc)" transform="rotate(108.00,-1.808,5.564)"/>
<ellipse cx="-1.587" cy="6.269" rx="0.541" ry="1.082" fill="none" stroke="#484440" stroke-width="0.4" opacity="0.3" transform="rotate(108.00,-1.587,6.269)"/>
<ellipse cx="-4.733" cy="3.439" rx="1.040" ry="2.080" fill="url(#sc)" transform="rotate(144.00,-4.733,3.439)"/>
<ellipse cx="-4.762" cy="4.269" rx="0.541" ry="1.082" fill="none" stroke="#484440" stroke-width="0.4" opacity="0.3" transform="rotate(144.00,-4.762,4.269)"/>
<ellipse cx="-5.850" cy="0.000" rx="1.040" ry="2.080" fill="url(#sc)" transform="rotate(180.00,-5.850,0.000)"/>
<ellipse cx="-6.117" cy="0.637" rx="0.541" ry="1.082" fill="none" stroke="#484440" stroke-width="0.4" opacity="0.3" transform="rotate(180.00,-6.117,0.637)"/>
<ellipse cx="-4.733" cy="-3.439" rx="1.040" ry="2.080" fill="url(#sc)" transform="rotate(216.00,-4.733,-3.439)"/>
<ellipse cx="-5.136" cy="-3.237" rx="0.541" ry="1.082" fill="none" stroke="#484440" stroke-width="0.4" opacity="0.3" transform="rotate(216.00,-5.136,-3.237)"/>
<ellipse cx="-1.808" cy="-5.564" rx="1.040" ry="2.080" fill="url(#sc)" transform="rotate(252.00,-1.808,-5.564)"/>
<ellipse cx="-2.193" cy="-5.875" rx="0.541" ry="1.082" fill="none" stroke="#484440" stroke-width="0.4" opacity="0.3" transform="rotate(252.00,-2.193,-5.875)"/>
<ellipse cx="1.808" cy="-5.564" rx="1.040" ry="2.080" fill="url(#sc)" transform="rotate(288.00,1.808,-5.564)"/>
<ellipse cx="1.587" cy="-6.269" rx="0.541" ry="1.082" fill="none" stroke="#484440" stroke-width="0.4" opacity="0.3" transform="rotate(288.00,1.587,-6.269)"/>
<ellipse cx="4.733" cy="-3.439" rx="1.040" ry="2.080" fill="url(#sc)" transform="rotate(324.00,4.733,-3.439)"/>
<ellipse cx="4.762" cy="-4.269" rx="0.541" ry="1.082" fill="none" stroke="#484440" stroke-width="0.4" opacity="0.3" transform="rotate(324.00,4.762,-4.269)"/>
</g>
<circle r="6.500" fill="url(#skirt)"/>
<circle cx="5.749" cy="1.868" r="0.499" fill="#484440" opacity="0.12"/>
<circle cx="3.553" cy="4.891" r="0.499" fill="#484440" opacity="0.12"/>
<circle cx="0.000" cy="6.045" r="0.499" fill="#484440" opacity="0.12"/>
<circle cx="-3.553" cy="4.891" r="0.499" fill="#484440" opacity="0.12"/>
<circle cx="-5.749" cy="1.868" r="0.499" fill="#484440" opacity="0.12"/>
<circle cx="-5.749" cy="-1.868" r="0.499" fill="#484440" opacity="0.12"/>
<circle cx="-3.553" cy="-4.891" r="0.499" fill="#484440" opacity="0.12"/>
<circle cx="-0.000" cy="-6.045" r="0.499" fill="#484440" opacity="0.12"/>
<circle cx="3.553" cy="-4.891" r="0.499" fill="#484440" opacity="0.12"/>
<circle cx="5.749" cy="-1.868" r="0.499" fill="#484440" opacity="0.12"/>
<circle r="4.550" fill="#2e2c28" opacity="0.8"/>
<ellipse cx="-0.819" cy="-0.910" rx="2.730" ry="1.547" fill="white" opacity="0.05" transform="rotate(-18,-0.819,-0.910)"/>
<circle r="4.550" fill="none" stroke="#080604" stroke-width="0.5" opacity="0.4"/>
<line x1="0" y1="-1.274" x2="0" y2="-3.913" stroke="#d4cabc" stroke-width="1.00" stroke-linecap="round"/>
<circle cx="0" cy="-3.913" r="0.55" fill="#d4cabc"/>
</svg>