<?xml version="1.0" encoding="UTF-8"?>
<svg xmlns="http://www.w3.org/2000/svg" width="64.961" height="64.961" viewBox="-11.000 -11.000 22.000 22.000">
<!-- generated by panel_src/gen_knobs.py : do not hand-edit -->
<path d="M 6.013 0.000 L 6.030 0.118 L 6.079 0.239 L 6.152 0.363 L 6.237 0.491 L 6.319 0.622 L 6.384 0.756 L 6.420 0.888 L 6.420 1.017 L 6.381 1.139 L 6.305 1.254 L 6.202 1.361 L 6.083 1.460 L 5.963 1.556 L 5.855 1.651 L 5.771 1.751 L 5.718 1.858 L 5.698 1.976 L 5.708 2.106 L 5.739 2.246 L 5.780 2.394 L 5.817 2.545 L 5.838 2.691 L 5.832 2.829 L 5.792 2.951 L 5.716 3.055 L 5.609 3.141 L 5.478 3.211 L 5.334 3.269 L 5.191 3.323 L 5.059 3.380 L 4.948 3.448 L 4.864 3.534 L 4.809 3.640 L 4.778 3.767 L 4.764 3.910 L 4.757 4.063 L 4.746 4.218 L 4.721 4.364 L 4.672 4.492 L 4.596 4.596 L 4.492 4.672 L 4.364 4.721 L 4.218 4.746 L 4.063 4.757 L 3.910 4.764 L 3.767 4.778 L 3.640 4.809 L 3.534 4.864 L 3.448 4.948 L 3.380 5.059 L 3.323 5.191 L 3.269 5.334 L 3.211 5.478 L 3.141 5.609 L 3.055 5.716 L 2.951 5.792 L 2.829 5.832 L 2.691 5.838 L 2.545 5.817 L 2.394 5.780 L 2.246 5.739 L 2.106 5.708 L 1.976 5.698 L 1.858 5.718 L 1.751 5.771 L 1.651 5.855 L 1.556 5.963 L 1.460 6.083 L 1.361 6.202 L 1.254 6.305 L 1.139 6.381 L 1.017 6.420 L 0.888 6.420 L 0.756 6.384 L 0.622 6.319 L 0.491 6.237 L 0.363 6.152 L 0.239 6.079 L 0.118 6.030 L 0.000 6.013 L -0.118 6.030 L -0.239 6.079 L -0.363 6.152 L -0.491 6.237 L -0.622 6.319 L -0.756 6.384 L -0.888 6.420 L -1.017 6.420 L -1.139 6.381 L -1.254 6.305 L -1.361 6.202 L -1.460 6.083 L -1.556 5.963 L -1.651 5.855 L -1.751 5.771 L -1.858 5.718 L -1.976 5.698 L -2.106 5.708 L -2.246 5.739 L -2.394 5.780 L -2.545 5.817 L -2.691 5.838 L -2.829 5.832 L -2.951 5.792 L -3.055 5.716 L -3.141 5.609 L -3.211 5.478 L -3.269 5.334 L -3.323 5.191 L -3.380 5.059 L -3.448 4.948 L -3.534 4.864 L -3.640 4.809 L -3.767 4.778 L -3.910 4.764 L -4.063 4.757 L -4.218 4.746 L -4.364 4.721 L -4.492 4.672 L -4.596 4.596 L -4.672 4.492 L -4.721 4.364 L -4.746 4.218 L -4.757 4.063 L -4.764 3.910 L -4.778 3.767 L -4.809 3.640 L -4.864 3.534 L -4.948 3.448 L -5.059 3.380 L -5.191 3.323 L -5.334 3.269 L -5.478 3.211 L -5.609 3.141 L -5.716 3.055 L -5.792 2.951 L -5.832 2.829 L -5.838 2.691 L -5.817 2.545 L -5.780 2.394 L -5.739 2.246 L -5.708 2.106 L -5.698 1.976 L -5.718 1.858 L -5.771 1.751 L -5.855 1.651 L -5.963 1.556 L -6.083 1.460 L -6.202 1.361 L -6.305 1.254 L -6.381 1.139 L -6.420 1.017 L -6.420 0.888 L -6.384 0.756 L -6.319 0.622 L -6.237 0.491 L -6.152 0.363 L -6.079 0.239 L -6.030 0.118 L -6.013 0.000 L -6.030 -0.118 L -6.079 -0.239 L -6.152 -0.363 L -6.237 -0.491 L -6.319 -0.622 L -6.384 -0.756 L -6.420 -0.888 L -6.420 -1.017 L -6.381 -1.139 L -6.305 -1.254 L -6.202 -1.361 L -6.083 -1.460 L -5.963 -1.556 L -5.855 -1.651 L -5.771 -1.751 L -5.718 -1.858 L -5.698 -1.976 L -5.708 -2.106 L -5.739 -2.246 L -5.780 -2.394 L -5.817 -2.545 L -5.838 -2.691 L -5.832 -2.829 L -5.792 -2.951 L -5.716 -3.055 L -5.609 -3.141 L -5.478 -3.211 L -5.334 -3.269 L -5.191 -3.323 L -5.059 -3.380 L -4.948 -3.448 L -4.864 -3.534 L -4.809 -3.640 L -4.778 -3.767 L -4.764 -3.910 L -4.757 -4.063 L -4.746 -4.218 L -4.721 -4.364 L -4.672 -4.492 L -4.596 -4.596 L -4.492 -4.672 L -4.364 -4.721 L -4.218 -4.746 L -4.063 -4.757 L -3.910 -4.764 L -3.767 -4.778 L -3.640 -4.809 L -3.534 -4.864 L -3.448 -4.948 L -3.380 -5.059 L -3.323 -5.191 L -3.269 -5.334 L -3.211 -5.478 L -3.141 -5.609 L -3.055 -5.716 L -2.951 -5.792 L -2.829 -5.832 L -2.691 -5.838 L -2.545 -5.817 L -2.394 -5.780 L -2.246 -5.739 L -2.106 -5.708 L -1.976 -5.698 L -1.858 -5.718 L -1.751 -5.771 L -1.651 -5.855 L -1.556 -5.963 L -1.460 -6.083 L -1.361 -6.202 L -1.254 -6.305 L -1.139 -6.381 L -1.017 -6.420 L -0.888 -6.420 L -0.756 -6.384 L -0.622 -6.319 L -0.491 -6.237 L -0.363 -6.152 L -0.239 -6.079 L -0.118 -6.030 L -0.000 -6.013 L 0.118 -6.030 L 0.239 -6.079 L 0.363 -6.152 L 0.491 -6.237 L 0.622 -6.319 L 0.756 -6.384 L 0.888 -6.420 L 1.017 -6.420 L 1.139 -6.381 L 1.254 -6.305 L 1.361 -6.202 L 1.460 -6.083 L 1.556 -5.963 L 1.651 -5.855 L 1.751 -5.771 L 1.858 -5.718 L 1.976 -5.698 L 2.106 -5.708 L 2.246 -5.739 L 2.394 -5.780 L 2.545 -5.817 L 2.691 -5.838 L 2.829 -5.832 L 2.951 -5.792 L 3.055 -5.716 L 3.141 -5.609 L 3.211 -5.478 L 3.269 -5.334 L 3.323 -5.191 L 3.380 -5.059 L 3.448 -4.948 L 3.534 -4.864 L 3.640 -4.809 L 3.767 -4.778 L 3.910 -4.764 L 4.063 -4.757 L 4.218 -4.746 L 4.364 -4.721 L 4.492 -4.672 L 4.596 -4.596 L 4.672 -4.492 L 4.721 -4.364 L 4.746 -4.218 L 4.757 -4.063 L 4.764 -3.910 L 4.778 -3.767 L 4.809 -3.640 L 4.864 -3.534 L 4.948 -3.448 L 5.059 -3.380 L 5.191 -3.323 L 5.334 -3.269 L 5.478 -3.211 L 5.609 -3.141 L 5.716 -3.055 L 5.792 -2.951 L 5.832 -2.829 L 5.838 -2.691 L 5.817 -2.545 L 5.780 -2.394 L 5.739 -2.246 L 5.708 -2.106 L 5.698 -1.976 L 5.718 -1.858 L 5.771 -1.751 L 5.855 -1.651 L 5.963 -1.556 L 6.083 -1.460 L 6.202 -1.361 L 6.305 -1.254 L 6.381 -1.139 L 6.420 -1.017 L 6.420 -0.888 L 6.384 -0.756 L 6.319 -0.622 L 6.237 -0.491 L 6.152 -0.363 L 6.079 -0.239 L 6.030 -0.118 Z" fill="#e9e3d2" stroke="#2b2620" stroke-width="0.30" stroke-linejoin="round"/>
<line x1="4.494" y1="0.712" x2="5.938" y2="0.941" stroke="#b9b2a0" stroke-width="0.22" opacity="0.55" stroke-linecap="round"/>
<line x1="4.054" y1="2.066" x2="5.357" y2="2.730" stroke="#b9b2a0" stroke-width="0.22" opacity="0.55" stroke-linecap="round"/>
<line x1="3.217" y1="3.217" x2="4.251" y2="4.251" stroke="#b9b2a0" stroke-width="0.22" opacity="0.55" stroke-linecap="round"/>
<line x1="2.066" y1="4.054" x2="2.730" y2="5.357" stroke="#b9b2a0" stroke-width="0.22" opacity="0.55" stroke-linecap="round"/>
<line x1="0.712" y1="4.494" x2="0.941" y2="5.938" stroke="#b9b2a0" stroke-width="0.22" opacity="0.55" stroke-linecap="round"/>
<line x1="-0.712" y1="4.494" x2="-0.941" y2="5.938" stroke="#b9b2a0" stroke-width="0.22" opacity="0.55" stroke-linecap="round"/>
<line x1="-2.066" y1="4.054" x2="-2.730" y2="5.357" stroke="#b9b2a0" stroke-width="0.22" opacity="0.55" stroke-linecap="round"/>
<line x1="-3.217" y1="3.217" x2="-4.251" y2="4.251" stroke="#b9b2a0" stroke-width="0.22" opacity="0.55" stroke-linecap="round"/>
<line x1="-4.054" y1="2.066" x2="-5.357" y2="2.730" stroke="#b9b2a0" stroke-width="0.22" opacity="0.55" stroke-linecap="round"/>
<line x1="-4.494" y1="0.712" x2="-5.938" y2="0.941" stroke="#b9b2a0" stroke-width="0.22" opacity="0.55" stroke-linecap="round"/>
<line x1="-4.494" y1="-0.712" x2="-5.938" y2="-0.941" stroke="#b9b2a0" stroke-width="0.22" opacity="0.55" stroke-linecap="round"/>
<line x1="-4.054" y1="-2.066" x2="-5.357" y2="-2.730" stroke="#b9b2a0" stroke-width="0.22" opacity="0.55" stroke-linecap="round"/>
<line x1="-3.217" y1="-3.217" x2="-4.251" y2="-4.251" stroke="#b9b2a0" stroke-width="0.22" opacity="0.55" stroke-linecap="round"/>
<line x1="-2.066" y1="-4.054" x2="-2.730" y2="-5.357" stroke="#b9b2a0" stroke-width="0.22" opacity="0.55" stroke-linecap="round"/>
<line x1="-0.712" y1="-4.494" x2="-0.941" y2="-5.938" stroke="#b9b2a0" stroke-width="0.22" opacity="0.55" stroke-linecap="round"/>
<line x1="0.712" y1="-4.494" x2="0.941" y2="-5.938" stroke="#b9b2a0" stroke-width="0.22" opacity="0.55" stroke-linecap="round"/>
<line x1="2.066" y1="-4.054" x2="2.730" y2="-5.357" stroke="#b9b2a0" stroke-width="0.22" opacity="0.55" stroke-linecap="round"/>
<line x1="3.217" y1="-3.217" x2="4.251" y2="-4.251" stroke="#b9b2a0" stroke-width="0.22" opacity="0.55" stroke-linecap="round"/>
<line x1="4.054" y1="-2.066" x2="5.357" y2="-2.730" stroke="#b9b2a0" stroke-width="0.22" opacity="0.55" stroke-linecap="round"/>
<line x1="4.494" y1="-0.712" x2="5.938" y2="-0.941" stroke="#b9b2a0" stroke-width="0.22" opacity="0.55" stroke-linecap="round"/>
<circle cx="0" cy="0" r="4.615" fill="#d8d1bd"/>
<circle cx="0" cy="0" r="4.290" fill="#f4f0e4" stroke="#c9c2ad" stroke-width="0.22"/>
<line x1="0" y1="-0.650" x2="0" y2="-3.770" stroke="#1b1815" stroke-width="0.715" stroke-linecap="round"/>
</svg>