<?xml version="1.0" encoding="UTF-8"?>
<svg xmlns="http://www.w3.org/2000/svg" width="32.480" height="32.480" viewBox="-5.500 -5.500 11.000 11.000">
<!-- generated by panel_src/gen_knobs.py : do not hand-edit -->
<path d="M 3.600 0.000 L 3.597 0.135 L 3.590 0.269 L 3.575 0.403 L 3.552 0.535 L 3.515 0.665 L 3.460 0.790 L 3.385 0.907 L 3.289 1.015 L 3.176 1.111 L 3.053 1.198 L 2.929 1.278 L 2.815 1.356 L 2.720 1.438 L 2.650 1.530 L 2.605 1.637 L 2.581 1.760 L 2.571 1.898 L 2.564 2.045 L 2.551 2.195 L 2.523 2.341 L 2.478 2.478 L 2.414 2.602 L 2.333 2.711 L 2.239 2.808 L 2.136 2.895 L 2.028 2.974 L 1.915 3.048 L 1.800 3.118 L 1.682 3.183 L 1.562 3.243 L 1.439 3.298 L 1.312 3.343 L 1.181 3.376 L 1.046 3.391 L 0.907 3.385 L 0.766 3.356 L 0.626 3.306 L 0.489 3.243 L 0.358 3.175 L 0.233 3.116 L 0.115 3.075 L 0.000 3.060 L -0.115 3.075 L -0.233 3.116 L -0.358 3.175 L -0.489 3.243 L -0.626 3.306 L -0.766 3.356 L -0.907 3.385 L -1.046 3.391 L -1.181 3.376 L -1.312 3.343 L -1.439 3.298 L -1.562 3.243 L -1.682 3.183 L -1.800 3.118 L -1.915 3.048 L -2.028 2.974 L -2.136 2.895 L -2.239 2.808 L -2.333 2.711 L -2.414 2.602 L -2.478 2.478 L -2.523 2.341 L -2.551 2.195 L -2.564 2.045 L -2.571 1.898 L -2.581 1.760 L -2.605 1.637 L -2.650 1.530 L -2.720 1.438 L -2.815 1.356 L -2.929 1.278 L -3.053 1.198 L -3.176 1.111 L -3.289 1.015 L -3.385 0.907 L -3.460 0.790 L -3.515 0.665 L -3.552 0.535 L -3.575 0.403 L -3.590 0.269 L -3.597 0.135 L -3.600 0.000 L -3.597 -0.135 L -3.590 -0.269 L -3.575 -0.403 L -3.552 -0.535 L -3.515 -0.665 L -3.460 -0.790 L -3.385 -0.907 L -3.289 -1.015 L -3.176 -1.111 L -3.053 -1.198 L -2.929 -1.278 L -2.815 -1.356 L -2.720 -1.438 L -2.650 -1.530 L -2.605 -1.637 L -2.581 -1.760 L -2.571 -1.898 L -2.564 -2.045 L -2.551 -2.195 L -2.523 -2.341 L -2.478 -2.478 L -2.414 -2.602 L -2.333 -2.711 L -2.239 -2.808 L -2.136 -2.895 L -2.028 -2.974 L -1.915 -3.048 L -1.800 -3.118 L -1.682 -3.183 L -1.562 -3.243 L -1.439 -3.298 L -1.312 -3.343 L -1.181 -3.376 L -1.046 -3.391 L -0.907 -3.385 L -0.766 -3.356 L -0.626 -3.306 L -0.489 -3.243 L -0.358 -3.175 L -0.233 -3.116 L -0.115 -3.075 L -0.000 -3.060 L 0.115 -3.075 L 0.233 -3.116 L 0.358 -3.175 L 0.489 -3.243 L 0.626 -3.306 L 0.766 -3.356 L 0.907 -3.385 L 1.046 -3.391 L 1.181 -3.376 L 1.312 -3.343 L 1.439 -3.298 L 1.562 -3.243 L 1.682 -3.183 L 1.800 -3.118 L 1.915 -3.048 L 2.028 -2.974 L 2.136 -2.895 L 2.239 -2.808 L 2.333 -2.711 L 2.414 -2.602 L 2.478 -2.478 L 2.523 -2.341 L 2.551 -2.195 L 2.564 -2.045 L 2.571 -1.898 L 2.581 -1.760 L 2.605 -1.637 L 2.650 -1.530 L 2.720 -1.438 L 2.815 -1.356 L 2.929 -1.278 L 3.053 -1.198 L 3.176 -1.111 L 3.289 -1.015 L 3.385 -0.907 L 3.460 -0.790 L 3.515 -0.665 L 3.552 -0.535 L 3.575 -0.403 L 3.590 -0.269 L 3.597 -0.135 Z" fill="#2e2e2e" stroke="#0b0b0b" stroke-width="0.30" stroke-linejoin="round"/>
<circle cx="0" cy="0" r="2.664" fill="#3a3a3a"/>
<line x1="0" y1="-0.720" x2="0" y2="-2.952" stroke="#e8e8e8" stroke-width="0.306" stroke-linecap="round"/>
</svg>