<?xml version="1.0" encoding="UTF-8"?>
<svg xmlns="http://www.w3.org/2000/svg" width="64.961" height="64.961" viewBox="-11.000 -11.000 22.000 22.000">
<!-- generated by panel_src/gen_knobs.py : do not hand-edit -->
<path d="M 5.752 0.000 L 5.769 0.378 L 5.812 0.765 L 5.868 1.167 L 5.918 1.586 L 5.937 2.015 L 5.904 2.446 L 5.804 2.862 L 5.629 3.250 L 5.381 3.595 L 5.070 3.890 L 4.713 4.134 L 4.332 4.332 L 3.945 4.498 L 3.569 4.651 L 3.212 4.807 L 2.876 4.982 L 2.557 5.185 L 2.243 5.416 L 1.923 5.666 L 1.586 5.918 L 1.223 6.149 L 0.834 6.336 L 0.423 6.458 L 0.000 6.500 L -0.423 6.458 L -0.834 6.336 L -1.223 6.149 L -1.586 5.918 L -1.923 5.666 L -2.243 5.416 L -2.557 5.185 L -2.876 4.982 L -3.212 4.807 L -3.569 4.651 L -3.945 4.498 L -4.332 4.332 L -4.713 4.134 L -5.070 3.890 L -5.381 3.595 L -5.629 3.250 L -5.804 2.862 L -5.904 2.446 L -5.937 2.015 L -5.918 1.586 L -5.868 1.167 L -5.812 0.765 L -5.769 0.378 L -5.752 0.000 L -5.769 -0.378 L -5.812 -0.765 L -5.868 -1.167 L -5.918 -1.586 L -5.937 -2.015 L -5.904 -2.446 L -5.804 -2.862 L -5.629 -3.250 L -5.381 -3.595 L -5.070 -3.890 L -4.713 -4.134 L -4.332 -4.332 L -3.945 -4.498 L -3.569 -4.651 L -3.212 -4.807 L -2.876 -4.982 L -2.557 -5.185 L -2.243 -5.416 L -1.923 -5.666 L -1.586 -5.918 L -1.223 -6.149 L -0.834 -6.336 L -0.423 -6.458 L -0.000 -6.500 L 0.423 -6.458 L 0.834 -6.336 L 1.223 -6.149 L 1.586 -5.918 L 1.923 -5.666 L 2.243 -5.416 L 2.557 -5.185 L 2.876 -4.982 L 3.212 -4.807 L 3.569 -4.651 L 3.945 -4.498 L 4.332 -4.332 L 4.713 -4.134 L 5.070 -3.890 L 5.381 -3.595 L 5.629 -3.250 L 5.804 -2.862 L 5.904 -2.446 L 5.937 -2.015 L 5.918 -1.586 L 5.868 -1.167 L 5.812 -0.765 L 5.769 -0.378 Z" fill="#2e2e2e" stroke="#0b0b0b" stroke-width="0.30" stroke-linejoin="round"/>
<circle cx="0" cy="0" r="5.200" fill="#3a3a3a"/>
<line x1="0" y1="-1.300" x2="0" y2="-5.330" stroke="#e8e8e8" stroke-width="0.552" stroke-linecap="round"/>
</svg>