<?xml version="1.0" encoding="UTF-8"?>
<svg xmlns="http://www.w3.org/2000/svg" width="53.150" height="53.150" viewBox="-9.000 -9.000 18.000 18.000">
<!-- generated by panel_src/gen_knobs.py : do not hand-edit -->
<path d="M 5.841 0.000 L 5.857 0.384 L 5.901 0.777 L 5.959 1.185 L 6.009 1.610 L 6.028 2.046 L 5.995 2.483 L 5.893 2.906 L 5.716 3.300 L 5.464 3.651 L 5.148 3.950 L 4.786 4.197 L 4.399 4.399 L 4.006 4.568 L 3.623 4.722 L 3.261 4.881 L 2.921 5.058 L 2.596 5.265 L 2.278 5.499 L 1.953 5.753 L 1.610 6.009 L 1.242 6.243 L 0.847 6.433 L 0.430 6.557 L 0.000 6.600 L -0.430 6.557 L -0.847 6.433 L -1.242 6.243 L -1.610 6.009 L -1.953 5.753 L -2.278 5.499 L -2.596 5.265 L -2.920 5.058 L -3.261 4.881 L -3.623 4.722 L -4.006 4.568 L -4.399 4.399 L -4.786 4.197 L -5.148 3.950 L -5.464 3.651 L -5.716 3.300 L -5.893 2.906 L -5.995 2.483 L -6.028 2.046 L -6.009 1.610 L -5.959 1.185 L -5.901 0.777 L -5.857 0.384 L -5.841 0.000 L -5.857 -0.384 L -5.901 -0.777 L -5.959 -1.185 L -6.009 -1.610 L -6.028 -2.046 L -5.995 -2.483 L -5.893 -2.906 L -5.716 -3.300 L -5.464 -3.651 L -5.148 -3.950 L -4.786 -4.197 L -4.399 -4.399 L -4.006 -4.568 L -3.623 -4.722 L -3.261 -4.881 L -2.921 -5.058 L -2.596 -5.265 L -2.278 -5.499 L -1.953 -5.753 L -1.610 -6.009 L -1.242 -6.243 L -0.847 -6.433 L -0.430 -6.557 L -0.000 -6.600 L 0.430 -6.557 L 0.847 -6.433 L 1.242 -6.243 L 1.610 -6.009 L 1.953 -5.753 L 2.278 -5.499 L 2.596 -5.265 L 2.921 -5.058 L 3.261 -4.881 L 3.623 -4.722 L 4.006 -4.568 L 4.399 -4.399 L 4.786 -4.197 L 5.148 -3.950 L 5.464 -3.651 L 5.716 -3.300 L 5.893 -2.906 L 5.995 -2.483 L 6.028 -2.046 L 6.009 -1.610 L 5.959 -1.185 L 5.901 -0.777 L 5.857 -0.384 Z" fill="#2e2e2e" stroke="#0b0b0b" stroke-width="0.30" stroke-linejoin="round"/>
<circle cx="0" cy="0" r="5.280" fill="#3a3a3a"/>
<line x1="0" y1="-1.320" x2="0" y2="-5.412" stroke="#e8e8e8" stroke-width="0.561" stroke-linecap="round"/>
</svg>