<?xml version="1.0" encoding="UTF-8"?>
<svg xmlns="http://www.w3.org/2000/svg" width="47.240" height="47.240" viewBox="-8.000 -8.000 16.000 16.000">
<!-- generated by panel_src/gen_knobs.py : do not hand-edit -->
<path d="M 5.180 0.000 L 5.195 0.102 L 5.237 0.206 L 5.300 0.313 L 5.373 0.423 L 5.444 0.536 L 5.500 0.651 L 5.531 0.765 L 5.531 0.876 L 5.497 0.982 L 5.432 1.081 L 5.343 1.172 L 5.241 1.258 L 5.138 1.341 L 5.045 1.423 L 4.972 1.508 L 4.926 1.601 L 4.909 1.702 L 4.918 1.814 L 4.944 1.935 L 4.980 2.063 L 5.012 2.192 L 5.030 2.319 L 5.024 2.437 L 4.990 2.542 L 4.925 2.632 L 4.832 2.706 L 4.719 2.766 L 4.596 2.816 L 4.472 2.863 L 4.358 2.912 L 4.263 2.971 L 4.191 3.045 L 4.143 3.136 L 4.116 3.245 L 4.104 3.368 L 4.099 3.501 L 4.089 3.634 L 4.067 3.760 L 4.025 3.870 L 3.960 3.960 L 3.870 4.025 L 3.760 4.067 L 3.634 4.089 L 3.501 4.099 L 3.368 4.104 L 3.245 4.116 L 3.136 4.143 L 3.045 4.191 L 2.971 4.263 L 2.912 4.358 L 2.863 4.472 L 2.816 4.596 L 2.766 4.719 L 2.706 4.832 L 2.632 4.925 L 2.542 4.990 L 2.437 5.024 L 2.319 5.030 L 2.192 5.012 L 2.063 4.980 L 1.935 4.944 L 1.814 4.918 L 1.702 4.909 L 1.601 4.926 L 1.508 4.972 L 1.423 5.045 L 1.341 5.138 L 1.258 5.241 L 1.172 5.343 L 1.081 5.432 L 0.982 5.497 L 0.876 5.531 L 0.765 5.531 L 0.651 5.500 L 0.536 5.444 L 0.423 5.373 L 0.313 5.300 L 0.206 5.237 L 0.102 5.195 L 0.000 5.180 L -0.102 5.195 L -0.206 5.237 L -0.313 5.300 L -0.423 5.373 L -0.536 5.444 L -0.651 5.500 L -0.765 5.531 L -0.876 5.531 L -0.982 5.497 L -1.081 5.432 L -1.172 5.343 L -1.258 5.241 L -1.341 5.138 L -1.423 5.045 L -1.508 4.972 L -1.601 4.926 L -1.702 4.909 L -1.814 4.918 L -1.935 4.944 L -2.063 4.980 L -2.192 5.012 L -2.319 5.030 L -2.437 5.024 L -2.542 4.990 L -2.632 4.925 L -2.706 4.832 L -2.766 4.719 L -2.816 4.596 L -2.863 4.472 L -2.912 4.358 L -2.971 4.263 L -3.045 4.191 L -3.136 4.143 L -3.245 4.116 L -3.368 4.104 L -3.501 4.099 L -3.634 4.089 L -3.760 4.067 L -3.870 4.025 L -3.960 3.960 L -4.025 3.870 L -4.067 3.760 L -4.089 3.634 L -4.099 3.501 L -4.104 3.368 L -4.116 3.245 L -4.143 3.136 L -4.191 3.045 L -4.263 2.971 L -4.358 2.912 L -4.472 2.863 L -4.596 2.816 L -4.719 2.766 L -4.832 2.706 L -4.925 2.632 L -4.990 2.542 L -5.024 2.437 L -5.030 2.319 L -5.012 2.192 L -4.980 2.063 L -4.944 1.935 L -4.918 1.814 L -4.909 1.702 L -4.926 1.601 L -4.972 1.508 L -5.045 1.423 L -5.138 1.341 L -5.241 1.258 L -5.343 1.172 L -5.432 1.081 L -5.497 0.982 L -5.531 0.876 L -5.531 0.765 L -5.500 0.651 L -5.444 0.536 L -5.373 0.423 L -5.300 0.313 L -5.237 0.206 L -5.195 0.102 L -5.180 0.000 L -5.195 -0.102 L -5.237 -0.206 L -5.300 -0.313 L -5.373 -0.423 L -5.444 -0.536 L -5.500 -0.651 L -5.531 -0.765 L -5.531 -0.876 L -5.497 -0.982 L -5.432 -1.081 L -5.343 -1.172 L -5.241 -1.258 L -5.138 -1.341 L -5.045 -1.423 L -4.972 -1.508 L -4.926 -1.601 L -4.909 -1.702 L -4.918 -1.814 L -4.944 -1.935 L -4.980 -2.063 L -5.012 -2.192 L -5.030 -2.319 L -5.024 -2.437 L -4.990 -2.542 L -4.925 -2.632 L -4.832 -2.706 L -4.719 -2.766 L -4.596 -2.816 L -4.472 -2.863 L -4.358 -2.912 L -4.263 -2.971 L -4.191 -3.045 L -4.143 -3.136 L -4.116 -3.245 L -4.104 -3.368 L -4.099 -3.501 L -4.089 -3.634 L -4.067 -3.760 L -4.025 -3.870 L -3.960 -3.960 L -3.870 -4.025 L -3.760 -4.067 L -3.634 -4.089 L -3.501 -4.099 L -3.368 -4.104 L -3.245 -4.116 L -3.136 -4.143 L -3.045 -4.191 L -2.971 -4.263 L -2.912 -4.358 L -2.863 -4.472 L -2.816 -4.596 L -2.766 -4.719 L -2.706 -4.832 L -2.632 -4.925 L -2.542 -4.990 L -2.437 -5.024 L -2.319 -5.030 L -2.192 -5.012 L -2.063 -4.980 L -1.935 -4.944 L -1.814 -4.918 L -1.702 -4.909 L -1.601 -4.926 L -1.508 -4.972 L -1.423 -5.045 L -1.341 -5.138 L -1.258 -5.241 L -1.172 -5.343 L -1.081 -5.432 L -0.982 -5.497 L -0.876 -5.531 L -0.765 -5.531 L -0.651 -5.500 L -0.536 -5.444 L -0.423 -5.373 L -0.313 -5.300 L -0.206 -5.237 L -0.102 -5.195 L -0.000 -5.180 L 0.102 -5.195 L 0.206 -5.237 L 0.313 -5.300 L 0.423 -5.373 L 0.536 -5.444 L 0.651 -5.500 L 0.765 -5.531 L 0.876 -5.531 L 0.982 -5.497 L 1.081 -5.432 L 1.172 -5.343 L 1.258 -5.241 L 1.341 -5.138 L 1.423 -5.045 L 1.508 -4.972 L 1.601 -4.926 L 1.702 -4.909 L 1.814 -4.918 L 1.935 -4.944 L 2.063 -4.980 L 2.192 -5.012 L 2.319 -5.030 L 2.437 -5.024 L 2.542 -4.990 L 2.632 -4.925 L 2.706 -4.832 L 2.766 -4.719 L 2.816 -4.596 L 2.863 -4.472 L 2.912 -4.358 L 2.971 -4.263 L 3.045 -4.191 L 3.136 -4.143 L 3.245 -4.116 L 3.368 -4.104 L 3.501 -4.099 L 3.634 -4.089 L 3.760 -4.067 L 3.870 -4.025 L 3.960 -3.960 L 4.025 -3.870 L 4.067 -3.760 L 4.089 -3.634 L 4.099 -3.501 L 4.104 -3.368 L 4.116 -3.245 L 4.143 -3.136 L 4.191 -3.045 L 4.263 -2.971 L 4.358 -2.912 L 4.472 -2.863 L 4.596 -2.816 L 4.719 -2.766 L 4.832 -2.706 L 4.925 -2.632 L 4.990 -2.542 L 5.024 -2.437 L 5.030 -2.319 L 5.012 -2.192 L 4.980 -2.063 L 4.944 -1.935 L 4.918 -1.814 L 4.909 -1.702 L 4.926 -1.601 L 4.972 -1.508 L 5.045 -1.423 L 5.138 -1.341 L 5.241 -1.258 L 5.343 -1.172 L 5.432 -1.081 L 5.497 -0.982 L 5.531 -0.876 L 5.531 -0.765 L 5.500 -0.651 L 5.444 -0.536 L 5.373 -0.423 L 5.300 -0.313 L 5.237 -0.206 L 5.195 -0.102 Z" fill="#e9e3d2" stroke="#2b2620" stroke-width="0.30" stroke-linejoin="round"/>
<line x1="3.872" y1="0.613" x2="5.116" y2="0.810" stroke="#b9b2a0" stroke-width="0.22" opacity="0.55" stroke-linecap="round"/>
<line x1="3.493" y1="1.780" x2="4.615" y2="2.352" stroke="#b9b2a0" stroke-width="0.22" opacity="0.55" stroke-linecap="round"/>
<line x1="2.772" y1="2.772" x2="3.663" y2="3.663" stroke="#b9b2a0" stroke-width="0.22" opacity="0.55" stroke-linecap="round"/>
<line x1="1.780" y1="3.493" x2="2.352" y2="4.615" stroke="#b9b2a0" stroke-width="0.22" opacity="0.55" stroke-linecap="round"/>
<line x1="0.613" y1="3.872" x2="0.810" y2="5.116" stroke="#b9b2a0" stroke-width="0.22" opacity="0.55" stroke-linecap="round"/>
<line x1="-0.613" y1="3.872" x2="-0.810" y2="5.116" stroke="#b9b2a0" stroke-width="0.22" opacity="0.55" stroke-linecap="round"/>
<line x1="-1.780" y1="3.493" x2="-2.352" y2="4.615" stroke="#b9b2a0" stroke-width="0.22" opacity="0.55" stroke-linecap="round"/>
<line x1="-2.772" y1="2.772" x2="-3.663" y2="3.663" stroke="#b9b2a0" stroke-width="0.22" opacity="0.55" stroke-linecap="round"/>
<line x1="-3.493" y1="1.780" x2="-4.615" y2="2.352" stroke="#b9b2a0" stroke-width="0.22" opacity="0.55" stroke-linecap="round"/>
<line x1="-3.872" y1="0.613" x2="-5.116" y2="0.810" stroke="#b9b2a0" stroke-width="0.22" opacity="0.55" stroke-linecap="round"/>
<line x1="-3.872" y1="-0.613" x2="-5.116" y2="-0.810" stroke="#b9b2a0" stroke-width="0.22" opacity="0.55" stroke-linecap="round"/>
<line x1="-3.493" y1="-1.780" x2="-4.615" y2="-2.352" stroke="#b9b2a0" stroke-width="0.22" opacity="0.55" stroke-linecap="round"/>
<line x1="-2.772" y1="-2.772" x2="-3.663" y2="-3.663" stroke="#b9b2a0" stroke-width="0.22" opacity="0.55" stroke-linecap="round"/>
<line x1="-1.780" y1="-3.493" x2="-2.352" y2="-4.615" stroke="#b9b2a0" stroke-width="0.22" opacity="0.55" stroke-linecap="round"/>
<line x1="-0.613" y1="-3.872" x2="-0.810" y2="-5.116" stroke="#b9b2a0" stroke-width="0.22" opacity="0.55" stroke-linecap="round"/>
<line x1="0.613" y1="-3.872" x2="0.810" y2="-5.116" stroke="#b9b2a0" stroke-width="0.22" opacity="0.55" stroke-linecap="round"/>
<line x1="1.780" y1="-3.493" x2="2.352" y2="-4.615" stroke="#b9b2a0" stroke-width="0.22" opacity="0.55" stroke-linecap="round"/>
<line x1="2.772" y1="-2.772" x2="3.663" y2="-3.663" stroke="#b9b2a0" stroke-width="0.22" opacity="0.55" stroke-linecap="round"/>
<line x1="3.493" y1="-1.780" x2="4.615" y2="-2.352" stroke="#b9b2a0" stroke-width="0.22" opacity="0.55" stroke-linecap="round"/>
<line x1="3.872" y1="-0.613" x2="5.116" y2="-0.810" stroke="#b9b2a0" stroke-width="0.22" opacity="0.55" stroke-linecap="round"/>
<circle cx="0" cy="0" r="3.976" fill="#d8d1bd"/>
<circle cx="0" cy="0" r="3.696" fill="#f4f0e4" stroke="#c9c2ad" stroke-width="0.22"/>
<line x1="0" y1="-0.560" x2="0" y2="-3.248" stroke="#1b1815" stroke-width="0.616" stroke-linecap="round"/>
</svg>