<?xml version="1.0" encoding="UTF-8"?>
<svg xmlns="http://www.w3.org/2000/svg" width="47.240" height="47.240" viewBox="-8.000 -8.000 16.000 16.000">
<!-- generated by panel_src/gen_knobs.py : do not hand-edit -->
<path d="M 4.000 0.000 L 3.997 0.150 L 3.988 0.299 L 3.973 0.448 L 3.946 0.595 L 3.905 0.739 L 3.845 0.878 L 3.761 1.008 L 3.655 1.127 L 3.529 1.235 L 3.392 1.331 L 3.254 1.420 L 3.128 1.506 L 3.022 1.597 L 2.944 1.700 L 2.895 1.819 L 2.868 1.956 L 2.857 2.108 L 2.849 2.272 L 2.834 2.439 L 2.804 2.601 L 2.753 2.753 L 2.682 2.891 L 2.592 3.013 L 2.488 3.120 L 2.374 3.216 L 2.253 3.305 L 2.128 3.387 L 2.000 3.464 L 1.869 3.536 L 1.735 3.604 L 1.599 3.664 L 1.458 3.715 L 1.313 3.751 L 1.162 3.768 L 1.008 3.761 L 0.851 3.729 L 0.695 3.674 L 0.543 3.603 L 0.398 3.528 L 0.259 3.462 L 0.128 3.416 L 0.000 3.400 L -0.128 3.416 L -0.259 3.462 L -0.398 3.528 L -0.543 3.603 L -0.695 3.674 L -0.851 3.729 L -1.008 3.761 L -1.162 3.768 L -1.313 3.751 L -1.458 3.715 L -1.599 3.664 L -1.735 3.604 L -1.869 3.536 L -2.000 3.464 L -2.128 3.387 L -2.253 3.305 L -2.374 3.216 L -2.488 3.120 L -2.592 3.013 L -2.682 2.891 L -2.753 2.753 L -2.804 2.601 L -2.834 2.439 L -2.849 2.272 L -2.857 2.108 L -2.868 1.956 L -2.895 1.819 L -2.944 1.700 L -3.022 1.597 L -3.128 1.506 L -3.254 1.420 L -3.392 1.331 L -3.529 1.235 L -3.655 1.127 L -3.761 1.008 L -3.845 0.878 L -3.905 0.739 L -3.946 0.595 L -3.973 0.448 L -3.988 0.299 L -3.997 0.150 L -4.000 0.000 L -3.997 -0.150 L -3.988 -0.299 L -3.973 -0.448 L -3.946 -0.595 L -3.905 -0.739 L -3.845 -0.878 L -3.761 -1.008 L -3.655 -1.127 L -3.529 -1.235 L -3.392 -1.331 L -3.254 -1.420 L -3.128 -1.506 L -3.022 -1.597 L -2.944 -1.700 L -2.895 -1.819 L -2.868 -1.956 L -2.857 -2.108 L -2.849 -2.272 L -2.834 -2.439 L -2.804 -2.601 L -2.753 -2.753 L -2.682 -2.891 L -2.592 -3.013 L -2.488 -3.120 L -2.374 -3.216 L -2.253 -3.305 L -2.128 -3.387 L -2.000 -3.464 L -1.869 -3.536 L -1.735 -3.604 L -1.599 -3.664 L -1.458 -3.715 L -1.313 -3.751 L -1.162 -3.768 L -1.008 -3.761 L -0.851 -3.729 L -0.695 -3.674 L -0.543 -3.603 L -0.398 -3.528 L -0.259 -3.462 L -0.128 -3.416 L -0.000 -3.400 L 0.128 -3.416 L 0.259 -3.462 L 0.398 -3.528 L 0.543 -3.603 L 0.695 -3.674 L 0.851 -3.729 L 1.008 -3.761 L 1.162 -3.768 L 1.313 -3.751 L 1.458 -3.715 L 1.599 -3.664 L 1.735 -3.604 L 1.869 -3.536 L 2.000 -3.464 L 2.128 -3.387 L 2.253 -3.305 L 2.374 -3.216 L 2.488 -3.120 L 2.592 -3.013 L 2.682 -2.891 L 2.753 -2.753 L 2.804 -2.601 L 2.834 -2.439 L 2.849 -2.272 L 2.857 -2.108 L 2.868 -1.956 L 2.895 -1.819 L 2.944 -1.700 L 3.022 -1.597 L 3.128 -1.506 L 3.254 -1.420 L 3.392 -1.331 L 3.529 -1.235 L 3.655 -1.127 L 3.761 -1.008 L 3.845 -0.878 L 3.905 -0.739 L 3.946 -0.595 L 3.973 -0.448 L 3.988 -0.299 L 3.997 -0.150 Z" fill="#2e2e2e" stroke="#0b0b0b" stroke-width="0.30" stroke-linejoin="round"/>
<circle cx="0" cy="0" r="2.960" fill="#3a3a3a"/>
<line x1="0" y1="-0.800" x2="0" y2="-3.280" stroke="#e8e8e8" stroke-width="0.340" stroke-linecap="round"/>
</svg>