<?xml version="1.0" encoding="UTF-8"?>
<svg xmlns="http://www.w3.org/2000/svg" width="79.724" height="79.724" viewBox="-13.500 -13.500 27.000 27.000">
<!-- generated by panel_src/gen_knobs.py : do not hand-edit -->
<path d="M 8.325 0.000 L 8.349 0.164 L 8.417 0.331 L 8.519 0.502 L 8.636 0.680 L 8.749 0.862 L 8.839 1.046 L 8.890 1.230 L 8.889 1.408 L 8.835 1.578 L 8.730 1.737 L 8.587 1.884 L 8.423 2.022 L 8.257 2.155 L 8.108 2.287 L 7.991 2.424 L 7.918 2.573 L 7.890 2.736 L 7.903 2.916 L 7.946 3.110 L 8.003 3.315 L 8.055 3.523 L 8.084 3.727 L 8.075 3.916 L 8.019 4.086 L 7.915 4.230 L 7.766 4.349 L 7.585 4.446 L 7.386 4.526 L 7.187 4.601 L 7.004 4.680 L 6.851 4.775 L 6.735 4.893 L 6.658 5.040 L 6.615 5.215 L 6.596 5.413 L 6.587 5.626 L 6.572 5.840 L 6.536 6.042 L 6.469 6.220 L 6.364 6.364 L 6.220 6.469 L 6.042 6.536 L 5.840 6.572 L 5.626 6.587 L 5.413 6.596 L 5.215 6.615 L 5.040 6.658 L 4.893 6.735 L 4.775 6.851 L 4.680 7.004 L 4.601 7.187 L 4.526 7.386 L 4.446 7.585 L 4.349 7.766 L 4.230 7.915 L 4.086 8.019 L 3.916 8.075 L 3.727 8.084 L 3.523 8.055 L 3.315 8.003 L 3.110 7.946 L 2.916 7.903 L 2.736 7.890 L 2.573 7.918 L 2.424 7.991 L 2.287 8.108 L 2.155 8.257 L 2.022 8.423 L 1.884 8.587 L 1.737 8.730 L 1.578 8.835 L 1.408 8.889 L 1.230 8.890 L 1.046 8.839 L 0.862 8.749 L 0.680 8.636 L 0.502 8.519 L 0.331 8.417 L 0.164 8.349 L 0.000 8.325 L -0.164 8.349 L -0.331 8.417 L -0.502 8.519 L -0.680 8.636 L -0.862 8.749 L -1.046 8.839 L -1.230 8.890 L -1.408 8.889 L -1.578 8.835 L -1.737 8.730 L -1.884 8.587 L -2.022 8.423 L -2.155 8.257 L -2.287 8.108 L -2.424 7.991 L -2.573 7.918 L -2.736 7.890 L -2.916 7.903 L -3.110 7.946 L -3.315 8.003 L -3.523 8.055 L -3.727 8.084 L -3.916 8.075 L -4.086 8.019 L -4.230 7.915 L -4.349 7.766 L -4.446 7.585 L -4.526 7.386 L -4.601 7.187 L -4.680 7.004 L -4.775 6.851 L -4.893 6.735 L -5.040 6.658 L -5.215 6.615 L -5.413 6.596 L -5.626 6.587 L -5.840 6.572 L -6.042 6.536 L -6.220 6.469 L -6.364 6.364 L -6.469 6.220 L -6.536 6.042 L -6.572 5.840 L -6.587 5.626 L -6.596 5.413 L -6.615 5.215 L -6.658 5.040 L -6.735 4.893 L -6.851 4.775 L -7.004 4.680 L -7.187 4.601 L -7.386 4.526 L -7.585 4.446 L -7.766 4.349 L -7.915 4.230 L -8.019 4.086 L -8.075 3.916 L -8.084 3.727 L -8.055 3.523 L -8.003 3.315 L -7.946 3.110 L -7.903 2.916 L -7.890 2.736 L -7.918 2.573 L -7.991 2.424 L -8.108 2.287 L -8.257 2.155 L -8.423 2.022 L -8.587 1.884 L -8.730 1.737 L -8.835 1.578 L -8.889 1.408 L -8.890 1.230 L -8.839 1.046 L -8.749 0.862 L -8.636 0.680 L -8.519 0.502 L -8.417 0.331 L -8.349 0.164 L -8.325 0.000 L -8.349 -0.164 L -8.417 -0.331 L -8.519 -0.502 L -8.636 -0.680 L -8.749 -0.862 L -8.839 -1.046 L -8.890 -1.230 L -8.889 -1.408 L -8.835 -1.578 L -8.730 -1.737 L -8.587 -1.884 L -8.423 -2.022 L -8.257 -2.155 L -8.108 -2.287 L -7.991 -2.424 L -7.918 -2.573 L -7.890 -2.736 L -7.903 -2.916 L -7.946 -3.110 L -8.003 -3.315 L -8.055 -3.523 L -8.084 -3.727 L -8.075 -3.916 L -8.019 -4.086 L -7.915 -4.230 L -7.766 -4.349 L -7.585 -4.446 L -7.386 -4.526 L -7.187 -4.601 L -7.004 -4.680 L -6.851 -4.775 L -6.735 -4.893 L -6.658 -5.040 L -6.615 -5.215 L -6.596 -5.413 L -6.587 -5.626 L -6.572 -5.840 L -6.536 -6.042 L -6.469 -6.220 L -6.364 -6.364 L -6.220 -6.469 L -6.042 -6.536 L -5.840 -6.572 L -5.626 -6.587 L -5.413 -6.596 L -5.215 -6.615 L -5.040 -6.658 L -4.893 -6.735 L -4.775 -6.851 L -4.680 -7.004 L -4.601 -7.187 L -4.526 -7.386 L -4.446 -7.585 L -4.349 -7.766 L -4.230 -7.915 L -4.086 -8.019 L -3.916 -8.075 L -3.727 -8.084 L -3.523 -8.055 L -3.315 -8.003 L -3.110 -7.946 L -2.916 -7.903 L -2.736 -7.890 L -2.573 -7.918 L -2.424 -7.991 L -2.287 -8.108 L -2.155 -8.257 L -2.022 -8.423 L -1.884 -8.587 L -1.737 -8.730 L -1.578 -8.835 L -1.408 -8.889 L -1.230 -8.890 L -1.046 -8.839 L -0.862 -8.749 L -0.680 -8.636 L -0.502 -8.519 L -0.331 -8.417 L -0.164 -8.349 L -0.000 -8.325 L 0.164 -8.349 L 0.331 -8.417 L 0.502 -8.519 L 0.680 -8.636 L 0.862 -8.749 L 1.046 -8.839 L 1.230 -8.890 L 1.408 -8.889 L 1.578 -8.835 L 1.737 -8.730 L 1.884 -8.587 L 2.022 -8.423 L 2.155 -8.257 L 2.287 -8.108 L 2.424 -7.991 L 2.573 -7.918 L 2.736 -7.890 L 2.916 -7.903 L 3.110 -7.946 L 3.315 -8.003 L 3.523 -8.055 L 3.727 -8.084 L 3.916 -8.075 L 4.086 -8.019 L 4.230 -7.915 L 4.349 -7.766 L 4.446 -7.585 L 4.526 -7.386 L 4.601 -7.187 L 4.680 -7.004 L 4.775 -6.851 L 4.893 -6.735 L 5.040 -6.658 L 5.215 -6.615 L 5.413 -6.596 L 5.626 -6.587 L 5.840 -6.572 L 6.042 -6.536 L 6.220 -6.469 L 6.364 -6.364 L 6.469 -6.220 L 6.536 -6.042 L 6.572 -5.840 L 6.587 -5.626 L 6.596 -5.413 L 6.615 -5.215 L 6.658 -5.040 L 6.735 -4.893 L 6.851 -4.775 L 7.004 -4.680 L 7.187 -4.601 L 7.386 -4.526 L 7.585 -4.446 L 7.766 -4.349 L 7.915 -4.230 L 8.019 -4.086 L 8.075 -3.916 L 8.084 -3.727 L 8.055 -3.523 L 8.003 -3.315 L 7.946 -3.110 L 7.903 -2.916 L 7.890 -2.736 L 7.918 -2.573 L 7.991 -2.424 L 8.108 -2.287 L 8.257 -2.155 L 8.423 -2.022 L 8.587 -1.884 L 8.730 -1.737 L 8.835 -1.578 L 8.889 -1.408 L 8.890 -1.230 L 8.839 -1.046 L 8.749 -0.862 L 8.636 -0.680 L 8.519 -0.502 L 8.417 -0.331 L 8.349 -0.164 Z" fill="#e9e3d2" stroke="#2b2620" stroke-width="0.30" stroke-linejoin="round"/>
<line x1="6.222" y1="0.986" x2="8.223" y2="1.302" stroke="#b9b2a0" stroke-width="0.22" opacity="0.55" stroke-linecap="round"/>
<line x1="5.613" y1="2.860" x2="7.418" y2="3.779" stroke="#b9b2a0" stroke-width="0.22" opacity="0.55" stroke-linecap="round"/>
<line x1="4.455" y1="4.455" x2="5.887" y2="5.887" stroke="#b9b2a0" stroke-width="0.22" opacity="0.55" stroke-linecap="round"/>
<line x1="2.860" y1="5.613" x2="3.779" y2="7.418" stroke="#b9b2a0" stroke-width="0.22" opacity="0.55" stroke-linecap="round"/>
<line x1="0.986" y1="6.222" x2="1.302" y2="8.223" stroke="#b9b2a0" stroke-width="0.22" opacity="0.55" stroke-linecap="round"/>
<line x1="-0.986" y1="6.222" x2="-1.302" y2="8.223" stroke="#b9b2a0" stroke-width="0.22" opacity="0.55" stroke-linecap="round"/>
<line x1="-2.860" y1="5.613" x2="-3.779" y2="7.418" stroke="#b9b2a0" stroke-width="0.22" opacity="0.55" stroke-linecap="round"/>
<line x1="-4.455" y1="4.455" x2="-5.887" y2="5.887" stroke="#b9b2a0" stroke-width="0.22" opacity="0.55" stroke-linecap="round"/>
<line x1="-5.613" y1="2.860" x2="-7.418" y2="3.779" stroke="#b9b2a0" stroke-width="0.22" opacity="0.55" stroke-linecap="round"/>
<line x1="-6.222" y1="0.986" x2="-8.223" y2="1.302" stroke="#b9b2a0" stroke-width="0.22" opacity="0.55" stroke-linecap="round"/>
<line x1="-6.222" y1="-0.986" x2="-8.223" y2="-1.302" stroke="#b9b2a0" stroke-width="0.22" opacity="0.55" stroke-linecap="round"/>
<line x1="-5.613" y1="-2.860" x2="-7.418" y2="-3.779" stroke="#b9b2a0" stroke-width="0.22" opacity="0.55" stroke-linecap="round"/>
<line x1="-4.455" y1="-4.455" x2="-5.887" y2="-5.887" stroke="#b9b2a0" stroke-width="0.22" opacity="0.55" stroke-linecap="round"/>
<line x1="-2.860" y1="-5.613" x2="-3.779" y2="-7.418" stroke="#b9b2a0" stroke-width="0.22" opacity="0.55" stroke-linecap="round"/>
<line x1="-0.986" y1="-6.222" x2="-1.302" y2="-8.223" stroke="#b9b2a0" stroke-width="0.22" opacity="0.55" stroke-linecap="round"/>
<line x1="0.986" y1="-6.222" x2="1.302" y2="-8.223" stroke="#b9b2a0" stroke-width="0.22" opacity="0.55" stroke-linecap="round"/>
<line x1="2.860" y1="-5.613" x2="3.779" y2="-7.418" stroke="#b9b2a0" stroke-width="0.22" opacity="0.55" stroke-linecap="round"/>
<line x1="4.455" y1="-4.455" x2="5.887" y2="-5.887" stroke="#b9b2a0" stroke-width="0.22" opacity="0.55" stroke-linecap="round"/>
<line x1="5.613" y1="-2.860" x2="7.418" y2="-3.779" stroke="#b9b2a0" stroke-width="0.22" opacity="0.55" stroke-linecap="round"/>
<line x1="6.222" y1="-0.986" x2="8.223" y2="-1.302" stroke="#b9b2a0" stroke-width="0.22" opacity="0.55" stroke-linecap="round"/>
<circle cx="0" cy="0" r="6.390" fill="#d8d1bd"/>
<circle cx="0" cy="0" r="5.940" fill="#f4f0e4" stroke="#c9c2ad" stroke-width="0.22"/>
<line x1="0" y1="-0.900" x2="0" y2="-5.220" stroke="#1b1815" stroke-width="0.990" stroke-linecap="round"/>
</svg>