<?xml version="1.0" encoding="UTF-8"?>
<svg xmlns="http://www.w3.org/2000/svg"
     width="64.961" height="64.961"
     viewBox="-11.000 -11.000 22.000 22.000">
<defs>
<radialGradient id="body" cx="36%" cy="28%" r="72%">
  <stop offset="0%"   stop-color="#eae0ca"/>
  <stop offset="32%"  stop-color="#d8cebc"/>
  <stop offset="68%"  stop-color="#c0b6a4"/>
  <stop offset="100%" stop-color="#7e7464"/>
</radialGradient>
<radialGradient id="grip" cx="50%" cy="50%" r="50%">
  <stop offset="72%" stop-color="transparent"/>
  <stop offset="90%"  stop-color="#c0b6a4" stop-opacity="0.3"/>
  <stop offset="100%" stop-color="#7e7464" stop-opacity="0.5"/>
</radialGradient>
<radialGradient id="sc" cx="50%" cy="60%" r="55%">
  <stop offset="0%"   stop-color="#6e6456"/>
  <stop offset="60%"  stop-color="#9a9080"/>
  <stop offset="100%" stop-color="#c0b6a4"/>
</radialGradient>
<radialGradient id="face" cx="40%" cy="32%" r="68%">
  <stop offset="0%"   stop-color="#eae0ca"/>
  <stop offset="100%" stop-color="#d8cebc"/>
</radialGradient>
<filter id="sh" x="-15%" y="-15%" width="130%" height="130%">
  <feDropShadow dx="0" dy="0.9" stdDeviation="1.3" flood-color="#000" flood-opacity="0.55"/>
</filter>
<clipPath id="bodyClip">
  <circle r="6.500"/>
</clipPath>
</defs>
<line x1="-5.869" y1="5.869" x2="-7.495" y2="7.495"
      stroke="#8a8878" stroke-width="0.6" stroke-linecap="round"/>
<line x1="-7.894" y1="2.565" x2="-9.035" y2="2.936"
      stroke="#525048" stroke-width="0.35" stroke-linecap="round"/>
<line x1="-8.198" y1="-1.298" x2="-9.383" y2="-1.486"
      stroke="#525048" stroke-width="0.35" stroke-linecap="round"/>
<line x1="-6.715" y1="-4.879" x2="-7.686" y2="-5.584"
      stroke="#525048" stroke-width="0.35" stroke-linecap="round"/>
<line x1="-3.768" y1="-7.395" x2="-4.313" y2="-8.465"
      stroke="#525048" stroke-width="0.35" stroke-linecap="round"/>
<line x1="0.000" y1="-8.300" x2="0.000" y2="-10.600"
      stroke="#8a8878" stroke-width="0.6" stroke-linecap="round"/>
<line x1="3.768" y1="-7.395" x2="4.313" y2="-8.465"
      stroke="#525048" stroke-width="0.35" stroke-linecap="round"/>
<line x1="6.715" y1="-4.879" x2="7.686" y2="-5.584"
      stroke="#525048" stroke-width="0.35" stroke-linecap="round"/>
<line x1="8.198" y1="-1.298" x2="9.383" y2="-1.486"
      stroke="#525048" stroke-width="0.35" stroke-linecap="round"/>
<line x1="7.894" y1="2.565" x2="9.035" y2="2.936"
      stroke="#525048" stroke-width="0.35" stroke-linecap="round"/>
<line x1="5.869" y1="5.869" x2="7.495" y2="7.495"
      stroke="#8a8878" stroke-width="0.6" stroke-linecap="round"/>
<circle r="8.300" fill="#0a0a08" stroke="#1e1e1a" stroke-width="0.5" filter="url(#sh)"/>
<circle r="7.800"     fill="#181816" stroke="#2c2c28" stroke-width="0.45"/>
<circle r="7.300" fill="none"    stroke="#3c3c38" stroke-width="0.22"/>
<circle r="6.500" fill="url(#body)" filter="url(#sh)"/>
<circle r="6.500" fill="url(#grip)"/>
<g clip-path="url(#bodyClip)">
<ellipse cx="5.850" cy="0.000"
         rx="1.040" ry="2.080"
         fill="url(#sc)"
         transform="rotate(0.00,5.850,0.000)"/>
<ellipse cx="5.984" cy="-0.319"
         rx="0.572" ry="1.144"
         fill="none" stroke="#eae0ca"
         stroke-width="0.45" opacity="0.35"
         transform="rotate(0.00,5.984,-0.319)"/>
<ellipse cx="6.089" cy="0.401"
         rx="0.624" ry="1.248"
         fill="#6e6456" opacity="0.25"
         transform="rotate(0.00,6.089,0.401)"/>
<ellipse cx="4.733" cy="3.439"
         rx="1.040" ry="2.080"
         fill="url(#sc)"
         transform="rotate(36.00,4.733,3.439)"/>
<ellipse cx="4.935" cy="3.338"
         rx="0.572" ry="1.144"
         fill="none" stroke="#eae0ca"
         stroke-width="0.45" opacity="0.35"
         transform="rotate(36.00,4.935,3.338)"/>
<ellipse cx="4.808" cy="4.044"
         rx="0.624" ry="1.248"
         fill="#6e6456" opacity="0.25"
         transform="rotate(36.00,4.808,4.044)"/>
<ellipse cx="1.808" cy="5.564"
         rx="1.040" ry="2.080"
         fill="url(#sc)"
         transform="rotate(72.00,1.808,5.564)"/>
<ellipse cx="2.001" cy="5.720"
         rx="0.572" ry="1.144"
         fill="none" stroke="#eae0ca"
         stroke-width="0.45" opacity="0.35"
         transform="rotate(72.00,2.001,5.720)"/>
<ellipse cx="1.691" cy="6.142"
         rx="0.624" ry="1.248"
         fill="#6e6456" opacity="0.25"
         transform="rotate(72.00,1.691,6.142)"/>
<ellipse cx="-1.808" cy="5.564"
         rx="1.040" ry="2.080"
         fill="url(#sc)"
         transform="rotate(108.00,-1.808,5.564)"/>
<ellipse cx="-1.698" cy="5.916"
         rx="0.572" ry="1.144"
         fill="none" stroke="#eae0ca"
         stroke-width="0.45" opacity="0.35"
         transform="rotate(108.00,-1.698,5.916)"/>
<ellipse cx="-2.072" cy="5.894"
         rx="0.624" ry="1.248"
         fill="#6e6456" opacity="0.25"
         transform="rotate(108.00,-2.072,5.894)"/>
<ellipse cx="-4.733" cy="3.439"
         rx="1.040" ry="2.080"
         fill="url(#sc)"
         transform="rotate(144.00,-4.733,3.439)"/>
<ellipse cx="-4.747" cy="3.854"
         rx="0.572" ry="1.144"
         fill="none" stroke="#eae0ca"
         stroke-width="0.45" opacity="0.35"
         transform="rotate(144.00,-4.747,3.854)"/>
<ellipse cx="-5.044" cy="3.395"
         rx="0.624" ry="1.248"
         fill="#6e6456" opacity="0.25"
         transform="rotate(144.00,-5.044,3.395)"/>
<ellipse cx="-5.850" cy="0.000"
         rx="1.040" ry="2.080"
         fill="url(#sc)"
         transform="rotate(180.00,-5.850,0.000)"/>
<ellipse cx="-5.984" cy="0.319"
         rx="0.572" ry="1.144"
         fill="none" stroke="#eae0ca"
         stroke-width="0.45" opacity="0.35"
         transform="rotate(180.00,-5.984,0.319)"/>
<ellipse cx="-6.089" cy="-0.401"
         rx="0.624" ry="1.248"
         fill="#6e6456" opacity="0.25"
         transform="rotate(180.00,-6.089,-0.401)"/>
<ellipse cx="-4.733" cy="-3.439"
         rx="1.040" ry="2.080"
         fill="url(#sc)"
         transform="rotate(216.00,-4.733,-3.439)"/>
<ellipse cx="-4.935" cy="-3.338"
         rx="0.572" ry="1.144"
         fill="none" stroke="#eae0ca"
         stroke-width="0.45" opacity="0.35"
         transform="rotate(216.00,-4.935,-3.338)"/>
<ellipse cx="-4.808" cy="-4.044"
         rx="0.624" ry="1.248"
         fill="#6e6456" opacity="0.25"
         transform="rotate(216.00,-4.808,-4.044)"/>
<ellipse cx="-1.808" cy="-5.564"
         rx="1.040" ry="2.080"
         fill="url(#sc)"
         transform="rotate(252.00,-1.808,-5.564)"/>
<ellipse cx="-2.001" cy="-5.720"
         rx="0.572" ry="1.144"
         fill="none" stroke="#eae0ca"
         stroke-width="0.45" opacity="0.35"
         transform="rotate(252.00,-2.001,-5.720)"/>
<ellipse cx="-1.691" cy="-6.142"
         rx="0.624" ry="1.248"
         fill="#6e6456" opacity="0.25"
         transform="rotate(252.00,-1.691,-6.142)"/>
<ellipse cx="1.808" cy="-5.564"
         rx="1.040" ry="2.080"
         fill="url(#sc)"
         transform="rotate(288.00,1.808,-5.564)"/>
<ellipse cx="1.698" cy="-5.916"
         rx="0.572" ry="1.144"
         fill="none" stroke="#eae0ca"
         stroke-width="0.45" opacity="0.35"
         transform="rotate(288.00,1.698,-5.916)"/>
<ellipse cx="2.072" cy="-5.894"
         rx="0.624" ry="1.248"
         fill="#6e6456" opacity="0.25"
         transform="rotate(288.00,2.072,-5.894)"/>
<ellipse cx="4.733" cy="-3.439"
         rx="1.040" ry="2.080"
         fill="url(#sc)"
         transform="rotate(324.00,4.733,-3.439)"/>
<ellipse cx="4.747" cy="-3.854"
         rx="0.572" ry="1.144"
         fill="none" stroke="#eae0ca"
         stroke-width="0.45" opacity="0.35"
         transform="rotate(324.00,4.747,-3.854)"/>
<ellipse cx="5.044" cy="-3.395"
         rx="0.624" ry="1.248"
         fill="#6e6456" opacity="0.25"
         transform="rotate(324.00,5.044,-3.395)"/>
</g>
<circle cx="5.749" cy="1.868" r="0.520"
        fill="#eae0ca" opacity="0.18"/>
<circle cx="3.553" cy="4.891" r="0.520"
        fill="#eae0ca" opacity="0.18"/>
<circle cx="0.000" cy="6.045" r="0.520"
        fill="#eae0ca" opacity="0.18"/>
<circle cx="-3.553" cy="4.891" r="0.520"
        fill="#eae0ca" opacity="0.18"/>
<circle cx="-5.749" cy="1.868" r="0.520"
        fill="#eae0ca" opacity="0.18"/>
<circle cx="-5.749" cy="-1.868" r="0.520"
        fill="#eae0ca" opacity="0.18"/>
<circle cx="-3.553" cy="-4.891" r="0.520"
        fill="#eae0ca" opacity="0.18"/>
<circle cx="-0.000" cy="-6.045" r="0.520"
        fill="#eae0ca" opacity="0.18"/>
<circle cx="3.553" cy="-4.891" r="0.520"
        fill="#eae0ca" opacity="0.18"/>
<circle cx="5.749" cy="-1.868" r="0.520"
        fill="#eae0ca" opacity="0.18"/>
<circle r="4.550" fill="url(#face)"/>
<circle r="4.550" fill="none" stroke="#7e7464" stroke-width="0.6" opacity="0.3"/>
<circle r="4.250" fill="none" stroke="#eae0ca" stroke-width="0.25" opacity="0.15"/>
<ellipse cx="-0.819" cy="-0.910"
         rx="2.821" ry="1.592"
         fill="white" opacity="0.08"
         transform="rotate(-18,-0.819,-0.910)"/>
<line x1="0" y1="-1.274" x2="0" y2="-3.913"
      stroke="#181414" stroke-width="1.00" stroke-linecap="round"/>
<circle cx="0" cy="-3.913" r="0.55" fill="#181414"/>
</svg>