<?xml version="1.0" encoding="UTF-8"?>
<svg xmlns="http://www.w3.org/2000/svg" width="32.480" height="32.480" viewBox="-5.500 -5.500 11.000 11.000">
<!-- generated by panel_src/gen_knobs.py : do not hand-edit -->
<path d="M 3.540 0.000 L 3.550 0.233 L 3.577 0.471 L 3.611 0.718 L 3.642 0.976 L 3.653 1.240 L 3.633 1.505 L 3.572 1.761 L 3.464 2.000 L 3.311 2.213 L 3.120 2.394 L 2.901 2.544 L 2.666 2.666 L 2.428 2.768 L 2.196 2.862 L 1.976 2.958 L 1.770 3.066 L 1.573 3.191 L 1.380 3.333 L 1.184 3.487 L 0.976 3.642 L 0.753 3.784 L 0.513 3.899 L 0.260 3.974 L 0.000 4.000 L -0.260 3.974 L -0.513 3.899 L -0.753 3.784 L -0.976 3.642 L -1.184 3.487 L -1.380 3.333 L -1.573 3.191 L -1.770 3.066 L -1.976 2.958 L -2.196 2.862 L -2.428 2.768 L -2.666 2.666 L -2.901 2.544 L -3.120 2.394 L -3.311 2.213 L -3.464 2.000 L -3.572 1.761 L -3.633 1.505 L -3.653 1.240 L -3.642 0.976 L -3.611 0.718 L -3.577 0.471 L -3.550 0.233 L -3.540 0.000 L -3.550 -0.233 L -3.577 -0.471 L -3.611 -0.718 L -3.642 -0.976 L -3.653 -1.240 L -3.633 -1.505 L -3.572 -1.761 L -3.464 -2.000 L -3.311 -2.213 L -3.120 -2.394 L -2.901 -2.544 L -2.666 -2.666 L -2.428 -2.768 L -2.196 -2.862 L -1.976 -2.958 L -1.770 -3.066 L -1.573 -3.191 L -1.380 -3.333 L -1.184 -3.487 L -0.976 -3.642 L -0.753 -3.784 L -0.513 -3.899 L -0.260 -3.974 L -0.000 -4.000 L 0.260 -3.974 L 0.513 -3.899 L 0.753 -3.784 L 0.976 -3.642 L 1.184 -3.487 L 1.380 -3.333 L 1.573 -3.191 L 1.770 -3.066 L 1.976 -2.958 L 2.196 -2.862 L 2.428 -2.768 L 2.666 -2.666 L 2.901 -2.544 L 3.120 -2.394 L 3.311 -2.213 L 3.464 -2.000 L 3.572 -1.761 L 3.633 -1.505 L 3.653 -1.240 L 3.642 -0.976 L 3.611 -0.718 L 3.577 -0.471 L 3.550 -0.233 Z" fill="#e9e3d2" stroke="#2b2620" stroke-width="0.30" stroke-linejoin="round"/>
<circle cx="0" cy="0" r="3.200" fill="#f4f0e4"/>
<line x1="0" y1="-0.800" x2="0" y2="-3.280" stroke="#1b1815" stroke-width="0.340" stroke-linecap="round"/>
</svg>