<?xml version="1.0" encoding="UTF-8"?>
<svg xmlns="http://www.w3.org/2000/svg" width="32.480" height="32.480" viewBox="-5.500 -5.500 11.000 11.000">
<!-- generated by panel_src/gen_knobs.py : do not hand-edit -->
<path d="M 3.700 0.000 L 3.711 0.073 L 3.741 0.147 L 3.786 0.223 L 3.838 0.302 L 3.889 0.383 L 3.929 0.465 L 3.951 0.546 L 3.951 0.626 L 3.926 0.701 L 3.880 0.772 L 3.817 0.837 L 3.744 0.899 L 3.670 0.958 L 3.603 1.016 L 3.552 1.077 L 3.519 1.143 L 3.507 1.216 L 3.513 1.296 L 3.532 1.382 L 3.557 1.473 L 3.580 1.566 L 3.593 1.656 L 3.589 1.741 L 3.564 1.816 L 3.518 1.880 L 3.452 1.933 L 3.371 1.976 L 3.283 2.012 L 3.194 2.045 L 3.113 2.080 L 3.045 2.122 L 2.993 2.175 L 2.959 2.240 L 2.940 2.318 L 2.932 2.406 L 2.928 2.500 L 2.921 2.596 L 2.905 2.685 L 2.875 2.764 L 2.828 2.828 L 2.764 2.875 L 2.685 2.905 L 2.596 2.921 L 2.500 2.928 L 2.406 2.932 L 2.318 2.940 L 2.240 2.959 L 2.175 2.993 L 2.122 3.045 L 2.080 3.113 L 2.045 3.194 L 2.012 3.283 L 1.976 3.371 L 1.933 3.452 L 1.880 3.518 L 1.816 3.564 L 1.741 3.589 L 1.656 3.593 L 1.566 3.580 L 1.473 3.557 L 1.382 3.532 L 1.296 3.513 L 1.216 3.507 L 1.143 3.519 L 1.077 3.552 L 1.016 3.603 L 0.958 3.670 L 0.899 3.744 L 0.837 3.817 L 0.772 3.880 L 0.701 3.926 L 0.626 3.951 L 0.546 3.951 L 0.465 3.929 L 0.383 3.889 L 0.302 3.838 L 0.223 3.786 L 0.147 3.741 L 0.073 3.711 L 0.000 3.700 L -0.073 3.711 L -0.147 3.741 L -0.223 3.786 L -0.302 3.838 L -0.383 3.889 L -0.465 3.929 L -0.546 3.951 L -0.626 3.951 L -0.701 3.926 L -0.772 3.880 L -0.837 3.817 L -0.899 3.744 L -0.958 3.670 L -1.016 3.603 L -1.077 3.552 L -1.143 3.519 L -1.216 3.507 L -1.296 3.513 L -1.382 3.532 L -1.473 3.557 L -1.566 3.580 L -1.656 3.593 L -1.741 3.589 L -1.816 3.564 L -1.880 3.518 L -1.933 3.452 L -1.976 3.371 L -2.012 3.283 L -2.045 3.194 L -2.080 3.113 L -2.122 3.045 L -2.175 2.993 L -2.240 2.959 L -2.318 2.940 L -2.406 2.932 L -2.500 2.928 L -2.596 2.921 L -2.685 2.905 L -2.764 2.875 L -2.828 2.828 L -2.875 2.764 L -2.905 2.685 L -2.921 2.596 L -2.928 2.500 L -2.932 2.406 L -2.940 2.318 L -2.959 2.240 L -2.993 2.175 L -3.045 2.122 L -3.113 2.080 L -3.194 2.045 L -3.283 2.012 L -3.371 1.976 L -3.452 1.933 L -3.518 1.880 L -3.564 1.816 L -3.589 1.741 L -3.593 1.656 L -3.580 1.566 L -3.557 1.473 L -3.532 1.382 L -3.513 1.296 L -3.507 1.216 L -3.519 1.143 L -3.552 1.077 L -3.603 1.016 L -3.670 0.958 L -3.744 0.899 L -3.817 0.837 L -3.880 0.772 L -3.926 0.701 L -3.951 0.626 L -3.951 0.546 L -3.929 0.465 L -3.889 0.383 L -3.838 0.302 L -3.786 0.223 L -3.741 0.147 L -3.711 0.073 L -3.700 0.000 L -3.711 -0.073 L -3.741 -0.147 L -3.786 -0.223 L -3.838 -0.302 L -3.889 -0.383 L -3.929 -0.465 L -3.951 -0.546 L -3.951 -0.626 L -3.926 -0.701 L -3.880 -0.772 L -3.817 -0.837 L -3.744 -0.899 L -3.670 -0.958 L -3.603 -1.016 L -3.552 -1.077 L -3.519 -1.143 L -3.507 -1.216 L -3.513 -1.296 L -3.532 -1.382 L -3.557 -1.473 L -3.580 -1.566 L -3.593 -1.656 L -3.589 -1.741 L -3.564 -1.816 L -3.518 -1.880 L -3.452 -1.933 L -3.371 -1.976 L -3.283 -2.012 L -3.194 -2.045 L -3.113 -2.080 L -3.045 -2.122 L -2.993 -2.175 L -2.959 -2.240 L -2.940 -2.318 L -2.932 -2.406 L -2.928 -2.500 L -2.921 -2.596 L -2.905 -2.685 L -2.875 -2.764 L -2.828 -2.828 L -2.764 -2.875 L -2.685 -2.905 L -2.596 -2.921 L -2.500 -2.928 L -2.406 -2.932 L -2.318 -2.940 L -2.240 -2.959 L -2.175 -2.993 L -2.122 -3.045 L -2.080 -3.113 L -2.045 -3.194 L -2.012 -3.283 L -1.976 -3.371 L -1.933 -3.452 L -1.880 -3.518 L -1.816 -3.564 L -1.741 -3.589 L -1.656 -3.593 L -1.566 -3.580 L -1.473 -3.557 L -1.382 -3.532 L -1.296 -3.513 L -1.216 -3.507 L -1.143 -3.519 L -1.077 -3.552 L -1.016 -3.603 L -0.958 -3.670 L -0.899 -3.744 L -0.837 -3.817 L -0.772 -3.880 L -0.701 -3.926 L -0.626 -3.951 L -0.546 -3.951 L -0.465 -3.929 L -0.383 -3.889 L -0.302 -3.838 L -0.223 -3.786 L -0.147 -3.741 L -0.073 -3.711 L -0.000 -3.700 L 0.073 -3.711 L 0.147 -3.741 L 0.223 -3.786 L 0.302 -3.838 L 0.383 -3.889 L 0.465 -3.929 L 0.546 -3.951 L 0.626 -3.951 L 0.701 -3.926 L 0.772 -3.880 L 0.837 -3.817 L 0.899 -3.744 L 0.958 -3.670 L 1.016 -3.603 L 1.077 -3.552 L 1.143 -3.519 L 1.216 -3.507 L 1.296 -3.513 L 1.382 -3.532 L 1.473 -3.557 L 1.566 -3.580 L 1.656 -3.593 L 1.741 -3.589 L 1.816 -3.564 L 1.880 -3.518 L 1.933 -3.452 L 1.976 -3.371 L 2.012 -3.283 L 2.045 -3.194 L 2.080 -3.113 L 2.122 -3.045 L 2.175 -2.993 L 2.240 -2.959 L 2.318 -2.940 L 2.406 -2.932 L 2.500 -2.928 L 2.596 -2.921 L 2.685 -2.905 L 2.764 -2.875 L 2.828 -2.828 L 2.875 -2.764 L 2.905 -2.685 L 2.921 -2.596 L 2.928 -2.500 L 2.932 -2.406 L 2.940 -2.318 L 2.959 -2.240 L 2.993 -2.175 L 3.045 -2.122 L 3.113 -2.080 L 3.194 -2.045 L 3.283 -2.012 L 3.371 -1.976 L 3.452 -1.933 L 3.518 -1.880 L 3.564 -1.816 L 3.589 -1.741 L 3.593 -1.656 L 3.580 -1.566 L 3.557 -1.473 L 3.532 -1.382 L 3.513 -1.296 L 3.507 -1.216 L 3.519 -1.143 L 3.552 -1.077 L 3.603 -1.016 L 3.670 -0.958 L 3.744 -0.899 L 3.817 -0.837 L 3.880 -0.772 L 3.926 -0.701 L 3.951 -0.626 L 3.951 -0.546 L 3.929 -0.465 L 3.889 -0.383 L 3.838 -0.302 L 3.786 -0.223 L 3.741 -0.147 L 3.711 -0.073 Z" fill="#2e2e2e" stroke="#0b0b0b" stroke-width="0.30" stroke-linejoin="round"/>
<line x1="2.705" y1="0.725" x2="3.574" y2="0.958" stroke="#141414" stroke-width="0.22" opacity="0.55" stroke-linecap="round"/>
<line x1="1.980" y1="1.980" x2="2.616" y2="2.616" stroke="#141414" stroke-width="0.22" opacity="0.55" stroke-linecap="round"/>
<line x1="0.725" y1="2.705" x2="0.958" y2="3.574" stroke="#141414" stroke-width="0.22" opacity="0.55" stroke-linecap="round"/>
<line x1="-0.725" y1="2.705" x2="-0.958" y2="3.574" stroke="#141414" stroke-width="0.22" opacity="0.55" stroke-linecap="round"/>
<line x1="-1.980" y1="1.980" x2="-2.616" y2="2.616" stroke="#141414" stroke-width="0.22" opacity="0.55" stroke-linecap="round"/>
<line x1="-2.705" y1="0.725" x2="-3.574" y2="0.958" stroke="#141414" stroke-width="0.22" opacity="0.55" stroke-linecap="round"/>
<line x1="-2.705" y1="-0.725" x2="-3.574" y2="-0.958" stroke="#141414" stroke-width="0.22" opacity="0.55" stroke-linecap="round"/>
<line x1="-1.980" y1="-1.980" x2="-2.616" y2="-2.616" stroke="#141414" stroke-width="0.22" opacity="0.55" stroke-linecap="round"/>
<line x1="-0.725" y1="-2.705" x2="-0.958" y2="-3.574" stroke="#141414" stroke-width="0.22" opacity="0.55" stroke-linecap="round"/>
<line x1="0.725" y1="-2.705" x2="0.958" y2="-3.574" stroke="#141414" stroke-width="0.22" opacity="0.55" stroke-linecap="round"/>
<line x1="1.980" y1="-1.980" x2="2.616" y2="-2.616" stroke="#141414" stroke-width="0.22" opacity="0.55" stroke-linecap="round"/>
<line x1="2.705" y1="-0.725" x2="3.574" y2="-0.958" stroke="#141414" stroke-width="0.22" opacity="0.55" stroke-linecap="round"/>
<circle cx="0" cy="0" r="2.840" fill="#1f1f1f"/>
<circle cx="0" cy="0" r="2.640" fill="#3a3a3a" stroke="#141414" stroke-width="0.22"/>
<line x1="0" y1="-0.400" x2="0" y2="-2.320" stroke="#e8e8e8" stroke-width="0.440" stroke-linecap="round"/>
</svg>