<?xml version="1.0" encoding="UTF-8"?>
<svg xmlns="http://www.w3.org/2000/svg" width="47.240" height="47.240" viewBox="-8.000 -8.000 16.000 16.000">
<!-- generated by panel_src/gen_knobs.py : do not hand-edit -->
<path d="M 4.956 0.000 L 4.970 0.326 L 5.007 0.659 L 5.056 1.006 L 5.098 1.366 L 5.115 1.736 L 5.087 2.107 L 5.001 2.466 L 4.850 2.800 L 4.636 3.098 L 4.368 3.352 L 4.061 3.561 L 3.732 3.732 L 3.399 3.876 L 3.074 4.007 L 2.767 4.141 L 2.478 4.292 L 2.203 4.467 L 1.933 4.666 L 1.657 4.881 L 1.366 5.098 L 1.054 5.297 L 0.719 5.459 L 0.365 5.564 L 0.000 5.600 L -0.365 5.564 L -0.719 5.459 L -1.054 5.297 L -1.366 5.098 L -1.657 4.881 L -1.933 4.666 L -2.203 4.467 L -2.478 4.292 L -2.767 4.141 L -3.074 4.007 L -3.399 3.876 L -3.732 3.732 L -4.061 3.561 L -4.368 3.352 L -4.636 3.098 L -4.850 2.800 L -5.001 2.466 L -5.087 2.107 L -5.115 1.736 L -5.098 1.366 L -5.056 1.006 L -5.007 0.659 L -4.970 0.326 L -4.956 0.000 L -4.970 -0.326 L -5.007 -0.659 L -5.056 -1.006 L -5.098 -1.366 L -5.115 -1.736 L -5.087 -2.107 L -5.001 -2.466 L -4.850 -2.800 L -4.636 -3.098 L -4.368 -3.352 L -4.061 -3.561 L -3.732 -3.732 L -3.399 -3.876 L -3.074 -4.007 L -2.767 -4.141 L -2.478 -4.292 L -2.203 -4.467 L -1.933 -4.666 L -1.657 -4.881 L -1.366 -5.098 L -1.054 -5.297 L -0.719 -5.459 L -0.365 -5.564 L -0.000 -5.600 L 0.365 -5.564 L 0.719 -5.459 L 1.054 -5.297 L 1.366 -5.098 L 1.657 -4.881 L 1.933 -4.666 L 2.203 -4.467 L 2.478 -4.292 L 2.767 -4.141 L 3.074 -4.007 L 3.399 -3.876 L 3.732 -3.732 L 4.061 -3.561 L 4.368 -3.352 L 4.636 -3.098 L 4.850 -2.800 L 5.001 -2.466 L 5.087 -2.107 L 5.115 -1.736 L 5.098 -1.366 L 5.056 -1.006 L 5.007 -0.659 L 4.970 -0.326 Z" fill="#2e2e2e" stroke="#0b0b0b" stroke-width="0.30" stroke-linejoin="round"/>
<circle cx="0" cy="0" r="4.480" fill="#3a3a3a"/>
<line x1="0" y1="-1.120" x2="0" y2="-4.592" stroke="#e8e8e8" stroke-width="0.476" stroke-linecap="round"/>
</svg>