<?xml version="1.0" encoding="UTF-8"?>
<svg xmlns="http://www.w3.org/2000/svg" width="64.961" height="64.961" viewBox="-11.000 -11.000 22.000 22.000">
<!-- generated by panel_src/gen_knobs.py : do not hand-edit -->
<path d="M 7.055 0.000 L 7.087 0.465 L 7.175 0.945 L 7.296 1.451 L 7.416 1.987 L 7.496 2.544 L 7.500 3.106 L 7.402 3.650 L 7.188 4.150 L 6.862 4.585 L 6.440 4.942 L 5.951 5.219 L 5.429 5.429 L 4.905 5.593 L 4.406 5.742 L 3.946 5.905 L 3.528 6.110 L 3.141 6.370 L 2.770 6.686 L 2.391 7.044 L 1.987 7.416 L 1.544 7.764 L 1.060 8.048 L 0.540 8.235 L 0.000 8.300 L -0.540 8.235 L -1.060 8.048 L -1.544 7.764 L -1.987 7.416 L -2.391 7.044 L -2.770 6.686 L -3.141 6.370 L -3.527 6.110 L -3.946 5.905 L -4.406 5.742 L -4.905 5.593 L -5.429 5.429 L -5.951 5.219 L -6.440 4.942 L -6.862 4.585 L -7.188 4.150 L -7.402 3.650 L -7.500 3.106 L -7.496 2.544 L -7.416 1.987 L -7.296 1.451 L -7.175 0.945 L -7.087 0.465 L -7.055 0.000 L -7.087 -0.465 L -7.175 -0.945 L -7.296 -1.451 L -7.416 -1.987 L -7.496 -2.544 L -7.500 -3.106 L -7.402 -3.650 L -7.188 -4.150 L -6.862 -4.585 L -6.440 -4.942 L -5.951 -5.219 L -5.429 -5.429 L -4.905 -5.593 L -4.406 -5.742 L -3.946 -5.905 L -3.528 -6.110 L -3.141 -6.370 L -2.770 -6.686 L -2.391 -7.044 L -1.987 -7.416 L -1.544 -7.764 L -1.060 -8.048 L -0.540 -8.235 L -0.000 -8.300 L 0.540 -8.235 L 1.060 -8.048 L 1.544 -7.764 L 1.987 -7.416 L 2.391 -7.044 L 2.770 -6.686 L 3.141 -6.370 L 3.528 -6.110 L 3.946 -5.905 L 4.406 -5.742 L 4.905 -5.593 L 5.429 -5.429 L 5.951 -5.219 L 6.440 -4.942 L 6.862 -4.585 L 7.188 -4.150 L 7.402 -3.650 L 7.500 -3.106 L 7.496 -2.544 L 7.416 -1.987 L 7.296 -1.451 L 7.175 -0.945 L 7.087 -0.465 Z" fill="#2e2e2e" stroke="#0b0b0b" stroke-width="0.30" stroke-linejoin="round"/>
<circle cx="0" cy="0" r="6.640" fill="#3a3a3a"/>
<line x1="0" y1="-1.660" x2="0" y2="-6.806" stroke="#e8e8e8" stroke-width="0.706" stroke-linecap="round"/>
</svg>