<?xml version="1.0" encoding="UTF-8"?>
<svg xmlns="http://www.w3.org/2000/svg" width="64.961" height="64.961" viewBox="-11.000 -11.000 22.000 22.000">
<!-- generated by panel_src/gen_knobs.py : do not hand-edit -->
<path d="M 8.300 0.000 L 8.294 0.310 L 8.276 0.620 L 8.243 0.929 L 8.188 1.234 L 8.103 1.533 L 7.978 1.821 L 7.805 2.091 L 7.584 2.339 L 7.323 2.562 L 7.038 2.762 L 6.753 2.946 L 6.490 3.125 L 6.272 3.315 L 6.110 3.527 L 6.006 3.774 L 5.952 4.058 L 5.928 4.375 L 5.911 4.714 L 5.880 5.061 L 5.818 5.398 L 5.713 5.713 L 5.566 5.998 L 5.379 6.251 L 5.163 6.474 L 4.926 6.674 L 4.675 6.857 L 4.416 7.028 L 4.150 7.188 L 3.878 7.338 L 3.601 7.477 L 3.317 7.603 L 3.025 7.708 L 2.724 7.784 L 2.412 7.819 L 2.091 7.805 L 1.766 7.737 L 1.442 7.623 L 1.127 7.476 L 0.825 7.321 L 0.538 7.183 L 0.265 7.089 L 0.000 7.055 L -0.265 7.089 L -0.538 7.183 L -0.825 7.321 L -1.127 7.476 L -1.442 7.623 L -1.766 7.737 L -2.091 7.805 L -2.412 7.819 L -2.724 7.784 L -3.025 7.708 L -3.317 7.603 L -3.601 7.477 L -3.878 7.338 L -4.150 7.188 L -4.416 7.028 L -4.675 6.857 L -4.926 6.674 L -5.163 6.474 L -5.379 6.251 L -5.566 5.998 L -5.713 5.713 L -5.818 5.398 L -5.880 5.061 L -5.911 4.714 L -5.928 4.375 L -5.952 4.058 L -6.006 3.774 L -6.110 3.528 L -6.272 3.315 L -6.490 3.125 L -6.753 2.946 L -7.038 2.762 L -7.323 2.562 L -7.584 2.339 L -7.805 2.091 L -7.978 1.821 L -8.103 1.533 L -8.188 1.234 L -8.243 0.929 L -8.276 0.620 L -8.294 0.310 L -8.300 0.000 L -8.294 -0.310 L -8.276 -0.620 L -8.243 -0.929 L -8.188 -1.234 L -8.103 -1.533 L -7.978 -1.821 L -7.805 -2.091 L -7.584 -2.339 L -7.323 -2.562 L -7.038 -2.762 L -6.753 -2.946 L -6.490 -3.125 L -6.272 -3.315 L -6.110 -3.527 L -6.006 -3.774 L -5.952 -4.058 L -5.928 -4.375 L -5.911 -4.714 L -5.880 -5.061 L -5.818 -5.398 L -5.713 -5.713 L -5.566 -5.998 L -5.379 -6.251 L -5.163 -6.474 L -4.926 -6.674 L -4.675 -6.857 L -4.416 -7.028 L -4.150 -7.188 L -3.878 -7.338 L -3.601 -7.477 L -3.317 -7.603 L -3.025 -7.708 L -2.724 -7.784 L -2.412 -7.819 L -2.091 -7.805 L -1.766 -7.737 L -1.442 -7.623 L -1.127 -7.476 L -0.825 -7.321 L -0.538 -7.183 L -0.265 -7.089 L -0.000 -7.055 L 0.265 -7.089 L 0.538 -7.183 L 0.825 -7.321 L 1.127 -7.476 L 1.442 -7.623 L 1.766 -7.737 L 2.091 -7.805 L 2.412 -7.819 L 2.724 -7.784 L 3.025 -7.708 L 3.317 -7.603 L 3.601 -7.477 L 3.878 -7.338 L 4.150 -7.188 L 4.416 -7.028 L 4.675 -6.857 L 4.926 -6.674 L 5.163 -6.474 L 5.379 -6.251 L 5.566 -5.998 L 5.713 -5.713 L 5.818 -5.398 L 5.880 -5.061 L 5.911 -4.714 L 5.928 -4.375 L 5.952 -4.058 L 6.006 -3.774 L 6.110 -3.528 L 6.272 -3.315 L 6.490 -3.125 L 6.753 -2.946 L 7.038 -2.762 L 7.323 -2.562 L 7.584 -2.339 L 7.805 -2.091 L 7.978 -1.821 L 8.103 -1.533 L 8.188 -1.234 L 8.243 -0.929 L 8.276 -0.620 L 8.294 -0.310 Z" fill="#e9e3d2" stroke="#2b2620" stroke-width="0.30" stroke-linejoin="round"/>
<circle cx="0" cy="0" r="6.142" fill="#f4f0e4"/>
<line x1="0" y1="-1.660" x2="0" y2="-6.806" stroke="#1b1815" stroke-width="0.706" stroke-linecap="round"/>
</svg>