<?xml version="1.0" encoding="UTF-8"?>
<svg xmlns="http://www.w3.org/2000/svg" width="62.010" height="62.010" viewBox="-10.500 -10.500 21.000 21.000">
<!-- generated by panel_src/gen_knobs.py : do not hand-edit -->
<path d="M 6.500 0.000 L 6.495 0.243 L 6.481 0.486 L 6.455 0.727 L 6.413 0.967 L 6.346 1.201 L 6.247 1.426 L 6.112 1.638 L 5.939 1.832 L 5.735 2.007 L 5.512 2.163 L 5.288 2.307 L 5.083 2.448 L 4.911 2.596 L 4.785 2.762 L 4.704 2.956 L 4.661 3.178 L 4.642 3.426 L 4.629 3.692 L 4.605 3.963 L 4.556 4.227 L 4.474 4.474 L 4.359 4.697 L 4.213 4.895 L 4.043 5.070 L 3.858 5.227 L 3.661 5.370 L 3.458 5.504 L 3.250 5.629 L 3.037 5.747 L 2.820 5.856 L 2.598 5.954 L 2.369 6.037 L 2.133 6.096 L 1.889 6.123 L 1.638 6.112 L 1.383 6.059 L 1.130 5.970 L 0.883 5.855 L 0.646 5.733 L 0.422 5.625 L 0.208 5.551 L 0.000 5.525 L -0.208 5.551 L -0.422 5.625 L -0.646 5.733 L -0.883 5.855 L -1.130 5.970 L -1.383 6.059 L -1.638 6.112 L -1.889 6.123 L -2.133 6.096 L -2.369 6.037 L -2.598 5.954 L -2.820 5.856 L -3.037 5.747 L -3.250 5.629 L -3.458 5.504 L -3.661 5.370 L -3.858 5.227 L -4.043 5.070 L -4.213 4.895 L -4.359 4.697 L -4.474 4.474 L -4.556 4.227 L -4.605 3.963 L -4.629 3.692 L -4.642 3.426 L -4.661 3.178 L -4.704 2.956 L -4.785 2.763 L -4.911 2.596 L -5.083 2.448 L -5.288 2.307 L -5.512 2.163 L -5.735 2.007 L -5.939 1.832 L -6.112 1.638 L -6.247 1.426 L -6.346 1.201 L -6.413 0.967 L -6.455 0.727 L -6.481 0.486 L -6.495 0.243 L -6.500 0.000 L -6.495 -0.243 L -6.481 -0.486 L -6.455 -0.727 L -6.413 -0.967 L -6.346 -1.201 L -6.247 -1.426 L -6.112 -1.638 L -5.939 -1.832 L -5.735 -2.007 L -5.512 -2.163 L -5.288 -2.307 L -5.083 -2.448 L -4.911 -2.596 L -4.785 -2.762 L -4.704 -2.956 L -4.661 -3.178 L -4.642 -3.426 L -4.629 -3.692 L -4.605 -3.963 L -4.556 -4.227 L -4.474 -4.474 L -4.359 -4.697 L -4.213 -4.895 L -4.043 -5.070 L -3.858 -5.227 L -3.661 -5.370 L -3.458 -5.504 L -3.250 -5.629 L -3.037 -5.747 L -2.820 -5.856 L -2.598 -5.954 L -2.369 -6.037 L -2.133 -6.096 L -1.889 -6.123 L -1.638 -6.112 L -1.383 -6.059 L -1.130 -5.970 L -0.883 -5.855 L -0.646 -5.733 L -0.422 -5.625 L -0.208 -5.551 L -0.000 -5.525 L 0.208 -5.551 L 0.422 -5.625 L 0.646 -5.733 L 0.883 -5.855 L 1.130 -5.970 L 1.383 -6.059 L 1.638 -6.112 L 1.889 -6.123 L 2.133 -6.096 L 2.369 -6.037 L 2.598 -5.954 L 2.820 -5.856 L 3.037 -5.747 L 3.250 -5.629 L 3.458 -5.504 L 3.661 -5.370 L 3.858 -5.227 L 4.043 -5.070 L 4.213 -4.895 L 4.359 -4.697 L 4.474 -4.474 L 4.556 -4.227 L 4.605 -3.963 L 4.629 -3.692 L 4.642 -3.426 L 4.661 -3.178 L 4.704 -2.956 L 4.785 -2.763 L 4.911 -2.596 L 5.083 -2.448 L 5.288 -2.307 L 5.512 -2.163 L 5.735 -2.007 L 5.939 -1.832 L 6.112 -1.638 L 6.247 -1.426 L 6.346 -1.201 L 6.413 -0.967 L 6.455 -0.727 L 6.481 -0.486 L 6.495 -0.243 Z" fill="#2e2e2e" stroke="#0b0b0b" stroke-width="0.30" stroke-linejoin="round"/>
<circle cx="0" cy="0" r="4.810" fill="#3a3a3a"/>
<line x1="0" y1="-1.300" x2="0" y2="-5.330" stroke="#e8e8e8" stroke-width="0.552" stroke-linecap="round"/>
</svg>