<?xml version="1.0" encoding="UTF-8"?>
<svg xmlns="http://www.w3.org/2000/svg"
     width="79.724" height="79.724"
     viewBox="-13.500 -13.500 27.000 27.000">
<defs>
<radialGradient id="body" cx="36%" cy="28%" r="72%">
  <stop offset="0%"   stop-color="#eae0ca"/>
  <stop offset="32%"  stop-color="#d8cebc"/>
  <stop offset="68%"  stop-color="#c0b6a4"/>
  <stop offset="100%" stop-color="#7e7464"/>
</radialGradient>
<radialGradient id="grip" cx="50%" cy="50%" r="50%">
  <stop offset="72%" stop-color="transparent"/>
  <stop offset="90%"  stop-color="#c0b6a4" stop-opacity="0.3"/>
  <stop offset="100%" stop-color="#7e7464" stop-opacity="0.5"/>
</radialGradient>
<radialGradient id="sc" cx="50%" cy="60%" r="55%">
  <stop offset="0%"   stop-color="#6e6456"/>
  <stop offset="60%"  stop-color="#9a9080"/>
  <stop offset="100%" stop-color="#c0b6a4"/>
</radialGradient>
<radialGradient id="face" cx="40%" cy="32%" r="68%">
  <stop offset="0%"   stop-color="#eae0ca"/>
  <stop offset="100%" stop-color="#d8cebc"/>
</radialGradient>
<filter id="sh" x="-15%" y="-15%" width="130%" height="130%">
  <feDropShadow dx="0" dy="0.9" stdDeviation="1.3" flood-color="#000" flood-opacity="0.55"/>
</filter>
<clipPath id="bodyClip">
  <circle r="9.000"/>
</clipPath>
</defs>
<line x1="-7.637" y1="7.637" x2="-9.263" y2="9.263"
      stroke="#8a8878" stroke-width="0.6" stroke-linecap="round"/>
<circle cx="-7.283" cy="7.283" r="0.42" fill="#3a3830"/>
<line x1="-10.119" y1="3.774" x2="-12.274" y2="4.578"
      stroke="#8a8878" stroke-width="0.6" stroke-linecap="round"/>
<circle cx="-9.651" cy="3.599" r="0.42" fill="#3a3830"/>
<line x1="-10.772" y1="-0.770" x2="-13.067" y2="-0.935"
      stroke="#8a8878" stroke-width="0.6" stroke-linecap="round"/>
<circle cx="-10.274" cy="-0.735" r="0.42" fill="#3a3830"/>
<line x1="-9.479" y1="-5.176" x2="-11.498" y2="-6.278"
      stroke="#8a8878" stroke-width="0.6" stroke-linecap="round"/>
<circle cx="-9.040" cy="-4.936" r="0.42" fill="#3a3830"/>
<line x1="-6.472" y1="-8.646" x2="-7.851" y2="-10.487"
      stroke="#8a8878" stroke-width="0.6" stroke-linecap="round"/>
<circle cx="-6.173" cy="-8.246" r="0.42" fill="#3a3830"/>
<line x1="-2.296" y1="-10.553" x2="-2.785" y2="-12.801"
      stroke="#8a8878" stroke-width="0.6" stroke-linecap="round"/>
<circle cx="-2.189" cy="-10.065" r="0.42" fill="#3a3830"/>
<line x1="2.296" y1="-10.553" x2="2.785" y2="-12.801"
      stroke="#8a8878" stroke-width="0.6" stroke-linecap="round"/>
<circle cx="2.189" cy="-10.065" r="0.42" fill="#3a3830"/>
<line x1="6.472" y1="-8.646" x2="7.851" y2="-10.487"
      stroke="#8a8878" stroke-width="0.6" stroke-linecap="round"/>
<circle cx="6.173" cy="-8.246" r="0.42" fill="#3a3830"/>
<line x1="9.479" y1="-5.176" x2="11.498" y2="-6.278"
      stroke="#8a8878" stroke-width="0.6" stroke-linecap="round"/>
<circle cx="9.040" cy="-4.936" r="0.42" fill="#3a3830"/>
<line x1="10.772" y1="-0.770" x2="13.067" y2="-0.935"
      stroke="#8a8878" stroke-width="0.6" stroke-linecap="round"/>
<circle cx="10.274" cy="-0.735" r="0.42" fill="#3a3830"/>
<line x1="10.119" y1="3.774" x2="12.274" y2="4.578"
      stroke="#8a8878" stroke-width="0.6" stroke-linecap="round"/>
<circle cx="9.651" cy="3.599" r="0.42" fill="#3a3830"/>
<line x1="7.637" y1="7.637" x2="9.263" y2="9.263"
      stroke="#8a8878" stroke-width="0.6" stroke-linecap="round"/>
<circle cx="7.283" cy="7.283" r="0.42" fill="#3a3830"/>
<circle r="10.800" fill="#0a0a08" stroke="#1e1e1a" stroke-width="0.5" filter="url(#sh)"/>
<circle r="10.300"     fill="#181816" stroke="#2c2c28" stroke-width="0.45"/>
<circle r="9.800" fill="none"    stroke="#3c3c38" stroke-width="0.22"/>
<circle r="9.000" fill="url(#body)" filter="url(#sh)"/>
<circle r="9.000" fill="url(#grip)"/>
<g clip-path="url(#bodyClip)">
<ellipse cx="8.100" cy="0.000"
         rx="1.440" ry="2.880"
         fill="url(#sc)"
         transform="rotate(0.00,8.100,0.000)"/>
<ellipse cx="8.285" cy="-0.441"
         rx="0.792" ry="1.584"
         fill="none" stroke="#eae0ca"
         stroke-width="0.45" opacity="0.35"
         transform="rotate(0.00,8.285,-0.441)"/>
<ellipse cx="8.431" cy="0.555"
         rx="0.864" ry="1.728"
         fill="#6e6456" opacity="0.25"
         transform="rotate(0.00,8.431,0.555)"/>
<ellipse cx="7.015" cy="4.050"
         rx="1.440" ry="2.880"
         fill="url(#sc)"
         transform="rotate(30.00,7.015,4.050)"/>
<ellipse cx="7.285" cy="3.853"
         rx="0.792" ry="1.584"
         fill="none" stroke="#eae0ca"
         stroke-width="0.45" opacity="0.35"
         transform="rotate(30.00,7.285,3.853)"/>
<ellipse cx="7.163" cy="4.862"
         rx="0.864" ry="1.728"
         fill="#6e6456" opacity="0.25"
         transform="rotate(30.00,7.163,4.862)"/>
<ellipse cx="4.050" cy="7.015"
         rx="1.440" ry="2.880"
         fill="url(#sc)"
         transform="rotate(60.00,4.050,7.015)"/>
<ellipse cx="4.334" cy="7.115"
         rx="0.792" ry="1.584"
         fill="none" stroke="#eae0ca"
         stroke-width="0.45" opacity="0.35"
         transform="rotate(60.00,4.334,7.115)"/>
<ellipse cx="3.975" cy="7.866"
         rx="0.864" ry="1.728"
         fill="#6e6456" opacity="0.25"
         transform="rotate(60.00,3.975,7.866)"/>
<ellipse cx="0.000" cy="8.100"
         rx="1.440" ry="2.880"
         fill="url(#sc)"
         transform="rotate(90.00,0.000,8.100)"/>
<ellipse cx="0.221" cy="8.470"
         rx="0.792" ry="1.584"
         fill="none" stroke="#eae0ca"
         stroke-width="0.45" opacity="0.35"
         transform="rotate(90.00,0.221,8.470)"/>
<ellipse cx="-0.278" cy="8.762"
         rx="0.864" ry="1.728"
         fill="#6e6456" opacity="0.25"
         transform="rotate(90.00,-0.278,8.762)"/>
<ellipse cx="-4.050" cy="7.015"
         rx="1.440" ry="2.880"
         fill="url(#sc)"
         transform="rotate(120.00,-4.050,7.015)"/>
<ellipse cx="-3.951" cy="7.556"
         rx="0.792" ry="1.584"
         fill="none" stroke="#eae0ca"
         stroke-width="0.45" opacity="0.35"
         transform="rotate(120.00,-3.951,7.556)"/>
<ellipse cx="-4.456" cy="7.310"
         rx="0.864" ry="1.728"
         fill="#6e6456" opacity="0.25"
         transform="rotate(120.00,-4.456,7.310)"/>
<ellipse cx="-7.015" cy="4.050"
         rx="1.440" ry="2.880"
         fill="url(#sc)"
         transform="rotate(150.00,-7.015,4.050)"/>
<ellipse cx="-7.065" cy="4.617"
         rx="0.792" ry="1.584"
         fill="none" stroke="#eae0ca"
         stroke-width="0.45" opacity="0.35"
         transform="rotate(150.00,-7.065,4.617)"/>
<ellipse cx="-7.440" cy="3.900"
         rx="0.864" ry="1.728"
         fill="#6e6456" opacity="0.25"
         transform="rotate(150.00,-7.440,3.900)"/>
<ellipse cx="-8.100" cy="0.000"
         rx="1.440" ry="2.880"
         fill="url(#sc)"
         transform="rotate(180.00,-8.100,0.000)"/>
<ellipse cx="-8.285" cy="0.441"
         rx="0.792" ry="1.584"
         fill="none" stroke="#eae0ca"
         stroke-width="0.45" opacity="0.35"
         transform="rotate(180.00,-8.285,0.441)"/>
<ellipse cx="-8.431" cy="-0.555"
         rx="0.864" ry="1.728"
         fill="#6e6456" opacity="0.25"
         transform="rotate(180.00,-8.431,-0.555)"/>
<ellipse cx="-7.015" cy="-4.050"
         rx="1.440" ry="2.880"
         fill="url(#sc)"
         transform="rotate(210.00,-7.015,-4.050)"/>
<ellipse cx="-7.285" cy="-3.853"
         rx="0.792" ry="1.584"
         fill="none" stroke="#eae0ca"
         stroke-width="0.45" opacity="0.35"
         transform="rotate(210.00,-7.285,-3.853)"/>
<ellipse cx="-7.163" cy="-4.862"
         rx="0.864" ry="1.728"
         fill="#6e6456" opacity="0.25"
         transform="rotate(210.00,-7.163,-4.862)"/>
<ellipse cx="-4.050" cy="-7.015"
         rx="1.440" ry="2.880"
         fill="url(#sc)"
         transform="rotate(240.00,-4.050,-7.015)"/>
<ellipse cx="-4.334" cy="-7.115"
         rx="0.792" ry="1.584"
         fill="none" stroke="#eae0ca"
         stroke-width="0.45" opacity="0.35"
         transform="rotate(240.00,-4.334,-7.115)"/>
<ellipse cx="-3.975" cy="-7.866"
         rx="0.864" ry="1.728"
         fill="#6e6456" opacity="0.25"
         transform="rotate(240.00,-3.975,-7.866)"/>
<ellipse cx="-0.000" cy="-8.100"
         rx="1.440" ry="2.880"
         fill="url(#sc)"
         transform="rotate(270.00,-0.000,-8.100)"/>
<ellipse cx="-0.221" cy="-8.470"
         rx="0.792" ry="1.584"
         fill="none" stroke="#eae0ca"
         stroke-width="0.45" opacity="0.35"
         transform="rotate(270.00,-0.221,-8.470)"/>
<ellipse cx="0.278" cy="-8.762"
         rx="0.864" ry="1.728"
         fill="#6e6456" opacity="0.25"
         transform="rotate(270.00,0.278,-8.762)"/>
<ellipse cx="4.050" cy="-7.015"
         rx="1.440" ry="2.880"
         fill="url(#sc)"
         transform="rotate(300.00,4.050,-7.015)"/>
<ellipse cx="3.951" cy="-7.556"
         rx="0.792" ry="1.584"
         fill="none" stroke="#eae0ca"
         stroke-width="0.45" opacity="0.35"
         transform="rotate(300.00,3.951,-7.556)"/>
<ellipse cx="4.456" cy="-7.310"
         rx="0.864" ry="1.728"
         fill="#6e6456" opacity="0.25"
         transform="rotate(300.00,4.456,-7.310)"/>
<ellipse cx="7.015" cy="-4.050"
         rx="1.440" ry="2.880"
         fill="url(#sc)"
         transform="rotate(330.00,7.015,-4.050)"/>
<ellipse cx="7.065" cy="-4.617"
         rx="0.792" ry="1.584"
         fill="none" stroke="#eae0ca"
         stroke-width="0.45" opacity="0.35"
         transform="rotate(330.00,7.065,-4.617)"/>
<ellipse cx="7.440" cy="-3.900"
         rx="0.864" ry="1.728"
         fill="#6e6456" opacity="0.25"
         transform="rotate(330.00,7.440,-3.900)"/>
</g>
<circle cx="8.085" cy="2.166" r="0.720"
        fill="#eae0ca" opacity="0.18"/>
<circle cx="5.918" cy="5.918" r="0.720"
        fill="#eae0ca" opacity="0.18"/>
<circle cx="2.166" cy="8.085" r="0.720"
        fill="#eae0ca" opacity="0.18"/>
<circle cx="-2.166" cy="8.085" r="0.720"
        fill="#eae0ca" opacity="0.18"/>
<circle cx="-5.918" cy="5.918" r="0.720"
        fill="#eae0ca" opacity="0.18"/>
<circle cx="-8.085" cy="2.166" r="0.720"
        fill="#eae0ca" opacity="0.18"/>
<circle cx="-8.085" cy="-2.166" r="0.720"
        fill="#eae0ca" opacity="0.18"/>
<circle cx="-5.918" cy="-5.918" r="0.720"
        fill="#eae0ca" opacity="0.18"/>
<circle cx="-2.166" cy="-8.085" r="0.720"
        fill="#eae0ca" opacity="0.18"/>
<circle cx="2.166" cy="-8.085" r="0.720"
        fill="#eae0ca" opacity="0.18"/>
<circle cx="5.918" cy="-5.918" r="0.720"
        fill="#eae0ca" opacity="0.18"/>
<circle cx="8.085" cy="-2.166" r="0.720"
        fill="#eae0ca" opacity="0.18"/>
<circle r="6.300" fill="url(#face)"/>
<circle r="6.300" fill="none" stroke="#7e7464" stroke-width="0.6" opacity="0.3"/>
<circle r="6.000" fill="none" stroke="#eae0ca" stroke-width="0.25" opacity="0.15"/>
<ellipse cx="-1.134" cy="-1.260"
         rx="3.906" ry="2.205"
         fill="white" opacity="0.08"
         transform="rotate(-18,-1.134,-1.260)"/>
<line x1="0" y1="-1.764" x2="0" y2="-5.418"
      stroke="#181414" stroke-width="1.00" stroke-linecap="round"/>
<circle cx="0" cy="-5.418" r="0.55" fill="#181414"/>
</svg>