<?xml version="1.0" encoding="UTF-8"?>
<svg xmlns="http://www.w3.org/2000/svg" width="79.724" height="79.724" viewBox="-13.500 -13.500 27.000 27.000">
<!-- generated by panel_src/gen_knobs.py : do not hand-edit -->
<path d="M 7.965 0.000 L 7.987 0.524 L 8.047 1.059 L 8.125 1.616 L 8.193 2.195 L 8.220 2.790 L 8.175 3.386 L 8.037 3.963 L 7.794 4.500 L 7.450 4.978 L 7.020 5.387 L 6.526 5.723 L 5.998 5.998 L 5.462 6.229 L 4.941 6.439 L 4.447 6.655 L 3.983 6.898 L 3.540 7.179 L 3.106 7.499 L 2.663 7.845 L 2.195 8.193 L 1.693 8.514 L 1.155 8.773 L 0.586 8.941 L 0.000 9.000 L -0.586 8.941 L -1.155 8.773 L -1.693 8.514 L -2.195 8.193 L -2.663 7.845 L -3.106 7.499 L -3.540 7.179 L -3.982 6.898 L -4.447 6.655 L -4.941 6.439 L -5.462 6.229 L -5.998 5.998 L -6.526 5.723 L -7.020 5.387 L -7.450 4.978 L -7.794 4.500 L -8.037 3.963 L -8.175 3.386 L -8.220 2.790 L -8.193 2.195 L -8.125 1.616 L -8.047 1.059 L -7.987 0.524 L -7.965 0.000 L -7.987 -0.524 L -8.047 -1.059 L -8.125 -1.616 L -8.193 -2.195 L -8.220 -2.790 L -8.175 -3.386 L -8.037 -3.963 L -7.794 -4.500 L -7.450 -4.978 L -7.020 -5.387 L -6.526 -5.723 L -5.998 -5.998 L -5.462 -6.229 L -4.941 -6.439 L -4.447 -6.655 L -3.983 -6.898 L -3.540 -7.179 L -3.106 -7.499 L -2.663 -7.845 L -2.195 -8.193 L -1.693 -8.514 L -1.155 -8.773 L -0.586 -8.941 L -0.000 -9.000 L 0.586 -8.941 L 1.155 -8.773 L 1.693 -8.514 L 2.195 -8.193 L 2.663 -7.845 L 3.106 -7.499 L 3.540 -7.179 L 3.983 -6.898 L 4.447 -6.655 L 4.941 -6.439 L 5.462 -6.229 L 5.998 -5.998 L 6.526 -5.723 L 7.020 -5.387 L 7.450 -4.978 L 7.794 -4.500 L 8.037 -3.963 L 8.175 -3.386 L 8.220 -2.790 L 8.193 -2.195 L 8.125 -1.616 L 8.047 -1.059 L 7.987 -0.524 Z" fill="#2e2e2e" stroke="#0b0b0b" stroke-width="0.30" stroke-linejoin="round"/>
<circle cx="0" cy="0" r="7.200" fill="#3a3a3a"/>
<line x1="0" y1="-1.800" x2="0" y2="-7.380" stroke="#e8e8e8" stroke-width="0.765" stroke-linecap="round"/>
</svg>