<?xml version="1.0" encoding="UTF-8"?>
<svg xmlns="http://www.w3.org/2000/svg" width="62.010" height="62.010" viewBox="-10.500 -10.500 21.000 21.000">
<!-- generated by panel_src/gen_knobs.py : do not hand-edit -->
<path d="M 7.678 0.000 L 7.700 0.151 L 7.763 0.305 L 7.856 0.463 L 7.964 0.627 L 8.069 0.795 L 8.152 0.965 L 8.198 1.134 L 8.198 1.298 L 8.147 1.455 L 8.051 1.601 L 7.919 1.738 L 7.768 1.865 L 7.615 1.987 L 7.477 2.109 L 7.370 2.236 L 7.302 2.372 L 7.276 2.523 L 7.288 2.689 L 7.328 2.868 L 7.381 3.057 L 7.428 3.249 L 7.455 3.437 L 7.447 3.612 L 7.395 3.768 L 7.299 3.901 L 7.162 4.011 L 6.995 4.100 L 6.812 4.174 L 6.628 4.243 L 6.459 4.316 L 6.318 4.403 L 6.211 4.513 L 6.140 4.648 L 6.101 4.810 L 6.083 4.992 L 6.075 5.188 L 6.061 5.386 L 6.028 5.572 L 5.966 5.736 L 5.869 5.869 L 5.736 5.966 L 5.572 6.028 L 5.386 6.061 L 5.188 6.075 L 4.992 6.083 L 4.810 6.101 L 4.648 6.140 L 4.513 6.211 L 4.403 6.318 L 4.316 6.459 L 4.243 6.628 L 4.174 6.812 L 4.100 6.995 L 4.011 7.162 L 3.901 7.299 L 3.768 7.395 L 3.612 7.447 L 3.437 7.455 L 3.249 7.428 L 3.057 7.381 L 2.868 7.328 L 2.689 7.288 L 2.523 7.276 L 2.372 7.302 L 2.236 7.370 L 2.109 7.477 L 1.987 7.615 L 1.865 7.768 L 1.738 7.919 L 1.601 8.051 L 1.455 8.147 L 1.298 8.198 L 1.134 8.198 L 0.965 8.152 L 0.795 8.069 L 0.627 7.964 L 0.463 7.856 L 0.305 7.763 L 0.151 7.700 L 0.000 7.678 L -0.151 7.700 L -0.305 7.763 L -0.463 7.856 L -0.627 7.964 L -0.795 8.069 L -0.965 8.152 L -1.134 8.198 L -1.298 8.198 L -1.455 8.147 L -1.601 8.051 L -1.738 7.919 L -1.865 7.768 L -1.987 7.615 L -2.109 7.477 L -2.236 7.370 L -2.372 7.302 L -2.523 7.276 L -2.689 7.288 L -2.868 7.328 L -3.057 7.381 L -3.249 7.428 L -3.437 7.455 L -3.612 7.447 L -3.768 7.395 L -3.901 7.299 L -4.011 7.162 L -4.100 6.995 L -4.174 6.812 L -4.243 6.628 L -4.316 6.459 L -4.403 6.318 L -4.513 6.211 L -4.648 6.140 L -4.810 6.101 L -4.992 6.083 L -5.188 6.075 L -5.386 6.061 L -5.572 6.028 L -5.736 5.966 L -5.869 5.869 L -5.966 5.736 L -6.028 5.572 L -6.061 5.386 L -6.075 5.188 L -6.083 4.992 L -6.101 4.810 L -6.140 4.648 L -6.211 4.513 L -6.318 4.403 L -6.459 4.316 L -6.628 4.243 L -6.812 4.174 L -6.995 4.100 L -7.162 4.011 L -7.299 3.901 L -7.395 3.768 L -7.447 3.612 L -7.455 3.437 L -7.428 3.249 L -7.381 3.057 L -7.328 2.868 L -7.288 2.689 L -7.276 2.523 L -7.302 2.372 L -7.370 2.236 L -7.477 2.109 L -7.615 1.987 L -7.768 1.865 L -7.919 1.738 L -8.051 1.601 L -8.147 1.455 L -8.198 1.298 L -8.198 1.134 L -8.152 0.965 L -8.069 0.795 L -7.964 0.627 L -7.856 0.463 L -7.763 0.305 L -7.700 0.151 L -7.678 0.000 L -7.700 -0.151 L -7.763 -0.305 L -7.856 -0.463 L -7.964 -0.627 L -8.069 -0.795 L -8.152 -0.965 L -8.198 -1.134 L -8.198 -1.298 L -8.147 -1.455 L -8.051 -1.601 L -7.919 -1.738 L -7.768 -1.865 L -7.615 -1.987 L -7.477 -2.109 L -7.370 -2.236 L -7.302 -2.372 L -7.276 -2.523 L -7.288 -2.689 L -7.328 -2.868 L -7.381 -3.057 L -7.428 -3.249 L -7.455 -3.437 L -7.447 -3.612 L -7.395 -3.768 L -7.299 -3.901 L -7.162 -4.011 L -6.995 -4.100 L -6.812 -4.174 L -6.628 -4.243 L -6.459 -4.316 L -6.318 -4.403 L -6.211 -4.513 L -6.140 -4.648 L -6.101 -4.810 L -6.083 -4.992 L -6.075 -5.188 L -6.061 -5.386 L -6.028 -5.572 L -5.966 -5.736 L -5.869 -5.869 L -5.736 -5.966 L -5.572 -6.028 L -5.386 -6.061 L -5.188 -6.075 L -4.992 -6.083 L -4.810 -6.101 L -4.648 -6.140 L -4.513 -6.211 L -4.403 -6.318 L -4.316 -6.459 L -4.243 -6.628 L -4.174 -6.812 L -4.100 -6.995 L -4.011 -7.162 L -3.901 -7.299 L -3.768 -7.395 L -3.612 -7.447 L -3.437 -7.455 L -3.249 -7.428 L -3.057 -7.381 L -2.868 -7.328 L -2.689 -7.288 L -2.523 -7.276 L -2.372 -7.302 L -2.236 -7.370 L -2.109 -7.477 L -1.987 -7.615 L -1.865 -7.768 L -1.738 -7.919 L -1.601 -8.051 L -1.455 -8.147 L -1.298 -8.198 L -1.134 -8.198 L -0.965 -8.152 L -0.795 -8.069 L -0.627 -7.964 L -0.463 -7.856 L -0.305 -7.763 L -0.151 -7.700 L -0.000 -7.678 L 0.151 -7.700 L 0.305 -7.763 L 0.463 -7.856 L 0.627 -7.964 L 0.795 -8.069 L 0.965 -8.152 L 1.134 -8.198 L 1.298 -8.198 L 1.455 -8.147 L 1.601 -8.051 L 1.738 -7.919 L 1.865 -7.768 L 1.987 -7.615 L 2.109 -7.477 L 2.236 -7.370 L 2.372 -7.302 L 2.523 -7.276 L 2.689 -7.288 L 2.868 -7.328 L 3.057 -7.381 L 3.249 -7.428 L 3.437 -7.455 L 3.612 -7.447 L 3.768 -7.395 L 3.901 -7.299 L 4.011 -7.162 L 4.100 -6.995 L 4.174 -6.812 L 4.243 -6.628 L 4.316 -6.459 L 4.403 -6.318 L 4.513 -6.211 L 4.648 -6.140 L 4.810 -6.101 L 4.992 -6.083 L 5.188 -6.075 L 5.386 -6.061 L 5.572 -6.028 L 5.736 -5.966 L 5.869 -5.869 L 5.966 -5.736 L 6.028 -5.572 L 6.061 -5.386 L 6.075 -5.188 L 6.083 -4.992 L 6.101 -4.810 L 6.140 -4.648 L 6.211 -4.513 L 6.318 -4.403 L 6.459 -4.316 L 6.628 -4.243 L 6.812 -4.174 L 6.995 -4.100 L 7.162 -4.011 L 7.299 -3.901 L 7.395 -3.768 L 7.447 -3.612 L 7.455 -3.437 L 7.428 -3.249 L 7.381 -3.057 L 7.328 -2.868 L 7.288 -2.689 L 7.276 -2.523 L 7.302 -2.372 L 7.370 -2.236 L 7.477 -2.109 L 7.615 -1.987 L 7.768 -1.865 L 7.919 -1.738 L 8.051 -1.601 L 8.147 -1.455 L 8.198 -1.298 L 8.198 -1.134 L 8.152 -0.965 L 8.069 -0.795 L 7.964 -0.627 L 7.856 -0.463 L 7.763 -0.305 L 7.700 -0.151 Z" fill="#2e2e2e" stroke="#0b0b0b" stroke-width="0.30" stroke-linejoin="round"/>
<line x1="5.738" y1="0.909" x2="7.583" y2="1.201" stroke="#141414" stroke-width="0.22" opacity="0.55" stroke-linecap="round"/>
<line x1="5.177" y1="2.638" x2="6.841" y2="3.486" stroke="#141414" stroke-width="0.22" opacity="0.55" stroke-linecap="round"/>
<line x1="4.108" y1="4.108" x2="5.429" y2="5.429" stroke="#141414" stroke-width="0.22" opacity="0.55" stroke-linecap="round"/>
<line x1="2.638" y1="5.177" x2="3.486" y2="6.841" stroke="#141414" stroke-width="0.22" opacity="0.55" stroke-linecap="round"/>
<line x1="0.909" y1="5.738" x2="1.201" y2="7.583" stroke="#141414" stroke-width="0.22" opacity="0.55" stroke-linecap="round"/>
<line x1="-0.909" y1="5.738" x2="-1.201" y2="7.583" stroke="#141414" stroke-width="0.22" opacity="0.55" stroke-linecap="round"/>
<line x1="-2.638" y1="5.177" x2="-3.486" y2="6.841" stroke="#141414" stroke-width="0.22" opacity="0.55" stroke-linecap="round"/>
<line x1="-4.108" y1="4.108" x2="-5.429" y2="5.429" stroke="#141414" stroke-width="0.22" opacity="0.55" stroke-linecap="round"/>
<line x1="-5.177" y1="2.638" x2="-6.841" y2="3.486" stroke="#141414" stroke-width="0.22" opacity="0.55" stroke-linecap="round"/>
<line x1="-5.738" y1="0.909" x2="-7.583" y2="1.201" stroke="#141414" stroke-width="0.22" opacity="0.55" stroke-linecap="round"/>
<line x1="-5.738" y1="-0.909" x2="-7.583" y2="-1.201" stroke="#141414" stroke-width="0.22" opacity="0.55" stroke-linecap="round"/>
<line x1="-5.177" y1="-2.638" x2="-6.841" y2="-3.486" stroke="#141414" stroke-width="0.22" opacity="0.55" stroke-linecap="round"/>
<line x1="-4.108" y1="-4.108" x2="-5.429" y2="-5.429" stroke="#141414" stroke-width="0.22" opacity="0.55" stroke-linecap="round"/>
<line x1="-2.638" y1="-5.177" x2="-3.486" y2="-6.841" stroke="#141414" stroke-width="0.22" opacity="0.55" stroke-linecap="round"/>
<line x1="-0.909" y1="-5.738" x2="-1.201" y2="-7.583" stroke="#141414" stroke-width="0.22" opacity="0.55" stroke-linecap="round"/>
<line x1="0.909" y1="-5.738" x2="1.201" y2="-7.583" stroke="#141414" stroke-width="0.22" opacity="0.55" stroke-linecap="round"/>
<line x1="2.638" y1="-5.177" x2="3.486" y2="-6.841" stroke="#141414" stroke-width="0.22" opacity="0.55" stroke-linecap="round"/>
<line x1="4.108" y1="-4.108" x2="5.429" y2="-5.429" stroke="#141414" stroke-width="0.22" opacity="0.55" stroke-linecap="round"/>
<line x1="5.177" y1="-2.638" x2="6.841" y2="-3.486" stroke="#141414" stroke-width="0.22" opacity="0.55" stroke-linecap="round"/>
<line x1="5.738" y1="-0.909" x2="7.583" y2="-1.201" stroke="#141414" stroke-width="0.22" opacity="0.55" stroke-linecap="round"/>
<circle cx="0" cy="0" r="5.893" fill="#1f1f1f"/>
<circle cx="0" cy="0" r="5.478" fill="#3a3a3a" stroke="#141414" stroke-width="0.22"/>
<line x1="0" y1="-0.830" x2="0" y2="-4.814" stroke="#e8e8e8" stroke-width="0.913" stroke-linecap="round"/>
</svg>