<?xml version="1.0" encoding="UTF-8"?>
<svg xmlns="http://www.w3.org/2000/svg" width="32.480" height="32.480" viewBox="-5.500 -5.500 11.000 11.000">
<!-- generated by panel_src/gen_knobs.py : do not hand-edit -->
<path d="M 3.060 0.000 L 3.074 0.201 L 3.112 0.410 L 3.165 0.629 L 3.217 0.862 L 3.251 1.104 L 3.253 1.347 L 3.210 1.583 L 3.118 1.800 L 2.976 1.989 L 2.793 2.143 L 2.581 2.264 L 2.355 2.355 L 2.127 2.426 L 1.911 2.490 L 1.711 2.561 L 1.530 2.650 L 1.362 2.763 L 1.201 2.900 L 1.037 3.055 L 0.862 3.217 L 0.670 3.367 L 0.460 3.491 L 0.234 3.572 L 0.000 3.600 L -0.234 3.572 L -0.460 3.491 L -0.670 3.367 L -0.862 3.217 L -1.037 3.055 L -1.201 2.900 L -1.362 2.763 L -1.530 2.650 L -1.711 2.561 L -1.911 2.490 L -2.127 2.426 L -2.355 2.355 L -2.581 2.264 L -2.793 2.143 L -2.976 1.989 L -3.118 1.800 L -3.210 1.583 L -3.253 1.347 L -3.251 1.104 L -3.217 0.862 L -3.165 0.629 L -3.112 0.410 L -3.074 0.201 L -3.060 0.000 L -3.074 -0.201 L -3.112 -0.410 L -3.165 -0.629 L -3.217 -0.862 L -3.251 -1.104 L -3.253 -1.347 L -3.210 -1.583 L -3.118 -1.800 L -2.976 -1.989 L -2.793 -2.143 L -2.581 -2.264 L -2.355 -2.355 L -2.127 -2.426 L -1.911 -2.490 L -1.711 -2.561 L -1.530 -2.650 L -1.362 -2.763 L -1.201 -2.900 L -1.037 -3.055 L -0.862 -3.217 L -0.670 -3.367 L -0.460 -3.491 L -0.234 -3.572 L -0.000 -3.600 L 0.234 -3.572 L 0.460 -3.491 L 0.670 -3.367 L 0.862 -3.217 L 1.037 -3.055 L 1.201 -2.900 L 1.362 -2.763 L 1.530 -2.650 L 1.711 -2.561 L 1.911 -2.490 L 2.127 -2.426 L 2.355 -2.355 L 2.581 -2.264 L 2.793 -2.143 L 2.976 -1.989 L 3.118 -1.800 L 3.210 -1.583 L 3.253 -1.347 L 3.251 -1.104 L 3.217 -0.862 L 3.165 -0.629 L 3.112 -0.410 L 3.074 -0.201 Z" fill="#e9e3d2" stroke="#2b2620" stroke-width="0.30" stroke-linejoin="round"/>
<circle cx="0" cy="0" r="2.880" fill="#f4f0e4"/>
<line x1="0" y1="-0.720" x2="0" y2="-2.952" stroke="#1b1815" stroke-width="0.306" stroke-linecap="round"/>
</svg>