<?xml version="1.0" encoding="UTF-8"?>
<svg xmlns="http://www.w3.org/2000/svg" width="62.010" height="62.010" viewBox="-10.500 -10.500 21.000 21.000">
<!-- generated by panel_src/gen_knobs.py : do not hand-edit -->
<path d="M 7.346 0.000 L 7.366 0.483 L 7.421 0.977 L 7.493 1.491 L 7.556 2.025 L 7.581 2.573 L 7.539 3.123 L 7.411 3.655 L 7.188 4.150 L 6.871 4.591 L 6.474 4.968 L 6.019 5.278 L 5.532 5.532 L 5.037 5.744 L 4.557 5.938 L 4.101 6.138 L 3.673 6.361 L 3.265 6.621 L 2.864 6.916 L 2.456 7.235 L 2.025 7.556 L 1.562 7.852 L 1.065 8.090 L 0.540 8.246 L 0.000 8.300 L -0.540 8.246 L -1.065 8.090 L -1.562 7.852 L -2.025 7.556 L -2.456 7.235 L -2.864 6.916 L -3.265 6.621 L -3.673 6.361 L -4.101 6.138 L -4.557 5.938 L -5.037 5.744 L -5.532 5.532 L -6.019 5.278 L -6.474 4.968 L -6.871 4.591 L -7.188 4.150 L -7.411 3.655 L -7.539 3.123 L -7.581 2.573 L -7.556 2.025 L -7.493 1.491 L -7.421 0.977 L -7.366 0.483 L -7.346 0.000 L -7.366 -0.483 L -7.421 -0.977 L -7.493 -1.491 L -7.556 -2.025 L -7.581 -2.573 L -7.539 -3.123 L -7.411 -3.655 L -7.188 -4.150 L -6.871 -4.591 L -6.474 -4.968 L -6.019 -5.278 L -5.532 -5.532 L -5.037 -5.744 L -4.557 -5.938 L -4.101 -6.138 L -3.673 -6.361 L -3.265 -6.621 L -2.864 -6.916 L -2.456 -7.235 L -2.025 -7.556 L -1.562 -7.852 L -1.065 -8.090 L -0.540 -8.246 L -0.000 -8.300 L 0.540 -8.246 L 1.065 -8.090 L 1.562 -7.852 L 2.025 -7.556 L 2.456 -7.235 L 2.864 -6.916 L 3.265 -6.621 L 3.673 -6.361 L 4.101 -6.138 L 4.557 -5.938 L 5.037 -5.744 L 5.532 -5.532 L 6.019 -5.278 L 6.474 -4.968 L 6.871 -4.591 L 7.188 -4.150 L 7.411 -3.655 L 7.539 -3.123 L 7.581 -2.573 L 7.556 -2.025 L 7.493 -1.491 L 7.421 -0.977 L 7.366 -0.483 Z" fill="#2e2e2e" stroke="#0b0b0b" stroke-width="0.30" stroke-linejoin="round"/>
<circle cx="0" cy="0" r="6.640" fill="#3a3a3a"/>
<line x1="0" y1="-1.660" x2="0" y2="-6.806" stroke="#e8e8e8" stroke-width="0.706" stroke-linecap="round"/>
</svg>