<?xml version="1.0" encoding="UTF-8"?>
<svg xmlns="http://www.w3.org/2000/svg" width="79.724" height="79.724" viewBox="-13.500 -13.500 27.000 27.000">
<!-- generated by panel_src/gen_knobs.py : do not hand-edit -->
<path d="M 10.800 0.000 L 10.792 0.404 L 10.769 0.807 L 10.726 1.209 L 10.655 1.606 L 10.544 1.995 L 10.380 2.369 L 10.155 2.721 L 9.868 3.044 L 9.528 3.334 L 9.158 3.594 L 8.786 3.833 L 8.445 4.067 L 8.161 4.313 L 7.950 4.590 L 7.816 4.911 L 7.744 5.280 L 7.713 5.693 L 7.692 6.134 L 7.652 6.585 L 7.570 7.024 L 7.434 7.434 L 7.242 7.805 L 7.000 8.134 L 6.718 8.424 L 6.409 8.685 L 6.083 8.923 L 5.746 9.145 L 5.400 9.353 L 5.046 9.548 L 4.686 9.730 L 4.316 9.893 L 3.937 10.030 L 3.544 10.129 L 3.138 10.174 L 2.721 10.155 L 2.298 10.068 L 1.877 9.919 L 1.466 9.728 L 1.073 9.526 L 0.700 9.347 L 0.345 9.224 L 0.000 9.180 L -0.345 9.224 L -0.700 9.347 L -1.073 9.526 L -1.466 9.728 L -1.877 9.919 L -2.298 10.068 L -2.721 10.155 L -3.138 10.174 L -3.544 10.129 L -3.937 10.030 L -4.316 9.893 L -4.686 9.730 L -5.046 9.548 L -5.400 9.353 L -5.746 9.145 L -6.083 8.923 L -6.409 8.685 L -6.718 8.424 L -7.000 8.134 L -7.242 7.805 L -7.434 7.434 L -7.570 7.024 L -7.652 6.585 L -7.692 6.134 L -7.713 5.693 L -7.744 5.280 L -7.816 4.911 L -7.950 4.590 L -8.161 4.313 L -8.445 4.067 L -8.786 3.833 L -9.158 3.594 L -9.528 3.334 L -9.868 3.044 L -10.155 2.721 L -10.380 2.369 L -10.544 1.995 L -10.655 1.606 L -10.726 1.209 L -10.769 0.807 L -10.792 0.404 L -10.800 0.000 L -10.792 -0.404 L -10.769 -0.807 L -10.726 -1.209 L -10.655 -1.606 L -10.544 -1.995 L -10.380 -2.369 L -10.155 -2.721 L -9.868 -3.044 L -9.528 -3.334 L -9.158 -3.594 L -8.786 -3.833 L -8.445 -4.067 L -8.161 -4.313 L -7.950 -4.590 L -7.816 -4.911 L -7.744 -5.280 L -7.713 -5.693 L -7.692 -6.134 L -7.652 -6.585 L -7.570 -7.024 L -7.434 -7.434 L -7.242 -7.805 L -7.000 -8.134 L -6.718 -8.424 L -6.409 -8.685 L -6.083 -8.923 L -5.746 -9.145 L -5.400 -9.353 L -5.046 -9.548 L -4.686 -9.730 L -4.316 -9.893 L -3.937 -10.030 L -3.544 -10.129 L -3.138 -10.174 L -2.721 -10.155 L -2.298 -10.068 L -1.877 -9.919 L -1.466 -9.728 L -1.073 -9.526 L -0.700 -9.347 L -0.345 -9.224 L -0.000 -9.180 L 0.345 -9.224 L 0.700 -9.347 L 1.073 -9.526 L 1.466 -9.728 L 1.877 -9.919 L 2.298 -10.068 L 2.721 -10.155 L 3.138 -10.174 L 3.544 -10.129 L 3.937 -10.030 L 4.316 -9.893 L 4.686 -9.730 L 5.046 -9.548 L 5.400 -9.353 L 5.746 -9.145 L 6.083 -8.923 L 6.409 -8.685 L 6.718 -8.424 L 7.000 -8.134 L 7.242 -7.805 L 7.434 -7.434 L 7.570 -7.024 L 7.652 -6.585 L 7.692 -6.134 L 7.713 -5.693 L 7.744 -5.280 L 7.816 -4.911 L 7.950 -4.590 L 8.161 -4.313 L 8.445 -4.067 L 8.786 -3.833 L 9.158 -3.594 L 9.528 -3.334 L 9.868 -3.044 L 10.155 -2.721 L 10.380 -2.369 L 10.544 -1.995 L 10.655 -1.606 L 10.726 -1.209 L 10.769 -0.807 L 10.792 -0.404 Z" fill="#2e2e2e" stroke="#0b0b0b" stroke-width="0.30" stroke-linejoin="round"/>
<circle cx="0" cy="0" r="7.992" fill="#3a3a3a"/>
<line x1="0" y1="-2.160" x2="0" y2="-8.856" stroke="#e8e8e8" stroke-width="0.918" stroke-linecap="round"/>
</svg>