<?xml version="1.0" encoding="UTF-8"?>
<svg xmlns="http://www.w3.org/2000/svg" width="53.150" height="53.150" viewBox="-9.000 -9.000 18.000 18.000">
<!-- generated by panel_src/gen_knobs.py : do not hand-edit -->
<path d="M 6.105 0.000 L 6.123 0.120 L 6.173 0.243 L 6.247 0.368 L 6.333 0.498 L 6.416 0.632 L 6.482 0.767 L 6.519 0.902 L 6.519 1.032 L 6.479 1.157 L 6.402 1.273 L 6.297 1.382 L 6.177 1.483 L 6.055 1.580 L 5.946 1.677 L 5.860 1.778 L 5.806 1.887 L 5.786 2.006 L 5.796 2.138 L 5.827 2.281 L 5.869 2.431 L 5.907 2.584 L 5.928 2.733 L 5.921 2.872 L 5.881 2.996 L 5.804 3.102 L 5.695 3.189 L 5.562 3.260 L 5.416 3.319 L 5.270 3.374 L 5.136 3.432 L 5.024 3.502 L 4.939 3.588 L 4.883 3.696 L 4.851 3.824 L 4.837 3.970 L 4.830 4.126 L 4.819 4.283 L 4.793 4.431 L 4.744 4.561 L 4.667 4.667 L 4.561 4.744 L 4.431 4.793 L 4.283 4.819 L 4.126 4.830 L 3.970 4.837 L 3.824 4.851 L 3.696 4.883 L 3.588 4.939 L 3.502 5.024 L 3.432 5.136 L 3.374 5.270 L 3.319 5.416 L 3.260 5.562 L 3.189 5.695 L 3.102 5.804 L 2.996 5.881 L 2.872 5.921 L 2.733 5.928 L 2.584 5.907 L 2.431 5.869 L 2.281 5.827 L 2.138 5.796 L 2.006 5.786 L 1.887 5.806 L 1.778 5.860 L 1.677 5.946 L 1.580 6.055 L 1.483 6.177 L 1.382 6.297 L 1.273 6.402 L 1.157 6.479 L 1.032 6.519 L 0.902 6.519 L 0.767 6.482 L 0.632 6.416 L 0.498 6.333 L 0.368 6.247 L 0.243 6.173 L 0.120 6.123 L 0.000 6.105 L -0.120 6.123 L -0.243 6.173 L -0.368 6.247 L -0.498 6.333 L -0.632 6.416 L -0.767 6.482 L -0.902 6.519 L -1.032 6.519 L -1.157 6.479 L -1.273 6.402 L -1.382 6.297 L -1.483 6.177 L -1.580 6.055 L -1.677 5.946 L -1.778 5.860 L -1.887 5.806 L -2.006 5.786 L -2.138 5.796 L -2.281 5.827 L -2.431 5.869 L -2.584 5.907 L -2.733 5.928 L -2.872 5.921 L -2.996 5.881 L -3.102 5.804 L -3.189 5.695 L -3.260 5.562 L -3.319 5.416 L -3.374 5.270 L -3.432 5.136 L -3.502 5.024 L -3.588 4.939 L -3.696 4.883 L -3.824 4.851 L -3.970 4.837 L -4.126 4.830 L -4.283 4.819 L -4.431 4.793 L -4.561 4.744 L -4.667 4.667 L -4.744 4.561 L -4.793 4.431 L -4.819 4.283 L -4.830 4.126 L -4.837 3.970 L -4.851 3.824 L -4.883 3.696 L -4.939 3.588 L -5.024 3.502 L -5.136 3.432 L -5.270 3.374 L -5.416 3.319 L -5.562 3.260 L -5.695 3.189 L -5.804 3.102 L -5.881 2.996 L -5.921 2.872 L -5.928 2.733 L -5.907 2.584 L -5.869 2.431 L -5.827 2.281 L -5.796 2.138 L -5.786 2.006 L -5.806 1.887 L -5.860 1.778 L -5.946 1.677 L -6.055 1.580 L -6.177 1.483 L -6.297 1.382 L -6.402 1.273 L -6.479 1.157 L -6.519 1.032 L -6.519 0.902 L -6.482 0.767 L -6.416 0.632 L -6.333 0.498 L -6.247 0.368 L -6.173 0.243 L -6.123 0.120 L -6.105 0.000 L -6.123 -0.120 L -6.173 -0.243 L -6.247 -0.368 L -6.333 -0.498 L -6.416 -0.632 L -6.482 -0.767 L -6.519 -0.902 L -6.519 -1.032 L -6.479 -1.157 L -6.402 -1.273 L -6.297 -1.382 L -6.177 -1.483 L -6.055 -1.580 L -5.946 -1.677 L -5.860 -1.778 L -5.806 -1.887 L -5.786 -2.006 L -5.796 -2.138 L -5.827 -2.281 L -5.869 -2.431 L -5.907 -2.584 L -5.928 -2.733 L -5.921 -2.872 L -5.881 -2.996 L -5.804 -3.102 L -5.695 -3.189 L -5.562 -3.260 L -5.416 -3.319 L -5.270 -3.374 L -5.136 -3.432 L -5.024 -3.502 L -4.939 -3.588 L -4.883 -3.696 L -4.851 -3.824 L -4.837 -3.970 L -4.830 -4.126 L -4.819 -4.283 L -4.793 -4.431 L -4.744 -4.561 L -4.667 -4.667 L -4.561 -4.744 L -4.431 -4.793 L -4.283 -4.819 L -4.126 -4.830 L -3.970 -4.837 L -3.824 -4.851 L -3.696 -4.883 L -3.588 -4.939 L -3.502 -5.024 L -3.432 -5.136 L -3.374 -5.270 L -3.319 -5.416 L -3.260 -5.562 L -3.189 -5.695 L -3.102 -5.804 L -2.996 -5.881 L -2.872 -5.921 L -2.733 -5.928 L -2.584 -5.907 L -2.431 -5.869 L -2.281 -5.827 L -2.138 -5.796 L -2.006 -5.786 L -1.887 -5.806 L -1.778 -5.860 L -1.677 -5.946 L -1.580 -6.055 L -1.483 -6.177 L -1.382 -6.297 L -1.273 -6.402 L -1.157 -6.479 L -1.032 -6.519 L -0.902 -6.519 L -0.767 -6.482 L -0.632 -6.416 L -0.498 -6.333 L -0.368 -6.247 L -0.243 -6.173 L -0.120 -6.123 L -0.000 -6.105 L 0.120 -6.123 L 0.243 -6.173 L 0.368 -6.247 L 0.498 -6.333 L 0.632 -6.416 L 0.767 -6.482 L 0.902 -6.519 L 1.032 -6.519 L 1.157 -6.479 L 1.273 -6.402 L 1.382 -6.297 L 1.483 -6.177 L 1.580 -6.055 L 1.677 -5.946 L 1.778 -5.860 L 1.887 -5.806 L 2.006 -5.786 L 2.138 -5.796 L 2.281 -5.827 L 2.431 -5.869 L 2.584 -5.907 L 2.733 -5.928 L 2.872 -5.921 L 2.996 -5.881 L 3.102 -5.804 L 3.189 -5.695 L 3.260 -5.562 L 3.319 -5.416 L 3.374 -5.270 L 3.432 -5.136 L 3.502 -5.024 L 3.588 -4.939 L 3.696 -4.883 L 3.824 -4.851 L 3.970 -4.837 L 4.126 -4.830 L 4.283 -4.819 L 4.431 -4.793 L 4.561 -4.744 L 4.667 -4.667 L 4.744 -4.561 L 4.793 -4.431 L 4.819 -4.283 L 4.830 -4.126 L 4.837 -3.970 L 4.851 -3.824 L 4.883 -3.696 L 4.939 -3.588 L 5.024 -3.502 L 5.136 -3.432 L 5.270 -3.374 L 5.416 -3.319 L 5.562 -3.260 L 5.695 -3.189 L 5.804 -3.102 L 5.881 -2.996 L 5.921 -2.872 L 5.928 -2.733 L 5.907 -2.584 L 5.869 -2.431 L 5.827 -2.281 L 5.796 -2.138 L 5.786 -2.006 L 5.806 -1.887 L 5.860 -1.778 L 5.946 -1.677 L 6.055 -1.580 L 6.177 -1.483 L 6.297 -1.382 L 6.402 -1.273 L 6.479 -1.157 L 6.519 -1.032 L 6.519 -0.902 L 6.482 -0.767 L 6.416 -0.632 L 6.333 -0.498 L 6.247 -0.368 L 6.173 -0.243 L 6.123 -0.120 Z" fill="#2e2e2e" stroke="#0b0b0b" stroke-width="0.30" stroke-linejoin="round"/>
<line x1="4.563" y1="0.723" x2="6.030" y2="0.955" stroke="#141414" stroke-width="0.22" opacity="0.55" stroke-linecap="round"/>
<line x1="4.116" y1="2.097" x2="5.440" y2="2.772" stroke="#141414" stroke-width="0.22" opacity="0.55" stroke-linecap="round"/>
<line x1="3.267" y1="3.267" x2="4.317" y2="4.317" stroke="#141414" stroke-width="0.22" opacity="0.55" stroke-linecap="round"/>
<line x1="2.097" y1="4.116" x2="2.772" y2="5.440" stroke="#141414" stroke-width="0.22" opacity="0.55" stroke-linecap="round"/>
<line x1="0.723" y1="4.563" x2="0.955" y2="6.030" stroke="#141414" stroke-width="0.22" opacity="0.55" stroke-linecap="round"/>
<line x1="-0.723" y1="4.563" x2="-0.955" y2="6.030" stroke="#141414" stroke-width="0.22" opacity="0.55" stroke-linecap="round"/>
<line x1="-2.097" y1="4.116" x2="-2.772" y2="5.440" stroke="#141414" stroke-width="0.22" opacity="0.55" stroke-linecap="round"/>
<line x1="-3.267" y1="3.267" x2="-4.317" y2="4.317" stroke="#141414" stroke-width="0.22" opacity="0.55" stroke-linecap="round"/>
<line x1="-4.116" y1="2.097" x2="-5.440" y2="2.772" stroke="#141414" stroke-width="0.22" opacity="0.55" stroke-linecap="round"/>
<line x1="-4.563" y1="0.723" x2="-6.030" y2="0.955" stroke="#141414" stroke-width="0.22" opacity="0.55" stroke-linecap="round"/>
<line x1="-4.563" y1="-0.723" x2="-6.030" y2="-0.955" stroke="#141414" stroke-width="0.22" opacity="0.55" stroke-linecap="round"/>
<line x1="-4.116" y1="-2.097" x2="-5.440" y2="-2.772" stroke="#141414" stroke-width="0.22" opacity="0.55" stroke-linecap="round"/>
<line x1="-3.267" y1="-3.267" x2="-4.317" y2="-4.317" stroke="#141414" stroke-width="0.22" opacity="0.55" stroke-linecap="round"/>
<line x1="-2.097" y1="-4.116" x2="-2.772" y2="-5.440" stroke="#141414" stroke-width="0.22" opacity="0.55" stroke-linecap="round"/>
<line x1="-0.723" y1="-4.563" x2="-0.955" y2="-6.030" stroke="#141414" stroke-width="0.22" opacity="0.55" stroke-linecap="round"/>
<line x1="0.723" y1="-4.563" x2="0.955" y2="-6.030" stroke="#141414" stroke-width="0.22" opacity="0.55" stroke-linecap="round"/>
<line x1="2.097" y1="-4.116" x2="2.772" y2="-5.440" stroke="#141414" stroke-width="0.22" opacity="0.55" stroke-linecap="round"/>
<line x1="3.267" y1="-3.267" x2="4.317" y2="-4.317" stroke="#141414" stroke-width="0.22" opacity="0.55" stroke-linecap="round"/>
<line x1="4.116" y1="-2.097" x2="5.440" y2="-2.772" stroke="#141414" stroke-width="0.22" opacity="0.55" stroke-linecap="round"/>
<line x1="4.563" y1="-0.723" x2="6.030" y2="-0.955" stroke="#141414" stroke-width="0.22" opacity="0.55" stroke-linecap="round"/>
<circle cx="0" cy="0" r="4.686" fill="#1f1f1f"/>
<circle cx="0" cy="0" r="4.356" fill="#3a3a3a" stroke="#141414" stroke-width="0.22"/>
<line x1="0" y1="-0.660" x2="0" y2="-3.828" stroke="#e8e8e8" stroke-width="0.726" stroke-linecap="round"/>
</svg>