<?xml version="1.0" encoding="UTF-8"?>
<svg xmlns="http://www.w3.org/2000/svg" width="64.961" height="64.961" viewBox="-11.000 -11.000 22.000 22.000">
<!-- generated by panel_src/gen_knobs.py : do not hand-edit -->
<circle cx="0" cy="0" r="8.300" fill="#d8d1bd" stroke="#2b2620" stroke-width="0.30"/>
<circle cx="0" cy="0" r="7.719" fill="#b9b2a0"/>
<path d="M 6.308 0.000 L 6.376 0.167 L 6.440 0.338 L 6.500 0.512 L 6.554 0.689 L 6.604 0.869 L 6.648 1.053 L 6.688 1.240 L 6.722 1.429 L 6.751 1.621 L 6.775 1.815 L 6.792 2.012 L 6.804 2.211 L 6.811 2.412 L 6.811 2.615 L 6.806 2.819 L 6.794 3.025 L 6.776 3.232 L 6.752 3.440 L 6.722 3.650 L 6.685 3.860 L 6.521 3.996 L 6.355 4.127 L 6.187 4.252 L 6.016 4.371 L 5.844 4.484 L 5.670 4.591 L 5.494 4.692 L 5.317 4.787 L 5.139 4.876 L 4.959 4.959 L 4.779 5.036 L 4.599 5.107 L 4.417 5.172 L 4.236 5.231 L 4.055 5.284 L 3.874 5.332 L 3.693 5.373 L 3.512 5.409 L 3.333 5.439 L 3.154 5.463 L 3.044 5.606 L 2.928 5.746 L 2.807 5.885 L 2.680 6.020 L 2.549 6.154 L 2.412 6.284 L 2.271 6.412 L 2.124 6.536 L 1.972 6.657 L 1.815 6.775 L 1.654 6.888 L 1.488 6.998 L 1.317 7.104 L 1.141 7.206 L 0.961 7.303 L 0.777 7.396 L 0.589 7.484 L 0.397 7.568 L 0.200 7.646 L 0.000 7.719 L -0.200 7.646 L -0.397 7.568 L -0.589 7.484 L -0.777 7.396 L -0.961 7.303 L -1.141 7.206 L -1.317 7.104 L -1.488 6.998 L -1.654 6.888 L -1.815 6.775 L -1.972 6.657 L -2.124 6.536 L -2.271 6.412 L -2.412 6.284 L -2.549 6.154 L -2.680 6.020 L -2.807 5.885 L -2.928 5.746 L -3.044 5.606 L -3.154 5.463 L -3.333 5.439 L -3.512 5.409 L -3.693 5.373 L -3.874 5.332 L -4.055 5.284 L -4.236 5.231 L -4.417 5.172 L -4.599 5.107 L -4.779 5.036 L -4.959 4.959 L -5.139 4.876 L -5.317 4.787 L -5.494 4.692 L -5.670 4.591 L -5.844 4.484 L -6.016 4.371 L -6.187 4.252 L -6.355 4.127 L -6.521 3.996 L -6.685 3.860 L -6.722 3.650 L -6.752 3.440 L -6.776 3.232 L -6.794 3.025 L -6.806 2.819 L -6.811 2.615 L -6.811 2.412 L -6.804 2.211 L -6.792 2.012 L -6.775 1.815 L -6.751 1.621 L -6.722 1.429 L -6.688 1.240 L -6.648 1.053 L -6.604 0.869 L -6.554 0.689 L -6.500 0.512 L -6.440 0.338 L -6.376 0.167 L -6.308 0.000 L -6.376 -0.167 L -6.440 -0.338 L -6.500 -0.512 L -6.554 -0.689 L -6.604 -0.869 L -6.648 -1.053 L -6.688 -1.240 L -6.722 -1.429 L -6.751 -1.621 L -6.775 -1.815 L -6.792 -2.012 L -6.804 -2.211 L -6.811 -2.412 L -6.811 -2.615 L -6.806 -2.819 L -6.794 -3.025 L -6.776 -3.232 L -6.752 -3.440 L -6.722 -3.650 L -6.685 -3.859 L -6.521 -3.996 L -6.355 -4.127 L -6.187 -4.252 L -6.016 -4.371 L -5.844 -4.484 L -5.670 -4.591 L -5.494 -4.692 L -5.317 -4.787 L -5.139 -4.876 L -4.959 -4.959 L -4.779 -5.036 L -4.599 -5.107 L -4.417 -5.172 L -4.236 -5.231 L -4.055 -5.284 L -3.874 -5.332 L -3.693 -5.373 L -3.512 -5.409 L -3.333 -5.439 L -3.154 -5.463 L -3.044 -5.606 L -2.928 -5.746 L -2.807 -5.885 L -2.680 -6.020 L -2.549 -6.154 L -2.412 -6.284 L -2.271 -6.412 L -2.124 -6.536 L -1.972 -6.657 L -1.815 -6.775 L -1.654 -6.888 L -1.488 -6.998 L -1.317 -7.104 L -1.141 -7.206 L -0.961 -7.303 L -0.777 -7.396 L -0.589 -7.484 L -0.397 -7.568 L -0.200 -7.646 L -0.000 -7.719 L 0.200 -7.646 L 0.397 -7.568 L 0.589 -7.484 L 0.777 -7.396 L 0.961 -7.303 L 1.141 -7.206 L 1.317 -7.104 L 1.488 -6.998 L 1.654 -6.888 L 1.815 -6.775 L 1.972 -6.657 L 2.124 -6.536 L 2.271 -6.412 L 2.412 -6.284 L 2.549 -6.154 L 2.680 -6.020 L 2.807 -5.885 L 2.928 -5.746 L 3.044 -5.606 L 3.154 -5.463 L 3.333 -5.439 L 3.512 -5.409 L 3.693 -5.373 L 3.874 -5.332 L 4.055 -5.284 L 4.236 -5.231 L 4.417 -5.172 L 4.599 -5.107 L 4.779 -5.036 L 4.959 -4.959 L 5.139 -4.876 L 5.317 -4.787 L 5.494 -4.692 L 5.670 -4.591 L 5.844 -4.484 L 6.016 -4.371 L 6.187 -4.252 L 6.355 -4.127 L 6.521 -3.996 L 6.685 -3.859 L 6.722 -3.650 L 6.752 -3.440 L 6.776 -3.232 L 6.794 -3.025 L 6.806 -2.819 L 6.811 -2.615 L 6.811 -2.412 L 6.804 -2.211 L 6.792 -2.012 L 6.775 -1.815 L 6.751 -1.621 L 6.722 -1.429 L 6.688 -1.240 L 6.648 -1.053 L 6.604 -0.869 L 6.554 -0.689 L 6.500 -0.512 L 6.440 -0.338 L 6.376 -0.167 Z" fill="#e9e3d2" stroke="#2b2620" stroke-width="0.22" stroke-linejoin="round"/>
<circle cx="0" cy="0" r="5.810" fill="#f4f0e4"/>
<line x1="0" y1="-1.328" x2="0" y2="-5.146" stroke="#1b1815" stroke-width="0.623" stroke-linecap="round"/>
</svg>