<?xml version="1.0" encoding="UTF-8"?>
<svg xmlns="http://www.w3.org/2000/svg" width="79.724" height="79.724" viewBox="-13.500 -13.500 27.000 27.000">
<!-- generated by panel_src/gen_knobs.py : do not hand-edit -->
<circle cx="0" cy="0" r="10.800" fill="#d8d1bd" stroke="#2b2620" stroke-width="0.30"/>
<circle cx="0" cy="0" r="10.044" fill="#b9b2a0"/>
<path d="M 8.208 0.000 L 8.297 0.217 L 8.380 0.439 L 8.457 0.666 L 8.528 0.896 L 8.593 1.131 L 8.651 1.370 L 8.702 1.613 L 8.747 1.859 L 8.785 2.109 L 8.815 2.362 L 8.838 2.618 L 8.854 2.877 L 8.862 3.138 L 8.863 3.402 L 8.855 3.668 L 8.840 3.936 L 8.817 4.205 L 8.786 4.477 L 8.746 4.749 L 8.698 5.022 L 8.486 5.200 L 8.270 5.370 L 8.051 5.533 L 7.829 5.688 L 7.604 5.835 L 7.378 5.974 L 7.149 6.106 L 6.918 6.229 L 6.686 6.345 L 6.453 6.453 L 6.219 6.553 L 5.984 6.645 L 5.748 6.730 L 5.512 6.807 L 5.276 6.876 L 5.040 6.937 L 4.805 6.991 L 4.570 7.038 L 4.337 7.077 L 4.104 7.108 L 3.960 7.294 L 3.810 7.477 L 3.652 7.657 L 3.488 7.834 L 3.317 8.007 L 3.139 8.177 L 2.954 8.343 L 2.763 8.505 L 2.566 8.662 L 2.362 8.815 L 2.152 8.963 L 1.936 9.106 L 1.713 9.244 L 1.485 9.376 L 1.251 9.503 L 1.012 9.624 L 0.766 9.738 L 0.516 9.847 L 0.261 9.949 L 0.000 10.044 L -0.261 9.949 L -0.516 9.847 L -0.766 9.738 L -1.012 9.624 L -1.251 9.503 L -1.485 9.376 L -1.713 9.244 L -1.936 9.106 L -2.152 8.963 L -2.362 8.815 L -2.566 8.662 L -2.763 8.505 L -2.954 8.343 L -3.139 8.177 L -3.317 8.007 L -3.488 7.834 L -3.652 7.657 L -3.810 7.477 L -3.960 7.294 L -4.104 7.108 L -4.337 7.077 L -4.570 7.038 L -4.805 6.991 L -5.040 6.937 L -5.276 6.876 L -5.512 6.807 L -5.748 6.730 L -5.984 6.645 L -6.219 6.553 L -6.453 6.453 L -6.686 6.345 L -6.918 6.229 L -7.149 6.106 L -7.378 5.974 L -7.604 5.835 L -7.829 5.688 L -8.051 5.533 L -8.270 5.370 L -8.486 5.200 L -8.698 5.022 L -8.746 4.749 L -8.786 4.477 L -8.817 4.205 L -8.840 3.936 L -8.855 3.668 L -8.863 3.402 L -8.862 3.138 L -8.854 2.877 L -8.838 2.618 L -8.815 2.362 L -8.785 2.109 L -8.747 1.859 L -8.702 1.613 L -8.651 1.370 L -8.593 1.131 L -8.528 0.896 L -8.457 0.666 L -8.380 0.439 L -8.297 0.217 L -8.208 0.000 L -8.297 -0.217 L -8.380 -0.439 L -8.457 -0.666 L -8.528 -0.896 L -8.593 -1.131 L -8.651 -1.370 L -8.702 -1.613 L -8.747 -1.859 L -8.785 -2.109 L -8.815 -2.362 L -8.838 -2.618 L -8.854 -2.877 L -8.862 -3.138 L -8.863 -3.402 L -8.855 -3.668 L -8.840 -3.936 L -8.817 -4.205 L -8.786 -4.477 L -8.746 -4.749 L -8.698 -5.022 L -8.486 -5.200 L -8.270 -5.370 L -8.051 -5.533 L -7.829 -5.688 L -7.604 -5.835 L -7.378 -5.974 L -7.149 -6.106 L -6.918 -6.229 L -6.686 -6.345 L -6.453 -6.453 L -6.219 -6.553 L -5.984 -6.645 L -5.748 -6.730 L -5.512 -6.807 L -5.276 -6.876 L -5.040 -6.937 L -4.805 -6.991 L -4.570 -7.038 L -4.337 -7.077 L -4.104 -7.108 L -3.960 -7.294 L -3.810 -7.477 L -3.652 -7.657 L -3.488 -7.834 L -3.317 -8.007 L -3.139 -8.177 L -2.954 -8.343 L -2.763 -8.505 L -2.566 -8.662 L -2.362 -8.815 L -2.152 -8.963 L -1.936 -9.106 L -1.713 -9.244 L -1.485 -9.376 L -1.251 -9.503 L -1.012 -9.624 L -0.766 -9.738 L -0.516 -9.847 L -0.261 -9.949 L -0.000 -10.044 L 0.261 -9.949 L 0.516 -9.847 L 0.766 -9.738 L 1.012 -9.624 L 1.251 -9.503 L 1.485 -9.376 L 1.713 -9.244 L 1.936 -9.106 L 2.152 -8.963 L 2.362 -8.815 L 2.566 -8.662 L 2.763 -8.505 L 2.954 -8.343 L 3.139 -8.177 L 3.317 -8.007 L 3.488 -7.834 L 3.652 -7.657 L 3.810 -7.477 L 3.960 -7.294 L 4.104 -7.108 L 4.337 -7.077 L 4.570 -7.038 L 4.805 -6.991 L 5.040 -6.937 L 5.276 -6.876 L 5.512 -6.807 L 5.748 -6.730 L 5.984 -6.645 L 6.219 -6.553 L 6.453 -6.453 L 6.686 -6.345 L 6.918 -6.229 L 7.149 -6.106 L 7.378 -5.974 L 7.604 -5.835 L 7.829 -5.688 L 8.051 -5.533 L 8.270 -5.370 L 8.486 -5.200 L 8.698 -5.022 L 8.746 -4.749 L 8.786 -4.477 L 8.817 -4.205 L 8.840 -3.936 L 8.855 -3.668 L 8.863 -3.402 L 8.862 -3.138 L 8.854 -2.877 L 8.838 -2.618 L 8.815 -2.362 L 8.785 -2.109 L 8.747 -1.859 L 8.702 -1.613 L 8.651 -1.370 L 8.593 -1.131 L 8.528 -0.896 L 8.457 -0.666 L 8.380 -0.439 L 8.297 -0.217 Z" fill="#e9e3d2" stroke="#2b2620" stroke-width="0.22" stroke-linejoin="round"/>
<circle cx="0" cy="0" r="7.560" fill="#f4f0e4"/>
<line x1="0" y1="-1.728" x2="0" y2="-6.696" stroke="#1b1815" stroke-width="0.810" stroke-linecap="round"/>
</svg>