<?xml version="1.0" encoding="UTF-8"?>
<svg xmlns="http://www.w3.org/2000/svg" width="79.724" height="79.724" viewBox="-13.500 -13.500 27.000 27.000">
<!-- generated by panel_src/gen_knobs.py : do not hand-edit -->
<path d="M 9.180 0.000 L 9.222 0.604 L 9.337 1.229 L 9.494 1.888 L 9.650 2.586 L 9.753 3.311 L 9.759 4.042 L 9.631 4.749 L 9.353 5.400 L 8.929 5.966 L 8.380 6.430 L 7.744 6.791 L 7.064 7.064 L 6.382 7.278 L 5.733 7.471 L 5.134 7.684 L 4.590 7.950 L 4.087 8.289 L 3.604 8.700 L 3.112 9.166 L 2.586 9.650 L 2.009 10.102 L 1.379 10.472 L 0.702 10.715 L 0.000 10.800 L -0.702 10.715 L -1.379 10.472 L -2.009 10.102 L -2.586 9.650 L -3.112 9.166 L -3.604 8.700 L -4.087 8.289 L -4.590 7.950 L -5.134 7.684 L -5.733 7.471 L -6.382 7.278 L -7.064 7.064 L -7.744 6.791 L -8.380 6.430 L -8.929 5.966 L -9.353 5.400 L -9.631 4.749 L -9.759 4.042 L -9.753 3.311 L -9.650 2.586 L -9.494 1.888 L -9.337 1.229 L -9.222 0.604 L -9.180 0.000 L -9.222 -0.604 L -9.337 -1.229 L -9.494 -1.888 L -9.650 -2.586 L -9.753 -3.311 L -9.759 -4.042 L -9.631 -4.749 L -9.353 -5.400 L -8.929 -5.966 L -8.380 -6.430 L -7.744 -6.791 L -7.064 -7.064 L -6.382 -7.278 L -5.733 -7.471 L -5.134 -7.684 L -4.590 -7.950 L -4.087 -8.289 L -3.604 -8.700 L -3.112 -9.166 L -2.586 -9.650 L -2.009 -10.102 L -1.379 -10.472 L -0.702 -10.715 L -0.000 -10.800 L 0.702 -10.715 L 1.379 -10.472 L 2.009 -10.102 L 2.586 -9.650 L 3.112 -9.166 L 3.604 -8.700 L 4.087 -8.289 L 4.590 -7.950 L 5.134 -7.684 L 5.733 -7.471 L 6.382 -7.278 L 7.064 -7.064 L 7.744 -6.791 L 8.380 -6.430 L 8.929 -5.966 L 9.353 -5.400 L 9.631 -4.749 L 9.759 -4.042 L 9.753 -3.311 L 9.650 -2.586 L 9.494 -1.888 L 9.337 -1.229 L 9.222 -0.604 Z" fill="#2e2e2e" stroke="#0b0b0b" stroke-width="0.30" stroke-linejoin="round"/>
<circle cx="0" cy="0" r="8.640" fill="#3a3a3a"/>
<line x1="0" y1="-2.160" x2="0" y2="-8.856" stroke="#e8e8e8" stroke-width="0.918" stroke-linecap="round"/>
</svg>