<?xml version="1.0" encoding="UTF-8"?>
<svg xmlns="http://www.w3.org/2000/svg" width="64.961" height="64.961" viewBox="-11.000 -11.000 22.000 22.000">
<!-- generated by panel_src/gen_knobs.py : do not hand-edit -->
<circle cx="0" cy="0" r="8.300" fill="#d8d1bd" stroke="#2b2620" stroke-width="0.232"/><path d="M 7.885 0.000 L 7.295 0.441 L 6.800 0.826 L 6.373 1.168 L 5.998 1.478 L 5.661 1.764 L 5.354 2.031 L 5.071 2.282 L 4.806 2.522 L 4.555 2.754 L 4.316 2.979 L 4.085 3.200 L 3.860 3.420 L 3.639 3.639 L 3.420 3.860 L 3.200 4.085 L 2.979 4.316 L 2.754 4.555 L 2.522 4.806 L 2.282 5.071 L 2.031 5.354 L 1.764 5.661 L 1.478 5.998 L 1.168 6.373 L 0.826 6.800 L 0.441 7.295 L -0.000 7.885 L 0.000 7.885 L -0.441 7.295 L -0.826 6.800 L -1.168 6.373 L -1.478 5.998 L -1.764 5.661 L -2.031 5.354 L -2.282 5.071 L -2.522 4.806 L -2.754 4.555 L -2.979 4.316 L -3.200 4.085 L -3.420 3.860 L -3.639 3.639 L -3.860 3.420 L -4.085 3.200 L -4.316 2.979 L -4.555 2.754 L -4.806 2.522 L -5.071 2.282 L -5.354 2.031 L -5.661 1.764 L -5.998 1.478 L -6.373 1.168 L -6.800 0.826 L -7.295 0.441 L -7.885 0.000 L -7.885 0.000 L -7.295 -0.441 L -6.800 -0.826 L -6.373 -1.168 L -5.998 -1.478 L -5.661 -1.764 L -5.354 -2.031 L -5.071 -2.282 L -4.806 -2.522 L -4.555 -2.754 L -4.316 -2.979 L -4.085 -3.200 L -3.860 -3.420 L -3.639 -3.639 L -3.420 -3.860 L -3.200 -4.085 L -2.979 -4.316 L -2.754 -4.555 L -2.522 -4.806 L -2.282 -5.071 L -2.031 -5.354 L -1.764 -5.661 L -1.478 -5.998 L -1.168 -6.373 L -0.826 -6.800 L -0.441 -7.295 L -0.000 -7.885 L -0.000 -7.885 L 0.441 -7.295 L 0.826 -6.800 L 1.168 -6.373 L 1.478 -5.998 L 1.764 -5.661 L 2.031 -5.354 L 2.282 -5.071 L 2.522 -4.806 L 2.754 -4.555 L 2.979 -4.316 L 3.200 -4.085 L 3.420 -3.860 L 3.639 -3.639 L 3.860 -3.420 L 4.085 -3.200 L 4.316 -2.979 L 4.555 -2.754 L 4.806 -2.522 L 5.071 -2.282 L 5.354 -2.031 L 5.661 -1.764 L 5.998 -1.478 L 6.373 -1.168 L 6.800 -0.826 L 7.295 -0.441 L 7.885 -0.000 Z" fill="#e9e3d2" stroke="#2b2620" stroke-width="0.174" stroke-linejoin="round"/><circle cx="0" cy="0" r="4.316" fill="#f4f0e4"/><line x1="0" y1="-0.830" x2="0" y2="-4.814" stroke="#1b1815" stroke-width="0.623" stroke-linecap="round"/>
</svg>
