<?xml version="1.0" encoding="UTF-8"?>
<svg xmlns="http://www.w3.org/2000/svg" width="62.010" height="62.010" viewBox="-10.500 -10.500 21.000 21.000">
<!-- generated by panel_src/gen_knobs.py : do not hand-edit -->
<circle cx="0" cy="0" r="6.500" fill="#dcdad3" stroke="#2a2a27" stroke-width="0.182"/><path d="M 6.175 0.000 L 5.713 0.346 L 5.325 0.647 L 4.991 0.915 L 4.697 1.158 L 4.433 1.382 L 4.193 1.590 L 3.971 1.787 L 3.764 1.975 L 3.567 2.157 L 3.380 2.333 L 3.199 2.506 L 3.023 2.678 L 2.850 2.850 L 2.678 3.023 L 2.506 3.199 L 2.333 3.380 L 2.157 3.567 L 1.975 3.764 L 1.787 3.971 L 1.590 4.193 L 1.382 4.433 L 1.158 4.697 L 0.915 4.991 L 0.647 5.325 L 0.346 5.713 L -0.000 6.175 L 0.000 6.175 L -0.346 5.713 L -0.647 5.325 L -0.915 4.991 L -1.158 4.697 L -1.382 4.433 L -1.590 4.193 L -1.787 3.971 L -1.975 3.764 L -2.157 3.567 L -2.333 3.380 L -2.506 3.199 L -2.678 3.023 L -2.850 2.850 L -3.023 2.678 L -3.199 2.506 L -3.380 2.333 L -3.567 2.157 L -3.764 1.975 L -3.971 1.787 L -4.193 1.590 L -4.433 1.382 L -4.697 1.158 L -4.991 0.915 L -5.325 0.647 L -5.713 0.346 L -6.175 0.000 L -6.175 0.000 L -5.713 -0.346 L -5.325 -0.647 L -4.991 -0.915 L -4.697 -1.158 L -4.433 -1.382 L -4.193 -1.590 L -3.971 -1.787 L -3.764 -1.975 L -3.567 -2.157 L -3.380 -2.333 L -3.199 -2.506 L -3.023 -2.678 L -2.850 -2.850 L -2.678 -3.023 L -2.506 -3.199 L -2.333 -3.380 L -2.157 -3.567 L -1.975 -3.764 L -1.787 -3.971 L -1.590 -4.193 L -1.382 -4.433 L -1.158 -4.697 L -0.915 -4.991 L -0.647 -5.325 L -0.346 -5.713 L -0.000 -6.175 L -0.000 -6.175 L 0.346 -5.713 L 0.647 -5.325 L 0.915 -4.991 L 1.158 -4.697 L 1.382 -4.433 L 1.590 -4.193 L 1.787 -3.971 L 1.975 -3.764 L 2.157 -3.567 L 2.333 -3.380 L 2.506 -3.199 L 2.678 -3.023 L 2.850 -2.850 L 3.023 -2.678 L 3.199 -2.506 L 3.380 -2.333 L 3.567 -2.157 L 3.764 -1.975 L 3.971 -1.787 L 4.193 -1.590 L 4.433 -1.382 L 4.697 -1.158 L 4.991 -0.915 L 5.325 -0.647 L 5.713 -0.346 L 6.175 -0.000 Z" fill="#eeece6" stroke="#2a2a27" stroke-width="0.137" stroke-linejoin="round"/><circle cx="0" cy="0" r="3.380" fill="#f8f7f4"/><line x1="0" y1="-0.650" x2="0" y2="-3.770" stroke="#1b1815" stroke-width="0.487" stroke-linecap="round"/>
</svg>
