<?xml version="1.0" encoding="UTF-8"?>
<svg xmlns="http://www.w3.org/2000/svg" width="47.240" height="47.240" viewBox="-8.000 -8.000 16.000 16.000">
<!-- generated by panel_src/gen_knobs.py : do not hand-edit -->
<circle cx="0" cy="0" r="4.000" fill="#d8d1bd" stroke="#2b2620" stroke-width="0.112"/><circle cx="0" cy="0" r="3.720" fill="#b9b2a0"/><path d="M 3.720 0.000 L 3.525 0.142 L 3.365 0.272 L 3.229 0.392 L 3.111 0.506 L 3.007 0.614 L 2.913 0.718 L 2.827 0.819 L 2.749 0.918 L 2.676 1.015 L 2.607 1.111 L 2.543 1.207 L 2.483 1.303 L 2.425 1.400 L 2.370 1.499 L 2.317 1.599 L 2.266 1.703 L 2.217 1.810 L 2.169 1.922 L 2.123 2.039 L 2.078 2.164 L 2.035 2.297 L 1.994 2.442 L 1.954 2.601 L 1.918 2.778 L 1.885 2.982 L 1.860 3.222 L 1.860 3.222 L 1.639 3.124 L 1.447 3.050 L 1.275 2.993 L 1.118 2.947 L 0.972 2.911 L 0.835 2.882 L 0.704 2.858 L 0.580 2.839 L 0.459 2.824 L 0.342 2.814 L 0.227 2.806 L 0.113 2.801 L 0.000 2.800 L -0.113 2.801 L -0.227 2.806 L -0.342 2.814 L -0.459 2.824 L -0.580 2.839 L -0.704 2.858 L -0.835 2.882 L -0.972 2.911 L -1.118 2.947 L -1.275 2.993 L -1.447 3.050 L -1.639 3.124 L -1.860 3.222 L -1.860 3.222 L -1.885 2.982 L -1.918 2.778 L -1.954 2.601 L -1.994 2.442 L -2.035 2.297 L -2.078 2.164 L -2.123 2.039 L -2.169 1.922 L -2.217 1.810 L -2.266 1.703 L -2.317 1.599 L -2.370 1.499 L -2.425 1.400 L -2.483 1.303 L -2.543 1.207 L -2.607 1.111 L -2.676 1.015 L -2.749 0.918 L -2.827 0.819 L -2.913 0.718 L -3.007 0.614 L -3.111 0.506 L -3.229 0.392 L -3.365 0.272 L -3.525 0.142 L -3.720 0.000 L -3.720 0.000 L -3.525 -0.142 L -3.365 -0.272 L -3.229 -0.392 L -3.111 -0.506 L -3.007 -0.614 L -2.913 -0.718 L -2.827 -0.819 L -2.749 -0.918 L -2.676 -1.015 L -2.607 -1.111 L -2.543 -1.207 L -2.483 -1.303 L -2.425 -1.400 L -2.370 -1.499 L -2.317 -1.599 L -2.266 -1.703 L -2.217 -1.810 L -2.169 -1.922 L -2.123 -2.039 L -2.078 -2.164 L -2.035 -2.297 L -1.994 -2.442 L -1.954 -2.601 L -1.918 -2.778 L -1.885 -2.982 L -1.860 -3.222 L -1.860 -3.222 L -1.639 -3.124 L -1.447 -3.050 L -1.275 -2.993 L -1.118 -2.947 L -0.972 -2.911 L -0.835 -2.882 L -0.704 -2.858 L -0.580 -2.839 L -0.459 -2.824 L -0.342 -2.814 L -0.227 -2.806 L -0.113 -2.801 L -0.000 -2.800 L 0.113 -2.801 L 0.227 -2.806 L 0.342 -2.814 L 0.459 -2.824 L 0.580 -2.839 L 0.704 -2.858 L 0.835 -2.882 L 0.972 -2.911 L 1.118 -2.947 L 1.275 -2.993 L 1.447 -3.050 L 1.639 -3.124 L 1.860 -3.222 L 1.860 -3.222 L 1.885 -2.982 L 1.918 -2.778 L 1.954 -2.601 L 1.994 -2.442 L 2.035 -2.297 L 2.078 -2.164 L 2.123 -2.039 L 2.169 -1.922 L 2.217 -1.810 L 2.266 -1.703 L 2.317 -1.599 L 2.370 -1.499 L 2.425 -1.400 L 2.483 -1.303 L 2.543 -1.207 L 2.607 -1.111 L 2.676 -1.015 L 2.749 -0.918 L 2.827 -0.819 L 2.913 -0.718 L 3.007 -0.614 L 3.111 -0.506 L 3.229 -0.392 L 3.365 -0.272 L 3.525 -0.142 L 3.720 0.000 Z" fill="#e9e3d2" stroke="#2b2620" stroke-width="0.084" stroke-linejoin="round"/><circle cx="0" cy="0" r="2.640" fill="#f4f0e4"/><line x1="0" y1="0" x2="0" y2="2.400" stroke="#1b1815" stroke-width="0.450" opacity="0.42" stroke-linecap="round"/><line x1="0" y1="0" x2="0" y2="-2.400" stroke="#1b1815" stroke-width="0.450" stroke-linecap="round"/>
</svg>
