<?xml version="1.0" encoding="UTF-8"?>
<svg xmlns="http://www.w3.org/2000/svg" width="62.010" height="62.010" viewBox="-10.500 -10.500 21.000 21.000">
<!-- generated by panel_src/gen_knobs.py : do not hand-edit -->
<circle cx="0" cy="0" r="6.500" fill="#d8d1bd" stroke="#2b2620" stroke-width="0.182"/><circle cx="0" cy="0" r="6.045" fill="#b9b2a0"/><path d="M 6.045 0.000 L 5.728 0.231 L 5.468 0.441 L 5.248 0.637 L 5.056 0.822 L 4.886 0.997 L 4.733 1.167 L 4.594 1.331 L 4.466 1.491 L 4.348 1.649 L 4.237 1.805 L 4.133 1.961 L 4.034 2.117 L 3.940 2.275 L 3.851 2.435 L 3.765 2.599 L 3.682 2.767 L 3.602 2.941 L 3.525 3.122 L 3.450 3.313 L 3.377 3.516 L 3.307 3.733 L 3.240 3.968 L 3.176 4.226 L 3.116 4.515 L 3.064 4.845 L 3.022 5.235 L 3.022 5.235 L 2.664 5.076 L 2.352 4.956 L 2.072 4.863 L 1.816 4.789 L 1.579 4.730 L 1.356 4.682 L 1.145 4.644 L 0.942 4.614 L 0.746 4.590 L 0.555 4.572 L 0.368 4.560 L 0.183 4.552 L 0.000 4.550 L -0.183 4.552 L -0.368 4.560 L -0.555 4.572 L -0.746 4.590 L -0.942 4.614 L -1.145 4.644 L -1.356 4.682 L -1.579 4.730 L -1.816 4.789 L -2.072 4.863 L -2.352 4.956 L -2.664 5.076 L -3.022 5.235 L -3.022 5.235 L -3.064 4.845 L -3.116 4.515 L -3.176 4.226 L -3.240 3.968 L -3.307 3.733 L -3.377 3.516 L -3.450 3.313 L -3.525 3.122 L -3.602 2.941 L -3.682 2.767 L -3.765 2.599 L -3.851 2.435 L -3.940 2.275 L -4.034 2.117 L -4.133 1.961 L -4.237 1.805 L -4.348 1.649 L -4.466 1.491 L -4.594 1.331 L -4.733 1.167 L -4.886 0.997 L -5.056 0.822 L -5.248 0.637 L -5.468 0.441 L -5.728 0.231 L -6.045 0.000 L -6.045 0.000 L -5.728 -0.231 L -5.468 -0.441 L -5.248 -0.637 L -5.056 -0.822 L -4.886 -0.997 L -4.733 -1.167 L -4.594 -1.331 L -4.466 -1.491 L -4.348 -1.649 L -4.237 -1.805 L -4.133 -1.961 L -4.034 -2.117 L -3.940 -2.275 L -3.851 -2.435 L -3.765 -2.599 L -3.682 -2.767 L -3.602 -2.941 L -3.525 -3.122 L -3.450 -3.313 L -3.377 -3.516 L -3.307 -3.733 L -3.240 -3.968 L -3.176 -4.226 L -3.116 -4.515 L -3.064 -4.845 L -3.023 -5.235 L -3.023 -5.235 L -2.664 -5.076 L -2.352 -4.956 L -2.072 -4.863 L -1.816 -4.789 L -1.579 -4.730 L -1.356 -4.682 L -1.145 -4.644 L -0.942 -4.614 L -0.746 -4.590 L -0.555 -4.572 L -0.368 -4.560 L -0.183 -4.552 L -0.000 -4.550 L 0.183 -4.552 L 0.368 -4.560 L 0.555 -4.572 L 0.746 -4.590 L 0.942 -4.614 L 1.145 -4.644 L 1.356 -4.682 L 1.579 -4.730 L 1.816 -4.789 L 2.072 -4.863 L 2.352 -4.956 L 2.664 -5.076 L 3.022 -5.235 L 3.022 -5.235 L 3.064 -4.845 L 3.116 -4.515 L 3.176 -4.226 L 3.240 -3.968 L 3.307 -3.733 L 3.377 -3.516 L 3.450 -3.313 L 3.525 -3.122 L 3.602 -2.941 L 3.682 -2.767 L 3.765 -2.599 L 3.851 -2.435 L 3.940 -2.275 L 4.034 -2.117 L 4.133 -1.961 L 4.237 -1.805 L 4.348 -1.649 L 4.466 -1.491 L 4.594 -1.331 L 4.733 -1.167 L 4.886 -0.997 L 5.056 -0.822 L 5.248 -0.637 L 5.468 -0.441 L 5.728 -0.231 L 6.045 0.000 Z" fill="#e9e3d2" stroke="#2b2620" stroke-width="0.137" stroke-linejoin="round"/><circle cx="0" cy="0" r="4.290" fill="#f4f0e4"/><line x1="0" y1="-1.040" x2="0" y2="-3.900" stroke="#1b1815" stroke-width="0.487" stroke-linecap="round"/>
</svg>
