<?xml version="1.0" encoding="UTF-8"?>
<svg xmlns="http://www.w3.org/2000/svg" width="79.724" height="79.724" viewBox="-13.500 -13.500 27.000 27.000">
<!-- generated by panel_src/gen_knobs.py : do not hand-edit -->
<circle cx="0" cy="0" r="10.800" fill="#dcdad3" stroke="#2a2a27" stroke-width="0.302"/><circle cx="0" cy="0" r="10.044" fill="#bfbeb8"/><path d="M 10.044 0.000 L 9.517 0.384 L 9.086 0.733 L 8.719 1.059 L 8.401 1.365 L 8.118 1.657 L 7.865 1.938 L 7.633 2.211 L 7.421 2.478 L 7.224 2.740 L 7.040 2.999 L 6.867 3.258 L 6.703 3.518 L 6.547 3.780 L 6.398 4.046 L 6.255 4.318 L 6.118 4.597 L 5.985 4.886 L 5.856 5.188 L 5.732 5.505 L 5.611 5.842 L 5.495 6.202 L 5.383 6.593 L 5.277 7.022 L 5.178 7.502 L 5.091 8.050 L 5.022 8.698 L 5.022 8.698 L 4.426 8.434 L 3.908 8.235 L 3.443 8.080 L 3.018 7.958 L 2.624 7.859 L 2.254 7.780 L 1.902 7.716 L 1.565 7.666 L 1.239 7.626 L 0.922 7.597 L 0.612 7.576 L 0.305 7.564 L 0.000 7.560 L -0.305 7.564 L -0.612 7.576 L -0.922 7.597 L -1.239 7.626 L -1.565 7.666 L -1.902 7.716 L -2.254 7.780 L -2.624 7.859 L -3.018 7.958 L -3.443 8.080 L -3.908 8.235 L -4.426 8.434 L -5.022 8.698 L -5.022 8.698 L -5.091 8.050 L -5.178 7.502 L -5.277 7.022 L -5.383 6.593 L -5.495 6.202 L -5.611 5.842 L -5.732 5.505 L -5.856 5.188 L -5.985 4.886 L -6.118 4.597 L -6.255 4.318 L -6.398 4.046 L -6.547 3.780 L -6.703 3.518 L -6.867 3.258 L -7.040 2.999 L -7.224 2.740 L -7.421 2.478 L -7.633 2.211 L -7.865 1.938 L -8.118 1.657 L -8.401 1.365 L -8.719 1.059 L -9.086 0.733 L -9.517 0.384 L -10.044 0.000 L -10.044 0.000 L -9.517 -0.384 L -9.086 -0.733 L -8.719 -1.059 L -8.401 -1.365 L -8.118 -1.657 L -7.865 -1.938 L -7.633 -2.211 L -7.421 -2.478 L -7.224 -2.740 L -7.040 -2.999 L -6.867 -3.258 L -6.703 -3.518 L -6.547 -3.780 L -6.398 -4.046 L -6.255 -4.318 L -6.118 -4.597 L -5.985 -4.886 L -5.856 -5.188 L -5.732 -5.505 L -5.611 -5.842 L -5.495 -6.202 L -5.383 -6.593 L -5.277 -7.022 L -5.178 -7.502 L -5.091 -8.050 L -5.022 -8.698 L -5.022 -8.698 L -4.426 -8.434 L -3.908 -8.235 L -3.443 -8.080 L -3.018 -7.958 L -2.624 -7.859 L -2.254 -7.780 L -1.902 -7.716 L -1.565 -7.666 L -1.239 -7.626 L -0.922 -7.597 L -0.612 -7.576 L -0.305 -7.564 L -0.000 -7.560 L 0.305 -7.564 L 0.612 -7.576 L 0.922 -7.597 L 1.239 -7.626 L 1.565 -7.666 L 1.902 -7.716 L 2.254 -7.780 L 2.624 -7.859 L 3.018 -7.958 L 3.443 -8.080 L 3.908 -8.235 L 4.426 -8.434 L 5.022 -8.698 L 5.022 -8.698 L 5.091 -8.050 L 5.178 -7.502 L 5.277 -7.022 L 5.383 -6.593 L 5.495 -6.202 L 5.611 -5.842 L 5.732 -5.505 L 5.856 -5.188 L 5.985 -4.886 L 6.118 -4.597 L 6.255 -4.318 L 6.398 -4.046 L 6.547 -3.780 L 6.703 -3.518 L 6.867 -3.258 L 7.040 -2.999 L 7.224 -2.740 L 7.421 -2.478 L 7.633 -2.211 L 7.865 -1.938 L 8.118 -1.657 L 8.401 -1.365 L 8.719 -1.059 L 9.086 -0.733 L 9.517 -0.384 L 10.044 0.000 Z" fill="#eeece6" stroke="#2a2a27" stroke-width="0.227" stroke-linejoin="round"/><circle cx="0" cy="0" r="7.128" fill="#f8f7f4"/><line x1="0" y1="0" x2="0" y2="6.480" stroke="#1b1815" stroke-width="0.810" opacity="0.42" stroke-linecap="round"/><line x1="0" y1="0" x2="0" y2="-6.480" stroke="#1b1815" stroke-width="0.810" stroke-linecap="round"/>
</svg>
