<?xml version="1.0" encoding="UTF-8"?>
<svg xmlns="http://www.w3.org/2000/svg" width="79.724" height="79.724" viewBox="-13.500 -13.500 27.000 27.000">
<!-- generated by panel_src/gen_knobs.py : do not hand-edit -->
<circle cx="0" cy="0" r="10.800" fill="#d8d1bd" stroke="#2b2620" stroke-width="0.302"/><path d="M 10.260 0.000 L 9.492 0.574 L 8.848 1.074 L 8.293 1.520 L 7.805 1.924 L 7.366 2.295 L 6.967 2.642 L 6.598 2.970 L 6.253 3.282 L 5.927 3.583 L 5.616 3.876 L 5.315 4.164 L 5.022 4.450 L 4.735 4.735 L 4.450 5.022 L 4.164 5.315 L 3.876 5.616 L 3.583 5.927 L 3.282 6.253 L 2.970 6.598 L 2.642 6.967 L 2.295 7.366 L 1.924 7.805 L 1.520 8.293 L 1.074 8.848 L 0.574 9.492 L -0.000 10.260 L 0.000 10.260 L -0.574 9.492 L -1.074 8.848 L -1.520 8.293 L -1.924 7.805 L -2.295 7.366 L -2.642 6.967 L -2.970 6.598 L -3.282 6.253 L -3.583 5.927 L -3.876 5.616 L -4.164 5.315 L -4.450 5.022 L -4.735 4.735 L -5.022 4.450 L -5.315 4.164 L -5.616 3.876 L -5.927 3.583 L -6.253 3.282 L -6.598 2.970 L -6.967 2.642 L -7.366 2.295 L -7.805 1.924 L -8.293 1.520 L -8.848 1.074 L -9.492 0.574 L -10.260 0.000 L -10.260 0.000 L -9.492 -0.574 L -8.848 -1.074 L -8.293 -1.520 L -7.805 -1.924 L -7.366 -2.295 L -6.967 -2.642 L -6.598 -2.970 L -6.253 -3.282 L -5.927 -3.583 L -5.616 -3.876 L -5.315 -4.164 L -5.022 -4.450 L -4.735 -4.735 L -4.450 -5.022 L -4.164 -5.315 L -3.876 -5.616 L -3.583 -5.927 L -3.282 -6.253 L -2.970 -6.598 L -2.642 -6.967 L -2.295 -7.366 L -1.924 -7.805 L -1.520 -8.293 L -1.074 -8.848 L -0.574 -9.492 L -0.000 -10.260 L -0.000 -10.260 L 0.574 -9.492 L 1.074 -8.848 L 1.520 -8.293 L 1.924 -7.805 L 2.295 -7.366 L 2.642 -6.967 L 2.970 -6.598 L 3.282 -6.253 L 3.583 -5.927 L 3.876 -5.616 L 4.164 -5.315 L 4.450 -5.022 L 4.735 -4.735 L 5.022 -4.450 L 5.315 -4.164 L 5.616 -3.876 L 5.927 -3.583 L 6.253 -3.282 L 6.598 -2.970 L 6.967 -2.642 L 7.366 -2.295 L 7.805 -1.924 L 8.293 -1.520 L 8.848 -1.074 L 9.492 -0.574 L 10.260 -0.000 Z" fill="#e9e3d2" stroke="#2b2620" stroke-width="0.227" stroke-linejoin="round"/><circle cx="0" cy="0" r="5.616" fill="#f4f0e4"/><line x1="0" y1="-1.080" x2="0" y2="-6.264" stroke="#1b1815" stroke-width="0.810" stroke-linecap="round"/>
</svg>
