<svg xmlns="http://www.w3.org/2000/svg" viewBox="0 0 800 600" width="100%" height="100%">
  <rect x="0" y="0" width="800" height="600" fill="#2b3a4a" />
  <rect x="0" y="500" width="800" height="100" fill="#14213d" />
  <path d="M 200,520 L 600,520 M 250,540 L 550,540 M 300,560 L 500,560 M 350,580 L 450,580" fill="none" stroke="#ffffff" stroke-width="1" opacity="0.15" stroke-linecap="round"/>
  <path d="M 210,500 Q 260,400 280,190 L 295,190 Q 270,400 250,500 Z M 290,500 L 305,190 L 330,190 L 330,500 Z M 340,500 Q 390,400 410,190 L 425,190 Q 400,400 380,500 Z M 420,500 L 435,190 L 460,190 L 460,500 Z M 470,500 Q 520,400 540,190 L 555,190 Q 530,400 510,500 Z M 550,500 L 565,190 L 590,190 L 590,500 Z" fill="#5c768d" stroke="#b0c4de" stroke-width="1" stroke-linejoin="round" />
  <path d="M 215,450 L 330,450 M 345,450 L 460,450 M 475,450 L 590,450 M 225,400 L 330,400 M 355,400 L 460,400 M 485,400 L 590,400 M 235,350 L 330,350 M 365,350 L 460,350 M 495,350 L 590,350 M 245,300 L 330,300 M 375,300 L 460,300 M 505,300 L 590,300 M 260,250 L 330,250 M 390,250 L 460,250 M 520,250 L 590,250 M 275,210 L 330,210 M 405,210 L 460,210 M 535,210 L 590,210" fill="none" stroke="#1b263b" stroke-width="1.5" opacity="0.3" />
  <rect x="268" y="250" width="30" height="4" fill="#415a77" opacity="0.8" /><rect x="260" y="350" width="40" height="4" fill="#415a77" opacity="0.8" /><rect x="254" y="450" width="42" height="4" fill="#415a77" opacity="0.8" /><rect x="398" y="250" width="30" height="4" fill="#415a77" opacity="0.8" /><rect x="390" y="350" width="40" height="4" fill="#415a77" opacity="0.8" /><rect x="384" y="450" width="42" height="4" fill="#415a77" opacity="0.8" /><rect x="528" y="250" width="30" height="4" fill="#415a77" opacity="0.8" /><rect x="520" y="350" width="40" height="4" fill="#415a77" opacity="0.8" /><rect x="514" y="450" width="42" height="4" fill="#415a77" opacity="0.8" />
  <path d="M 90,150 Q 365,160 630,150 C 640,150 640,190 620,190 L 280,190 Q 160,190 90,150 Z" fill="#8a95a5" stroke="#1b263b" stroke-width="2" />
  <path d="M 90,150 Q 365,160 630,150" fill="none" stroke="#e0e0e0" stroke-width="4" stroke-linecap="round"/>
  <path d="M 120,165 Q 365,175 610,165" fill="none" stroke="#415a77" stroke-width="2" opacity="0.5"/>
  <path d="M 90,146 L 140,147 L 140,150 L 90,150 Z" fill="#e0e0e0" opacity="0.7"/>
  <path d="M 120,500 Q 80,440 70,390 Q 105,430 130,500 Z" fill="#b0c4de" stroke="#ffffff" stroke-width="1"/>
  <path d="M 160,500 Q 190,440 210,400 Q 180,450 170,500 Z" fill="#b0c4de" stroke="#ffffff" stroke-width="1"/>
  <path d="M 130,500 Q 100,420 100,360 Q 125,410 140,500 Z" fill="#d9e2ec" stroke="#ffffff" stroke-width="1"/>
  <path d="M 150,500 Q 170,410 180,370 Q 165,420 160,500 Z" fill="#d9e2ec" stroke="#ffffff" stroke-width="1"/>
  <path d="M 140,500 Q 130,390 140,340 Q 150,400 150,500 Z" fill="#f0f4f8" stroke="#ffffff" stroke-width="1"/>
  <ellipse cx="140" cy="500" rx="30" ry="4" fill="#415a77" stroke="#ffffff" stroke-width="1"/>
</svg>
