<svg xmlns="http://www.w3.org/2000/svg" viewBox="0 0 64 64" width="64" height="64"><rect width="64" height="64" rx="12" fill="#f0ede8"/><g transform="translate(32.000,32.000)"><circle r="26.000" fill="#1c1c1c" stroke="#000000" stroke-width="0.780"/><circle r="21.840" fill="#0a0202"/><g stroke="#a83020" stroke-width="0.520" opacity="0.9"><line x1="-21.840" y1="0" x2="21.840" y2="0"/><line x1="0" y1="-21.840" x2="0" y2="21.840"/></g><g stroke="#7a2018" stroke-width="0.338" opacity="0.6"><line x1="-21.840" y1="-10.920" x2="21.840" y2="-10.920"/><line x1="-10.920" y1="-21.840" x2="-10.920" y2="21.840"/><line x1="-21.840" y1="10.920" x2="21.840" y2="10.920"/><line x1="10.920" y1="-21.840" x2="10.920" y2="21.840"/></g><path d="M 14.56,0.00 L 14.50,0.80 L 14.30,1.60 L 13.98,2.39 L 13.54,3.17 L 12.97,3.94 L 12.29,4.69 L 11.50,5.42 L 10.61,6.14 L 9.63,6.83 L 8.56,7.49 L 7.41,8.12 L 6.20,8.72 L 4.93,9.29 L 3.62,9.82 L 2.28,10.31 L 0.91,10.76 L -0.46,11.16 L -1.82,11.53 L -3.18,11.85 L -4.50,12.12 L -5.78,12.34 L -7.01,12.51 L -8.18,12.64 L -9.28,12.71 L -10.30,12.74 L -11.22,12.71 L -12.04,12.64 L -12.76,12.51 L -13.36,12.34 L -13.85,12.12 L -14.21,11.85 L -14.45,11.53 L -14.55,11.16 L -14.53,10.76 L -14.38,10.31 L -14.10,9.82 L -13.70,9.29 L -13.17,8.72 L -12.53,8.12 L -11.78,7.49 L -10.92,6.83 L -9.97,6.14 L -8.92,5.42 L -7.80,4.69 L -6.61,3.94 L -5.36,3.17 L -4.06,2.39 L -2.73,1.60 L -1.37,0.80 L -0.00,0.00 L 1.37,-0.80 L 2.73,-1.60 L 4.06,-2.39 L 5.36,-3.17 L 6.61,-3.94 L 7.80,-4.69 L 8.92,-5.42 L 9.97,-6.14 L 10.92,-6.83 L 11.78,-7.49 L 12.53,-8.12 L 13.17,-8.72 L 13.70,-9.29 L 14.10,-9.82 L 14.38,-10.31 L 14.53,-10.76 L 14.55,-11.16 L 14.45,-11.53 L 14.21,-11.85 L 13.85,-12.12 L 13.36,-12.34 L 12.76,-12.51 L 12.04,-12.64 L 11.22,-12.71 L 10.30,-12.74 L 9.28,-12.71 L 8.18,-12.64 L 7.01,-12.51 L 5.78,-12.34 L 4.50,-12.12 L 3.18,-11.85 L 1.82,-11.53 L 0.46,-11.16 L -0.91,-10.76 L -2.28,-10.31 L -3.62,-9.82 L -4.93,-9.29 L -6.20,-8.72 L -7.41,-8.12 L -8.56,-7.49 L -9.63,-6.83 L -10.61,-6.14 L -11.50,-5.42 L -12.29,-4.69 L -12.97,-3.94 L -13.54,-3.17 L -13.98,-2.39 L -14.30,-1.60 L -14.50,-0.80 L -14.56,-0.00 L -14.50,0.80 L -14.30,1.60 L -13.98,2.39 L -13.54,3.17 L -12.97,3.94 L -12.29,4.69 L -11.50,5.42 L -10.61,6.14 L -9.63,6.83 L -8.56,7.49 L -7.41,8.12 L -6.20,8.72 L -4.93,9.29 L -3.62,9.82 L -2.28,10.31 L -0.91,10.76 L 0.46,11.16 L 1.82,11.53 L 3.18,11.85 L 4.50,12.12 L 5.78,12.34 L 7.01,12.51 L 8.18,12.64 L 9.28,12.71 L 10.30,12.74 L 11.22,12.71 L 12.04,12.64 L 12.76,12.51 L 13.36,12.34 L 13.85,12.12 L 14.21,11.85 L 14.45,11.53 L 14.55,11.16 L 14.53,10.76 L 14.38,10.31 L 14.10,9.82 L 13.70,9.29 L 13.17,8.72 L 12.53,8.12 L 11.78,7.49 L 10.92,6.83 L 9.97,6.14 L 8.92,5.42 L 7.80,4.69 L 6.61,3.94 L 5.36,3.17 L 4.06,2.39 L 2.73,1.60 L 1.37,0.80 L 0.00,0.00 L -1.37,-0.80 L -2.73,-1.60 L -4.06,-2.39 L -5.36,-3.17 L -6.61,-3.94 L -7.80,-4.69 L -8.92,-5.42 L -9.97,-6.14 L -10.92,-6.83 L -11.78,-7.49 L -12.53,-8.12 L -13.17,-8.72 L -13.70,-9.29 L -14.10,-9.82 L -14.38,-10.31 L -14.53,-10.76 L -14.55,-11.16 L -14.45,-11.53 L -14.21,-11.85 L -13.85,-12.12 L -13.36,-12.34 L -12.76,-12.51 L -12.04,-12.64 L -11.22,-12.71 L -10.30,-12.74 L -9.28,-12.71 L -8.18,-12.64 L -7.01,-12.51 L -5.78,-12.34 L -4.50,-12.12 L -3.18,-11.85 L -1.82,-11.53 L -0.46,-11.16 L 0.91,-10.76 L 2.28,-10.31 L 3.62,-9.82 L 4.93,-9.29 L 6.20,-8.72 L 7.41,-8.12 L 8.56,-7.49 L 9.63,-6.83 L 10.61,-6.14 L 11.50,-5.42 L 12.29,-4.69 L 12.97,-3.94 L 13.54,-3.17 L 13.98,-2.39 L 14.30,-1.60 L 14.50,-0.80 L 14.56,-0.00 Z" fill="none" stroke="#ff2a1a" stroke-width="1.300" stroke-linejoin="round"/><circle r="20.020" fill="none" stroke="#d4001a" stroke-width="1.430"/><circle r="20.020" fill="none" stroke="#ff5533" stroke-width="0.468" opacity="0.7"/><circle r="2.210" fill="#ff3322"/><circle r="1.040" fill="#ffccbb"/></g></svg>