<svg xmlns="http://www.w3.org/2000/svg" viewBox="0 0 120 380" width="120" height="380">
<!-- dot.modular VCV Rack panel template · 8HP · 120x380px · 1HP=15px · 3U=380px. Remove annotations before use. -->
<rect width="120" height="380" fill="#181818"/>
<g stroke="#ff000033" stroke-width="0.5" stroke-dasharray="2,4">
<line x1="15.0" y1="0" x2="15.0" y2="380.0"/>
<line x1="30.0" y1="0" x2="30.0" y2="380.0"/>
<line x1="45.0" y1="0" x2="45.0" y2="380.0"/>
<line x1="60.0" y1="0" x2="60.0" y2="380.0"/>
<line x1="75.0" y1="0" x2="75.0" y2="380.0"/>
<line x1="90.0" y1="0" x2="90.0" y2="380.0"/>
<line x1="105.0" y1="0" x2="105.0" y2="380.0"/>
</g>
<rect x="0" y="0" width="120" height="14.5" fill="#ffffff08"/>
<rect x="0" y="366" width="120" height="14.5" fill="#ffffff08"/>
<line x1="0" y1="14.5" x2="120" y2="14.5" stroke="#ff6600" stroke-width="0.7" stroke-dasharray="4,3"/>
<line x1="0" y1="366" x2="120" y2="366" stroke="#ff6600" stroke-width="0.7" stroke-dasharray="4,3"/>
<rect x="4" y="26" width="112" height="327" fill="none" stroke="#00ff0033" stroke-width="0.7" stroke-dasharray="4,4"/>
<circle cx="7.5" cy="14.5" r="4.5" fill="none" stroke="#ff6600" stroke-width="0.8" stroke-dasharray="2,2"/>
<circle cx="7.5" cy="365.5" r="4.5" fill="none" stroke="#ff6600" stroke-width="0.8" stroke-dasharray="2,2"/>
<circle cx="112.5" cy="14.5" r="4.5" fill="none" stroke="#ff6600" stroke-width="0.8" stroke-dasharray="2,2"/>
<circle cx="112.5" cy="365.5" r="4.5" fill="none" stroke="#ff6600" stroke-width="0.8" stroke-dasharray="2,2"/>
<text x="60" y="8" font-family="monospace" font-size="7" fill="#ff6600" text-anchor="middle">← 8HP = 120px →</text>
<line x1="60" y1="26" x2="60" y2="354" stroke="#ffffff11" stroke-width="0.5"/>
<line x1="0" y1="190" x2="120" y2="190" stroke="#ffffff11" stroke-width="0.5"/>
</svg>