<svg xmlns="http://www.w3.org/2000/svg" viewBox="0 0 1000 1240" width="1000" height="1240">
<rect width="1000" height="1240" fill="#070707"/><rect x="0" y="0" width="1000" height="3" fill="#d4001a"/>
<g transform="translate(58.000,46.000)"><circle r="20.000" fill="#1c1c1c" stroke="#000000" stroke-width="0.600"/><circle r="16.800" fill="#0a0202"/><g stroke="#a83020" stroke-width="0.400" opacity="0.9"><line x1="-16.800" y1="0" x2="16.800" y2="0"/><line x1="0" y1="-16.800" x2="0" y2="16.800"/></g><g stroke="#7a2018" stroke-width="0.260" opacity="0.6"><line x1="-16.800" y1="-8.400" x2="16.800" y2="-8.400"/><line x1="-8.400" y1="-16.800" x2="-8.400" y2="16.800"/><line x1="-16.800" y1="8.400" x2="16.800" y2="8.400"/><line x1="8.400" y1="-16.800" x2="8.400" y2="16.800"/></g><path d="M 11.20,0.00 L 11.15,0.62 L 11.00,1.23 L 10.76,1.84 L 10.41,2.44 L 9.98,3.03 L 9.46,3.61 L 8.85,4.17 L 8.16,4.72 L 7.41,5.25 L 6.58,5.76 L 5.70,6.25 L 4.77,6.71 L 3.79,7.14 L 2.79,7.55 L 1.75,7.93 L 0.70,8.27 L -0.35,8.59 L -1.40,8.87 L -2.44,9.11 L -3.46,9.32 L -4.45,9.49 L -5.40,9.63 L -6.30,9.72 L -7.14,9.78 L -7.92,9.80 L -8.63,9.78 L -9.26,9.72 L -9.81,9.63 L -10.28,9.49 L -10.65,9.32 L -10.93,9.11 L -11.11,8.87 L -11.19,8.59 L -11.18,8.27 L -11.06,7.93 L -10.85,7.55 L -10.54,7.14 L -10.13,6.71 L -9.64,6.25 L -9.06,5.76 L -8.40,5.25 L -7.67,4.72 L -6.86,4.17 L -6.00,3.61 L -5.08,3.03 L -4.12,2.44 L -3.12,1.84 L -2.10,1.23 L -1.05,0.62 L -0.00,0.00 L 1.05,-0.62 L 2.10,-1.23 L 3.12,-1.84 L 4.12,-2.44 L 5.08,-3.03 L 6.00,-3.61 L 6.86,-4.17 L 7.67,-4.72 L 8.40,-5.25 L 9.06,-5.76 L 9.64,-6.25 L 10.13,-6.71 L 10.54,-7.14 L 10.85,-7.55 L 11.06,-7.93 L 11.18,-8.27 L 11.19,-8.59 L 11.11,-8.87 L 10.93,-9.11 L 10.65,-9.32 L 10.28,-9.49 L 9.81,-9.63 L 9.26,-9.72 L 8.63,-9.78 L 7.92,-9.80 L 7.14,-9.78 L 6.30,-9.72 L 5.40,-9.63 L 4.45,-9.49 L 3.46,-9.32 L 2.44,-9.11 L 1.40,-8.87 L 0.35,-8.59 L -0.70,-8.27 L -1.75,-7.93 L -2.79,-7.55 L -3.79,-7.14 L -4.77,-6.71 L -5.70,-6.25 L -6.58,-5.76 L -7.41,-5.25 L -8.16,-4.72 L -8.85,-4.17 L -9.46,-3.61 L -9.98,-3.03 L -10.41,-2.44 L -10.76,-1.84 L -11.00,-1.23 L -11.15,-0.62 L -11.20,-0.00 L -11.15,0.62 L -11.00,1.23 L -10.76,1.84 L -10.41,2.44 L -9.98,3.03 L -9.46,3.61 L -8.85,4.17 L -8.16,4.72 L -7.41,5.25 L -6.58,5.76 L -5.70,6.25 L -4.77,6.71 L -3.79,7.14 L -2.79,7.55 L -1.75,7.93 L -0.70,8.27 L 0.35,8.59 L 1.40,8.87 L 2.44,9.11 L 3.46,9.32 L 4.45,9.49 L 5.40,9.63 L 6.30,9.72 L 7.14,9.78 L 7.92,9.80 L 8.63,9.78 L 9.26,9.72 L 9.81,9.63 L 10.28,9.49 L 10.65,9.32 L 10.93,9.11 L 11.11,8.87 L 11.19,8.59 L 11.18,8.27 L 11.06,7.93 L 10.85,7.55 L 10.54,7.14 L 10.13,6.71 L 9.64,6.25 L 9.06,5.76 L 8.40,5.25 L 7.67,4.72 L 6.86,4.17 L 6.00,3.61 L 5.08,3.03 L 4.12,2.44 L 3.12,1.84 L 2.10,1.23 L 1.05,0.62 L 0.00,0.00 L -1.05,-0.62 L -2.10,-1.23 L -3.12,-1.84 L -4.12,-2.44 L -5.08,-3.03 L -6.00,-3.61 L -6.86,-4.17 L -7.67,-4.72 L -8.40,-5.25 L -9.06,-5.76 L -9.64,-6.25 L -10.13,-6.71 L -10.54,-7.14 L -10.85,-7.55 L -11.06,-7.93 L -11.18,-8.27 L -11.19,-8.59 L -11.11,-8.87 L -10.93,-9.11 L -10.65,-9.32 L -10.28,-9.49 L -9.81,-9.63 L -9.26,-9.72 L -8.63,-9.78 L -7.92,-9.80 L -7.14,-9.78 L -6.30,-9.72 L -5.40,-9.63 L -4.45,-9.49 L -3.46,-9.32 L -2.44,-9.11 L -1.40,-8.87 L -0.35,-8.59 L 0.70,-8.27 L 1.75,-7.93 L 2.79,-7.55 L 3.79,-7.14 L 4.77,-6.71 L 5.70,-6.25 L 6.58,-5.76 L 7.41,-5.25 L 8.16,-4.72 L 8.85,-4.17 L 9.46,-3.61 L 9.98,-3.03 L 10.41,-2.44 L 10.76,-1.84 L 11.00,-1.23 L 11.15,-0.62 L 11.20,-0.00 Z" fill="none" stroke="#ff2a1a" stroke-width="1.000" stroke-linejoin="round"/><circle r="15.400" fill="none" stroke="#d4001a" stroke-width="1.100"/><circle r="15.400" fill="none" stroke="#ff5533" stroke-width="0.360" opacity="0.7"/><circle r="1.700" fill="#ff3322"/><circle r="0.800" fill="#ffccbb"/></g>
<text x="92" y="42" font-family="monospace" font-size="12" fill="#f0ede8" letter-spacing="1" text-anchor="start">dot.modular</text>
<text x="92" y="56" font-family="monospace" font-size="9" fill="#555" letter-spacing="2" text-anchor="start">VISUAL IDENTITY SYSTEM</text>
<text x="960" y="50" font-family="monospace" font-size="9" fill="#444" letter-spacing="2" text-anchor="end">v2 · Barlow Black · nanosvg-safe</text>
<line x1="40" y1="78" x2="960" y2="78" stroke="#1a1a1a" stroke-width="1"/>
<text x="40" y="106" font-family="monospace" font-size="10" fill="#d4001a" letter-spacing="2" text-anchor="start">01 — PRIMARY LOCKUP · DARK</text>
<rect x="40" y="118" width="920" height="168" fill="#070707"/>
<g transform="translate(80.00,218.00) scale(0.09000,-0.09000)"><path d="M370 700H528Q535 700 539.0 696.0Q543 692 543 685V15Q543 8 539.0 4.0Q535 0 528 0H370Q363 0 359.0 4.0Q355 8 355 15V45Q355 48 353.0 49.0Q351 50 349 47Q312 -8 233 -8Q166 -8 112.5 34.5Q59 77 37 150Q22 200 22 262Q22 334 44 390Q68 451 119.0 489.5Q170 528 241 528Q314 528 349 482Q351 480 353.0 480.5Q355 481 355 484V685Q355 692 359.0 696.0Q363 700 370 700ZM355 259Q355 307 339 336Q321 367 287 367Q251 367 234 334Q219 306 219 259Q219 214 234 186Q252 153 287 153Q322 153 340 187Q355 216 355 259Z" fill="#f0ede8"/></g><g transform="translate(212.03,218.00) scale(0.09000,-0.09000)"><path d="M358 370H275Q270 370 270 365V208Q270 158 306 158H343Q350 158 354.0 154.0Q358 150 358 143V15Q358 1 343 -1Q304 -4 268 -4Q177 -4 134.0 24.0Q91 52 90 130V365Q90 370 85 370H31Q24 370 20.0 374.0Q16 378 16 385V505Q16 512 20.0 516.0Q24 520 31 520H85Q90 520 90 525V645Q90 652 94.0 656.0Q98 660 105 660H255Q262 660 266.0 656.0Q270 652 270 645V525Q270 520 275 520H358Q365 520 369.0 516.0Q373 512 373 505V385Q373 378 369.0 374.0Q365 370 358 370Z" fill="#f0ede8"/></g><g transform="translate(283.13,218.00) scale(0.09000,-0.09000)"><path d="M815 341V15Q815 8 811.0 4.0Q807 0 800 0H642Q635 0 631.0 4.0Q627 8 627 15V300Q627 330 612.5 348.5Q598 367 575 367Q551 367 536.0 348.5Q521 330 521 300V15Q521 8 517.0 4.0Q513 0 506 0H348Q341 0 337.0 4.0Q333 8 333 15V300Q333 330 317.5 348.5Q302 367 277 367Q255 367 240.5 353.5Q226 340 222 317Q221 315 221 311V15Q221 8 217.0 4.0Q213 0 206 0H48Q41 0 37.0 4.0Q33 8 33 15V505Q33 512 37.0 516.0Q41 520 48 520H206Q213 520 217.0 516.0Q221 512 221 505V455Q221 451 223.0 451.0Q225 451 227 454Q265 528 355 528Q406 528 444.5 504.5Q483 481 503 437Q506 432 509 438Q529 483 564.5 505.5Q600 528 648 528Q727 528 771.0 479.0Q815 430 815 341Z" fill="#f0ede8"/></g><g transform="translate(356.48,218.00) scale(0.09000,-0.09000)"><path d="M32 181Q22 217 22 261Q22 310 34 350Q58 433 122.5 480.5Q187 528 280 528Q373 528 436.5 480.5Q500 433 524 352Q536 310 536 263Q536 225 528 187Q507 97 441.5 44.5Q376 -8 279 -8Q184 -8 118.5 43.0Q53 94 32 181ZM343 217Q347 236 347 262Q347 285 342 308Q327 367 279 367Q229 367 216 308Q211 291 211 262Q211 236 215 217Q230 153 279 153Q305 153 321.0 170.5Q337 188 343 217Z" fill="#f0ede8"/></g><g transform="translate(404.00,218.00) scale(0.09000,-0.09000)"><path d="M370 700H528Q535 700 539.0 696.0Q543 692 543 685V15Q543 8 539.0 4.0Q535 0 528 0H370Q363 0 359.0 4.0Q355 8 355 15V45Q355 48 353.0 49.0Q351 50 349 47Q312 -8 233 -8Q166 -8 112.5 34.5Q59 77 37 150Q22 200 22 262Q22 334 44 390Q68 451 119.0 489.5Q170 528 241 528Q314 528 349 482Q351 480 353.0 480.5Q355 481 355 484V685Q355 692 359.0 696.0Q363 700 370 700ZM355 259Q355 307 339 336Q321 367 287 367Q251 367 234 334Q219 306 219 259Q219 214 234 186Q252 153 287 153Q322 153 340 187Q355 216 355 259Z" fill="#f0ede8"/></g><g transform="translate(453.41,218.00) scale(0.09000,-0.09000)"><path d="M346 520H504Q511 520 515.0 516.0Q519 512 519 505V15Q519 8 515.0 4.0Q511 0 504 0H346Q339 0 335.0 4.0Q331 8 331 15V48Q331 51 329.0 52.0Q327 53 325 50Q284 -8 197 -8Q121 -8 76.0 41.5Q31 91 31 179V505Q31 512 35.0 516.0Q39 520 46 520H204Q211 520 215.0 516.0Q219 512 219 505V220Q219 190 234.5 171.5Q250 153 275 153Q297 153 311.5 166.5Q326 180 330 203Q331 205 331 209V505Q331 512 335.0 516.0Q339 520 346 520Z" fill="#f0ede8"/></g><g transform="translate(500.39,218.00) scale(0.09000,-0.09000)"><path d="M33 15V685Q33 692 37.0 696.0Q41 700 48 700H206Q213 700 217.0 696.0Q221 692 221 685V15Q221 8 217.0 4.0Q213 0 206 0H48Q41 0 37.0 4.0Q33 8 33 15Z" fill="#f0ede8"/></g><g transform="translate(520.55,218.00) scale(0.09000,-0.09000)"><path d="M507 355V15Q507 8 503.0 4.0Q499 0 492 0H334Q327 0 323.0 4.0Q319 8 319 15V50Q319 54 317.5 54.5Q316 55 314 52Q297 21 267.0 6.5Q237 -8 188 -8Q106 -8 59.0 29.5Q12 67 12 139Q12 215 65.5 256.0Q119 297 221 297H314Q319 297 319 302V320Q319 341 303.5 354.0Q288 367 262 367Q244 367 230.0 361.0Q216 355 210 345Q206 338 202.5 335.5Q199 333 193 334L32 354Q18 356 18 366Q22 411 54.0 448.0Q86 485 139.5 506.5Q193 528 259 528Q327 528 384.0 505.0Q441 482 474.0 442.0Q507 402 507 355ZM319 185V198Q319 203 314 203H264Q201 203 201 162Q201 144 212.5 133.0Q224 122 246 122Q278 122 298.5 139.0Q319 156 319 185Z" fill="#f0ede8"/></g><g transform="translate(566.45,218.00) scale(0.09000,-0.09000)"><path d="M379 514Q388 509 386 495L362 341Q361 333 356.5 331.0Q352 329 344 331Q326 335 312 335Q297 335 284 332Q258 327 239.5 310.5Q221 294 221 266V15Q221 8 217.0 4.0Q213 0 206 0H48Q41 0 37.0 4.0Q33 8 33 15V505Q33 512 37.0 516.0Q41 520 48 520H206Q213 520 217.0 516.0Q221 512 221 505V481Q221 478 223.0 477.0Q225 476 226 478Q264 527 325 527Q359 527 379 514Z" fill="#f0ede8"/></g><path d="M 78.0,215.4 L 138.3,215.4 L 171.2,194.2 L 204.0,169.6 L 521.0,169.6" fill="none" stroke="#070707" stroke-width="7.4" stroke-linecap="round" stroke-linejoin="round"/><path d="M 78.0,215.4 L 138.3,215.4 L 171.2,194.2 L 204.0,169.6 L 521.0,169.6" fill="none" stroke="#d4001a" stroke-width="2.12" stroke-linecap="round" stroke-linejoin="round"/><path d="M 78.0,215.4 L 138.3,215.4 L 171.2,194.2 L 204.0,169.6 L 521.0,169.6" fill="none" stroke="#ff5533" stroke-width="0.72" stroke-linecap="round" stroke-linejoin="round" opacity="0.7"/><circle cx="78.0" cy="215.4" r="3.4" fill="#0d0d0d" stroke="#d4001a" stroke-width="1.44"/><circle cx="521.0" cy="169.6" r="3.4" fill="#0d0d0d" stroke="#d4001a" stroke-width="1.44"/><circle cx="138.3" cy="215.4" r="2.0" fill="#d4001a"/><circle cx="204.0" cy="169.6" r="2.0" fill="#d4001a"/><g transform="translate(171.170,194.150)"><circle r="27.900" fill="#1c1c1c" stroke="#000000" stroke-width="0.837"/><circle r="23.436" fill="#0a0202"/><g stroke="#a83020" stroke-width="0.558" opacity="0.9"><line x1="-23.436" y1="0" x2="23.436" y2="0"/><line x1="0" y1="-23.436" x2="0" y2="23.436"/></g><g stroke="#7a2018" stroke-width="0.363" opacity="0.6"><line x1="-23.436" y1="-11.718" x2="23.436" y2="-11.718"/><line x1="-11.718" y1="-23.436" x2="-11.718" y2="23.436"/><line x1="-23.436" y1="11.718" x2="23.436" y2="11.718"/><line x1="11.718" y1="-23.436" x2="11.718" y2="23.436"/></g><path d="M 15.62,0.00 L 15.55,0.86 L 15.35,1.71 L 15.00,2.56 L 14.53,3.40 L 13.92,4.22 L 13.19,5.03 L 12.35,5.82 L 11.39,6.59 L 10.33,7.33 L 9.18,8.04 L 7.95,8.71 L 6.65,9.36 L 5.29,9.97 L 3.89,10.53 L 2.44,11.06 L 0.98,11.54 L -0.49,11.98 L -1.96,12.37 L -3.41,12.71 L -4.83,13.00 L -6.21,13.24 L -7.53,13.43 L -8.78,13.56 L -9.96,13.64 L -11.05,13.67 L -12.04,13.64 L -12.92,13.56 L -13.69,13.43 L -14.34,13.24 L -14.86,13.00 L -15.25,12.71 L -15.50,12.37 L -15.62,11.98 L -15.59,11.54 L -15.43,11.06 L -15.13,10.53 L -14.70,9.97 L -14.14,9.36 L -13.45,8.71 L -12.64,8.04 L -11.72,7.33 L -10.70,6.59 L -9.58,5.82 L -8.37,5.03 L -7.09,4.22 L -5.75,3.40 L -4.36,2.56 L -2.93,1.71 L -1.47,0.86 L -0.00,0.00 L 1.47,-0.86 L 2.93,-1.71 L 4.36,-2.56 L 5.75,-3.40 L 7.09,-4.22 L 8.37,-5.03 L 9.58,-5.82 L 10.70,-6.59 L 11.72,-7.33 L 12.64,-8.04 L 13.45,-8.71 L 14.14,-9.36 L 14.70,-9.97 L 15.13,-10.53 L 15.43,-11.06 L 15.59,-11.54 L 15.62,-11.98 L 15.50,-12.37 L 15.25,-12.71 L 14.86,-13.00 L 14.34,-13.24 L 13.69,-13.43 L 12.92,-13.56 L 12.04,-13.64 L 11.05,-13.67 L 9.96,-13.64 L 8.78,-13.56 L 7.53,-13.43 L 6.21,-13.24 L 4.83,-13.00 L 3.41,-12.71 L 1.96,-12.37 L 0.49,-11.98 L -0.98,-11.54 L -2.44,-11.06 L -3.89,-10.53 L -5.29,-9.97 L -6.65,-9.36 L -7.95,-8.71 L -9.18,-8.04 L -10.33,-7.33 L -11.39,-6.59 L -12.35,-5.82 L -13.19,-5.03 L -13.92,-4.22 L -14.53,-3.40 L -15.00,-2.56 L -15.35,-1.71 L -15.55,-0.86 L -15.62,-0.00 L -15.55,0.86 L -15.35,1.71 L -15.00,2.56 L -14.53,3.40 L -13.92,4.22 L -13.19,5.03 L -12.35,5.82 L -11.39,6.59 L -10.33,7.33 L -9.18,8.04 L -7.95,8.71 L -6.65,9.36 L -5.29,9.97 L -3.89,10.53 L -2.44,11.06 L -0.98,11.54 L 0.49,11.98 L 1.96,12.37 L 3.41,12.71 L 4.83,13.00 L 6.21,13.24 L 7.53,13.43 L 8.78,13.56 L 9.96,13.64 L 11.05,13.67 L 12.04,13.64 L 12.92,13.56 L 13.69,13.43 L 14.34,13.24 L 14.86,13.00 L 15.25,12.71 L 15.50,12.37 L 15.62,11.98 L 15.59,11.54 L 15.43,11.06 L 15.13,10.53 L 14.70,9.97 L 14.14,9.36 L 13.45,8.71 L 12.64,8.04 L 11.72,7.33 L 10.70,6.59 L 9.58,5.82 L 8.37,5.03 L 7.09,4.22 L 5.75,3.40 L 4.36,2.56 L 2.93,1.71 L 1.47,0.86 L 0.00,0.00 L -1.47,-0.86 L -2.93,-1.71 L -4.36,-2.56 L -5.75,-3.40 L -7.09,-4.22 L -8.37,-5.03 L -9.58,-5.82 L -10.70,-6.59 L -11.72,-7.33 L -12.64,-8.04 L -13.45,-8.71 L -14.14,-9.36 L -14.70,-9.97 L -15.13,-10.53 L -15.43,-11.06 L -15.59,-11.54 L -15.62,-11.98 L -15.50,-12.37 L -15.25,-12.71 L -14.86,-13.00 L -14.34,-13.24 L -13.69,-13.43 L -12.92,-13.56 L -12.04,-13.64 L -11.05,-13.67 L -9.96,-13.64 L -8.78,-13.56 L -7.53,-13.43 L -6.21,-13.24 L -4.83,-13.00 L -3.41,-12.71 L -1.96,-12.37 L -0.49,-11.98 L 0.98,-11.54 L 2.44,-11.06 L 3.89,-10.53 L 5.29,-9.97 L 6.65,-9.36 L 7.95,-8.71 L 9.18,-8.04 L 10.33,-7.33 L 11.39,-6.59 L 12.35,-5.82 L 13.19,-5.03 L 13.92,-4.22 L 14.53,-3.40 L 15.00,-2.56 L 15.35,-1.71 L 15.55,-0.86 L 15.62,-0.00 Z" fill="none" stroke="#ff2a1a" stroke-width="1.395" stroke-linejoin="round"/><circle r="21.483" fill="none" stroke="#d4001a" stroke-width="1.534"/><circle r="21.483" fill="none" stroke="#ff5533" stroke-width="0.502" opacity="0.7"/><circle r="2.372" fill="#ff3322"/><circle r="1.116" fill="#ffccbb"/></g><circle cx="265.9" cy="213.5" r="4.0" fill="#d4001a"/><circle cx="265.9" cy="213.5" r="1.6" fill="#ff5544"/>
<line x1="40" y1="308" x2="960" y2="308" stroke="#1a1a1a" stroke-width="1"/>
<text x="40" y="336" font-family="monospace" font-size="10" fill="#d4001a" letter-spacing="2" text-anchor="start">02 — PRIMARY LOCKUP · LIGHT</text>
<rect x="40" y="348" width="920" height="168" fill="#f0ede8"/>
<g transform="translate(80.00,448.00) scale(0.09000,-0.09000)"><path d="M370 700H528Q535 700 539.0 696.0Q543 692 543 685V15Q543 8 539.0 4.0Q535 0 528 0H370Q363 0 359.0 4.0Q355 8 355 15V45Q355 48 353.0 49.0Q351 50 349 47Q312 -8 233 -8Q166 -8 112.5 34.5Q59 77 37 150Q22 200 22 262Q22 334 44 390Q68 451 119.0 489.5Q170 528 241 528Q314 528 349 482Q351 480 353.0 480.5Q355 481 355 484V685Q355 692 359.0 696.0Q363 700 370 700ZM355 259Q355 307 339 336Q321 367 287 367Q251 367 234 334Q219 306 219 259Q219 214 234 186Q252 153 287 153Q322 153 340 187Q355 216 355 259Z" fill="#111111"/></g><g transform="translate(212.03,448.00) scale(0.09000,-0.09000)"><path d="M358 370H275Q270 370 270 365V208Q270 158 306 158H343Q350 158 354.0 154.0Q358 150 358 143V15Q358 1 343 -1Q304 -4 268 -4Q177 -4 134.0 24.0Q91 52 90 130V365Q90 370 85 370H31Q24 370 20.0 374.0Q16 378 16 385V505Q16 512 20.0 516.0Q24 520 31 520H85Q90 520 90 525V645Q90 652 94.0 656.0Q98 660 105 660H255Q262 660 266.0 656.0Q270 652 270 645V525Q270 520 275 520H358Q365 520 369.0 516.0Q373 512 373 505V385Q373 378 369.0 374.0Q365 370 358 370Z" fill="#111111"/></g><g transform="translate(283.13,448.00) scale(0.09000,-0.09000)"><path d="M815 341V15Q815 8 811.0 4.0Q807 0 800 0H642Q635 0 631.0 4.0Q627 8 627 15V300Q627 330 612.5 348.5Q598 367 575 367Q551 367 536.0 348.5Q521 330 521 300V15Q521 8 517.0 4.0Q513 0 506 0H348Q341 0 337.0 4.0Q333 8 333 15V300Q333 330 317.5 348.5Q302 367 277 367Q255 367 240.5 353.5Q226 340 222 317Q221 315 221 311V15Q221 8 217.0 4.0Q213 0 206 0H48Q41 0 37.0 4.0Q33 8 33 15V505Q33 512 37.0 516.0Q41 520 48 520H206Q213 520 217.0 516.0Q221 512 221 505V455Q221 451 223.0 451.0Q225 451 227 454Q265 528 355 528Q406 528 444.5 504.5Q483 481 503 437Q506 432 509 438Q529 483 564.5 505.5Q600 528 648 528Q727 528 771.0 479.0Q815 430 815 341Z" fill="#111111"/></g><g transform="translate(356.48,448.00) scale(0.09000,-0.09000)"><path d="M32 181Q22 217 22 261Q22 310 34 350Q58 433 122.5 480.5Q187 528 280 528Q373 528 436.5 480.5Q500 433 524 352Q536 310 536 263Q536 225 528 187Q507 97 441.5 44.5Q376 -8 279 -8Q184 -8 118.5 43.0Q53 94 32 181ZM343 217Q347 236 347 262Q347 285 342 308Q327 367 279 367Q229 367 216 308Q211 291 211 262Q211 236 215 217Q230 153 279 153Q305 153 321.0 170.5Q337 188 343 217Z" fill="#111111"/></g><g transform="translate(404.00,448.00) scale(0.09000,-0.09000)"><path d="M370 700H528Q535 700 539.0 696.0Q543 692 543 685V15Q543 8 539.0 4.0Q535 0 528 0H370Q363 0 359.0 4.0Q355 8 355 15V45Q355 48 353.0 49.0Q351 50 349 47Q312 -8 233 -8Q166 -8 112.5 34.5Q59 77 37 150Q22 200 22 262Q22 334 44 390Q68 451 119.0 489.5Q170 528 241 528Q314 528 349 482Q351 480 353.0 480.5Q355 481 355 484V685Q355 692 359.0 696.0Q363 700 370 700ZM355 259Q355 307 339 336Q321 367 287 367Q251 367 234 334Q219 306 219 259Q219 214 234 186Q252 153 287 153Q322 153 340 187Q355 216 355 259Z" fill="#111111"/></g><g transform="translate(453.41,448.00) scale(0.09000,-0.09000)"><path d="M346 520H504Q511 520 515.0 516.0Q519 512 519 505V15Q519 8 515.0 4.0Q511 0 504 0H346Q339 0 335.0 4.0Q331 8 331 15V48Q331 51 329.0 52.0Q327 53 325 50Q284 -8 197 -8Q121 -8 76.0 41.5Q31 91 31 179V505Q31 512 35.0 516.0Q39 520 46 520H204Q211 520 215.0 516.0Q219 512 219 505V220Q219 190 234.5 171.5Q250 153 275 153Q297 153 311.5 166.5Q326 180 330 203Q331 205 331 209V505Q331 512 335.0 516.0Q339 520 346 520Z" fill="#111111"/></g><g transform="translate(500.39,448.00) scale(0.09000,-0.09000)"><path d="M33 15V685Q33 692 37.0 696.0Q41 700 48 700H206Q213 700 217.0 696.0Q221 692 221 685V15Q221 8 217.0 4.0Q213 0 206 0H48Q41 0 37.0 4.0Q33 8 33 15Z" fill="#111111"/></g><g transform="translate(520.55,448.00) scale(0.09000,-0.09000)"><path d="M507 355V15Q507 8 503.0 4.0Q499 0 492 0H334Q327 0 323.0 4.0Q319 8 319 15V50Q319 54 317.5 54.5Q316 55 314 52Q297 21 267.0 6.5Q237 -8 188 -8Q106 -8 59.0 29.5Q12 67 12 139Q12 215 65.5 256.0Q119 297 221 297H314Q319 297 319 302V320Q319 341 303.5 354.0Q288 367 262 367Q244 367 230.0 361.0Q216 355 210 345Q206 338 202.5 335.5Q199 333 193 334L32 354Q18 356 18 366Q22 411 54.0 448.0Q86 485 139.5 506.5Q193 528 259 528Q327 528 384.0 505.0Q441 482 474.0 442.0Q507 402 507 355ZM319 185V198Q319 203 314 203H264Q201 203 201 162Q201 144 212.5 133.0Q224 122 246 122Q278 122 298.5 139.0Q319 156 319 185Z" fill="#111111"/></g><g transform="translate(566.45,448.00) scale(0.09000,-0.09000)"><path d="M379 514Q388 509 386 495L362 341Q361 333 356.5 331.0Q352 329 344 331Q326 335 312 335Q297 335 284 332Q258 327 239.5 310.5Q221 294 221 266V15Q221 8 217.0 4.0Q213 0 206 0H48Q41 0 37.0 4.0Q33 8 33 15V505Q33 512 37.0 516.0Q41 520 48 520H206Q213 520 217.0 516.0Q221 512 221 505V481Q221 478 223.0 477.0Q225 476 226 478Q264 527 325 527Q359 527 379 514Z" fill="#111111"/></g><path d="M 78.0,445.4 L 138.3,445.4 L 171.2,424.1 L 204.0,399.6 L 521.0,399.6" fill="none" stroke="#f0ede8" stroke-width="7.4" stroke-linecap="round" stroke-linejoin="round"/><path d="M 78.0,445.4 L 138.3,445.4 L 171.2,424.1 L 204.0,399.6 L 521.0,399.6" fill="none" stroke="#d4001a" stroke-width="2.12" stroke-linecap="round" stroke-linejoin="round"/><path d="M 78.0,445.4 L 138.3,445.4 L 171.2,424.1 L 204.0,399.6 L 521.0,399.6" fill="none" stroke="#ff5533" stroke-width="0.72" stroke-linecap="round" stroke-linejoin="round" opacity="0.7"/><circle cx="78.0" cy="445.4" r="3.4" fill="#0d0d0d" stroke="#d4001a" stroke-width="1.44"/><circle cx="521.0" cy="399.6" r="3.4" fill="#0d0d0d" stroke="#d4001a" stroke-width="1.44"/><circle cx="138.3" cy="445.4" r="2.0" fill="#d4001a"/><circle cx="204.0" cy="399.6" r="2.0" fill="#d4001a"/><g transform="translate(171.170,424.150)"><circle r="27.900" fill="#1c1c1c" stroke="#000000" stroke-width="0.837"/><circle r="23.436" fill="#0a0202"/><g stroke="#a83020" stroke-width="0.558" opacity="0.9"><line x1="-23.436" y1="0" x2="23.436" y2="0"/><line x1="0" y1="-23.436" x2="0" y2="23.436"/></g><g stroke="#7a2018" stroke-width="0.363" opacity="0.6"><line x1="-23.436" y1="-11.718" x2="23.436" y2="-11.718"/><line x1="-11.718" y1="-23.436" x2="-11.718" y2="23.436"/><line x1="-23.436" y1="11.718" x2="23.436" y2="11.718"/><line x1="11.718" y1="-23.436" x2="11.718" y2="23.436"/></g><path d="M 15.62,0.00 L 15.55,0.86 L 15.35,1.71 L 15.00,2.56 L 14.53,3.40 L 13.92,4.22 L 13.19,5.03 L 12.35,5.82 L 11.39,6.59 L 10.33,7.33 L 9.18,8.04 L 7.95,8.71 L 6.65,9.36 L 5.29,9.97 L 3.89,10.53 L 2.44,11.06 L 0.98,11.54 L -0.49,11.98 L -1.96,12.37 L -3.41,12.71 L -4.83,13.00 L -6.21,13.24 L -7.53,13.43 L -8.78,13.56 L -9.96,13.64 L -11.05,13.67 L -12.04,13.64 L -12.92,13.56 L -13.69,13.43 L -14.34,13.24 L -14.86,13.00 L -15.25,12.71 L -15.50,12.37 L -15.62,11.98 L -15.59,11.54 L -15.43,11.06 L -15.13,10.53 L -14.70,9.97 L -14.14,9.36 L -13.45,8.71 L -12.64,8.04 L -11.72,7.33 L -10.70,6.59 L -9.58,5.82 L -8.37,5.03 L -7.09,4.22 L -5.75,3.40 L -4.36,2.56 L -2.93,1.71 L -1.47,0.86 L -0.00,0.00 L 1.47,-0.86 L 2.93,-1.71 L 4.36,-2.56 L 5.75,-3.40 L 7.09,-4.22 L 8.37,-5.03 L 9.58,-5.82 L 10.70,-6.59 L 11.72,-7.33 L 12.64,-8.04 L 13.45,-8.71 L 14.14,-9.36 L 14.70,-9.97 L 15.13,-10.53 L 15.43,-11.06 L 15.59,-11.54 L 15.62,-11.98 L 15.50,-12.37 L 15.25,-12.71 L 14.86,-13.00 L 14.34,-13.24 L 13.69,-13.43 L 12.92,-13.56 L 12.04,-13.64 L 11.05,-13.67 L 9.96,-13.64 L 8.78,-13.56 L 7.53,-13.43 L 6.21,-13.24 L 4.83,-13.00 L 3.41,-12.71 L 1.96,-12.37 L 0.49,-11.98 L -0.98,-11.54 L -2.44,-11.06 L -3.89,-10.53 L -5.29,-9.97 L -6.65,-9.36 L -7.95,-8.71 L -9.18,-8.04 L -10.33,-7.33 L -11.39,-6.59 L -12.35,-5.82 L -13.19,-5.03 L -13.92,-4.22 L -14.53,-3.40 L -15.00,-2.56 L -15.35,-1.71 L -15.55,-0.86 L -15.62,-0.00 L -15.55,0.86 L -15.35,1.71 L -15.00,2.56 L -14.53,3.40 L -13.92,4.22 L -13.19,5.03 L -12.35,5.82 L -11.39,6.59 L -10.33,7.33 L -9.18,8.04 L -7.95,8.71 L -6.65,9.36 L -5.29,9.97 L -3.89,10.53 L -2.44,11.06 L -0.98,11.54 L 0.49,11.98 L 1.96,12.37 L 3.41,12.71 L 4.83,13.00 L 6.21,13.24 L 7.53,13.43 L 8.78,13.56 L 9.96,13.64 L 11.05,13.67 L 12.04,13.64 L 12.92,13.56 L 13.69,13.43 L 14.34,13.24 L 14.86,13.00 L 15.25,12.71 L 15.50,12.37 L 15.62,11.98 L 15.59,11.54 L 15.43,11.06 L 15.13,10.53 L 14.70,9.97 L 14.14,9.36 L 13.45,8.71 L 12.64,8.04 L 11.72,7.33 L 10.70,6.59 L 9.58,5.82 L 8.37,5.03 L 7.09,4.22 L 5.75,3.40 L 4.36,2.56 L 2.93,1.71 L 1.47,0.86 L 0.00,0.00 L -1.47,-0.86 L -2.93,-1.71 L -4.36,-2.56 L -5.75,-3.40 L -7.09,-4.22 L -8.37,-5.03 L -9.58,-5.82 L -10.70,-6.59 L -11.72,-7.33 L -12.64,-8.04 L -13.45,-8.71 L -14.14,-9.36 L -14.70,-9.97 L -15.13,-10.53 L -15.43,-11.06 L -15.59,-11.54 L -15.62,-11.98 L -15.50,-12.37 L -15.25,-12.71 L -14.86,-13.00 L -14.34,-13.24 L -13.69,-13.43 L -12.92,-13.56 L -12.04,-13.64 L -11.05,-13.67 L -9.96,-13.64 L -8.78,-13.56 L -7.53,-13.43 L -6.21,-13.24 L -4.83,-13.00 L -3.41,-12.71 L -1.96,-12.37 L -0.49,-11.98 L 0.98,-11.54 L 2.44,-11.06 L 3.89,-10.53 L 5.29,-9.97 L 6.65,-9.36 L 7.95,-8.71 L 9.18,-8.04 L 10.33,-7.33 L 11.39,-6.59 L 12.35,-5.82 L 13.19,-5.03 L 13.92,-4.22 L 14.53,-3.40 L 15.00,-2.56 L 15.35,-1.71 L 15.55,-0.86 L 15.62,-0.00 Z" fill="none" stroke="#ff2a1a" stroke-width="1.395" stroke-linejoin="round"/><circle r="21.483" fill="none" stroke="#d4001a" stroke-width="1.534"/><circle r="21.483" fill="none" stroke="#ff5533" stroke-width="0.502" opacity="0.7"/><circle r="2.372" fill="#ff3322"/><circle r="1.116" fill="#ffccbb"/></g><circle cx="265.9" cy="443.5" r="4.0" fill="#d4001a"/><circle cx="265.9" cy="443.5" r="1.6" fill="#ff5544"/>
<line x1="40" y1="538" x2="960" y2="538" stroke="#1a1a1a" stroke-width="1"/>
<text x="40" y="566" font-family="monospace" font-size="10" fill="#d4001a" letter-spacing="2" text-anchor="start">03 — THE MARK · scales hero to favicon</text>
<g transform="translate(130.000,646.000)"><circle r="56.000" fill="#1c1c1c" stroke="#000000" stroke-width="1.680"/><circle r="47.040" fill="#0a0202"/><g stroke="#a83020" stroke-width="1.120" opacity="0.9"><line x1="-47.040" y1="0" x2="47.040" y2="0"/><line x1="0" y1="-47.040" x2="0" y2="47.040"/></g><g stroke="#7a2018" stroke-width="0.728" opacity="0.6"><line x1="-47.040" y1="-23.520" x2="47.040" y2="-23.520"/><line x1="-23.520" y1="-47.040" x2="-23.520" y2="47.040"/><line x1="-47.040" y1="23.520" x2="47.040" y2="23.520"/><line x1="23.520" y1="-47.040" x2="23.520" y2="47.040"/></g><path d="M 31.36,0.00 L 31.22,1.72 L 30.80,3.44 L 30.11,5.14 L 29.16,6.82 L 27.94,8.48 L 26.48,10.10 L 24.78,11.68 L 22.86,13.22 L 20.74,14.70 L 18.43,16.13 L 15.96,17.49 L 13.35,18.78 L 10.62,20.00 L 7.80,21.14 L 4.91,22.20 L 1.97,23.17 L -0.99,24.05 L -3.93,24.83 L -6.84,25.51 L -9.69,26.10 L -12.45,26.58 L -15.11,26.95 L -17.63,27.22 L -19.99,27.39 L -22.17,27.44 L -24.16,27.39 L -25.94,27.22 L -27.48,26.95 L -28.78,26.58 L -29.83,26.10 L -30.60,25.51 L -31.11,24.83 L -31.34,24.05 L -31.30,23.17 L -30.97,22.20 L -30.37,21.14 L -29.51,20.00 L -28.38,18.78 L -26.99,17.49 L -25.37,16.13 L -23.52,14.70 L -21.47,13.22 L -19.22,11.68 L -16.80,10.10 L -14.24,8.48 L -11.54,6.82 L -8.75,5.14 L -5.88,3.44 L -2.95,1.72 L -0.00,0.00 L 2.95,-1.72 L 5.88,-3.44 L 8.75,-5.14 L 11.54,-6.82 L 14.24,-8.48 L 16.80,-10.10 L 19.22,-11.68 L 21.47,-13.22 L 23.52,-14.70 L 25.37,-16.13 L 26.99,-17.49 L 28.38,-18.78 L 29.51,-20.00 L 30.37,-21.14 L 30.97,-22.20 L 31.30,-23.17 L 31.34,-24.05 L 31.11,-24.83 L 30.60,-25.51 L 29.83,-26.10 L 28.78,-26.58 L 27.48,-26.95 L 25.94,-27.22 L 24.16,-27.39 L 22.17,-27.44 L 19.99,-27.39 L 17.63,-27.22 L 15.11,-26.95 L 12.45,-26.58 L 9.69,-26.10 L 6.84,-25.51 L 3.93,-24.83 L 0.99,-24.05 L -1.97,-23.17 L -4.91,-22.20 L -7.80,-21.14 L -10.62,-20.00 L -13.35,-18.78 L -15.96,-17.49 L -18.43,-16.13 L -20.74,-14.70 L -22.86,-13.22 L -24.78,-11.68 L -26.48,-10.10 L -27.94,-8.48 L -29.16,-6.82 L -30.11,-5.14 L -30.80,-3.44 L -31.22,-1.72 L -31.36,-0.00 L -31.22,1.72 L -30.80,3.44 L -30.11,5.14 L -29.16,6.82 L -27.94,8.48 L -26.48,10.10 L -24.78,11.68 L -22.86,13.22 L -20.74,14.70 L -18.43,16.13 L -15.96,17.49 L -13.35,18.78 L -10.62,20.00 L -7.80,21.14 L -4.91,22.20 L -1.97,23.17 L 0.99,24.05 L 3.93,24.83 L 6.84,25.51 L 9.69,26.10 L 12.45,26.58 L 15.11,26.95 L 17.63,27.22 L 19.99,27.39 L 22.17,27.44 L 24.16,27.39 L 25.94,27.22 L 27.48,26.95 L 28.78,26.58 L 29.83,26.10 L 30.60,25.51 L 31.11,24.83 L 31.34,24.05 L 31.30,23.17 L 30.97,22.20 L 30.37,21.14 L 29.51,20.00 L 28.38,18.78 L 26.99,17.49 L 25.37,16.13 L 23.52,14.70 L 21.47,13.22 L 19.22,11.68 L 16.80,10.10 L 14.24,8.48 L 11.54,6.82 L 8.75,5.14 L 5.88,3.44 L 2.95,1.72 L 0.00,0.00 L -2.95,-1.72 L -5.88,-3.44 L -8.75,-5.14 L -11.54,-6.82 L -14.24,-8.48 L -16.80,-10.10 L -19.22,-11.68 L -21.47,-13.22 L -23.52,-14.70 L -25.37,-16.13 L -26.99,-17.49 L -28.38,-18.78 L -29.51,-20.00 L -30.37,-21.14 L -30.97,-22.20 L -31.30,-23.17 L -31.34,-24.05 L -31.11,-24.83 L -30.60,-25.51 L -29.83,-26.10 L -28.78,-26.58 L -27.48,-26.95 L -25.94,-27.22 L -24.16,-27.39 L -22.17,-27.44 L -19.99,-27.39 L -17.63,-27.22 L -15.11,-26.95 L -12.45,-26.58 L -9.69,-26.10 L -6.84,-25.51 L -3.93,-24.83 L -0.99,-24.05 L 1.97,-23.17 L 4.91,-22.20 L 7.80,-21.14 L 10.62,-20.00 L 13.35,-18.78 L 15.96,-17.49 L 18.43,-16.13 L 20.74,-14.70 L 22.86,-13.22 L 24.78,-11.68 L 26.48,-10.10 L 27.94,-8.48 L 29.16,-6.82 L 30.11,-5.14 L 30.80,-3.44 L 31.22,-1.72 L 31.36,-0.00 Z" fill="none" stroke="#ff2a1a" stroke-width="2.800" stroke-linejoin="round"/><circle r="43.120" fill="none" stroke="#d4001a" stroke-width="3.080"/><circle r="43.120" fill="none" stroke="#ff5533" stroke-width="1.008" opacity="0.7"/><circle r="4.760" fill="#ff3322"/><circle r="2.240" fill="#ffccbb"/></g>
<text x="130" y="718" font-family="monospace" font-size="8" fill="#555" letter-spacing="2" text-anchor="middle">HERO</text>
<g transform="translate(250.000,646.000)"><circle r="32.000" fill="#1c1c1c" stroke="#000000" stroke-width="0.960"/><circle r="26.880" fill="#0a0202"/><g stroke="#a83020" stroke-width="0.640" opacity="0.9"><line x1="-26.880" y1="0" x2="26.880" y2="0"/><line x1="0" y1="-26.880" x2="0" y2="26.880"/></g><g stroke="#7a2018" stroke-width="0.416" opacity="0.6"><line x1="-26.880" y1="-13.440" x2="26.880" y2="-13.440"/><line x1="-13.440" y1="-26.880" x2="-13.440" y2="26.880"/><line x1="-26.880" y1="13.440" x2="26.880" y2="13.440"/><line x1="13.440" y1="-26.880" x2="13.440" y2="26.880"/></g><path d="M 17.92,0.00 L 17.84,0.98 L 17.60,1.97 L 17.21,2.94 L 16.66,3.90 L 15.97,4.85 L 15.13,5.77 L 14.16,6.68 L 13.06,7.55 L 11.85,8.40 L 10.53,9.22 L 9.12,9.99 L 7.63,10.73 L 6.07,11.43 L 4.46,12.08 L 2.80,12.69 L 1.13,13.24 L -0.56,13.74 L -2.25,14.19 L -3.91,14.58 L -5.54,14.91 L -7.12,15.19 L -8.63,15.40 L -10.07,15.56 L -11.42,15.65 L -12.67,15.68 L -13.81,15.65 L -14.82,15.56 L -15.70,15.40 L -16.45,15.19 L -17.04,14.91 L -17.49,14.58 L -17.78,14.19 L -17.91,13.74 L -17.88,13.24 L -17.70,12.69 L -17.36,12.08 L -16.86,11.43 L -16.21,10.73 L -15.42,9.99 L -14.50,9.22 L -13.44,8.40 L -12.27,7.55 L -10.98,6.68 L -9.60,5.77 L -8.14,4.85 L -6.60,3.90 L -5.00,2.94 L -3.36,1.97 L -1.69,0.98 L -0.00,0.00 L 1.69,-0.98 L 3.36,-1.97 L 5.00,-2.94 L 6.60,-3.90 L 8.14,-4.85 L 9.60,-5.77 L 10.98,-6.68 L 12.27,-7.55 L 13.44,-8.40 L 14.50,-9.22 L 15.42,-9.99 L 16.21,-10.73 L 16.86,-11.43 L 17.36,-12.08 L 17.70,-12.69 L 17.88,-13.24 L 17.91,-13.74 L 17.78,-14.19 L 17.49,-14.58 L 17.04,-14.91 L 16.45,-15.19 L 15.70,-15.40 L 14.82,-15.56 L 13.81,-15.65 L 12.67,-15.68 L 11.42,-15.65 L 10.07,-15.56 L 8.63,-15.40 L 7.12,-15.19 L 5.54,-14.91 L 3.91,-14.58 L 2.25,-14.19 L 0.56,-13.74 L -1.13,-13.24 L -2.80,-12.69 L -4.46,-12.08 L -6.07,-11.43 L -7.63,-10.73 L -9.12,-9.99 L -10.53,-9.22 L -11.85,-8.40 L -13.06,-7.55 L -14.16,-6.68 L -15.13,-5.77 L -15.97,-4.85 L -16.66,-3.90 L -17.21,-2.94 L -17.60,-1.97 L -17.84,-0.98 L -17.92,-0.00 L -17.84,0.98 L -17.60,1.97 L -17.21,2.94 L -16.66,3.90 L -15.97,4.85 L -15.13,5.77 L -14.16,6.68 L -13.06,7.55 L -11.85,8.40 L -10.53,9.22 L -9.12,9.99 L -7.63,10.73 L -6.07,11.43 L -4.46,12.08 L -2.80,12.69 L -1.13,13.24 L 0.56,13.74 L 2.25,14.19 L 3.91,14.58 L 5.54,14.91 L 7.12,15.19 L 8.63,15.40 L 10.07,15.56 L 11.42,15.65 L 12.67,15.68 L 13.81,15.65 L 14.82,15.56 L 15.70,15.40 L 16.45,15.19 L 17.04,14.91 L 17.49,14.58 L 17.78,14.19 L 17.91,13.74 L 17.88,13.24 L 17.70,12.69 L 17.36,12.08 L 16.86,11.43 L 16.21,10.73 L 15.42,9.99 L 14.50,9.22 L 13.44,8.40 L 12.27,7.55 L 10.98,6.68 L 9.60,5.77 L 8.14,4.85 L 6.60,3.90 L 5.00,2.94 L 3.36,1.97 L 1.69,0.98 L 0.00,0.00 L -1.69,-0.98 L -3.36,-1.97 L -5.00,-2.94 L -6.60,-3.90 L -8.14,-4.85 L -9.60,-5.77 L -10.98,-6.68 L -12.27,-7.55 L -13.44,-8.40 L -14.50,-9.22 L -15.42,-9.99 L -16.21,-10.73 L -16.86,-11.43 L -17.36,-12.08 L -17.70,-12.69 L -17.88,-13.24 L -17.91,-13.74 L -17.78,-14.19 L -17.49,-14.58 L -17.04,-14.91 L -16.45,-15.19 L -15.70,-15.40 L -14.82,-15.56 L -13.81,-15.65 L -12.67,-15.68 L -11.42,-15.65 L -10.07,-15.56 L -8.63,-15.40 L -7.12,-15.19 L -5.54,-14.91 L -3.91,-14.58 L -2.25,-14.19 L -0.56,-13.74 L 1.13,-13.24 L 2.80,-12.69 L 4.46,-12.08 L 6.07,-11.43 L 7.63,-10.73 L 9.12,-9.99 L 10.53,-9.22 L 11.85,-8.40 L 13.06,-7.55 L 14.16,-6.68 L 15.13,-5.77 L 15.97,-4.85 L 16.66,-3.90 L 17.21,-2.94 L 17.60,-1.97 L 17.84,-0.98 L 17.92,-0.00 Z" fill="none" stroke="#ff2a1a" stroke-width="1.600" stroke-linejoin="round"/><circle r="24.640" fill="none" stroke="#d4001a" stroke-width="1.760"/><circle r="24.640" fill="none" stroke="#ff5533" stroke-width="0.576" opacity="0.7"/><circle r="2.720" fill="#ff3322"/><circle r="1.280" fill="#ffccbb"/></g>
<text x="250" y="718" font-family="monospace" font-size="8" fill="#555" letter-spacing="2" text-anchor="middle">STANDARD</text>
<g transform="translate(340.000,646.000)"><circle r="18.000" fill="#1c1c1c" stroke="#000000" stroke-width="0.540"/><circle r="15.120" fill="#0a0202"/><g stroke="#a83020" stroke-width="0.360" opacity="0.9"><line x1="-15.120" y1="0" x2="15.120" y2="0"/><line x1="0" y1="-15.120" x2="0" y2="15.120"/></g><g stroke="#7a2018" stroke-width="0.234" opacity="0.6"><line x1="-15.120" y1="-7.560" x2="15.120" y2="-7.560"/><line x1="-7.560" y1="-15.120" x2="-7.560" y2="15.120"/><line x1="-15.120" y1="7.560" x2="15.120" y2="7.560"/><line x1="7.560" y1="-15.120" x2="7.560" y2="15.120"/></g><path d="M 10.08,0.00 L 10.04,0.55 L 9.90,1.11 L 9.68,1.65 L 9.37,2.19 L 8.98,2.73 L 8.51,3.25 L 7.96,3.76 L 7.35,4.25 L 6.67,4.73 L 5.92,5.18 L 5.13,5.62 L 4.29,6.04 L 3.41,6.43 L 2.51,6.80 L 1.58,7.14 L 0.63,7.45 L -0.32,7.73 L -1.26,7.98 L -2.20,8.20 L -3.11,8.39 L -4.00,8.54 L -4.86,8.66 L -5.67,8.75 L -6.43,8.80 L -7.13,8.82 L -7.77,8.80 L -8.34,8.75 L -8.83,8.66 L -9.25,8.54 L -9.59,8.39 L -9.84,8.20 L -10.00,7.98 L -10.08,7.73 L -10.06,7.45 L -9.96,7.14 L -9.76,6.80 L -9.48,6.43 L -9.12,6.04 L -8.68,5.62 L -8.15,5.18 L -7.56,4.73 L -6.90,4.25 L -6.18,3.76 L -5.40,3.25 L -4.58,2.73 L -3.71,2.19 L -2.81,1.65 L -1.89,1.11 L -0.95,0.55 L -0.00,0.00 L 0.95,-0.55 L 1.89,-1.11 L 2.81,-1.65 L 3.71,-2.19 L 4.58,-2.73 L 5.40,-3.25 L 6.18,-3.76 L 6.90,-4.25 L 7.56,-4.73 L 8.15,-5.18 L 8.68,-5.62 L 9.12,-6.04 L 9.48,-6.43 L 9.76,-6.80 L 9.96,-7.14 L 10.06,-7.45 L 10.08,-7.73 L 10.00,-7.98 L 9.84,-8.20 L 9.59,-8.39 L 9.25,-8.54 L 8.83,-8.66 L 8.34,-8.75 L 7.77,-8.80 L 7.13,-8.82 L 6.43,-8.80 L 5.67,-8.75 L 4.86,-8.66 L 4.00,-8.54 L 3.11,-8.39 L 2.20,-8.20 L 1.26,-7.98 L 0.32,-7.73 L -0.63,-7.45 L -1.58,-7.14 L -2.51,-6.80 L -3.41,-6.43 L -4.29,-6.04 L -5.13,-5.62 L -5.92,-5.18 L -6.67,-4.73 L -7.35,-4.25 L -7.96,-3.76 L -8.51,-3.25 L -8.98,-2.73 L -9.37,-2.19 L -9.68,-1.65 L -9.90,-1.11 L -10.04,-0.55 L -10.08,-0.00 L -10.04,0.55 L -9.90,1.11 L -9.68,1.65 L -9.37,2.19 L -8.98,2.73 L -8.51,3.25 L -7.96,3.76 L -7.35,4.25 L -6.67,4.73 L -5.92,5.18 L -5.13,5.62 L -4.29,6.04 L -3.41,6.43 L -2.51,6.80 L -1.58,7.14 L -0.63,7.45 L 0.32,7.73 L 1.26,7.98 L 2.20,8.20 L 3.11,8.39 L 4.00,8.54 L 4.86,8.66 L 5.67,8.75 L 6.43,8.80 L 7.13,8.82 L 7.77,8.80 L 8.34,8.75 L 8.83,8.66 L 9.25,8.54 L 9.59,8.39 L 9.84,8.20 L 10.00,7.98 L 10.08,7.73 L 10.06,7.45 L 9.96,7.14 L 9.76,6.80 L 9.48,6.43 L 9.12,6.04 L 8.68,5.62 L 8.15,5.18 L 7.56,4.73 L 6.90,4.25 L 6.18,3.76 L 5.40,3.25 L 4.58,2.73 L 3.71,2.19 L 2.81,1.65 L 1.89,1.11 L 0.95,0.55 L 0.00,0.00 L -0.95,-0.55 L -1.89,-1.11 L -2.81,-1.65 L -3.71,-2.19 L -4.58,-2.73 L -5.40,-3.25 L -6.18,-3.76 L -6.90,-4.25 L -7.56,-4.73 L -8.15,-5.18 L -8.68,-5.62 L -9.12,-6.04 L -9.48,-6.43 L -9.76,-6.80 L -9.96,-7.14 L -10.06,-7.45 L -10.08,-7.73 L -10.00,-7.98 L -9.84,-8.20 L -9.59,-8.39 L -9.25,-8.54 L -8.83,-8.66 L -8.34,-8.75 L -7.77,-8.80 L -7.13,-8.82 L -6.43,-8.80 L -5.67,-8.75 L -4.86,-8.66 L -4.00,-8.54 L -3.11,-8.39 L -2.20,-8.20 L -1.26,-7.98 L -0.32,-7.73 L 0.63,-7.45 L 1.58,-7.14 L 2.51,-6.80 L 3.41,-6.43 L 4.29,-6.04 L 5.13,-5.62 L 5.92,-5.18 L 6.67,-4.73 L 7.35,-4.25 L 7.96,-3.76 L 8.51,-3.25 L 8.98,-2.73 L 9.37,-2.19 L 9.68,-1.65 L 9.90,-1.11 L 10.04,-0.55 L 10.08,-0.00 Z" fill="none" stroke="#ff2a1a" stroke-width="0.900" stroke-linejoin="round"/><circle r="13.860" fill="none" stroke="#d4001a" stroke-width="0.990"/><circle r="13.860" fill="none" stroke="#ff5533" stroke-width="0.324" opacity="0.7"/><circle r="1.530" fill="#ff3322"/><circle r="0.720" fill="#ffccbb"/></g>
<text x="340" y="718" font-family="monospace" font-size="8" fill="#555" letter-spacing="2" text-anchor="middle">SMALL</text>
<g transform="translate(408.000,646.000)"><circle r="11.000" fill="#1c1c1c" stroke="#000000" stroke-width="0.330"/><circle r="9.240" fill="#0a0202"/><g stroke="#a83020" stroke-width="0.220" opacity="0.9"><line x1="-9.240" y1="0" x2="9.240" y2="0"/><line x1="0" y1="-9.240" x2="0" y2="9.240"/></g><g stroke="#7a2018" stroke-width="0.143" opacity="0.6"><line x1="-9.240" y1="-4.620" x2="9.240" y2="-4.620"/><line x1="-4.620" y1="-9.240" x2="-4.620" y2="9.240"/><line x1="-9.240" y1="4.620" x2="9.240" y2="4.620"/><line x1="4.620" y1="-9.240" x2="4.620" y2="9.240"/></g><path d="M 6.16,0.00 L 6.13,0.34 L 6.05,0.68 L 5.92,1.01 L 5.73,1.34 L 5.49,1.67 L 5.20,1.98 L 4.87,2.29 L 4.49,2.60 L 4.07,2.89 L 3.62,3.17 L 3.14,3.44 L 2.62,3.69 L 2.09,3.93 L 1.53,4.15 L 0.96,4.36 L 0.39,4.55 L -0.19,4.72 L -0.77,4.88 L -1.34,5.01 L -1.90,5.13 L -2.45,5.22 L -2.97,5.29 L -3.46,5.35 L -3.93,5.38 L -4.36,5.39 L -4.75,5.38 L -5.09,5.35 L -5.40,5.29 L -5.65,5.22 L -5.86,5.13 L -6.01,5.01 L -6.11,4.88 L -6.16,4.72 L -6.15,4.55 L -6.08,4.36 L -5.97,4.15 L -5.80,3.93 L -5.57,3.69 L -5.30,3.44 L -4.98,3.17 L -4.62,2.89 L -4.22,2.60 L -3.78,2.29 L -3.30,1.98 L -2.80,1.67 L -2.27,1.34 L -1.72,1.01 L -1.15,0.68 L -0.58,0.34 L -0.00,0.00 L 0.58,-0.34 L 1.15,-0.68 L 1.72,-1.01 L 2.27,-1.34 L 2.80,-1.67 L 3.30,-1.98 L 3.78,-2.29 L 4.22,-2.60 L 4.62,-2.89 L 4.98,-3.17 L 5.30,-3.44 L 5.57,-3.69 L 5.80,-3.93 L 5.97,-4.15 L 6.08,-4.36 L 6.15,-4.55 L 6.16,-4.72 L 6.11,-4.88 L 6.01,-5.01 L 5.86,-5.13 L 5.65,-5.22 L 5.40,-5.29 L 5.09,-5.35 L 4.75,-5.38 L 4.36,-5.39 L 3.93,-5.38 L 3.46,-5.35 L 2.97,-5.29 L 2.45,-5.22 L 1.90,-5.13 L 1.34,-5.01 L 0.77,-4.88 L 0.19,-4.72 L -0.39,-4.55 L -0.96,-4.36 L -1.53,-4.15 L -2.09,-3.93 L -2.62,-3.69 L -3.14,-3.44 L -3.62,-3.17 L -4.07,-2.89 L -4.49,-2.60 L -4.87,-2.29 L -5.20,-1.98 L -5.49,-1.67 L -5.73,-1.34 L -5.92,-1.01 L -6.05,-0.68 L -6.13,-0.34 L -6.16,-0.00 L -6.13,0.34 L -6.05,0.68 L -5.92,1.01 L -5.73,1.34 L -5.49,1.67 L -5.20,1.98 L -4.87,2.29 L -4.49,2.60 L -4.07,2.89 L -3.62,3.17 L -3.14,3.44 L -2.62,3.69 L -2.09,3.93 L -1.53,4.15 L -0.96,4.36 L -0.39,4.55 L 0.19,4.72 L 0.77,4.88 L 1.34,5.01 L 1.90,5.13 L 2.45,5.22 L 2.97,5.29 L 3.46,5.35 L 3.93,5.38 L 4.36,5.39 L 4.75,5.38 L 5.09,5.35 L 5.40,5.29 L 5.65,5.22 L 5.86,5.13 L 6.01,5.01 L 6.11,4.88 L 6.16,4.72 L 6.15,4.55 L 6.08,4.36 L 5.97,4.15 L 5.80,3.93 L 5.57,3.69 L 5.30,3.44 L 4.98,3.17 L 4.62,2.89 L 4.22,2.60 L 3.78,2.29 L 3.30,1.98 L 2.80,1.67 L 2.27,1.34 L 1.72,1.01 L 1.15,0.68 L 0.58,0.34 L 0.00,0.00 L -0.58,-0.34 L -1.15,-0.68 L -1.72,-1.01 L -2.27,-1.34 L -2.80,-1.67 L -3.30,-1.98 L -3.78,-2.29 L -4.22,-2.60 L -4.62,-2.89 L -4.98,-3.17 L -5.30,-3.44 L -5.57,-3.69 L -5.80,-3.93 L -5.97,-4.15 L -6.08,-4.36 L -6.15,-4.55 L -6.16,-4.72 L -6.11,-4.88 L -6.01,-5.01 L -5.86,-5.13 L -5.65,-5.22 L -5.40,-5.29 L -5.09,-5.35 L -4.75,-5.38 L -4.36,-5.39 L -3.93,-5.38 L -3.46,-5.35 L -2.97,-5.29 L -2.45,-5.22 L -1.90,-5.13 L -1.34,-5.01 L -0.77,-4.88 L -0.19,-4.72 L 0.39,-4.55 L 0.96,-4.36 L 1.53,-4.15 L 2.09,-3.93 L 2.62,-3.69 L 3.14,-3.44 L 3.62,-3.17 L 4.07,-2.89 L 4.49,-2.60 L 4.87,-2.29 L 5.20,-1.98 L 5.49,-1.67 L 5.73,-1.34 L 5.92,-1.01 L 6.05,-0.68 L 6.13,-0.34 L 6.16,-0.00 Z" fill="none" stroke="#ff2a1a" stroke-width="0.550" stroke-linejoin="round"/><circle r="8.470" fill="none" stroke="#d4001a" stroke-width="0.605"/><circle r="8.470" fill="none" stroke="#ff5533" stroke-width="0.198" opacity="0.7"/><circle r="0.935" fill="#ff3322"/><circle r="0.440" fill="#ffccbb"/></g>
<text x="408" y="718" font-family="monospace" font-size="8" fill="#555" letter-spacing="2" text-anchor="middle">FAV</text>
<line x1="40" y1="748" x2="960" y2="748" stroke="#1a1a1a" stroke-width="1"/>
<text x="40" y="778" font-family="monospace" font-size="10" fill="#d4001a" letter-spacing="2" text-anchor="start">04 — COLOUR</text>
<rect x="50" y="800" width="160" height="66" rx="4" fill="#d4001a"/>
<text x="50" y="884" font-family="monospace" font-size="10" fill="#ccc" letter-spacing="0" text-anchor="start">SINGAPORE RED</text>
<text x="50" y="898" font-family="monospace" font-size="8" fill="#777" letter-spacing="0" text-anchor="start">#D4001A</text>
<text x="50" y="910" font-family="monospace" font-size="7" fill="#555" letter-spacing="0" text-anchor="start">PRIMARY</text>
<rect x="232" y="800" width="160" height="66" rx="4" fill="#ff2a1a"/>
<text x="232" y="884" font-family="monospace" font-size="10" fill="#ccc" letter-spacing="0" text-anchor="start">PHOSPHOR</text>
<text x="232" y="898" font-family="monospace" font-size="8" fill="#777" letter-spacing="0" text-anchor="start">#FF2A1A</text>
<text x="232" y="910" font-family="monospace" font-size="7" fill="#555" letter-spacing="0" text-anchor="start">TRACE ONLY</text>
<rect x="414" y="800" width="160" height="66" rx="4" fill="#a83020"/>
<text x="414" y="884" font-family="monospace" font-size="10" fill="#ccc" letter-spacing="0" text-anchor="start">GRAT BRIGHTER</text>
<text x="414" y="898" font-family="monospace" font-size="8" fill="#777" letter-spacing="0" text-anchor="start">#A83020</text>
<text x="414" y="910" font-family="monospace" font-size="7" fill="#555" letter-spacing="0" text-anchor="start">SCOPE GRID</text>
<rect x="596" y="800" width="160" height="66" rx="4" fill="#f0ede8"/>
<text x="596" y="884" font-family="monospace" font-size="10" fill="#ccc" letter-spacing="0" text-anchor="start">OFF-WHITE</text>
<text x="596" y="898" font-family="monospace" font-size="8" fill="#777" letter-spacing="0" text-anchor="start">#F0EDE8</text>
<text x="596" y="910" font-family="monospace" font-size="7" fill="#555" letter-spacing="0" text-anchor="start">INK/LIGHT BG</text>
<rect x="778" y="800" width="160" height="66" rx="4" fill="#070707" stroke="#333" stroke-width="1"/>
<text x="778" y="884" font-family="monospace" font-size="10" fill="#ccc" letter-spacing="0" text-anchor="start">PANEL BLACK</text>
<text x="778" y="898" font-family="monospace" font-size="8" fill="#777" letter-spacing="0" text-anchor="start">#070707</text>
<text x="778" y="910" font-family="monospace" font-size="7" fill="#555" letter-spacing="0" text-anchor="start">DARK BG</text>
<line x1="40" y1="938" x2="960" y2="938" stroke="#1a1a1a" stroke-width="1"/>
<text x="40" y="966" font-family="monospace" font-size="10" fill="#d4001a" letter-spacing="2" text-anchor="start">05 — TYPOGRAPHY</text>
<g transform="translate(60.00,1040.00) scale(0.05200,-0.05200)"><path d="M557 262Q557 200 542 150Q520 77 466.5 34.5Q413 -8 346 -8Q267 -8 230 47Q228 50 226.0 49.0Q224 48 224 45V15Q224 8 220.0 4.0Q216 0 209 0H51Q44 0 40.0 4.0Q36 8 36 15V685Q36 692 40.0 696.0Q44 700 51 700H209Q216 700 220.0 696.0Q224 692 224 685V484Q224 481 226.0 480.5Q228 480 230 482Q265 528 338 528Q409 528 460.0 489.5Q511 451 535 390Q557 334 557 262ZM360 259Q360 306 345 334Q328 367 292 367Q258 367 240 336Q224 307 224 259Q224 215 239 187Q257 153 292 153Q327 153 345 186Q360 215 360 259Z" fill="#f0ede8"/></g>
<g transform="translate(90.11,1040.00) scale(0.05200,-0.05200)"><path d="M507 355V15Q507 8 503.0 4.0Q499 0 492 0H334Q327 0 323.0 4.0Q319 8 319 15V50Q319 54 317.5 54.5Q316 55 314 52Q297 21 267.0 6.5Q237 -8 188 -8Q106 -8 59.0 29.5Q12 67 12 139Q12 215 65.5 256.0Q119 297 221 297H314Q319 297 319 302V320Q319 341 303.5 354.0Q288 367 262 367Q244 367 230.0 361.0Q216 355 210 345Q206 338 202.5 335.5Q199 333 193 334L32 354Q18 356 18 366Q22 411 54.0 448.0Q86 485 139.5 506.5Q193 528 259 528Q327 528 384.0 505.0Q441 482 474.0 442.0Q507 402 507 355ZM319 185V198Q319 203 314 203H264Q201 203 201 162Q201 144 212.5 133.0Q224 122 246 122Q278 122 298.5 139.0Q319 156 319 185Z" fill="#f0ede8"/></g>
<g transform="translate(118.19,1040.00) scale(0.05200,-0.05200)"><path d="M379 514Q388 509 386 495L362 341Q361 333 356.5 331.0Q352 329 344 331Q326 335 312 335Q297 335 284 332Q258 327 239.5 310.5Q221 294 221 266V15Q221 8 217.0 4.0Q213 0 206 0H48Q41 0 37.0 4.0Q33 8 33 15V505Q33 512 37.0 516.0Q41 520 48 520H206Q213 520 217.0 516.0Q221 512 221 505V481Q221 478 223.0 477.0Q225 476 226 478Q264 527 325 527Q359 527 379 514Z" fill="#f0ede8"/></g>
<g transform="translate(138.78,1040.00) scale(0.05200,-0.05200)"><path d="M33 15V685Q33 692 37.0 696.0Q41 700 48 700H206Q213 700 217.0 696.0Q221 692 221 685V15Q221 8 217.0 4.0Q213 0 206 0H48Q41 0 37.0 4.0Q33 8 33 15Z" fill="#f0ede8"/></g>
<g transform="translate(151.99,1040.00) scale(0.05200,-0.05200)"><path d="M32 181Q22 217 22 261Q22 310 34 350Q58 433 122.5 480.5Q187 528 280 528Q373 528 436.5 480.5Q500 433 524 352Q536 310 536 263Q536 225 528 187Q507 97 441.5 44.5Q376 -8 279 -8Q184 -8 118.5 43.0Q53 94 32 181ZM343 217Q347 236 347 262Q347 285 342 308Q327 367 279 367Q229 367 216 308Q211 291 211 262Q211 236 215 217Q230 153 279 153Q305 153 321.0 170.5Q337 188 343 217Z" fill="#f0ede8"/></g>
<g transform="translate(181.00,1040.00) scale(0.05200,-0.05200)"><path d="M161 13 17 503Q16 505 16 508Q16 520 30 520H192Q206 520 209 507L258 265Q259 261 261.0 261.0Q263 261 264 265L318 507Q321 520 335 520H478Q491 520 494 507L552 264Q553 260 555.0 260.0Q557 260 558 264L616 507Q619 520 632 520L795 518Q803 518 806.5 513.5Q810 509 808 501L661 13Q660 7 655.0 3.5Q650 0 644 0H480Q466 0 463 13L408 211Q407 214 405.0 214.5Q403 215 402 211L358 13Q355 0 341 0H178Q172 0 167.0 3.5Q162 7 161 13Z" fill="#f0ede8"/></g>
<g transform="translate(239.50,1040.00) scale(0.05200,-0.05200)"><path d="M557 262Q557 200 542 150Q520 77 466.5 34.5Q413 -8 346 -8Q267 -8 230 47Q228 50 226.0 49.0Q224 48 224 45V15Q224 8 220.0 4.0Q216 0 209 0H51Q44 0 40.0 4.0Q36 8 36 15V685Q36 692 40.0 696.0Q44 700 51 700H209Q216 700 220.0 696.0Q224 692 224 685V484Q224 481 226.0 480.5Q228 480 230 482Q265 528 338 528Q409 528 460.0 489.5Q511 451 535 390Q557 334 557 262ZM360 259Q360 306 345 334Q328 367 292 367Q258 367 240 336Q224 307 224 259Q224 215 239 187Q257 153 292 153Q327 153 345 186Q360 215 360 259Z" fill="#f0ede8"/></g>
<g transform="translate(269.61,1040.00) scale(0.05200,-0.05200)"><path d="M33 15V685Q33 692 37.0 696.0Q41 700 48 700H206Q213 700 217.0 696.0Q221 692 221 685V15Q221 8 217.0 4.0Q213 0 206 0H48Q41 0 37.0 4.0Q33 8 33 15Z" fill="#f0ede8"/></g>
<g transform="translate(282.82,1040.00) scale(0.05200,-0.05200)"><path d="M507 355V15Q507 8 503.0 4.0Q499 0 492 0H334Q327 0 323.0 4.0Q319 8 319 15V50Q319 54 317.5 54.5Q316 55 314 52Q297 21 267.0 6.5Q237 -8 188 -8Q106 -8 59.0 29.5Q12 67 12 139Q12 215 65.5 256.0Q119 297 221 297H314Q319 297 319 302V320Q319 341 303.5 354.0Q288 367 262 367Q244 367 230.0 361.0Q216 355 210 345Q206 338 202.5 335.5Q199 333 193 334L32 354Q18 356 18 366Q22 411 54.0 448.0Q86 485 139.5 506.5Q193 528 259 528Q327 528 384.0 505.0Q441 482 474.0 442.0Q507 402 507 355ZM319 185V198Q319 203 314 203H264Q201 203 201 162Q201 144 212.5 133.0Q224 122 246 122Q278 122 298.5 139.0Q319 156 319 185Z" fill="#f0ede8"/></g>
<g transform="translate(310.90,1040.00) scale(0.05200,-0.05200)"><path d="M42 149Q22 200 22 263Q22 325 42 376Q70 447 134.0 487.5Q198 528 282 528Q367 528 432.5 485.5Q498 443 521 379Q528 361 530 341V338Q530 328 517 325L362 300H359Q346 300 345 313L341 327Q336 344 319.5 355.5Q303 367 281 367Q241 367 224 331Q212 306 212 262Q212 221 223 193Q240 153 281 153Q325 153 341 199L342 203Q345 220 359 217L515 191Q528 188 528 177Q528 165 521 144Q495 71 430.5 31.5Q366 -8 282 -8Q197 -8 134.0 33.5Q71 75 42 149Z" fill="#f0ede8"/></g>
<g transform="translate(339.45,1040.00) scale(0.05200,-0.05200)"><path d="M33 15V685Q33 692 37.0 696.0Q41 700 48 700H206Q213 700 217.0 696.0Q221 692 221 685V398Q221 395 223.0 394.0Q225 393 227 396L312 511Q318 520 330 520H510Q516 520 519.5 517.5Q523 515 523 511Q523 507 520 502L391 328Q389 325 391 321L538 18L540 10Q540 0 527 0H362Q349 0 344 12L263 204Q262 206 259.5 206.5Q257 207 256 205L223 149Q221 145 221 143V15Q221 8 217.0 4.0Q213 0 206 0H48Q41 0 37.0 4.0Q33 8 33 15Z" fill="#f0ede8"/></g>
<text x="60" y="1060" font-family="monospace" font-size="9" fill="#777" letter-spacing="2" text-anchor="start">DISPLAY / WORDMARK · 900 · OUTLINED IN ASSETS</text>
<text x="560" y="1036" font-family="monospace" font-size="24" fill="#f0ede8" letter-spacing="1" text-anchor="start">Share Tech Mono</text>
<text x="560" y="1058" font-family="monospace" font-size="9" fill="#777" letter-spacing="2" text-anchor="start">TECHNICAL / LABELS</text>
<line x1="40" y1="1090" x2="960" y2="1090" stroke="#1a1a1a" stroke-width="1"/>
<text x="40" y="1118" font-family="monospace" font-size="10" fill="#d4001a" letter-spacing="2" text-anchor="start">06 — NANOSVG-SAFE</text>
<text x="40" y="1140" font-family="monospace" font-size="10" fill="#999" letter-spacing="0" text-anchor="start">No mask, no gradients, no blur, fonts outlined. Renders in VCV Rack, browsers, panel fab.</text>
<text x="40" y="1156" font-family="monospace" font-size="10" fill="#999" letter-spacing="0" text-anchor="start">Signal-trace channel is a background-coloured stroke, not a mask cut.</text>
<rect x="0" y="1196" width="1000" height="44" fill="#0d0d0d"/>
<g transform="translate(56.000,1218.000)"><circle r="14.000" fill="#1c1c1c" stroke="#000000" stroke-width="0.420"/><circle r="11.760" fill="#0a0202"/><g stroke="#a83020" stroke-width="0.280" opacity="0.9"><line x1="-11.760" y1="0" x2="11.760" y2="0"/><line x1="0" y1="-11.760" x2="0" y2="11.760"/></g><g stroke="#7a2018" stroke-width="0.182" opacity="0.6"><line x1="-11.760" y1="-5.880" x2="11.760" y2="-5.880"/><line x1="-5.880" y1="-11.760" x2="-5.880" y2="11.760"/><line x1="-11.760" y1="5.880" x2="11.760" y2="5.880"/><line x1="5.880" y1="-11.760" x2="5.880" y2="11.760"/></g><path d="M 7.84,0.00 L 7.81,0.43 L 7.70,0.86 L 7.53,1.29 L 7.29,1.71 L 6.99,2.12 L 6.62,2.53 L 6.19,2.92 L 5.72,3.30 L 5.18,3.68 L 4.61,4.03 L 3.99,4.37 L 3.34,4.70 L 2.66,5.00 L 1.95,5.29 L 1.23,5.55 L 0.49,5.79 L -0.25,6.01 L -0.98,6.21 L -1.71,6.38 L -2.42,6.52 L -3.11,6.64 L -3.78,6.74 L -4.41,6.81 L -5.00,6.85 L -5.54,6.86 L -6.04,6.85 L -6.48,6.81 L -6.87,6.74 L -7.20,6.64 L -7.46,6.52 L -7.65,6.38 L -7.78,6.21 L -7.84,6.01 L -7.82,5.79 L -7.74,5.55 L -7.59,5.29 L -7.38,5.00 L -7.09,4.70 L -6.75,4.37 L -6.34,4.03 L -5.88,3.68 L -5.37,3.30 L -4.81,2.92 L -4.20,2.53 L -3.56,2.12 L -2.89,1.71 L -2.19,1.29 L -1.47,0.86 L -0.74,0.43 L -0.00,0.00 L 0.74,-0.43 L 1.47,-0.86 L 2.19,-1.29 L 2.89,-1.71 L 3.56,-2.12 L 4.20,-2.53 L 4.81,-2.92 L 5.37,-3.30 L 5.88,-3.68 L 6.34,-4.03 L 6.75,-4.37 L 7.09,-4.70 L 7.38,-5.00 L 7.59,-5.29 L 7.74,-5.55 L 7.82,-5.79 L 7.84,-6.01 L 7.78,-6.21 L 7.65,-6.38 L 7.46,-6.52 L 7.20,-6.64 L 6.87,-6.74 L 6.48,-6.81 L 6.04,-6.85 L 5.54,-6.86 L 5.00,-6.85 L 4.41,-6.81 L 3.78,-6.74 L 3.11,-6.64 L 2.42,-6.52 L 1.71,-6.38 L 0.98,-6.21 L 0.25,-6.01 L -0.49,-5.79 L -1.23,-5.55 L -1.95,-5.29 L -2.66,-5.00 L -3.34,-4.70 L -3.99,-4.37 L -4.61,-4.03 L -5.18,-3.68 L -5.72,-3.30 L -6.19,-2.92 L -6.62,-2.53 L -6.99,-2.12 L -7.29,-1.71 L -7.53,-1.29 L -7.70,-0.86 L -7.81,-0.43 L -7.84,-0.00 L -7.81,0.43 L -7.70,0.86 L -7.53,1.29 L -7.29,1.71 L -6.99,2.12 L -6.62,2.53 L -6.19,2.92 L -5.72,3.30 L -5.18,3.68 L -4.61,4.03 L -3.99,4.37 L -3.34,4.70 L -2.66,5.00 L -1.95,5.29 L -1.23,5.55 L -0.49,5.79 L 0.25,6.01 L 0.98,6.21 L 1.71,6.38 L 2.42,6.52 L 3.11,6.64 L 3.78,6.74 L 4.41,6.81 L 5.00,6.85 L 5.54,6.86 L 6.04,6.85 L 6.48,6.81 L 6.87,6.74 L 7.20,6.64 L 7.46,6.52 L 7.65,6.38 L 7.78,6.21 L 7.84,6.01 L 7.82,5.79 L 7.74,5.55 L 7.59,5.29 L 7.38,5.00 L 7.09,4.70 L 6.75,4.37 L 6.34,4.03 L 5.88,3.68 L 5.37,3.30 L 4.81,2.92 L 4.20,2.53 L 3.56,2.12 L 2.89,1.71 L 2.19,1.29 L 1.47,0.86 L 0.74,0.43 L 0.00,0.00 L -0.74,-0.43 L -1.47,-0.86 L -2.19,-1.29 L -2.89,-1.71 L -3.56,-2.12 L -4.20,-2.53 L -4.81,-2.92 L -5.37,-3.30 L -5.88,-3.68 L -6.34,-4.03 L -6.75,-4.37 L -7.09,-4.70 L -7.38,-5.00 L -7.59,-5.29 L -7.74,-5.55 L -7.82,-5.79 L -7.84,-6.01 L -7.78,-6.21 L -7.65,-6.38 L -7.46,-6.52 L -7.20,-6.64 L -6.87,-6.74 L -6.48,-6.81 L -6.04,-6.85 L -5.54,-6.86 L -5.00,-6.85 L -4.41,-6.81 L -3.78,-6.74 L -3.11,-6.64 L -2.42,-6.52 L -1.71,-6.38 L -0.98,-6.21 L -0.25,-6.01 L 0.49,-5.79 L 1.23,-5.55 L 1.95,-5.29 L 2.66,-5.00 L 3.34,-4.70 L 3.99,-4.37 L 4.61,-4.03 L 5.18,-3.68 L 5.72,-3.30 L 6.19,-2.92 L 6.62,-2.53 L 6.99,-2.12 L 7.29,-1.71 L 7.53,-1.29 L 7.70,-0.86 L 7.81,-0.43 L 7.84,-0.00 Z" fill="none" stroke="#ff2a1a" stroke-width="0.700" stroke-linejoin="round"/><circle r="10.780" fill="none" stroke="#d4001a" stroke-width="0.770"/><circle r="10.780" fill="none" stroke="#ff5533" stroke-width="0.252" opacity="0.7"/><circle r="1.190" fill="#ff3322"/><circle r="0.560" fill="#ffccbb"/></g>
<text x="82" y="1214" font-family="monospace" font-size="11" fill="#f0ede8" letter-spacing="1" text-anchor="start">dot.modular</text>
<text x="82" y="1228" font-family="monospace" font-size="8" fill="#555" letter-spacing="2" text-anchor="start">STOCHASTIC SYNTHESIS · SINGAPORE</text>
<text x="960" y="1220" font-family="monospace" font-size="8" fill="#d4001a" letter-spacing="2" text-anchor="end">the little red dot</text>
</svg>