<svg xmlns="http://www.w3.org/2000/svg" viewBox="0 0 200 200" width="200" height="200"><g transform="translate(100.000,100.000)"><circle r="82.000" fill="#1c1c1c" stroke="#000000" stroke-width="2.460"/><circle r="68.880" fill="#0a0202"/><g stroke="#a83020" stroke-width="1.640" opacity="0.9"><line x1="-68.880" y1="0" x2="68.880" y2="0"/><line x1="0" y1="-68.880" x2="0" y2="68.880"/></g><g stroke="#7a2018" stroke-width="1.066" opacity="0.6"><line x1="-68.880" y1="-34.440" x2="68.880" y2="-34.440"/><line x1="-34.440" y1="-68.880" x2="-34.440" y2="68.880"/><line x1="-68.880" y1="34.440" x2="68.880" y2="34.440"/><line x1="34.440" y1="-68.880" x2="34.440" y2="68.880"/></g><path d="M 45.92,0.00 L 45.72,2.52 L 45.11,5.04 L 44.10,7.53 L 42.70,9.99 L 40.92,12.42 L 38.77,14.79 L 36.28,17.11 L 33.47,19.36 L 30.37,21.53 L 26.99,23.62 L 23.38,25.61 L 19.55,27.51 L 15.55,29.29 L 11.42,30.96 L 7.18,32.51 L 2.88,33.93 L -1.44,35.21 L -5.76,36.36 L -10.02,37.36 L -14.19,38.21 L -18.24,38.92 L -22.12,39.47 L -25.81,39.86 L -29.27,40.10 L -32.47,40.18 L -35.38,40.10 L -37.98,39.86 L -40.24,39.47 L -42.14,38.92 L -43.67,38.21 L -44.81,37.36 L -45.56,36.36 L -45.90,35.21 L -45.83,33.93 L -45.35,32.51 L -44.48,30.96 L -43.21,29.29 L -41.55,27.51 L -39.53,25.61 L -37.15,23.62 L -34.45,21.53 L -31.43,19.36 L -28.14,17.11 L -24.61,14.79 L -20.85,12.42 L -16.90,9.99 L -12.81,7.53 L -8.60,5.04 L -4.32,2.52 L -0.00,0.00 L 4.32,-2.52 L 8.60,-5.04 L 12.81,-7.53 L 16.90,-9.99 L 20.85,-12.42 L 24.61,-14.79 L 28.14,-17.11 L 31.43,-19.36 L 34.45,-21.53 L 37.15,-23.62 L 39.53,-25.61 L 41.55,-27.51 L 43.21,-29.29 L 44.48,-30.96 L 45.35,-32.51 L 45.83,-33.93 L 45.90,-35.21 L 45.56,-36.36 L 44.81,-37.36 L 43.67,-38.21 L 42.14,-38.92 L 40.24,-39.47 L 37.98,-39.86 L 35.38,-40.10 L 32.47,-40.18 L 29.27,-40.10 L 25.81,-39.86 L 22.12,-39.47 L 18.24,-38.92 L 14.19,-38.21 L 10.02,-37.36 L 5.76,-36.36 L 1.44,-35.21 L -2.88,-33.93 L -7.18,-32.51 L -11.42,-30.96 L -15.55,-29.29 L -19.55,-27.51 L -23.38,-25.61 L -26.99,-23.62 L -30.37,-21.53 L -33.47,-19.36 L -36.28,-17.11 L -38.77,-14.79 L -40.92,-12.42 L -42.70,-9.99 L -44.10,-7.53 L -45.11,-5.04 L -45.72,-2.52 L -45.92,-0.00 L -45.72,2.52 L -45.11,5.04 L -44.10,7.53 L -42.70,9.99 L -40.92,12.42 L -38.77,14.79 L -36.28,17.11 L -33.47,19.36 L -30.37,21.53 L -26.99,23.62 L -23.38,25.61 L -19.55,27.51 L -15.55,29.29 L -11.42,30.96 L -7.18,32.51 L -2.88,33.93 L 1.44,35.21 L 5.76,36.36 L 10.02,37.36 L 14.19,38.21 L 18.24,38.92 L 22.12,39.47 L 25.81,39.86 L 29.27,40.10 L 32.47,40.18 L 35.38,40.10 L 37.98,39.86 L 40.24,39.47 L 42.14,38.92 L 43.67,38.21 L 44.81,37.36 L 45.56,36.36 L 45.90,35.21 L 45.83,33.93 L 45.35,32.51 L 44.48,30.96 L 43.21,29.29 L 41.55,27.51 L 39.53,25.61 L 37.15,23.62 L 34.45,21.53 L 31.43,19.36 L 28.14,17.11 L 24.61,14.79 L 20.85,12.42 L 16.90,9.99 L 12.81,7.53 L 8.60,5.04 L 4.32,2.52 L 0.00,0.00 L -4.32,-2.52 L -8.60,-5.04 L -12.81,-7.53 L -16.90,-9.99 L -20.85,-12.42 L -24.61,-14.79 L -28.14,-17.11 L -31.43,-19.36 L -34.45,-21.53 L -37.15,-23.62 L -39.53,-25.61 L -41.55,-27.51 L -43.21,-29.29 L -44.48,-30.96 L -45.35,-32.51 L -45.83,-33.93 L -45.90,-35.21 L -45.56,-36.36 L -44.81,-37.36 L -43.67,-38.21 L -42.14,-38.92 L -40.24,-39.47 L -37.98,-39.86 L -35.38,-40.10 L -32.47,-40.18 L -29.27,-40.10 L -25.81,-39.86 L -22.12,-39.47 L -18.24,-38.92 L -14.19,-38.21 L -10.02,-37.36 L -5.76,-36.36 L -1.44,-35.21 L 2.88,-33.93 L 7.18,-32.51 L 11.42,-30.96 L 15.55,-29.29 L 19.55,-27.51 L 23.38,-25.61 L 26.99,-23.62 L 30.37,-21.53 L 33.47,-19.36 L 36.28,-17.11 L 38.77,-14.79 L 40.92,-12.42 L 42.70,-9.99 L 44.10,-7.53 L 45.11,-5.04 L 45.72,-2.52 L 45.92,-0.00 Z" fill="none" stroke="#ff2a1a" stroke-width="4.100" stroke-linejoin="round"/><circle r="63.140" fill="none" stroke="#d4001a" stroke-width="4.510"/><circle r="63.140" fill="none" stroke="#ff5533" stroke-width="1.476" opacity="0.7"/><circle r="6.970" fill="#ff3322"/><circle r="3.280" fill="#ffccbb"/></g></svg>