<svg xmlns="http://www.w3.org/2000/svg" width="240.0" height="379.43" viewBox="0 0 240.0 379.43">
<rect width="240.0" height="379.43" fill="#16181c"/>
<rect x="0" y="0" width="240.0" height="3.54" fill="#d4001a"/>
<circle cx="228.19" cy="17.72" r="4.72" fill="#d4001a"/>
<line x1="0" y1="44.29" x2="240.0" y2="44.29" stroke="#33373d" stroke-width="1" opacity="0.7"/>
<rect x="34.34" y="85.63" width="17.72" height="4.72" fill="#26a69a" opacity="0.6"/>
<rect x="82.34" y="85.63" width="17.72" height="4.72" fill="#c8960c" opacity="0.6"/>
<rect x="139.94" y="85.63" width="17.72" height="4.72" fill="#26a69a" opacity="0.6"/>
<rect x="187.94" y="85.63" width="17.72" height="4.72" fill="#c8960c" opacity="0.6"/>
<circle cx="67.2" cy="64.96" r="10.36" fill="#0f1114" stroke="#26a69a" stroke-width="1.25"/>
<line x1="67.2" y1="64.96" x2="67.2" y2="56.07" stroke="#26a69a" stroke-width="1"/>
<circle id="param_restatt_global" cx="67.2" cy="64.96" r="0.5" fill="none" stroke="none"/>
<circle cx="172.8" cy="64.96" r="10.36" fill="#0f1114" stroke="#c8960c" stroke-width="1.25"/>
<line x1="172.8" y1="64.96" x2="172.8" y2="56.07" stroke="#c8960c" stroke-width="1"/>
<circle id="param_accatt_global" cx="172.8" cy="64.96" r="0.5" fill="none" stroke="none"/>
<line x1="11.81" y1="81.2" x2="228.19" y2="81.2" stroke="#33373d" stroke-width="0.75" opacity="0.5"/>
<circle cx="43.2" cy="100.39" r="7.68" fill="#0f1114" stroke="#26a69a" stroke-width="1.25"/>
<line x1="43.2" y1="100.39" x2="43.2" y2="94.19" stroke="#26a69a" stroke-width="1"/>
<circle id="param_restatt_0" cx="43.2" cy="100.39" r="0.5" fill="none" stroke="none"/>
<circle cx="91.2" cy="100.39" r="7.68" fill="#0f1114" stroke="#c8960c" stroke-width="1.25"/>
<line x1="91.2" y1="100.39" x2="91.2" y2="94.19" stroke="#c8960c" stroke-width="1"/>
<circle id="param_accatt_0" cx="91.2" cy="100.39" r="0.5" fill="none" stroke="none"/>
<circle cx="43.2" cy="124.02" r="7.68" fill="#0f1114" stroke="#26a69a" stroke-width="1.25"/>
<line x1="43.2" y1="124.02" x2="43.2" y2="117.81" stroke="#26a69a" stroke-width="1"/>
<circle id="param_restatt_1" cx="43.2" cy="124.02" r="0.5" fill="none" stroke="none"/>
<circle cx="91.2" cy="124.02" r="7.68" fill="#0f1114" stroke="#c8960c" stroke-width="1.25"/>
<line x1="91.2" y1="124.02" x2="91.2" y2="117.81" stroke="#c8960c" stroke-width="1"/>
<circle id="param_accatt_1" cx="91.2" cy="124.02" r="0.5" fill="none" stroke="none"/>
<circle cx="43.2" cy="147.64" r="7.68" fill="#0f1114" stroke="#26a69a" stroke-width="1.25"/>
<line x1="43.2" y1="147.64" x2="43.2" y2="141.44" stroke="#26a69a" stroke-width="1"/>
<circle id="param_restatt_2" cx="43.2" cy="147.64" r="0.5" fill="none" stroke="none"/>
<circle cx="91.2" cy="147.64" r="7.68" fill="#0f1114" stroke="#c8960c" stroke-width="1.25"/>
<line x1="91.2" y1="147.64" x2="91.2" y2="141.44" stroke="#c8960c" stroke-width="1"/>
<circle id="param_accatt_2" cx="91.2" cy="147.64" r="0.5" fill="none" stroke="none"/>
<circle cx="43.2" cy="171.26" r="7.68" fill="#0f1114" stroke="#26a69a" stroke-width="1.25"/>
<line x1="43.2" y1="171.26" x2="43.2" y2="165.06" stroke="#26a69a" stroke-width="1"/>
<circle id="param_restatt_3" cx="43.2" cy="171.26" r="0.5" fill="none" stroke="none"/>
<circle cx="91.2" cy="171.26" r="7.68" fill="#0f1114" stroke="#c8960c" stroke-width="1.25"/>
<line x1="91.2" y1="171.26" x2="91.2" y2="165.06" stroke="#c8960c" stroke-width="1"/>
<circle id="param_accatt_3" cx="91.2" cy="171.26" r="0.5" fill="none" stroke="none"/>
<circle cx="43.2" cy="194.88" r="7.68" fill="#0f1114" stroke="#26a69a" stroke-width="1.25"/>
<line x1="43.2" y1="194.88" x2="43.2" y2="188.68" stroke="#26a69a" stroke-width="1"/>
<circle id="param_restatt_4" cx="43.2" cy="194.88" r="0.5" fill="none" stroke="none"/>
<circle cx="91.2" cy="194.88" r="7.68" fill="#0f1114" stroke="#c8960c" stroke-width="1.25"/>
<line x1="91.2" y1="194.88" x2="91.2" y2="188.68" stroke="#c8960c" stroke-width="1"/>
<circle id="param_accatt_4" cx="91.2" cy="194.88" r="0.5" fill="none" stroke="none"/>
<circle cx="43.2" cy="218.5" r="7.68" fill="#0f1114" stroke="#26a69a" stroke-width="1.25"/>
<line x1="43.2" y1="218.5" x2="43.2" y2="212.3" stroke="#26a69a" stroke-width="1"/>
<circle id="param_restatt_5" cx="43.2" cy="218.5" r="0.5" fill="none" stroke="none"/>
<circle cx="91.2" cy="218.5" r="7.68" fill="#0f1114" stroke="#c8960c" stroke-width="1.25"/>
<line x1="91.2" y1="218.5" x2="91.2" y2="212.3" stroke="#c8960c" stroke-width="1"/>
<circle id="param_accatt_5" cx="91.2" cy="218.5" r="0.5" fill="none" stroke="none"/>
<circle cx="43.2" cy="242.13" r="7.68" fill="#0f1114" stroke="#26a69a" stroke-width="1.25"/>
<line x1="43.2" y1="242.13" x2="43.2" y2="235.93" stroke="#26a69a" stroke-width="1"/>
<circle id="param_restatt_6" cx="43.2" cy="242.13" r="0.5" fill="none" stroke="none"/>
<circle cx="91.2" cy="242.13" r="7.68" fill="#0f1114" stroke="#c8960c" stroke-width="1.25"/>
<line x1="91.2" y1="242.13" x2="91.2" y2="235.93" stroke="#c8960c" stroke-width="1"/>
<circle id="param_accatt_6" cx="91.2" cy="242.13" r="0.5" fill="none" stroke="none"/>
<circle cx="43.2" cy="265.75" r="7.68" fill="#0f1114" stroke="#26a69a" stroke-width="1.25"/>
<line x1="43.2" y1="265.75" x2="43.2" y2="259.55" stroke="#26a69a" stroke-width="1"/>
<circle id="param_restatt_7" cx="43.2" cy="265.75" r="0.5" fill="none" stroke="none"/>
<circle cx="91.2" cy="265.75" r="7.68" fill="#0f1114" stroke="#c8960c" stroke-width="1.25"/>
<line x1="91.2" y1="265.75" x2="91.2" y2="259.55" stroke="#c8960c" stroke-width="1"/>
<circle id="param_accatt_7" cx="91.2" cy="265.75" r="0.5" fill="none" stroke="none"/>
<circle cx="148.8" cy="100.39" r="7.68" fill="#0f1114" stroke="#26a69a" stroke-width="1.25"/>
<line x1="148.8" y1="100.39" x2="148.8" y2="94.19" stroke="#26a69a" stroke-width="1"/>
<circle id="param_restatt_8" cx="148.8" cy="100.39" r="0.5" fill="none" stroke="none"/>
<circle cx="196.8" cy="100.39" r="7.68" fill="#0f1114" stroke="#c8960c" stroke-width="1.25"/>
<line x1="196.8" y1="100.39" x2="196.8" y2="94.19" stroke="#c8960c" stroke-width="1"/>
<circle id="param_accatt_8" cx="196.8" cy="100.39" r="0.5" fill="none" stroke="none"/>
<circle cx="148.8" cy="124.02" r="7.68" fill="#0f1114" stroke="#26a69a" stroke-width="1.25"/>
<line x1="148.8" y1="124.02" x2="148.8" y2="117.81" stroke="#26a69a" stroke-width="1"/>
<circle id="param_restatt_9" cx="148.8" cy="124.02" r="0.5" fill="none" stroke="none"/>
<circle cx="196.8" cy="124.02" r="7.68" fill="#0f1114" stroke="#c8960c" stroke-width="1.25"/>
<line x1="196.8" y1="124.02" x2="196.8" y2="117.81" stroke="#c8960c" stroke-width="1"/>
<circle id="param_accatt_9" cx="196.8" cy="124.02" r="0.5" fill="none" stroke="none"/>
<circle cx="148.8" cy="147.64" r="7.68" fill="#0f1114" stroke="#26a69a" stroke-width="1.25"/>
<line x1="148.8" y1="147.64" x2="148.8" y2="141.44" stroke="#26a69a" stroke-width="1"/>
<circle id="param_restatt_10" cx="148.8" cy="147.64" r="0.5" fill="none" stroke="none"/>
<circle cx="196.8" cy="147.64" r="7.68" fill="#0f1114" stroke="#c8960c" stroke-width="1.25"/>
<line x1="196.8" y1="147.64" x2="196.8" y2="141.44" stroke="#c8960c" stroke-width="1"/>
<circle id="param_accatt_10" cx="196.8" cy="147.64" r="0.5" fill="none" stroke="none"/>
<circle cx="148.8" cy="171.26" r="7.68" fill="#0f1114" stroke="#26a69a" stroke-width="1.25"/>
<line x1="148.8" y1="171.26" x2="148.8" y2="165.06" stroke="#26a69a" stroke-width="1"/>
<circle id="param_restatt_11" cx="148.8" cy="171.26" r="0.5" fill="none" stroke="none"/>
<circle cx="196.8" cy="171.26" r="7.68" fill="#0f1114" stroke="#c8960c" stroke-width="1.25"/>
<line x1="196.8" y1="171.26" x2="196.8" y2="165.06" stroke="#c8960c" stroke-width="1"/>
<circle id="param_accatt_11" cx="196.8" cy="171.26" r="0.5" fill="none" stroke="none"/>
<circle cx="148.8" cy="194.88" r="7.68" fill="#0f1114" stroke="#26a69a" stroke-width="1.25"/>
<line x1="148.8" y1="194.88" x2="148.8" y2="188.68" stroke="#26a69a" stroke-width="1"/>
<circle id="param_restatt_12" cx="148.8" cy="194.88" r="0.5" fill="none" stroke="none"/>
<circle cx="196.8" cy="194.88" r="7.68" fill="#0f1114" stroke="#c8960c" stroke-width="1.25"/>
<line x1="196.8" y1="194.88" x2="196.8" y2="188.68" stroke="#c8960c" stroke-width="1"/>
<circle id="param_accatt_12" cx="196.8" cy="194.88" r="0.5" fill="none" stroke="none"/>
<circle cx="148.8" cy="218.5" r="7.68" fill="#0f1114" stroke="#26a69a" stroke-width="1.25"/>
<line x1="148.8" y1="218.5" x2="148.8" y2="212.3" stroke="#26a69a" stroke-width="1"/>
<circle id="param_restatt_13" cx="148.8" cy="218.5" r="0.5" fill="none" stroke="none"/>
<circle cx="196.8" cy="218.5" r="7.68" fill="#0f1114" stroke="#c8960c" stroke-width="1.25"/>
<line x1="196.8" y1="218.5" x2="196.8" y2="212.3" stroke="#c8960c" stroke-width="1"/>
<circle id="param_accatt_13" cx="196.8" cy="218.5" r="0.5" fill="none" stroke="none"/>
<circle cx="148.8" cy="242.13" r="7.68" fill="#0f1114" stroke="#26a69a" stroke-width="1.25"/>
<line x1="148.8" y1="242.13" x2="148.8" y2="235.93" stroke="#26a69a" stroke-width="1"/>
<circle id="param_restatt_14" cx="148.8" cy="242.13" r="0.5" fill="none" stroke="none"/>
<circle cx="196.8" cy="242.13" r="7.68" fill="#0f1114" stroke="#c8960c" stroke-width="1.25"/>
<line x1="196.8" y1="242.13" x2="196.8" y2="235.93" stroke="#c8960c" stroke-width="1"/>
<circle id="param_accatt_14" cx="196.8" cy="242.13" r="0.5" fill="none" stroke="none"/>
<circle cx="81.6" cy="301.18" r="11.52" fill="#0c0e11" stroke="#4a4a4a" stroke-width="1"/>
<circle id="input_restcv" cx="81.6" cy="301.18" r="0.5" fill="none" stroke="none"/>
<circle cx="158.4" cy="301.18" r="11.52" fill="#0c0e11" stroke="#4a4a4a" stroke-width="1"/>
<circle id="input_accentcv" cx="158.4" cy="301.18" r="0.5" fill="none" stroke="none"/>
<circle id="light_connect" cx="120.0" cy="26.57" r="0.5" fill="none" stroke="none"/>
</svg>