<svg xmlns="http://www.w3.org/2000/svg" width="90.0" height="379.43" viewBox="0 0 90.0 379.43">
<rect width="90.0" height="379.43" fill="#dcdcdc"/>
<rect x="0" y="0" width="90.0" height="3.54" fill="#d4001a"/>
<circle cx="81.14" cy="17.72" r="4.13" fill="#d4001a"/>
<line x1="0" y1="44.29" x2="90.0" y2="44.29" stroke="#bcbcbc" stroke-width="1" opacity="0.7"/>
<rect x="21.38" y="76.77" width="47.24" height="88.58" rx="4.43" fill="#d0d0d0" stroke="#bcbcbc" stroke-width="1"/>
<rect x="21.38" y="76.77" width="47.24" height="6.5" fill="#1c7a70" opacity="0.5"/>
<circle cx="45.0" cy="100.39" r="11.52" fill="#e2ddd2" stroke="#b0a898" stroke-width="1"/>
<circle id="input_restcv" cx="45.0" cy="100.39" r="0.5" fill="none" stroke="none"/>
<circle cx="45.0" cy="141.73" r="8.86" fill="#e8e2d6" stroke="#1c7a70" stroke-width="1.25"/>
<line x1="45.0" y1="141.73" x2="45.0" y2="134.65" stroke="#1c7a70" stroke-width="1"/>
<circle id="param_restatt" cx="45.0" cy="141.73" r="0.5" fill="none" stroke="none"/>
<rect x="21.38" y="206.69" width="47.24" height="88.58" rx="4.43" fill="#d0d0d0" stroke="#bcbcbc" stroke-width="1"/>
<rect x="21.38" y="206.69" width="47.24" height="6.5" fill="#a07a00" opacity="0.5"/>
<circle cx="45.0" cy="230.31" r="11.52" fill="#e2ddd2" stroke="#b0a898" stroke-width="1"/>
<circle id="input_accentcv" cx="45.0" cy="230.31" r="0.5" fill="none" stroke="none"/>
<circle cx="45.0" cy="271.65" r="8.86" fill="#e8e2d6" stroke="#a07a00" stroke-width="1.25"/>
<line x1="45.0" y1="271.65" x2="45.0" y2="264.57" stroke="#a07a00" stroke-width="1"/>
<circle id="param_accentatt" cx="45.0" cy="271.65" r="0.5" fill="none" stroke="none"/>
<circle id="light_connect" cx="45.0" cy="26.57" r="0.5" fill="none" stroke="none"/>
</svg>