<svg xmlns="http://www.w3.org/2000/svg" width="330.0" height="379.43" viewBox="0 0 330.0 379.43">
<rect width="330.0" height="379.43" fill="#e2e0d6"/>
<rect x="0" y="0" width="330.0" height="3.54" fill="#d4001a"/>
<line x1="14.76" y1="38.39" x2="315.24" y2="38.39" stroke="#a89050" stroke-width="0.6"/>
<line x1="92.4" y1="38.39" x2="92.4" y2="17.72" stroke="#8a7238" stroke-width="0.6"/>
<path d="M 19.8 38.39 Q 92.4 11.81 165.0 38.39" fill="none" stroke="#a89050" stroke-width="0.35" stroke-opacity="0.7"/>
<line x1="237.6" y1="38.39" x2="237.6" y2="17.72" stroke="#8a7238" stroke-width="0.6"/>
<path d="M 165.0 38.39 Q 237.6 11.81 310.2 38.39" fill="none" stroke="#a89050" stroke-width="0.35" stroke-opacity="0.7"/>
<circle cx="29.53" cy="47.24" r="10.04" fill="#e2ddd2" stroke="#b0a898" stroke-width="0.6"/>
<circle cx="29.53" cy="47.24" r="4.43" fill="none" stroke="#5a9a94" stroke-width="0.5"/>
<circle id="input_restcv" cx="29.53" cy="47.24" r="0.5" fill="none" stroke="none"/>
<circle cx="300.47" cy="47.24" r="10.04" fill="#e2ddd2" stroke="#b0a898" stroke-width="0.6"/>
<circle cx="300.47" cy="47.24" r="4.43" fill="none" stroke="#c88018" stroke-width="0.5"/>
<circle id="input_accentcv" cx="300.47" cy="47.24" r="0.5" fill="none" stroke="none"/>
<circle cx="81.02" cy="59.06" r="9.15" fill="#e8e2d6" stroke="#5a9a94" stroke-width="1.48"/>
<line x1="81.02" y1="59.06" x2="81.02" y2="51.73" stroke="#5a5040" stroke-width="1.33"/>
<circle id="param_restatt_global" cx="81.02" cy="59.06" r="0.5" fill="none" stroke="none"/>
<circle cx="248.98" cy="59.06" r="9.15" fill="#e8e2d6" stroke="#c88018" stroke-width="1.48"/>
<line x1="248.98" y1="59.06" x2="248.98" y2="51.73" stroke="#5a5040" stroke-width="1.33"/>
<circle id="param_accatt_global" cx="248.98" cy="59.06" r="0.5" fill="none" stroke="none"/>
<rect x="147.28" y="76.77" width="35.43" height="226.77" fill="#c4c8cc" fill-opacity="0.4" stroke="#c4b488" stroke-width="0.3"/>
<line x1="147.28" y1="76.77" x2="182.72" y2="76.77" stroke="#a89050" stroke-width="0.4"/>
<line x1="147.28" y1="303.54" x2="182.72" y2="303.54" stroke="#a89050" stroke-width="0.4"/>
<polyline points="147.28,76.77 151.71,303.54 156.14,76.77 160.57,303.54 165.0,76.77 169.43,303.54 173.86,76.77 178.29,303.54 182.72,76.77" fill="none" stroke="#a89050" stroke-width="0.35" stroke-opacity="0.7"/>
<rect x="14.76" y="76.77" width="132.52" height="226.77" fill="#c4c8cc" fill-opacity="0.4" stroke="#c4b488" stroke-width="0.3"/>
<line x1="14.76" y1="76.77" x2="147.28" y2="76.77" stroke="#a89050" stroke-width="0.4"/>
<line x1="14.76" y1="303.54" x2="147.28" y2="303.54" stroke="#a89050" stroke-width="0.4"/>
<polyline points="14.76,76.77 31.33,303.54 47.89,76.77 64.46,303.54 81.02,76.77 97.59,303.54 114.15,76.77 130.72,303.54 147.28,76.77" fill="none" stroke="#a89050" stroke-width="0.35" stroke-opacity="0.7"/>
<rect x="182.72" y="76.77" width="132.52" height="226.77" fill="#c4c8cc" fill-opacity="0.4" stroke="#c4b488" stroke-width="0.3"/>
<line x1="182.72" y1="76.77" x2="315.24" y2="76.77" stroke="#a89050" stroke-width="0.4"/>
<line x1="182.72" y1="303.54" x2="315.24" y2="303.54" stroke="#a89050" stroke-width="0.4"/>
<polyline points="182.72,76.77 199.28,303.54 215.85,76.77 232.41,303.54 248.98,76.77 265.54,303.54 282.11,76.77 298.67,303.54 315.24,76.77" fill="none" stroke="#a89050" stroke-width="0.35" stroke-opacity="0.7"/>
<circle cx="47.89" cy="90.94" r="7.97" fill="#e8e2d6" stroke="#5a9a94" stroke-width="2.36"/>
<line x1="47.89" y1="90.94" x2="47.89" y2="84.57" stroke="#5a5040" stroke-width="1.33"/>
<circle cx="47.89" cy="90.94" r="10.93" fill="none" stroke="#d4001a" stroke-width="1.48" stroke-opacity="0.8"/>
<circle id="param_restatt_0" cx="47.89" cy="90.94" r="0.5" fill="none" stroke="none"/>
<circle cx="150.24" cy="90.94" r="2.07" fill="#8a7238" fill-opacity="1.0"/>
<circle cx="114.15" cy="90.94" r="7.97" fill="#e8e2d6" stroke="#5a9a94" stroke-width="1.48"/>
<line x1="114.15" y1="90.94" x2="114.15" y2="84.57" stroke="#5a5040" stroke-width="1.33"/>
<circle id="param_restatt_1" cx="114.15" cy="90.94" r="0.5" fill="none" stroke="none"/>
<circle cx="150.24" cy="90.94" r="2.07" fill="#a89050" fill-opacity="0.6"/>
<circle cx="47.89" cy="119.29" r="7.97" fill="#e8e2d6" stroke="#5a9a94" stroke-width="1.48"/>
<line x1="47.89" y1="119.29" x2="47.89" y2="112.91" stroke="#5a5040" stroke-width="1.33"/>
<circle id="param_restatt_2" cx="47.89" cy="119.29" r="0.5" fill="none" stroke="none"/>
<circle cx="150.24" cy="119.29" r="2.07" fill="#a89050" fill-opacity="0.6"/>
<circle cx="114.15" cy="119.29" r="7.97" fill="#e8e2d6" stroke="#5a9a94" stroke-width="1.48"/>
<line x1="114.15" y1="119.29" x2="114.15" y2="112.91" stroke="#5a5040" stroke-width="1.33"/>
<circle id="param_restatt_3" cx="114.15" cy="119.29" r="0.5" fill="none" stroke="none"/>
<circle cx="150.24" cy="119.29" r="2.07" fill="#a89050" fill-opacity="0.6"/>
<circle cx="47.89" cy="147.64" r="7.97" fill="#e8e2d6" stroke="#5a9a94" stroke-width="1.48"/>
<line x1="47.89" y1="147.64" x2="47.89" y2="141.26" stroke="#5a5040" stroke-width="1.33"/>
<circle id="param_restatt_4" cx="47.89" cy="147.64" r="0.5" fill="none" stroke="none"/>
<circle cx="150.24" cy="147.64" r="2.07" fill="#a89050" fill-opacity="0.6"/>
<circle cx="114.15" cy="147.64" r="7.97" fill="#e8e2d6" stroke="#5a9a94" stroke-width="1.48"/>
<line x1="114.15" y1="147.64" x2="114.15" y2="141.26" stroke="#5a5040" stroke-width="1.33"/>
<circle id="param_restatt_5" cx="114.15" cy="147.64" r="0.5" fill="none" stroke="none"/>
<circle cx="150.24" cy="147.64" r="2.07" fill="#a89050" fill-opacity="0.6"/>
<circle cx="47.89" cy="175.98" r="7.97" fill="#e8e2d6" stroke="#5a9a94" stroke-width="1.48"/>
<line x1="47.89" y1="175.98" x2="47.89" y2="169.61" stroke="#5a5040" stroke-width="1.33"/>
<circle id="param_restatt_6" cx="47.89" cy="175.98" r="0.5" fill="none" stroke="none"/>
<circle cx="150.24" cy="175.98" r="2.07" fill="#a89050" fill-opacity="0.6"/>
<circle cx="114.15" cy="175.98" r="7.97" fill="#e8e2d6" stroke="#5a9a94" stroke-width="1.48"/>
<line x1="114.15" y1="175.98" x2="114.15" y2="169.61" stroke="#5a5040" stroke-width="1.33"/>
<circle id="param_restatt_7" cx="114.15" cy="175.98" r="0.5" fill="none" stroke="none"/>
<circle cx="150.24" cy="175.98" r="2.07" fill="#a89050" fill-opacity="0.6"/>
<circle cx="47.89" cy="204.33" r="7.97" fill="#e8e2d6" stroke="#5a9a94" stroke-width="1.48"/>
<line x1="47.89" y1="204.33" x2="47.89" y2="197.95" stroke="#5a5040" stroke-width="1.33"/>
<circle id="param_restatt_8" cx="47.89" cy="204.33" r="0.5" fill="none" stroke="none"/>
<circle cx="150.24" cy="204.33" r="2.07" fill="#a89050" fill-opacity="0.6"/>
<circle cx="114.15" cy="204.33" r="7.97" fill="#e8e2d6" stroke="#5a9a94" stroke-width="1.48"/>
<line x1="114.15" y1="204.33" x2="114.15" y2="197.95" stroke="#5a5040" stroke-width="1.33"/>
<circle id="param_restatt_9" cx="114.15" cy="204.33" r="0.5" fill="none" stroke="none"/>
<circle cx="150.24" cy="204.33" r="2.07" fill="#a89050" fill-opacity="0.6"/>
<circle cx="47.89" cy="232.68" r="7.97" fill="#e8e2d6" stroke="#5a9a94" stroke-width="1.48"/>
<line x1="47.89" y1="232.68" x2="47.89" y2="226.3" stroke="#5a5040" stroke-width="1.33"/>
<circle id="param_restatt_10" cx="47.89" cy="232.68" r="0.5" fill="none" stroke="none"/>
<circle cx="150.24" cy="232.68" r="2.07" fill="#a89050" fill-opacity="0.6"/>
<circle cx="114.15" cy="232.68" r="7.97" fill="#e8e2d6" stroke="#5a9a94" stroke-width="1.48"/>
<line x1="114.15" y1="232.68" x2="114.15" y2="226.3" stroke="#5a5040" stroke-width="1.33"/>
<circle id="param_restatt_11" cx="114.15" cy="232.68" r="0.5" fill="none" stroke="none"/>
<circle cx="150.24" cy="232.68" r="2.07" fill="#a89050" fill-opacity="0.6"/>
<circle cx="47.89" cy="261.02" r="7.97" fill="#e8e2d6" stroke="#5a9a94" stroke-width="1.48"/>
<line x1="47.89" y1="261.02" x2="47.89" y2="254.65" stroke="#5a5040" stroke-width="1.33"/>
<circle id="param_restatt_12" cx="47.89" cy="261.02" r="0.5" fill="none" stroke="none"/>
<circle cx="150.24" cy="261.02" r="2.07" fill="#a89050" fill-opacity="0.6"/>
<circle cx="114.15" cy="261.02" r="7.97" fill="#e8e2d6" stroke="#5a9a94" stroke-width="1.48"/>
<line x1="114.15" y1="261.02" x2="114.15" y2="254.65" stroke="#5a5040" stroke-width="1.33"/>
<circle id="param_restatt_13" cx="114.15" cy="261.02" r="0.5" fill="none" stroke="none"/>
<circle cx="150.24" cy="261.02" r="2.07" fill="#a89050" fill-opacity="0.6"/>
<circle cx="47.89" cy="289.37" r="7.97" fill="#e8e2d6" stroke="#5a9a94" stroke-width="1.48"/>
<line x1="47.89" y1="289.37" x2="47.89" y2="282.99" stroke="#5a5040" stroke-width="1.33"/>
<circle id="param_restatt_14" cx="47.89" cy="289.37" r="0.5" fill="none" stroke="none"/>
<circle cx="150.24" cy="289.37" r="2.07" fill="#a89050" fill-opacity="0.6"/>
<circle cx="114.15" cy="289.37" r="7.97" fill="#e8e2d6" stroke="#5a9a94" stroke-width="1.48"/>
<line x1="114.15" y1="289.37" x2="114.15" y2="282.99" stroke="#5a5040" stroke-width="1.33"/>
<circle id="param_restatt_15" cx="114.15" cy="289.37" r="0.5" fill="none" stroke="none"/>
<circle cx="150.24" cy="289.37" r="2.07" fill="#a89050" fill-opacity="0.6"/>
<circle cx="215.85" cy="90.94" r="7.97" fill="#e8e2d6" stroke="#c88018" stroke-width="2.36"/>
<line x1="215.85" y1="90.94" x2="215.85" y2="84.57" stroke="#5a5040" stroke-width="1.33"/>
<circle cx="215.85" cy="90.94" r="10.93" fill="none" stroke="#d4001a" stroke-width="1.48" stroke-opacity="0.8"/>
<circle id="param_accatt_0" cx="215.85" cy="90.94" r="0.5" fill="none" stroke="none"/>
<circle cx="179.76" cy="90.94" r="2.07" fill="#8a7238" fill-opacity="1.0"/>
<circle cx="282.11" cy="90.94" r="7.97" fill="#e8e2d6" stroke="#c88018" stroke-width="1.48"/>
<line x1="282.11" y1="90.94" x2="282.11" y2="84.57" stroke="#5a5040" stroke-width="1.33"/>
<circle id="param_accatt_1" cx="282.11" cy="90.94" r="0.5" fill="none" stroke="none"/>
<circle cx="179.76" cy="90.94" r="2.07" fill="#a89050" fill-opacity="0.6"/>
<circle cx="215.85" cy="119.29" r="7.97" fill="#e8e2d6" stroke="#c88018" stroke-width="1.48"/>
<line x1="215.85" y1="119.29" x2="215.85" y2="112.91" stroke="#5a5040" stroke-width="1.33"/>
<circle id="param_accatt_2" cx="215.85" cy="119.29" r="0.5" fill="none" stroke="none"/>
<circle cx="179.76" cy="119.29" r="2.07" fill="#a89050" fill-opacity="0.6"/>
<circle cx="282.11" cy="119.29" r="7.97" fill="#e8e2d6" stroke="#c88018" stroke-width="1.48"/>
<line x1="282.11" y1="119.29" x2="282.11" y2="112.91" stroke="#5a5040" stroke-width="1.33"/>
<circle id="param_accatt_3" cx="282.11" cy="119.29" r="0.5" fill="none" stroke="none"/>
<circle cx="179.76" cy="119.29" r="2.07" fill="#a89050" fill-opacity="0.6"/>
<circle cx="215.85" cy="147.64" r="7.97" fill="#e8e2d6" stroke="#c88018" stroke-width="1.48"/>
<line x1="215.85" y1="147.64" x2="215.85" y2="141.26" stroke="#5a5040" stroke-width="1.33"/>
<circle id="param_accatt_4" cx="215.85" cy="147.64" r="0.5" fill="none" stroke="none"/>
<circle cx="179.76" cy="147.64" r="2.07" fill="#a89050" fill-opacity="0.6"/>
<circle cx="282.11" cy="147.64" r="7.97" fill="#e8e2d6" stroke="#c88018" stroke-width="1.48"/>
<line x1="282.11" y1="147.64" x2="282.11" y2="141.26" stroke="#5a5040" stroke-width="1.33"/>
<circle id="param_accatt_5" cx="282.11" cy="147.64" r="0.5" fill="none" stroke="none"/>
<circle cx="179.76" cy="147.64" r="2.07" fill="#a89050" fill-opacity="0.6"/>
<circle cx="215.85" cy="175.98" r="7.97" fill="#e8e2d6" stroke="#c88018" stroke-width="1.48"/>
<line x1="215.85" y1="175.98" x2="215.85" y2="169.61" stroke="#5a5040" stroke-width="1.33"/>
<circle id="param_accatt_6" cx="215.85" cy="175.98" r="0.5" fill="none" stroke="none"/>
<circle cx="179.76" cy="175.98" r="2.07" fill="#a89050" fill-opacity="0.6"/>
<circle cx="282.11" cy="175.98" r="7.97" fill="#e8e2d6" stroke="#c88018" stroke-width="1.48"/>
<line x1="282.11" y1="175.98" x2="282.11" y2="169.61" stroke="#5a5040" stroke-width="1.33"/>
<circle id="param_accatt_7" cx="282.11" cy="175.98" r="0.5" fill="none" stroke="none"/>
<circle cx="179.76" cy="175.98" r="2.07" fill="#a89050" fill-opacity="0.6"/>
<circle cx="215.85" cy="204.33" r="7.97" fill="#e8e2d6" stroke="#c88018" stroke-width="1.48"/>
<line x1="215.85" y1="204.33" x2="215.85" y2="197.95" stroke="#5a5040" stroke-width="1.33"/>
<circle id="param_accatt_8" cx="215.85" cy="204.33" r="0.5" fill="none" stroke="none"/>
<circle cx="179.76" cy="204.33" r="2.07" fill="#a89050" fill-opacity="0.6"/>
<circle cx="282.11" cy="204.33" r="7.97" fill="#e8e2d6" stroke="#c88018" stroke-width="1.48"/>
<line x1="282.11" y1="204.33" x2="282.11" y2="197.95" stroke="#5a5040" stroke-width="1.33"/>
<circle id="param_accatt_9" cx="282.11" cy="204.33" r="0.5" fill="none" stroke="none"/>
<circle cx="179.76" cy="204.33" r="2.07" fill="#a89050" fill-opacity="0.6"/>
<circle cx="215.85" cy="232.68" r="7.97" fill="#e8e2d6" stroke="#c88018" stroke-width="1.48"/>
<line x1="215.85" y1="232.68" x2="215.85" y2="226.3" stroke="#5a5040" stroke-width="1.33"/>
<circle id="param_accatt_10" cx="215.85" cy="232.68" r="0.5" fill="none" stroke="none"/>
<circle cx="179.76" cy="232.68" r="2.07" fill="#a89050" fill-opacity="0.6"/>
<circle cx="282.11" cy="232.68" r="7.97" fill="#e8e2d6" stroke="#c88018" stroke-width="1.48"/>
<line x1="282.11" y1="232.68" x2="282.11" y2="226.3" stroke="#5a5040" stroke-width="1.33"/>
<circle id="param_accatt_11" cx="282.11" cy="232.68" r="0.5" fill="none" stroke="none"/>
<circle cx="179.76" cy="232.68" r="2.07" fill="#a89050" fill-opacity="0.6"/>
<circle cx="215.85" cy="261.02" r="7.97" fill="#e8e2d6" stroke="#c88018" stroke-width="1.48"/>
<line x1="215.85" y1="261.02" x2="215.85" y2="254.65" stroke="#5a5040" stroke-width="1.33"/>
<circle id="param_accatt_12" cx="215.85" cy="261.02" r="0.5" fill="none" stroke="none"/>
<circle cx="179.76" cy="261.02" r="2.07" fill="#a89050" fill-opacity="0.6"/>
<circle cx="282.11" cy="261.02" r="7.97" fill="#e8e2d6" stroke="#c88018" stroke-width="1.48"/>
<line x1="282.11" y1="261.02" x2="282.11" y2="254.65" stroke="#5a5040" stroke-width="1.33"/>
<circle id="param_accatt_13" cx="282.11" cy="261.02" r="0.5" fill="none" stroke="none"/>
<circle cx="179.76" cy="261.02" r="2.07" fill="#a89050" fill-opacity="0.6"/>
<circle cx="215.85" cy="289.37" r="7.97" fill="#e8e2d6" stroke="#c88018" stroke-width="1.48"/>
<line x1="215.85" y1="289.37" x2="215.85" y2="282.99" stroke="#5a5040" stroke-width="1.33"/>
<circle id="param_accatt_14" cx="215.85" cy="289.37" r="0.5" fill="none" stroke="none"/>
<circle cx="179.76" cy="289.37" r="2.07" fill="#a89050" fill-opacity="0.6"/>
<circle cx="282.11" cy="289.37" r="7.97" fill="#e8e2d6" stroke="#c88018" stroke-width="1.48"/>
<line x1="282.11" y1="289.37" x2="282.11" y2="282.99" stroke="#5a5040" stroke-width="1.33"/>
<circle id="param_accatt_15" cx="282.11" cy="289.37" r="0.5" fill="none" stroke="none"/>
<circle cx="179.76" cy="289.37" r="2.07" fill="#a89050" fill-opacity="0.6"/>
<polyline points="14.76,315.35 31.46,317.47 48.15,318.31 64.84,317.35 81.54,315.18 98.23,313.12 114.92,312.41 131.61,313.49 148.31,315.7 165.0,317.7 181.69,318.28 198.39,317.08 215.08,314.84 231.77,312.91 248.46,312.46 265.16,313.77 281.85,316.04 298.54,317.89 315.24,318.21" fill="none" stroke="#7ba8c0" stroke-width="0.4" stroke-opacity="0.72"/>
<polyline points="14.76,327.91 31.46,328.9 48.15,327.04 64.84,323.47 81.54,320.35 98.23,319.57 114.92,321.61 131.61,325.23 148.31,328.23 165.0,328.79 181.69,326.58 198.39,322.93 215.08,320.06 231.77,319.71 248.46,322.09 265.16,325.76 281.85,328.49 298.54,328.63 315.24,326.09" fill="none" stroke="#7ba8c0" stroke-width="0.4" stroke-opacity="0.72"/>
<polyline points="14.76,335.95 31.46,334.59 48.15,332.32 64.84,330.5 81.54,330.24 98.23,331.7 114.92,333.99 131.61,335.72 148.31,335.85 165.0,334.29 181.69,331.99 198.39,330.35 215.08,330.36 231.77,332.01 248.46,334.31 265.16,335.86 281.85,335.71 298.54,333.97 315.24,331.68" fill="none" stroke="#7ba8c0" stroke-width="0.4" stroke-opacity="0.72"/>
<polyline points="14.76,343.95 31.46,340.27 48.15,337.6 64.84,337.56 81.54,340.16 98.23,343.84 114.92,346.36 131.61,346.19 148.31,343.44 165.0,339.77 181.69,337.41 198.39,337.79 215.08,340.69 231.77,344.33 248.46,346.52 265.16,345.92 281.85,342.9 298.54,339.29 315.24,337.28" fill="none" stroke="#7ba8c0" stroke-width="0.4" stroke-opacity="0.72"/>
<polyline points="14.76,349.48 31.46,347.98 48.15,348.18 64.84,349.96 81.54,352.25 98.23,353.65 114.92,353.31 131.61,351.45 148.31,349.18 165.0,347.89 181.69,348.36 198.39,350.3 215.08,352.54 231.77,353.71 248.46,353.11 265.16,351.11 281.85,348.9 298.54,347.84 315.24,348.57" fill="none" stroke="#7ba8c0" stroke-width="0.4" stroke-opacity="0.72"/>
<circle cx="306.38" cy="353.74" r="4.72" fill="#e2ddd2" stroke="#b0a898" stroke-width="0.3"/>
<circle id="light_connect" cx="306.38" cy="353.74" r="0.5" fill="none" stroke="none"/>
</svg>