<svg xmlns="http://www.w3.org/2000/svg" width="210.0" height="379.43" viewBox="0 0 210.0 379.43">
<rect width="210.0" height="379.43" fill="#dcdcdc"/>
<rect x="0" y="0" width="210.0" height="3.54" fill="#d4001a"/>
<circle cx="198.19" cy="17.72" r="4.72" fill="#d4001a"/>
<line x1="0" y1="44.29" x2="210.0" y2="44.29" stroke="#bcbcbc" stroke-width="1" opacity="0.7"/>
<rect x="59.59" y="48.72" width="23.62" height="5.91" fill="#1c7a70" opacity="0.6"/>
<rect x="126.79" y="48.72" width="23.62" height="5.91" fill="#a07a00" opacity="0.6"/>
<circle cx="71.4" cy="59.06" r="9.57" fill="#e8e2d6" stroke="#1c7a70" stroke-width="1.25"/>
<line x1="71.4" y1="59.06" x2="71.4" y2="50.96" stroke="#1c7a70" stroke-width="1"/>
<circle id="param_restatt_global" cx="71.4" cy="59.06" r="0.5" fill="none" stroke="none"/>
<circle cx="138.6" cy="59.06" r="9.57" fill="#e8e2d6" stroke="#a07a00" stroke-width="1.25"/>
<line x1="138.6" y1="59.06" x2="138.6" y2="50.96" stroke="#a07a00" stroke-width="1"/>
<circle id="param_accatt_global" cx="138.6" cy="59.06" r="0.5" fill="none" stroke="none"/>
<line x1="11.81" y1="73.82" x2="198.19" y2="73.82" stroke="#bcbcbc" stroke-width="0.75" opacity="0.5"/>
<circle cx="71.4" cy="88.58" r="7.09" fill="#e8e2d6" stroke="#1c7a70" stroke-width="1.25"/>
<line x1="71.4" y1="88.58" x2="71.4" y2="82.97" stroke="#1c7a70" stroke-width="1"/>
<circle id="param_restatt_0" cx="71.4" cy="88.58" r="0.5" fill="none" stroke="none"/>
<circle cx="138.6" cy="88.58" r="7.09" fill="#e8e2d6" stroke="#a07a00" stroke-width="1.25"/>
<line x1="138.6" y1="88.58" x2="138.6" y2="82.97" stroke="#a07a00" stroke-width="1"/>
<circle id="param_accatt_0" cx="138.6" cy="88.58" r="0.5" fill="none" stroke="none"/>
<circle cx="71.4" cy="106.3" r="7.09" fill="#e8e2d6" stroke="#1c7a70" stroke-width="1.25"/>
<line x1="71.4" y1="106.3" x2="71.4" y2="100.69" stroke="#1c7a70" stroke-width="1"/>
<circle id="param_restatt_1" cx="71.4" cy="106.3" r="0.5" fill="none" stroke="none"/>
<circle cx="138.6" cy="106.3" r="7.09" fill="#e8e2d6" stroke="#a07a00" stroke-width="1.25"/>
<line x1="138.6" y1="106.3" x2="138.6" y2="100.69" stroke="#a07a00" stroke-width="1"/>
<circle id="param_accatt_1" cx="138.6" cy="106.3" r="0.5" fill="none" stroke="none"/>
<circle cx="71.4" cy="124.02" r="7.09" fill="#e8e2d6" stroke="#1c7a70" stroke-width="1.25"/>
<line x1="71.4" y1="124.02" x2="71.4" y2="118.41" stroke="#1c7a70" stroke-width="1"/>
<circle id="param_restatt_2" cx="71.4" cy="124.02" r="0.5" fill="none" stroke="none"/>
<circle cx="138.6" cy="124.02" r="7.09" fill="#e8e2d6" stroke="#a07a00" stroke-width="1.25"/>
<line x1="138.6" y1="124.02" x2="138.6" y2="118.41" stroke="#a07a00" stroke-width="1"/>
<circle id="param_accatt_2" cx="138.6" cy="124.02" r="0.5" fill="none" stroke="none"/>
<circle cx="71.4" cy="141.73" r="7.09" fill="#e8e2d6" stroke="#1c7a70" stroke-width="1.25"/>
<line x1="71.4" y1="141.73" x2="71.4" y2="136.12" stroke="#1c7a70" stroke-width="1"/>
<circle id="param_restatt_3" cx="71.4" cy="141.73" r="0.5" fill="none" stroke="none"/>
<circle cx="138.6" cy="141.73" r="7.09" fill="#e8e2d6" stroke="#a07a00" stroke-width="1.25"/>
<line x1="138.6" y1="141.73" x2="138.6" y2="136.12" stroke="#a07a00" stroke-width="1"/>
<circle id="param_accatt_3" cx="138.6" cy="141.73" r="0.5" fill="none" stroke="none"/>
<circle cx="71.4" cy="159.45" r="7.09" fill="#e8e2d6" stroke="#1c7a70" stroke-width="1.25"/>
<line x1="71.4" y1="159.45" x2="71.4" y2="153.84" stroke="#1c7a70" stroke-width="1"/>
<circle id="param_restatt_4" cx="71.4" cy="159.45" r="0.5" fill="none" stroke="none"/>
<circle cx="138.6" cy="159.45" r="7.09" fill="#e8e2d6" stroke="#a07a00" stroke-width="1.25"/>
<line x1="138.6" y1="159.45" x2="138.6" y2="153.84" stroke="#a07a00" stroke-width="1"/>
<circle id="param_accatt_4" cx="138.6" cy="159.45" r="0.5" fill="none" stroke="none"/>
<circle cx="71.4" cy="177.17" r="7.09" fill="#e8e2d6" stroke="#1c7a70" stroke-width="1.25"/>
<line x1="71.4" y1="177.17" x2="71.4" y2="171.56" stroke="#1c7a70" stroke-width="1"/>
<circle id="param_restatt_5" cx="71.4" cy="177.17" r="0.5" fill="none" stroke="none"/>
<circle cx="138.6" cy="177.17" r="7.09" fill="#e8e2d6" stroke="#a07a00" stroke-width="1.25"/>
<line x1="138.6" y1="177.17" x2="138.6" y2="171.56" stroke="#a07a00" stroke-width="1"/>
<circle id="param_accatt_5" cx="138.6" cy="177.17" r="0.5" fill="none" stroke="none"/>
<circle cx="71.4" cy="194.88" r="7.09" fill="#e8e2d6" stroke="#1c7a70" stroke-width="1.25"/>
<line x1="71.4" y1="194.88" x2="71.4" y2="189.27" stroke="#1c7a70" stroke-width="1"/>
<circle id="param_restatt_6" cx="71.4" cy="194.88" r="0.5" fill="none" stroke="none"/>
<circle cx="138.6" cy="194.88" r="7.09" fill="#e8e2d6" stroke="#a07a00" stroke-width="1.25"/>
<line x1="138.6" y1="194.88" x2="138.6" y2="189.27" stroke="#a07a00" stroke-width="1"/>
<circle id="param_accatt_6" cx="138.6" cy="194.88" r="0.5" fill="none" stroke="none"/>
<circle cx="71.4" cy="212.6" r="7.09" fill="#e8e2d6" stroke="#1c7a70" stroke-width="1.25"/>
<line x1="71.4" y1="212.6" x2="71.4" y2="206.99" stroke="#1c7a70" stroke-width="1"/>
<circle id="param_restatt_7" cx="71.4" cy="212.6" r="0.5" fill="none" stroke="none"/>
<circle cx="138.6" cy="212.6" r="7.09" fill="#e8e2d6" stroke="#a07a00" stroke-width="1.25"/>
<line x1="138.6" y1="212.6" x2="138.6" y2="206.99" stroke="#a07a00" stroke-width="1"/>
<circle id="param_accatt_7" cx="138.6" cy="212.6" r="0.5" fill="none" stroke="none"/>
<circle cx="71.4" cy="230.31" r="7.09" fill="#e8e2d6" stroke="#1c7a70" stroke-width="1.25"/>
<line x1="71.4" y1="230.31" x2="71.4" y2="224.7" stroke="#1c7a70" stroke-width="1"/>
<circle id="param_restatt_8" cx="71.4" cy="230.31" r="0.5" fill="none" stroke="none"/>
<circle cx="138.6" cy="230.31" r="7.09" fill="#e8e2d6" stroke="#a07a00" stroke-width="1.25"/>
<line x1="138.6" y1="230.31" x2="138.6" y2="224.7" stroke="#a07a00" stroke-width="1"/>
<circle id="param_accatt_8" cx="138.6" cy="230.31" r="0.5" fill="none" stroke="none"/>
<circle cx="71.4" cy="248.03" r="7.09" fill="#e8e2d6" stroke="#1c7a70" stroke-width="1.25"/>
<line x1="71.4" y1="248.03" x2="71.4" y2="242.42" stroke="#1c7a70" stroke-width="1"/>
<circle id="param_restatt_9" cx="71.4" cy="248.03" r="0.5" fill="none" stroke="none"/>
<circle cx="138.6" cy="248.03" r="7.09" fill="#e8e2d6" stroke="#a07a00" stroke-width="1.25"/>
<line x1="138.6" y1="248.03" x2="138.6" y2="242.42" stroke="#a07a00" stroke-width="1"/>
<circle id="param_accatt_9" cx="138.6" cy="248.03" r="0.5" fill="none" stroke="none"/>
<circle cx="71.4" cy="265.75" r="7.09" fill="#e8e2d6" stroke="#1c7a70" stroke-width="1.25"/>
<line x1="71.4" y1="265.75" x2="71.4" y2="260.14" stroke="#1c7a70" stroke-width="1"/>
<circle id="param_restatt_10" cx="71.4" cy="265.75" r="0.5" fill="none" stroke="none"/>
<circle cx="138.6" cy="265.75" r="7.09" fill="#e8e2d6" stroke="#a07a00" stroke-width="1.25"/>
<line x1="138.6" y1="265.75" x2="138.6" y2="260.14" stroke="#a07a00" stroke-width="1"/>
<circle id="param_accatt_10" cx="138.6" cy="265.75" r="0.5" fill="none" stroke="none"/>
<circle cx="71.4" cy="283.46" r="7.09" fill="#e8e2d6" stroke="#1c7a70" stroke-width="1.25"/>
<line x1="71.4" y1="283.46" x2="71.4" y2="277.85" stroke="#1c7a70" stroke-width="1"/>
<circle id="param_restatt_11" cx="71.4" cy="283.46" r="0.5" fill="none" stroke="none"/>
<circle cx="138.6" cy="283.46" r="7.09" fill="#e8e2d6" stroke="#a07a00" stroke-width="1.25"/>
<line x1="138.6" y1="283.46" x2="138.6" y2="277.85" stroke="#a07a00" stroke-width="1"/>
<circle id="param_accatt_11" cx="138.6" cy="283.46" r="0.5" fill="none" stroke="none"/>
<circle cx="71.4" cy="301.18" r="7.09" fill="#e8e2d6" stroke="#1c7a70" stroke-width="1.25"/>
<line x1="71.4" y1="301.18" x2="71.4" y2="295.57" stroke="#1c7a70" stroke-width="1"/>
<circle id="param_restatt_12" cx="71.4" cy="301.18" r="0.5" fill="none" stroke="none"/>
<circle cx="138.6" cy="301.18" r="7.09" fill="#e8e2d6" stroke="#a07a00" stroke-width="1.25"/>
<line x1="138.6" y1="301.18" x2="138.6" y2="295.57" stroke="#a07a00" stroke-width="1"/>
<circle id="param_accatt_12" cx="138.6" cy="301.18" r="0.5" fill="none" stroke="none"/>
<circle cx="71.4" cy="318.9" r="7.09" fill="#e8e2d6" stroke="#1c7a70" stroke-width="1.25"/>
<line x1="71.4" y1="318.9" x2="71.4" y2="313.29" stroke="#1c7a70" stroke-width="1"/>
<circle id="param_restatt_13" cx="71.4" cy="318.9" r="0.5" fill="none" stroke="none"/>
<circle cx="138.6" cy="318.9" r="7.09" fill="#e8e2d6" stroke="#a07a00" stroke-width="1.25"/>
<line x1="138.6" y1="318.9" x2="138.6" y2="313.29" stroke="#a07a00" stroke-width="1"/>
<circle id="param_accatt_13" cx="138.6" cy="318.9" r="0.5" fill="none" stroke="none"/>
<circle cx="71.4" cy="336.61" r="7.09" fill="#e8e2d6" stroke="#1c7a70" stroke-width="1.25"/>
<line x1="71.4" y1="336.61" x2="71.4" y2="331.0" stroke="#1c7a70" stroke-width="1"/>
<circle id="param_restatt_14" cx="71.4" cy="336.61" r="0.5" fill="none" stroke="none"/>
<circle cx="138.6" cy="336.61" r="7.09" fill="#e8e2d6" stroke="#a07a00" stroke-width="1.25"/>
<line x1="138.6" y1="336.61" x2="138.6" y2="331.0" stroke="#a07a00" stroke-width="1"/>
<circle id="param_accatt_14" cx="138.6" cy="336.61" r="0.5" fill="none" stroke="none"/>
<circle cx="71.4" cy="372.05" r="11.52" fill="#e2ddd2" stroke="#b0a898" stroke-width="1"/>
<circle id="input_restcv" cx="71.4" cy="372.05" r="0.5" fill="none" stroke="none"/>
<circle cx="138.6" cy="372.05" r="11.52" fill="#e2ddd2" stroke="#b0a898" stroke-width="1"/>
<circle id="input_accentcv" cx="138.6" cy="372.05" r="0.5" fill="none" stroke="none"/>
<circle id="light_connect" cx="105.0" cy="26.57" r="0.5" fill="none" stroke="none"/>
</svg>