<svg xmlns="http://www.w3.org/2000/svg" width="240.0" height="379.43" viewBox="0 0 240.0 379.43">
<rect width="240.0" height="379.43" fill="#16181c"/>
<rect x="0" y="0" width="240.0" height="3.54" fill="#d4001a"/>
<circle cx="228.19" cy="17.72" r="4.72" fill="#d4001a"/>
<line x1="0" y1="44.29" x2="240.0" y2="44.29" stroke="#33373d" stroke-width="1" opacity="0.7"/>
<rect x="19.94" y="53.15" width="17.72" height="5.31" fill="#6c8cd4" opacity="0.6"/>
<rect x="53.54" y="53.15" width="17.72" height="5.31" fill="#26a69a" opacity="0.6"/>
<rect x="87.14" y="53.15" width="17.72" height="5.31" fill="#c8960c" opacity="0.6"/>
<rect x="135.14" y="53.15" width="17.72" height="5.31" fill="#6c8cd4" opacity="0.6"/>
<rect x="168.74" y="53.15" width="17.72" height="5.31" fill="#26a69a" opacity="0.6"/>
<rect x="202.34" y="53.15" width="17.72" height="5.31" fill="#c8960c" opacity="0.6"/>
<circle cx="28.8" cy="64.96" r="10.04" fill="#0c0e11" stroke="#6c8cd4" stroke-width="1"/>
<circle id="output_gate_0" cx="28.8" cy="64.96" r="0.5" fill="none" stroke="none"/>
<circle cx="62.4" cy="64.96" r="10.04" fill="#0c0e11" stroke="#26a69a" stroke-width="1"/>
<circle id="output_cv_0" cx="62.4" cy="64.96" r="0.5" fill="none" stroke="none"/>
<circle cx="96.0" cy="64.96" r="10.04" fill="#0c0e11" stroke="#c8960c" stroke-width="1"/>
<circle id="output_accent_0" cx="96.0" cy="64.96" r="0.5" fill="none" stroke="none"/>
<circle cx="28.8" cy="91.54" r="10.04" fill="#0c0e11" stroke="#6c8cd4" stroke-width="1"/>
<circle id="output_gate_1" cx="28.8" cy="91.54" r="0.5" fill="none" stroke="none"/>
<circle cx="62.4" cy="91.54" r="10.04" fill="#0c0e11" stroke="#26a69a" stroke-width="1"/>
<circle id="output_cv_1" cx="62.4" cy="91.54" r="0.5" fill="none" stroke="none"/>
<circle cx="96.0" cy="91.54" r="10.04" fill="#0c0e11" stroke="#c8960c" stroke-width="1"/>
<circle id="output_accent_1" cx="96.0" cy="91.54" r="0.5" fill="none" stroke="none"/>
<circle cx="28.8" cy="118.11" r="10.04" fill="#0c0e11" stroke="#6c8cd4" stroke-width="1"/>
<circle id="output_gate_2" cx="28.8" cy="118.11" r="0.5" fill="none" stroke="none"/>
<circle cx="62.4" cy="118.11" r="10.04" fill="#0c0e11" stroke="#26a69a" stroke-width="1"/>
<circle id="output_cv_2" cx="62.4" cy="118.11" r="0.5" fill="none" stroke="none"/>
<circle cx="96.0" cy="118.11" r="10.04" fill="#0c0e11" stroke="#c8960c" stroke-width="1"/>
<circle id="output_accent_2" cx="96.0" cy="118.11" r="0.5" fill="none" stroke="none"/>
<circle cx="28.8" cy="144.69" r="10.04" fill="#0c0e11" stroke="#6c8cd4" stroke-width="1"/>
<circle id="output_gate_3" cx="28.8" cy="144.69" r="0.5" fill="none" stroke="none"/>
<circle cx="62.4" cy="144.69" r="10.04" fill="#0c0e11" stroke="#26a69a" stroke-width="1"/>
<circle id="output_cv_3" cx="62.4" cy="144.69" r="0.5" fill="none" stroke="none"/>
<circle cx="96.0" cy="144.69" r="10.04" fill="#0c0e11" stroke="#c8960c" stroke-width="1"/>
<circle id="output_accent_3" cx="96.0" cy="144.69" r="0.5" fill="none" stroke="none"/>
<circle cx="28.8" cy="171.26" r="10.04" fill="#0c0e11" stroke="#6c8cd4" stroke-width="1"/>
<circle id="output_gate_4" cx="28.8" cy="171.26" r="0.5" fill="none" stroke="none"/>
<circle cx="62.4" cy="171.26" r="10.04" fill="#0c0e11" stroke="#26a69a" stroke-width="1"/>
<circle id="output_cv_4" cx="62.4" cy="171.26" r="0.5" fill="none" stroke="none"/>
<circle cx="96.0" cy="171.26" r="10.04" fill="#0c0e11" stroke="#c8960c" stroke-width="1"/>
<circle id="output_accent_4" cx="96.0" cy="171.26" r="0.5" fill="none" stroke="none"/>
<circle cx="28.8" cy="197.83" r="10.04" fill="#0c0e11" stroke="#6c8cd4" stroke-width="1"/>
<circle id="output_gate_5" cx="28.8" cy="197.83" r="0.5" fill="none" stroke="none"/>
<circle cx="62.4" cy="197.83" r="10.04" fill="#0c0e11" stroke="#26a69a" stroke-width="1"/>
<circle id="output_cv_5" cx="62.4" cy="197.83" r="0.5" fill="none" stroke="none"/>
<circle cx="96.0" cy="197.83" r="10.04" fill="#0c0e11" stroke="#c8960c" stroke-width="1"/>
<circle id="output_accent_5" cx="96.0" cy="197.83" r="0.5" fill="none" stroke="none"/>
<circle cx="28.8" cy="224.41" r="10.04" fill="#0c0e11" stroke="#6c8cd4" stroke-width="1"/>
<circle id="output_gate_6" cx="28.8" cy="224.41" r="0.5" fill="none" stroke="none"/>
<circle cx="62.4" cy="224.41" r="10.04" fill="#0c0e11" stroke="#26a69a" stroke-width="1"/>
<circle id="output_cv_6" cx="62.4" cy="224.41" r="0.5" fill="none" stroke="none"/>
<circle cx="96.0" cy="224.41" r="10.04" fill="#0c0e11" stroke="#c8960c" stroke-width="1"/>
<circle id="output_accent_6" cx="96.0" cy="224.41" r="0.5" fill="none" stroke="none"/>
<circle cx="28.8" cy="250.98" r="10.04" fill="#0c0e11" stroke="#6c8cd4" stroke-width="1"/>
<circle id="output_gate_7" cx="28.8" cy="250.98" r="0.5" fill="none" stroke="none"/>
<circle cx="62.4" cy="250.98" r="10.04" fill="#0c0e11" stroke="#26a69a" stroke-width="1"/>
<circle id="output_cv_7" cx="62.4" cy="250.98" r="0.5" fill="none" stroke="none"/>
<circle cx="96.0" cy="250.98" r="10.04" fill="#0c0e11" stroke="#c8960c" stroke-width="1"/>
<circle id="output_accent_7" cx="96.0" cy="250.98" r="0.5" fill="none" stroke="none"/>
<circle cx="144.0" cy="64.96" r="10.04" fill="#0c0e11" stroke="#6c8cd4" stroke-width="1"/>
<circle id="output_gate_8" cx="144.0" cy="64.96" r="0.5" fill="none" stroke="none"/>
<circle cx="177.6" cy="64.96" r="10.04" fill="#0c0e11" stroke="#26a69a" stroke-width="1"/>
<circle id="output_cv_8" cx="177.6" cy="64.96" r="0.5" fill="none" stroke="none"/>
<circle cx="211.2" cy="64.96" r="10.04" fill="#0c0e11" stroke="#c8960c" stroke-width="1"/>
<circle id="output_accent_8" cx="211.2" cy="64.96" r="0.5" fill="none" stroke="none"/>
<circle cx="144.0" cy="91.54" r="10.04" fill="#0c0e11" stroke="#6c8cd4" stroke-width="1"/>
<circle id="output_gate_9" cx="144.0" cy="91.54" r="0.5" fill="none" stroke="none"/>
<circle cx="177.6" cy="91.54" r="10.04" fill="#0c0e11" stroke="#26a69a" stroke-width="1"/>
<circle id="output_cv_9" cx="177.6" cy="91.54" r="0.5" fill="none" stroke="none"/>
<circle cx="211.2" cy="91.54" r="10.04" fill="#0c0e11" stroke="#c8960c" stroke-width="1"/>
<circle id="output_accent_9" cx="211.2" cy="91.54" r="0.5" fill="none" stroke="none"/>
<circle cx="144.0" cy="118.11" r="10.04" fill="#0c0e11" stroke="#6c8cd4" stroke-width="1"/>
<circle id="output_gate_10" cx="144.0" cy="118.11" r="0.5" fill="none" stroke="none"/>
<circle cx="177.6" cy="118.11" r="10.04" fill="#0c0e11" stroke="#26a69a" stroke-width="1"/>
<circle id="output_cv_10" cx="177.6" cy="118.11" r="0.5" fill="none" stroke="none"/>
<circle cx="211.2" cy="118.11" r="10.04" fill="#0c0e11" stroke="#c8960c" stroke-width="1"/>
<circle id="output_accent_10" cx="211.2" cy="118.11" r="0.5" fill="none" stroke="none"/>
<circle cx="144.0" cy="144.69" r="10.04" fill="#0c0e11" stroke="#6c8cd4" stroke-width="1"/>
<circle id="output_gate_11" cx="144.0" cy="144.69" r="0.5" fill="none" stroke="none"/>
<circle cx="177.6" cy="144.69" r="10.04" fill="#0c0e11" stroke="#26a69a" stroke-width="1"/>
<circle id="output_cv_11" cx="177.6" cy="144.69" r="0.5" fill="none" stroke="none"/>
<circle cx="211.2" cy="144.69" r="10.04" fill="#0c0e11" stroke="#c8960c" stroke-width="1"/>
<circle id="output_accent_11" cx="211.2" cy="144.69" r="0.5" fill="none" stroke="none"/>
<circle cx="144.0" cy="171.26" r="10.04" fill="#0c0e11" stroke="#6c8cd4" stroke-width="1"/>
<circle id="output_gate_12" cx="144.0" cy="171.26" r="0.5" fill="none" stroke="none"/>
<circle cx="177.6" cy="171.26" r="10.04" fill="#0c0e11" stroke="#26a69a" stroke-width="1"/>
<circle id="output_cv_12" cx="177.6" cy="171.26" r="0.5" fill="none" stroke="none"/>
<circle cx="211.2" cy="171.26" r="10.04" fill="#0c0e11" stroke="#c8960c" stroke-width="1"/>
<circle id="output_accent_12" cx="211.2" cy="171.26" r="0.5" fill="none" stroke="none"/>
<circle cx="144.0" cy="197.83" r="10.04" fill="#0c0e11" stroke="#6c8cd4" stroke-width="1"/>
<circle id="output_gate_13" cx="144.0" cy="197.83" r="0.5" fill="none" stroke="none"/>
<circle cx="177.6" cy="197.83" r="10.04" fill="#0c0e11" stroke="#26a69a" stroke-width="1"/>
<circle id="output_cv_13" cx="177.6" cy="197.83" r="0.5" fill="none" stroke="none"/>
<circle cx="211.2" cy="197.83" r="10.04" fill="#0c0e11" stroke="#c8960c" stroke-width="1"/>
<circle id="output_accent_13" cx="211.2" cy="197.83" r="0.5" fill="none" stroke="none"/>
<circle cx="144.0" cy="224.41" r="10.04" fill="#0c0e11" stroke="#6c8cd4" stroke-width="1"/>
<circle id="output_gate_14" cx="144.0" cy="224.41" r="0.5" fill="none" stroke="none"/>
<circle cx="177.6" cy="224.41" r="10.04" fill="#0c0e11" stroke="#26a69a" stroke-width="1"/>
<circle id="output_cv_14" cx="177.6" cy="224.41" r="0.5" fill="none" stroke="none"/>
<circle cx="211.2" cy="224.41" r="10.04" fill="#0c0e11" stroke="#c8960c" stroke-width="1"/>
<circle id="output_accent_14" cx="211.2" cy="224.41" r="0.5" fill="none" stroke="none"/>
<circle id="light_connect" cx="120.0" cy="26.57" r="0.5" fill="none" stroke="none"/>
</svg>