<svg width="345.0" height="379.43" viewBox="0 0 116.840 128.500" xmlns="http://www.w3.org/2000/svg">
<rect width="116.840" height="128.500" fill="#e4e0d0"/>
<rect width="116.840" height="2.0" fill="#d4001a"/>
<rect x="13.420" y="17.000" width="99.500" height="99.500" fill="#0d100b"/>
<rect x="13.420" y="23.219" width="99.500" height="6.219" fill="#111410" opacity="0.8"/>
<rect x="13.420" y="35.656" width="99.500" height="6.219" fill="#111410" opacity="0.8"/>
<rect x="13.420" y="48.094" width="99.500" height="6.219" fill="#111410" opacity="0.8"/>
<rect x="13.420" y="60.531" width="99.500" height="6.219" fill="#111410" opacity="0.8"/>
<rect x="13.420" y="72.969" width="99.500" height="6.219" fill="#111410" opacity="0.8"/>
<rect x="13.420" y="85.406" width="99.500" height="6.219" fill="#111410" opacity="0.8"/>
<rect x="13.420" y="97.844" width="99.500" height="6.219" fill="#111410" opacity="0.8"/>
<rect x="13.420" y="110.281" width="99.500" height="6.219" fill="#111410" opacity="0.8"/>
<line x1="13.420" y1="17.000" x2="13.420" y2="116.500" stroke="#1e2420" stroke-width="0.4"/>
<line x1="13.420" y1="17.000" x2="112.920" y2="17.000" stroke="#1e2420" stroke-width="0.4"/>
<line x1="19.639" y1="17.000" x2="19.639" y2="116.500" stroke="#1e2420" stroke-width="0.4"/>
<line x1="13.420" y1="23.219" x2="112.920" y2="23.219" stroke="#1e2420" stroke-width="0.4"/>
<line x1="25.858" y1="17.000" x2="25.858" y2="116.500" stroke="#1e2420" stroke-width="0.4"/>
<line x1="13.420" y1="29.438" x2="112.920" y2="29.438" stroke="#1e2420" stroke-width="0.4"/>
<line x1="32.076" y1="17.000" x2="32.076" y2="116.500" stroke="#1e2420" stroke-width="0.4"/>
<line x1="13.420" y1="35.656" x2="112.920" y2="35.656" stroke="#1e2420" stroke-width="0.4"/>
<line x1="38.295" y1="17.000" x2="38.295" y2="116.500" stroke="#1e2420" stroke-width="0.4"/>
<line x1="13.420" y1="41.875" x2="112.920" y2="41.875" stroke="#1e2420" stroke-width="0.4"/>
<line x1="44.514" y1="17.000" x2="44.514" y2="116.500" stroke="#1e2420" stroke-width="0.4"/>
<line x1="13.420" y1="48.094" x2="112.920" y2="48.094" stroke="#1e2420" stroke-width="0.4"/>
<line x1="50.733" y1="17.000" x2="50.733" y2="116.500" stroke="#1e2420" stroke-width="0.4"/>
<line x1="13.420" y1="54.312" x2="112.920" y2="54.312" stroke="#1e2420" stroke-width="0.4"/>
<line x1="56.951" y1="17.000" x2="56.951" y2="116.500" stroke="#1e2420" stroke-width="0.4"/>
<line x1="13.420" y1="60.531" x2="112.920" y2="60.531" stroke="#1e2420" stroke-width="0.4"/>
<line x1="63.170" y1="17.000" x2="63.170" y2="116.500" stroke="#1e2420" stroke-width="0.4"/>
<line x1="13.420" y1="66.750" x2="112.920" y2="66.750" stroke="#1e2420" stroke-width="0.4"/>
<line x1="69.389" y1="17.000" x2="69.389" y2="116.500" stroke="#1e2420" stroke-width="0.4"/>
<line x1="13.420" y1="72.969" x2="112.920" y2="72.969" stroke="#1e2420" stroke-width="0.4"/>
<line x1="75.608" y1="17.000" x2="75.608" y2="116.500" stroke="#1e2420" stroke-width="0.4"/>
<line x1="13.420" y1="79.188" x2="112.920" y2="79.188" stroke="#1e2420" stroke-width="0.4"/>
<line x1="81.826" y1="17.000" x2="81.826" y2="116.500" stroke="#1e2420" stroke-width="0.4"/>
<line x1="13.420" y1="85.406" x2="112.920" y2="85.406" stroke="#1e2420" stroke-width="0.4"/>
<line x1="88.045" y1="17.000" x2="88.045" y2="116.500" stroke="#1e2420" stroke-width="0.4"/>
<line x1="13.420" y1="91.625" x2="112.920" y2="91.625" stroke="#1e2420" stroke-width="0.4"/>
<line x1="94.264" y1="17.000" x2="94.264" y2="116.500" stroke="#1e2420" stroke-width="0.4"/>
<line x1="13.420" y1="97.844" x2="112.920" y2="97.844" stroke="#1e2420" stroke-width="0.4"/>
<line x1="100.483" y1="17.000" x2="100.483" y2="116.500" stroke="#1e2420" stroke-width="0.4"/>
<line x1="13.420" y1="104.062" x2="112.920" y2="104.062" stroke="#1e2420" stroke-width="0.4"/>
<line x1="106.701" y1="17.000" x2="106.701" y2="116.500" stroke="#1e2420" stroke-width="0.4"/>
<line x1="13.420" y1="110.281" x2="112.920" y2="110.281" stroke="#1e2420" stroke-width="0.4"/>
<line x1="112.920" y1="17.000" x2="112.920" y2="116.500" stroke="#1e2420" stroke-width="0.4"/>
<line x1="13.420" y1="116.500" x2="112.920" y2="116.500" stroke="#1e2420" stroke-width="0.4"/>
</svg>