<svg width="91.440" height="128.500" viewBox="0 0 91.440 128.500" xmlns="http://www.w3.org/2000/svg">
<rect width="91.440" height="128.500" fill="#080a07"/>
<rect width="91.440" height="2.0" fill="#d4001a"/>
<rect x="13.000" y="14.000" width="74.940" height="100.500" fill="#0d100b"/>
<rect x="13.000" y="20.281" width="74.940" height="6.281" fill="#111410" opacity="0.8"/>
<rect x="13.000" y="32.844" width="74.940" height="6.281" fill="#111410" opacity="0.8"/>
<rect x="13.000" y="45.406" width="74.940" height="6.281" fill="#111410" opacity="0.8"/>
<rect x="13.000" y="57.969" width="74.940" height="6.281" fill="#111410" opacity="0.8"/>
<rect x="13.000" y="70.531" width="74.940" height="6.281" fill="#111410" opacity="0.8"/>
<rect x="13.000" y="83.094" width="74.940" height="6.281" fill="#111410" opacity="0.8"/>
<rect x="13.000" y="95.656" width="74.940" height="6.281" fill="#111410" opacity="0.8"/>
<rect x="13.000" y="108.219" width="74.940" height="6.281" fill="#111410" opacity="0.8"/>
<line x1="13.000" y1="14.000" x2="13.000" y2="114.500" stroke="#1e2420" stroke-width="0.4"/>
<line x1="13.000" y1="14.000" x2="87.940" y2="14.000" stroke="#1e2420" stroke-width="0.4"/>
<line x1="17.684" y1="14.000" x2="17.684" y2="114.500" stroke="#1e2420" stroke-width="0.4"/>
<line x1="13.000" y1="20.281" x2="87.940" y2="20.281" stroke="#1e2420" stroke-width="0.4"/>
<line x1="22.367" y1="14.000" x2="22.367" y2="114.500" stroke="#1e2420" stroke-width="0.4"/>
<line x1="13.000" y1="26.562" x2="87.940" y2="26.562" stroke="#1e2420" stroke-width="0.4"/>
<line x1="27.051" y1="14.000" x2="27.051" y2="114.500" stroke="#1e2420" stroke-width="0.4"/>
<line x1="13.000" y1="32.844" x2="87.940" y2="32.844" stroke="#1e2420" stroke-width="0.4"/>
<line x1="31.735" y1="14.000" x2="31.735" y2="114.500" stroke="#1e2420" stroke-width="0.4"/>
<line x1="13.000" y1="39.125" x2="87.940" y2="39.125" stroke="#1e2420" stroke-width="0.4"/>
<line x1="36.419" y1="14.000" x2="36.419" y2="114.500" stroke="#1e2420" stroke-width="0.4"/>
<line x1="13.000" y1="45.406" x2="87.940" y2="45.406" stroke="#1e2420" stroke-width="0.4"/>
<line x1="41.102" y1="14.000" x2="41.102" y2="114.500" stroke="#1e2420" stroke-width="0.4"/>
<line x1="13.000" y1="51.688" x2="87.940" y2="51.688" stroke="#1e2420" stroke-width="0.4"/>
<line x1="45.786" y1="14.000" x2="45.786" y2="114.500" stroke="#1e2420" stroke-width="0.4"/>
<line x1="13.000" y1="57.969" x2="87.940" y2="57.969" stroke="#1e2420" stroke-width="0.4"/>
<line x1="50.470" y1="14.000" x2="50.470" y2="114.500" stroke="#1e2420" stroke-width="0.4"/>
<line x1="13.000" y1="64.250" x2="87.940" y2="64.250" stroke="#1e2420" stroke-width="0.4"/>
<line x1="55.154" y1="14.000" x2="55.154" y2="114.500" stroke="#1e2420" stroke-width="0.4"/>
<line x1="13.000" y1="70.531" x2="87.940" y2="70.531" stroke="#1e2420" stroke-width="0.4"/>
<line x1="59.837" y1="14.000" x2="59.837" y2="114.500" stroke="#1e2420" stroke-width="0.4"/>
<line x1="13.000" y1="76.812" x2="87.940" y2="76.812" stroke="#1e2420" stroke-width="0.4"/>
<line x1="64.521" y1="14.000" x2="64.521" y2="114.500" stroke="#1e2420" stroke-width="0.4"/>
<line x1="13.000" y1="83.094" x2="87.940" y2="83.094" stroke="#1e2420" stroke-width="0.4"/>
<line x1="69.205" y1="14.000" x2="69.205" y2="114.500" stroke="#1e2420" stroke-width="0.4"/>
<line x1="13.000" y1="89.375" x2="87.940" y2="89.375" stroke="#1e2420" stroke-width="0.4"/>
<line x1="73.889" y1="14.000" x2="73.889" y2="114.500" stroke="#1e2420" stroke-width="0.4"/>
<line x1="13.000" y1="95.656" x2="87.940" y2="95.656" stroke="#1e2420" stroke-width="0.4"/>
<line x1="78.572" y1="14.000" x2="78.572" y2="114.500" stroke="#1e2420" stroke-width="0.4"/>
<line x1="13.000" y1="101.938" x2="87.940" y2="101.938" stroke="#1e2420" stroke-width="0.4"/>
<line x1="83.256" y1="14.000" x2="83.256" y2="114.500" stroke="#1e2420" stroke-width="0.4"/>
<line x1="13.000" y1="108.219" x2="87.940" y2="108.219" stroke="#1e2420" stroke-width="0.4"/>
<line x1="87.940" y1="14.000" x2="87.940" y2="114.500" stroke="#1e2420" stroke-width="0.4"/>
<line x1="13.000" y1="114.500" x2="87.940" y2="114.500" stroke="#1e2420" stroke-width="0.4"/>
<text x="15.342" y="12.200" text-anchor="middle" font-family="monospace" font-size="2.3" fill="#d4001a">SGD</text>
<text x="20.026" y="12.200" text-anchor="middle" font-family="monospace" font-size="2.3" fill="#7a7060">MYR</text>
<text x="24.709" y="12.200" text-anchor="middle" font-family="monospace" font-size="2.3" fill="#7a7060">IDR</text>
<text x="29.393" y="12.200" text-anchor="middle" font-family="monospace" font-size="2.3" fill="#7a7060">THB</text>
<text x="34.077" y="12.200" text-anchor="middle" font-family="monospace" font-size="2.3" fill="#7a7060">PHP</text>
<text x="38.761" y="12.200" text-anchor="middle" font-family="monospace" font-size="2.3" fill="#7a7060">VND</text>
<text x="43.444" y="12.200" text-anchor="middle" font-family="monospace" font-size="2.3" fill="#7a7060">MMK</text>
<text x="48.128" y="12.200" text-anchor="middle" font-family="monospace" font-size="2.3" fill="#7a7060">KHR</text>
<text x="52.812" y="12.200" text-anchor="middle" font-family="monospace" font-size="2.3" fill="#7a7060">HKD</text>
<text x="57.496" y="12.200" text-anchor="middle" font-family="monospace" font-size="2.3" fill="#7a7060">CNY</text>
<text x="62.179" y="12.200" text-anchor="middle" font-family="monospace" font-size="2.3" fill="#7a7060">TWD</text>
<text x="66.863" y="12.200" text-anchor="middle" font-family="monospace" font-size="2.3" fill="#7a7060">KRW</text>
<text x="71.547" y="12.200" text-anchor="middle" font-family="monospace" font-size="2.3" fill="#7a7060">JPY</text>
<text x="76.231" y="12.200" text-anchor="middle" font-family="monospace" font-size="2.3" fill="#7a7060">AUD</text>
<text x="80.914" y="12.200" text-anchor="middle" font-family="monospace" font-size="2.3" fill="#7a7060">INR</text>
<text x="85.598" y="12.200" text-anchor="middle" font-family="monospace" font-size="2.3" fill="#7a7060">USD</text>
<text x="50.470" y="8.000" text-anchor="middle" font-family="monospace" font-size="2.6" fill="#7a7060" opacity="0.6">source voice →</text>
<text x="11.800" y="18.041" text-anchor="end" font-family="monospace" font-size="2.5" fill="#c8900c" font-weight="bold">SGD</text>
<text x="11.800" y="24.322" text-anchor="end" font-family="monospace" font-size="2.5" fill="#e8e2d0" >MYR</text>
<text x="11.800" y="30.603" text-anchor="end" font-family="monospace" font-size="2.5" fill="#e8e2d0" >IDR</text>
<text x="11.800" y="36.884" text-anchor="end" font-family="monospace" font-size="2.5" fill="#e8e2d0" >THB</text>
<text x="11.800" y="43.166" text-anchor="end" font-family="monospace" font-size="2.5" fill="#e8e2d0" >PHP</text>
<text x="11.800" y="49.447" text-anchor="end" font-family="monospace" font-size="2.5" fill="#e8e2d0" >VND</text>
<text x="11.800" y="55.728" text-anchor="end" font-family="monospace" font-size="2.5" fill="#e8e2d0" >MMK</text>
<text x="11.800" y="62.009" text-anchor="end" font-family="monospace" font-size="2.5" fill="#e8e2d0" >KHR</text>
<text x="11.800" y="68.291" text-anchor="end" font-family="monospace" font-size="2.5" fill="#e8e2d0" >HKD</text>
<text x="11.800" y="74.572" text-anchor="end" font-family="monospace" font-size="2.5" fill="#e8e2d0" >CNY</text>
<text x="11.800" y="80.853" text-anchor="end" font-family="monospace" font-size="2.5" fill="#e8e2d0" >TWD</text>
<text x="11.800" y="87.134" text-anchor="end" font-family="monospace" font-size="2.5" fill="#e8e2d0" >KRW</text>
<text x="11.800" y="93.416" text-anchor="end" font-family="monospace" font-size="2.5" fill="#e8e2d0" >JPY</text>
<text x="11.800" y="99.697" text-anchor="end" font-family="monospace" font-size="2.5" fill="#e8e2d0" >AUD</text>
<text x="11.800" y="105.978" text-anchor="end" font-family="monospace" font-size="2.5" fill="#e8e2d0" >INR</text>
<text x="11.800" y="112.259" text-anchor="end" font-family="monospace" font-size="2.5" fill="#e8e2d0" >USD</text>
<circle cx="15.342" cy="17.141" r="1.405" fill="#404040" opacity="0.55"/>
<circle cx="15.342" cy="17.141" r="0.656" fill="#4a0008" opacity="0.55"/>
<circle cx="20.026" cy="23.422" r="1.405" fill="#404040" opacity="0.55"/>
<circle cx="20.026" cy="23.422" r="0.656" fill="#4a0008" opacity="0.55"/>
<circle cx="24.709" cy="29.703" r="1.405" fill="#404040" opacity="0.55"/>
<circle cx="24.709" cy="29.703" r="0.656" fill="#4a0008" opacity="0.55"/>
<circle cx="29.393" cy="35.984" r="1.405" fill="#404040" opacity="0.55"/>
<circle cx="29.393" cy="35.984" r="0.656" fill="#4a0008" opacity="0.55"/>
<circle cx="34.077" cy="42.266" r="1.405" fill="#404040" opacity="0.55"/>
<circle cx="34.077" cy="42.266" r="0.656" fill="#4a0008" opacity="0.55"/>
<circle cx="38.761" cy="48.547" r="1.405" fill="#404040" opacity="0.55"/>
<circle cx="38.761" cy="48.547" r="0.656" fill="#4a0008" opacity="0.55"/>
<circle cx="43.444" cy="54.828" r="1.405" fill="#404040" opacity="0.55"/>
<circle cx="43.444" cy="54.828" r="0.656" fill="#4a0008" opacity="0.55"/>
<circle cx="48.128" cy="61.109" r="1.405" fill="#404040" opacity="0.55"/>
<circle cx="48.128" cy="61.109" r="0.656" fill="#4a0008" opacity="0.55"/>
<circle cx="52.812" cy="67.391" r="1.405" fill="#404040" opacity="0.55"/>
<circle cx="52.812" cy="67.391" r="0.656" fill="#4a0008" opacity="0.55"/>
<circle cx="57.496" cy="73.672" r="1.405" fill="#404040" opacity="0.55"/>
<circle cx="57.496" cy="73.672" r="0.656" fill="#4a0008" opacity="0.55"/>
<circle cx="62.179" cy="79.953" r="1.405" fill="#404040" opacity="0.55"/>
<circle cx="62.179" cy="79.953" r="0.656" fill="#4a0008" opacity="0.55"/>
<circle cx="66.863" cy="86.234" r="1.405" fill="#404040" opacity="0.55"/>
<circle cx="66.863" cy="86.234" r="0.656" fill="#4a0008" opacity="0.55"/>
<circle cx="71.547" cy="92.516" r="1.405" fill="#404040" opacity="0.55"/>
<circle cx="71.547" cy="92.516" r="0.656" fill="#4a0008" opacity="0.55"/>
<circle cx="76.231" cy="98.797" r="1.405" fill="#404040" opacity="0.55"/>
<circle cx="76.231" cy="98.797" r="0.656" fill="#4a0008" opacity="0.55"/>
<circle cx="80.914" cy="105.078" r="1.405" fill="#404040" opacity="0.55"/>
<circle cx="80.914" cy="105.078" r="0.656" fill="#4a0008" opacity="0.55"/>
<circle cx="85.598" cy="111.359" r="1.405" fill="#404040" opacity="0.55"/>
<circle cx="85.598" cy="111.359" r="0.656" fill="#4a0008" opacity="0.55"/>
<circle cx="15.342" cy="23.422" r="1.405" fill="#f0f0ee"/>
<circle cx="15.342" cy="29.703" r="1.405" fill="#f0f0ee"/>
<circle cx="15.342" cy="29.703" r="0.656" fill="#d4001a"/>
<text x="45.720" y="5.500" text-anchor="middle" font-family="monospace" font-size="4.0" font-weight="bold" letter-spacing="0.5" fill="#e8e2d0">CHANGE ALLEY</text>
<circle cx="14.200" cy="119.000" r="1.200" fill="#f0f0ee"/>
<text x="16.400" y="119.900" font-family="monospace" font-size="2.4" fill="#7a7060">rhythm</text>
<circle cx="36.200" cy="119.000" r="1.200" fill="#d4001a"/>
<text x="38.400" y="119.900" font-family="monospace" font-size="2.4" fill="#7a7060">melody</text>
<circle cx="37.720" cy="125.000" r="1.5" fill="#d4001a"/>
<text x="41.220" y="126.000" font-family="monospace" font-size="3.2" fill="#e8e2d0">modular</text>
</svg>