<svg xmlns="http://www.w3.org/2000/svg" width="360.0" height="379.43" viewBox="0 0 360.0 379.43">
<rect width="360.0" height="379.43" fill="#e8e4d4"/>
<rect x="0" y="0" width="360.0" height="3.54" fill="#d4001a"/>
<line x1="60.0" y1="44.29" x2="60.0" y2="342.52" stroke="#c8bc90" stroke-width="0.3" stroke-opacity="0.5"/>
<line x1="120.0" y1="44.29" x2="120.0" y2="342.52" stroke="#c8bc90" stroke-width="0.3" stroke-opacity="0.5"/>
<line x1="180.0" y1="44.29" x2="180.0" y2="342.52" stroke="#c8bc90" stroke-width="0.3" stroke-opacity="0.5"/>
<line x1="240.0" y1="44.29" x2="240.0" y2="342.52" stroke="#c8bc90" stroke-width="0.3" stroke-opacity="0.5"/>
<line x1="300.0" y1="44.29" x2="300.0" y2="342.52" stroke="#c8bc90" stroke-width="0.3" stroke-opacity="0.5"/>
<rect x="178.52" y="330.71" width="2.95" height="6.5" fill="#c8960c" fill-opacity="0.5"/>
<rect x="178.52" y="318.9" width="2.95" height="6.5" fill="#c8960c" fill-opacity="0.5"/>
<rect x="178.52" y="307.09" width="2.95" height="6.5" fill="#c8960c" fill-opacity="0.5"/>
<rect x="178.52" y="295.28" width="2.95" height="6.5" fill="#c8960c" fill-opacity="0.5"/>
<rect x="178.52" y="283.46" width="2.95" height="6.5" fill="#c8960c" fill-opacity="0.5"/>
<rect x="178.52" y="271.65" width="2.95" height="6.5" fill="#c8960c" fill-opacity="0.5"/>
<line x1="180.0" y1="45.77" x2="180.0" y2="22.15" stroke="#a07a00" stroke-width="2.36"/>
<polygon points="173.5,22.15 186.5,22.15 184.13,14.76 175.87,14.76" fill="#a07a00"/>
<line x1="180.0" y1="14.76" x2="180.0" y2="8.86" stroke="#c8960c" stroke-width="1.48"/>
<circle cx="180.0" cy="7.97" r="1.77" fill="#d4001a"/>
<rect x="20.67" y="59.06" width="318.66" height="10.04" fill="#d0ccb8" stroke="#c8bc90" stroke-width="0.3"/>
<circle cx="45.01" cy="96.7" r="11.52" fill="#d8d0b8" stroke="#a89860" stroke-width="0.6"/>
<circle cx="45.01" cy="96.7" r="4.72" fill="none" stroke="#4c6ab0" stroke-width="0.5"/>
<circle id="output_gate_0" cx="45.01" cy="96.7" r="0.5" fill="none" stroke="none"/>
<circle cx="75.99" cy="96.7" r="11.52" fill="#d8d0b8" stroke="#a89860" stroke-width="0.6"/>
<circle cx="75.99" cy="96.7" r="4.72" fill="none" stroke="#4c6ab0" stroke-width="0.5"/>
<circle id="output_gate_1" cx="75.99" cy="96.7" r="0.5" fill="none" stroke="none"/>
<circle cx="106.96" cy="96.7" r="11.52" fill="#d8d0b8" stroke="#a89860" stroke-width="0.6"/>
<circle cx="106.96" cy="96.7" r="4.72" fill="none" stroke="#4c6ab0" stroke-width="0.5"/>
<circle id="output_gate_2" cx="106.96" cy="96.7" r="0.5" fill="none" stroke="none"/>
<circle cx="137.94" cy="96.7" r="11.52" fill="#d8d0b8" stroke="#a89860" stroke-width="0.6"/>
<circle cx="137.94" cy="96.7" r="4.72" fill="none" stroke="#4c6ab0" stroke-width="0.5"/>
<circle id="output_gate_3" cx="137.94" cy="96.7" r="0.5" fill="none" stroke="none"/>
<circle cx="45.01" cy="130.66" r="11.52" fill="#d8d0b8" stroke="#a89860" stroke-width="0.6"/>
<circle cx="45.01" cy="130.66" r="4.72" fill="none" stroke="#4c6ab0" stroke-width="0.5"/>
<circle id="output_gate_4" cx="45.01" cy="130.66" r="0.5" fill="none" stroke="none"/>
<circle cx="75.99" cy="130.66" r="11.52" fill="#d8d0b8" stroke="#a89860" stroke-width="0.6"/>
<circle cx="75.99" cy="130.66" r="4.72" fill="none" stroke="#4c6ab0" stroke-width="0.5"/>
<circle id="output_gate_5" cx="75.99" cy="130.66" r="0.5" fill="none" stroke="none"/>
<circle cx="106.96" cy="130.66" r="11.52" fill="#d8d0b8" stroke="#a89860" stroke-width="0.6"/>
<circle cx="106.96" cy="130.66" r="4.72" fill="none" stroke="#4c6ab0" stroke-width="0.5"/>
<circle id="output_gate_6" cx="106.96" cy="130.66" r="0.5" fill="none" stroke="none"/>
<circle cx="137.94" cy="130.66" r="11.52" fill="#d8d0b8" stroke="#a89860" stroke-width="0.6"/>
<circle cx="137.94" cy="130.66" r="4.72" fill="none" stroke="#4c6ab0" stroke-width="0.5"/>
<circle id="output_gate_7" cx="137.94" cy="130.66" r="0.5" fill="none" stroke="none"/>
<circle cx="222.06" cy="96.7" r="11.52" fill="#d8d0b8" stroke="#a89860" stroke-width="0.6"/>
<circle cx="222.06" cy="96.7" r="4.72" fill="none" stroke="#4c6ab0" stroke-width="0.5"/>
<circle id="output_gate_8" cx="222.06" cy="96.7" r="0.5" fill="none" stroke="none"/>
<circle cx="253.04" cy="96.7" r="11.52" fill="#d8d0b8" stroke="#a89860" stroke-width="0.6"/>
<circle cx="253.04" cy="96.7" r="4.72" fill="none" stroke="#4c6ab0" stroke-width="0.5"/>
<circle id="output_gate_9" cx="253.04" cy="96.7" r="0.5" fill="none" stroke="none"/>
<circle cx="284.01" cy="96.7" r="11.52" fill="#d8d0b8" stroke="#a89860" stroke-width="0.6"/>
<circle cx="284.01" cy="96.7" r="4.72" fill="none" stroke="#4c6ab0" stroke-width="0.5"/>
<circle id="output_gate_10" cx="284.01" cy="96.7" r="0.5" fill="none" stroke="none"/>
<circle cx="314.99" cy="96.7" r="11.52" fill="#d8d0b8" stroke="#a89860" stroke-width="0.6"/>
<circle cx="314.99" cy="96.7" r="4.72" fill="none" stroke="#4c6ab0" stroke-width="0.5"/>
<circle id="output_gate_11" cx="314.99" cy="96.7" r="0.5" fill="none" stroke="none"/>
<circle cx="222.06" cy="130.66" r="11.52" fill="#d8d0b8" stroke="#a89860" stroke-width="0.6"/>
<circle cx="222.06" cy="130.66" r="4.72" fill="none" stroke="#4c6ab0" stroke-width="0.5"/>
<circle id="output_gate_12" cx="222.06" cy="130.66" r="0.5" fill="none" stroke="none"/>
<circle cx="253.04" cy="130.66" r="11.52" fill="#d8d0b8" stroke="#a89860" stroke-width="0.6"/>
<circle cx="253.04" cy="130.66" r="4.72" fill="none" stroke="#4c6ab0" stroke-width="0.5"/>
<circle id="output_gate_13" cx="253.04" cy="130.66" r="0.5" fill="none" stroke="none"/>
<circle cx="284.01" cy="130.66" r="11.52" fill="#d8d0b8" stroke="#a89860" stroke-width="0.6"/>
<circle cx="284.01" cy="130.66" r="4.72" fill="none" stroke="#4c6ab0" stroke-width="0.5"/>
<circle id="output_gate_14" cx="284.01" cy="130.66" r="0.5" fill="none" stroke="none"/>
<circle cx="314.99" cy="130.66" r="11.52" fill="#d8d0b8" stroke="#a89860" stroke-width="0.6"/>
<circle cx="314.99" cy="130.66" r="4.72" fill="none" stroke="#4c6ab0" stroke-width="0.5"/>
<circle id="output_gate_15" cx="314.99" cy="130.66" r="0.5" fill="none" stroke="none"/>
<polygon points="89.26,59.94 90.42,66.14 89.26,65.23 88.1,66.14" fill="#a07a00"/>
<line x1="85.54" y1="64.07" x2="92.98" y2="64.07" stroke="#a07a00" stroke-width="1.48"/>
<line x1="88.02" y1="66.35" x2="90.5" y2="66.35" stroke="#a07a00" stroke-width="1.18"/>
<polygon points="270.74,59.94 271.9,66.14 270.74,65.23 269.58,66.14" fill="#a07a00"/>
<line x1="267.02" y1="64.07" x2="274.46" y2="64.07" stroke="#a07a00" stroke-width="1.48"/>
<line x1="269.5" y1="66.35" x2="271.98" y2="66.35" stroke="#a07a00" stroke-width="1.18"/>
<rect x="20.67" y="153.54" width="318.66" height="10.04" fill="#d0ccb8" stroke="#c8bc90" stroke-width="0.3"/>
<circle cx="45.01" cy="191.19" r="11.52" fill="#d8d0b8" stroke="#a89860" stroke-width="0.6"/>
<circle cx="45.01" cy="191.19" r="4.72" fill="none" stroke="#a87400" stroke-width="0.5"/>
<circle id="output_accent_0" cx="45.01" cy="191.19" r="0.5" fill="none" stroke="none"/>
<circle cx="75.99" cy="191.19" r="11.52" fill="#d8d0b8" stroke="#a89860" stroke-width="0.6"/>
<circle cx="75.99" cy="191.19" r="4.72" fill="none" stroke="#a87400" stroke-width="0.5"/>
<circle id="output_accent_1" cx="75.99" cy="191.19" r="0.5" fill="none" stroke="none"/>
<circle cx="106.96" cy="191.19" r="11.52" fill="#d8d0b8" stroke="#a89860" stroke-width="0.6"/>
<circle cx="106.96" cy="191.19" r="4.72" fill="none" stroke="#a87400" stroke-width="0.5"/>
<circle id="output_accent_2" cx="106.96" cy="191.19" r="0.5" fill="none" stroke="none"/>
<circle cx="137.94" cy="191.19" r="11.52" fill="#d8d0b8" stroke="#a89860" stroke-width="0.6"/>
<circle cx="137.94" cy="191.19" r="4.72" fill="none" stroke="#a87400" stroke-width="0.5"/>
<circle id="output_accent_3" cx="137.94" cy="191.19" r="0.5" fill="none" stroke="none"/>
<circle cx="45.01" cy="225.15" r="11.52" fill="#d8d0b8" stroke="#a89860" stroke-width="0.6"/>
<circle cx="45.01" cy="225.15" r="4.72" fill="none" stroke="#a87400" stroke-width="0.5"/>
<circle id="output_accent_4" cx="45.01" cy="225.15" r="0.5" fill="none" stroke="none"/>
<circle cx="75.99" cy="225.15" r="11.52" fill="#d8d0b8" stroke="#a89860" stroke-width="0.6"/>
<circle cx="75.99" cy="225.15" r="4.72" fill="none" stroke="#a87400" stroke-width="0.5"/>
<circle id="output_accent_5" cx="75.99" cy="225.15" r="0.5" fill="none" stroke="none"/>
<circle cx="106.96" cy="225.15" r="11.52" fill="#d8d0b8" stroke="#a89860" stroke-width="0.6"/>
<circle cx="106.96" cy="225.15" r="4.72" fill="none" stroke="#a87400" stroke-width="0.5"/>
<circle id="output_accent_6" cx="106.96" cy="225.15" r="0.5" fill="none" stroke="none"/>
<circle cx="137.94" cy="225.15" r="11.52" fill="#d8d0b8" stroke="#a89860" stroke-width="0.6"/>
<circle cx="137.94" cy="225.15" r="4.72" fill="none" stroke="#a87400" stroke-width="0.5"/>
<circle id="output_accent_7" cx="137.94" cy="225.15" r="0.5" fill="none" stroke="none"/>
<circle cx="222.06" cy="191.19" r="11.52" fill="#d8d0b8" stroke="#a89860" stroke-width="0.6"/>
<circle cx="222.06" cy="191.19" r="4.72" fill="none" stroke="#a87400" stroke-width="0.5"/>
<circle id="output_accent_8" cx="222.06" cy="191.19" r="0.5" fill="none" stroke="none"/>
<circle cx="253.04" cy="191.19" r="11.52" fill="#d8d0b8" stroke="#a89860" stroke-width="0.6"/>
<circle cx="253.04" cy="191.19" r="4.72" fill="none" stroke="#a87400" stroke-width="0.5"/>
<circle id="output_accent_9" cx="253.04" cy="191.19" r="0.5" fill="none" stroke="none"/>
<circle cx="284.01" cy="191.19" r="11.52" fill="#d8d0b8" stroke="#a89860" stroke-width="0.6"/>
<circle cx="284.01" cy="191.19" r="4.72" fill="none" stroke="#a87400" stroke-width="0.5"/>
<circle id="output_accent_10" cx="284.01" cy="191.19" r="0.5" fill="none" stroke="none"/>
<circle cx="314.99" cy="191.19" r="11.52" fill="#d8d0b8" stroke="#a89860" stroke-width="0.6"/>
<circle cx="314.99" cy="191.19" r="4.72" fill="none" stroke="#a87400" stroke-width="0.5"/>
<circle id="output_accent_11" cx="314.99" cy="191.19" r="0.5" fill="none" stroke="none"/>
<circle cx="222.06" cy="225.15" r="11.52" fill="#d8d0b8" stroke="#a89860" stroke-width="0.6"/>
<circle cx="222.06" cy="225.15" r="4.72" fill="none" stroke="#a87400" stroke-width="0.5"/>
<circle id="output_accent_12" cx="222.06" cy="225.15" r="0.5" fill="none" stroke="none"/>
<circle cx="253.04" cy="225.15" r="11.52" fill="#d8d0b8" stroke="#a89860" stroke-width="0.6"/>
<circle cx="253.04" cy="225.15" r="4.72" fill="none" stroke="#a87400" stroke-width="0.5"/>
<circle id="output_accent_13" cx="253.04" cy="225.15" r="0.5" fill="none" stroke="none"/>
<circle cx="284.01" cy="225.15" r="11.52" fill="#d8d0b8" stroke="#a89860" stroke-width="0.6"/>
<circle cx="284.01" cy="225.15" r="4.72" fill="none" stroke="#a87400" stroke-width="0.5"/>
<circle id="output_accent_14" cx="284.01" cy="225.15" r="0.5" fill="none" stroke="none"/>
<circle cx="314.99" cy="225.15" r="11.52" fill="#d8d0b8" stroke="#a89860" stroke-width="0.6"/>
<circle cx="314.99" cy="225.15" r="4.72" fill="none" stroke="#a87400" stroke-width="0.5"/>
<circle id="output_accent_15" cx="314.99" cy="225.15" r="0.5" fill="none" stroke="none"/>
<rect x="20.67" y="248.03" width="318.66" height="10.04" fill="#d0ccb8" stroke="#c8bc90" stroke-width="0.3"/>
<circle cx="45.01" cy="285.68" r="11.52" fill="#d8d0b8" stroke="#a89860" stroke-width="0.6"/>
<circle cx="45.01" cy="285.68" r="4.72" fill="none" stroke="#1c7a70" stroke-width="0.5"/>
<circle id="output_cv_0" cx="45.01" cy="285.68" r="0.5" fill="none" stroke="none"/>
<circle cx="75.99" cy="285.68" r="11.52" fill="#d8d0b8" stroke="#a89860" stroke-width="0.6"/>
<circle cx="75.99" cy="285.68" r="4.72" fill="none" stroke="#1c7a70" stroke-width="0.5"/>
<circle id="output_cv_1" cx="75.99" cy="285.68" r="0.5" fill="none" stroke="none"/>
<circle cx="106.96" cy="285.68" r="11.52" fill="#d8d0b8" stroke="#a89860" stroke-width="0.6"/>
<circle cx="106.96" cy="285.68" r="4.72" fill="none" stroke="#1c7a70" stroke-width="0.5"/>
<circle id="output_cv_2" cx="106.96" cy="285.68" r="0.5" fill="none" stroke="none"/>
<circle cx="137.94" cy="285.68" r="11.52" fill="#d8d0b8" stroke="#a89860" stroke-width="0.6"/>
<circle cx="137.94" cy="285.68" r="4.72" fill="none" stroke="#1c7a70" stroke-width="0.5"/>
<circle id="output_cv_3" cx="137.94" cy="285.68" r="0.5" fill="none" stroke="none"/>
<circle cx="45.01" cy="319.64" r="11.52" fill="#d8d0b8" stroke="#a89860" stroke-width="0.6"/>
<circle cx="45.01" cy="319.64" r="4.72" fill="none" stroke="#1c7a70" stroke-width="0.5"/>
<circle id="output_cv_4" cx="45.01" cy="319.64" r="0.5" fill="none" stroke="none"/>
<circle cx="75.99" cy="319.64" r="11.52" fill="#d8d0b8" stroke="#a89860" stroke-width="0.6"/>
<circle cx="75.99" cy="319.64" r="4.72" fill="none" stroke="#1c7a70" stroke-width="0.5"/>
<circle id="output_cv_5" cx="75.99" cy="319.64" r="0.5" fill="none" stroke="none"/>
<circle cx="106.96" cy="319.64" r="11.52" fill="#d8d0b8" stroke="#a89860" stroke-width="0.6"/>
<circle cx="106.96" cy="319.64" r="4.72" fill="none" stroke="#1c7a70" stroke-width="0.5"/>
<circle id="output_cv_6" cx="106.96" cy="319.64" r="0.5" fill="none" stroke="none"/>
<circle cx="137.94" cy="319.64" r="11.52" fill="#d8d0b8" stroke="#a89860" stroke-width="0.6"/>
<circle cx="137.94" cy="319.64" r="4.72" fill="none" stroke="#1c7a70" stroke-width="0.5"/>
<circle id="output_cv_7" cx="137.94" cy="319.64" r="0.5" fill="none" stroke="none"/>
<circle cx="222.06" cy="285.68" r="11.52" fill="#d8d0b8" stroke="#a89860" stroke-width="0.6"/>
<circle cx="222.06" cy="285.68" r="4.72" fill="none" stroke="#1c7a70" stroke-width="0.5"/>
<circle id="output_cv_8" cx="222.06" cy="285.68" r="0.5" fill="none" stroke="none"/>
<circle cx="253.04" cy="285.68" r="11.52" fill="#d8d0b8" stroke="#a89860" stroke-width="0.6"/>
<circle cx="253.04" cy="285.68" r="4.72" fill="none" stroke="#1c7a70" stroke-width="0.5"/>
<circle id="output_cv_9" cx="253.04" cy="285.68" r="0.5" fill="none" stroke="none"/>
<circle cx="284.01" cy="285.68" r="11.52" fill="#d8d0b8" stroke="#a89860" stroke-width="0.6"/>
<circle cx="284.01" cy="285.68" r="4.72" fill="none" stroke="#1c7a70" stroke-width="0.5"/>
<circle id="output_cv_10" cx="284.01" cy="285.68" r="0.5" fill="none" stroke="none"/>
<circle cx="314.99" cy="285.68" r="11.52" fill="#d8d0b8" stroke="#a89860" stroke-width="0.6"/>
<circle cx="314.99" cy="285.68" r="4.72" fill="none" stroke="#1c7a70" stroke-width="0.5"/>
<circle id="output_cv_11" cx="314.99" cy="285.68" r="0.5" fill="none" stroke="none"/>
<circle cx="222.06" cy="319.64" r="11.52" fill="#d8d0b8" stroke="#a89860" stroke-width="0.6"/>
<circle cx="222.06" cy="319.64" r="4.72" fill="none" stroke="#1c7a70" stroke-width="0.5"/>
<circle id="output_cv_12" cx="222.06" cy="319.64" r="0.5" fill="none" stroke="none"/>
<circle cx="253.04" cy="319.64" r="11.52" fill="#d8d0b8" stroke="#a89860" stroke-width="0.6"/>
<circle cx="253.04" cy="319.64" r="4.72" fill="none" stroke="#1c7a70" stroke-width="0.5"/>
<circle id="output_cv_13" cx="253.04" cy="319.64" r="0.5" fill="none" stroke="none"/>
<circle cx="284.01" cy="319.64" r="11.52" fill="#d8d0b8" stroke="#a89860" stroke-width="0.6"/>
<circle cx="284.01" cy="319.64" r="4.72" fill="none" stroke="#1c7a70" stroke-width="0.5"/>
<circle id="output_cv_14" cx="284.01" cy="319.64" r="0.5" fill="none" stroke="none"/>
<circle cx="314.99" cy="319.64" r="11.52" fill="#d8d0b8" stroke="#a89860" stroke-width="0.6"/>
<circle cx="314.99" cy="319.64" r="4.72" fill="none" stroke="#1c7a70" stroke-width="0.5"/>
<circle id="output_cv_15" cx="314.99" cy="319.64" r="0.5" fill="none" stroke="none"/>
<line x1="20.67" y1="345.47" x2="339.33" y2="345.47" stroke="#c8bc90" stroke-width="0.4"/>
<circle cx="327.52" cy="357.28" r="4.72" fill="#d8d0b8" stroke="#a89860" stroke-width="0.3"/>
<circle id="light_connect" cx="327.52" cy="357.28" r="0.5" fill="none" stroke="none"/>
</svg>