<svg xmlns="http://www.w3.org/2000/svg" width="240.0" height="379.43" viewBox="0 0 240.0 379.43">
<rect width="240.0" height="379.43" fill="#dcdcdc"/>
<rect x="0" y="0" width="240.0" height="3.54" fill="#d4001a"/>
<circle cx="228.19" cy="17.72" r="4.72" fill="#d4001a"/>
<line x1="0" y1="44.29" x2="240.0" y2="44.29" stroke="#bcbcbc" stroke-width="1" opacity="0.7"/>
<rect x="66.47" y="48.72" width="20.67" height="5.91" fill="#4c6ab0" opacity="0.6"/>
<rect x="109.67" y="48.72" width="20.67" height="5.91" fill="#1c7a70" opacity="0.6"/>
<rect x="152.87" y="48.72" width="20.67" height="5.91" fill="#a07a00" opacity="0.6"/>
<circle cx="76.8" cy="59.06" r="10.04" fill="#e2ddd2" stroke="#4c6ab0" stroke-width="1"/>
<circle id="output_gate_0" cx="76.8" cy="59.06" r="0.5" fill="none" stroke="none"/>
<circle cx="120.0" cy="59.06" r="10.04" fill="#e2ddd2" stroke="#1c7a70" stroke-width="1"/>
<circle id="output_cv_0" cx="120.0" cy="59.06" r="0.5" fill="none" stroke="none"/>
<circle cx="163.2" cy="59.06" r="10.04" fill="#e2ddd2" stroke="#a07a00" stroke-width="1"/>
<circle id="output_accent_0" cx="163.2" cy="59.06" r="0.5" fill="none" stroke="none"/>
<circle cx="76.8" cy="79.72" r="10.04" fill="#e2ddd2" stroke="#4c6ab0" stroke-width="1"/>
<circle id="output_gate_1" cx="76.8" cy="79.72" r="0.5" fill="none" stroke="none"/>
<circle cx="120.0" cy="79.72" r="10.04" fill="#e2ddd2" stroke="#1c7a70" stroke-width="1"/>
<circle id="output_cv_1" cx="120.0" cy="79.72" r="0.5" fill="none" stroke="none"/>
<circle cx="163.2" cy="79.72" r="10.04" fill="#e2ddd2" stroke="#a07a00" stroke-width="1"/>
<circle id="output_accent_1" cx="163.2" cy="79.72" r="0.5" fill="none" stroke="none"/>
<circle cx="76.8" cy="100.39" r="10.04" fill="#e2ddd2" stroke="#4c6ab0" stroke-width="1"/>
<circle id="output_gate_2" cx="76.8" cy="100.39" r="0.5" fill="none" stroke="none"/>
<circle cx="120.0" cy="100.39" r="10.04" fill="#e2ddd2" stroke="#1c7a70" stroke-width="1"/>
<circle id="output_cv_2" cx="120.0" cy="100.39" r="0.5" fill="none" stroke="none"/>
<circle cx="163.2" cy="100.39" r="10.04" fill="#e2ddd2" stroke="#a07a00" stroke-width="1"/>
<circle id="output_accent_2" cx="163.2" cy="100.39" r="0.5" fill="none" stroke="none"/>
<circle cx="76.8" cy="121.06" r="10.04" fill="#e2ddd2" stroke="#4c6ab0" stroke-width="1"/>
<circle id="output_gate_3" cx="76.8" cy="121.06" r="0.5" fill="none" stroke="none"/>
<circle cx="120.0" cy="121.06" r="10.04" fill="#e2ddd2" stroke="#1c7a70" stroke-width="1"/>
<circle id="output_cv_3" cx="120.0" cy="121.06" r="0.5" fill="none" stroke="none"/>
<circle cx="163.2" cy="121.06" r="10.04" fill="#e2ddd2" stroke="#a07a00" stroke-width="1"/>
<circle id="output_accent_3" cx="163.2" cy="121.06" r="0.5" fill="none" stroke="none"/>
<circle cx="76.8" cy="141.73" r="10.04" fill="#e2ddd2" stroke="#4c6ab0" stroke-width="1"/>
<circle id="output_gate_4" cx="76.8" cy="141.73" r="0.5" fill="none" stroke="none"/>
<circle cx="120.0" cy="141.73" r="10.04" fill="#e2ddd2" stroke="#1c7a70" stroke-width="1"/>
<circle id="output_cv_4" cx="120.0" cy="141.73" r="0.5" fill="none" stroke="none"/>
<circle cx="163.2" cy="141.73" r="10.04" fill="#e2ddd2" stroke="#a07a00" stroke-width="1"/>
<circle id="output_accent_4" cx="163.2" cy="141.73" r="0.5" fill="none" stroke="none"/>
<circle cx="76.8" cy="162.4" r="10.04" fill="#e2ddd2" stroke="#4c6ab0" stroke-width="1"/>
<circle id="output_gate_5" cx="76.8" cy="162.4" r="0.5" fill="none" stroke="none"/>
<circle cx="120.0" cy="162.4" r="10.04" fill="#e2ddd2" stroke="#1c7a70" stroke-width="1"/>
<circle id="output_cv_5" cx="120.0" cy="162.4" r="0.5" fill="none" stroke="none"/>
<circle cx="163.2" cy="162.4" r="10.04" fill="#e2ddd2" stroke="#a07a00" stroke-width="1"/>
<circle id="output_accent_5" cx="163.2" cy="162.4" r="0.5" fill="none" stroke="none"/>
<circle cx="76.8" cy="183.07" r="10.04" fill="#e2ddd2" stroke="#4c6ab0" stroke-width="1"/>
<circle id="output_gate_6" cx="76.8" cy="183.07" r="0.5" fill="none" stroke="none"/>
<circle cx="120.0" cy="183.07" r="10.04" fill="#e2ddd2" stroke="#1c7a70" stroke-width="1"/>
<circle id="output_cv_6" cx="120.0" cy="183.07" r="0.5" fill="none" stroke="none"/>
<circle cx="163.2" cy="183.07" r="10.04" fill="#e2ddd2" stroke="#a07a00" stroke-width="1"/>
<circle id="output_accent_6" cx="163.2" cy="183.07" r="0.5" fill="none" stroke="none"/>
<circle cx="76.8" cy="203.74" r="10.04" fill="#e2ddd2" stroke="#4c6ab0" stroke-width="1"/>
<circle id="output_gate_7" cx="76.8" cy="203.74" r="0.5" fill="none" stroke="none"/>
<circle cx="120.0" cy="203.74" r="10.04" fill="#e2ddd2" stroke="#1c7a70" stroke-width="1"/>
<circle id="output_cv_7" cx="120.0" cy="203.74" r="0.5" fill="none" stroke="none"/>
<circle cx="163.2" cy="203.74" r="10.04" fill="#e2ddd2" stroke="#a07a00" stroke-width="1"/>
<circle id="output_accent_7" cx="163.2" cy="203.74" r="0.5" fill="none" stroke="none"/>
<circle cx="76.8" cy="224.41" r="10.04" fill="#e2ddd2" stroke="#4c6ab0" stroke-width="1"/>
<circle id="output_gate_8" cx="76.8" cy="224.41" r="0.5" fill="none" stroke="none"/>
<circle cx="120.0" cy="224.41" r="10.04" fill="#e2ddd2" stroke="#1c7a70" stroke-width="1"/>
<circle id="output_cv_8" cx="120.0" cy="224.41" r="0.5" fill="none" stroke="none"/>
<circle cx="163.2" cy="224.41" r="10.04" fill="#e2ddd2" stroke="#a07a00" stroke-width="1"/>
<circle id="output_accent_8" cx="163.2" cy="224.41" r="0.5" fill="none" stroke="none"/>
<circle cx="76.8" cy="245.08" r="10.04" fill="#e2ddd2" stroke="#4c6ab0" stroke-width="1"/>
<circle id="output_gate_9" cx="76.8" cy="245.08" r="0.5" fill="none" stroke="none"/>
<circle cx="120.0" cy="245.08" r="10.04" fill="#e2ddd2" stroke="#1c7a70" stroke-width="1"/>
<circle id="output_cv_9" cx="120.0" cy="245.08" r="0.5" fill="none" stroke="none"/>
<circle cx="163.2" cy="245.08" r="10.04" fill="#e2ddd2" stroke="#a07a00" stroke-width="1"/>
<circle id="output_accent_9" cx="163.2" cy="245.08" r="0.5" fill="none" stroke="none"/>
<circle cx="76.8" cy="265.75" r="10.04" fill="#e2ddd2" stroke="#4c6ab0" stroke-width="1"/>
<circle id="output_gate_10" cx="76.8" cy="265.75" r="0.5" fill="none" stroke="none"/>
<circle cx="120.0" cy="265.75" r="10.04" fill="#e2ddd2" stroke="#1c7a70" stroke-width="1"/>
<circle id="output_cv_10" cx="120.0" cy="265.75" r="0.5" fill="none" stroke="none"/>
<circle cx="163.2" cy="265.75" r="10.04" fill="#e2ddd2" stroke="#a07a00" stroke-width="1"/>
<circle id="output_accent_10" cx="163.2" cy="265.75" r="0.5" fill="none" stroke="none"/>
<circle cx="76.8" cy="286.42" r="10.04" fill="#e2ddd2" stroke="#4c6ab0" stroke-width="1"/>
<circle id="output_gate_11" cx="76.8" cy="286.42" r="0.5" fill="none" stroke="none"/>
<circle cx="120.0" cy="286.42" r="10.04" fill="#e2ddd2" stroke="#1c7a70" stroke-width="1"/>
<circle id="output_cv_11" cx="120.0" cy="286.42" r="0.5" fill="none" stroke="none"/>
<circle cx="163.2" cy="286.42" r="10.04" fill="#e2ddd2" stroke="#a07a00" stroke-width="1"/>
<circle id="output_accent_11" cx="163.2" cy="286.42" r="0.5" fill="none" stroke="none"/>
<circle cx="76.8" cy="307.09" r="10.04" fill="#e2ddd2" stroke="#4c6ab0" stroke-width="1"/>
<circle id="output_gate_12" cx="76.8" cy="307.09" r="0.5" fill="none" stroke="none"/>
<circle cx="120.0" cy="307.09" r="10.04" fill="#e2ddd2" stroke="#1c7a70" stroke-width="1"/>
<circle id="output_cv_12" cx="120.0" cy="307.09" r="0.5" fill="none" stroke="none"/>
<circle cx="163.2" cy="307.09" r="10.04" fill="#e2ddd2" stroke="#a07a00" stroke-width="1"/>
<circle id="output_accent_12" cx="163.2" cy="307.09" r="0.5" fill="none" stroke="none"/>
<circle cx="76.8" cy="327.76" r="10.04" fill="#e2ddd2" stroke="#4c6ab0" stroke-width="1"/>
<circle id="output_gate_13" cx="76.8" cy="327.76" r="0.5" fill="none" stroke="none"/>
<circle cx="120.0" cy="327.76" r="10.04" fill="#e2ddd2" stroke="#1c7a70" stroke-width="1"/>
<circle id="output_cv_13" cx="120.0" cy="327.76" r="0.5" fill="none" stroke="none"/>
<circle cx="163.2" cy="327.76" r="10.04" fill="#e2ddd2" stroke="#a07a00" stroke-width="1"/>
<circle id="output_accent_13" cx="163.2" cy="327.76" r="0.5" fill="none" stroke="none"/>
<circle cx="76.8" cy="348.43" r="10.04" fill="#e2ddd2" stroke="#4c6ab0" stroke-width="1"/>
<circle id="output_gate_14" cx="76.8" cy="348.43" r="0.5" fill="none" stroke="none"/>
<circle cx="120.0" cy="348.43" r="10.04" fill="#e2ddd2" stroke="#1c7a70" stroke-width="1"/>
<circle id="output_cv_14" cx="120.0" cy="348.43" r="0.5" fill="none" stroke="none"/>
<circle cx="163.2" cy="348.43" r="10.04" fill="#e2ddd2" stroke="#a07a00" stroke-width="1"/>
<circle id="output_accent_14" cx="163.2" cy="348.43" r="0.5" fill="none" stroke="none"/>
<circle id="light_connect" cx="120.0" cy="26.57" r="0.5" fill="none" stroke="none"/>
</svg>