<svg xmlns="http://www.w3.org/2000/svg" width="360.0" height="379.43" viewBox="0 0 360.0 379.43">
<rect width="360.0" height="379.43" fill="#e8e4d4"/>
<rect x="0" y="0" width="360.0" height="3.54" fill="#d4001a"/>
<rect x="166.71" y="44.29" width="26.57" height="308.56" fill="#d0ccbc" stroke="#c0b088" stroke-width="0.3"/>
<rect x="178.97" y="47.24" width="2.07" height="7.09" fill="#9a8020" fill-opacity="0.8"/>
<rect x="178.97" y="61.27" width="2.07" height="7.09" fill="#9a8020" fill-opacity="0.8"/>
<rect x="178.97" y="75.3" width="2.07" height="7.09" fill="#9a8020" fill-opacity="0.8"/>
<rect x="178.97" y="89.32" width="2.07" height="7.09" fill="#9a8020" fill-opacity="0.8"/>
<rect x="178.97" y="103.35" width="2.07" height="7.09" fill="#9a8020" fill-opacity="0.8"/>
<rect x="178.97" y="117.37" width="2.07" height="7.09" fill="#9a8020" fill-opacity="0.8"/>
<rect x="178.97" y="131.4" width="2.07" height="7.09" fill="#9a8020" fill-opacity="0.8"/>
<rect x="178.97" y="145.42" width="2.07" height="7.09" fill="#9a8020" fill-opacity="0.8"/>
<rect x="178.97" y="159.45" width="2.07" height="7.09" fill="#9a8020" fill-opacity="0.8"/>
<rect x="178.97" y="173.47" width="2.07" height="7.09" fill="#9a8020" fill-opacity="0.8"/>
<rect x="178.97" y="187.5" width="2.07" height="7.09" fill="#9a8020" fill-opacity="0.8"/>
<rect x="178.97" y="201.53" width="2.07" height="7.09" fill="#9a8020" fill-opacity="0.8"/>
<rect x="178.97" y="215.55" width="2.07" height="7.09" fill="#9a8020" fill-opacity="0.8"/>
<rect x="178.97" y="229.58" width="2.07" height="7.09" fill="#9a8020" fill-opacity="0.8"/>
<rect x="178.97" y="243.6" width="2.07" height="7.09" fill="#9a8020" fill-opacity="0.8"/>
<rect x="178.97" y="257.63" width="2.07" height="7.09" fill="#9a8020" fill-opacity="0.8"/>
<rect x="178.97" y="271.65" width="2.07" height="7.09" fill="#9a8020" fill-opacity="0.8"/>
<rect x="178.97" y="285.68" width="2.07" height="7.09" fill="#9a8020" fill-opacity="0.8"/>
<rect x="178.97" y="299.7" width="2.07" height="7.09" fill="#9a8020" fill-opacity="0.8"/>
<rect x="178.97" y="313.73" width="2.07" height="7.09" fill="#9a8020" fill-opacity="0.8"/>
<rect x="178.97" y="327.76" width="2.07" height="7.09" fill="#9a8020" fill-opacity="0.8"/>
<rect x="178.97" y="341.78" width="2.07" height="7.09" fill="#9a8020" fill-opacity="0.8"/>
<rect x="169.07" y="47.24" width="2.0" height="5.91" fill="#9a8020" fill-opacity="0.7"/>
<rect x="172.72" y="47.24" width="2.0" height="5.91" fill="#9a8020" fill-opacity="0.7"/>
<rect x="176.36" y="47.24" width="2.0" height="5.91" fill="#9a8020" fill-opacity="0.7"/>
<rect x="180.0" y="47.24" width="2.0" height="5.91" fill="#9a8020" fill-opacity="0.7"/>
<rect x="183.64" y="47.24" width="2.0" height="5.91" fill="#9a8020" fill-opacity="0.7"/>
<rect x="187.28" y="47.24" width="2.0" height="5.91" fill="#9a8020" fill-opacity="0.7"/>
<rect x="169.07" y="344.0" width="2.0" height="5.91" fill="#9a8020" fill-opacity="0.7"/>
<rect x="172.72" y="344.0" width="2.0" height="5.91" fill="#9a8020" fill-opacity="0.7"/>
<rect x="176.36" y="344.0" width="2.0" height="5.91" fill="#9a8020" fill-opacity="0.7"/>
<rect x="180.0" y="344.0" width="2.0" height="5.91" fill="#9a8020" fill-opacity="0.7"/>
<rect x="183.64" y="344.0" width="2.0" height="5.91" fill="#9a8020" fill-opacity="0.7"/>
<rect x="187.28" y="344.0" width="2.0" height="5.91" fill="#9a8020" fill-opacity="0.7"/>
<path d="M 166.71 91.54 Q 68.59 94.49 29.53 97.44" fill="none" stroke="#d4caa0" stroke-width="4.13" stroke-opacity="0.9"/>
<path d="M 166.71 91.54 Q 68.59 94.49 29.53 97.44" fill="none" stroke="#8a6a10" stroke-width="0.3"/>
<path d="M 166.71 126.97 Q 68.59 124.02 29.53 121.06" fill="none" stroke="#d4caa0" stroke-width="4.13" stroke-opacity="0.9"/>
<path d="M 166.71 126.97 Q 68.59 124.02 29.53 121.06" fill="none" stroke="#8a6a10" stroke-width="0.3"/>
<path d="M 29.53 97.44 Q 20.67 109.25 29.53 121.06" fill="none" stroke="#d4caa0" stroke-width="2.95" stroke-opacity="0.9"/>
<path d="M 29.53 97.44 Q 20.67 109.25 29.53 121.06" fill="none" stroke="#8a6a10" stroke-width="0.3"/>
<path d="M 193.29 91.54 Q 291.41 94.49 330.47 97.44" fill="none" stroke="#d4caa0" stroke-width="4.13" stroke-opacity="0.9"/>
<path d="M 193.29 91.54 Q 291.41 94.49 330.47 97.44" fill="none" stroke="#8a6a10" stroke-width="0.3"/>
<path d="M 193.29 126.97 Q 291.41 124.02 330.47 121.06" fill="none" stroke="#d4caa0" stroke-width="4.13" stroke-opacity="0.9"/>
<path d="M 193.29 126.97 Q 291.41 124.02 330.47 121.06" fill="none" stroke="#8a6a10" stroke-width="0.3"/>
<path d="M 330.47 97.44 Q 339.33 109.25 330.47 121.06" fill="none" stroke="#d4caa0" stroke-width="2.95" stroke-opacity="0.9"/>
<path d="M 330.47 97.44 Q 339.33 109.25 330.47 121.06" fill="none" stroke="#8a6a10" stroke-width="0.3"/>
<path d="M 166.71 187.5 Q 68.59 190.45 29.53 193.41" fill="none" stroke="#d4caa0" stroke-width="4.13" stroke-opacity="0.9"/>
<path d="M 166.71 187.5 Q 68.59 190.45 29.53 193.41" fill="none" stroke="#8a6a10" stroke-width="0.3"/>
<path d="M 166.71 222.93 Q 68.59 219.98 29.53 217.03" fill="none" stroke="#d4caa0" stroke-width="4.13" stroke-opacity="0.9"/>
<path d="M 166.71 222.93 Q 68.59 219.98 29.53 217.03" fill="none" stroke="#8a6a10" stroke-width="0.3"/>
<path d="M 29.53 193.41 Q 20.67 205.22 29.53 217.03" fill="none" stroke="#d4caa0" stroke-width="2.95" stroke-opacity="0.9"/>
<path d="M 29.53 193.41 Q 20.67 205.22 29.53 217.03" fill="none" stroke="#8a6a10" stroke-width="0.3"/>
<path d="M 193.29 187.5 Q 291.41 190.45 330.47 193.41" fill="none" stroke="#d4caa0" stroke-width="4.13" stroke-opacity="0.9"/>
<path d="M 193.29 187.5 Q 291.41 190.45 330.47 193.41" fill="none" stroke="#8a6a10" stroke-width="0.3"/>
<path d="M 193.29 222.93 Q 291.41 219.98 330.47 217.03" fill="none" stroke="#d4caa0" stroke-width="4.13" stroke-opacity="0.9"/>
<path d="M 193.29 222.93 Q 291.41 219.98 330.47 217.03" fill="none" stroke="#8a6a10" stroke-width="0.3"/>
<path d="M 330.47 193.41 Q 339.33 205.22 330.47 217.03" fill="none" stroke="#d4caa0" stroke-width="2.95" stroke-opacity="0.9"/>
<path d="M 330.47 193.41 Q 339.33 205.22 330.47 217.03" fill="none" stroke="#8a6a10" stroke-width="0.3"/>
<path d="M 166.71 283.46 Q 68.59 286.42 29.53 289.37" fill="none" stroke="#d4caa0" stroke-width="4.13" stroke-opacity="0.9"/>
<path d="M 166.71 283.46 Q 68.59 286.42 29.53 289.37" fill="none" stroke="#8a6a10" stroke-width="0.3"/>
<path d="M 166.71 318.9 Q 68.59 315.94 29.53 312.99" fill="none" stroke="#d4caa0" stroke-width="4.13" stroke-opacity="0.9"/>
<path d="M 166.71 318.9 Q 68.59 315.94 29.53 312.99" fill="none" stroke="#8a6a10" stroke-width="0.3"/>
<path d="M 29.53 289.37 Q 20.67 301.18 29.53 312.99" fill="none" stroke="#d4caa0" stroke-width="2.95" stroke-opacity="0.9"/>
<path d="M 29.53 289.37 Q 20.67 301.18 29.53 312.99" fill="none" stroke="#8a6a10" stroke-width="0.3"/>
<path d="M 193.29 283.46 Q 291.41 286.42 330.47 289.37" fill="none" stroke="#d4caa0" stroke-width="4.13" stroke-opacity="0.9"/>
<path d="M 193.29 283.46 Q 291.41 286.42 330.47 289.37" fill="none" stroke="#8a6a10" stroke-width="0.3"/>
<path d="M 193.29 318.9 Q 291.41 315.94 330.47 312.99" fill="none" stroke="#d4caa0" stroke-width="4.13" stroke-opacity="0.9"/>
<path d="M 193.29 318.9 Q 291.41 315.94 330.47 312.99" fill="none" stroke="#8a6a10" stroke-width="0.3"/>
<path d="M 330.47 289.37 Q 339.33 301.18 330.47 312.99" fill="none" stroke="#d4caa0" stroke-width="2.95" stroke-opacity="0.9"/>
<path d="M 330.47 289.37 Q 339.33 301.18 330.47 312.99" fill="none" stroke="#8a6a10" stroke-width="0.3"/>
<rect x="14.76" y="50.2" width="330.47" height="302.66" fill="none" stroke="#d4caa0" stroke-width="1.0" stroke-opacity="0.5"/>
<line x1="180.0" y1="41.34" x2="180.0" y2="14.76" stroke="#8a6a10" stroke-width="2.66"/>
<line x1="175.87" y1="41.34" x2="175.87" y2="17.72" stroke="#c0b088" stroke-width="0.4"/>
<line x1="184.13" y1="41.34" x2="184.13" y2="17.72" stroke="#c0b088" stroke-width="0.4"/>
<polygon points="172.32,14.76 187.68,14.76 184.72,5.91 175.28,5.91" fill="#c4c0b0" stroke="#a88420" stroke-width="0.5"/>
<line x1="176.46" y1="13.58" x2="176.46" y2="7.09" stroke="#a88420" stroke-width="0.3"/>
<line x1="180.0" y1="13.58" x2="180.0" y2="7.09" stroke="#a88420" stroke-width="0.3"/>
<line x1="183.54" y1="13.58" x2="183.54" y2="7.09" stroke="#a88420" stroke-width="0.3"/>
<line x1="180.0" y1="5.91" x2="180.0" y2="-1.48" stroke="#8a6a10" stroke-width="0.4"/>
<circle cx="180.0" cy="-2.36" r="2.07" fill="#d4001a"/>
<polygon points="58.91,20.87 58.13,27.58 57.23,26.28 55.76,26.85" fill="#8a6a10"/>
<line x1="53.79" y1="23.92" x2="61.41" y2="26.28" stroke="#8a6a10" stroke-width="1.48"/>
<polygon points="109.31,20.87 108.53,27.58 107.63,26.28 106.16,26.85" fill="#8a6a10"/>
<line x1="104.19" y1="23.92" x2="111.81" y2="26.28" stroke="#8a6a10" stroke-width="1.48"/>
<polygon points="250.69,20.87 253.84,26.85 252.37,26.28 251.47,27.58" fill="#8a6a10"/>
<line x1="248.19" y1="26.28" x2="255.81" y2="23.92" stroke="#8a6a10" stroke-width="1.48"/>
<polygon points="301.09,20.87 304.24,26.85 302.77,26.28 301.87,27.58" fill="#8a6a10"/>
<line x1="298.59" y1="26.28" x2="306.21" y2="23.92" stroke="#8a6a10" stroke-width="1.48"/>
<rect x="17.72" y="64.96" width="324.57" height="8.86" fill="#ccc8b6" stroke="#c0b088" stroke-width="0.3"/>
<line x1="17.72" y1="75.0" x2="342.28" y2="75.0" stroke="#b0a068" stroke-width="0.4" stroke-dasharray="2.95 2.95"/>
<rect x="29.33" y="91.54" width="26.57" height="26.57" fill="none" stroke="#c0b088" stroke-width="0.25" stroke-opacity="0.6"/>
<circle cx="42.62" cy="104.82" r="11.22" fill="#d8d0b8" stroke="#a89860" stroke-width="0.6"/>
<circle cx="42.62" cy="104.82" r="4.58" fill="none" stroke="#4c6ab0" stroke-width="0.5"/>
<circle id="output_gate_0" cx="42.62" cy="104.82" r="0.5" fill="none" stroke="none"/>
<rect x="64.36" y="91.54" width="26.57" height="26.57" fill="none" stroke="#c0b088" stroke-width="0.25" stroke-opacity="0.6"/>
<circle cx="77.65" cy="104.82" r="11.22" fill="#d8d0b8" stroke="#a89860" stroke-width="0.6"/>
<circle cx="77.65" cy="104.82" r="4.58" fill="none" stroke="#4c6ab0" stroke-width="0.5"/>
<circle id="output_gate_1" cx="77.65" cy="104.82" r="0.5" fill="none" stroke="none"/>
<rect x="99.4" y="91.54" width="26.57" height="26.57" fill="none" stroke="#c0b088" stroke-width="0.25" stroke-opacity="0.6"/>
<circle cx="112.68" cy="104.82" r="11.22" fill="#d8d0b8" stroke="#a89860" stroke-width="0.6"/>
<circle cx="112.68" cy="104.82" r="4.58" fill="none" stroke="#4c6ab0" stroke-width="0.5"/>
<circle id="output_gate_2" cx="112.68" cy="104.82" r="0.5" fill="none" stroke="none"/>
<rect x="134.43" y="91.54" width="26.57" height="26.57" fill="none" stroke="#c0b088" stroke-width="0.25" stroke-opacity="0.6"/>
<circle cx="147.72" cy="104.82" r="11.22" fill="#d8d0b8" stroke="#a89860" stroke-width="0.6"/>
<circle cx="147.72" cy="104.82" r="4.58" fill="none" stroke="#4c6ab0" stroke-width="0.5"/>
<circle id="output_gate_3" cx="147.72" cy="104.82" r="0.5" fill="none" stroke="none"/>
<rect x="29.33" y="124.02" width="26.57" height="26.57" fill="none" stroke="#c0b088" stroke-width="0.25" stroke-opacity="0.6"/>
<circle cx="42.62" cy="137.3" r="11.22" fill="#d8d0b8" stroke="#a89860" stroke-width="0.6"/>
<circle cx="42.62" cy="137.3" r="4.58" fill="none" stroke="#4c6ab0" stroke-width="0.5"/>
<circle id="output_gate_4" cx="42.62" cy="137.3" r="0.5" fill="none" stroke="none"/>
<rect x="64.36" y="124.02" width="26.57" height="26.57" fill="none" stroke="#c0b088" stroke-width="0.25" stroke-opacity="0.6"/>
<circle cx="77.65" cy="137.3" r="11.22" fill="#d8d0b8" stroke="#a89860" stroke-width="0.6"/>
<circle cx="77.65" cy="137.3" r="4.58" fill="none" stroke="#4c6ab0" stroke-width="0.5"/>
<circle id="output_gate_5" cx="77.65" cy="137.3" r="0.5" fill="none" stroke="none"/>
<rect x="99.4" y="124.02" width="26.57" height="26.57" fill="none" stroke="#c0b088" stroke-width="0.25" stroke-opacity="0.6"/>
<circle cx="112.68" cy="137.3" r="11.22" fill="#d8d0b8" stroke="#a89860" stroke-width="0.6"/>
<circle cx="112.68" cy="137.3" r="4.58" fill="none" stroke="#4c6ab0" stroke-width="0.5"/>
<circle id="output_gate_6" cx="112.68" cy="137.3" r="0.5" fill="none" stroke="none"/>
<rect x="134.43" y="124.02" width="26.57" height="26.57" fill="none" stroke="#c0b088" stroke-width="0.25" stroke-opacity="0.6"/>
<circle cx="147.72" cy="137.3" r="11.22" fill="#d8d0b8" stroke="#a89860" stroke-width="0.6"/>
<circle cx="147.72" cy="137.3" r="4.58" fill="none" stroke="#4c6ab0" stroke-width="0.5"/>
<circle id="output_gate_7" cx="147.72" cy="137.3" r="0.5" fill="none" stroke="none"/>
<rect x="198.99" y="91.54" width="26.57" height="26.57" fill="none" stroke="#c0b088" stroke-width="0.25" stroke-opacity="0.6"/>
<circle cx="212.28" cy="104.82" r="11.22" fill="#d8d0b8" stroke="#a89860" stroke-width="0.6"/>
<circle cx="212.28" cy="104.82" r="4.58" fill="none" stroke="#4c6ab0" stroke-width="0.5"/>
<circle id="output_gate_8" cx="212.28" cy="104.82" r="0.5" fill="none" stroke="none"/>
<rect x="234.03" y="91.54" width="26.57" height="26.57" fill="none" stroke="#c0b088" stroke-width="0.25" stroke-opacity="0.6"/>
<circle cx="247.32" cy="104.82" r="11.22" fill="#d8d0b8" stroke="#a89860" stroke-width="0.6"/>
<circle cx="247.32" cy="104.82" r="4.58" fill="none" stroke="#4c6ab0" stroke-width="0.5"/>
<circle id="output_gate_9" cx="247.32" cy="104.82" r="0.5" fill="none" stroke="none"/>
<rect x="269.06" y="91.54" width="26.57" height="26.57" fill="none" stroke="#c0b088" stroke-width="0.25" stroke-opacity="0.6"/>
<circle cx="282.35" cy="104.82" r="11.22" fill="#d8d0b8" stroke="#a89860" stroke-width="0.6"/>
<circle cx="282.35" cy="104.82" r="4.58" fill="none" stroke="#4c6ab0" stroke-width="0.5"/>
<circle id="output_gate_10" cx="282.35" cy="104.82" r="0.5" fill="none" stroke="none"/>
<rect x="304.1" y="91.54" width="26.57" height="26.57" fill="none" stroke="#c0b088" stroke-width="0.25" stroke-opacity="0.6"/>
<circle cx="317.38" cy="104.82" r="11.22" fill="#d8d0b8" stroke="#a89860" stroke-width="0.6"/>
<circle cx="317.38" cy="104.82" r="4.58" fill="none" stroke="#4c6ab0" stroke-width="0.5"/>
<circle id="output_gate_11" cx="317.38" cy="104.82" r="0.5" fill="none" stroke="none"/>
<rect x="198.99" y="124.02" width="26.57" height="26.57" fill="none" stroke="#c0b088" stroke-width="0.25" stroke-opacity="0.6"/>
<circle cx="212.28" cy="137.3" r="11.22" fill="#d8d0b8" stroke="#a89860" stroke-width="0.6"/>
<circle cx="212.28" cy="137.3" r="4.58" fill="none" stroke="#4c6ab0" stroke-width="0.5"/>
<circle id="output_gate_12" cx="212.28" cy="137.3" r="0.5" fill="none" stroke="none"/>
<rect x="234.03" y="124.02" width="26.57" height="26.57" fill="none" stroke="#c0b088" stroke-width="0.25" stroke-opacity="0.6"/>
<circle cx="247.32" cy="137.3" r="11.22" fill="#d8d0b8" stroke="#a89860" stroke-width="0.6"/>
<circle cx="247.32" cy="137.3" r="4.58" fill="none" stroke="#4c6ab0" stroke-width="0.5"/>
<circle id="output_gate_13" cx="247.32" cy="137.3" r="0.5" fill="none" stroke="none"/>
<rect x="269.06" y="124.02" width="26.57" height="26.57" fill="none" stroke="#c0b088" stroke-width="0.25" stroke-opacity="0.6"/>
<circle cx="282.35" cy="137.3" r="11.22" fill="#d8d0b8" stroke="#a89860" stroke-width="0.6"/>
<circle cx="282.35" cy="137.3" r="4.58" fill="none" stroke="#4c6ab0" stroke-width="0.5"/>
<circle id="output_gate_14" cx="282.35" cy="137.3" r="0.5" fill="none" stroke="none"/>
<rect x="304.1" y="124.02" width="26.57" height="26.57" fill="none" stroke="#c0b088" stroke-width="0.25" stroke-opacity="0.6"/>
<circle cx="317.38" cy="137.3" r="11.22" fill="#d8d0b8" stroke="#a89860" stroke-width="0.6"/>
<circle cx="317.38" cy="137.3" r="4.58" fill="none" stroke="#4c6ab0" stroke-width="0.5"/>
<circle id="output_gate_15" cx="317.38" cy="137.3" r="0.5" fill="none" stroke="none"/>
<polygon points="91.09,68.11 86.49,70.96 86.86,69.75 85.77,69.11" fill="#a88420"/>
<line x1="86.63" y1="66.42" x2="88.94" y2="72.36" stroke="#a88420" stroke-width="1.48"/>
<polygon points="268.91,68.11 274.23,69.11 273.14,69.75 273.51,70.96" fill="#a88420"/>
<line x1="271.06" y1="72.36" x2="273.37" y2="66.42" stroke="#a88420" stroke-width="1.48"/>
<rect x="17.72" y="160.93" width="324.57" height="8.86" fill="#ccc8b6" stroke="#c0b088" stroke-width="0.3"/>
<line x1="17.72" y1="170.96" x2="342.28" y2="170.96" stroke="#b0a068" stroke-width="0.4" stroke-dasharray="2.95 2.95"/>
<rect x="29.33" y="187.5" width="26.57" height="26.57" fill="none" stroke="#c0b088" stroke-width="0.25" stroke-opacity="0.6"/>
<circle cx="42.62" cy="200.79" r="11.22" fill="#d8d0b8" stroke="#a89860" stroke-width="0.6"/>
<circle cx="42.62" cy="200.79" r="4.58" fill="none" stroke="#a87400" stroke-width="0.5"/>
<circle id="output_accent_0" cx="42.62" cy="200.79" r="0.5" fill="none" stroke="none"/>
<rect x="64.36" y="187.5" width="26.57" height="26.57" fill="none" stroke="#c0b088" stroke-width="0.25" stroke-opacity="0.6"/>
<circle cx="77.65" cy="200.79" r="11.22" fill="#d8d0b8" stroke="#a89860" stroke-width="0.6"/>
<circle cx="77.65" cy="200.79" r="4.58" fill="none" stroke="#a87400" stroke-width="0.5"/>
<circle id="output_accent_1" cx="77.65" cy="200.79" r="0.5" fill="none" stroke="none"/>
<rect x="99.4" y="187.5" width="26.57" height="26.57" fill="none" stroke="#c0b088" stroke-width="0.25" stroke-opacity="0.6"/>
<circle cx="112.68" cy="200.79" r="11.22" fill="#d8d0b8" stroke="#a89860" stroke-width="0.6"/>
<circle cx="112.68" cy="200.79" r="4.58" fill="none" stroke="#a87400" stroke-width="0.5"/>
<circle id="output_accent_2" cx="112.68" cy="200.79" r="0.5" fill="none" stroke="none"/>
<rect x="134.43" y="187.5" width="26.57" height="26.57" fill="none" stroke="#c0b088" stroke-width="0.25" stroke-opacity="0.6"/>
<circle cx="147.72" cy="200.79" r="11.22" fill="#d8d0b8" stroke="#a89860" stroke-width="0.6"/>
<circle cx="147.72" cy="200.79" r="4.58" fill="none" stroke="#a87400" stroke-width="0.5"/>
<circle id="output_accent_3" cx="147.72" cy="200.79" r="0.5" fill="none" stroke="none"/>
<rect x="29.33" y="219.98" width="26.57" height="26.57" fill="none" stroke="#c0b088" stroke-width="0.25" stroke-opacity="0.6"/>
<circle cx="42.62" cy="233.27" r="11.22" fill="#d8d0b8" stroke="#a89860" stroke-width="0.6"/>
<circle cx="42.62" cy="233.27" r="4.58" fill="none" stroke="#a87400" stroke-width="0.5"/>
<circle id="output_accent_4" cx="42.62" cy="233.27" r="0.5" fill="none" stroke="none"/>
<rect x="64.36" y="219.98" width="26.57" height="26.57" fill="none" stroke="#c0b088" stroke-width="0.25" stroke-opacity="0.6"/>
<circle cx="77.65" cy="233.27" r="11.22" fill="#d8d0b8" stroke="#a89860" stroke-width="0.6"/>
<circle cx="77.65" cy="233.27" r="4.58" fill="none" stroke="#a87400" stroke-width="0.5"/>
<circle id="output_accent_5" cx="77.65" cy="233.27" r="0.5" fill="none" stroke="none"/>
<rect x="99.4" y="219.98" width="26.57" height="26.57" fill="none" stroke="#c0b088" stroke-width="0.25" stroke-opacity="0.6"/>
<circle cx="112.68" cy="233.27" r="11.22" fill="#d8d0b8" stroke="#a89860" stroke-width="0.6"/>
<circle cx="112.68" cy="233.27" r="4.58" fill="none" stroke="#a87400" stroke-width="0.5"/>
<circle id="output_accent_6" cx="112.68" cy="233.27" r="0.5" fill="none" stroke="none"/>
<rect x="134.43" y="219.98" width="26.57" height="26.57" fill="none" stroke="#c0b088" stroke-width="0.25" stroke-opacity="0.6"/>
<circle cx="147.72" cy="233.27" r="11.22" fill="#d8d0b8" stroke="#a89860" stroke-width="0.6"/>
<circle cx="147.72" cy="233.27" r="4.58" fill="none" stroke="#a87400" stroke-width="0.5"/>
<circle id="output_accent_7" cx="147.72" cy="233.27" r="0.5" fill="none" stroke="none"/>
<rect x="198.99" y="187.5" width="26.57" height="26.57" fill="none" stroke="#c0b088" stroke-width="0.25" stroke-opacity="0.6"/>
<circle cx="212.28" cy="200.79" r="11.22" fill="#d8d0b8" stroke="#a89860" stroke-width="0.6"/>
<circle cx="212.28" cy="200.79" r="4.58" fill="none" stroke="#a87400" stroke-width="0.5"/>
<circle id="output_accent_8" cx="212.28" cy="200.79" r="0.5" fill="none" stroke="none"/>
<rect x="234.03" y="187.5" width="26.57" height="26.57" fill="none" stroke="#c0b088" stroke-width="0.25" stroke-opacity="0.6"/>
<circle cx="247.32" cy="200.79" r="11.22" fill="#d8d0b8" stroke="#a89860" stroke-width="0.6"/>
<circle cx="247.32" cy="200.79" r="4.58" fill="none" stroke="#a87400" stroke-width="0.5"/>
<circle id="output_accent_9" cx="247.32" cy="200.79" r="0.5" fill="none" stroke="none"/>
<rect x="269.06" y="187.5" width="26.57" height="26.57" fill="none" stroke="#c0b088" stroke-width="0.25" stroke-opacity="0.6"/>
<circle cx="282.35" cy="200.79" r="11.22" fill="#d8d0b8" stroke="#a89860" stroke-width="0.6"/>
<circle cx="282.35" cy="200.79" r="4.58" fill="none" stroke="#a87400" stroke-width="0.5"/>
<circle id="output_accent_10" cx="282.35" cy="200.79" r="0.5" fill="none" stroke="none"/>
<rect x="304.1" y="187.5" width="26.57" height="26.57" fill="none" stroke="#c0b088" stroke-width="0.25" stroke-opacity="0.6"/>
<circle cx="317.38" cy="200.79" r="11.22" fill="#d8d0b8" stroke="#a89860" stroke-width="0.6"/>
<circle cx="317.38" cy="200.79" r="4.58" fill="none" stroke="#a87400" stroke-width="0.5"/>
<circle id="output_accent_11" cx="317.38" cy="200.79" r="0.5" fill="none" stroke="none"/>
<rect x="198.99" y="219.98" width="26.57" height="26.57" fill="none" stroke="#c0b088" stroke-width="0.25" stroke-opacity="0.6"/>
<circle cx="212.28" cy="233.27" r="11.22" fill="#d8d0b8" stroke="#a89860" stroke-width="0.6"/>
<circle cx="212.28" cy="233.27" r="4.58" fill="none" stroke="#a87400" stroke-width="0.5"/>
<circle id="output_accent_12" cx="212.28" cy="233.27" r="0.5" fill="none" stroke="none"/>
<rect x="234.03" y="219.98" width="26.57" height="26.57" fill="none" stroke="#c0b088" stroke-width="0.25" stroke-opacity="0.6"/>
<circle cx="247.32" cy="233.27" r="11.22" fill="#d8d0b8" stroke="#a89860" stroke-width="0.6"/>
<circle cx="247.32" cy="233.27" r="4.58" fill="none" stroke="#a87400" stroke-width="0.5"/>
<circle id="output_accent_13" cx="247.32" cy="233.27" r="0.5" fill="none" stroke="none"/>
<rect x="269.06" y="219.98" width="26.57" height="26.57" fill="none" stroke="#c0b088" stroke-width="0.25" stroke-opacity="0.6"/>
<circle cx="282.35" cy="233.27" r="11.22" fill="#d8d0b8" stroke="#a89860" stroke-width="0.6"/>
<circle cx="282.35" cy="233.27" r="4.58" fill="none" stroke="#a87400" stroke-width="0.5"/>
<circle id="output_accent_14" cx="282.35" cy="233.27" r="0.5" fill="none" stroke="none"/>
<rect x="304.1" y="219.98" width="26.57" height="26.57" fill="none" stroke="#c0b088" stroke-width="0.25" stroke-opacity="0.6"/>
<circle cx="317.38" cy="233.27" r="11.22" fill="#d8d0b8" stroke="#a89860" stroke-width="0.6"/>
<circle cx="317.38" cy="233.27" r="4.58" fill="none" stroke="#a87400" stroke-width="0.5"/>
<circle id="output_accent_15" cx="317.38" cy="233.27" r="0.5" fill="none" stroke="none"/>
<polygon points="91.09,164.07 86.49,166.92 86.86,165.71 85.77,165.07" fill="#a88420"/>
<line x1="86.63" y1="162.38" x2="88.94" y2="168.33" stroke="#a88420" stroke-width="1.48"/>
<polygon points="268.91,164.07 274.23,165.07 273.14,165.71 273.51,166.92" fill="#a88420"/>
<line x1="271.06" y1="168.33" x2="273.37" y2="162.38" stroke="#a88420" stroke-width="1.48"/>
<rect x="17.72" y="256.89" width="324.57" height="8.86" fill="#ccc8b6" stroke="#c0b088" stroke-width="0.3"/>
<line x1="17.72" y1="266.93" x2="342.28" y2="266.93" stroke="#b0a068" stroke-width="0.4" stroke-dasharray="2.95 2.95"/>
<rect x="29.33" y="283.46" width="26.57" height="26.57" fill="none" stroke="#c0b088" stroke-width="0.25" stroke-opacity="0.6"/>
<circle cx="42.62" cy="296.75" r="11.22" fill="#d8d0b8" stroke="#a89860" stroke-width="0.6"/>
<circle cx="42.62" cy="296.75" r="4.58" fill="none" stroke="#1c7a70" stroke-width="0.5"/>
<circle id="output_cv_0" cx="42.62" cy="296.75" r="0.5" fill="none" stroke="none"/>
<rect x="64.36" y="283.46" width="26.57" height="26.57" fill="none" stroke="#c0b088" stroke-width="0.25" stroke-opacity="0.6"/>
<circle cx="77.65" cy="296.75" r="11.22" fill="#d8d0b8" stroke="#a89860" stroke-width="0.6"/>
<circle cx="77.65" cy="296.75" r="4.58" fill="none" stroke="#1c7a70" stroke-width="0.5"/>
<circle id="output_cv_1" cx="77.65" cy="296.75" r="0.5" fill="none" stroke="none"/>
<rect x="99.4" y="283.46" width="26.57" height="26.57" fill="none" stroke="#c0b088" stroke-width="0.25" stroke-opacity="0.6"/>
<circle cx="112.68" cy="296.75" r="11.22" fill="#d8d0b8" stroke="#a89860" stroke-width="0.6"/>
<circle cx="112.68" cy="296.75" r="4.58" fill="none" stroke="#1c7a70" stroke-width="0.5"/>
<circle id="output_cv_2" cx="112.68" cy="296.75" r="0.5" fill="none" stroke="none"/>
<rect x="134.43" y="283.46" width="26.57" height="26.57" fill="none" stroke="#c0b088" stroke-width="0.25" stroke-opacity="0.6"/>
<circle cx="147.72" cy="296.75" r="11.22" fill="#d8d0b8" stroke="#a89860" stroke-width="0.6"/>
<circle cx="147.72" cy="296.75" r="4.58" fill="none" stroke="#1c7a70" stroke-width="0.5"/>
<circle id="output_cv_3" cx="147.72" cy="296.75" r="0.5" fill="none" stroke="none"/>
<rect x="29.33" y="315.94" width="26.57" height="26.57" fill="none" stroke="#c0b088" stroke-width="0.25" stroke-opacity="0.6"/>
<circle cx="42.62" cy="329.23" r="11.22" fill="#d8d0b8" stroke="#a89860" stroke-width="0.6"/>
<circle cx="42.62" cy="329.23" r="4.58" fill="none" stroke="#1c7a70" stroke-width="0.5"/>
<circle id="output_cv_4" cx="42.62" cy="329.23" r="0.5" fill="none" stroke="none"/>
<rect x="64.36" y="315.94" width="26.57" height="26.57" fill="none" stroke="#c0b088" stroke-width="0.25" stroke-opacity="0.6"/>
<circle cx="77.65" cy="329.23" r="11.22" fill="#d8d0b8" stroke="#a89860" stroke-width="0.6"/>
<circle cx="77.65" cy="329.23" r="4.58" fill="none" stroke="#1c7a70" stroke-width="0.5"/>
<circle id="output_cv_5" cx="77.65" cy="329.23" r="0.5" fill="none" stroke="none"/>
<rect x="99.4" y="315.94" width="26.57" height="26.57" fill="none" stroke="#c0b088" stroke-width="0.25" stroke-opacity="0.6"/>
<circle cx="112.68" cy="329.23" r="11.22" fill="#d8d0b8" stroke="#a89860" stroke-width="0.6"/>
<circle cx="112.68" cy="329.23" r="4.58" fill="none" stroke="#1c7a70" stroke-width="0.5"/>
<circle id="output_cv_6" cx="112.68" cy="329.23" r="0.5" fill="none" stroke="none"/>
<rect x="134.43" y="315.94" width="26.57" height="26.57" fill="none" stroke="#c0b088" stroke-width="0.25" stroke-opacity="0.6"/>
<circle cx="147.72" cy="329.23" r="11.22" fill="#d8d0b8" stroke="#a89860" stroke-width="0.6"/>
<circle cx="147.72" cy="329.23" r="4.58" fill="none" stroke="#1c7a70" stroke-width="0.5"/>
<circle id="output_cv_7" cx="147.72" cy="329.23" r="0.5" fill="none" stroke="none"/>
<rect x="198.99" y="283.46" width="26.57" height="26.57" fill="none" stroke="#c0b088" stroke-width="0.25" stroke-opacity="0.6"/>
<circle cx="212.28" cy="296.75" r="11.22" fill="#d8d0b8" stroke="#a89860" stroke-width="0.6"/>
<circle cx="212.28" cy="296.75" r="4.58" fill="none" stroke="#1c7a70" stroke-width="0.5"/>
<circle id="output_cv_8" cx="212.28" cy="296.75" r="0.5" fill="none" stroke="none"/>
<rect x="234.03" y="283.46" width="26.57" height="26.57" fill="none" stroke="#c0b088" stroke-width="0.25" stroke-opacity="0.6"/>
<circle cx="247.32" cy="296.75" r="11.22" fill="#d8d0b8" stroke="#a89860" stroke-width="0.6"/>
<circle cx="247.32" cy="296.75" r="4.58" fill="none" stroke="#1c7a70" stroke-width="0.5"/>
<circle id="output_cv_9" cx="247.32" cy="296.75" r="0.5" fill="none" stroke="none"/>
<rect x="269.06" y="283.46" width="26.57" height="26.57" fill="none" stroke="#c0b088" stroke-width="0.25" stroke-opacity="0.6"/>
<circle cx="282.35" cy="296.75" r="11.22" fill="#d8d0b8" stroke="#a89860" stroke-width="0.6"/>
<circle cx="282.35" cy="296.75" r="4.58" fill="none" stroke="#1c7a70" stroke-width="0.5"/>
<circle id="output_cv_10" cx="282.35" cy="296.75" r="0.5" fill="none" stroke="none"/>
<rect x="304.1" y="283.46" width="26.57" height="26.57" fill="none" stroke="#c0b088" stroke-width="0.25" stroke-opacity="0.6"/>
<circle cx="317.38" cy="296.75" r="11.22" fill="#d8d0b8" stroke="#a89860" stroke-width="0.6"/>
<circle cx="317.38" cy="296.75" r="4.58" fill="none" stroke="#1c7a70" stroke-width="0.5"/>
<circle id="output_cv_11" cx="317.38" cy="296.75" r="0.5" fill="none" stroke="none"/>
<rect x="198.99" y="315.94" width="26.57" height="26.57" fill="none" stroke="#c0b088" stroke-width="0.25" stroke-opacity="0.6"/>
<circle cx="212.28" cy="329.23" r="11.22" fill="#d8d0b8" stroke="#a89860" stroke-width="0.6"/>
<circle cx="212.28" cy="329.23" r="4.58" fill="none" stroke="#1c7a70" stroke-width="0.5"/>
<circle id="output_cv_12" cx="212.28" cy="329.23" r="0.5" fill="none" stroke="none"/>
<rect x="234.03" y="315.94" width="26.57" height="26.57" fill="none" stroke="#c0b088" stroke-width="0.25" stroke-opacity="0.6"/>
<circle cx="247.32" cy="329.23" r="11.22" fill="#d8d0b8" stroke="#a89860" stroke-width="0.6"/>
<circle cx="247.32" cy="329.23" r="4.58" fill="none" stroke="#1c7a70" stroke-width="0.5"/>
<circle id="output_cv_13" cx="247.32" cy="329.23" r="0.5" fill="none" stroke="none"/>
<rect x="269.06" y="315.94" width="26.57" height="26.57" fill="none" stroke="#c0b088" stroke-width="0.25" stroke-opacity="0.6"/>
<circle cx="282.35" cy="329.23" r="11.22" fill="#d8d0b8" stroke="#a89860" stroke-width="0.6"/>
<circle cx="282.35" cy="329.23" r="4.58" fill="none" stroke="#1c7a70" stroke-width="0.5"/>
<circle id="output_cv_14" cx="282.35" cy="329.23" r="0.5" fill="none" stroke="none"/>
<rect x="304.1" y="315.94" width="26.57" height="26.57" fill="none" stroke="#c0b088" stroke-width="0.25" stroke-opacity="0.6"/>
<circle cx="317.38" cy="329.23" r="11.22" fill="#d8d0b8" stroke="#a89860" stroke-width="0.6"/>
<circle cx="317.38" cy="329.23" r="4.58" fill="none" stroke="#1c7a70" stroke-width="0.5"/>
<circle id="output_cv_15" cx="317.38" cy="329.23" r="0.5" fill="none" stroke="none"/>
<polygon points="91.09,260.03 86.49,262.89 86.86,261.68 85.77,261.04" fill="#a88420"/>
<line x1="86.63" y1="258.35" x2="88.94" y2="264.29" stroke="#a88420" stroke-width="1.48"/>
<polygon points="268.91,260.03 274.23,261.04 273.14,261.68 273.51,262.89" fill="#a88420"/>
<line x1="271.06" y1="264.29" x2="273.37" y2="258.35" stroke="#a88420" stroke-width="1.48"/>
<line x1="17.72" y1="355.81" x2="342.28" y2="355.81" stroke="#c0b088" stroke-width="0.4"/>
<circle cx="330.47" cy="367.62" r="4.72" fill="#d8d0b8" stroke="#a89860" stroke-width="0.3"/>
<circle id="light_connect" cx="330.47" cy="367.62" r="0.5" fill="none" stroke="none"/>
</svg>