<svg width="270.0" height="379.43" viewBox="0 0 91.440 128.500" xmlns="http://www.w3.org/2000/svg">
<rect width="91.440" height="128.500" fill="#e4e0d0"/>
<rect width="91.440" height="2.0" fill="#d4001a"/>
<rect x="13.000" y="18.000" width="74.940" height="74.940" fill="#0d100b"/>
<rect x="13.000" y="22.684" width="74.940" height="4.684" fill="#111410" opacity="0.8"/>
<rect x="13.000" y="32.051" width="74.940" height="4.684" fill="#111410" opacity="0.8"/>
<rect x="13.000" y="41.419" width="74.940" height="4.684" fill="#111410" opacity="0.8"/>
<rect x="13.000" y="50.786" width="74.940" height="4.684" fill="#111410" opacity="0.8"/>
<rect x="13.000" y="60.154" width="74.940" height="4.684" fill="#111410" opacity="0.8"/>
<rect x="13.000" y="69.521" width="74.940" height="4.684" fill="#111410" opacity="0.8"/>
<rect x="13.000" y="78.889" width="74.940" height="4.684" fill="#111410" opacity="0.8"/>
<rect x="13.000" y="88.256" width="74.940" height="4.684" fill="#111410" opacity="0.8"/>
<line x1="13.000" y1="18.000" x2="13.000" y2="92.940" stroke="#1e2420" stroke-width="0.4"/>
<line x1="13.000" y1="18.000" x2="87.940" y2="18.000" stroke="#1e2420" stroke-width="0.4"/>
<line x1="17.684" y1="18.000" x2="17.684" y2="92.940" stroke="#1e2420" stroke-width="0.4"/>
<line x1="13.000" y1="22.684" x2="87.940" y2="22.684" stroke="#1e2420" stroke-width="0.4"/>
<line x1="22.367" y1="18.000" x2="22.367" y2="92.940" stroke="#1e2420" stroke-width="0.4"/>
<line x1="13.000" y1="27.367" x2="87.940" y2="27.367" stroke="#1e2420" stroke-width="0.4"/>
<line x1="27.051" y1="18.000" x2="27.051" y2="92.940" stroke="#1e2420" stroke-width="0.4"/>
<line x1="13.000" y1="32.051" x2="87.940" y2="32.051" stroke="#1e2420" stroke-width="0.4"/>
<line x1="31.735" y1="18.000" x2="31.735" y2="92.940" stroke="#1e2420" stroke-width="0.4"/>
<line x1="13.000" y1="36.735" x2="87.940" y2="36.735" stroke="#1e2420" stroke-width="0.4"/>
<line x1="36.419" y1="18.000" x2="36.419" y2="92.940" stroke="#1e2420" stroke-width="0.4"/>
<line x1="13.000" y1="41.419" x2="87.940" y2="41.419" stroke="#1e2420" stroke-width="0.4"/>
<line x1="41.102" y1="18.000" x2="41.102" y2="92.940" stroke="#1e2420" stroke-width="0.4"/>
<line x1="13.000" y1="46.102" x2="87.940" y2="46.102" stroke="#1e2420" stroke-width="0.4"/>
<line x1="45.786" y1="18.000" x2="45.786" y2="92.940" stroke="#1e2420" stroke-width="0.4"/>
<line x1="13.000" y1="50.786" x2="87.940" y2="50.786" stroke="#1e2420" stroke-width="0.4"/>
<line x1="50.470" y1="18.000" x2="50.470" y2="92.940" stroke="#1e2420" stroke-width="0.4"/>
<line x1="13.000" y1="55.470" x2="87.940" y2="55.470" stroke="#1e2420" stroke-width="0.4"/>
<line x1="55.154" y1="18.000" x2="55.154" y2="92.940" stroke="#1e2420" stroke-width="0.4"/>
<line x1="13.000" y1="60.154" x2="87.940" y2="60.154" stroke="#1e2420" stroke-width="0.4"/>
<line x1="59.837" y1="18.000" x2="59.837" y2="92.940" stroke="#1e2420" stroke-width="0.4"/>
<line x1="13.000" y1="64.838" x2="87.940" y2="64.838" stroke="#1e2420" stroke-width="0.4"/>
<line x1="64.521" y1="18.000" x2="64.521" y2="92.940" stroke="#1e2420" stroke-width="0.4"/>
<line x1="13.000" y1="69.521" x2="87.940" y2="69.521" stroke="#1e2420" stroke-width="0.4"/>
<line x1="69.205" y1="18.000" x2="69.205" y2="92.940" stroke="#1e2420" stroke-width="0.4"/>
<line x1="13.000" y1="74.205" x2="87.940" y2="74.205" stroke="#1e2420" stroke-width="0.4"/>
<line x1="73.889" y1="18.000" x2="73.889" y2="92.940" stroke="#1e2420" stroke-width="0.4"/>
<line x1="13.000" y1="78.889" x2="87.940" y2="78.889" stroke="#1e2420" stroke-width="0.4"/>
<line x1="78.572" y1="18.000" x2="78.572" y2="92.940" stroke="#1e2420" stroke-width="0.4"/>
<line x1="13.000" y1="83.572" x2="87.940" y2="83.572" stroke="#1e2420" stroke-width="0.4"/>
<line x1="83.256" y1="18.000" x2="83.256" y2="92.940" stroke="#1e2420" stroke-width="0.4"/>
<line x1="13.000" y1="88.256" x2="87.940" y2="88.256" stroke="#1e2420" stroke-width="0.4"/>
<line x1="87.940" y1="18.000" x2="87.940" y2="92.940" stroke="#1e2420" stroke-width="0.4"/>
<line x1="13.000" y1="92.940" x2="87.940" y2="92.940" stroke="#1e2420" stroke-width="0.4"/>
</svg>