<svg xmlns="http://www.w3.org/2000/svg" width="360.0" height="379.43" viewBox="0 0 360.0 379.43">
<rect width="360.0" height="379.43" fill="#12140f"/>
<rect x="0" y="0" width="360.0" height="3.54" fill="#d4001a"/>
<line x1="60.0" y1="44.29" x2="60.0" y2="342.52" stroke="#3a3218" stroke-width="0.3" stroke-opacity="0.5"/>
<line x1="120.0" y1="44.29" x2="120.0" y2="342.52" stroke="#3a3218" stroke-width="0.3" stroke-opacity="0.5"/>
<line x1="180.0" y1="44.29" x2="180.0" y2="342.52" stroke="#3a3218" stroke-width="0.3" stroke-opacity="0.5"/>
<line x1="240.0" y1="44.29" x2="240.0" y2="342.52" stroke="#3a3218" stroke-width="0.3" stroke-opacity="0.5"/>
<line x1="300.0" y1="44.29" x2="300.0" y2="342.52" stroke="#3a3218" stroke-width="0.3" stroke-opacity="0.5"/>
<ellipse cx="180.0" cy="72.34" rx="21.26" ry="13.29" fill="none" stroke="#c8960c" stroke-width="4.72"/>
<line x1="173.36" y1="76.33" x2="166.71" y2="321.85" stroke="#9fdcea" stroke-width="1.48" stroke-opacity="0.30"/>
<line x1="174.55" y1="76.33" x2="168.44" y2="321.85" stroke="#9fdcea" stroke-width="1.48" stroke-opacity="0.34"/>
<line x1="173.54" y1="76.33" x2="167.96" y2="321.85" stroke="#9fdcea" stroke-width="1.48" stroke-opacity="0.37"/>
<line x1="175.46" y1="76.33" x2="170.41" y2="321.85" stroke="#9fdcea" stroke-width="1.48" stroke-opacity="0.41"/>
<line x1="175.68" y1="76.33" x2="171.16" y2="321.85" stroke="#9fdcea" stroke-width="1.48" stroke-opacity="0.44"/>
<line x1="175.24" y1="76.33" x2="171.25" y2="321.85" stroke="#9fdcea" stroke-width="1.48" stroke-opacity="0.48"/>
<line x1="177.38" y1="76.33" x2="173.93" y2="321.85" stroke="#9fdcea" stroke-width="1.48" stroke-opacity="0.52"/>
<line x1="176.74" y1="76.33" x2="173.82" y2="321.85" stroke="#9fdcea" stroke-width="1.48" stroke-opacity="0.55"/>
<line x1="177.22" y1="76.33" x2="174.83" y2="321.85" stroke="#9fdcea" stroke-width="1.48" stroke-opacity="0.59"/>
<line x1="178.99" y1="76.33" x2="177.13" y2="321.85" stroke="#9fdcea" stroke-width="1.48" stroke-opacity="0.62"/>
<line x1="177.92" y1="76.33" x2="176.59" y2="321.85" stroke="#9fdcea" stroke-width="1.48" stroke-opacity="0.66"/>
<line x1="179.35" y1="76.33" x2="178.55" y2="321.85" stroke="#9fdcea" stroke-width="1.48" stroke-opacity="0.70"/>
<line x1="180.29" y1="76.33" x2="180.02" y2="321.85" stroke="#9fdcea" stroke-width="1.48" stroke-opacity="0.73"/>
<line x1="179.38" y1="76.33" x2="179.65" y2="321.85" stroke="#9fdcea" stroke-width="1.48" stroke-opacity="0.73"/>
<line x1="181.42" y1="76.33" x2="182.22" y2="321.85" stroke="#9fdcea" stroke-width="1.48" stroke-opacity="0.70"/>
<line x1="181.38" y1="76.33" x2="182.71" y2="321.85" stroke="#9fdcea" stroke-width="1.48" stroke-opacity="0.66"/>
<line x1="181.17" y1="76.33" x2="183.03" y2="321.85" stroke="#9fdcea" stroke-width="1.48" stroke-opacity="0.62"/>
<line x1="183.26" y1="76.33" x2="185.66" y2="321.85" stroke="#9fdcea" stroke-width="1.48" stroke-opacity="0.59"/>
<line x1="182.45" y1="76.33" x2="185.38" y2="321.85" stroke="#9fdcea" stroke-width="1.48" stroke-opacity="0.55"/>
<line x1="183.21" y1="76.33" x2="186.66" y2="321.85" stroke="#9fdcea" stroke-width="1.48" stroke-opacity="0.52"/>
<line x1="184.79" y1="76.33" x2="188.77" y2="321.85" stroke="#9fdcea" stroke-width="1.48" stroke-opacity="0.48"/>
<line x1="183.7" y1="76.33" x2="188.22" y2="321.85" stroke="#9fdcea" stroke-width="1.48" stroke-opacity="0.44"/>
<line x1="185.34" y1="76.33" x2="190.39" y2="321.85" stroke="#9fdcea" stroke-width="1.48" stroke-opacity="0.41"/>
<line x1="186.01" y1="76.33" x2="191.59" y2="321.85" stroke="#9fdcea" stroke-width="1.48" stroke-opacity="0.37"/>
<line x1="185.25" y1="76.33" x2="191.36" y2="321.85" stroke="#9fdcea" stroke-width="1.48" stroke-opacity="0.34"/>
<line x1="187.36" y1="76.33" x2="194.01" y2="321.85" stroke="#9fdcea" stroke-width="1.48" stroke-opacity="0.30"/>
<line x1="178.41" y1="72.34" x2="176.81" y2="321.85" stroke="#e8f8fc" stroke-width="1.33" stroke-opacity="0.45"/>
<line x1="178.8" y1="72.34" x2="177.61" y2="321.85" stroke="#e8f8fc" stroke-width="1.33" stroke-opacity="0.45"/>
<line x1="179.2" y1="72.34" x2="178.41" y2="321.85" stroke="#e8f8fc" stroke-width="1.33" stroke-opacity="0.45"/>
<line x1="179.6" y1="72.34" x2="179.2" y2="321.85" stroke="#e8f8fc" stroke-width="1.33" stroke-opacity="0.45"/>
<line x1="180.0" y1="72.34" x2="180.0" y2="321.85" stroke="#e8f8fc" stroke-width="1.33" stroke-opacity="0.45"/>
<line x1="180.4" y1="72.34" x2="180.8" y2="321.85" stroke="#e8f8fc" stroke-width="1.33" stroke-opacity="0.45"/>
<line x1="180.8" y1="72.34" x2="181.59" y2="321.85" stroke="#e8f8fc" stroke-width="1.33" stroke-opacity="0.45"/>
<line x1="181.2" y1="72.34" x2="182.39" y2="321.85" stroke="#e8f8fc" stroke-width="1.33" stroke-opacity="0.45"/>
<path d="M 158.74 72.34 A 21.26 13.29 0 0 0 201.26 72.34" fill="none" stroke="#f0d080" stroke-width="4.72"/>
<ellipse cx="180.0" cy="327.76" rx="18.6" ry="4.43" fill="#2a7a86"/>
<ellipse cx="180.0" cy="327.76" rx="18.6" ry="4.43" fill="none" stroke="#8fe8dc" stroke-width="0.5"/>
<rect x="178.52" y="330.71" width="2.95" height="6.5" fill="#e8c050" fill-opacity="0.5"/>
<rect x="178.52" y="318.9" width="2.95" height="6.5" fill="#e8c050" fill-opacity="0.5"/>
<rect x="178.52" y="307.09" width="2.95" height="6.5" fill="#e8c050" fill-opacity="0.5"/>
<rect x="178.52" y="295.28" width="2.95" height="6.5" fill="#e8c050" fill-opacity="0.5"/>
<rect x="178.52" y="283.46" width="2.95" height="6.5" fill="#e8c050" fill-opacity="0.5"/>
<rect x="178.52" y="271.65" width="2.95" height="6.5" fill="#e8c050" fill-opacity="0.5"/>
<line x1="180.0" y1="45.77" x2="180.0" y2="22.15" stroke="#c8960c" stroke-width="2.36"/>
<polygon points="173.5,22.15 186.5,22.15 184.13,14.76 175.87,14.76" fill="#c8960c"/>
<line x1="180.0" y1="14.76" x2="180.0" y2="8.86" stroke="#e8c050" stroke-width="1.48"/>
<circle cx="180.0" cy="7.97" r="1.77" fill="#d4001a"/>
<rect x="20.67" y="59.06" width="318.66" height="10.04" fill="#1a1c15" stroke="#7a5c10" stroke-width="0.3"/>
<circle cx="45.01" cy="96.7" r="11.52" fill="#0a0b08" stroke="#5a4a1c" stroke-width="0.6"/>
<circle cx="45.01" cy="96.7" r="4.72" fill="none" stroke="#6c8cd4" stroke-width="0.5"/>
<circle id="output_gate_0" cx="45.01" cy="96.7" r="0.5" fill="none" stroke="none"/>
<circle cx="75.99" cy="96.7" r="11.52" fill="#0a0b08" stroke="#5a4a1c" stroke-width="0.6"/>
<circle cx="75.99" cy="96.7" r="4.72" fill="none" stroke="#6c8cd4" stroke-width="0.5"/>
<circle id="output_gate_1" cx="75.99" cy="96.7" r="0.5" fill="none" stroke="none"/>
<circle cx="106.96" cy="96.7" r="11.52" fill="#0a0b08" stroke="#5a4a1c" stroke-width="0.6"/>
<circle cx="106.96" cy="96.7" r="4.72" fill="none" stroke="#6c8cd4" stroke-width="0.5"/>
<circle id="output_gate_2" cx="106.96" cy="96.7" r="0.5" fill="none" stroke="none"/>
<circle cx="137.94" cy="96.7" r="11.52" fill="#0a0b08" stroke="#5a4a1c" stroke-width="0.6"/>
<circle cx="137.94" cy="96.7" r="4.72" fill="none" stroke="#6c8cd4" stroke-width="0.5"/>
<circle id="output_gate_3" cx="137.94" cy="96.7" r="0.5" fill="none" stroke="none"/>
<circle cx="45.01" cy="130.66" r="11.52" fill="#0a0b08" stroke="#5a4a1c" stroke-width="0.6"/>
<circle cx="45.01" cy="130.66" r="4.72" fill="none" stroke="#6c8cd4" stroke-width="0.5"/>
<circle id="output_gate_4" cx="45.01" cy="130.66" r="0.5" fill="none" stroke="none"/>
<circle cx="75.99" cy="130.66" r="11.52" fill="#0a0b08" stroke="#5a4a1c" stroke-width="0.6"/>
<circle cx="75.99" cy="130.66" r="4.72" fill="none" stroke="#6c8cd4" stroke-width="0.5"/>
<circle id="output_gate_5" cx="75.99" cy="130.66" r="0.5" fill="none" stroke="none"/>
<circle cx="106.96" cy="130.66" r="11.52" fill="#0a0b08" stroke="#5a4a1c" stroke-width="0.6"/>
<circle cx="106.96" cy="130.66" r="4.72" fill="none" stroke="#6c8cd4" stroke-width="0.5"/>
<circle id="output_gate_6" cx="106.96" cy="130.66" r="0.5" fill="none" stroke="none"/>
<circle cx="137.94" cy="130.66" r="11.52" fill="#0a0b08" stroke="#5a4a1c" stroke-width="0.6"/>
<circle cx="137.94" cy="130.66" r="4.72" fill="none" stroke="#6c8cd4" stroke-width="0.5"/>
<circle id="output_gate_7" cx="137.94" cy="130.66" r="0.5" fill="none" stroke="none"/>
<circle cx="222.06" cy="96.7" r="11.52" fill="#0a0b08" stroke="#5a4a1c" stroke-width="0.6"/>
<circle cx="222.06" cy="96.7" r="4.72" fill="none" stroke="#6c8cd4" stroke-width="0.5"/>
<circle id="output_gate_8" cx="222.06" cy="96.7" r="0.5" fill="none" stroke="none"/>
<circle cx="253.04" cy="96.7" r="11.52" fill="#0a0b08" stroke="#5a4a1c" stroke-width="0.6"/>
<circle cx="253.04" cy="96.7" r="4.72" fill="none" stroke="#6c8cd4" stroke-width="0.5"/>
<circle id="output_gate_9" cx="253.04" cy="96.7" r="0.5" fill="none" stroke="none"/>
<circle cx="284.01" cy="96.7" r="11.52" fill="#0a0b08" stroke="#5a4a1c" stroke-width="0.6"/>
<circle cx="284.01" cy="96.7" r="4.72" fill="none" stroke="#6c8cd4" stroke-width="0.5"/>
<circle id="output_gate_10" cx="284.01" cy="96.7" r="0.5" fill="none" stroke="none"/>
<circle cx="314.99" cy="96.7" r="11.52" fill="#0a0b08" stroke="#5a4a1c" stroke-width="0.6"/>
<circle cx="314.99" cy="96.7" r="4.72" fill="none" stroke="#6c8cd4" stroke-width="0.5"/>
<circle id="output_gate_11" cx="314.99" cy="96.7" r="0.5" fill="none" stroke="none"/>
<circle cx="222.06" cy="130.66" r="11.52" fill="#0a0b08" stroke="#5a4a1c" stroke-width="0.6"/>
<circle cx="222.06" cy="130.66" r="4.72" fill="none" stroke="#6c8cd4" stroke-width="0.5"/>
<circle id="output_gate_12" cx="222.06" cy="130.66" r="0.5" fill="none" stroke="none"/>
<circle cx="253.04" cy="130.66" r="11.52" fill="#0a0b08" stroke="#5a4a1c" stroke-width="0.6"/>
<circle cx="253.04" cy="130.66" r="4.72" fill="none" stroke="#6c8cd4" stroke-width="0.5"/>
<circle id="output_gate_13" cx="253.04" cy="130.66" r="0.5" fill="none" stroke="none"/>
<circle cx="284.01" cy="130.66" r="11.52" fill="#0a0b08" stroke="#5a4a1c" stroke-width="0.6"/>
<circle cx="284.01" cy="130.66" r="4.72" fill="none" stroke="#6c8cd4" stroke-width="0.5"/>
<circle id="output_gate_14" cx="284.01" cy="130.66" r="0.5" fill="none" stroke="none"/>
<circle cx="314.99" cy="130.66" r="11.52" fill="#0a0b08" stroke="#5a4a1c" stroke-width="0.6"/>
<circle cx="314.99" cy="130.66" r="4.72" fill="none" stroke="#6c8cd4" stroke-width="0.5"/>
<circle id="output_gate_15" cx="314.99" cy="130.66" r="0.5" fill="none" stroke="none"/>
<polygon points="89.26,59.94 90.42,66.14 89.26,65.23 88.1,66.14" fill="#c8960c"/>
<line x1="85.54" y1="64.07" x2="92.98" y2="64.07" stroke="#c8960c" stroke-width="1.48"/>
<line x1="88.02" y1="66.35" x2="90.5" y2="66.35" stroke="#c8960c" stroke-width="1.18"/>
<polygon points="270.74,59.94 271.9,66.14 270.74,65.23 269.58,66.14" fill="#c8960c"/>
<line x1="267.02" y1="64.07" x2="274.46" y2="64.07" stroke="#c8960c" stroke-width="1.48"/>
<line x1="269.5" y1="66.35" x2="271.98" y2="66.35" stroke="#c8960c" stroke-width="1.18"/>
<rect x="20.67" y="153.54" width="318.66" height="10.04" fill="#1a1c15" stroke="#7a5c10" stroke-width="0.3"/>
<circle cx="45.01" cy="191.19" r="11.52" fill="#0a0b08" stroke="#5a4a1c" stroke-width="0.6"/>
<circle cx="45.01" cy="191.19" r="4.72" fill="none" stroke="#e0a020" stroke-width="0.5"/>
<circle id="output_accent_0" cx="45.01" cy="191.19" r="0.5" fill="none" stroke="none"/>
<circle cx="75.99" cy="191.19" r="11.52" fill="#0a0b08" stroke="#5a4a1c" stroke-width="0.6"/>
<circle cx="75.99" cy="191.19" r="4.72" fill="none" stroke="#e0a020" stroke-width="0.5"/>
<circle id="output_accent_1" cx="75.99" cy="191.19" r="0.5" fill="none" stroke="none"/>
<circle cx="106.96" cy="191.19" r="11.52" fill="#0a0b08" stroke="#5a4a1c" stroke-width="0.6"/>
<circle cx="106.96" cy="191.19" r="4.72" fill="none" stroke="#e0a020" stroke-width="0.5"/>
<circle id="output_accent_2" cx="106.96" cy="191.19" r="0.5" fill="none" stroke="none"/>
<circle cx="137.94" cy="191.19" r="11.52" fill="#0a0b08" stroke="#5a4a1c" stroke-width="0.6"/>
<circle cx="137.94" cy="191.19" r="4.72" fill="none" stroke="#e0a020" stroke-width="0.5"/>
<circle id="output_accent_3" cx="137.94" cy="191.19" r="0.5" fill="none" stroke="none"/>
<circle cx="45.01" cy="225.15" r="11.52" fill="#0a0b08" stroke="#5a4a1c" stroke-width="0.6"/>
<circle cx="45.01" cy="225.15" r="4.72" fill="none" stroke="#e0a020" stroke-width="0.5"/>
<circle id="output_accent_4" cx="45.01" cy="225.15" r="0.5" fill="none" stroke="none"/>
<circle cx="75.99" cy="225.15" r="11.52" fill="#0a0b08" stroke="#5a4a1c" stroke-width="0.6"/>
<circle cx="75.99" cy="225.15" r="4.72" fill="none" stroke="#e0a020" stroke-width="0.5"/>
<circle id="output_accent_5" cx="75.99" cy="225.15" r="0.5" fill="none" stroke="none"/>
<circle cx="106.96" cy="225.15" r="11.52" fill="#0a0b08" stroke="#5a4a1c" stroke-width="0.6"/>
<circle cx="106.96" cy="225.15" r="4.72" fill="none" stroke="#e0a020" stroke-width="0.5"/>
<circle id="output_accent_6" cx="106.96" cy="225.15" r="0.5" fill="none" stroke="none"/>
<circle cx="137.94" cy="225.15" r="11.52" fill="#0a0b08" stroke="#5a4a1c" stroke-width="0.6"/>
<circle cx="137.94" cy="225.15" r="4.72" fill="none" stroke="#e0a020" stroke-width="0.5"/>
<circle id="output_accent_7" cx="137.94" cy="225.15" r="0.5" fill="none" stroke="none"/>
<circle cx="222.06" cy="191.19" r="11.52" fill="#0a0b08" stroke="#5a4a1c" stroke-width="0.6"/>
<circle cx="222.06" cy="191.19" r="4.72" fill="none" stroke="#e0a020" stroke-width="0.5"/>
<circle id="output_accent_8" cx="222.06" cy="191.19" r="0.5" fill="none" stroke="none"/>
<circle cx="253.04" cy="191.19" r="11.52" fill="#0a0b08" stroke="#5a4a1c" stroke-width="0.6"/>
<circle cx="253.04" cy="191.19" r="4.72" fill="none" stroke="#e0a020" stroke-width="0.5"/>
<circle id="output_accent_9" cx="253.04" cy="191.19" r="0.5" fill="none" stroke="none"/>
<circle cx="284.01" cy="191.19" r="11.52" fill="#0a0b08" stroke="#5a4a1c" stroke-width="0.6"/>
<circle cx="284.01" cy="191.19" r="4.72" fill="none" stroke="#e0a020" stroke-width="0.5"/>
<circle id="output_accent_10" cx="284.01" cy="191.19" r="0.5" fill="none" stroke="none"/>
<circle cx="314.99" cy="191.19" r="11.52" fill="#0a0b08" stroke="#5a4a1c" stroke-width="0.6"/>
<circle cx="314.99" cy="191.19" r="4.72" fill="none" stroke="#e0a020" stroke-width="0.5"/>
<circle id="output_accent_11" cx="314.99" cy="191.19" r="0.5" fill="none" stroke="none"/>
<circle cx="222.06" cy="225.15" r="11.52" fill="#0a0b08" stroke="#5a4a1c" stroke-width="0.6"/>
<circle cx="222.06" cy="225.15" r="4.72" fill="none" stroke="#e0a020" stroke-width="0.5"/>
<circle id="output_accent_12" cx="222.06" cy="225.15" r="0.5" fill="none" stroke="none"/>
<circle cx="253.04" cy="225.15" r="11.52" fill="#0a0b08" stroke="#5a4a1c" stroke-width="0.6"/>
<circle cx="253.04" cy="225.15" r="4.72" fill="none" stroke="#e0a020" stroke-width="0.5"/>
<circle id="output_accent_13" cx="253.04" cy="225.15" r="0.5" fill="none" stroke="none"/>
<circle cx="284.01" cy="225.15" r="11.52" fill="#0a0b08" stroke="#5a4a1c" stroke-width="0.6"/>
<circle cx="284.01" cy="225.15" r="4.72" fill="none" stroke="#e0a020" stroke-width="0.5"/>
<circle id="output_accent_14" cx="284.01" cy="225.15" r="0.5" fill="none" stroke="none"/>
<circle cx="314.99" cy="225.15" r="11.52" fill="#0a0b08" stroke="#5a4a1c" stroke-width="0.6"/>
<circle cx="314.99" cy="225.15" r="4.72" fill="none" stroke="#e0a020" stroke-width="0.5"/>
<circle id="output_accent_15" cx="314.99" cy="225.15" r="0.5" fill="none" stroke="none"/>
<rect x="20.67" y="248.03" width="318.66" height="10.04" fill="#1a1c15" stroke="#7a5c10" stroke-width="0.3"/>
<circle cx="45.01" cy="285.68" r="11.52" fill="#0a0b08" stroke="#5a4a1c" stroke-width="0.6"/>
<circle cx="45.01" cy="285.68" r="4.72" fill="none" stroke="#26a69a" stroke-width="0.5"/>
<circle id="output_cv_0" cx="45.01" cy="285.68" r="0.5" fill="none" stroke="none"/>
<circle cx="75.99" cy="285.68" r="11.52" fill="#0a0b08" stroke="#5a4a1c" stroke-width="0.6"/>
<circle cx="75.99" cy="285.68" r="4.72" fill="none" stroke="#26a69a" stroke-width="0.5"/>
<circle id="output_cv_1" cx="75.99" cy="285.68" r="0.5" fill="none" stroke="none"/>
<circle cx="106.96" cy="285.68" r="11.52" fill="#0a0b08" stroke="#5a4a1c" stroke-width="0.6"/>
<circle cx="106.96" cy="285.68" r="4.72" fill="none" stroke="#26a69a" stroke-width="0.5"/>
<circle id="output_cv_2" cx="106.96" cy="285.68" r="0.5" fill="none" stroke="none"/>
<circle cx="137.94" cy="285.68" r="11.52" fill="#0a0b08" stroke="#5a4a1c" stroke-width="0.6"/>
<circle cx="137.94" cy="285.68" r="4.72" fill="none" stroke="#26a69a" stroke-width="0.5"/>
<circle id="output_cv_3" cx="137.94" cy="285.68" r="0.5" fill="none" stroke="none"/>
<circle cx="45.01" cy="319.64" r="11.52" fill="#0a0b08" stroke="#5a4a1c" stroke-width="0.6"/>
<circle cx="45.01" cy="319.64" r="4.72" fill="none" stroke="#26a69a" stroke-width="0.5"/>
<circle id="output_cv_4" cx="45.01" cy="319.64" r="0.5" fill="none" stroke="none"/>
<circle cx="75.99" cy="319.64" r="11.52" fill="#0a0b08" stroke="#5a4a1c" stroke-width="0.6"/>
<circle cx="75.99" cy="319.64" r="4.72" fill="none" stroke="#26a69a" stroke-width="0.5"/>
<circle id="output_cv_5" cx="75.99" cy="319.64" r="0.5" fill="none" stroke="none"/>
<circle cx="106.96" cy="319.64" r="11.52" fill="#0a0b08" stroke="#5a4a1c" stroke-width="0.6"/>
<circle cx="106.96" cy="319.64" r="4.72" fill="none" stroke="#26a69a" stroke-width="0.5"/>
<circle id="output_cv_6" cx="106.96" cy="319.64" r="0.5" fill="none" stroke="none"/>
<circle cx="137.94" cy="319.64" r="11.52" fill="#0a0b08" stroke="#5a4a1c" stroke-width="0.6"/>
<circle cx="137.94" cy="319.64" r="4.72" fill="none" stroke="#26a69a" stroke-width="0.5"/>
<circle id="output_cv_7" cx="137.94" cy="319.64" r="0.5" fill="none" stroke="none"/>
<circle cx="222.06" cy="285.68" r="11.52" fill="#0a0b08" stroke="#5a4a1c" stroke-width="0.6"/>
<circle cx="222.06" cy="285.68" r="4.72" fill="none" stroke="#26a69a" stroke-width="0.5"/>
<circle id="output_cv_8" cx="222.06" cy="285.68" r="0.5" fill="none" stroke="none"/>
<circle cx="253.04" cy="285.68" r="11.52" fill="#0a0b08" stroke="#5a4a1c" stroke-width="0.6"/>
<circle cx="253.04" cy="285.68" r="4.72" fill="none" stroke="#26a69a" stroke-width="0.5"/>
<circle id="output_cv_9" cx="253.04" cy="285.68" r="0.5" fill="none" stroke="none"/>
<circle cx="284.01" cy="285.68" r="11.52" fill="#0a0b08" stroke="#5a4a1c" stroke-width="0.6"/>
<circle cx="284.01" cy="285.68" r="4.72" fill="none" stroke="#26a69a" stroke-width="0.5"/>
<circle id="output_cv_10" cx="284.01" cy="285.68" r="0.5" fill="none" stroke="none"/>
<circle cx="314.99" cy="285.68" r="11.52" fill="#0a0b08" stroke="#5a4a1c" stroke-width="0.6"/>
<circle cx="314.99" cy="285.68" r="4.72" fill="none" stroke="#26a69a" stroke-width="0.5"/>
<circle id="output_cv_11" cx="314.99" cy="285.68" r="0.5" fill="none" stroke="none"/>
<circle cx="222.06" cy="319.64" r="11.52" fill="#0a0b08" stroke="#5a4a1c" stroke-width="0.6"/>
<circle cx="222.06" cy="319.64" r="4.72" fill="none" stroke="#26a69a" stroke-width="0.5"/>
<circle id="output_cv_12" cx="222.06" cy="319.64" r="0.5" fill="none" stroke="none"/>
<circle cx="253.04" cy="319.64" r="11.52" fill="#0a0b08" stroke="#5a4a1c" stroke-width="0.6"/>
<circle cx="253.04" cy="319.64" r="4.72" fill="none" stroke="#26a69a" stroke-width="0.5"/>
<circle id="output_cv_13" cx="253.04" cy="319.64" r="0.5" fill="none" stroke="none"/>
<circle cx="284.01" cy="319.64" r="11.52" fill="#0a0b08" stroke="#5a4a1c" stroke-width="0.6"/>
<circle cx="284.01" cy="319.64" r="4.72" fill="none" stroke="#26a69a" stroke-width="0.5"/>
<circle id="output_cv_14" cx="284.01" cy="319.64" r="0.5" fill="none" stroke="none"/>
<circle cx="314.99" cy="319.64" r="11.52" fill="#0a0b08" stroke="#5a4a1c" stroke-width="0.6"/>
<circle cx="314.99" cy="319.64" r="4.72" fill="none" stroke="#26a69a" stroke-width="0.5"/>
<circle id="output_cv_15" cx="314.99" cy="319.64" r="0.5" fill="none" stroke="none"/>
<line x1="20.67" y1="345.47" x2="339.33" y2="345.47" stroke="#7a5c10" stroke-width="0.4"/>
<circle cx="327.52" cy="357.28" r="4.72" fill="#0a0b08" stroke="#5a4a1c" stroke-width="0.3"/>
<circle id="light_connect" cx="327.52" cy="357.28" r="0.5" fill="none" stroke="none"/>
</svg>