<svg width="91.440" height="128.500" viewBox="0 0 91.440 128.500" xmlns="http://www.w3.org/2000/svg">
<rect width="91.440" height="128.500" fill="#e4e0d0"/>
<rect width="91.440" height="2.0" fill="#d4001a"/>
<rect x="13.000" y="18.000" width="74.940" height="74.940" fill="#0d100b"/>
<rect x="13.000" y="22.684" width="74.940" height="4.684" fill="#111410" opacity="0.8"/>
<rect x="13.000" y="32.051" width="74.940" height="4.684" fill="#111410" opacity="0.8"/>
<rect x="13.000" y="41.419" width="74.940" height="4.684" fill="#111410" opacity="0.8"/>
<rect x="13.000" y="50.786" width="74.940" height="4.684" fill="#111410" opacity="0.8"/>
<rect x="13.000" y="60.154" width="74.940" height="4.684" fill="#111410" opacity="0.8"/>
<rect x="13.000" y="69.521" width="74.940" height="4.684" fill="#111410" opacity="0.8"/>
<rect x="13.000" y="78.889" width="74.940" height="4.684" fill="#111410" opacity="0.8"/>
<rect x="13.000" y="88.256" width="74.940" height="4.684" fill="#111410" opacity="0.8"/>
<line x1="13.000" y1="18.000" x2="13.000" y2="92.940" stroke="#1e2420" stroke-width="0.4"/>
<line x1="13.000" y1="18.000" x2="87.940" y2="18.000" stroke="#1e2420" stroke-width="0.4"/>
<line x1="17.684" y1="18.000" x2="17.684" y2="92.940" stroke="#1e2420" stroke-width="0.4"/>
<line x1="13.000" y1="22.684" x2="87.940" y2="22.684" stroke="#1e2420" stroke-width="0.4"/>
<line x1="22.367" y1="18.000" x2="22.367" y2="92.940" stroke="#1e2420" stroke-width="0.4"/>
<line x1="13.000" y1="27.367" x2="87.940" y2="27.367" stroke="#1e2420" stroke-width="0.4"/>
<line x1="27.051" y1="18.000" x2="27.051" y2="92.940" stroke="#1e2420" stroke-width="0.4"/>
<line x1="13.000" y1="32.051" x2="87.940" y2="32.051" stroke="#1e2420" stroke-width="0.4"/>
<line x1="31.735" y1="18.000" x2="31.735" y2="92.940" stroke="#1e2420" stroke-width="0.4"/>
<line x1="13.000" y1="36.735" x2="87.940" y2="36.735" stroke="#1e2420" stroke-width="0.4"/>
<line x1="36.419" y1="18.000" x2="36.419" y2="92.940" stroke="#1e2420" stroke-width="0.4"/>
<line x1="13.000" y1="41.419" x2="87.940" y2="41.419" stroke="#1e2420" stroke-width="0.4"/>
<line x1="41.102" y1="18.000" x2="41.102" y2="92.940" stroke="#1e2420" stroke-width="0.4"/>
<line x1="13.000" y1="46.102" x2="87.940" y2="46.102" stroke="#1e2420" stroke-width="0.4"/>
<line x1="45.786" y1="18.000" x2="45.786" y2="92.940" stroke="#1e2420" stroke-width="0.4"/>
<line x1="13.000" y1="50.786" x2="87.940" y2="50.786" stroke="#1e2420" stroke-width="0.4"/>
<line x1="50.470" y1="18.000" x2="50.470" y2="92.940" stroke="#1e2420" stroke-width="0.4"/>
<line x1="13.000" y1="55.470" x2="87.940" y2="55.470" stroke="#1e2420" stroke-width="0.4"/>
<line x1="55.154" y1="18.000" x2="55.154" y2="92.940" stroke="#1e2420" stroke-width="0.4"/>
<line x1="13.000" y1="60.154" x2="87.940" y2="60.154" stroke="#1e2420" stroke-width="0.4"/>
<line x1="59.837" y1="18.000" x2="59.837" y2="92.940" stroke="#1e2420" stroke-width="0.4"/>
<line x1="13.000" y1="64.838" x2="87.940" y2="64.838" stroke="#1e2420" stroke-width="0.4"/>
<line x1="64.521" y1="18.000" x2="64.521" y2="92.940" stroke="#1e2420" stroke-width="0.4"/>
<line x1="13.000" y1="69.521" x2="87.940" y2="69.521" stroke="#1e2420" stroke-width="0.4"/>
<line x1="69.205" y1="18.000" x2="69.205" y2="92.940" stroke="#1e2420" stroke-width="0.4"/>
<line x1="13.000" y1="74.205" x2="87.940" y2="74.205" stroke="#1e2420" stroke-width="0.4"/>
<line x1="73.889" y1="18.000" x2="73.889" y2="92.940" stroke="#1e2420" stroke-width="0.4"/>
<line x1="13.000" y1="78.889" x2="87.940" y2="78.889" stroke="#1e2420" stroke-width="0.4"/>
<line x1="78.572" y1="18.000" x2="78.572" y2="92.940" stroke="#1e2420" stroke-width="0.4"/>
<line x1="13.000" y1="83.572" x2="87.940" y2="83.572" stroke="#1e2420" stroke-width="0.4"/>
<line x1="83.256" y1="18.000" x2="83.256" y2="92.940" stroke="#1e2420" stroke-width="0.4"/>
<line x1="13.000" y1="88.256" x2="87.940" y2="88.256" stroke="#1e2420" stroke-width="0.4"/>
<line x1="87.940" y1="18.000" x2="87.940" y2="92.940" stroke="#1e2420" stroke-width="0.4"/>
<line x1="13.000" y1="92.940" x2="87.940" y2="92.940" stroke="#1e2420" stroke-width="0.4"/>
<text x="15.342" y="16.500" text-anchor="middle" font-family="monospace" font-size="2.5" fill="#c8900c">1</text>
<text x="15.342" y="13.400" text-anchor="middle" font-family="monospace" font-size="1.9" fill="#6a6050" opacity="0.7">SGD</text>
<text x="20.026" y="16.500" text-anchor="middle" font-family="monospace" font-size="2.5" fill="#1a1810">2</text>
<text x="20.026" y="13.400" text-anchor="middle" font-family="monospace" font-size="1.9" fill="#6a6050" opacity="0.7">MYR</text>
<text x="24.709" y="16.500" text-anchor="middle" font-family="monospace" font-size="2.5" fill="#1a1810">3</text>
<text x="24.709" y="13.400" text-anchor="middle" font-family="monospace" font-size="1.9" fill="#6a6050" opacity="0.7">IDR</text>
<text x="29.393" y="16.500" text-anchor="middle" font-family="monospace" font-size="2.5" fill="#1a1810">4</text>
<text x="29.393" y="13.400" text-anchor="middle" font-family="monospace" font-size="1.9" fill="#6a6050" opacity="0.7">THB</text>
<text x="34.077" y="16.500" text-anchor="middle" font-family="monospace" font-size="2.5" fill="#1a1810">5</text>
<text x="34.077" y="13.400" text-anchor="middle" font-family="monospace" font-size="1.9" fill="#6a6050" opacity="0.7">PHP</text>
<text x="38.761" y="16.500" text-anchor="middle" font-family="monospace" font-size="2.5" fill="#1a1810">6</text>
<text x="38.761" y="13.400" text-anchor="middle" font-family="monospace" font-size="1.9" fill="#6a6050" opacity="0.7">VND</text>
<text x="43.444" y="16.500" text-anchor="middle" font-family="monospace" font-size="2.5" fill="#1a1810">7</text>
<text x="43.444" y="13.400" text-anchor="middle" font-family="monospace" font-size="1.9" fill="#6a6050" opacity="0.7">MMK</text>
<text x="48.128" y="16.500" text-anchor="middle" font-family="monospace" font-size="2.5" fill="#1a1810">8</text>
<text x="48.128" y="13.400" text-anchor="middle" font-family="monospace" font-size="1.9" fill="#6a6050" opacity="0.7">KHR</text>
<text x="52.812" y="16.500" text-anchor="middle" font-family="monospace" font-size="2.5" fill="#1a1810">9</text>
<text x="52.812" y="13.400" text-anchor="middle" font-family="monospace" font-size="1.9" fill="#6a6050" opacity="0.7">HKD</text>
<text x="57.496" y="16.500" text-anchor="middle" font-family="monospace" font-size="2.5" fill="#1a1810">10</text>
<text x="57.496" y="13.400" text-anchor="middle" font-family="monospace" font-size="1.9" fill="#6a6050" opacity="0.7">CNY</text>
<text x="62.179" y="16.500" text-anchor="middle" font-family="monospace" font-size="2.5" fill="#1a1810">11</text>
<text x="62.179" y="13.400" text-anchor="middle" font-family="monospace" font-size="1.9" fill="#6a6050" opacity="0.7">TWD</text>
<text x="66.863" y="16.500" text-anchor="middle" font-family="monospace" font-size="2.5" fill="#1a1810">12</text>
<text x="66.863" y="13.400" text-anchor="middle" font-family="monospace" font-size="1.9" fill="#6a6050" opacity="0.7">KRW</text>
<text x="71.547" y="16.500" text-anchor="middle" font-family="monospace" font-size="2.5" fill="#1a1810">13</text>
<text x="71.547" y="13.400" text-anchor="middle" font-family="monospace" font-size="1.9" fill="#6a6050" opacity="0.7">JPY</text>
<text x="76.231" y="16.500" text-anchor="middle" font-family="monospace" font-size="2.5" fill="#1a1810">14</text>
<text x="76.231" y="13.400" text-anchor="middle" font-family="monospace" font-size="1.9" fill="#6a6050" opacity="0.7">AUD</text>
<text x="80.914" y="16.500" text-anchor="middle" font-family="monospace" font-size="2.5" fill="#1a1810">15</text>
<text x="80.914" y="13.400" text-anchor="middle" font-family="monospace" font-size="1.9" fill="#6a6050" opacity="0.7">INR</text>
<text x="85.598" y="16.500" text-anchor="middle" font-family="monospace" font-size="2.5" fill="#1a1810">16</text>
<text x="85.598" y="13.400" text-anchor="middle" font-family="monospace" font-size="1.9" fill="#6a6050" opacity="0.7">USD</text>
<text x="50.470" y="10.800" text-anchor="middle" font-family="monospace" font-size="2.4" fill="#6a6050" opacity="0.6">source voice →</text>
<text x="11.800" y="21.242" text-anchor="end" font-family="monospace" font-size="2.5" fill="#c8900c" font-weight="bold">1</text>
<text x="7.800" y="21.242" text-anchor="end" font-family="monospace" font-size="1.9" fill="#6a6050" opacity="0.7">SGD</text>
<text x="11.800" y="25.926" text-anchor="end" font-family="monospace" font-size="2.5" fill="#1a1810" >2</text>
<text x="7.800" y="25.926" text-anchor="end" font-family="monospace" font-size="1.9" fill="#6a6050" opacity="0.7">MYR</text>
<text x="11.800" y="30.609" text-anchor="end" font-family="monospace" font-size="2.5" fill="#1a1810" >3</text>
<text x="7.800" y="30.609" text-anchor="end" font-family="monospace" font-size="1.9" fill="#6a6050" opacity="0.7">IDR</text>
<text x="11.800" y="35.293" text-anchor="end" font-family="monospace" font-size="2.5" fill="#1a1810" >4</text>
<text x="7.800" y="35.293" text-anchor="end" font-family="monospace" font-size="1.9" fill="#6a6050" opacity="0.7">THB</text>
<text x="11.800" y="39.977" text-anchor="end" font-family="monospace" font-size="2.5" fill="#1a1810" >5</text>
<text x="7.800" y="39.977" text-anchor="end" font-family="monospace" font-size="1.9" fill="#6a6050" opacity="0.7">PHP</text>
<text x="11.800" y="44.661" text-anchor="end" font-family="monospace" font-size="2.5" fill="#1a1810" >6</text>
<text x="7.800" y="44.661" text-anchor="end" font-family="monospace" font-size="1.9" fill="#6a6050" opacity="0.7">VND</text>
<text x="11.800" y="49.344" text-anchor="end" font-family="monospace" font-size="2.5" fill="#1a1810" >7</text>
<text x="7.800" y="49.344" text-anchor="end" font-family="monospace" font-size="1.9" fill="#6a6050" opacity="0.7">MMK</text>
<text x="11.800" y="54.028" text-anchor="end" font-family="monospace" font-size="2.5" fill="#1a1810" >8</text>
<text x="7.800" y="54.028" text-anchor="end" font-family="monospace" font-size="1.9" fill="#6a6050" opacity="0.7">KHR</text>
<text x="11.800" y="58.712" text-anchor="end" font-family="monospace" font-size="2.5" fill="#1a1810" >9</text>
<text x="7.800" y="58.712" text-anchor="end" font-family="monospace" font-size="1.9" fill="#6a6050" opacity="0.7">HKD</text>
<text x="11.800" y="63.396" text-anchor="end" font-family="monospace" font-size="2.5" fill="#1a1810" >10</text>
<text x="7.800" y="63.396" text-anchor="end" font-family="monospace" font-size="1.9" fill="#6a6050" opacity="0.7">CNY</text>
<text x="11.800" y="68.079" text-anchor="end" font-family="monospace" font-size="2.5" fill="#1a1810" >11</text>
<text x="7.800" y="68.079" text-anchor="end" font-family="monospace" font-size="1.9" fill="#6a6050" opacity="0.7">TWD</text>
<text x="11.800" y="72.763" text-anchor="end" font-family="monospace" font-size="2.5" fill="#1a1810" >12</text>
<text x="7.800" y="72.763" text-anchor="end" font-family="monospace" font-size="1.9" fill="#6a6050" opacity="0.7">KRW</text>
<text x="11.800" y="77.447" text-anchor="end" font-family="monospace" font-size="2.5" fill="#1a1810" >13</text>
<text x="7.800" y="77.447" text-anchor="end" font-family="monospace" font-size="1.9" fill="#6a6050" opacity="0.7">JPY</text>
<text x="11.800" y="82.131" text-anchor="end" font-family="monospace" font-size="2.5" fill="#1a1810" >14</text>
<text x="7.800" y="82.131" text-anchor="end" font-family="monospace" font-size="1.9" fill="#6a6050" opacity="0.7">AUD</text>
<text x="11.800" y="86.814" text-anchor="end" font-family="monospace" font-size="2.5" fill="#1a1810" >15</text>
<text x="7.800" y="86.814" text-anchor="end" font-family="monospace" font-size="1.9" fill="#6a6050" opacity="0.7">INR</text>
<text x="11.800" y="91.498" text-anchor="end" font-family="monospace" font-size="2.5" fill="#1a1810" >16</text>
<text x="7.800" y="91.498" text-anchor="end" font-family="monospace" font-size="1.9" fill="#6a6050" opacity="0.7">USD</text>
<circle cx="15.342" cy="20.342" r="1.405" fill="#404040" opacity="0.55"/>
<circle cx="15.342" cy="20.342" r="0.656" fill="#4a0008" opacity="0.55"/>
<circle cx="20.026" cy="25.026" r="1.405" fill="#404040" opacity="0.55"/>
<circle cx="20.026" cy="25.026" r="0.656" fill="#4a0008" opacity="0.55"/>
<circle cx="24.709" cy="29.709" r="1.405" fill="#404040" opacity="0.55"/>
<circle cx="24.709" cy="29.709" r="0.656" fill="#4a0008" opacity="0.55"/>
<circle cx="29.393" cy="34.393" r="1.405" fill="#404040" opacity="0.55"/>
<circle cx="29.393" cy="34.393" r="0.656" fill="#4a0008" opacity="0.55"/>
<circle cx="34.077" cy="39.077" r="1.405" fill="#404040" opacity="0.55"/>
<circle cx="34.077" cy="39.077" r="0.656" fill="#4a0008" opacity="0.55"/>
<circle cx="38.761" cy="43.761" r="1.405" fill="#404040" opacity="0.55"/>
<circle cx="38.761" cy="43.761" r="0.656" fill="#4a0008" opacity="0.55"/>
<circle cx="43.444" cy="48.444" r="1.405" fill="#404040" opacity="0.55"/>
<circle cx="43.444" cy="48.444" r="0.656" fill="#4a0008" opacity="0.55"/>
<circle cx="48.128" cy="53.128" r="1.405" fill="#404040" opacity="0.55"/>
<circle cx="48.128" cy="53.128" r="0.656" fill="#4a0008" opacity="0.55"/>
<circle cx="52.812" cy="57.812" r="1.405" fill="#404040" opacity="0.55"/>
<circle cx="52.812" cy="57.812" r="0.656" fill="#4a0008" opacity="0.55"/>
<circle cx="57.496" cy="62.496" r="1.405" fill="#404040" opacity="0.55"/>
<circle cx="57.496" cy="62.496" r="0.656" fill="#4a0008" opacity="0.55"/>
<circle cx="62.179" cy="67.179" r="1.405" fill="#404040" opacity="0.55"/>
<circle cx="62.179" cy="67.179" r="0.656" fill="#4a0008" opacity="0.55"/>
<circle cx="66.863" cy="71.863" r="1.405" fill="#404040" opacity="0.55"/>
<circle cx="66.863" cy="71.863" r="0.656" fill="#4a0008" opacity="0.55"/>
<circle cx="71.547" cy="76.547" r="1.405" fill="#404040" opacity="0.55"/>
<circle cx="71.547" cy="76.547" r="0.656" fill="#4a0008" opacity="0.55"/>
<circle cx="76.231" cy="81.231" r="1.405" fill="#404040" opacity="0.55"/>
<circle cx="76.231" cy="81.231" r="0.656" fill="#4a0008" opacity="0.55"/>
<circle cx="80.914" cy="85.914" r="1.405" fill="#404040" opacity="0.55"/>
<circle cx="80.914" cy="85.914" r="0.656" fill="#4a0008" opacity="0.55"/>
<circle cx="85.598" cy="90.598" r="1.405" fill="#404040" opacity="0.55"/>
<circle cx="85.598" cy="90.598" r="0.656" fill="#4a0008" opacity="0.55"/>
<circle cx="15.342" cy="25.026" r="1.405" fill="#f0f0ee"/>
<circle cx="15.342" cy="29.709" r="1.405" fill="#f0f0ee"/>
<circle cx="15.342" cy="29.709" r="0.656" fill="#d4001a"/>
<text x="45.720" y="6.5" text-anchor="middle" font-family="monospace" font-size="4.0" font-weight="bold" letter-spacing="0.5" fill="#1a1810">CHANGE ALLEY</text>
<circle cx="14.200" cy="96.940" r="1.200" fill="#f0f0ee"/>
<text x="16.400" y="97.840" font-family="monospace" font-size="2.4" fill="#6a6050">rhythm</text>
<circle cx="36.200" cy="96.940" r="1.200" fill="#d4001a"/>
<text x="38.400" y="97.840" font-family="monospace" font-size="2.4" fill="#6a6050">melody</text>
<circle cx="37.720" cy="125.000" r="1.5" fill="#d4001a"/>
<text x="41.220" y="126.000" font-family="monospace" font-size="3.2" fill="#1a1810">modular</text>
</svg>