<svg xmlns="http://www.w3.org/2000/svg" width="390" height="380" viewBox="0 0 390 380">
  <defs>
    <pattern id="grain" x="0" y="0" width="390" height="0.8" patternUnits="userSpaceOnUse"><rect width="390" height="0.8" fill="#141416"/><rect y="0.4" width="390" height="0.15" fill="#1e2228" opacity="0.35"/></pattern>
    <linearGradient id="skyG" x1="0" y1="0" x2="0" y2="1"><stop offset="0%" stop-color="#0a1520" stop-opacity="1.0"/><stop offset="50%" stop-color="#141416" stop-opacity="0.0"/></linearGradient>
    <linearGradient id="silG" x1="0" y1="0" x2="0" y2="1"><stop offset="0%" stop-color="#181e28" stop-opacity="0.60"/><stop offset="100%" stop-color="#181e28" stop-opacity="0.92"/></linearGradient>
    <linearGradient id="waveG" x1="0" y1="0" x2="0" y2="1"><stop offset="0%" stop-color="#0a1828" stop-opacity="0.65"/><stop offset="100%" stop-color="#141416" stop-opacity="0.0"/></linearGradient>
  </defs>
  <rect width="390" height="380" fill="url(#grain)"/>
  <rect x="0" y="0" width="390" height="280" fill="url(#skyG)"/>
  <g fill="url(#silG)" stroke="none">
    <rect x="185" y="245" width="185" height="62" rx="2"/>
    <polygon points="198.0,245.0 360.0,245.0 352.0,231.0 206.0,231.0"/>
    <polygon points="210.0,267.0 350.0,267.0 344.0,259.0 216.0,259.0"/>
    <rect x="192" y="289" width="190" height="5" rx="1"/>
    <rect x="186" y="294" width="202" height="5" rx="1"/>
    <rect x="180" y="299" width="214" height="5" rx="1"/>
    <rect x="174" y="304" width="226" height="5" rx="1"/>
    <rect x="315" y="217" width="-40" height="28" rx="1"/>
  </g>
  <g stroke="#dc2626" stroke-width="0.35" fill="none" opacity="0.20">
    <line x1="200" y1="245" x2="200" y2="289"/>
    <line x1="218" y1="245" x2="218" y2="289"/>
    <line x1="236" y1="245" x2="236" y2="289"/>
    <line x1="254" y1="245" x2="254" y2="289"/>
    <line x1="272" y1="245" x2="272" y2="289"/>
    <line x1="290" y1="245" x2="290" y2="289"/>
    <line x1="308" y1="245" x2="308" y2="289"/>
    <line x1="326" y1="245" x2="326" y2="289"/>
    <line x1="344" y1="245" x2="344" y2="289"/>
    <line x1="362" y1="245" x2="362" y2="289"/>
    <line x1="190" y1="257" x2="368" y2="257"/>
    <line x1="190" y1="269" x2="368" y2="269"/>
    <line x1="190" y1="281" x2="368" y2="281"/>
  </g>
  <g stroke="#dc2626" stroke-width="0.25" fill="none" opacity="0.28">
    <rect x="204" y="253" width="9" height="6" rx="0.5"/>
    <rect x="218" y="253" width="9" height="6" rx="0.5"/>
    <rect x="232" y="253" width="9" height="6" rx="0.5"/>
    <rect x="246" y="253" width="9" height="6" rx="0.5"/>
    <rect x="260" y="253" width="9" height="6" rx="0.5"/>
    <rect x="274" y="253" width="9" height="6" rx="0.5"/>
    <rect x="288" y="253" width="9" height="6" rx="0.5"/>
    <rect x="302" y="253" width="9" height="6" rx="0.5"/>
    <rect x="316" y="253" width="9" height="6" rx="0.5"/>
    <rect x="330" y="253" width="9" height="6" rx="0.5"/>
    <rect x="344" y="253" width="9" height="6" rx="0.5"/>
    <rect x="358" y="253" width="9" height="6" rx="0.5"/>
    <rect x="204" y="263" width="9" height="6" rx="0.5"/>
    <rect x="218" y="263" width="9" height="6" rx="0.5"/>
    <rect x="232" y="263" width="9" height="6" rx="0.5"/>
    <rect x="246" y="263" width="9" height="6" rx="0.5"/>
    <rect x="260" y="263" width="9" height="6" rx="0.5"/>
    <rect x="274" y="263" width="9" height="6" rx="0.5"/>
    <rect x="288" y="263" width="9" height="6" rx="0.5"/>
    <rect x="302" y="263" width="9" height="6" rx="0.5"/>
    <rect x="316" y="263" width="9" height="6" rx="0.5"/>
    <rect x="330" y="263" width="9" height="6" rx="0.5"/>
    <rect x="344" y="263" width="9" height="6" rx="0.5"/>
    <rect x="358" y="263" width="9" height="6" rx="0.5"/>
    <rect x="204" y="273" width="9" height="6" rx="0.5"/>
    <rect x="218" y="273" width="9" height="6" rx="0.5"/>
    <rect x="232" y="273" width="9" height="6" rx="0.5"/>
    <rect x="246" y="273" width="9" height="6" rx="0.5"/>
    <rect x="260" y="273" width="9" height="6" rx="0.5"/>
    <rect x="274" y="273" width="9" height="6" rx="0.5"/>
    <rect x="288" y="273" width="9" height="6" rx="0.5"/>
    <rect x="302" y="273" width="9" height="6" rx="0.5"/>
    <rect x="316" y="273" width="9" height="6" rx="0.5"/>
    <rect x="330" y="273" width="9" height="6" rx="0.5"/>
    <rect x="344" y="273" width="9" height="6" rx="0.5"/>
    <rect x="358" y="273" width="9" height="6" rx="0.5"/>
  </g>
  <g fill="url(#silG)" stroke="none">
    <path d="M190.0,245.0 A65.0,65.0 0 0,1 320.0,245.0 Z"/>
  </g>
  <g fill="#181e28" stroke="none" opacity="0.85">
    <polygon points="190.0,245.0 180.7,241.1 190.4,238.2" />
    <polygon points="190.4,238.2 181.6,233.4 191.4,231.5" />
    <polygon points="191.4,231.5 183.2,225.8 193.2,224.9" />
    <polygon points="193.2,224.9 185.6,218.4 195.6,218.6" />
    <polygon points="195.6,218.6 188.7,211.2 198.7,212.5" />
    <polygon points="198.7,212.5 192.6,204.5 202.4,206.8" />
    <polygon points="202.4,206.8 197.2,198.2 206.7,201.5" />
    <polygon points="206.7,201.5 202.4,192.4 211.5,196.7" />
    <polygon points="211.5,196.7 208.2,187.2 216.8,192.4" />
    <polygon points="216.8,192.4 214.5,182.6 222.5,188.7" />
    <polygon points="222.5,188.7 221.2,178.7 228.6,185.6" />
    <polygon points="228.6,185.6 228.4,175.6 234.9,183.2" />
    <polygon points="234.9,183.2 235.8,173.2 241.5,181.4" />
    <polygon points="241.5,181.4 243.4,171.6 248.2,180.4" />
    <polygon points="248.2,180.4 251.1,170.7 255.0,180.0" />
    <polygon points="255.0,180.0 258.9,170.7 261.8,180.4" />
    <polygon points="261.8,180.4 266.6,171.6 268.5,181.4" />
    <polygon points="268.5,181.4 274.2,173.2 275.1,183.2" />
    <polygon points="275.1,183.2 281.6,175.6 281.4,185.6" />
    <polygon points="281.4,185.6 288.8,178.7 287.5,188.7" />
    <polygon points="287.5,188.7 295.5,182.6 293.2,192.4" />
    <polygon points="293.2,192.4 301.8,187.2 298.5,196.7" />
    <polygon points="298.5,196.7 307.6,192.4 303.3,201.5" />
    <polygon points="303.3,201.5 312.8,198.2 307.6,206.8" />
    <polygon points="307.6,206.8 317.4,204.5 311.3,212.5" />
    <polygon points="311.3,212.5 321.3,211.2 314.4,218.6" />
    <polygon points="314.4,218.6 324.4,218.4 316.8,224.9" />
    <polygon points="316.8,224.9 326.8,225.8 318.6,231.5" />
    <polygon points="318.6,231.5 328.4,233.4 319.6,238.2" />
    <polygon points="319.6,238.2 329.3,241.1 320.0,245.0" />
    <polygon points="193.6,245.0 184.4,240.9 194.1,237.9" />
    <polygon points="194.1,237.9 185.4,232.7 195.3,230.8" />
    <polygon points="195.3,230.8 187.3,224.7 197.3,224.0" />
    <polygon points="197.3,224.0 190.1,217.0 200.2,217.5" />
    <polygon points="200.2,217.5 193.8,209.6 203.7,211.3" />
    <polygon points="203.7,211.3 198.3,202.8 208.0,205.6" />
    <polygon points="208.0,205.6 203.6,196.5 212.9,200.4" />
    <polygon points="212.9,200.4 209.5,190.8 218.4,195.8" />
    <polygon points="218.4,195.8 216.1,185.9 224.3,191.9" />
    <polygon points="224.3,191.9 223.3,181.8 230.7,188.7" />
    <polygon points="230.7,188.7 230.8,178.5 237.4,186.2" />
    <polygon points="237.4,186.2 238.7,176.2 244.3,184.6" />
    <polygon points="244.3,184.6 246.8,174.8 251.4,183.7" />
    <polygon points="251.4,183.7 255.0,174.3 258.6,183.7" />
    <polygon points="258.6,183.7 263.2,174.8 265.7,184.6" />
    <polygon points="265.7,184.6 271.3,176.2 272.6,186.2" />
    <polygon points="272.6,186.2 279.2,178.5 279.3,188.7" />
    <polygon points="279.3,188.7 286.7,181.8 285.7,191.9" />
    <polygon points="285.7,191.9 293.9,185.9 291.6,195.8" />
    <polygon points="291.6,195.8 300.5,190.8 297.1,200.4" />
    <polygon points="297.1,200.4 306.4,196.5 302.0,205.6" />
    <polygon points="302.0,205.6 311.7,202.8 306.3,211.3" />
    <polygon points="306.3,211.3 316.2,209.6 309.8,217.5" />
    <polygon points="309.8,217.5 319.9,217.0 312.7,224.0" />
    <polygon points="312.7,224.0 322.7,224.7 314.7,230.8" />
    <polygon points="314.7,230.8 324.6,232.7 315.9,237.9" />
    <polygon points="315.9,237.9 325.6,240.9 316.4,245.0" />
    <polygon points="197.3,245.0 188.1,240.8 197.7,237.8" />
    <polygon points="197.7,237.8 189.1,232.4 199.1,230.6" />
    <polygon points="199.1,230.6 191.2,224.3 201.3,223.8" />
    <polygon points="201.3,223.8 194.3,216.4 204.4,217.2" />
    <polygon points="204.4,217.2 198.4,209.1 208.3,211.1" />
    <polygon points="208.3,211.1 203.3,202.2 212.9,205.5" />
    <polygon points="212.9,205.5 209.1,196.1 218.2,200.5" />
    <polygon points="218.2,200.5 215.6,190.7 224.1,196.3" />
    <polygon points="224.1,196.3 222.7,186.2 230.4,192.8" />
    <polygon points="230.4,192.8 230.3,182.6 237.2,190.1" />
    <polygon points="237.2,190.1 238.3,180.0 244.2,188.3" />
    <polygon points="244.2,188.3 246.6,178.4 251.4,187.4" />
    <polygon points="251.4,187.4 255.0,177.9 258.6,187.4" />
    <polygon points="258.6,187.4 263.4,178.4 265.8,188.3" />
    <polygon points="265.8,188.3 271.7,180.0 272.8,190.1" />
    <polygon points="272.8,190.1 279.7,182.6 279.6,192.8" />
    <polygon points="279.6,192.8 287.3,186.2 285.9,196.3" />
    <polygon points="285.9,196.3 294.4,190.7 291.8,200.5" />
    <polygon points="291.8,200.5 300.9,196.1 297.1,205.5" />
    <polygon points="297.1,205.5 306.7,202.2 301.7,211.1" />
    <polygon points="301.7,211.1 311.6,209.1 305.6,217.2" />
    <polygon points="305.6,217.2 315.7,216.4 308.7,223.8" />
    <polygon points="308.7,223.8 318.8,224.3 310.9,230.6" />
    <polygon points="310.9,230.6 320.9,232.4 312.3,237.8" />
    <polygon points="312.3,237.8 321.9,240.8 312.7,245.0" />
    <polygon points="200.9,245.0 191.7,240.5 201.5,237.3" />
    <polygon points="201.5,237.3 193.0,231.5 203.1,229.8" />
    <polygon points="203.1,229.8 195.6,222.8 205.8,222.5" />
    <polygon points="205.8,222.5 199.3,214.6 209.5,215.8" />
    <polygon points="209.5,215.8 204.2,207.0 214.1,209.6" />
    <polygon points="214.1,209.6 210.1,200.1 219.6,204.1" />
    <polygon points="219.6,204.1 217.0,194.2 225.8,199.5" />
    <polygon points="225.8,199.5 224.6,189.3 232.5,195.8" />
    <polygon points="232.5,195.8 232.8,185.6 239.8,193.1" />
    <polygon points="239.8,193.1 241.5,183.0 247.3,191.5" />
    <polygon points="247.3,191.5 250.5,181.7 255.0,190.9" />
    <polygon points="255.0,190.9 259.5,181.7 262.7,191.5" />
    <polygon points="262.7,191.5 268.5,183.0 270.2,193.1" />
    <polygon points="270.2,193.1 277.2,185.6 277.5,195.8" />
    <polygon points="277.5,195.8 285.4,189.3 284.2,199.5" />
    <polygon points="284.2,199.5 293.0,194.2 290.4,204.1" />
    <polygon points="290.4,204.1 299.9,200.1 295.9,209.6" />
    <polygon points="295.9,209.6 305.8,207.0 300.5,215.8" />
    <polygon points="300.5,215.8 310.7,214.6 304.2,222.5" />
    <polygon points="304.2,222.5 314.4,222.8 306.9,229.8" />
    <polygon points="306.9,229.8 317.0,231.5 308.5,237.3" />
    <polygon points="308.5,237.3 318.3,240.5 309.1,245.0" />
    <polygon points="204.6,245.0 195.4,240.3 205.2,237.1" />
    <polygon points="205.2,237.1 196.9,231.0 207.0,229.4" />
    <polygon points="207.0,229.4 199.8,222.1 210.1,222.1" />
    <polygon points="210.1,222.1 204.0,213.8 214.2,215.4" />
    <polygon points="214.2,215.4 209.5,206.2 219.3,209.3" />
    <polygon points="219.3,209.3 216.2,199.5 225.4,204.2" />
    <polygon points="225.4,204.2 223.8,194.0 232.1,200.1" />
    <polygon points="232.1,200.1 232.1,189.8 239.4,197.0" />
    <polygon points="239.4,197.0 241.0,186.9 247.1,195.2" />
    <polygon points="247.1,195.2 250.3,185.4 255.0,194.6" />
    <polygon points="255.0,194.6 259.7,185.4 262.9,195.2" />
    <polygon points="262.9,195.2 269.0,186.9 270.6,197.0" />
    <polygon points="270.6,197.0 277.9,189.8 277.9,200.1" />
    <polygon points="277.9,200.1 286.2,194.0 284.6,204.2" />
    <polygon points="284.6,204.2 293.8,199.5 290.7,209.3" />
    <polygon points="290.7,209.3 300.5,206.2 295.8,215.4" />
    <polygon points="295.8,215.4 306.0,213.8 299.9,222.1" />
    <polygon points="299.9,222.1 310.2,222.1 303.0,229.4" />
    <polygon points="303.0,229.4 313.1,231.0 304.8,237.1" />
    <polygon points="304.8,237.1 314.6,240.3 305.4,245.0" />
  </g>
  <g fill="none" stroke="#dc2626" stroke-width="0.40" opacity="0.28">
    <polygon points="190.0,245.0 180.7,241.1 190.4,238.2" />
    <polygon points="190.4,238.2 181.6,233.4 191.4,231.5" />
    <polygon points="191.4,231.5 183.2,225.8 193.2,224.9" />
    <polygon points="193.2,224.9 185.6,218.4 195.6,218.6" />
    <polygon points="195.6,218.6 188.7,211.2 198.7,212.5" />
    <polygon points="198.7,212.5 192.6,204.5 202.4,206.8" />
    <polygon points="202.4,206.8 197.2,198.2 206.7,201.5" />
    <polygon points="206.7,201.5 202.4,192.4 211.5,196.7" />
    <polygon points="211.5,196.7 208.2,187.2 216.8,192.4" />
    <polygon points="216.8,192.4 214.5,182.6 222.5,188.7" />
    <polygon points="222.5,188.7 221.2,178.7 228.6,185.6" />
    <polygon points="228.6,185.6 228.4,175.6 234.9,183.2" />
    <polygon points="234.9,183.2 235.8,173.2 241.5,181.4" />
    <polygon points="241.5,181.4 243.4,171.6 248.2,180.4" />
    <polygon points="248.2,180.4 251.1,170.7 255.0,180.0" />
    <polygon points="255.0,180.0 258.9,170.7 261.8,180.4" />
    <polygon points="261.8,180.4 266.6,171.6 268.5,181.4" />
    <polygon points="268.5,181.4 274.2,173.2 275.1,183.2" />
    <polygon points="275.1,183.2 281.6,175.6 281.4,185.6" />
    <polygon points="281.4,185.6 288.8,178.7 287.5,188.7" />
    <polygon points="287.5,188.7 295.5,182.6 293.2,192.4" />
    <polygon points="293.2,192.4 301.8,187.2 298.5,196.7" />
    <polygon points="298.5,196.7 307.6,192.4 303.3,201.5" />
    <polygon points="303.3,201.5 312.8,198.2 307.6,206.8" />
    <polygon points="307.6,206.8 317.4,204.5 311.3,212.5" />
    <polygon points="311.3,212.5 321.3,211.2 314.4,218.6" />
    <polygon points="314.4,218.6 324.4,218.4 316.8,224.9" />
    <polygon points="316.8,224.9 326.8,225.8 318.6,231.5" />
    <polygon points="318.6,231.5 328.4,233.4 319.6,238.2" />
    <polygon points="319.6,238.2 329.3,241.1 320.0,245.0" />
    <polygon points="193.6,245.0 184.4,240.9 194.1,237.9" />
    <polygon points="194.1,237.9 185.4,232.7 195.3,230.8" />
    <polygon points="195.3,230.8 187.3,224.7 197.3,224.0" />
    <polygon points="197.3,224.0 190.1,217.0 200.2,217.5" />
    <polygon points="200.2,217.5 193.8,209.6 203.7,211.3" />
    <polygon points="203.7,211.3 198.3,202.8 208.0,205.6" />
    <polygon points="208.0,205.6 203.6,196.5 212.9,200.4" />
    <polygon points="212.9,200.4 209.5,190.8 218.4,195.8" />
    <polygon points="218.4,195.8 216.1,185.9 224.3,191.9" />
    <polygon points="224.3,191.9 223.3,181.8 230.7,188.7" />
    <polygon points="230.7,188.7 230.8,178.5 237.4,186.2" />
    <polygon points="237.4,186.2 238.7,176.2 244.3,184.6" />
    <polygon points="244.3,184.6 246.8,174.8 251.4,183.7" />
    <polygon points="251.4,183.7 255.0,174.3 258.6,183.7" />
    <polygon points="258.6,183.7 263.2,174.8 265.7,184.6" />
    <polygon points="265.7,184.6 271.3,176.2 272.6,186.2" />
    <polygon points="272.6,186.2 279.2,178.5 279.3,188.7" />
    <polygon points="279.3,188.7 286.7,181.8 285.7,191.9" />
    <polygon points="285.7,191.9 293.9,185.9 291.6,195.8" />
    <polygon points="291.6,195.8 300.5,190.8 297.1,200.4" />
    <polygon points="297.1,200.4 306.4,196.5 302.0,205.6" />
    <polygon points="302.0,205.6 311.7,202.8 306.3,211.3" />
    <polygon points="306.3,211.3 316.2,209.6 309.8,217.5" />
    <polygon points="309.8,217.5 319.9,217.0 312.7,224.0" />
    <polygon points="312.7,224.0 322.7,224.7 314.7,230.8" />
    <polygon points="314.7,230.8 324.6,232.7 315.9,237.9" />
    <polygon points="315.9,237.9 325.6,240.9 316.4,245.0" />
    <polygon points="197.3,245.0 188.1,240.8 197.7,237.8" />
    <polygon points="197.7,237.8 189.1,232.4 199.1,230.6" />
    <polygon points="199.1,230.6 191.2,224.3 201.3,223.8" />
    <polygon points="201.3,223.8 194.3,216.4 204.4,217.2" />
    <polygon points="204.4,217.2 198.4,209.1 208.3,211.1" />
    <polygon points="208.3,211.1 203.3,202.2 212.9,205.5" />
    <polygon points="212.9,205.5 209.1,196.1 218.2,200.5" />
    <polygon points="218.2,200.5 215.6,190.7 224.1,196.3" />
    <polygon points="224.1,196.3 222.7,186.2 230.4,192.8" />
    <polygon points="230.4,192.8 230.3,182.6 237.2,190.1" />
    <polygon points="237.2,190.1 238.3,180.0 244.2,188.3" />
    <polygon points="244.2,188.3 246.6,178.4 251.4,187.4" />
    <polygon points="251.4,187.4 255.0,177.9 258.6,187.4" />
    <polygon points="258.6,187.4 263.4,178.4 265.8,188.3" />
    <polygon points="265.8,188.3 271.7,180.0 272.8,190.1" />
    <polygon points="272.8,190.1 279.7,182.6 279.6,192.8" />
    <polygon points="279.6,192.8 287.3,186.2 285.9,196.3" />
    <polygon points="285.9,196.3 294.4,190.7 291.8,200.5" />
    <polygon points="291.8,200.5 300.9,196.1 297.1,205.5" />
    <polygon points="297.1,205.5 306.7,202.2 301.7,211.1" />
    <polygon points="301.7,211.1 311.6,209.1 305.6,217.2" />
    <polygon points="305.6,217.2 315.7,216.4 308.7,223.8" />
    <polygon points="308.7,223.8 318.8,224.3 310.9,230.6" />
    <polygon points="310.9,230.6 320.9,232.4 312.3,237.8" />
    <polygon points="312.3,237.8 321.9,240.8 312.7,245.0" />
    <polygon points="200.9,245.0 191.7,240.5 201.5,237.3" />
    <polygon points="201.5,237.3 193.0,231.5 203.1,229.8" />
    <polygon points="203.1,229.8 195.6,222.8 205.8,222.5" />
    <polygon points="205.8,222.5 199.3,214.6 209.5,215.8" />
    <polygon points="209.5,215.8 204.2,207.0 214.1,209.6" />
    <polygon points="214.1,209.6 210.1,200.1 219.6,204.1" />
    <polygon points="219.6,204.1 217.0,194.2 225.8,199.5" />
    <polygon points="225.8,199.5 224.6,189.3 232.5,195.8" />
    <polygon points="232.5,195.8 232.8,185.6 239.8,193.1" />
    <polygon points="239.8,193.1 241.5,183.0 247.3,191.5" />
    <polygon points="247.3,191.5 250.5,181.7 255.0,190.9" />
    <polygon points="255.0,190.9 259.5,181.7 262.7,191.5" />
    <polygon points="262.7,191.5 268.5,183.0 270.2,193.1" />
    <polygon points="270.2,193.1 277.2,185.6 277.5,195.8" />
    <polygon points="277.5,195.8 285.4,189.3 284.2,199.5" />
    <polygon points="284.2,199.5 293.0,194.2 290.4,204.1" />
    <polygon points="290.4,204.1 299.9,200.1 295.9,209.6" />
    <polygon points="295.9,209.6 305.8,207.0 300.5,215.8" />
    <polygon points="300.5,215.8 310.7,214.6 304.2,222.5" />
    <polygon points="304.2,222.5 314.4,222.8 306.9,229.8" />
    <polygon points="306.9,229.8 317.0,231.5 308.5,237.3" />
    <polygon points="308.5,237.3 318.3,240.5 309.1,245.0" />
    <polygon points="204.6,245.0 195.4,240.3 205.2,237.1" />
    <polygon points="205.2,237.1 196.9,231.0 207.0,229.4" />
    <polygon points="207.0,229.4 199.8,222.1 210.1,222.1" />
    <polygon points="210.1,222.1 204.0,213.8 214.2,215.4" />
    <polygon points="214.2,215.4 209.5,206.2 219.3,209.3" />
    <polygon points="219.3,209.3 216.2,199.5 225.4,204.2" />
    <polygon points="225.4,204.2 223.8,194.0 232.1,200.1" />
    <polygon points="232.1,200.1 232.1,189.8 239.4,197.0" />
    <polygon points="239.4,197.0 241.0,186.9 247.1,195.2" />
    <polygon points="247.1,195.2 250.3,185.4 255.0,194.6" />
    <polygon points="255.0,194.6 259.7,185.4 262.9,195.2" />
    <polygon points="262.9,195.2 269.0,186.9 270.6,197.0" />
    <polygon points="270.6,197.0 277.9,189.8 277.9,200.1" />
    <polygon points="277.9,200.1 286.2,194.0 284.6,204.2" />
    <polygon points="284.6,204.2 293.8,199.5 290.7,209.3" />
    <polygon points="290.7,209.3 300.5,206.2 295.8,215.4" />
    <polygon points="295.8,215.4 306.0,213.8 299.9,222.1" />
    <polygon points="299.9,222.1 310.2,222.1 303.0,229.4" />
    <polygon points="303.0,229.4 313.1,231.0 304.8,237.1" />
    <polygon points="304.8,237.1 314.6,240.3 305.4,245.0" />
  </g>
  <path d="M190.0,245.0 A65.0,65.0 0 0,1 320.0,245.0" fill="none" stroke="#dc2626" stroke-width="0.8" opacity="0.40"/>
  <line x1="255" y1="180.0" x2="255" y2="168.0" stroke="#dc2626" stroke-width="0.6" opacity="0.45"/>
  <circle cx="255" cy="167.0" r="1.5" fill="#dc2626" opacity="0.45"/>
  <g fill="url(#silG)" stroke="none">
    <path d="M270.0,245.0 A65.0,65.0 0 0,1 400.0,245.0 Z"/>
  </g>
  <g fill="#181e28" stroke="none" opacity="0.85">
    <polygon points="270.0,245.0 260.7,241.1 270.4,238.2" />
    <polygon points="270.4,238.2 261.6,233.4 271.4,231.5" />
    <polygon points="271.4,231.5 263.2,225.8 273.2,224.9" />
    <polygon points="273.2,224.9 265.6,218.4 275.6,218.6" />
    <polygon points="275.6,218.6 268.7,211.2 278.7,212.5" />
    <polygon points="278.7,212.5 272.6,204.5 282.4,206.8" />
    <polygon points="282.4,206.8 277.2,198.2 286.7,201.5" />
    <polygon points="286.7,201.5 282.4,192.4 291.5,196.7" />
    <polygon points="291.5,196.7 288.2,187.2 296.8,192.4" />
    <polygon points="296.8,192.4 294.5,182.6 302.5,188.7" />
    <polygon points="302.5,188.7 301.2,178.7 308.6,185.6" />
    <polygon points="308.6,185.6 308.4,175.6 314.9,183.2" />
    <polygon points="314.9,183.2 315.8,173.2 321.5,181.4" />
    <polygon points="321.5,181.4 323.4,171.6 328.2,180.4" />
    <polygon points="328.2,180.4 331.1,170.7 335.0,180.0" />
    <polygon points="335.0,180.0 338.9,170.7 341.8,180.4" />
    <polygon points="341.8,180.4 346.6,171.6 348.5,181.4" />
    <polygon points="348.5,181.4 354.2,173.2 355.1,183.2" />
    <polygon points="355.1,183.2 361.6,175.6 361.4,185.6" />
    <polygon points="361.4,185.6 368.8,178.7 367.5,188.7" />
    <polygon points="367.5,188.7 375.5,182.6 373.2,192.4" />
    <polygon points="373.2,192.4 381.8,187.2 378.5,196.7" />
    <polygon points="378.5,196.7 387.6,192.4 383.3,201.5" />
    <polygon points="383.3,201.5 392.8,198.2 387.6,206.8" />
    <polygon points="387.6,206.8 397.4,204.5 391.3,212.5" />
    <polygon points="391.3,212.5 401.3,211.2 394.4,218.6" />
    <polygon points="394.4,218.6 404.4,218.4 396.8,224.9" />
    <polygon points="396.8,224.9 406.8,225.8 398.6,231.5" />
    <polygon points="398.6,231.5 408.4,233.4 399.6,238.2" />
    <polygon points="399.6,238.2 409.3,241.1 400.0,245.0" />
    <polygon points="273.6,245.0 264.4,240.9 274.1,237.9" />
    <polygon points="274.1,237.9 265.4,232.7 275.3,230.8" />
    <polygon points="275.3,230.8 267.3,224.7 277.3,224.0" />
    <polygon points="277.3,224.0 270.1,217.0 280.2,217.5" />
    <polygon points="280.2,217.5 273.8,209.6 283.7,211.3" />
    <polygon points="283.7,211.3 278.3,202.8 288.0,205.6" />
    <polygon points="288.0,205.6 283.6,196.5 292.9,200.4" />
    <polygon points="292.9,200.4 289.5,190.8 298.4,195.8" />
    <polygon points="298.4,195.8 296.1,185.9 304.3,191.9" />
    <polygon points="304.3,191.9 303.3,181.8 310.7,188.7" />
    <polygon points="310.7,188.7 310.8,178.5 317.4,186.2" />
    <polygon points="317.4,186.2 318.7,176.2 324.3,184.6" />
    <polygon points="324.3,184.6 326.8,174.8 331.4,183.7" />
    <polygon points="331.4,183.7 335.0,174.3 338.6,183.7" />
    <polygon points="338.6,183.7 343.2,174.8 345.7,184.6" />
    <polygon points="345.7,184.6 351.3,176.2 352.6,186.2" />
    <polygon points="352.6,186.2 359.2,178.5 359.3,188.7" />
    <polygon points="359.3,188.7 366.7,181.8 365.7,191.9" />
    <polygon points="365.7,191.9 373.9,185.9 371.6,195.8" />
    <polygon points="371.6,195.8 380.5,190.8 377.1,200.4" />
    <polygon points="377.1,200.4 386.4,196.5 382.0,205.6" />
    <polygon points="382.0,205.6 391.7,202.8 386.3,211.3" />
    <polygon points="386.3,211.3 396.2,209.6 389.8,217.5" />
    <polygon points="389.8,217.5 399.9,217.0 392.7,224.0" />
    <polygon points="392.7,224.0 402.7,224.7 394.7,230.8" />
    <polygon points="394.7,230.8 404.6,232.7 395.9,237.9" />
    <polygon points="395.9,237.9 405.6,240.9 396.4,245.0" />
    <polygon points="277.3,245.0 268.1,240.8 277.7,237.8" />
    <polygon points="277.7,237.8 269.1,232.4 279.1,230.6" />
    <polygon points="279.1,230.6 271.2,224.3 281.3,223.8" />
    <polygon points="281.3,223.8 274.3,216.4 284.4,217.2" />
    <polygon points="284.4,217.2 278.4,209.1 288.3,211.1" />
    <polygon points="288.3,211.1 283.3,202.2 292.9,205.5" />
    <polygon points="292.9,205.5 289.1,196.1 298.2,200.5" />
    <polygon points="298.2,200.5 295.6,190.7 304.1,196.3" />
    <polygon points="304.1,196.3 302.7,186.2 310.4,192.8" />
    <polygon points="310.4,192.8 310.3,182.6 317.2,190.1" />
    <polygon points="317.2,190.1 318.3,180.0 324.2,188.3" />
    <polygon points="324.2,188.3 326.6,178.4 331.4,187.4" />
    <polygon points="331.4,187.4 335.0,177.9 338.6,187.4" />
    <polygon points="338.6,187.4 343.4,178.4 345.8,188.3" />
    <polygon points="345.8,188.3 351.7,180.0 352.8,190.1" />
    <polygon points="352.8,190.1 359.7,182.6 359.6,192.8" />
    <polygon points="359.6,192.8 367.3,186.2 365.9,196.3" />
    <polygon points="365.9,196.3 374.4,190.7 371.8,200.5" />
    <polygon points="371.8,200.5 380.9,196.1 377.1,205.5" />
    <polygon points="377.1,205.5 386.7,202.2 381.7,211.1" />
    <polygon points="381.7,211.1 391.6,209.1 385.6,217.2" />
    <polygon points="385.6,217.2 395.7,216.4 388.7,223.8" />
    <polygon points="388.7,223.8 398.8,224.3 390.9,230.6" />
    <polygon points="390.9,230.6 400.9,232.4 392.3,237.8" />
    <polygon points="392.3,237.8 401.9,240.8 392.7,245.0" />
    <polygon points="280.9,245.0 271.7,240.5 281.5,237.3" />
    <polygon points="281.5,237.3 273.0,231.5 283.1,229.8" />
    <polygon points="283.1,229.8 275.6,222.8 285.8,222.5" />
    <polygon points="285.8,222.5 279.3,214.6 289.5,215.8" />
    <polygon points="289.5,215.8 284.2,207.0 294.1,209.6" />
    <polygon points="294.1,209.6 290.1,200.1 299.6,204.1" />
    <polygon points="299.6,204.1 297.0,194.2 305.8,199.5" />
    <polygon points="305.8,199.5 304.6,189.3 312.5,195.8" />
    <polygon points="312.5,195.8 312.8,185.6 319.8,193.1" />
    <polygon points="319.8,193.1 321.5,183.0 327.3,191.5" />
    <polygon points="327.3,191.5 330.5,181.7 335.0,190.9" />
    <polygon points="335.0,190.9 339.5,181.7 342.7,191.5" />
    <polygon points="342.7,191.5 348.5,183.0 350.2,193.1" />
    <polygon points="350.2,193.1 357.2,185.6 357.5,195.8" />
    <polygon points="357.5,195.8 365.4,189.3 364.2,199.5" />
    <polygon points="364.2,199.5 373.0,194.2 370.4,204.1" />
    <polygon points="370.4,204.1 379.9,200.1 375.9,209.6" />
    <polygon points="375.9,209.6 385.8,207.0 380.5,215.8" />
    <polygon points="380.5,215.8 390.7,214.6 384.2,222.5" />
    <polygon points="384.2,222.5 394.4,222.8 386.9,229.8" />
    <polygon points="386.9,229.8 397.0,231.5 388.5,237.3" />
    <polygon points="388.5,237.3 398.3,240.5 389.1,245.0" />
    <polygon points="284.6,245.0 275.4,240.3 285.2,237.1" />
    <polygon points="285.2,237.1 276.9,231.0 287.0,229.4" />
    <polygon points="287.0,229.4 279.8,222.1 290.1,222.1" />
    <polygon points="290.1,222.1 284.0,213.8 294.2,215.4" />
    <polygon points="294.2,215.4 289.5,206.2 299.3,209.3" />
    <polygon points="299.3,209.3 296.2,199.5 305.4,204.2" />
    <polygon points="305.4,204.2 303.8,194.0 312.1,200.1" />
    <polygon points="312.1,200.1 312.1,189.8 319.4,197.0" />
    <polygon points="319.4,197.0 321.0,186.9 327.1,195.2" />
    <polygon points="327.1,195.2 330.3,185.4 335.0,194.6" />
    <polygon points="335.0,194.6 339.7,185.4 342.9,195.2" />
    <polygon points="342.9,195.2 349.0,186.9 350.6,197.0" />
    <polygon points="350.6,197.0 357.9,189.8 357.9,200.1" />
    <polygon points="357.9,200.1 366.2,194.0 364.6,204.2" />
    <polygon points="364.6,204.2 373.8,199.5 370.7,209.3" />
    <polygon points="370.7,209.3 380.5,206.2 375.8,215.4" />
    <polygon points="375.8,215.4 386.0,213.8 379.9,222.1" />
    <polygon points="379.9,222.1 390.2,222.1 383.0,229.4" />
    <polygon points="383.0,229.4 393.1,231.0 384.8,237.1" />
    <polygon points="384.8,237.1 394.6,240.3 385.4,245.0" />
  </g>
  <g fill="none" stroke="#dc2626" stroke-width="0.40" opacity="0.28">
    <polygon points="270.0,245.0 260.7,241.1 270.4,238.2" />
    <polygon points="270.4,238.2 261.6,233.4 271.4,231.5" />
    <polygon points="271.4,231.5 263.2,225.8 273.2,224.9" />
    <polygon points="273.2,224.9 265.6,218.4 275.6,218.6" />
    <polygon points="275.6,218.6 268.7,211.2 278.7,212.5" />
    <polygon points="278.7,212.5 272.6,204.5 282.4,206.8" />
    <polygon points="282.4,206.8 277.2,198.2 286.7,201.5" />
    <polygon points="286.7,201.5 282.4,192.4 291.5,196.7" />
    <polygon points="291.5,196.7 288.2,187.2 296.8,192.4" />
    <polygon points="296.8,192.4 294.5,182.6 302.5,188.7" />
    <polygon points="302.5,188.7 301.2,178.7 308.6,185.6" />
    <polygon points="308.6,185.6 308.4,175.6 314.9,183.2" />
    <polygon points="314.9,183.2 315.8,173.2 321.5,181.4" />
    <polygon points="321.5,181.4 323.4,171.6 328.2,180.4" />
    <polygon points="328.2,180.4 331.1,170.7 335.0,180.0" />
    <polygon points="335.0,180.0 338.9,170.7 341.8,180.4" />
    <polygon points="341.8,180.4 346.6,171.6 348.5,181.4" />
    <polygon points="348.5,181.4 354.2,173.2 355.1,183.2" />
    <polygon points="355.1,183.2 361.6,175.6 361.4,185.6" />
    <polygon points="361.4,185.6 368.8,178.7 367.5,188.7" />
    <polygon points="367.5,188.7 375.5,182.6 373.2,192.4" />
    <polygon points="373.2,192.4 381.8,187.2 378.5,196.7" />
    <polygon points="378.5,196.7 387.6,192.4 383.3,201.5" />
    <polygon points="383.3,201.5 392.8,198.2 387.6,206.8" />
    <polygon points="387.6,206.8 397.4,204.5 391.3,212.5" />
    <polygon points="391.3,212.5 401.3,211.2 394.4,218.6" />
    <polygon points="394.4,218.6 404.4,218.4 396.8,224.9" />
    <polygon points="396.8,224.9 406.8,225.8 398.6,231.5" />
    <polygon points="398.6,231.5 408.4,233.4 399.6,238.2" />
    <polygon points="399.6,238.2 409.3,241.1 400.0,245.0" />
    <polygon points="273.6,245.0 264.4,240.9 274.1,237.9" />
    <polygon points="274.1,237.9 265.4,232.7 275.3,230.8" />
    <polygon points="275.3,230.8 267.3,224.7 277.3,224.0" />
    <polygon points="277.3,224.0 270.1,217.0 280.2,217.5" />
    <polygon points="280.2,217.5 273.8,209.6 283.7,211.3" />
    <polygon points="283.7,211.3 278.3,202.8 288.0,205.6" />
    <polygon points="288.0,205.6 283.6,196.5 292.9,200.4" />
    <polygon points="292.9,200.4 289.5,190.8 298.4,195.8" />
    <polygon points="298.4,195.8 296.1,185.9 304.3,191.9" />
    <polygon points="304.3,191.9 303.3,181.8 310.7,188.7" />
    <polygon points="310.7,188.7 310.8,178.5 317.4,186.2" />
    <polygon points="317.4,186.2 318.7,176.2 324.3,184.6" />
    <polygon points="324.3,184.6 326.8,174.8 331.4,183.7" />
    <polygon points="331.4,183.7 335.0,174.3 338.6,183.7" />
    <polygon points="338.6,183.7 343.2,174.8 345.7,184.6" />
    <polygon points="345.7,184.6 351.3,176.2 352.6,186.2" />
    <polygon points="352.6,186.2 359.2,178.5 359.3,188.7" />
    <polygon points="359.3,188.7 366.7,181.8 365.7,191.9" />
    <polygon points="365.7,191.9 373.9,185.9 371.6,195.8" />
    <polygon points="371.6,195.8 380.5,190.8 377.1,200.4" />
    <polygon points="377.1,200.4 386.4,196.5 382.0,205.6" />
    <polygon points="382.0,205.6 391.7,202.8 386.3,211.3" />
    <polygon points="386.3,211.3 396.2,209.6 389.8,217.5" />
    <polygon points="389.8,217.5 399.9,217.0 392.7,224.0" />
    <polygon points="392.7,224.0 402.7,224.7 394.7,230.8" />
    <polygon points="394.7,230.8 404.6,232.7 395.9,237.9" />
    <polygon points="395.9,237.9 405.6,240.9 396.4,245.0" />
    <polygon points="277.3,245.0 268.1,240.8 277.7,237.8" />
    <polygon points="277.7,237.8 269.1,232.4 279.1,230.6" />
    <polygon points="279.1,230.6 271.2,224.3 281.3,223.8" />
    <polygon points="281.3,223.8 274.3,216.4 284.4,217.2" />
    <polygon points="284.4,217.2 278.4,209.1 288.3,211.1" />
    <polygon points="288.3,211.1 283.3,202.2 292.9,205.5" />
    <polygon points="292.9,205.5 289.1,196.1 298.2,200.5" />
    <polygon points="298.2,200.5 295.6,190.7 304.1,196.3" />
    <polygon points="304.1,196.3 302.7,186.2 310.4,192.8" />
    <polygon points="310.4,192.8 310.3,182.6 317.2,190.1" />
    <polygon points="317.2,190.1 318.3,180.0 324.2,188.3" />
    <polygon points="324.2,188.3 326.6,178.4 331.4,187.4" />
    <polygon points="331.4,187.4 335.0,177.9 338.6,187.4" />
    <polygon points="338.6,187.4 343.4,178.4 345.8,188.3" />
    <polygon points="345.8,188.3 351.7,180.0 352.8,190.1" />
    <polygon points="352.8,190.1 359.7,182.6 359.6,192.8" />
    <polygon points="359.6,192.8 367.3,186.2 365.9,196.3" />
    <polygon points="365.9,196.3 374.4,190.7 371.8,200.5" />
    <polygon points="371.8,200.5 380.9,196.1 377.1,205.5" />
    <polygon points="377.1,205.5 386.7,202.2 381.7,211.1" />
    <polygon points="381.7,211.1 391.6,209.1 385.6,217.2" />
    <polygon points="385.6,217.2 395.7,216.4 388.7,223.8" />
    <polygon points="388.7,223.8 398.8,224.3 390.9,230.6" />
    <polygon points="390.9,230.6 400.9,232.4 392.3,237.8" />
    <polygon points="392.3,237.8 401.9,240.8 392.7,245.0" />
    <polygon points="280.9,245.0 271.7,240.5 281.5,237.3" />
    <polygon points="281.5,237.3 273.0,231.5 283.1,229.8" />
    <polygon points="283.1,229.8 275.6,222.8 285.8,222.5" />
    <polygon points="285.8,222.5 279.3,214.6 289.5,215.8" />
    <polygon points="289.5,215.8 284.2,207.0 294.1,209.6" />
    <polygon points="294.1,209.6 290.1,200.1 299.6,204.1" />
    <polygon points="299.6,204.1 297.0,194.2 305.8,199.5" />
    <polygon points="305.8,199.5 304.6,189.3 312.5,195.8" />
    <polygon points="312.5,195.8 312.8,185.6 319.8,193.1" />
    <polygon points="319.8,193.1 321.5,183.0 327.3,191.5" />
    <polygon points="327.3,191.5 330.5,181.7 335.0,190.9" />
    <polygon points="335.0,190.9 339.5,181.7 342.7,191.5" />
    <polygon points="342.7,191.5 348.5,183.0 350.2,193.1" />
    <polygon points="350.2,193.1 357.2,185.6 357.5,195.8" />
    <polygon points="357.5,195.8 365.4,189.3 364.2,199.5" />
    <polygon points="364.2,199.5 373.0,194.2 370.4,204.1" />
    <polygon points="370.4,204.1 379.9,200.1 375.9,209.6" />
    <polygon points="375.9,209.6 385.8,207.0 380.5,215.8" />
    <polygon points="380.5,215.8 390.7,214.6 384.2,222.5" />
    <polygon points="384.2,222.5 394.4,222.8 386.9,229.8" />
    <polygon points="386.9,229.8 397.0,231.5 388.5,237.3" />
    <polygon points="388.5,237.3 398.3,240.5 389.1,245.0" />
    <polygon points="284.6,245.0 275.4,240.3 285.2,237.1" />
    <polygon points="285.2,237.1 276.9,231.0 287.0,229.4" />
    <polygon points="287.0,229.4 279.8,222.1 290.1,222.1" />
    <polygon points="290.1,222.1 284.0,213.8 294.2,215.4" />
    <polygon points="294.2,215.4 289.5,206.2 299.3,209.3" />
    <polygon points="299.3,209.3 296.2,199.5 305.4,204.2" />
    <polygon points="305.4,204.2 303.8,194.0 312.1,200.1" />
    <polygon points="312.1,200.1 312.1,189.8 319.4,197.0" />
    <polygon points="319.4,197.0 321.0,186.9 327.1,195.2" />
    <polygon points="327.1,195.2 330.3,185.4 335.0,194.6" />
    <polygon points="335.0,194.6 339.7,185.4 342.9,195.2" />
    <polygon points="342.9,195.2 349.0,186.9 350.6,197.0" />
    <polygon points="350.6,197.0 357.9,189.8 357.9,200.1" />
    <polygon points="357.9,200.1 366.2,194.0 364.6,204.2" />
    <polygon points="364.6,204.2 373.8,199.5 370.7,209.3" />
    <polygon points="370.7,209.3 380.5,206.2 375.8,215.4" />
    <polygon points="375.8,215.4 386.0,213.8 379.9,222.1" />
    <polygon points="379.9,222.1 390.2,222.1 383.0,229.4" />
    <polygon points="383.0,229.4 393.1,231.0 384.8,237.1" />
    <polygon points="384.8,237.1 394.6,240.3 385.4,245.0" />
  </g>
  <path d="M270.0,245.0 A65.0,65.0 0 0,1 400.0,245.0" fill="none" stroke="#dc2626" stroke-width="0.8" opacity="0.40"/>
  <line x1="335" y1="180.0" x2="335" y2="168.0" stroke="#dc2626" stroke-width="0.6" opacity="0.45"/>
  <circle cx="335" cy="167.0" r="1.5" fill="#dc2626" opacity="0.45"/>
  <rect x="0" y="290" width="390" height="90" fill="url(#waveG)"/>
  <path d="M0.0,298.0 L4.9,299.1 L9.8,300.0 L14.6,300.9 L19.5,301.6 L24.4,302.2 L29.2,302.4 L34.1,302.5 L39.0,302.3 L43.9,301.8 L48.8,301.2 L53.6,300.4 L58.5,299.4 L63.4,298.4 L68.2,297.3 L73.1,296.3 L78.0,295.4 L82.9,294.6 L87.8,294.0 L92.6,293.6 L97.5,293.5 L102.4,293.6 L107.2,294.0 L112.1,294.6 L117.0,295.4 L121.9,296.3 L126.8,297.3 L131.6,298.4 L136.5,299.4 L141.4,300.4 L146.2,301.2 L151.1,301.8 L156.0,302.3 L160.9,302.5 L165.8,302.4 L170.6,302.2 L175.5,301.6 L180.4,300.9 L185.2,300.0 L190.1,299.1 L195.0,298.0 L199.9,296.9 L204.8,296.0 L209.6,295.1 L214.5,294.4 L219.4,293.8 L224.2,293.6 L229.1,293.5 L234.0,293.7 L238.9,294.2 L243.8,294.8 L248.6,295.6 L253.5,296.6 L258.4,297.6 L263.2,298.7 L268.1,299.7 L273.0,300.6 L277.9,301.4 L282.8,302.0 L287.6,302.4 L292.5,302.5 L297.4,302.4 L302.2,302.0 L307.1,301.4 L312.0,300.6 L316.9,299.7 L321.8,298.7 L326.6,297.6 L331.5,296.6 L336.4,295.6 L341.2,294.8 L346.1,294.2 L351.0,293.7 L355.9,293.5 L360.8,293.6 L365.6,293.8 L370.5,294.4 L375.4,295.1 L380.2,296.0 L385.1,296.9 L390.0,298.0" fill="none" stroke="#1a4060" stroke-width="0.7" opacity="0.55"/>
  <path d="M0.0,296.8 L4.9,297.9 L9.8,298.8 L14.6,299.7 L19.5,300.4 L24.4,301.0 L29.2,301.2 L34.1,301.3 L39.0,301.1 L43.9,300.6 L48.8,300.0 L53.6,299.2 L58.5,298.2 L63.4,297.2 L68.2,296.1 L73.1,295.1 L78.0,294.2 L82.9,293.4 L87.8,292.8 L92.6,292.4 L97.5,292.3 L102.4,292.4 L107.2,292.8 L112.1,293.4 L117.0,294.2 L121.9,295.1 L126.8,296.1 L131.6,297.2 L136.5,298.2 L141.4,299.2 L146.2,300.0 L151.1,300.6 L156.0,301.1 L160.9,301.3 L165.8,301.2 L170.6,301.0 L175.5,300.4 L180.4,299.7 L185.2,298.8 L190.1,297.9 L195.0,296.8 L199.9,295.7 L204.8,294.8 L209.6,293.9 L214.5,293.2 L219.4,292.6 L224.2,292.4 L229.1,292.3 L234.0,292.5 L238.9,293.0 L243.8,293.6 L248.6,294.4 L253.5,295.4 L258.4,296.4 L263.2,297.5 L268.1,298.5 L273.0,299.4 L277.9,300.2 L282.8,300.8 L287.6,301.2 L292.5,301.3 L297.4,301.2 L302.2,300.8 L307.1,300.2 L312.0,299.4 L316.9,298.5 L321.8,297.5 L326.6,296.4 L331.5,295.4 L336.4,294.4 L341.2,293.6 L346.1,293.0 L351.0,292.5 L355.9,292.3 L360.8,292.4 L365.6,292.6 L370.5,293.2 L375.4,293.9 L380.2,294.8 L385.1,295.7 L390.0,296.8" fill="none" stroke="#2a5878" stroke-width="0.4" opacity="0.30"/>
  <path d="M0.0,309.4 L4.9,310.2 L9.8,310.7 L14.6,311.0 L19.5,310.9 L24.4,310.6 L29.2,309.9 L34.1,309.1 L39.0,308.2 L43.9,307.2 L48.8,306.3 L53.6,305.6 L58.5,305.2 L63.4,305.0 L68.2,305.1 L73.1,305.6 L78.0,306.2 L82.9,307.1 L87.8,308.1 L92.6,309.0 L97.5,309.9 L102.4,310.5 L107.2,310.9 L112.1,311.0 L117.0,310.8 L121.9,310.3 L126.8,309.5 L131.6,308.7 L136.5,307.7 L141.4,306.8 L146.2,306.0 L151.1,305.4 L156.0,305.0 L160.9,305.0 L165.8,305.3 L170.6,305.9 L175.5,306.7 L180.4,307.6 L185.2,308.6 L190.1,309.5 L195.0,310.2 L199.9,310.7 L204.8,311.0 L209.6,310.9 L214.5,310.6 L219.4,309.9 L224.2,309.1 L229.1,308.2 L234.0,307.2 L238.9,306.3 L243.8,305.6 L248.6,305.2 L253.5,305.0 L258.4,305.1 L263.2,305.6 L268.1,306.3 L273.0,307.1 L277.9,308.1 L282.8,309.0 L287.6,309.9 L292.5,310.5 L297.4,310.9 L302.2,311.0 L307.1,310.8 L312.0,310.3 L316.9,309.5 L321.8,308.6 L326.6,307.7 L331.5,306.7 L336.4,305.9 L341.2,305.4 L346.1,305.0 L351.0,305.0 L355.9,305.3 L360.8,305.9 L365.6,306.7 L370.5,307.6 L375.4,308.6 L380.2,309.5 L385.1,310.2 L390.0,310.8" fill="none" stroke="#1a4060" stroke-width="0.6" opacity="0.48"/>
  <path d="M0.0,308.2 L4.9,309.0 L9.8,309.5 L14.6,309.8 L19.5,309.7 L24.4,309.4 L29.2,308.7 L34.1,307.9 L39.0,307.0 L43.9,306.0 L48.8,305.1 L53.6,304.4 L58.5,304.0 L63.4,303.8 L68.2,303.9 L73.1,304.4 L78.0,305.0 L82.9,305.9 L87.8,306.9 L92.6,307.8 L97.5,308.7 L102.4,309.3 L107.2,309.7 L112.1,309.8 L117.0,309.6 L121.9,309.1 L126.8,308.3 L131.6,307.5 L136.5,306.5 L141.4,305.6 L146.2,304.8 L151.1,304.2 L156.0,303.8 L160.9,303.8 L165.8,304.1 L170.6,304.7 L175.5,305.5 L180.4,306.4 L185.2,307.4 L190.1,308.3 L195.0,309.0 L199.9,309.5 L204.8,309.8 L209.6,309.7 L214.5,309.4 L219.4,308.7 L224.2,307.9 L229.1,307.0 L234.0,306.0 L238.9,305.1 L243.8,304.4 L248.6,304.0 L253.5,303.8 L258.4,303.9 L263.2,304.4 L268.1,305.1 L273.0,305.9 L277.9,306.9 L282.8,307.8 L287.6,308.7 L292.5,309.3 L297.4,309.7 L302.2,309.8 L307.1,309.6 L312.0,309.1 L316.9,308.3 L321.8,307.4 L326.6,306.5 L331.5,305.5 L336.4,304.7 L341.2,304.2 L346.1,303.8 L351.0,303.8 L355.9,304.1 L360.8,304.7 L365.6,305.5 L370.5,306.4 L375.4,307.4 L380.2,308.3 L385.1,309.0 L390.0,309.6" fill="none" stroke="#2a5878" stroke-width="0.4" opacity="0.26"/>
  <path d="M0.0,323.1 L4.9,323.4 L9.8,323.5 L14.6,323.4 L19.5,323.1 L24.4,322.6 L29.2,321.9 L34.1,321.1 L39.0,320.2 L43.9,319.2 L48.8,318.1 L53.6,317.1 L58.5,316.1 L63.4,315.1 L68.2,314.3 L73.1,313.6 L78.0,313.0 L82.9,312.7 L87.8,312.5 L92.6,312.5 L97.5,312.8 L102.4,313.2 L107.2,313.8 L112.1,314.5 L117.0,315.4 L121.9,316.4 L126.8,317.4 L131.6,318.5 L136.5,319.5 L141.4,320.5 L146.2,321.4 L151.1,322.1 L156.0,322.8 L160.9,323.2 L165.8,323.4 L170.6,323.5 L175.5,323.3 L180.4,323.0 L185.2,322.5 L190.1,321.8 L195.0,321.0 L199.9,320.0 L204.8,319.0 L209.6,318.0 L214.5,316.9 L219.4,315.9 L224.2,315.0 L229.1,314.2 L234.0,313.5 L238.9,313.0 L243.8,312.6 L248.6,312.5 L253.5,312.6 L258.4,312.8 L263.2,313.3 L268.1,313.9 L273.0,314.7 L277.9,315.6 L282.8,316.6 L287.6,317.6 L292.5,318.7 L297.4,319.7 L302.2,320.7 L307.1,321.5 L312.0,322.3 L316.9,322.8 L321.8,323.3 L326.6,323.5 L331.5,323.5 L336.4,323.3 L341.2,322.9 L346.1,322.4 L351.0,321.6 L355.9,320.8 L360.8,319.8 L365.6,318.8 L370.5,317.8 L375.4,316.7 L380.2,315.7 L385.1,314.8 L390.0,314.0" fill="none" stroke="#1a4060" stroke-width="0.7" opacity="0.42"/>
  <path d="M0.0,321.9 L4.9,322.2 L9.8,322.3 L14.6,322.2 L19.5,321.9 L24.4,321.4 L29.2,320.7 L34.1,319.9 L39.0,319.0 L43.9,318.0 L48.8,316.9 L53.6,315.9 L58.5,314.9 L63.4,313.9 L68.2,313.1 L73.1,312.4 L78.0,311.8 L82.9,311.5 L87.8,311.3 L92.6,311.3 L97.5,311.6 L102.4,312.0 L107.2,312.6 L112.1,313.3 L117.0,314.2 L121.9,315.2 L126.8,316.2 L131.6,317.3 L136.5,318.3 L141.4,319.3 L146.2,320.2 L151.1,320.9 L156.0,321.6 L160.9,322.0 L165.8,322.2 L170.6,322.3 L175.5,322.1 L180.4,321.8 L185.2,321.3 L190.1,320.6 L195.0,319.8 L199.9,318.8 L204.8,317.8 L209.6,316.8 L214.5,315.7 L219.4,314.7 L224.2,313.8 L229.1,313.0 L234.0,312.3 L238.9,311.8 L243.8,311.4 L248.6,311.3 L253.5,311.4 L258.4,311.6 L263.2,312.1 L268.1,312.7 L273.0,313.5 L277.9,314.4 L282.8,315.4 L287.6,316.4 L292.5,317.5 L297.4,318.5 L302.2,319.5 L307.1,320.3 L312.0,321.1 L316.9,321.6 L321.8,322.1 L326.6,322.3 L331.5,322.3 L336.4,322.1 L341.2,321.7 L346.1,321.2 L351.0,320.4 L355.9,319.6 L360.8,318.6 L365.6,317.6 L370.5,316.6 L375.4,315.5 L380.2,314.5 L385.1,313.6 L390.0,312.8" fill="none" stroke="#2a5878" stroke-width="0.4" opacity="0.23"/>
  <path d="M0.0,329.8 L4.9,330.3 L9.8,330.5 L14.6,330.3 L19.5,329.8 L24.4,329.0 L29.2,328.1 L34.1,327.2 L39.0,326.3 L43.9,325.8 L48.8,325.5 L53.6,325.6 L58.5,326.1 L63.4,326.8 L68.2,327.7 L73.1,328.6 L78.0,329.5 L82.9,330.1 L87.8,330.5 L92.6,330.4 L97.5,330.1 L102.4,329.4 L107.2,328.5 L112.1,327.5 L117.0,326.7 L121.9,326.0 L126.8,325.6 L131.6,325.5 L136.5,325.8 L141.4,326.5 L146.2,327.3 L151.1,328.3 L156.0,329.2 L160.9,329.9 L165.8,330.4 L170.6,330.5 L175.5,330.3 L180.4,329.7 L185.2,328.9 L190.1,327.9 L195.0,327.0 L199.9,326.2 L204.8,325.7 L209.6,325.5 L214.5,325.7 L219.4,326.2 L224.2,326.9 L229.1,327.9 L234.0,328.8 L238.9,329.6 L243.8,330.2 L248.6,330.5 L253.5,330.4 L258.4,330.0 L263.2,329.2 L268.1,328.3 L273.0,327.4 L277.9,326.5 L282.8,325.9 L287.6,325.5 L292.5,325.6 L297.4,325.9 L302.2,326.6 L307.1,327.5 L312.0,328.4 L316.9,329.3 L321.8,330.0 L326.6,330.4 L331.5,330.5 L336.4,330.2 L341.2,329.6 L346.1,328.7 L351.0,327.8 L355.9,326.9 L360.8,326.1 L365.6,325.6 L370.5,325.5 L375.4,325.7 L380.2,326.3 L385.1,327.1 L390.0,328.0" fill="none" stroke="#1a4060" stroke-width="0.5" opacity="0.36"/>
  <path d="M0.0,328.6 L4.9,329.1 L9.8,329.3 L14.6,329.1 L19.5,328.6 L24.4,327.8 L29.2,326.9 L34.1,326.0 L39.0,325.1 L43.9,324.6 L48.8,324.3 L53.6,324.4 L58.5,324.9 L63.4,325.6 L68.2,326.5 L73.1,327.4 L78.0,328.3 L82.9,328.9 L87.8,329.3 L92.6,329.2 L97.5,328.9 L102.4,328.2 L107.2,327.3 L112.1,326.3 L117.0,325.5 L121.9,324.8 L126.8,324.4 L131.6,324.3 L136.5,324.6 L141.4,325.3 L146.2,326.1 L151.1,327.1 L156.0,328.0 L160.9,328.7 L165.8,329.2 L170.6,329.3 L175.5,329.1 L180.4,328.5 L185.2,327.7 L190.1,326.7 L195.0,325.8 L199.9,325.0 L204.8,324.5 L209.6,324.3 L214.5,324.5 L219.4,325.0 L224.2,325.7 L229.1,326.7 L234.0,327.6 L238.9,328.4 L243.8,329.0 L248.6,329.3 L253.5,329.2 L258.4,328.8 L263.2,328.0 L268.1,327.1 L273.0,326.2 L277.9,325.3 L282.8,324.7 L287.6,324.3 L292.5,324.4 L297.4,324.7 L302.2,325.4 L307.1,326.3 L312.0,327.2 L316.9,328.1 L321.8,328.8 L326.6,329.2 L331.5,329.3 L336.4,329.0 L341.2,328.4 L346.1,327.5 L351.0,326.6 L355.9,325.7 L360.8,324.9 L365.6,324.4 L370.5,324.3 L375.4,324.5 L380.2,325.1 L385.1,325.9 L390.0,326.8" fill="none" stroke="#2a5878" stroke-width="0.4" opacity="0.20"/>
  <path d="M0.0,341.5 L4.9,340.8 L9.8,339.9 L14.6,339.0 L19.5,337.9 L24.4,336.9 L29.2,335.9 L34.1,335.1 L39.0,334.5 L43.9,334.1 L48.8,334.0 L53.6,334.2 L58.5,334.7 L63.4,335.4 L68.2,336.2 L73.1,337.3 L78.0,338.3 L82.9,339.4 L87.8,340.3 L92.6,341.1 L97.5,341.6 L102.4,341.9 L107.2,342.0 L112.1,341.7 L117.0,341.2 L121.9,340.5 L126.8,339.6 L131.6,338.5 L136.5,337.5 L141.4,336.4 L146.2,335.5 L151.1,334.8 L156.0,334.3 L160.9,334.0 L165.8,334.1 L170.6,334.4 L175.5,334.9 L180.4,335.7 L185.2,336.6 L190.1,337.7 L195.0,338.7 L199.9,339.8 L204.8,340.6 L209.6,341.3 L214.5,341.8 L219.4,342.0 L224.2,341.9 L229.1,341.5 L234.0,340.9 L238.9,340.1 L243.8,339.1 L248.6,338.1 L253.5,337.0 L258.4,336.1 L263.2,335.2 L268.1,334.5 L273.0,334.1 L277.9,334.0 L282.8,334.1 L287.6,334.6 L292.5,335.2 L297.4,336.1 L302.2,337.1 L307.1,338.1 L312.0,339.2 L316.9,340.1 L321.8,341.0 L326.6,341.6 L331.5,341.9 L336.4,342.0 L341.2,341.8 L346.1,341.3 L351.0,340.6 L355.9,339.7 L360.8,338.7 L365.6,337.7 L370.5,336.6 L375.4,335.7 L380.2,334.9 L385.1,334.3 L390.0,334.0" fill="none" stroke="#1a4060" stroke-width="0.6" opacity="0.3"/>
  <path d="M0.0,340.3 L4.9,339.6 L9.8,338.7 L14.6,337.8 L19.5,336.7 L24.4,335.7 L29.2,334.7 L34.1,333.9 L39.0,333.3 L43.9,332.9 L48.8,332.8 L53.6,333.0 L58.5,333.5 L63.4,334.2 L68.2,335.0 L73.1,336.1 L78.0,337.1 L82.9,338.2 L87.8,339.1 L92.6,339.9 L97.5,340.4 L102.4,340.7 L107.2,340.8 L112.1,340.5 L117.0,340.0 L121.9,339.3 L126.8,338.4 L131.6,337.3 L136.5,336.3 L141.4,335.2 L146.2,334.3 L151.1,333.6 L156.0,333.1 L160.9,332.8 L165.8,332.9 L170.6,333.2 L175.5,333.7 L180.4,334.5 L185.2,335.4 L190.1,336.5 L195.0,337.5 L199.9,338.6 L204.8,339.4 L209.6,340.1 L214.5,340.6 L219.4,340.8 L224.2,340.7 L229.1,340.3 L234.0,339.7 L238.9,338.9 L243.8,337.9 L248.6,336.9 L253.5,335.8 L258.4,334.9 L263.2,334.0 L268.1,333.3 L273.0,332.9 L277.9,332.8 L282.8,332.9 L287.6,333.4 L292.5,334.0 L297.4,334.9 L302.2,335.9 L307.1,336.9 L312.0,338.0 L316.9,338.9 L321.8,339.8 L326.6,340.4 L331.5,340.7 L336.4,340.8 L341.2,340.6 L346.1,340.1 L351.0,339.4 L355.9,338.5 L360.8,337.5 L365.6,336.5 L370.5,335.4 L375.4,334.5 L380.2,333.7 L385.1,333.1 L390.0,332.8" fill="none" stroke="#2a5878" stroke-width="0.4" opacity="0.17"/>
  <path d="M0.0,351.5 L4.9,351.4 L9.8,351.0 L14.6,350.3 L19.5,349.4 L24.4,348.4 L29.2,347.3 L34.1,346.3 L39.0,345.5 L43.9,344.9 L48.8,344.5 L53.6,344.5 L58.5,344.9 L63.4,345.5 L68.2,346.3 L73.1,347.3 L78.0,348.4 L82.9,349.4 L87.8,350.3 L92.6,351.0 L97.5,351.4 L102.4,351.5 L107.2,351.2 L112.1,350.7 L117.0,349.9 L121.9,348.9 L126.8,347.9 L131.6,346.8 L136.5,345.9 L141.4,345.1 L146.2,344.7 L151.1,344.5 L156.0,344.7 L160.9,345.1 L165.8,345.9 L170.6,346.8 L175.5,347.9 L180.4,348.9 L185.2,349.9 L190.1,350.7 L195.0,351.2 L199.9,351.5 L204.8,351.4 L209.6,351.0 L214.5,350.3 L219.4,349.4 L224.2,348.4 L229.1,347.3 L234.0,346.3 L238.9,345.5 L243.8,344.9 L248.6,344.5 L253.5,344.5 L258.4,344.9 L263.2,345.5 L268.1,346.3 L273.0,347.3 L277.9,348.4 L282.8,349.4 L287.6,350.3 L292.5,351.0 L297.4,351.4 L302.2,351.5 L307.1,351.3 L312.0,350.7 L316.9,349.9 L321.8,349.0 L326.6,347.9 L331.5,346.8 L336.4,345.9 L341.2,345.2 L346.1,344.7 L351.0,344.5 L355.9,344.7 L360.8,345.1 L365.6,345.9 L370.5,346.8 L375.4,347.8 L380.2,348.9 L385.1,349.9 L390.0,350.7" fill="none" stroke="#1a4060" stroke-width="0.5" opacity="0.24"/>
  <path d="M0.0,358.6 L4.9,359.2 L9.8,359.7 L14.6,360.0 L19.5,360.0 L24.4,359.7 L29.2,359.3 L34.1,358.6 L39.0,357.9 L43.9,357.2 L48.8,356.6 L53.6,356.2 L58.5,356.0 L63.4,356.1 L68.2,356.4 L73.1,356.9 L78.0,357.6 L82.9,358.3 L87.8,359.0 L92.6,359.5 L97.5,359.9 L102.4,360.0 L107.2,359.9 L112.1,359.5 L117.0,358.9 L121.9,358.2 L126.8,357.5 L131.6,356.9 L136.5,356.4 L141.4,356.1 L146.2,356.0 L151.1,356.2 L156.0,356.7 L160.9,357.3 L165.8,358.0 L170.6,358.7 L175.5,359.3 L180.4,359.8 L185.2,360.0 L190.1,360.0 L195.0,359.7 L199.9,359.2 L204.8,358.5 L209.6,357.8 L214.5,357.1 L219.4,356.6 L224.2,356.2 L229.1,356.0 L234.0,356.1 L238.9,356.4 L243.8,357.0 L248.6,357.7 L253.5,358.4 L258.4,359.0 L263.2,359.6 L268.1,359.9 L273.0,360.0 L277.9,359.8 L282.8,359.4 L287.6,358.8 L292.5,358.1 L297.4,357.4 L302.2,356.8 L307.1,356.3 L312.0,356.0 L316.9,356.0 L321.8,356.3 L326.6,356.7 L331.5,357.4 L336.4,358.1 L341.2,358.8 L346.1,359.4 L351.0,359.8 L355.9,360.0 L360.8,359.9 L365.6,359.6 L370.5,359.1 L375.4,358.4 L380.2,357.7 L385.1,357.1 L390.0,356.5" fill="none" stroke="#1a4060" stroke-width="0.5" opacity="0.18"/>
  <path d="M0.0,369.5 L4.9,368.6 L9.8,367.6 L14.6,366.6 L19.5,365.7 L24.4,364.9 L29.2,364.3 L34.1,363.8 L39.0,363.6 L43.9,363.5 L48.8,363.7 L53.6,364.0 L58.5,364.6 L63.4,365.3 L68.2,366.2 L73.1,367.1 L78.0,368.1 L82.9,369.1 L87.8,370.0 L92.6,370.8 L97.5,371.5 L102.4,372.0 L107.2,372.4 L112.1,372.5 L117.0,372.4 L121.9,372.1 L126.8,371.6 L131.6,371.0 L136.5,370.2 L141.4,369.2 L146.2,368.3 L151.1,367.3 L156.0,366.3 L160.9,365.5 L165.8,364.7 L170.6,364.1 L175.5,363.7 L180.4,363.5 L185.2,363.5 L190.1,363.8 L195.0,364.2 L199.9,364.8 L204.8,365.5 L209.6,366.4 L214.5,367.4 L219.4,368.4 L224.2,369.3 L229.1,370.2 L234.0,371.0 L238.9,371.7 L243.8,372.1 L248.6,372.4 L253.5,372.5 L258.4,372.4 L263.2,372.0 L268.1,371.5 L273.0,370.7 L277.9,369.9 L282.8,369.0 L287.6,368.0 L292.5,367.0 L297.4,366.1 L302.2,365.3 L307.1,364.5 L312.0,364.0 L316.9,363.6 L321.8,363.5 L326.6,363.6 L331.5,363.9 L336.4,364.3 L341.2,365.0 L346.1,365.8 L351.0,366.7 L355.9,367.6 L360.8,368.6 L365.6,369.6 L370.5,370.5 L375.4,371.2 L380.2,371.8 L385.1,372.2 L390.0,372.5" fill="none" stroke="#1a4060" stroke-width="0.5" opacity="0.14"/>
  <path d="M0.0,379.3 L4.9,379.5 L9.8,379.4 L14.6,379.1 L19.5,378.6 L24.4,377.9 L29.2,377.3 L34.1,376.8 L39.0,376.5 L43.9,376.5 L48.8,376.8 L53.6,377.3 L58.5,378.0 L63.4,378.6 L68.2,379.1 L73.1,379.4 L78.0,379.5 L82.9,379.3 L87.8,378.8 L92.6,378.2 L97.5,377.5 L102.4,377.0 L107.2,376.6 L112.1,376.5 L117.0,376.7 L121.9,377.1 L126.8,377.7 L131.6,378.4 L136.5,378.9 L141.4,379.4 L146.2,379.5 L151.1,379.4 L156.0,379.0 L160.9,378.4 L165.8,377.7 L170.6,377.1 L175.5,376.7 L180.4,376.5 L185.2,376.6 L190.1,376.9 L195.0,377.5 L199.9,378.1 L204.8,378.8 L209.6,379.2 L214.5,379.5 L219.4,379.4 L224.2,379.1 L229.1,378.6 L234.0,378.0 L238.9,377.3 L243.8,376.8 L248.6,376.5 L253.5,376.5 L258.4,376.8 L263.2,377.3 L268.1,377.9 L273.0,378.5 L277.9,379.1 L282.8,379.4 L287.6,379.5 L292.5,379.3 L297.4,378.8 L302.2,378.2 L307.1,377.6 L312.0,377.0 L316.9,376.6 L321.8,376.5 L326.6,376.7 L331.5,377.1 L336.4,377.7 L341.2,378.3 L346.1,378.9 L351.0,379.3 L355.9,379.5 L360.8,379.4 L365.6,379.0 L370.5,378.4 L375.4,377.8 L380.2,377.2 L385.1,376.7 L390.0,376.5" fill="none" stroke="#1a4060" stroke-width="0.4" opacity="0.1"/>
  <g stroke="#555555" stroke-width="0.6" fill="none" opacity="0.28">
    <path d="M18,0 L18,380 M372,0 L372,380"/>
  </g>
  <g stroke="#dc2626" stroke-width="1.0" opacity="0.35">
    <line x1="6" y1="0" x2="6" y2="380" stroke-dasharray="3,5"/>
    <line x1="384" y1="0" x2="384" y2="380" stroke-dasharray="3,5"/>
  </g>
  <g stroke="#dc2626" stroke-width="1.0" opacity="0.55">
    <line x1="3.0" y1="20" x2="9.0" y2="20"/>
    <line x1="381.0" y1="20" x2="387.0" y2="20"/>
    <line x1="3.0" y1="360" x2="9.0" y2="360"/>
    <line x1="381.0" y1="360" x2="387.0" y2="360"/>
  </g>
  <g stroke="#666666" stroke-width="0.5" fill="none" opacity="0.42">
    <polygon points="48.0,62.0 53.0,67.0 48.0,72.0 43.0,67.0" />
    <circle cx="48.0" cy="67.0" r="1.2" fill="#666666" stroke="none" opacity="0.50"/>
    <polygon points="102.0,62.0 107.0,67.0 102.0,72.0 97.0,67.0" />
    <circle cx="102.0" cy="67.0" r="1.2" fill="#666666" stroke="none" opacity="0.50"/>
    <polygon points="168.0,62.0 173.0,67.0 168.0,72.0 163.0,67.0" />
    <circle cx="168.0" cy="67.0" r="1.2" fill="#666666" stroke="none" opacity="0.50"/>
    <polygon points="234.0,62.0 239.0,67.0 234.0,72.0 229.0,67.0" />
    <circle cx="234.0" cy="67.0" r="1.2" fill="#666666" stroke="none" opacity="0.50"/>
    <polygon points="288.0,62.0 293.0,67.0 288.0,72.0 283.0,67.0" />
    <circle cx="288.0" cy="67.0" r="1.2" fill="#666666" stroke="none" opacity="0.50"/>
    <polygon points="342.0,62.0 347.0,67.0 342.0,72.0 337.0,67.0" />
    <circle cx="342.0" cy="67.0" r="1.2" fill="#666666" stroke="none" opacity="0.50"/>
    <polygon points="48.0,97.0 53.0,102.0 48.0,107.0 43.0,102.0" />
    <circle cx="48.0" cy="102.0" r="1.2" fill="#666666" stroke="none" opacity="0.50"/>
    <polygon points="102.0,97.0 107.0,102.0 102.0,107.0 97.0,102.0" />
    <circle cx="102.0" cy="102.0" r="1.2" fill="#666666" stroke="none" opacity="0.50"/>
    <polygon points="168.0,97.0 173.0,102.0 168.0,107.0 163.0,102.0" />
    <circle cx="168.0" cy="102.0" r="1.2" fill="#666666" stroke="none" opacity="0.50"/>
    <polygon points="234.0,97.0 239.0,102.0 234.0,107.0 229.0,102.0" />
    <circle cx="234.0" cy="102.0" r="1.2" fill="#666666" stroke="none" opacity="0.50"/>
    <polygon points="288.0,97.0 293.0,102.0 288.0,107.0 283.0,102.0" />
    <circle cx="288.0" cy="102.0" r="1.2" fill="#666666" stroke="none" opacity="0.50"/>
    <polygon points="342.0,97.0 347.0,102.0 342.0,107.0 337.0,102.0" />
    <circle cx="342.0" cy="102.0" r="1.2" fill="#666666" stroke="none" opacity="0.50"/>
    <polygon points="48.0,132.0 53.0,137.0 48.0,142.0 43.0,137.0" />
    <circle cx="48.0" cy="137.0" r="1.2" fill="#666666" stroke="none" opacity="0.50"/>
    <polygon points="102.0,132.0 107.0,137.0 102.0,142.0 97.0,137.0" />
    <circle cx="102.0" cy="137.0" r="1.2" fill="#666666" stroke="none" opacity="0.50"/>
    <polygon points="168.0,132.0 173.0,137.0 168.0,142.0 163.0,137.0" />
    <circle cx="168.0" cy="137.0" r="1.2" fill="#666666" stroke="none" opacity="0.50"/>
    <polygon points="234.0,132.0 239.0,137.0 234.0,142.0 229.0,137.0" />
    <circle cx="234.0" cy="137.0" r="1.2" fill="#666666" stroke="none" opacity="0.50"/>
    <polygon points="288.0,132.0 293.0,137.0 288.0,142.0 283.0,137.0" />
    <circle cx="288.0" cy="137.0" r="1.2" fill="#666666" stroke="none" opacity="0.50"/>
    <polygon points="342.0,132.0 347.0,137.0 342.0,142.0 337.0,137.0" />
    <circle cx="342.0" cy="137.0" r="1.2" fill="#666666" stroke="none" opacity="0.50"/>
    <polygon points="48.0,167.0 53.0,172.0 48.0,177.0 43.0,172.0" />
    <circle cx="48.0" cy="172.0" r="1.2" fill="#666666" stroke="none" opacity="0.50"/>
    <polygon points="102.0,167.0 107.0,172.0 102.0,177.0 97.0,172.0" />
    <circle cx="102.0" cy="172.0" r="1.2" fill="#666666" stroke="none" opacity="0.50"/>
    <polygon points="168.0,167.0 173.0,172.0 168.0,177.0 163.0,172.0" />
    <circle cx="168.0" cy="172.0" r="1.2" fill="#666666" stroke="none" opacity="0.50"/>
    <polygon points="234.0,167.0 239.0,172.0 234.0,177.0 229.0,172.0" />
    <circle cx="234.0" cy="172.0" r="1.2" fill="#666666" stroke="none" opacity="0.50"/>
    <polygon points="288.0,167.0 293.0,172.0 288.0,177.0 283.0,172.0" />
    <circle cx="288.0" cy="172.0" r="1.2" fill="#666666" stroke="none" opacity="0.50"/>
    <polygon points="342.0,167.0 347.0,172.0 342.0,177.0 337.0,172.0" />
    <circle cx="342.0" cy="172.0" r="1.2" fill="#666666" stroke="none" opacity="0.50"/>
    <polygon points="48.0,202.0 53.0,207.0 48.0,212.0 43.0,207.0" />
    <circle cx="48.0" cy="207.0" r="1.2" fill="#666666" stroke="none" opacity="0.50"/>
    <polygon points="102.0,202.0 107.0,207.0 102.0,212.0 97.0,207.0" />
    <circle cx="102.0" cy="207.0" r="1.2" fill="#666666" stroke="none" opacity="0.50"/>
    <polygon points="168.0,202.0 173.0,207.0 168.0,212.0 163.0,207.0" />
    <circle cx="168.0" cy="207.0" r="1.2" fill="#666666" stroke="none" opacity="0.50"/>
    <polygon points="234.0,202.0 239.0,207.0 234.0,212.0 229.0,207.0" />
    <circle cx="234.0" cy="207.0" r="1.2" fill="#666666" stroke="none" opacity="0.50"/>
    <polygon points="288.0,202.0 293.0,207.0 288.0,212.0 283.0,207.0" />
    <circle cx="288.0" cy="207.0" r="1.2" fill="#666666" stroke="none" opacity="0.50"/>
    <polygon points="342.0,202.0 347.0,207.0 342.0,212.0 337.0,207.0" />
    <circle cx="342.0" cy="207.0" r="1.2" fill="#666666" stroke="none" opacity="0.50"/>
    <polygon points="48.0,237.0 53.0,242.0 48.0,247.0 43.0,242.0" />
    <circle cx="48.0" cy="242.0" r="1.2" fill="#666666" stroke="none" opacity="0.50"/>
    <polygon points="102.0,237.0 107.0,242.0 102.0,247.0 97.0,242.0" />
    <circle cx="102.0" cy="242.0" r="1.2" fill="#666666" stroke="none" opacity="0.50"/>
    <polygon points="168.0,237.0 173.0,242.0 168.0,247.0 163.0,242.0" />
    <circle cx="168.0" cy="242.0" r="1.2" fill="#666666" stroke="none" opacity="0.50"/>
    <polygon points="234.0,237.0 239.0,242.0 234.0,247.0 229.0,242.0" />
    <circle cx="234.0" cy="242.0" r="1.2" fill="#666666" stroke="none" opacity="0.50"/>
    <polygon points="288.0,237.0 293.0,242.0 288.0,247.0 283.0,242.0" />
    <circle cx="288.0" cy="242.0" r="1.2" fill="#666666" stroke="none" opacity="0.50"/>
    <polygon points="342.0,237.0 347.0,242.0 342.0,247.0 337.0,242.0" />
    <circle cx="342.0" cy="242.0" r="1.2" fill="#666666" stroke="none" opacity="0.50"/>
    <polygon points="48.0,272.0 53.0,277.0 48.0,282.0 43.0,277.0" />
    <circle cx="48.0" cy="277.0" r="1.2" fill="#666666" stroke="none" opacity="0.50"/>
    <polygon points="102.0,272.0 107.0,277.0 102.0,282.0 97.0,277.0" />
    <circle cx="102.0" cy="277.0" r="1.2" fill="#666666" stroke="none" opacity="0.50"/>
    <polygon points="168.0,272.0 173.0,277.0 168.0,282.0 163.0,277.0" />
    <circle cx="168.0" cy="277.0" r="1.2" fill="#666666" stroke="none" opacity="0.50"/>
    <polygon points="234.0,272.0 239.0,277.0 234.0,282.0 229.0,277.0" />
    <circle cx="234.0" cy="277.0" r="1.2" fill="#666666" stroke="none" opacity="0.50"/>
    <polygon points="288.0,272.0 293.0,277.0 288.0,282.0 283.0,277.0" />
    <circle cx="288.0" cy="277.0" r="1.2" fill="#666666" stroke="none" opacity="0.50"/>
    <polygon points="342.0,272.0 347.0,277.0 342.0,282.0 337.0,277.0" />
    <circle cx="342.0" cy="277.0" r="1.2" fill="#666666" stroke="none" opacity="0.50"/>
    <polygon points="48.0,307.0 53.0,312.0 48.0,317.0 43.0,312.0" />
    <circle cx="48.0" cy="312.0" r="1.2" fill="#666666" stroke="none" opacity="0.50"/>
    <polygon points="102.0,307.0 107.0,312.0 102.0,317.0 97.0,312.0" />
    <circle cx="102.0" cy="312.0" r="1.2" fill="#666666" stroke="none" opacity="0.50"/>
    <polygon points="168.0,307.0 173.0,312.0 168.0,317.0 163.0,312.0" />
    <circle cx="168.0" cy="312.0" r="1.2" fill="#666666" stroke="none" opacity="0.50"/>
    <polygon points="234.0,307.0 239.0,312.0 234.0,317.0 229.0,312.0" />
    <circle cx="234.0" cy="312.0" r="1.2" fill="#666666" stroke="none" opacity="0.50"/>
    <polygon points="288.0,307.0 293.0,312.0 288.0,317.0 283.0,312.0" />
    <circle cx="288.0" cy="312.0" r="1.2" fill="#666666" stroke="none" opacity="0.50"/>
    <polygon points="342.0,307.0 347.0,312.0 342.0,317.0 337.0,312.0" />
    <circle cx="342.0" cy="312.0" r="1.2" fill="#666666" stroke="none" opacity="0.50"/>
  </g>
  <g fill="none" stroke-width="1.0">
    <g stroke="#888888">
      <circle cx="48" cy="50" r="9"/>
      <circle cx="234" cy="50" r="9"/>
      <circle cx="288" cy="50" r="9"/>
      <circle cx="342" cy="50" r="9"/>
      <circle cx="48" cy="85" r="9"/>
      <circle cx="234" cy="85" r="9"/>
      <circle cx="288" cy="85" r="9"/>
      <circle cx="342" cy="85" r="9"/>
      <circle cx="48" cy="120" r="9"/>
      <circle cx="234" cy="120" r="9"/>
      <circle cx="288" cy="120" r="9"/>
      <circle cx="342" cy="120" r="9"/>
      <circle cx="48" cy="155" r="9"/>
      <circle cx="234" cy="155" r="9"/>
      <circle cx="288" cy="155" r="9"/>
      <circle cx="342" cy="155" r="9"/>
      <circle cx="48" cy="190" r="9"/>
      <circle cx="234" cy="190" r="9"/>
      <circle cx="288" cy="190" r="9"/>
      <circle cx="342" cy="190" r="9"/>
      <circle cx="48" cy="225" r="9"/>
      <circle cx="234" cy="225" r="9"/>
      <circle cx="288" cy="225" r="9"/>
      <circle cx="342" cy="225" r="9"/>
      <circle cx="48" cy="260" r="9"/>
      <circle cx="234" cy="260" r="9"/>
      <circle cx="288" cy="260" r="9"/>
      <circle cx="342" cy="260" r="9"/>
      <circle cx="48" cy="295" r="9"/>
      <circle cx="234" cy="295" r="9"/>
      <circle cx="288" cy="295" r="9"/>
      <circle cx="342" cy="295" r="9"/>
      <circle cx="48" cy="330" r="9"/>
      <circle cx="234" cy="330" r="9"/>
      <circle cx="288" cy="330" r="9"/>
      <circle cx="342" cy="330" r="9"/>
    </g>
    <g stroke="#d4af37">
      <circle cx="102" cy="50" r="9"/>
      <circle cx="168" cy="50" r="9"/>
      <circle cx="102" cy="85" r="9"/>
      <circle cx="168" cy="85" r="9"/>
      <circle cx="102" cy="120" r="9"/>
      <circle cx="168" cy="120" r="9"/>
      <circle cx="102" cy="155" r="9"/>
      <circle cx="168" cy="155" r="9"/>
      <circle cx="102" cy="190" r="9"/>
      <circle cx="168" cy="190" r="9"/>
      <circle cx="102" cy="225" r="9"/>
      <circle cx="168" cy="225" r="9"/>
      <circle cx="102" cy="260" r="9"/>
      <circle cx="168" cy="260" r="9"/>
      <circle cx="102" cy="295" r="9"/>
      <circle cx="168" cy="295" r="9"/>
      <circle cx="102" cy="330" r="9"/>
      <circle cx="168" cy="330" r="9"/>
    </g>
  </g>
  <circle cx="380.0" cy="10" r="5" fill="#dc2626"/>
</svg>