<svg xmlns="http://www.w3.org/2000/svg" width="390" height="380" viewBox="0 0 390 380">
  <defs>
    <pattern id="grain" x="0" y="0" width="390" height="0.5" patternUnits="userSpaceOnUse">
      <rect width="390" height="0.5" fill="#141416"/>
      <rect y="0.25" width="390" height="0.12" fill="#2a2a2c" opacity="0.40"/>
    </pattern>
    <radialGradient id="gG" cx="50%" cy="50%" r="50%">
      <stop offset="0%" stop-color="#d4af37" stop-opacity="0.30"/>
      <stop offset="65%" stop-color="#d4af37" stop-opacity="0.03"/>
      <stop offset="100%" stop-color="#d4af37" stop-opacity="0.0"/>
    </radialGradient>
    <radialGradient id="gT" cx="50%" cy="50%" r="50%">
      <stop offset="0%" stop-color="#26a69a" stop-opacity="0.26"/>
      <stop offset="65%" stop-color="#26a69a" stop-opacity="0.03"/>
      <stop offset="100%" stop-color="#26a69a" stop-opacity="0.0"/>
    </radialGradient>
  </defs>

  <rect width="390" height="380" fill="url(#grain)" />
  <g stroke="#555555" stroke-width="0.6" fill="none" opacity="0.30">
    <path d="M18,0 L18,380 M372,0 L372,380" />
  </g>

  <!-- HEX GLOW FILLS -->
  <g>
    <polygon points="48.0,34.0 66.0,40.0 66.0,60.0 48.0,66.0 30.0,60.0 30.0,40.0" fill="url(#gT)" stroke="none" />
    <polygon points="102.0,34.0 120.0,40.0 120.0,60.0 102.0,66.0 84.0,60.0 84.0,40.0" fill="url(#gG)" stroke="none" />
    <polygon points="168.0,34.0 186.0,40.0 186.0,60.0 168.0,66.0 150.0,60.0 150.0,40.0" fill="url(#gG)" stroke="none" />
    <polygon points="234.0,34.0 252.0,40.0 252.0,60.0 234.0,66.0 216.0,60.0 216.0,40.0" fill="url(#gT)" stroke="none" />
    <polygon points="288.0,34.0 306.0,40.0 306.0,60.0 288.0,66.0 270.0,60.0 270.0,40.0" fill="url(#gT)" stroke="none" />
    <polygon points="342.0,34.0 360.0,40.0 360.0,60.0 342.0,66.0 324.0,60.0 324.0,40.0" fill="url(#gT)" stroke="none" />
    <polygon points="48.0,69.0 66.0,75.0 66.0,95.0 48.0,101.0 30.0,95.0 30.0,75.0" fill="url(#gT)" stroke="none" />
    <polygon points="102.0,69.0 120.0,75.0 120.0,95.0 102.0,101.0 84.0,95.0 84.0,75.0" fill="url(#gG)" stroke="none" />
    <polygon points="168.0,69.0 186.0,75.0 186.0,95.0 168.0,101.0 150.0,95.0 150.0,75.0" fill="url(#gG)" stroke="none" />
    <polygon points="234.0,69.0 252.0,75.0 252.0,95.0 234.0,101.0 216.0,95.0 216.0,75.0" fill="url(#gT)" stroke="none" />
    <polygon points="288.0,69.0 306.0,75.0 306.0,95.0 288.0,101.0 270.0,95.0 270.0,75.0" fill="url(#gT)" stroke="none" />
    <polygon points="342.0,69.0 360.0,75.0 360.0,95.0 342.0,101.0 324.0,95.0 324.0,75.0" fill="url(#gT)" stroke="none" />
    <polygon points="48.0,104.0 66.0,110.0 66.0,130.0 48.0,136.0 30.0,130.0 30.0,110.0" fill="url(#gT)" stroke="none" />
    <polygon points="102.0,104.0 120.0,110.0 120.0,130.0 102.0,136.0 84.0,130.0 84.0,110.0" fill="url(#gG)" stroke="none" />
    <polygon points="168.0,104.0 186.0,110.0 186.0,130.0 168.0,136.0 150.0,130.0 150.0,110.0" fill="url(#gG)" stroke="none" />
    <polygon points="234.0,104.0 252.0,110.0 252.0,130.0 234.0,136.0 216.0,130.0 216.0,110.0" fill="url(#gT)" stroke="none" />
    <polygon points="288.0,104.0 306.0,110.0 306.0,130.0 288.0,136.0 270.0,130.0 270.0,110.0" fill="url(#gT)" stroke="none" />
    <polygon points="342.0,104.0 360.0,110.0 360.0,130.0 342.0,136.0 324.0,130.0 324.0,110.0" fill="url(#gT)" stroke="none" />
    <polygon points="48.0,139.0 66.0,145.0 66.0,165.0 48.0,171.0 30.0,165.0 30.0,145.0" fill="url(#gT)" stroke="none" />
    <polygon points="102.0,139.0 120.0,145.0 120.0,165.0 102.0,171.0 84.0,165.0 84.0,145.0" fill="url(#gG)" stroke="none" />
    <polygon points="168.0,139.0 186.0,145.0 186.0,165.0 168.0,171.0 150.0,165.0 150.0,145.0" fill="url(#gG)" stroke="none" />
    <polygon points="234.0,139.0 252.0,145.0 252.0,165.0 234.0,171.0 216.0,165.0 216.0,145.0" fill="url(#gT)" stroke="none" />
    <polygon points="288.0,139.0 306.0,145.0 306.0,165.0 288.0,171.0 270.0,165.0 270.0,145.0" fill="url(#gT)" stroke="none" />
    <polygon points="342.0,139.0 360.0,145.0 360.0,165.0 342.0,171.0 324.0,165.0 324.0,145.0" fill="url(#gT)" stroke="none" />
    <polygon points="48.0,174.0 66.0,180.0 66.0,200.0 48.0,206.0 30.0,200.0 30.0,180.0" fill="url(#gT)" stroke="none" />
    <polygon points="102.0,174.0 120.0,180.0 120.0,200.0 102.0,206.0 84.0,200.0 84.0,180.0" fill="url(#gG)" stroke="none" />
    <polygon points="168.0,174.0 186.0,180.0 186.0,200.0 168.0,206.0 150.0,200.0 150.0,180.0" fill="url(#gG)" stroke="none" />
    <polygon points="234.0,174.0 252.0,180.0 252.0,200.0 234.0,206.0 216.0,200.0 216.0,180.0" fill="url(#gT)" stroke="none" />
    <polygon points="288.0,174.0 306.0,180.0 306.0,200.0 288.0,206.0 270.0,200.0 270.0,180.0" fill="url(#gT)" stroke="none" />
    <polygon points="342.0,174.0 360.0,180.0 360.0,200.0 342.0,206.0 324.0,200.0 324.0,180.0" fill="url(#gT)" stroke="none" />
    <polygon points="48.0,209.0 66.0,215.0 66.0,235.0 48.0,241.0 30.0,235.0 30.0,215.0" fill="url(#gT)" stroke="none" />
    <polygon points="102.0,209.0 120.0,215.0 120.0,235.0 102.0,241.0 84.0,235.0 84.0,215.0" fill="url(#gG)" stroke="none" />
    <polygon points="168.0,209.0 186.0,215.0 186.0,235.0 168.0,241.0 150.0,235.0 150.0,215.0" fill="url(#gG)" stroke="none" />
    <polygon points="234.0,209.0 252.0,215.0 252.0,235.0 234.0,241.0 216.0,235.0 216.0,215.0" fill="url(#gT)" stroke="none" />
    <polygon points="288.0,209.0 306.0,215.0 306.0,235.0 288.0,241.0 270.0,235.0 270.0,215.0" fill="url(#gT)" stroke="none" />
    <polygon points="342.0,209.0 360.0,215.0 360.0,235.0 342.0,241.0 324.0,235.0 324.0,215.0" fill="url(#gT)" stroke="none" />
    <polygon points="48.0,244.0 66.0,250.0 66.0,270.0 48.0,276.0 30.0,270.0 30.0,250.0" fill="url(#gT)" stroke="none" />
    <polygon points="102.0,244.0 120.0,250.0 120.0,270.0 102.0,276.0 84.0,270.0 84.0,250.0" fill="url(#gG)" stroke="none" />
    <polygon points="168.0,244.0 186.0,250.0 186.0,270.0 168.0,276.0 150.0,270.0 150.0,250.0" fill="url(#gG)" stroke="none" />
    <polygon points="234.0,244.0 252.0,250.0 252.0,270.0 234.0,276.0 216.0,270.0 216.0,250.0" fill="url(#gT)" stroke="none" />
    <polygon points="288.0,244.0 306.0,250.0 306.0,270.0 288.0,276.0 270.0,270.0 270.0,250.0" fill="url(#gT)" stroke="none" />
    <polygon points="342.0,244.0 360.0,250.0 360.0,270.0 342.0,276.0 324.0,270.0 324.0,250.0" fill="url(#gT)" stroke="none" />
    <polygon points="48.0,279.0 66.0,285.0 66.0,305.0 48.0,311.0 30.0,305.0 30.0,285.0" fill="url(#gT)" stroke="none" />
    <polygon points="102.0,279.0 120.0,285.0 120.0,305.0 102.0,311.0 84.0,305.0 84.0,285.0" fill="url(#gG)" stroke="none" />
    <polygon points="168.0,279.0 186.0,285.0 186.0,305.0 168.0,311.0 150.0,305.0 150.0,285.0" fill="url(#gG)" stroke="none" />
    <polygon points="234.0,279.0 252.0,285.0 252.0,305.0 234.0,311.0 216.0,305.0 216.0,285.0" fill="url(#gT)" stroke="none" />
    <polygon points="288.0,279.0 306.0,285.0 306.0,305.0 288.0,311.0 270.0,305.0 270.0,285.0" fill="url(#gT)" stroke="none" />
    <polygon points="342.0,279.0 360.0,285.0 360.0,305.0 342.0,311.0 324.0,305.0 324.0,285.0" fill="url(#gT)" stroke="none" />
    <polygon points="48.0,314.0 66.0,320.0 66.0,340.0 48.0,346.0 30.0,340.0 30.0,320.0" fill="url(#gT)" stroke="none" />
    <polygon points="102.0,314.0 120.0,320.0 120.0,340.0 102.0,346.0 84.0,340.0 84.0,320.0" fill="url(#gG)" stroke="none" />
    <polygon points="168.0,314.0 186.0,320.0 186.0,340.0 168.0,346.0 150.0,340.0 150.0,320.0" fill="url(#gG)" stroke="none" />
    <polygon points="234.0,314.0 252.0,320.0 252.0,340.0 234.0,346.0 216.0,340.0 216.0,320.0" fill="url(#gT)" stroke="none" />
    <polygon points="288.0,314.0 306.0,320.0 306.0,340.0 288.0,346.0 270.0,340.0 270.0,320.0" fill="url(#gT)" stroke="none" />
    <polygon points="342.0,314.0 360.0,320.0 360.0,340.0 342.0,346.0 324.0,340.0 324.0,320.0" fill="url(#gT)" stroke="none" />
  </g>

  <!-- OUTER HEXAGONS -->
  <g stroke="#6a6a6a" stroke-width="0.85" fill="none" opacity="0.60">
    <polygon points="48.0,34.0 66.0,40.0 66.0,60.0 48.0,66.0 30.0,60.0 30.0,40.0" />
    <polygon points="102.0,34.0 120.0,40.0 120.0,60.0 102.0,66.0 84.0,60.0 84.0,40.0" />
    <polygon points="168.0,34.0 186.0,40.0 186.0,60.0 168.0,66.0 150.0,60.0 150.0,40.0" />
    <polygon points="234.0,34.0 252.0,40.0 252.0,60.0 234.0,66.0 216.0,60.0 216.0,40.0" />
    <polygon points="288.0,34.0 306.0,40.0 306.0,60.0 288.0,66.0 270.0,60.0 270.0,40.0" />
    <polygon points="342.0,34.0 360.0,40.0 360.0,60.0 342.0,66.0 324.0,60.0 324.0,40.0" />
    <polygon points="48.0,69.0 66.0,75.0 66.0,95.0 48.0,101.0 30.0,95.0 30.0,75.0" />
    <polygon points="102.0,69.0 120.0,75.0 120.0,95.0 102.0,101.0 84.0,95.0 84.0,75.0" />
    <polygon points="168.0,69.0 186.0,75.0 186.0,95.0 168.0,101.0 150.0,95.0 150.0,75.0" />
    <polygon points="234.0,69.0 252.0,75.0 252.0,95.0 234.0,101.0 216.0,95.0 216.0,75.0" />
    <polygon points="288.0,69.0 306.0,75.0 306.0,95.0 288.0,101.0 270.0,95.0 270.0,75.0" />
    <polygon points="342.0,69.0 360.0,75.0 360.0,95.0 342.0,101.0 324.0,95.0 324.0,75.0" />
    <polygon points="48.0,104.0 66.0,110.0 66.0,130.0 48.0,136.0 30.0,130.0 30.0,110.0" />
    <polygon points="102.0,104.0 120.0,110.0 120.0,130.0 102.0,136.0 84.0,130.0 84.0,110.0" />
    <polygon points="168.0,104.0 186.0,110.0 186.0,130.0 168.0,136.0 150.0,130.0 150.0,110.0" />
    <polygon points="234.0,104.0 252.0,110.0 252.0,130.0 234.0,136.0 216.0,130.0 216.0,110.0" />
    <polygon points="288.0,104.0 306.0,110.0 306.0,130.0 288.0,136.0 270.0,130.0 270.0,110.0" />
    <polygon points="342.0,104.0 360.0,110.0 360.0,130.0 342.0,136.0 324.0,130.0 324.0,110.0" />
    <polygon points="48.0,139.0 66.0,145.0 66.0,165.0 48.0,171.0 30.0,165.0 30.0,145.0" />
    <polygon points="102.0,139.0 120.0,145.0 120.0,165.0 102.0,171.0 84.0,165.0 84.0,145.0" />
    <polygon points="168.0,139.0 186.0,145.0 186.0,165.0 168.0,171.0 150.0,165.0 150.0,145.0" />
    <polygon points="234.0,139.0 252.0,145.0 252.0,165.0 234.0,171.0 216.0,165.0 216.0,145.0" />
    <polygon points="288.0,139.0 306.0,145.0 306.0,165.0 288.0,171.0 270.0,165.0 270.0,145.0" />
    <polygon points="342.0,139.0 360.0,145.0 360.0,165.0 342.0,171.0 324.0,165.0 324.0,145.0" />
    <polygon points="48.0,174.0 66.0,180.0 66.0,200.0 48.0,206.0 30.0,200.0 30.0,180.0" />
    <polygon points="102.0,174.0 120.0,180.0 120.0,200.0 102.0,206.0 84.0,200.0 84.0,180.0" />
    <polygon points="168.0,174.0 186.0,180.0 186.0,200.0 168.0,206.0 150.0,200.0 150.0,180.0" />
    <polygon points="234.0,174.0 252.0,180.0 252.0,200.0 234.0,206.0 216.0,200.0 216.0,180.0" />
    <polygon points="288.0,174.0 306.0,180.0 306.0,200.0 288.0,206.0 270.0,200.0 270.0,180.0" />
    <polygon points="342.0,174.0 360.0,180.0 360.0,200.0 342.0,206.0 324.0,200.0 324.0,180.0" />
    <polygon points="48.0,209.0 66.0,215.0 66.0,235.0 48.0,241.0 30.0,235.0 30.0,215.0" />
    <polygon points="102.0,209.0 120.0,215.0 120.0,235.0 102.0,241.0 84.0,235.0 84.0,215.0" />
    <polygon points="168.0,209.0 186.0,215.0 186.0,235.0 168.0,241.0 150.0,235.0 150.0,215.0" />
    <polygon points="234.0,209.0 252.0,215.0 252.0,235.0 234.0,241.0 216.0,235.0 216.0,215.0" />
    <polygon points="288.0,209.0 306.0,215.0 306.0,235.0 288.0,241.0 270.0,235.0 270.0,215.0" />
    <polygon points="342.0,209.0 360.0,215.0 360.0,235.0 342.0,241.0 324.0,235.0 324.0,215.0" />
    <polygon points="48.0,244.0 66.0,250.0 66.0,270.0 48.0,276.0 30.0,270.0 30.0,250.0" />
    <polygon points="102.0,244.0 120.0,250.0 120.0,270.0 102.0,276.0 84.0,270.0 84.0,250.0" />
    <polygon points="168.0,244.0 186.0,250.0 186.0,270.0 168.0,276.0 150.0,270.0 150.0,250.0" />
    <polygon points="234.0,244.0 252.0,250.0 252.0,270.0 234.0,276.0 216.0,270.0 216.0,250.0" />
    <polygon points="288.0,244.0 306.0,250.0 306.0,270.0 288.0,276.0 270.0,270.0 270.0,250.0" />
    <polygon points="342.0,244.0 360.0,250.0 360.0,270.0 342.0,276.0 324.0,270.0 324.0,250.0" />
    <polygon points="48.0,279.0 66.0,285.0 66.0,305.0 48.0,311.0 30.0,305.0 30.0,285.0" />
    <polygon points="102.0,279.0 120.0,285.0 120.0,305.0 102.0,311.0 84.0,305.0 84.0,285.0" />
    <polygon points="168.0,279.0 186.0,285.0 186.0,305.0 168.0,311.0 150.0,305.0 150.0,285.0" />
    <polygon points="234.0,279.0 252.0,285.0 252.0,305.0 234.0,311.0 216.0,305.0 216.0,285.0" />
    <polygon points="288.0,279.0 306.0,285.0 306.0,305.0 288.0,311.0 270.0,305.0 270.0,285.0" />
    <polygon points="342.0,279.0 360.0,285.0 360.0,305.0 342.0,311.0 324.0,305.0 324.0,285.0" />
    <polygon points="48.0,314.0 66.0,320.0 66.0,340.0 48.0,346.0 30.0,340.0 30.0,320.0" />
    <polygon points="102.0,314.0 120.0,320.0 120.0,340.0 102.0,346.0 84.0,340.0 84.0,320.0" />
    <polygon points="168.0,314.0 186.0,320.0 186.0,340.0 168.0,346.0 150.0,340.0 150.0,320.0" />
    <polygon points="234.0,314.0 252.0,320.0 252.0,340.0 234.0,346.0 216.0,340.0 216.0,320.0" />
    <polygon points="288.0,314.0 306.0,320.0 306.0,340.0 288.0,346.0 270.0,340.0 270.0,320.0" />
    <polygon points="342.0,314.0 360.0,320.0 360.0,340.0 342.0,346.0 324.0,340.0 324.0,320.0" />
  </g>

  <!-- MID HEX RING -->
  <g stroke="#555555" stroke-width="0.5" fill="none" opacity="0.42">
    <polygon points="48.0,37.0 63.0,42.0 63.0,58.0 48.0,63.0 33.0,58.0 33.0,42.0" />
    <polygon points="102.0,37.0 117.0,42.0 117.0,58.0 102.0,63.0 87.0,58.0 87.0,42.0" />
    <polygon points="168.0,37.0 183.0,42.0 183.0,58.0 168.0,63.0 153.0,58.0 153.0,42.0" />
    <polygon points="234.0,37.0 249.0,42.0 249.0,58.0 234.0,63.0 219.0,58.0 219.0,42.0" />
    <polygon points="288.0,37.0 303.0,42.0 303.0,58.0 288.0,63.0 273.0,58.0 273.0,42.0" />
    <polygon points="342.0,37.0 357.0,42.0 357.0,58.0 342.0,63.0 327.0,58.0 327.0,42.0" />
    <polygon points="48.0,72.0 63.0,77.0 63.0,93.0 48.0,98.0 33.0,93.0 33.0,77.0" />
    <polygon points="102.0,72.0 117.0,77.0 117.0,93.0 102.0,98.0 87.0,93.0 87.0,77.0" />
    <polygon points="168.0,72.0 183.0,77.0 183.0,93.0 168.0,98.0 153.0,93.0 153.0,77.0" />
    <polygon points="234.0,72.0 249.0,77.0 249.0,93.0 234.0,98.0 219.0,93.0 219.0,77.0" />
    <polygon points="288.0,72.0 303.0,77.0 303.0,93.0 288.0,98.0 273.0,93.0 273.0,77.0" />
    <polygon points="342.0,72.0 357.0,77.0 357.0,93.0 342.0,98.0 327.0,93.0 327.0,77.0" />
    <polygon points="48.0,107.0 63.0,112.0 63.0,128.0 48.0,133.0 33.0,128.0 33.0,112.0" />
    <polygon points="102.0,107.0 117.0,112.0 117.0,128.0 102.0,133.0 87.0,128.0 87.0,112.0" />
    <polygon points="168.0,107.0 183.0,112.0 183.0,128.0 168.0,133.0 153.0,128.0 153.0,112.0" />
    <polygon points="234.0,107.0 249.0,112.0 249.0,128.0 234.0,133.0 219.0,128.0 219.0,112.0" />
    <polygon points="288.0,107.0 303.0,112.0 303.0,128.0 288.0,133.0 273.0,128.0 273.0,112.0" />
    <polygon points="342.0,107.0 357.0,112.0 357.0,128.0 342.0,133.0 327.0,128.0 327.0,112.0" />
    <polygon points="48.0,142.0 63.0,147.0 63.0,163.0 48.0,168.0 33.0,163.0 33.0,147.0" />
    <polygon points="102.0,142.0 117.0,147.0 117.0,163.0 102.0,168.0 87.0,163.0 87.0,147.0" />
    <polygon points="168.0,142.0 183.0,147.0 183.0,163.0 168.0,168.0 153.0,163.0 153.0,147.0" />
    <polygon points="234.0,142.0 249.0,147.0 249.0,163.0 234.0,168.0 219.0,163.0 219.0,147.0" />
    <polygon points="288.0,142.0 303.0,147.0 303.0,163.0 288.0,168.0 273.0,163.0 273.0,147.0" />
    <polygon points="342.0,142.0 357.0,147.0 357.0,163.0 342.0,168.0 327.0,163.0 327.0,147.0" />
    <polygon points="48.0,177.0 63.0,182.0 63.0,198.0 48.0,203.0 33.0,198.0 33.0,182.0" />
    <polygon points="102.0,177.0 117.0,182.0 117.0,198.0 102.0,203.0 87.0,198.0 87.0,182.0" />
    <polygon points="168.0,177.0 183.0,182.0 183.0,198.0 168.0,203.0 153.0,198.0 153.0,182.0" />
    <polygon points="234.0,177.0 249.0,182.0 249.0,198.0 234.0,203.0 219.0,198.0 219.0,182.0" />
    <polygon points="288.0,177.0 303.0,182.0 303.0,198.0 288.0,203.0 273.0,198.0 273.0,182.0" />
    <polygon points="342.0,177.0 357.0,182.0 357.0,198.0 342.0,203.0 327.0,198.0 327.0,182.0" />
    <polygon points="48.0,212.0 63.0,217.0 63.0,233.0 48.0,238.0 33.0,233.0 33.0,217.0" />
    <polygon points="102.0,212.0 117.0,217.0 117.0,233.0 102.0,238.0 87.0,233.0 87.0,217.0" />
    <polygon points="168.0,212.0 183.0,217.0 183.0,233.0 168.0,238.0 153.0,233.0 153.0,217.0" />
    <polygon points="234.0,212.0 249.0,217.0 249.0,233.0 234.0,238.0 219.0,233.0 219.0,217.0" />
    <polygon points="288.0,212.0 303.0,217.0 303.0,233.0 288.0,238.0 273.0,233.0 273.0,217.0" />
    <polygon points="342.0,212.0 357.0,217.0 357.0,233.0 342.0,238.0 327.0,233.0 327.0,217.0" />
    <polygon points="48.0,247.0 63.0,252.0 63.0,268.0 48.0,273.0 33.0,268.0 33.0,252.0" />
    <polygon points="102.0,247.0 117.0,252.0 117.0,268.0 102.0,273.0 87.0,268.0 87.0,252.0" />
    <polygon points="168.0,247.0 183.0,252.0 183.0,268.0 168.0,273.0 153.0,268.0 153.0,252.0" />
    <polygon points="234.0,247.0 249.0,252.0 249.0,268.0 234.0,273.0 219.0,268.0 219.0,252.0" />
    <polygon points="288.0,247.0 303.0,252.0 303.0,268.0 288.0,273.0 273.0,268.0 273.0,252.0" />
    <polygon points="342.0,247.0 357.0,252.0 357.0,268.0 342.0,273.0 327.0,268.0 327.0,252.0" />
    <polygon points="48.0,282.0 63.0,287.0 63.0,303.0 48.0,308.0 33.0,303.0 33.0,287.0" />
    <polygon points="102.0,282.0 117.0,287.0 117.0,303.0 102.0,308.0 87.0,303.0 87.0,287.0" />
    <polygon points="168.0,282.0 183.0,287.0 183.0,303.0 168.0,308.0 153.0,303.0 153.0,287.0" />
    <polygon points="234.0,282.0 249.0,287.0 249.0,303.0 234.0,308.0 219.0,303.0 219.0,287.0" />
    <polygon points="288.0,282.0 303.0,287.0 303.0,303.0 288.0,308.0 273.0,303.0 273.0,287.0" />
    <polygon points="342.0,282.0 357.0,287.0 357.0,303.0 342.0,308.0 327.0,303.0 327.0,287.0" />
    <polygon points="48.0,317.0 63.0,322.0 63.0,338.0 48.0,343.0 33.0,338.0 33.0,322.0" />
    <polygon points="102.0,317.0 117.0,322.0 117.0,338.0 102.0,343.0 87.0,338.0 87.0,322.0" />
    <polygon points="168.0,317.0 183.0,322.0 183.0,338.0 168.0,343.0 153.0,338.0 153.0,322.0" />
    <polygon points="234.0,317.0 249.0,322.0 249.0,338.0 234.0,343.0 219.0,338.0 219.0,322.0" />
    <polygon points="288.0,317.0 303.0,322.0 303.0,338.0 288.0,343.0 273.0,338.0 273.0,322.0" />
    <polygon points="342.0,317.0 357.0,322.0 357.0,338.0 342.0,343.0 327.0,338.0 327.0,322.0" />
  </g>

  <!-- INNER HEX RING -->
  <g stroke="#888888" stroke-width="0.5" fill="none" opacity="0.48">
    <polygon points="48.0,40.0 59.0,44.0 59.0,56.0 48.0,60.0 37.0,56.0 37.0,44.0" />
    <polygon points="102.0,40.0 113.0,44.0 113.0,56.0 102.0,60.0 91.0,56.0 91.0,44.0" />
    <polygon points="168.0,40.0 179.0,44.0 179.0,56.0 168.0,60.0 157.0,56.0 157.0,44.0" />
    <polygon points="234.0,40.0 245.0,44.0 245.0,56.0 234.0,60.0 223.0,56.0 223.0,44.0" />
    <polygon points="288.0,40.0 299.0,44.0 299.0,56.0 288.0,60.0 277.0,56.0 277.0,44.0" />
    <polygon points="342.0,40.0 353.0,44.0 353.0,56.0 342.0,60.0 331.0,56.0 331.0,44.0" />
    <polygon points="48.0,75.0 59.0,79.0 59.0,91.0 48.0,95.0 37.0,91.0 37.0,79.0" />
    <polygon points="102.0,75.0 113.0,79.0 113.0,91.0 102.0,95.0 91.0,91.0 91.0,79.0" />
    <polygon points="168.0,75.0 179.0,79.0 179.0,91.0 168.0,95.0 157.0,91.0 157.0,79.0" />
    <polygon points="234.0,75.0 245.0,79.0 245.0,91.0 234.0,95.0 223.0,91.0 223.0,79.0" />
    <polygon points="288.0,75.0 299.0,79.0 299.0,91.0 288.0,95.0 277.0,91.0 277.0,79.0" />
    <polygon points="342.0,75.0 353.0,79.0 353.0,91.0 342.0,95.0 331.0,91.0 331.0,79.0" />
    <polygon points="48.0,110.0 59.0,114.0 59.0,126.0 48.0,130.0 37.0,126.0 37.0,114.0" />
    <polygon points="102.0,110.0 113.0,114.0 113.0,126.0 102.0,130.0 91.0,126.0 91.0,114.0" />
    <polygon points="168.0,110.0 179.0,114.0 179.0,126.0 168.0,130.0 157.0,126.0 157.0,114.0" />
    <polygon points="234.0,110.0 245.0,114.0 245.0,126.0 234.0,130.0 223.0,126.0 223.0,114.0" />
    <polygon points="288.0,110.0 299.0,114.0 299.0,126.0 288.0,130.0 277.0,126.0 277.0,114.0" />
    <polygon points="342.0,110.0 353.0,114.0 353.0,126.0 342.0,130.0 331.0,126.0 331.0,114.0" />
    <polygon points="48.0,145.0 59.0,149.0 59.0,161.0 48.0,165.0 37.0,161.0 37.0,149.0" />
    <polygon points="102.0,145.0 113.0,149.0 113.0,161.0 102.0,165.0 91.0,161.0 91.0,149.0" />
    <polygon points="168.0,145.0 179.0,149.0 179.0,161.0 168.0,165.0 157.0,161.0 157.0,149.0" />
    <polygon points="234.0,145.0 245.0,149.0 245.0,161.0 234.0,165.0 223.0,161.0 223.0,149.0" />
    <polygon points="288.0,145.0 299.0,149.0 299.0,161.0 288.0,165.0 277.0,161.0 277.0,149.0" />
    <polygon points="342.0,145.0 353.0,149.0 353.0,161.0 342.0,165.0 331.0,161.0 331.0,149.0" />
    <polygon points="48.0,180.0 59.0,184.0 59.0,196.0 48.0,200.0 37.0,196.0 37.0,184.0" />
    <polygon points="102.0,180.0 113.0,184.0 113.0,196.0 102.0,200.0 91.0,196.0 91.0,184.0" />
    <polygon points="168.0,180.0 179.0,184.0 179.0,196.0 168.0,200.0 157.0,196.0 157.0,184.0" />
    <polygon points="234.0,180.0 245.0,184.0 245.0,196.0 234.0,200.0 223.0,196.0 223.0,184.0" />
    <polygon points="288.0,180.0 299.0,184.0 299.0,196.0 288.0,200.0 277.0,196.0 277.0,184.0" />
    <polygon points="342.0,180.0 353.0,184.0 353.0,196.0 342.0,200.0 331.0,196.0 331.0,184.0" />
    <polygon points="48.0,215.0 59.0,219.0 59.0,231.0 48.0,235.0 37.0,231.0 37.0,219.0" />
    <polygon points="102.0,215.0 113.0,219.0 113.0,231.0 102.0,235.0 91.0,231.0 91.0,219.0" />
    <polygon points="168.0,215.0 179.0,219.0 179.0,231.0 168.0,235.0 157.0,231.0 157.0,219.0" />
    <polygon points="234.0,215.0 245.0,219.0 245.0,231.0 234.0,235.0 223.0,231.0 223.0,219.0" />
    <polygon points="288.0,215.0 299.0,219.0 299.0,231.0 288.0,235.0 277.0,231.0 277.0,219.0" />
    <polygon points="342.0,215.0 353.0,219.0 353.0,231.0 342.0,235.0 331.0,231.0 331.0,219.0" />
    <polygon points="48.0,250.0 59.0,254.0 59.0,266.0 48.0,270.0 37.0,266.0 37.0,254.0" />
    <polygon points="102.0,250.0 113.0,254.0 113.0,266.0 102.0,270.0 91.0,266.0 91.0,254.0" />
    <polygon points="168.0,250.0 179.0,254.0 179.0,266.0 168.0,270.0 157.0,266.0 157.0,254.0" />
    <polygon points="234.0,250.0 245.0,254.0 245.0,266.0 234.0,270.0 223.0,266.0 223.0,254.0" />
    <polygon points="288.0,250.0 299.0,254.0 299.0,266.0 288.0,270.0 277.0,266.0 277.0,254.0" />
    <polygon points="342.0,250.0 353.0,254.0 353.0,266.0 342.0,270.0 331.0,266.0 331.0,254.0" />
    <polygon points="48.0,285.0 59.0,289.0 59.0,301.0 48.0,305.0 37.0,301.0 37.0,289.0" />
    <polygon points="102.0,285.0 113.0,289.0 113.0,301.0 102.0,305.0 91.0,301.0 91.0,289.0" />
    <polygon points="168.0,285.0 179.0,289.0 179.0,301.0 168.0,305.0 157.0,301.0 157.0,289.0" />
    <polygon points="234.0,285.0 245.0,289.0 245.0,301.0 234.0,305.0 223.0,301.0 223.0,289.0" />
    <polygon points="288.0,285.0 299.0,289.0 299.0,301.0 288.0,305.0 277.0,301.0 277.0,289.0" />
    <polygon points="342.0,285.0 353.0,289.0 353.0,301.0 342.0,305.0 331.0,301.0 331.0,289.0" />
    <polygon points="48.0,320.0 59.0,324.0 59.0,336.0 48.0,340.0 37.0,336.0 37.0,324.0" />
    <polygon points="102.0,320.0 113.0,324.0 113.0,336.0 102.0,340.0 91.0,336.0 91.0,324.0" />
    <polygon points="168.0,320.0 179.0,324.0 179.0,336.0 168.0,340.0 157.0,336.0 157.0,324.0" />
    <polygon points="234.0,320.0 245.0,324.0 245.0,336.0 234.0,340.0 223.0,336.0 223.0,324.0" />
    <polygon points="288.0,320.0 299.0,324.0 299.0,336.0 288.0,340.0 277.0,336.0 277.0,324.0" />
    <polygon points="342.0,320.0 353.0,324.0 353.0,336.0 342.0,340.0 331.0,336.0 331.0,324.0" />
  </g>

  <!-- SPOKES -->
  <g stroke="#999999" stroke-width="0.45" fill="none" opacity="0.36">
    <path d="M48.0,40.0 L48,34 M59.0,44.0 L66,40 M59.0,56.0 L66,60 M48.0,60.0 L48,66 M37.0,56.0 L30,60 M37.0,44.0 L30,40" />
    <path d="M102.0,40.0 L102,34 M113.0,44.0 L120,40 M113.0,56.0 L120,60 M102.0,60.0 L102,66 M91.0,56.0 L84,60 M91.0,44.0 L84,40" />
    <path d="M168.0,40.0 L168,34 M179.0,44.0 L186,40 M179.0,56.0 L186,60 M168.0,60.0 L168,66 M157.0,56.0 L150,60 M157.0,44.0 L150,40" />
    <path d="M234.0,40.0 L234,34 M245.0,44.0 L252,40 M245.0,56.0 L252,60 M234.0,60.0 L234,66 M223.0,56.0 L216,60 M223.0,44.0 L216,40" />
    <path d="M288.0,40.0 L288,34 M299.0,44.0 L306,40 M299.0,56.0 L306,60 M288.0,60.0 L288,66 M277.0,56.0 L270,60 M277.0,44.0 L270,40" />
    <path d="M342.0,40.0 L342,34 M353.0,44.0 L360,40 M353.0,56.0 L360,60 M342.0,60.0 L342,66 M331.0,56.0 L324,60 M331.0,44.0 L324,40" />
    <path d="M48.0,75.0 L48,69 M59.0,79.0 L66,75 M59.0,91.0 L66,95 M48.0,95.0 L48,101 M37.0,91.0 L30,95 M37.0,79.0 L30,75" />
    <path d="M102.0,75.0 L102,69 M113.0,79.0 L120,75 M113.0,91.0 L120,95 M102.0,95.0 L102,101 M91.0,91.0 L84,95 M91.0,79.0 L84,75" />
    <path d="M168.0,75.0 L168,69 M179.0,79.0 L186,75 M179.0,91.0 L186,95 M168.0,95.0 L168,101 M157.0,91.0 L150,95 M157.0,79.0 L150,75" />
    <path d="M234.0,75.0 L234,69 M245.0,79.0 L252,75 M245.0,91.0 L252,95 M234.0,95.0 L234,101 M223.0,91.0 L216,95 M223.0,79.0 L216,75" />
    <path d="M288.0,75.0 L288,69 M299.0,79.0 L306,75 M299.0,91.0 L306,95 M288.0,95.0 L288,101 M277.0,91.0 L270,95 M277.0,79.0 L270,75" />
    <path d="M342.0,75.0 L342,69 M353.0,79.0 L360,75 M353.0,91.0 L360,95 M342.0,95.0 L342,101 M331.0,91.0 L324,95 M331.0,79.0 L324,75" />
    <path d="M48.0,110.0 L48,104 M59.0,114.0 L66,110 M59.0,126.0 L66,130 M48.0,130.0 L48,136 M37.0,126.0 L30,130 M37.0,114.0 L30,110" />
    <path d="M102.0,110.0 L102,104 M113.0,114.0 L120,110 M113.0,126.0 L120,130 M102.0,130.0 L102,136 M91.0,126.0 L84,130 M91.0,114.0 L84,110" />
    <path d="M168.0,110.0 L168,104 M179.0,114.0 L186,110 M179.0,126.0 L186,130 M168.0,130.0 L168,136 M157.0,126.0 L150,130 M157.0,114.0 L150,110" />
    <path d="M234.0,110.0 L234,104 M245.0,114.0 L252,110 M245.0,126.0 L252,130 M234.0,130.0 L234,136 M223.0,126.0 L216,130 M223.0,114.0 L216,110" />
    <path d="M288.0,110.0 L288,104 M299.0,114.0 L306,110 M299.0,126.0 L306,130 M288.0,130.0 L288,136 M277.0,126.0 L270,130 M277.0,114.0 L270,110" />
    <path d="M342.0,110.0 L342,104 M353.0,114.0 L360,110 M353.0,126.0 L360,130 M342.0,130.0 L342,136 M331.0,126.0 L324,130 M331.0,114.0 L324,110" />
    <path d="M48.0,145.0 L48,139 M59.0,149.0 L66,145 M59.0,161.0 L66,165 M48.0,165.0 L48,171 M37.0,161.0 L30,165 M37.0,149.0 L30,145" />
    <path d="M102.0,145.0 L102,139 M113.0,149.0 L120,145 M113.0,161.0 L120,165 M102.0,165.0 L102,171 M91.0,161.0 L84,165 M91.0,149.0 L84,145" />
    <path d="M168.0,145.0 L168,139 M179.0,149.0 L186,145 M179.0,161.0 L186,165 M168.0,165.0 L168,171 M157.0,161.0 L150,165 M157.0,149.0 L150,145" />
    <path d="M234.0,145.0 L234,139 M245.0,149.0 L252,145 M245.0,161.0 L252,165 M234.0,165.0 L234,171 M223.0,161.0 L216,165 M223.0,149.0 L216,145" />
    <path d="M288.0,145.0 L288,139 M299.0,149.0 L306,145 M299.0,161.0 L306,165 M288.0,165.0 L288,171 M277.0,161.0 L270,165 M277.0,149.0 L270,145" />
    <path d="M342.0,145.0 L342,139 M353.0,149.0 L360,145 M353.0,161.0 L360,165 M342.0,165.0 L342,171 M331.0,161.0 L324,165 M331.0,149.0 L324,145" />
    <path d="M48.0,180.0 L48,174 M59.0,184.0 L66,180 M59.0,196.0 L66,200 M48.0,200.0 L48,206 M37.0,196.0 L30,200 M37.0,184.0 L30,180" />
    <path d="M102.0,180.0 L102,174 M113.0,184.0 L120,180 M113.0,196.0 L120,200 M102.0,200.0 L102,206 M91.0,196.0 L84,200 M91.0,184.0 L84,180" />
    <path d="M168.0,180.0 L168,174 M179.0,184.0 L186,180 M179.0,196.0 L186,200 M168.0,200.0 L168,206 M157.0,196.0 L150,200 M157.0,184.0 L150,180" />
    <path d="M234.0,180.0 L234,174 M245.0,184.0 L252,180 M245.0,196.0 L252,200 M234.0,200.0 L234,206 M223.0,196.0 L216,200 M223.0,184.0 L216,180" />
    <path d="M288.0,180.0 L288,174 M299.0,184.0 L306,180 M299.0,196.0 L306,200 M288.0,200.0 L288,206 M277.0,196.0 L270,200 M277.0,184.0 L270,180" />
    <path d="M342.0,180.0 L342,174 M353.0,184.0 L360,180 M353.0,196.0 L360,200 M342.0,200.0 L342,206 M331.0,196.0 L324,200 M331.0,184.0 L324,180" />
    <path d="M48.0,215.0 L48,209 M59.0,219.0 L66,215 M59.0,231.0 L66,235 M48.0,235.0 L48,241 M37.0,231.0 L30,235 M37.0,219.0 L30,215" />
    <path d="M102.0,215.0 L102,209 M113.0,219.0 L120,215 M113.0,231.0 L120,235 M102.0,235.0 L102,241 M91.0,231.0 L84,235 M91.0,219.0 L84,215" />
    <path d="M168.0,215.0 L168,209 M179.0,219.0 L186,215 M179.0,231.0 L186,235 M168.0,235.0 L168,241 M157.0,231.0 L150,235 M157.0,219.0 L150,215" />
    <path d="M234.0,215.0 L234,209 M245.0,219.0 L252,215 M245.0,231.0 L252,235 M234.0,235.0 L234,241 M223.0,231.0 L216,235 M223.0,219.0 L216,215" />
    <path d="M288.0,215.0 L288,209 M299.0,219.0 L306,215 M299.0,231.0 L306,235 M288.0,235.0 L288,241 M277.0,231.0 L270,235 M277.0,219.0 L270,215" />
    <path d="M342.0,215.0 L342,209 M353.0,219.0 L360,215 M353.0,231.0 L360,235 M342.0,235.0 L342,241 M331.0,231.0 L324,235 M331.0,219.0 L324,215" />
    <path d="M48.0,250.0 L48,244 M59.0,254.0 L66,250 M59.0,266.0 L66,270 M48.0,270.0 L48,276 M37.0,266.0 L30,270 M37.0,254.0 L30,250" />
    <path d="M102.0,250.0 L102,244 M113.0,254.0 L120,250 M113.0,266.0 L120,270 M102.0,270.0 L102,276 M91.0,266.0 L84,270 M91.0,254.0 L84,250" />
    <path d="M168.0,250.0 L168,244 M179.0,254.0 L186,250 M179.0,266.0 L186,270 M168.0,270.0 L168,276 M157.0,266.0 L150,270 M157.0,254.0 L150,250" />
    <path d="M234.0,250.0 L234,244 M245.0,254.0 L252,250 M245.0,266.0 L252,270 M234.0,270.0 L234,276 M223.0,266.0 L216,270 M223.0,254.0 L216,250" />
    <path d="M288.0,250.0 L288,244 M299.0,254.0 L306,250 M299.0,266.0 L306,270 M288.0,270.0 L288,276 M277.0,266.0 L270,270 M277.0,254.0 L270,250" />
    <path d="M342.0,250.0 L342,244 M353.0,254.0 L360,250 M353.0,266.0 L360,270 M342.0,270.0 L342,276 M331.0,266.0 L324,270 M331.0,254.0 L324,250" />
    <path d="M48.0,285.0 L48,279 M59.0,289.0 L66,285 M59.0,301.0 L66,305 M48.0,305.0 L48,311 M37.0,301.0 L30,305 M37.0,289.0 L30,285" />
    <path d="M102.0,285.0 L102,279 M113.0,289.0 L120,285 M113.0,301.0 L120,305 M102.0,305.0 L102,311 M91.0,301.0 L84,305 M91.0,289.0 L84,285" />
    <path d="M168.0,285.0 L168,279 M179.0,289.0 L186,285 M179.0,301.0 L186,305 M168.0,305.0 L168,311 M157.0,301.0 L150,305 M157.0,289.0 L150,285" />
    <path d="M234.0,285.0 L234,279 M245.0,289.0 L252,285 M245.0,301.0 L252,305 M234.0,305.0 L234,311 M223.0,301.0 L216,305 M223.0,289.0 L216,285" />
    <path d="M288.0,285.0 L288,279 M299.0,289.0 L306,285 M299.0,301.0 L306,305 M288.0,305.0 L288,311 M277.0,301.0 L270,305 M277.0,289.0 L270,285" />
    <path d="M342.0,285.0 L342,279 M353.0,289.0 L360,285 M353.0,301.0 L360,305 M342.0,305.0 L342,311 M331.0,301.0 L324,305 M331.0,289.0 L324,285" />
    <path d="M48.0,320.0 L48,314 M59.0,324.0 L66,320 M59.0,336.0 L66,340 M48.0,340.0 L48,346 M37.0,336.0 L30,340 M37.0,324.0 L30,320" />
    <path d="M102.0,320.0 L102,314 M113.0,324.0 L120,320 M113.0,336.0 L120,340 M102.0,340.0 L102,346 M91.0,336.0 L84,340 M91.0,324.0 L84,320" />
    <path d="M168.0,320.0 L168,314 M179.0,324.0 L186,320 M179.0,336.0 L186,340 M168.0,340.0 L168,346 M157.0,336.0 L150,340 M157.0,324.0 L150,320" />
    <path d="M234.0,320.0 L234,314 M245.0,324.0 L252,320 M245.0,336.0 L252,340 M234.0,340.0 L234,346 M223.0,336.0 L216,340 M223.0,324.0 L216,320" />
    <path d="M288.0,320.0 L288,314 M299.0,324.0 L306,320 M299.0,336.0 L306,340 M288.0,340.0 L288,346 M277.0,336.0 L270,340 M277.0,324.0 L270,320" />
    <path d="M342.0,320.0 L342,314 M353.0,324.0 L360,320 M353.0,336.0 L360,340 M342.0,340.0 L342,346 M331.0,336.0 L324,340 M331.0,324.0 L324,320" />
  </g>

  <!-- GOLD VERTEX DOTS -->
  <g fill="#d4af37" opacity="0.62">
    <circle cx="48.0" cy="40.0" r="1.4" />
    <circle cx="59.0" cy="44.0" r="1.4" />
    <circle cx="59.0" cy="56.0" r="1.4" />
    <circle cx="48.0" cy="60.0" r="1.4" />
    <circle cx="37.0" cy="56.0" r="1.4" />
    <circle cx="37.0" cy="44.0" r="1.4" />
    <circle cx="102.0" cy="40.0" r="1.4" />
    <circle cx="113.0" cy="44.0" r="1.4" />
    <circle cx="113.0" cy="56.0" r="1.4" />
    <circle cx="102.0" cy="60.0" r="1.4" />
    <circle cx="91.0" cy="56.0" r="1.4" />
    <circle cx="91.0" cy="44.0" r="1.4" />
    <circle cx="168.0" cy="40.0" r="1.4" />
    <circle cx="179.0" cy="44.0" r="1.4" />
    <circle cx="179.0" cy="56.0" r="1.4" />
    <circle cx="168.0" cy="60.0" r="1.4" />
    <circle cx="157.0" cy="56.0" r="1.4" />
    <circle cx="157.0" cy="44.0" r="1.4" />
    <circle cx="234.0" cy="40.0" r="1.4" />
    <circle cx="245.0" cy="44.0" r="1.4" />
    <circle cx="245.0" cy="56.0" r="1.4" />
    <circle cx="234.0" cy="60.0" r="1.4" />
    <circle cx="223.0" cy="56.0" r="1.4" />
    <circle cx="223.0" cy="44.0" r="1.4" />
    <circle cx="288.0" cy="40.0" r="1.4" />
    <circle cx="299.0" cy="44.0" r="1.4" />
    <circle cx="299.0" cy="56.0" r="1.4" />
    <circle cx="288.0" cy="60.0" r="1.4" />
    <circle cx="277.0" cy="56.0" r="1.4" />
    <circle cx="277.0" cy="44.0" r="1.4" />
    <circle cx="342.0" cy="40.0" r="1.4" />
    <circle cx="353.0" cy="44.0" r="1.4" />
    <circle cx="353.0" cy="56.0" r="1.4" />
    <circle cx="342.0" cy="60.0" r="1.4" />
    <circle cx="331.0" cy="56.0" r="1.4" />
    <circle cx="331.0" cy="44.0" r="1.4" />
    <circle cx="48.0" cy="75.0" r="1.4" />
    <circle cx="59.0" cy="79.0" r="1.4" />
    <circle cx="59.0" cy="91.0" r="1.4" />
    <circle cx="48.0" cy="95.0" r="1.4" />
    <circle cx="37.0" cy="91.0" r="1.4" />
    <circle cx="37.0" cy="79.0" r="1.4" />
    <circle cx="102.0" cy="75.0" r="1.4" />
    <circle cx="113.0" cy="79.0" r="1.4" />
    <circle cx="113.0" cy="91.0" r="1.4" />
    <circle cx="102.0" cy="95.0" r="1.4" />
    <circle cx="91.0" cy="91.0" r="1.4" />
    <circle cx="91.0" cy="79.0" r="1.4" />
    <circle cx="168.0" cy="75.0" r="1.4" />
    <circle cx="179.0" cy="79.0" r="1.4" />
    <circle cx="179.0" cy="91.0" r="1.4" />
    <circle cx="168.0" cy="95.0" r="1.4" />
    <circle cx="157.0" cy="91.0" r="1.4" />
    <circle cx="157.0" cy="79.0" r="1.4" />
    <circle cx="234.0" cy="75.0" r="1.4" />
    <circle cx="245.0" cy="79.0" r="1.4" />
    <circle cx="245.0" cy="91.0" r="1.4" />
    <circle cx="234.0" cy="95.0" r="1.4" />
    <circle cx="223.0" cy="91.0" r="1.4" />
    <circle cx="223.0" cy="79.0" r="1.4" />
    <circle cx="288.0" cy="75.0" r="1.4" />
    <circle cx="299.0" cy="79.0" r="1.4" />
    <circle cx="299.0" cy="91.0" r="1.4" />
    <circle cx="288.0" cy="95.0" r="1.4" />
    <circle cx="277.0" cy="91.0" r="1.4" />
    <circle cx="277.0" cy="79.0" r="1.4" />
    <circle cx="342.0" cy="75.0" r="1.4" />
    <circle cx="353.0" cy="79.0" r="1.4" />
    <circle cx="353.0" cy="91.0" r="1.4" />
    <circle cx="342.0" cy="95.0" r="1.4" />
    <circle cx="331.0" cy="91.0" r="1.4" />
    <circle cx="331.0" cy="79.0" r="1.4" />
    <circle cx="48.0" cy="110.0" r="1.4" />
    <circle cx="59.0" cy="114.0" r="1.4" />
    <circle cx="59.0" cy="126.0" r="1.4" />
    <circle cx="48.0" cy="130.0" r="1.4" />
    <circle cx="37.0" cy="126.0" r="1.4" />
    <circle cx="37.0" cy="114.0" r="1.4" />
    <circle cx="102.0" cy="110.0" r="1.4" />
    <circle cx="113.0" cy="114.0" r="1.4" />
    <circle cx="113.0" cy="126.0" r="1.4" />
    <circle cx="102.0" cy="130.0" r="1.4" />
    <circle cx="91.0" cy="126.0" r="1.4" />
    <circle cx="91.0" cy="114.0" r="1.4" />
    <circle cx="168.0" cy="110.0" r="1.4" />
    <circle cx="179.0" cy="114.0" r="1.4" />
    <circle cx="179.0" cy="126.0" r="1.4" />
    <circle cx="168.0" cy="130.0" r="1.4" />
    <circle cx="157.0" cy="126.0" r="1.4" />
    <circle cx="157.0" cy="114.0" r="1.4" />
    <circle cx="234.0" cy="110.0" r="1.4" />
    <circle cx="245.0" cy="114.0" r="1.4" />
    <circle cx="245.0" cy="126.0" r="1.4" />
    <circle cx="234.0" cy="130.0" r="1.4" />
    <circle cx="223.0" cy="126.0" r="1.4" />
    <circle cx="223.0" cy="114.0" r="1.4" />
    <circle cx="288.0" cy="110.0" r="1.4" />
    <circle cx="299.0" cy="114.0" r="1.4" />
    <circle cx="299.0" cy="126.0" r="1.4" />
    <circle cx="288.0" cy="130.0" r="1.4" />
    <circle cx="277.0" cy="126.0" r="1.4" />
    <circle cx="277.0" cy="114.0" r="1.4" />
    <circle cx="342.0" cy="110.0" r="1.4" />
    <circle cx="353.0" cy="114.0" r="1.4" />
    <circle cx="353.0" cy="126.0" r="1.4" />
    <circle cx="342.0" cy="130.0" r="1.4" />
    <circle cx="331.0" cy="126.0" r="1.4" />
    <circle cx="331.0" cy="114.0" r="1.4" />
    <circle cx="48.0" cy="145.0" r="1.4" />
    <circle cx="59.0" cy="149.0" r="1.4" />
    <circle cx="59.0" cy="161.0" r="1.4" />
    <circle cx="48.0" cy="165.0" r="1.4" />
    <circle cx="37.0" cy="161.0" r="1.4" />
    <circle cx="37.0" cy="149.0" r="1.4" />
    <circle cx="102.0" cy="145.0" r="1.4" />
    <circle cx="113.0" cy="149.0" r="1.4" />
    <circle cx="113.0" cy="161.0" r="1.4" />
    <circle cx="102.0" cy="165.0" r="1.4" />
    <circle cx="91.0" cy="161.0" r="1.4" />
    <circle cx="91.0" cy="149.0" r="1.4" />
    <circle cx="168.0" cy="145.0" r="1.4" />
    <circle cx="179.0" cy="149.0" r="1.4" />
    <circle cx="179.0" cy="161.0" r="1.4" />
    <circle cx="168.0" cy="165.0" r="1.4" />
    <circle cx="157.0" cy="161.0" r="1.4" />
    <circle cx="157.0" cy="149.0" r="1.4" />
    <circle cx="234.0" cy="145.0" r="1.4" />
    <circle cx="245.0" cy="149.0" r="1.4" />
    <circle cx="245.0" cy="161.0" r="1.4" />
    <circle cx="234.0" cy="165.0" r="1.4" />
    <circle cx="223.0" cy="161.0" r="1.4" />
    <circle cx="223.0" cy="149.0" r="1.4" />
    <circle cx="288.0" cy="145.0" r="1.4" />
    <circle cx="299.0" cy="149.0" r="1.4" />
    <circle cx="299.0" cy="161.0" r="1.4" />
    <circle cx="288.0" cy="165.0" r="1.4" />
    <circle cx="277.0" cy="161.0" r="1.4" />
    <circle cx="277.0" cy="149.0" r="1.4" />
    <circle cx="342.0" cy="145.0" r="1.4" />
    <circle cx="353.0" cy="149.0" r="1.4" />
    <circle cx="353.0" cy="161.0" r="1.4" />
    <circle cx="342.0" cy="165.0" r="1.4" />
    <circle cx="331.0" cy="161.0" r="1.4" />
    <circle cx="331.0" cy="149.0" r="1.4" />
    <circle cx="48.0" cy="180.0" r="1.4" />
    <circle cx="59.0" cy="184.0" r="1.4" />
    <circle cx="59.0" cy="196.0" r="1.4" />
    <circle cx="48.0" cy="200.0" r="1.4" />
    <circle cx="37.0" cy="196.0" r="1.4" />
    <circle cx="37.0" cy="184.0" r="1.4" />
    <circle cx="102.0" cy="180.0" r="1.4" />
    <circle cx="113.0" cy="184.0" r="1.4" />
    <circle cx="113.0" cy="196.0" r="1.4" />
    <circle cx="102.0" cy="200.0" r="1.4" />
    <circle cx="91.0" cy="196.0" r="1.4" />
    <circle cx="91.0" cy="184.0" r="1.4" />
    <circle cx="168.0" cy="180.0" r="1.4" />
    <circle cx="179.0" cy="184.0" r="1.4" />
    <circle cx="179.0" cy="196.0" r="1.4" />
    <circle cx="168.0" cy="200.0" r="1.4" />
    <circle cx="157.0" cy="196.0" r="1.4" />
    <circle cx="157.0" cy="184.0" r="1.4" />
    <circle cx="234.0" cy="180.0" r="1.4" />
    <circle cx="245.0" cy="184.0" r="1.4" />
    <circle cx="245.0" cy="196.0" r="1.4" />
    <circle cx="234.0" cy="200.0" r="1.4" />
    <circle cx="223.0" cy="196.0" r="1.4" />
    <circle cx="223.0" cy="184.0" r="1.4" />
    <circle cx="288.0" cy="180.0" r="1.4" />
    <circle cx="299.0" cy="184.0" r="1.4" />
    <circle cx="299.0" cy="196.0" r="1.4" />
    <circle cx="288.0" cy="200.0" r="1.4" />
    <circle cx="277.0" cy="196.0" r="1.4" />
    <circle cx="277.0" cy="184.0" r="1.4" />
    <circle cx="342.0" cy="180.0" r="1.4" />
    <circle cx="353.0" cy="184.0" r="1.4" />
    <circle cx="353.0" cy="196.0" r="1.4" />
    <circle cx="342.0" cy="200.0" r="1.4" />
    <circle cx="331.0" cy="196.0" r="1.4" />
    <circle cx="331.0" cy="184.0" r="1.4" />
    <circle cx="48.0" cy="215.0" r="1.4" />
    <circle cx="59.0" cy="219.0" r="1.4" />
    <circle cx="59.0" cy="231.0" r="1.4" />
    <circle cx="48.0" cy="235.0" r="1.4" />
    <circle cx="37.0" cy="231.0" r="1.4" />
    <circle cx="37.0" cy="219.0" r="1.4" />
    <circle cx="102.0" cy="215.0" r="1.4" />
    <circle cx="113.0" cy="219.0" r="1.4" />
    <circle cx="113.0" cy="231.0" r="1.4" />
    <circle cx="102.0" cy="235.0" r="1.4" />
    <circle cx="91.0" cy="231.0" r="1.4" />
    <circle cx="91.0" cy="219.0" r="1.4" />
    <circle cx="168.0" cy="215.0" r="1.4" />
    <circle cx="179.0" cy="219.0" r="1.4" />
    <circle cx="179.0" cy="231.0" r="1.4" />
    <circle cx="168.0" cy="235.0" r="1.4" />
    <circle cx="157.0" cy="231.0" r="1.4" />
    <circle cx="157.0" cy="219.0" r="1.4" />
    <circle cx="234.0" cy="215.0" r="1.4" />
    <circle cx="245.0" cy="219.0" r="1.4" />
    <circle cx="245.0" cy="231.0" r="1.4" />
    <circle cx="234.0" cy="235.0" r="1.4" />
    <circle cx="223.0" cy="231.0" r="1.4" />
    <circle cx="223.0" cy="219.0" r="1.4" />
    <circle cx="288.0" cy="215.0" r="1.4" />
    <circle cx="299.0" cy="219.0" r="1.4" />
    <circle cx="299.0" cy="231.0" r="1.4" />
    <circle cx="288.0" cy="235.0" r="1.4" />
    <circle cx="277.0" cy="231.0" r="1.4" />
    <circle cx="277.0" cy="219.0" r="1.4" />
    <circle cx="342.0" cy="215.0" r="1.4" />
    <circle cx="353.0" cy="219.0" r="1.4" />
    <circle cx="353.0" cy="231.0" r="1.4" />
    <circle cx="342.0" cy="235.0" r="1.4" />
    <circle cx="331.0" cy="231.0" r="1.4" />
    <circle cx="331.0" cy="219.0" r="1.4" />
    <circle cx="48.0" cy="250.0" r="1.4" />
    <circle cx="59.0" cy="254.0" r="1.4" />
    <circle cx="59.0" cy="266.0" r="1.4" />
    <circle cx="48.0" cy="270.0" r="1.4" />
    <circle cx="37.0" cy="266.0" r="1.4" />
    <circle cx="37.0" cy="254.0" r="1.4" />
    <circle cx="102.0" cy="250.0" r="1.4" />
    <circle cx="113.0" cy="254.0" r="1.4" />
    <circle cx="113.0" cy="266.0" r="1.4" />
    <circle cx="102.0" cy="270.0" r="1.4" />
    <circle cx="91.0" cy="266.0" r="1.4" />
    <circle cx="91.0" cy="254.0" r="1.4" />
    <circle cx="168.0" cy="250.0" r="1.4" />
    <circle cx="179.0" cy="254.0" r="1.4" />
    <circle cx="179.0" cy="266.0" r="1.4" />
    <circle cx="168.0" cy="270.0" r="1.4" />
    <circle cx="157.0" cy="266.0" r="1.4" />
    <circle cx="157.0" cy="254.0" r="1.4" />
    <circle cx="234.0" cy="250.0" r="1.4" />
    <circle cx="245.0" cy="254.0" r="1.4" />
    <circle cx="245.0" cy="266.0" r="1.4" />
    <circle cx="234.0" cy="270.0" r="1.4" />
    <circle cx="223.0" cy="266.0" r="1.4" />
    <circle cx="223.0" cy="254.0" r="1.4" />
    <circle cx="288.0" cy="250.0" r="1.4" />
    <circle cx="299.0" cy="254.0" r="1.4" />
    <circle cx="299.0" cy="266.0" r="1.4" />
    <circle cx="288.0" cy="270.0" r="1.4" />
    <circle cx="277.0" cy="266.0" r="1.4" />
    <circle cx="277.0" cy="254.0" r="1.4" />
    <circle cx="342.0" cy="250.0" r="1.4" />
    <circle cx="353.0" cy="254.0" r="1.4" />
    <circle cx="353.0" cy="266.0" r="1.4" />
    <circle cx="342.0" cy="270.0" r="1.4" />
    <circle cx="331.0" cy="266.0" r="1.4" />
    <circle cx="331.0" cy="254.0" r="1.4" />
    <circle cx="48.0" cy="285.0" r="1.4" />
    <circle cx="59.0" cy="289.0" r="1.4" />
    <circle cx="59.0" cy="301.0" r="1.4" />
    <circle cx="48.0" cy="305.0" r="1.4" />
    <circle cx="37.0" cy="301.0" r="1.4" />
    <circle cx="37.0" cy="289.0" r="1.4" />
    <circle cx="102.0" cy="285.0" r="1.4" />
    <circle cx="113.0" cy="289.0" r="1.4" />
    <circle cx="113.0" cy="301.0" r="1.4" />
    <circle cx="102.0" cy="305.0" r="1.4" />
    <circle cx="91.0" cy="301.0" r="1.4" />
    <circle cx="91.0" cy="289.0" r="1.4" />
    <circle cx="168.0" cy="285.0" r="1.4" />
    <circle cx="179.0" cy="289.0" r="1.4" />
    <circle cx="179.0" cy="301.0" r="1.4" />
    <circle cx="168.0" cy="305.0" r="1.4" />
    <circle cx="157.0" cy="301.0" r="1.4" />
    <circle cx="157.0" cy="289.0" r="1.4" />
    <circle cx="234.0" cy="285.0" r="1.4" />
    <circle cx="245.0" cy="289.0" r="1.4" />
    <circle cx="245.0" cy="301.0" r="1.4" />
    <circle cx="234.0" cy="305.0" r="1.4" />
    <circle cx="223.0" cy="301.0" r="1.4" />
    <circle cx="223.0" cy="289.0" r="1.4" />
    <circle cx="288.0" cy="285.0" r="1.4" />
    <circle cx="299.0" cy="289.0" r="1.4" />
    <circle cx="299.0" cy="301.0" r="1.4" />
    <circle cx="288.0" cy="305.0" r="1.4" />
    <circle cx="277.0" cy="301.0" r="1.4" />
    <circle cx="277.0" cy="289.0" r="1.4" />
    <circle cx="342.0" cy="285.0" r="1.4" />
    <circle cx="353.0" cy="289.0" r="1.4" />
    <circle cx="353.0" cy="301.0" r="1.4" />
    <circle cx="342.0" cy="305.0" r="1.4" />
    <circle cx="331.0" cy="301.0" r="1.4" />
    <circle cx="331.0" cy="289.0" r="1.4" />
    <circle cx="48.0" cy="320.0" r="1.4" />
    <circle cx="59.0" cy="324.0" r="1.4" />
    <circle cx="59.0" cy="336.0" r="1.4" />
    <circle cx="48.0" cy="340.0" r="1.4" />
    <circle cx="37.0" cy="336.0" r="1.4" />
    <circle cx="37.0" cy="324.0" r="1.4" />
    <circle cx="102.0" cy="320.0" r="1.4" />
    <circle cx="113.0" cy="324.0" r="1.4" />
    <circle cx="113.0" cy="336.0" r="1.4" />
    <circle cx="102.0" cy="340.0" r="1.4" />
    <circle cx="91.0" cy="336.0" r="1.4" />
    <circle cx="91.0" cy="324.0" r="1.4" />
    <circle cx="168.0" cy="320.0" r="1.4" />
    <circle cx="179.0" cy="324.0" r="1.4" />
    <circle cx="179.0" cy="336.0" r="1.4" />
    <circle cx="168.0" cy="340.0" r="1.4" />
    <circle cx="157.0" cy="336.0" r="1.4" />
    <circle cx="157.0" cy="324.0" r="1.4" />
    <circle cx="234.0" cy="320.0" r="1.4" />
    <circle cx="245.0" cy="324.0" r="1.4" />
    <circle cx="245.0" cy="336.0" r="1.4" />
    <circle cx="234.0" cy="340.0" r="1.4" />
    <circle cx="223.0" cy="336.0" r="1.4" />
    <circle cx="223.0" cy="324.0" r="1.4" />
    <circle cx="288.0" cy="320.0" r="1.4" />
    <circle cx="299.0" cy="324.0" r="1.4" />
    <circle cx="299.0" cy="336.0" r="1.4" />
    <circle cx="288.0" cy="340.0" r="1.4" />
    <circle cx="277.0" cy="336.0" r="1.4" />
    <circle cx="277.0" cy="324.0" r="1.4" />
    <circle cx="342.0" cy="320.0" r="1.4" />
    <circle cx="353.0" cy="324.0" r="1.4" />
    <circle cx="353.0" cy="336.0" r="1.4" />
    <circle cx="342.0" cy="340.0" r="1.4" />
    <circle cx="331.0" cy="336.0" r="1.4" />
    <circle cx="331.0" cy="324.0" r="1.4" />
  </g>

  <!-- BRIDGE DECORATIONS -->
  <g stroke="#777777" stroke-width="0.5" fill="none" opacity="0.48">
    <rect x="66.0" y="40" width="18" height="20" />
    <polygon points="75.0,44.0 81.0,50.0 75.0,56.0 69.0,50.0" stroke="#777777" stroke-width="0.4" />
    <circle cx="75" cy="50" r="1.2" fill="#777777" stroke="none" opacity="0.55" />
    <rect x="120.0" y="40" width="30" height="20" />
    <polygon points="135.0,42.0 145.0,50.0 135.0,58.0 125.0,50.0" stroke="#d4af37" stroke-width="0.6" opacity="0.55" />
    <polygon points="135.0,45.0 141.0,50.0 135.0,55.0 129.0,50.0" stroke="#d4af37" stroke-width="0.4" opacity="0.55" />
    <circle cx="135" cy="50" r="1.6" fill="#d4af37" stroke="none" opacity="0.55" />
    <circle cx="120.0" cy="50" r="1.1" fill="#d4af37" stroke="none" opacity="0.55" />
    <circle cx="150.0" cy="50" r="1.1" fill="#d4af37" stroke="none" opacity="0.55" />
    <rect x="186.0" y="40" width="30" height="20" />
    <polygon points="201.0,42.0 211.0,50.0 201.0,58.0 191.0,50.0" stroke="#d4af37" stroke-width="0.6" opacity="0.55" />
    <polygon points="201.0,45.0 207.0,50.0 201.0,55.0 195.0,50.0" stroke="#d4af37" stroke-width="0.4" opacity="0.55" />
    <circle cx="201" cy="50" r="1.6" fill="#d4af37" stroke="none" opacity="0.55" />
    <circle cx="186.0" cy="50" r="1.1" fill="#d4af37" stroke="none" opacity="0.55" />
    <circle cx="216.0" cy="50" r="1.1" fill="#d4af37" stroke="none" opacity="0.55" />
    <rect x="252.0" y="40" width="18" height="20" />
    <polygon points="261.0,44.0 267.0,50.0 261.0,56.0 255.0,50.0" stroke="#777777" stroke-width="0.4" />
    <circle cx="261" cy="50" r="1.2" fill="#777777" stroke="none" opacity="0.55" />
    <rect x="306.0" y="40" width="18" height="20" />
    <polygon points="315.0,44.0 321.0,50.0 315.0,56.0 309.0,50.0" stroke="#777777" stroke-width="0.4" />
    <circle cx="315" cy="50" r="1.2" fill="#777777" stroke="none" opacity="0.55" />
    <rect x="66.0" y="75" width="18" height="20" />
    <polygon points="75.0,79.0 81.0,85.0 75.0,91.0 69.0,85.0" stroke="#777777" stroke-width="0.4" />
    <circle cx="75" cy="85" r="1.2" fill="#777777" stroke="none" opacity="0.55" />
    <rect x="120.0" y="75" width="30" height="20" />
    <polygon points="135.0,77.0 145.0,85.0 135.0,93.0 125.0,85.0" stroke="#d4af37" stroke-width="0.6" opacity="0.55" />
    <polygon points="135.0,80.0 141.0,85.0 135.0,90.0 129.0,85.0" stroke="#d4af37" stroke-width="0.4" opacity="0.55" />
    <circle cx="135" cy="85" r="1.6" fill="#d4af37" stroke="none" opacity="0.55" />
    <circle cx="120.0" cy="85" r="1.1" fill="#d4af37" stroke="none" opacity="0.55" />
    <circle cx="150.0" cy="85" r="1.1" fill="#d4af37" stroke="none" opacity="0.55" />
    <rect x="186.0" y="75" width="30" height="20" />
    <polygon points="201.0,77.0 211.0,85.0 201.0,93.0 191.0,85.0" stroke="#d4af37" stroke-width="0.6" opacity="0.55" />
    <polygon points="201.0,80.0 207.0,85.0 201.0,90.0 195.0,85.0" stroke="#d4af37" stroke-width="0.4" opacity="0.55" />
    <circle cx="201" cy="85" r="1.6" fill="#d4af37" stroke="none" opacity="0.55" />
    <circle cx="186.0" cy="85" r="1.1" fill="#d4af37" stroke="none" opacity="0.55" />
    <circle cx="216.0" cy="85" r="1.1" fill="#d4af37" stroke="none" opacity="0.55" />
    <rect x="252.0" y="75" width="18" height="20" />
    <polygon points="261.0,79.0 267.0,85.0 261.0,91.0 255.0,85.0" stroke="#777777" stroke-width="0.4" />
    <circle cx="261" cy="85" r="1.2" fill="#777777" stroke="none" opacity="0.55" />
    <rect x="306.0" y="75" width="18" height="20" />
    <polygon points="315.0,79.0 321.0,85.0 315.0,91.0 309.0,85.0" stroke="#777777" stroke-width="0.4" />
    <circle cx="315" cy="85" r="1.2" fill="#777777" stroke="none" opacity="0.55" />
    <rect x="66.0" y="110" width="18" height="20" />
    <polygon points="75.0,114.0 81.0,120.0 75.0,126.0 69.0,120.0" stroke="#777777" stroke-width="0.4" />
    <circle cx="75" cy="120" r="1.2" fill="#777777" stroke="none" opacity="0.55" />
    <rect x="120.0" y="110" width="30" height="20" />
    <polygon points="135.0,112.0 145.0,120.0 135.0,128.0 125.0,120.0" stroke="#d4af37" stroke-width="0.6" opacity="0.55" />
    <polygon points="135.0,115.0 141.0,120.0 135.0,125.0 129.0,120.0" stroke="#d4af37" stroke-width="0.4" opacity="0.55" />
    <circle cx="135" cy="120" r="1.6" fill="#d4af37" stroke="none" opacity="0.55" />
    <circle cx="120.0" cy="120" r="1.1" fill="#d4af37" stroke="none" opacity="0.55" />
    <circle cx="150.0" cy="120" r="1.1" fill="#d4af37" stroke="none" opacity="0.55" />
    <rect x="186.0" y="110" width="30" height="20" />
    <polygon points="201.0,112.0 211.0,120.0 201.0,128.0 191.0,120.0" stroke="#d4af37" stroke-width="0.6" opacity="0.55" />
    <polygon points="201.0,115.0 207.0,120.0 201.0,125.0 195.0,120.0" stroke="#d4af37" stroke-width="0.4" opacity="0.55" />
    <circle cx="201" cy="120" r="1.6" fill="#d4af37" stroke="none" opacity="0.55" />
    <circle cx="186.0" cy="120" r="1.1" fill="#d4af37" stroke="none" opacity="0.55" />
    <circle cx="216.0" cy="120" r="1.1" fill="#d4af37" stroke="none" opacity="0.55" />
    <rect x="252.0" y="110" width="18" height="20" />
    <polygon points="261.0,114.0 267.0,120.0 261.0,126.0 255.0,120.0" stroke="#777777" stroke-width="0.4" />
    <circle cx="261" cy="120" r="1.2" fill="#777777" stroke="none" opacity="0.55" />
    <rect x="306.0" y="110" width="18" height="20" />
    <polygon points="315.0,114.0 321.0,120.0 315.0,126.0 309.0,120.0" stroke="#777777" stroke-width="0.4" />
    <circle cx="315" cy="120" r="1.2" fill="#777777" stroke="none" opacity="0.55" />
    <rect x="66.0" y="145" width="18" height="20" />
    <polygon points="75.0,149.0 81.0,155.0 75.0,161.0 69.0,155.0" stroke="#777777" stroke-width="0.4" />
    <circle cx="75" cy="155" r="1.2" fill="#777777" stroke="none" opacity="0.55" />
    <rect x="120.0" y="145" width="30" height="20" />
    <polygon points="135.0,147.0 145.0,155.0 135.0,163.0 125.0,155.0" stroke="#d4af37" stroke-width="0.6" opacity="0.55" />
    <polygon points="135.0,150.0 141.0,155.0 135.0,160.0 129.0,155.0" stroke="#d4af37" stroke-width="0.4" opacity="0.55" />
    <circle cx="135" cy="155" r="1.6" fill="#d4af37" stroke="none" opacity="0.55" />
    <circle cx="120.0" cy="155" r="1.1" fill="#d4af37" stroke="none" opacity="0.55" />
    <circle cx="150.0" cy="155" r="1.1" fill="#d4af37" stroke="none" opacity="0.55" />
    <rect x="186.0" y="145" width="30" height="20" />
    <polygon points="201.0,147.0 211.0,155.0 201.0,163.0 191.0,155.0" stroke="#d4af37" stroke-width="0.6" opacity="0.55" />
    <polygon points="201.0,150.0 207.0,155.0 201.0,160.0 195.0,155.0" stroke="#d4af37" stroke-width="0.4" opacity="0.55" />
    <circle cx="201" cy="155" r="1.6" fill="#d4af37" stroke="none" opacity="0.55" />
    <circle cx="186.0" cy="155" r="1.1" fill="#d4af37" stroke="none" opacity="0.55" />
    <circle cx="216.0" cy="155" r="1.1" fill="#d4af37" stroke="none" opacity="0.55" />
    <rect x="252.0" y="145" width="18" height="20" />
    <polygon points="261.0,149.0 267.0,155.0 261.0,161.0 255.0,155.0" stroke="#777777" stroke-width="0.4" />
    <circle cx="261" cy="155" r="1.2" fill="#777777" stroke="none" opacity="0.55" />
    <rect x="306.0" y="145" width="18" height="20" />
    <polygon points="315.0,149.0 321.0,155.0 315.0,161.0 309.0,155.0" stroke="#777777" stroke-width="0.4" />
    <circle cx="315" cy="155" r="1.2" fill="#777777" stroke="none" opacity="0.55" />
    <rect x="66.0" y="180" width="18" height="20" />
    <polygon points="75.0,184.0 81.0,190.0 75.0,196.0 69.0,190.0" stroke="#777777" stroke-width="0.4" />
    <circle cx="75" cy="190" r="1.2" fill="#777777" stroke="none" opacity="0.55" />
    <rect x="120.0" y="180" width="30" height="20" />
    <polygon points="135.0,182.0 145.0,190.0 135.0,198.0 125.0,190.0" stroke="#d4af37" stroke-width="0.6" opacity="0.55" />
    <polygon points="135.0,185.0 141.0,190.0 135.0,195.0 129.0,190.0" stroke="#d4af37" stroke-width="0.4" opacity="0.55" />
    <circle cx="135" cy="190" r="1.6" fill="#d4af37" stroke="none" opacity="0.55" />
    <circle cx="120.0" cy="190" r="1.1" fill="#d4af37" stroke="none" opacity="0.55" />
    <circle cx="150.0" cy="190" r="1.1" fill="#d4af37" stroke="none" opacity="0.55" />
    <rect x="186.0" y="180" width="30" height="20" />
    <polygon points="201.0,182.0 211.0,190.0 201.0,198.0 191.0,190.0" stroke="#d4af37" stroke-width="0.6" opacity="0.55" />
    <polygon points="201.0,185.0 207.0,190.0 201.0,195.0 195.0,190.0" stroke="#d4af37" stroke-width="0.4" opacity="0.55" />
    <circle cx="201" cy="190" r="1.6" fill="#d4af37" stroke="none" opacity="0.55" />
    <circle cx="186.0" cy="190" r="1.1" fill="#d4af37" stroke="none" opacity="0.55" />
    <circle cx="216.0" cy="190" r="1.1" fill="#d4af37" stroke="none" opacity="0.55" />
    <rect x="252.0" y="180" width="18" height="20" />
    <polygon points="261.0,184.0 267.0,190.0 261.0,196.0 255.0,190.0" stroke="#777777" stroke-width="0.4" />
    <circle cx="261" cy="190" r="1.2" fill="#777777" stroke="none" opacity="0.55" />
    <rect x="306.0" y="180" width="18" height="20" />
    <polygon points="315.0,184.0 321.0,190.0 315.0,196.0 309.0,190.0" stroke="#777777" stroke-width="0.4" />
    <circle cx="315" cy="190" r="1.2" fill="#777777" stroke="none" opacity="0.55" />
    <rect x="66.0" y="215" width="18" height="20" />
    <polygon points="75.0,219.0 81.0,225.0 75.0,231.0 69.0,225.0" stroke="#777777" stroke-width="0.4" />
    <circle cx="75" cy="225" r="1.2" fill="#777777" stroke="none" opacity="0.55" />
    <rect x="120.0" y="215" width="30" height="20" />
    <polygon points="135.0,217.0 145.0,225.0 135.0,233.0 125.0,225.0" stroke="#d4af37" stroke-width="0.6" opacity="0.55" />
    <polygon points="135.0,220.0 141.0,225.0 135.0,230.0 129.0,225.0" stroke="#d4af37" stroke-width="0.4" opacity="0.55" />
    <circle cx="135" cy="225" r="1.6" fill="#d4af37" stroke="none" opacity="0.55" />
    <circle cx="120.0" cy="225" r="1.1" fill="#d4af37" stroke="none" opacity="0.55" />
    <circle cx="150.0" cy="225" r="1.1" fill="#d4af37" stroke="none" opacity="0.55" />
    <rect x="186.0" y="215" width="30" height="20" />
    <polygon points="201.0,217.0 211.0,225.0 201.0,233.0 191.0,225.0" stroke="#d4af37" stroke-width="0.6" opacity="0.55" />
    <polygon points="201.0,220.0 207.0,225.0 201.0,230.0 195.0,225.0" stroke="#d4af37" stroke-width="0.4" opacity="0.55" />
    <circle cx="201" cy="225" r="1.6" fill="#d4af37" stroke="none" opacity="0.55" />
    <circle cx="186.0" cy="225" r="1.1" fill="#d4af37" stroke="none" opacity="0.55" />
    <circle cx="216.0" cy="225" r="1.1" fill="#d4af37" stroke="none" opacity="0.55" />
    <rect x="252.0" y="215" width="18" height="20" />
    <polygon points="261.0,219.0 267.0,225.0 261.0,231.0 255.0,225.0" stroke="#777777" stroke-width="0.4" />
    <circle cx="261" cy="225" r="1.2" fill="#777777" stroke="none" opacity="0.55" />
    <rect x="306.0" y="215" width="18" height="20" />
    <polygon points="315.0,219.0 321.0,225.0 315.0,231.0 309.0,225.0" stroke="#777777" stroke-width="0.4" />
    <circle cx="315" cy="225" r="1.2" fill="#777777" stroke="none" opacity="0.55" />
    <rect x="66.0" y="250" width="18" height="20" />
    <polygon points="75.0,254.0 81.0,260.0 75.0,266.0 69.0,260.0" stroke="#777777" stroke-width="0.4" />
    <circle cx="75" cy="260" r="1.2" fill="#777777" stroke="none" opacity="0.55" />
    <rect x="120.0" y="250" width="30" height="20" />
    <polygon points="135.0,252.0 145.0,260.0 135.0,268.0 125.0,260.0" stroke="#d4af37" stroke-width="0.6" opacity="0.55" />
    <polygon points="135.0,255.0 141.0,260.0 135.0,265.0 129.0,260.0" stroke="#d4af37" stroke-width="0.4" opacity="0.55" />
    <circle cx="135" cy="260" r="1.6" fill="#d4af37" stroke="none" opacity="0.55" />
    <circle cx="120.0" cy="260" r="1.1" fill="#d4af37" stroke="none" opacity="0.55" />
    <circle cx="150.0" cy="260" r="1.1" fill="#d4af37" stroke="none" opacity="0.55" />
    <rect x="186.0" y="250" width="30" height="20" />
    <polygon points="201.0,252.0 211.0,260.0 201.0,268.0 191.0,260.0" stroke="#d4af37" stroke-width="0.6" opacity="0.55" />
    <polygon points="201.0,255.0 207.0,260.0 201.0,265.0 195.0,260.0" stroke="#d4af37" stroke-width="0.4" opacity="0.55" />
    <circle cx="201" cy="260" r="1.6" fill="#d4af37" stroke="none" opacity="0.55" />
    <circle cx="186.0" cy="260" r="1.1" fill="#d4af37" stroke="none" opacity="0.55" />
    <circle cx="216.0" cy="260" r="1.1" fill="#d4af37" stroke="none" opacity="0.55" />
    <rect x="252.0" y="250" width="18" height="20" />
    <polygon points="261.0,254.0 267.0,260.0 261.0,266.0 255.0,260.0" stroke="#777777" stroke-width="0.4" />
    <circle cx="261" cy="260" r="1.2" fill="#777777" stroke="none" opacity="0.55" />
    <rect x="306.0" y="250" width="18" height="20" />
    <polygon points="315.0,254.0 321.0,260.0 315.0,266.0 309.0,260.0" stroke="#777777" stroke-width="0.4" />
    <circle cx="315" cy="260" r="1.2" fill="#777777" stroke="none" opacity="0.55" />
    <rect x="66.0" y="285" width="18" height="20" />
    <polygon points="75.0,289.0 81.0,295.0 75.0,301.0 69.0,295.0" stroke="#777777" stroke-width="0.4" />
    <circle cx="75" cy="295" r="1.2" fill="#777777" stroke="none" opacity="0.55" />
    <rect x="120.0" y="285" width="30" height="20" />
    <polygon points="135.0,287.0 145.0,295.0 135.0,303.0 125.0,295.0" stroke="#d4af37" stroke-width="0.6" opacity="0.55" />
    <polygon points="135.0,290.0 141.0,295.0 135.0,300.0 129.0,295.0" stroke="#d4af37" stroke-width="0.4" opacity="0.55" />
    <circle cx="135" cy="295" r="1.6" fill="#d4af37" stroke="none" opacity="0.55" />
    <circle cx="120.0" cy="295" r="1.1" fill="#d4af37" stroke="none" opacity="0.55" />
    <circle cx="150.0" cy="295" r="1.1" fill="#d4af37" stroke="none" opacity="0.55" />
    <rect x="186.0" y="285" width="30" height="20" />
    <polygon points="201.0,287.0 211.0,295.0 201.0,303.0 191.0,295.0" stroke="#d4af37" stroke-width="0.6" opacity="0.55" />
    <polygon points="201.0,290.0 207.0,295.0 201.0,300.0 195.0,295.0" stroke="#d4af37" stroke-width="0.4" opacity="0.55" />
    <circle cx="201" cy="295" r="1.6" fill="#d4af37" stroke="none" opacity="0.55" />
    <circle cx="186.0" cy="295" r="1.1" fill="#d4af37" stroke="none" opacity="0.55" />
    <circle cx="216.0" cy="295" r="1.1" fill="#d4af37" stroke="none" opacity="0.55" />
    <rect x="252.0" y="285" width="18" height="20" />
    <polygon points="261.0,289.0 267.0,295.0 261.0,301.0 255.0,295.0" stroke="#777777" stroke-width="0.4" />
    <circle cx="261" cy="295" r="1.2" fill="#777777" stroke="none" opacity="0.55" />
    <rect x="306.0" y="285" width="18" height="20" />
    <polygon points="315.0,289.0 321.0,295.0 315.0,301.0 309.0,295.0" stroke="#777777" stroke-width="0.4" />
    <circle cx="315" cy="295" r="1.2" fill="#777777" stroke="none" opacity="0.55" />
    <rect x="66.0" y="320" width="18" height="20" />
    <polygon points="75.0,324.0 81.0,330.0 75.0,336.0 69.0,330.0" stroke="#777777" stroke-width="0.4" />
    <circle cx="75" cy="330" r="1.2" fill="#777777" stroke="none" opacity="0.55" />
    <rect x="120.0" y="320" width="30" height="20" />
    <polygon points="135.0,322.0 145.0,330.0 135.0,338.0 125.0,330.0" stroke="#d4af37" stroke-width="0.6" opacity="0.55" />
    <polygon points="135.0,325.0 141.0,330.0 135.0,335.0 129.0,330.0" stroke="#d4af37" stroke-width="0.4" opacity="0.55" />
    <circle cx="135" cy="330" r="1.6" fill="#d4af37" stroke="none" opacity="0.55" />
    <circle cx="120.0" cy="330" r="1.1" fill="#d4af37" stroke="none" opacity="0.55" />
    <circle cx="150.0" cy="330" r="1.1" fill="#d4af37" stroke="none" opacity="0.55" />
    <rect x="186.0" y="320" width="30" height="20" />
    <polygon points="201.0,322.0 211.0,330.0 201.0,338.0 191.0,330.0" stroke="#d4af37" stroke-width="0.6" opacity="0.55" />
    <polygon points="201.0,325.0 207.0,330.0 201.0,335.0 195.0,330.0" stroke="#d4af37" stroke-width="0.4" opacity="0.55" />
    <circle cx="201" cy="330" r="1.6" fill="#d4af37" stroke="none" opacity="0.55" />
    <circle cx="186.0" cy="330" r="1.1" fill="#d4af37" stroke="none" opacity="0.55" />
    <circle cx="216.0" cy="330" r="1.1" fill="#d4af37" stroke="none" opacity="0.55" />
    <rect x="252.0" y="320" width="18" height="20" />
    <polygon points="261.0,324.0 267.0,330.0 261.0,336.0 255.0,330.0" stroke="#777777" stroke-width="0.4" />
    <circle cx="261" cy="330" r="1.2" fill="#777777" stroke="none" opacity="0.55" />
    <rect x="306.0" y="320" width="18" height="20" />
    <polygon points="315.0,324.0 321.0,330.0 315.0,336.0 309.0,330.0" stroke="#777777" stroke-width="0.4" />
    <circle cx="315" cy="330" r="1.2" fill="#777777" stroke="none" opacity="0.55" />
  </g>

  <!-- VERTICAL CONNECTOR DIAMONDS -->
  <g stroke="#777777" stroke-width="0.5" fill="none" opacity="0.45">
    <polygon points="48.0,62.0 53.0,67.0 48.0,72.0 43.0,67.0" />
    <circle cx="48" cy="67" r="1.1" fill="#777777" stroke="none" opacity="0.50" />
    <polygon points="102.0,62.0 107.0,67.0 102.0,72.0 97.0,67.0" />
    <circle cx="102" cy="67" r="1.1" fill="#777777" stroke="none" opacity="0.50" />
    <polygon points="168.0,62.0 173.0,67.0 168.0,72.0 163.0,67.0" />
    <circle cx="168" cy="67" r="1.1" fill="#777777" stroke="none" opacity="0.50" />
    <polygon points="234.0,62.0 239.0,67.0 234.0,72.0 229.0,67.0" />
    <circle cx="234" cy="67" r="1.1" fill="#777777" stroke="none" opacity="0.50" />
    <polygon points="288.0,62.0 293.0,67.0 288.0,72.0 283.0,67.0" />
    <circle cx="288" cy="67" r="1.1" fill="#777777" stroke="none" opacity="0.50" />
    <polygon points="342.0,62.0 347.0,67.0 342.0,72.0 337.0,67.0" />
    <circle cx="342" cy="67" r="1.1" fill="#777777" stroke="none" opacity="0.50" />
    <polygon points="48.0,97.0 53.0,102.0 48.0,107.0 43.0,102.0" />
    <circle cx="48" cy="102" r="1.1" fill="#777777" stroke="none" opacity="0.50" />
    <polygon points="102.0,97.0 107.0,102.0 102.0,107.0 97.0,102.0" />
    <circle cx="102" cy="102" r="1.1" fill="#777777" stroke="none" opacity="0.50" />
    <polygon points="168.0,97.0 173.0,102.0 168.0,107.0 163.0,102.0" />
    <circle cx="168" cy="102" r="1.1" fill="#777777" stroke="none" opacity="0.50" />
    <polygon points="234.0,97.0 239.0,102.0 234.0,107.0 229.0,102.0" />
    <circle cx="234" cy="102" r="1.1" fill="#777777" stroke="none" opacity="0.50" />
    <polygon points="288.0,97.0 293.0,102.0 288.0,107.0 283.0,102.0" />
    <circle cx="288" cy="102" r="1.1" fill="#777777" stroke="none" opacity="0.50" />
    <polygon points="342.0,97.0 347.0,102.0 342.0,107.0 337.0,102.0" />
    <circle cx="342" cy="102" r="1.1" fill="#777777" stroke="none" opacity="0.50" />
    <polygon points="48.0,132.0 53.0,137.0 48.0,142.0 43.0,137.0" />
    <circle cx="48" cy="137" r="1.1" fill="#777777" stroke="none" opacity="0.50" />
    <polygon points="102.0,132.0 107.0,137.0 102.0,142.0 97.0,137.0" />
    <circle cx="102" cy="137" r="1.1" fill="#777777" stroke="none" opacity="0.50" />
    <polygon points="168.0,132.0 173.0,137.0 168.0,142.0 163.0,137.0" />
    <circle cx="168" cy="137" r="1.1" fill="#777777" stroke="none" opacity="0.50" />
    <polygon points="234.0,132.0 239.0,137.0 234.0,142.0 229.0,137.0" />
    <circle cx="234" cy="137" r="1.1" fill="#777777" stroke="none" opacity="0.50" />
    <polygon points="288.0,132.0 293.0,137.0 288.0,142.0 283.0,137.0" />
    <circle cx="288" cy="137" r="1.1" fill="#777777" stroke="none" opacity="0.50" />
    <polygon points="342.0,132.0 347.0,137.0 342.0,142.0 337.0,137.0" />
    <circle cx="342" cy="137" r="1.1" fill="#777777" stroke="none" opacity="0.50" />
    <polygon points="48.0,167.0 53.0,172.0 48.0,177.0 43.0,172.0" />
    <circle cx="48" cy="172" r="1.1" fill="#777777" stroke="none" opacity="0.50" />
    <polygon points="102.0,167.0 107.0,172.0 102.0,177.0 97.0,172.0" />
    <circle cx="102" cy="172" r="1.1" fill="#777777" stroke="none" opacity="0.50" />
    <polygon points="168.0,167.0 173.0,172.0 168.0,177.0 163.0,172.0" />
    <circle cx="168" cy="172" r="1.1" fill="#777777" stroke="none" opacity="0.50" />
    <polygon points="234.0,167.0 239.0,172.0 234.0,177.0 229.0,172.0" />
    <circle cx="234" cy="172" r="1.1" fill="#777777" stroke="none" opacity="0.50" />
    <polygon points="288.0,167.0 293.0,172.0 288.0,177.0 283.0,172.0" />
    <circle cx="288" cy="172" r="1.1" fill="#777777" stroke="none" opacity="0.50" />
    <polygon points="342.0,167.0 347.0,172.0 342.0,177.0 337.0,172.0" />
    <circle cx="342" cy="172" r="1.1" fill="#777777" stroke="none" opacity="0.50" />
    <polygon points="48.0,202.0 53.0,207.0 48.0,212.0 43.0,207.0" />
    <circle cx="48" cy="207" r="1.1" fill="#777777" stroke="none" opacity="0.50" />
    <polygon points="102.0,202.0 107.0,207.0 102.0,212.0 97.0,207.0" />
    <circle cx="102" cy="207" r="1.1" fill="#777777" stroke="none" opacity="0.50" />
    <polygon points="168.0,202.0 173.0,207.0 168.0,212.0 163.0,207.0" />
    <circle cx="168" cy="207" r="1.1" fill="#777777" stroke="none" opacity="0.50" />
    <polygon points="234.0,202.0 239.0,207.0 234.0,212.0 229.0,207.0" />
    <circle cx="234" cy="207" r="1.1" fill="#777777" stroke="none" opacity="0.50" />
    <polygon points="288.0,202.0 293.0,207.0 288.0,212.0 283.0,207.0" />
    <circle cx="288" cy="207" r="1.1" fill="#777777" stroke="none" opacity="0.50" />
    <polygon points="342.0,202.0 347.0,207.0 342.0,212.0 337.0,207.0" />
    <circle cx="342" cy="207" r="1.1" fill="#777777" stroke="none" opacity="0.50" />
    <polygon points="48.0,237.0 53.0,242.0 48.0,247.0 43.0,242.0" />
    <circle cx="48" cy="242" r="1.1" fill="#777777" stroke="none" opacity="0.50" />
    <polygon points="102.0,237.0 107.0,242.0 102.0,247.0 97.0,242.0" />
    <circle cx="102" cy="242" r="1.1" fill="#777777" stroke="none" opacity="0.50" />
    <polygon points="168.0,237.0 173.0,242.0 168.0,247.0 163.0,242.0" />
    <circle cx="168" cy="242" r="1.1" fill="#777777" stroke="none" opacity="0.50" />
    <polygon points="234.0,237.0 239.0,242.0 234.0,247.0 229.0,242.0" />
    <circle cx="234" cy="242" r="1.1" fill="#777777" stroke="none" opacity="0.50" />
    <polygon points="288.0,237.0 293.0,242.0 288.0,247.0 283.0,242.0" />
    <circle cx="288" cy="242" r="1.1" fill="#777777" stroke="none" opacity="0.50" />
    <polygon points="342.0,237.0 347.0,242.0 342.0,247.0 337.0,242.0" />
    <circle cx="342" cy="242" r="1.1" fill="#777777" stroke="none" opacity="0.50" />
    <polygon points="48.0,272.0 53.0,277.0 48.0,282.0 43.0,277.0" />
    <circle cx="48" cy="277" r="1.1" fill="#777777" stroke="none" opacity="0.50" />
    <polygon points="102.0,272.0 107.0,277.0 102.0,282.0 97.0,277.0" />
    <circle cx="102" cy="277" r="1.1" fill="#777777" stroke="none" opacity="0.50" />
    <polygon points="168.0,272.0 173.0,277.0 168.0,282.0 163.0,277.0" />
    <circle cx="168" cy="277" r="1.1" fill="#777777" stroke="none" opacity="0.50" />
    <polygon points="234.0,272.0 239.0,277.0 234.0,282.0 229.0,277.0" />
    <circle cx="234" cy="277" r="1.1" fill="#777777" stroke="none" opacity="0.50" />
    <polygon points="288.0,272.0 293.0,277.0 288.0,282.0 283.0,277.0" />
    <circle cx="288" cy="277" r="1.1" fill="#777777" stroke="none" opacity="0.50" />
    <polygon points="342.0,272.0 347.0,277.0 342.0,282.0 337.0,277.0" />
    <circle cx="342" cy="277" r="1.1" fill="#777777" stroke="none" opacity="0.50" />
    <polygon points="48.0,307.0 53.0,312.0 48.0,317.0 43.0,312.0" />
    <circle cx="48" cy="312" r="1.1" fill="#777777" stroke="none" opacity="0.50" />
    <polygon points="102.0,307.0 107.0,312.0 102.0,317.0 97.0,312.0" />
    <circle cx="102" cy="312" r="1.1" fill="#777777" stroke="none" opacity="0.50" />
    <polygon points="168.0,307.0 173.0,312.0 168.0,317.0 163.0,312.0" />
    <circle cx="168" cy="312" r="1.1" fill="#777777" stroke="none" opacity="0.50" />
    <polygon points="234.0,307.0 239.0,312.0 234.0,317.0 229.0,312.0" />
    <circle cx="234" cy="312" r="1.1" fill="#777777" stroke="none" opacity="0.50" />
    <polygon points="288.0,307.0 293.0,312.0 288.0,317.0 283.0,312.0" />
    <circle cx="288" cy="312" r="1.1" fill="#777777" stroke="none" opacity="0.50" />
    <polygon points="342.0,307.0 347.0,312.0 342.0,317.0 337.0,312.0" />
    <circle cx="342" cy="312" r="1.1" fill="#777777" stroke="none" opacity="0.50" />
  </g>

  <!-- TEAL EDGE CHAIN -->
  <g fill="none" stroke="#26a69a" opacity="0.40">
    <polygon points="18.0,42.0 24.0,50.0 18.0,58.0 12.0,50.0" stroke-width="0.6" />
    <circle cx="18" cy="50" r="1.8" fill="#26a69a" stroke="none" />
    <line x1="18" y1="58" x2="18" y2="77" stroke-width="0.4" />
    <polygon points="372.0,42.0 378.0,50.0 372.0,58.0 366.0,50.0" stroke-width="0.6" />
    <circle cx="372" cy="50" r="1.8" fill="#26a69a" stroke="none" />
    <line x1="372" y1="58" x2="372" y2="77" stroke-width="0.4" />
    <polygon points="18.0,77.0 24.0,85.0 18.0,93.0 12.0,85.0" stroke-width="0.6" />
    <circle cx="18" cy="85" r="1.8" fill="#26a69a" stroke="none" />
    <line x1="18" y1="93" x2="18" y2="112" stroke-width="0.4" />
    <polygon points="372.0,77.0 378.0,85.0 372.0,93.0 366.0,85.0" stroke-width="0.6" />
    <circle cx="372" cy="85" r="1.8" fill="#26a69a" stroke="none" />
    <line x1="372" y1="93" x2="372" y2="112" stroke-width="0.4" />
    <polygon points="18.0,112.0 24.0,120.0 18.0,128.0 12.0,120.0" stroke-width="0.6" />
    <circle cx="18" cy="120" r="1.8" fill="#26a69a" stroke="none" />
    <line x1="18" y1="128" x2="18" y2="147" stroke-width="0.4" />
    <polygon points="372.0,112.0 378.0,120.0 372.0,128.0 366.0,120.0" stroke-width="0.6" />
    <circle cx="372" cy="120" r="1.8" fill="#26a69a" stroke="none" />
    <line x1="372" y1="128" x2="372" y2="147" stroke-width="0.4" />
    <polygon points="18.0,147.0 24.0,155.0 18.0,163.0 12.0,155.0" stroke-width="0.6" />
    <circle cx="18" cy="155" r="1.8" fill="#26a69a" stroke="none" />
    <line x1="18" y1="163" x2="18" y2="182" stroke-width="0.4" />
    <polygon points="372.0,147.0 378.0,155.0 372.0,163.0 366.0,155.0" stroke-width="0.6" />
    <circle cx="372" cy="155" r="1.8" fill="#26a69a" stroke="none" />
    <line x1="372" y1="163" x2="372" y2="182" stroke-width="0.4" />
    <polygon points="18.0,182.0 24.0,190.0 18.0,198.0 12.0,190.0" stroke-width="0.6" />
    <circle cx="18" cy="190" r="1.8" fill="#26a69a" stroke="none" />
    <line x1="18" y1="198" x2="18" y2="217" stroke-width="0.4" />
    <polygon points="372.0,182.0 378.0,190.0 372.0,198.0 366.0,190.0" stroke-width="0.6" />
    <circle cx="372" cy="190" r="1.8" fill="#26a69a" stroke="none" />
    <line x1="372" y1="198" x2="372" y2="217" stroke-width="0.4" />
    <polygon points="18.0,217.0 24.0,225.0 18.0,233.0 12.0,225.0" stroke-width="0.6" />
    <circle cx="18" cy="225" r="1.8" fill="#26a69a" stroke="none" />
    <line x1="18" y1="233" x2="18" y2="252" stroke-width="0.4" />
    <polygon points="372.0,217.0 378.0,225.0 372.0,233.0 366.0,225.0" stroke-width="0.6" />
    <circle cx="372" cy="225" r="1.8" fill="#26a69a" stroke="none" />
    <line x1="372" y1="233" x2="372" y2="252" stroke-width="0.4" />
    <polygon points="18.0,252.0 24.0,260.0 18.0,268.0 12.0,260.0" stroke-width="0.6" />
    <circle cx="18" cy="260" r="1.8" fill="#26a69a" stroke="none" />
    <line x1="18" y1="268" x2="18" y2="287" stroke-width="0.4" />
    <polygon points="372.0,252.0 378.0,260.0 372.0,268.0 366.0,260.0" stroke-width="0.6" />
    <circle cx="372" cy="260" r="1.8" fill="#26a69a" stroke="none" />
    <line x1="372" y1="268" x2="372" y2="287" stroke-width="0.4" />
    <polygon points="18.0,287.0 24.0,295.0 18.0,303.0 12.0,295.0" stroke-width="0.6" />
    <circle cx="18" cy="295" r="1.8" fill="#26a69a" stroke="none" />
    <line x1="18" y1="303" x2="18" y2="322" stroke-width="0.4" />
    <polygon points="372.0,287.0 378.0,295.0 372.0,303.0 366.0,295.0" stroke-width="0.6" />
    <circle cx="372" cy="295" r="1.8" fill="#26a69a" stroke="none" />
    <line x1="372" y1="303" x2="372" y2="322" stroke-width="0.4" />
    <polygon points="18.0,322.0 24.0,330.0 18.0,338.0 12.0,330.0" stroke-width="0.6" />
    <circle cx="18" cy="330" r="1.8" fill="#26a69a" stroke="none" />
    <polygon points="372.0,322.0 378.0,330.0 372.0,338.0 366.0,330.0" stroke-width="0.6" />
    <circle cx="372" cy="330" r="1.8" fill="#26a69a" stroke="none" />
  </g>

  <!-- KNOB CIRCLES -->
  <g fill="none" stroke-width="1.0">
    <g stroke="#888888">
      <circle cx="48" cy="50" r="9" />
      <circle cx="234" cy="50" r="9" />
      <circle cx="288" cy="50" r="9" />
      <circle cx="342" cy="50" r="9" />
      <circle cx="48" cy="85" r="9" />
      <circle cx="234" cy="85" r="9" />
      <circle cx="288" cy="85" r="9" />
      <circle cx="342" cy="85" r="9" />
      <circle cx="48" cy="120" r="9" />
      <circle cx="234" cy="120" r="9" />
      <circle cx="288" cy="120" r="9" />
      <circle cx="342" cy="120" r="9" />
      <circle cx="48" cy="155" r="9" />
      <circle cx="234" cy="155" r="9" />
      <circle cx="288" cy="155" r="9" />
      <circle cx="342" cy="155" r="9" />
      <circle cx="48" cy="190" r="9" />
      <circle cx="234" cy="190" r="9" />
      <circle cx="288" cy="190" r="9" />
      <circle cx="342" cy="190" r="9" />
      <circle cx="48" cy="225" r="9" />
      <circle cx="234" cy="225" r="9" />
      <circle cx="288" cy="225" r="9" />
      <circle cx="342" cy="225" r="9" />
      <circle cx="48" cy="260" r="9" />
      <circle cx="234" cy="260" r="9" />
      <circle cx="288" cy="260" r="9" />
      <circle cx="342" cy="260" r="9" />
      <circle cx="48" cy="295" r="9" />
      <circle cx="234" cy="295" r="9" />
      <circle cx="288" cy="295" r="9" />
      <circle cx="342" cy="295" r="9" />
      <circle cx="48" cy="330" r="9" />
      <circle cx="234" cy="330" r="9" />
      <circle cx="288" cy="330" r="9" />
      <circle cx="342" cy="330" r="9" />
    </g>
    <g stroke="#d4af37">
      <circle cx="102" cy="50" r="9" />
      <circle cx="168" cy="50" r="9" />
      <circle cx="102" cy="85" r="9" />
      <circle cx="168" cy="85" r="9" />
      <circle cx="102" cy="120" r="9" />
      <circle cx="168" cy="120" r="9" />
      <circle cx="102" cy="155" r="9" />
      <circle cx="168" cy="155" r="9" />
      <circle cx="102" cy="190" r="9" />
      <circle cx="168" cy="190" r="9" />
      <circle cx="102" cy="225" r="9" />
      <circle cx="168" cy="225" r="9" />
      <circle cx="102" cy="260" r="9" />
      <circle cx="168" cy="260" r="9" />
      <circle cx="102" cy="295" r="9" />
      <circle cx="168" cy="295" r="9" />
      <circle cx="102" cy="330" r="9" />
      <circle cx="168" cy="330" r="9" />
    </g>
  </g>
</svg>