<?xml version="1.0" encoding="UTF-8" standalone="no"?>
<svg xmlns="http://www.w3.org/2000/svg" viewBox="0 0 142.24 380" width="142.24mm" height="380mm">
  <defs>
    <!-- ===== MATTE KNOB GRADIENTS ===== -->
    <radialGradient id="knobAttenuMatte" cx="40%" cy="40%" r="60%">
      <stop offset="0%" style="stop-color:#686868;stop-opacity:1"/>
      <stop offset="35%" style="stop-color:#484848;stop-opacity:1"/>
      <stop offset="65%" style="stop-color:#282828;stop-opacity:1"/>
      <stop offset="100%" style="stop-color:#0a0a0a;stop-opacity:1"/>
    </radialGradient>
    
    <!-- ===== PROMINENT PERANAKAN GRID PATTERN ===== -->
    <pattern id="peranakan_integrated" patternUnits="userSpaceOnUse" width="20" height="20">
      <!-- Octagon (main element) -->
      <polygon points="10,3 17,6 17,14 10,17 3,14 3,6" 
               fill="none" stroke="#404040" stroke-width="0.4" opacity="0.55"/>
      <!-- Center circle -->
      <circle cx="10" cy="10" r="3" fill="none" stroke="#3a3a3a" stroke-width="0.3" opacity="0.45"/>
      <!-- Crossing lines -->
      <line x1="10" y1="2" x2="10" y2="18" stroke="#3a3a3a" stroke-width="0.2" opacity="0.35"/>
      <line x1="2" y1="10" x2="18" y2="10" stroke="#3a3a3a" stroke-width="0.2" opacity="0.35"/>
    </pattern>
    
    <!-- ===== HORIZONTAL GRAIN (v6 style) ===== -->
    <pattern id="grain" x="0" y="0" width="142.24" height="0.2" patternUnits="userSpaceOnUse">
      <rect width="142.24" height="0.2" fill="#1a1a1a"/>
      <rect y="0.100" width="142.24" height="0.050" fill="#2a2a2a" opacity="0.4"/>
    </pattern>
    
    <!-- ===== JACK GRADIENT ===== -->
    <radialGradient id="jackMatte" cx="40%" cy="40%" r="60%">
      <stop offset="0%" style="stop-color:#888888;stop-opacity:1"/>
      <stop offset="35%" style="stop-color:#606060;stop-opacity:1"/>
      <stop offset="70%" style="stop-color:#404040;stop-opacity:1"/>
      <stop offset="100%" style="stop-color:#1a1a1a;stop-opacity:1"/>
    </radialGradient>
  </defs>
  
  <!-- ===== BACKGROUND LAYERS ===== -->
  <rect width="142.24" height="380" fill="#1a1a1a"/>
  <!-- PROMINENT PERANAKAN PATTERN -->
  <rect width="142.24" height="380" fill="url(#peranakan_integrated)"/>
  <!-- Grain overlay -->
  <rect width="142.24" height="380" fill="url(#grain)"/>
  
  <!-- ===== PANEL BORDER ===== -->
  <rect x="0.5" y="0.5" width="141.24" height="379" fill="none" stroke="#0a0a0a" stroke-width="1"/>
  
  <!-- ===== RED LINE ACCENT (LEFT) ===== -->
  <rect x="0" y="0" width="2.5" height="380" fill="#dc2626"/>
  <rect x="0" y="0" width="2.5" height="380" fill="#ff5555" opacity="0.2"/>
  
  <!-- ===== HEADER ===== -->
  <rect x="0" y="0" width="142.24" height="16" fill="#0f0f0f"/>
  <line x1="2" y1="16" x2="140.24" y2="16" stroke="#2a2a2a" stroke-width="0.5"/>
  
  <!-- RED DOT -->
  <circle cx="10" cy="8" r="3" fill="#cc2222" stroke="#990000" stroke-width="0.2"/>
  <circle cx="8.5" cy="6.5" r="1" fill="#ff5555" opacity="0.4"/>
  
  <!-- TITLE -->
  <text x="71.12" y="13" font-size="7.5" font-family="monospace" text-anchor="middle" fill="#e4e4e7" font-weight="bold">INTERCHANGE</text>
  
  <!-- ===== COLUMN HEADERS ===== -->
  <text x="40" y="40" font-size="5" font-family="monospace" text-anchor="middle" fill="#b8860b" font-weight="bold">left</text>
  <text x="102" y="40" font-size="5" font-family="monospace" text-anchor="middle" fill="#b8860b" font-weight="bold">right</text>
  
  <text x="22" y="48" font-size="3.5" font-family="monospace" text-anchor="middle" fill="#888">jack</text>
  <text x="40" y="48" font-size="3.5" font-family="monospace" text-anchor="middle" fill="#888">atten</text>
  
  <text x="84" y="48" font-size="3.5" font-family="monospace" text-anchor="middle" fill="#888">jack</text>
  <text x="102" y="48" font-size="3.5" font-family="monospace" text-anchor="middle" fill="#888">atten</text>
  
  <!-- ===== ROW 1: C / F# ===== -->
  <text x="8" y="65" font-size="4" font-family="monospace" text-anchor="middle" fill="#666" font-weight="bold">1</text>
  <text x="8" y="72" font-size="3.5" font-family="monospace" text-anchor="middle" fill="#999">C</text>
  <g transform="translate(22, 60)">
    <circle cx="0" cy="0" r="3.5" fill="url(#jackMatte)" stroke="#0a0a0a" stroke-width="0.3"/>
    <circle cx="0" cy="0" r="2.2" fill="#0a0a0a"/>
    <circle cx="-1" cy="-1" r="0.6" fill="#555" opacity="0.3"/>
  </g>
  <g transform="translate(40, 60)">
    <circle cx="0" cy="0" r="2.5" fill="url(#knobAttenuMatte)" stroke="#0a0a0a" stroke-width="0.2"/>
    <rect x="-0.4" y="-3.2" width="0.8" height="1.2" rx="0.15" fill="#555" opacity="0.5"/>
  </g>
  
  <text x="70" y="65" font-size="4" font-family="monospace" text-anchor="middle" fill="#666" font-weight="bold">7</text>
  <text x="70" y="72" font-size="3.5" font-family="monospace" text-anchor="middle" fill="#999">F#</text>
  <g transform="translate(84, 60)">
    <circle cx="0" cy="0" r="3.5" fill="url(#jackMatte)" stroke="#0a0a0a" stroke-width="0.3"/>
    <circle cx="0" cy="0" r="2.2" fill="#0a0a0a"/>
    <circle cx="-1" cy="-1" r="0.6" fill="#555" opacity="0.3"/>
  </g>
  <g transform="translate(102, 60)">
    <circle cx="0" cy="0" r="2.5" fill="url(#knobAttenuMatte)" stroke="#0a0a0a" stroke-width="0.2"/>
    <rect x="-0.4" y="-3.2" width="0.8" height="1.2" rx="0.15" fill="#555" opacity="0.5"/>
  </g>
  
  <!-- ===== ROW 2: C# / G ===== -->
  <text x="8" y="81" font-size="4" font-family="monospace" text-anchor="middle" fill="#666" font-weight="bold">2</text>
  <text x="8" y="88" font-size="3.5" font-family="monospace" text-anchor="middle" fill="#999">C#</text>
  <circle cx="22" cy="76" r="3.5" fill="url(#jackMatte)" stroke="#0a0a0a" stroke-width="0.3"/>
  <circle cx="22" cy="76" r="2.2" fill="#0a0a0a"/>
  <circle cx="40" cy="76" r="2.5" fill="url(#knobAttenuMatte)" stroke="#0a0a0a" stroke-width="0.2"/>
  
  <text x="70" y="81" font-size="4" font-family="monospace" text-anchor="middle" fill="#666" font-weight="bold">8</text>
  <text x="70" y="88" font-size="3.5" font-family="monospace" text-anchor="middle" fill="#999">G</text>
  <circle cx="84" cy="76" r="3.5" fill="url(#jackMatte)" stroke="#0a0a0a" stroke-width="0.3"/>
  <circle cx="84" cy="76" r="2.2" fill="#0a0a0a"/>
  <circle cx="102" cy="76" r="2.5" fill="url(#knobAttenuMatte)" stroke="#0a0a0a" stroke-width="0.2"/>
  
  <!-- ===== ROW 3: D / G# ===== -->
  <text x="8" y="97" font-size="4" font-family="monospace" text-anchor="middle" fill="#666" font-weight="bold">3</text>
  <text x="8" y="104" font-size="3.5" font-family="monospace" text-anchor="middle" fill="#999">D</text>
  <circle cx="22" cy="92" r="3.5" fill="url(#jackMatte)" stroke="#0a0a0a" stroke-width="0.3"/>
  <circle cx="22" cy="92" r="2.2" fill="#0a0a0a"/>
  <circle cx="40" cy="92" r="2.5" fill="url(#knobAttenuMatte)" stroke="#0a0a0a" stroke-width="0.2"/>
  
  <text x="70" y="97" font-size="4" font-family="monospace" text-anchor="middle" fill="#666" font-weight="bold">9</text>
  <text x="70" y="104" font-size="3.5" font-family="monospace" text-anchor="middle" fill="#999">G#</text>
  <circle cx="84" cy="92" r="3.5" fill="url(#jackMatte)" stroke="#0a0a0a" stroke-width="0.3"/>
  <circle cx="84" cy="92" r="2.2" fill="#0a0a0a"/>
  <circle cx="102" cy="92" r="2.5" fill="url(#knobAttenuMatte)" stroke="#0a0a0a" stroke-width="0.2"/>
  
  <!-- ===== ROW 4: D# / A ===== -->
  <text x="8" y="113" font-size="4" font-family="monospace" text-anchor="middle" fill="#666" font-weight="bold">4</text>
  <text x="8" y="120" font-size="3.5" font-family="monospace" text-anchor="middle" fill="#999">D#</text>
  <circle cx="22" cy="108" r="3.5" fill="url(#jackMatte)" stroke="#0a0a0a" stroke-width="0.3"/>
  <circle cx="22" cy="108" r="2.2" fill="#0a0a0a"/>
  <circle cx="40" cy="108" r="2.5" fill="url(#knobAttenuMatte)" stroke="#0a0a0a" stroke-width="0.2"/>
  
  <text x="70" y="113" font-size="4" font-family="monospace" text-anchor="middle" fill="#666" font-weight="bold">10</text>
  <text x="70" y="120" font-size="3.5" font-family="monospace" text-anchor="middle" fill="#999">A</text>
  <circle cx="84" cy="108" r="3.5" fill="url(#jackMatte)" stroke="#0a0a0a" stroke-width="0.3"/>
  <circle cx="84" cy="108" r="2.2" fill="#0a0a0a"/>
  <circle cx="102" cy="108" r="2.5" fill="url(#knobAttenuMatte)" stroke="#0a0a0a" stroke-width="0.2"/>
  
  <!-- ===== ROW 5: E / A# ===== -->
  <text x="8" y="129" font-size="4" font-family="monospace" text-anchor="middle" fill="#666" font-weight="bold">5</text>
  <text x="8" y="136" font-size="3.5" font-family="monospace" text-anchor="middle" fill="#999">E</text>
  <circle cx="22" cy="124" r="3.5" fill="url(#jackMatte)" stroke="#0a0a0a" stroke-width="0.3"/>
  <circle cx="22" cy="124" r="2.2" fill="#0a0a0a"/>
  <circle cx="40" cy="124" r="2.5" fill="url(#knobAttenuMatte)" stroke="#0a0a0a" stroke-width="0.2"/>
  
  <text x="70" y="129" font-size="4" font-family="monospace" text-anchor="middle" fill="#666" font-weight="bold">11</text>
  <text x="70" y="136" font-size="3.5" font-family="monospace" text-anchor="middle" fill="#999">A#</text>
  <circle cx="84" cy="124" r="3.5" fill="url(#jackMatte)" stroke="#0a0a0a" stroke-width="0.3"/>
  <circle cx="84" cy="124" r="2.2" fill="#0a0a0a"/>
  <circle cx="102" cy="124" r="2.5" fill="url(#knobAttenuMatte)" stroke="#0a0a0a" stroke-width="0.2"/>
  
  <!-- ===== ROW 6: F / B ===== -->
  <text x="8" y="145" font-size="4" font-family="monospace" text-anchor="middle" fill="#666" font-weight="bold">6</text>
  <text x="8" y="152" font-size="3.5" font-family="monospace" text-anchor="middle" fill="#999">F</text>
  <circle cx="22" cy="140" r="3.5" fill="url(#jackMatte)" stroke="#0a0a0a" stroke-width="0.3"/>
  <circle cx="22" cy="140" r="2.2" fill="#0a0a0a"/>
  <circle cx="40" cy="140" r="2.5" fill="url(#knobAttenuMatte)" stroke="#0a0a0a" stroke-width="0.2"/>
  
  <text x="70" y="145" font-size="4" font-family="monospace" text-anchor="middle" fill="#666" font-weight="bold">12</text>
  <text x="70" y="152" font-size="3.5" font-family="monospace" text-anchor="middle" fill="#999">B</text>
  <circle cx="84" cy="140" r="3.5" fill="url(#jackMatte)" stroke="#0a0a0a" stroke-width="0.3"/>
  <circle cx="84" cy="140" r="2.2" fill="#0a0a0a"/>
  <circle cx="102" cy="140" r="2.5" fill="url(#knobAttenuMatte)" stroke="#0a0a0a" stroke-width="0.2"/>
  
  <!-- ===== ROW 7: OCTAVE LO / OCTAVE HI ===== -->
  <line x1="2" y1="165" x2="140.24" y2="165" stroke="#2a2a2a" stroke-width="0.5"/>
  
  <text x="8" y="185" font-size="3.5" font-family="monospace" text-anchor="middle" fill="#888" font-weight="bold">OCT</text>
  <text x="8" y="195" font-size="3.5" font-family="monospace" text-anchor="middle" fill="#888" font-weight="bold">LO</text>
  <g transform="translate(22, 180)">
    <circle cx="0" cy="0" r="3.5" fill="url(#jackMatte)" stroke="#0a0a0a" stroke-width="0.3"/>
    <circle cx="0" cy="0" r="2.2" fill="#0a0a0a"/>
    <circle cx="-1" cy="-1" r="0.6" fill="#555" opacity="0.3"/>
  </g>
  <g transform="translate(40, 180)">
    <circle cx="0" cy="0" r="2.5" fill="url(#knobAttenuMatte)" stroke="#0a0a0a" stroke-width="0.2"/>
    <rect x="-0.4" y="-3.2" width="0.8" height="1.2" rx="0.15" fill="#555" opacity="0.5"/>
  </g>
  
  <text x="70" y="185" font-size="3.5" font-family="monospace" text-anchor="middle" fill="#888" font-weight="bold">OCT</text>
  <text x="70" y="195" font-size="3.5" font-family="monospace" text-anchor="middle" fill="#888" font-weight="bold">HI</text>
  <g transform="translate(84, 180)">
    <circle cx="0" cy="0" r="3.5" fill="url(#jackMatte)" stroke="#0a0a0a" stroke-width="0.3"/>
    <circle cx="0" cy="0" r="2.2" fill="#0a0a0a"/>
    <circle cx="-1" cy="-1" r="0.6" fill="#555" opacity="0.3"/>
  </g>
  <g transform="translate(102, 180)">
    <circle cx="0" cy="0" r="2.5" fill="url(#knobAttenuMatte)" stroke="#0a0a0a" stroke-width="0.2"/>
    <rect x="-0.4" y="-3.2" width="0.8" height="1.2" rx="0.15" fill="#555" opacity="0.5"/>
  </g>
  
</svg>
