<?xml version="1.0" encoding="UTF-8" standalone="no"?>
<svg xmlns="http://www.w3.org/2000/svg" width="270" height="380" viewBox="0 0 270 380">
  <defs>
    <!-- ===== GRAIN PATTERN (MeloDicer v6 style) ===== -->
    <pattern id="grain" x="0" y="0" width="270" height="0.2" patternUnits="userSpaceOnUse">
      <!-- Base dark rect -->
      <rect width="270" height="0.2" fill="#141416"/>
      <!-- Lighter scan line stripe -->
      <rect y="0.110" width="270" height="0.050" fill="#1a1a1a" opacity="0.35"/>
    </pattern>
  </defs>
  
  <!-- Background -->
  <rect width="270" height="380" fill="#141416" />
  
  <!-- GRAIN OVERLAY (scan lines) -->
  <rect width="270" height="380" fill="url(#grain)" />
  
  <!-- ===== PERANAKAN GRID PATTERN ===== -->
  <g stroke="#555555" stroke-width="0.6" fill="none" opacity="0.25">
    <!-- Vertical lines (edges and column dividers) -->
    <path d="M18,0 L18,380 M252,0 L252,380" />
    
    <!-- Vertical dashes (jack positions) -->
    <path d="M48,66 L48,70 M222,66 L222,70 M102,66 L102,70 M168,66 L168,70
             M48,101 L48,105 M222,101 L222,105 M102,101 L102,105 M168,101 L168,105
             M48,136 L48,140 M222,136 L222,140 M102,136 L102,140 M168,136 L168,140
             M48,171 L48,175 M222,171 L222,175 M102,171 L102,175 M168,171 L168,175
             M48,206 L48,210 M222,206 L222,210 M102,206 L102,210 M168,206 L168,210
             M48,241 L48,245 M222,241 L222,245 M102,241 L102,245 M168,241 L168,245
             M48,276 L48,280 M222,276 L222,280 M102,276 L102,280 M168,276 L168,280
             M48,311 L48,315 M222,311 L222,315 M102,311 L102,315 M168,311 L168,315" />
    
    <!-- Horizontal dashes (attenuverter positions) -->
    <path d="M66,40 L84,40 M66,60 L84,60 M186,40 L204,40 M186,60 L204,60
             M66,75 L84,75 M66,95 L84,95 M186,75 L204,75 M186,95 L204,95
             M66,110 L84,110 M66,130 L84,130 M186,110 L204,110 M186,130 L204,130
             M66,145 L84,145 M66,165 L84,165 M186,145 L204,145 M186,165 L204,165
             M66,180 L84,180 M66,200 L84,200 M186,180 L204,180 M186,200 L204,200
             M66,215 L84,215 M66,235 L84,235 M186,215 L204,215 M186,235 L204,235
             M66,250 L84,250 M66,270 L84,270 M186,250 L204,250 M186,270 L204,270
             M66,285 L84,285 M66,305 L84,305 M186,285 L204,285 M186,305 L204,305
             M66,320 L84,320 M66,340 L84,340 M186,320 L204,320 M186,340 L204,340" />
    
    <!-- Octagon polygons (peranakan pattern) -->
    <g id="polygons">
      <path d="M48,34 L66,40 L66,60 L48,66 L30,60 L30,40Z M102,34 L120,40 L120,60 L102,66 L84,60 L84,40Z M168,34 L186,40 L186,60 L168,66 L150,60 L150,40Z M222,34 L240,40 L240,60 L222,66 L204,60 L204,40Z M120,40h30v20h-30Z" />
      <path d="M48,69 L66,75 L66,95 L48,101 L30,95 L30,75Z M102,69 L120,75 L120,95 L102,101 L84,95 L84,75Z M168,69 L186,75 L186,95 L168,101 L150,95 L150,75Z M222,69 L240,75 L240,95 L222,101 L204,95 L204,75Z M120,75h30v20h-30Z" />
      <path d="M48,104 L66,110 L66,130 L48,136 L30,130 L30,110Z M102,104 L120,110 L120,130 L102,136 L84,130 L84,110Z M168,104 L186,110 L186,130 L168,136 L150,130 L150,110Z M222,104 L240,110 L240,130 L222,136 L204,130 L204,110Z M120,110h30v20h-30Z" />
      <path d="M48,139 L66,145 L66,165 L48,171 L30,165 L30,145Z M102,139 L120,145 L120,165 L102,171 L84,165 L84,145Z M168,139 L186,145 L186,165 L168,171 L150,165 L150,145Z M222,139 L240,145 L240,165 L222,171 L204,165 L204,145Z M120,145h30v20h-30Z" />
      <path d="M48,174 L66,180 L66,200 L48,206 L30,200 L30,180Z M102,174 L120,180 L120,200 L102,206 L84,200 L84,180Z M168,174 L186,180 L186,200 L168,206 L150,200 L150,180Z M222,174 L240,180 L240,200 L222,206 L204,200 L204,180Z M120,180h30v20h-30Z" />
      <path d="M48,209 L66,215 L66,235 L48,241 L30,235 L30,215Z M102,209 L120,215 L120,235 L102,241 L84,235 L84,215Z M168,209 L186,215 L186,235 L168,241 L150,235 L150,215Z M222,209 L240,215 L240,235 L222,241 L204,235 L204,215Z M120,215h30v20h-30Z" />
      <path d="M48,244 L66,250 L66,270 L48,276 L30,270 L30,250Z M102,244 L120,250 L120,270 L102,276 L84,270 L84,250Z M168,244 L186,250 L186,270 L168,276 L150,270 L150,250Z M222,244 L240,250 L240,270 L222,276 L204,270 L204,250Z M120,250h30v20h-30Z" />
      <path d="M48,279 L66,285 L66,305 L48,311 L30,305 L30,285Z M102,279 L120,285 L120,305 L102,311 L84,305 L84,285Z M168,279 L186,285 L186,305 L168,311 L150,305 L150,285Z M222,279 L240,285 L240,305 L222,311 L204,305 L204,285Z M120,285h30v20h-30Z" />
      <path d="M48,314 L66,320 L66,340 L48,346 L30,340 L30,320Z M102,314 L120,320 L120,340 L102,346 L84,340 L84,320Z M168,314 L186,320 L186,340 L168,346 L150,340 L150,320Z M222,314 L240,320 L240,340 L222,346 L204,340 L204,320Z M120,320h30v20h-30Z" />
    </g>
  </g>
  
  <!-- ===== COMPONENT PLACEHOLDERS (Jacks & Attenuverters) ===== -->
  <g fill="none" stroke-width="1.0">
    <!-- Jacks (gray) -->
    <g stroke="#888888">
      <circle cx="48" cy="50" r="9.0" />
      <circle cx="222" cy="50" r="9.0" />
      <circle cx="48" cy="85" r="9.0" />
      <circle cx="222" cy="85" r="9.0" />
      <circle cx="48" cy="120" r="9.0" />
      <circle cx="222" cy="120" r="9.0" />
      <circle cx="48" cy="155" r="9.0" />
      <circle cx="222" cy="155" r="9.0" />
      <circle cx="48" cy="190" r="9.0" />
      <circle cx="222" cy="190" r="9.0" />
      <circle cx="48" cy="225" r="9.0" />
      <circle cx="222" cy="225" r="9.0" />
      <circle cx="48" cy="260" r="9.0" />
      <circle cx="222" cy="260" r="9.0" />
      <circle cx="48" cy="295" r="9.0" />
      <circle cx="222" cy="295" r="9.0" />
      <circle cx="48" cy="330" r="9.0" />
      <circle cx="222" cy="330" r="9.0" />
    </g>
    
    <!-- Attenuverters (gold) -->
    <g stroke="#d4af37">
      <circle cx="102" cy="50" r="9.0" />
      <circle cx="168" cy="50" r="9.0" />
      <circle cx="102" cy="85" r="9.0" />
      <circle cx="168" cy="85" r="9.0" />
      <circle cx="102" cy="120" r="9.0" />
      <circle cx="168" cy="120" r="9.0" />
      <circle cx="102" cy="155" r="9.0" />
      <circle cx="168" cy="155" r="9.0" />
      <circle cx="102" cy="190" r="9.0" />
      <circle cx="168" cy="190" r="9.0" />
      <circle cx="102" cy="225" r="9.0" />
      <circle cx="168" cy="225" r="9.0" />
      <circle cx="102" cy="260" r="9.0" />
      <circle cx="168" cy="260" r="9.0" />
      <circle cx="102" cy="295" r="9.0" />
      <circle cx="168" cy="295" r="9.0" />
      <circle cx="102" cy="330" r="9.0" />
      <circle cx="168" cy="330" r="9.0" />
    </g>
  </g>
</svg>
