<svg xmlns="http://www.w3.org/2000/svg" width="270" height="380" viewBox="0 0 270 380">
  <defs>
    <!-- Grain texture: horizontal scan lines, brushed metal effect -->
    <pattern id="grain" x="0" y="0" width="270" height="0.5" patternUnits="userSpaceOnUse">
      <rect width="270" height="0.5" fill="#dcdcdc"/>
      <rect y="0.25" width="270" height="0.12" fill="#c4c4c4" opacity="0.40"/>
    </pattern>
    <radialGradient id="hexGlow" cx="50%" cy="50%" r="50%">
      <stop offset="0%"   stop-color="#b07d00" stop-opacity="0.30"/>
      <stop offset="60%"  stop-color="#b07d00" stop-opacity="0.04"/>
      <stop offset="100%" stop-color="#b07d00" stop-opacity="0.0"/>
    </radialGradient>
    <radialGradient id="hexGlowCool" cx="50%" cy="50%" r="50%">
      <stop offset="0%"   stop-color="#d4001a" stop-opacity="0.26"/>
      <stop offset="60%"  stop-color="#d4001a" stop-opacity="0.03"/>
      <stop offset="100%" stop-color="#d4001a" stop-opacity="0.0"/>
    </radialGradient>
  </defs>

  <rect width="270" height="380" fill="#dcdcdc" />

  <g stroke="#1c1c1c" stroke-width="0.6" fill="none" opacity="0.30">
    <path d="M18,0 L18,380 M252,0 L252,380" />
  </g>

  <!-- Hex fills: subtle radial glow inside each outer hex -->
  <g opacity="1.0">
    <polygon points="48,64 66,70 66,90 48,96 30,90 30,70" fill="url(#hexGlowCool)" stroke="none" />
    <polygon points="102,64 120,70 120,90 102,96 84,90 84,70" fill="url(#hexGlow)" stroke="none" />
    <polygon points="168,64 186,70 186,90 168,96 150,90 150,70" fill="url(#hexGlow)" stroke="none" />
    <polygon points="222,64 240,70 240,90 222,96 204,90 204,70" fill="url(#hexGlowCool)" stroke="none" />
    <polygon points="48,104 66,110 66,130 48,136 30,130 30,110" fill="url(#hexGlowCool)" stroke="none" />
    <polygon points="102,104 120,110 120,130 102,136 84,130 84,110" fill="url(#hexGlow)" stroke="none" />
    <polygon points="168,104 186,110 186,130 168,136 150,130 150,110" fill="url(#hexGlow)" stroke="none" />
    <polygon points="222,104 240,110 240,130 222,136 204,130 204,110" fill="url(#hexGlowCool)" stroke="none" />
    <polygon points="48,144 66,150 66,170 48,176 30,170 30,150" fill="url(#hexGlowCool)" stroke="none" />
    <polygon points="102,144 120,150 120,170 102,176 84,170 84,150" fill="url(#hexGlow)" stroke="none" />
    <polygon points="168,144 186,150 186,170 168,176 150,170 150,150" fill="url(#hexGlow)" stroke="none" />
    <polygon points="222,144 240,150 240,170 222,176 204,170 204,150" fill="url(#hexGlowCool)" stroke="none" />
    <polygon points="48,184 66,190 66,210 48,216 30,210 30,190" fill="url(#hexGlowCool)" stroke="none" />
    <polygon points="102,184 120,190 120,210 102,216 84,210 84,190" fill="url(#hexGlow)" stroke="none" />
    <polygon points="168,184 186,190 186,210 168,216 150,210 150,190" fill="url(#hexGlow)" stroke="none" />
    <polygon points="222,184 240,190 240,210 222,216 204,210 204,190" fill="url(#hexGlowCool)" stroke="none" />
    <polygon points="48,224 66,230 66,250 48,256 30,250 30,230" fill="url(#hexGlowCool)" stroke="none" />
    <polygon points="102,224 120,230 120,250 102,256 84,250 84,230" fill="url(#hexGlow)" stroke="none" />
    <polygon points="168,224 186,230 186,250 168,256 150,250 150,230" fill="url(#hexGlow)" stroke="none" />
    <polygon points="222,224 240,230 240,250 222,256 204,250 204,230" fill="url(#hexGlowCool)" stroke="none" />
    <polygon points="48,264 66,270 66,290 48,296 30,290 30,270" fill="url(#hexGlowCool)" stroke="none" />
    <polygon points="102,264 120,270 120,290 102,296 84,290 84,270" fill="url(#hexGlow)" stroke="none" />
    <polygon points="168,264 186,270 186,290 168,296 150,290 150,270" fill="url(#hexGlow)" stroke="none" />
    <polygon points="222,264 240,270 240,290 222,296 204,290 204,270" fill="url(#hexGlowCool)" stroke="none" />
    <polygon points="48,304 66,310 66,330 48,336 30,330 30,310" fill="url(#hexGlowCool)" stroke="none" />
    <polygon points="102,304 120,310 120,330 102,336 84,330 84,310" fill="url(#hexGlow)" stroke="none" />
    <polygon points="168,304 186,310 186,330 168,336 150,330 150,310" fill="url(#hexGlow)" stroke="none" />
    <polygon points="222,304 240,310 240,330 222,336 204,330 204,310" fill="url(#hexGlowCool)" stroke="none" />
  </g>

  <!-- OUTER HEXAGONS - main peranakan structure -->
  <g stroke="#242424" stroke-width="0.8" fill="none" opacity="0.55">
    <polygon points="48,64 66,70 66,90 48,96 30,90 30,70" />
    <polygon points="102,64 120,70 120,90 102,96 84,90 84,70" />
    <polygon points="168,64 186,70 186,90 168,96 150,90 150,70" />
    <polygon points="222,64 240,70 240,90 222,96 204,90 204,70" />
    <polygon points="48,104 66,110 66,130 48,136 30,130 30,110" />
    <polygon points="102,104 120,110 120,130 102,136 84,130 84,110" />
    <polygon points="168,104 186,110 186,130 168,136 150,130 150,110" />
    <polygon points="222,104 240,110 240,130 222,136 204,130 204,110" />
    <polygon points="48,144 66,150 66,170 48,176 30,170 30,150" />
    <polygon points="102,144 120,150 120,170 102,176 84,170 84,150" />
    <polygon points="168,144 186,150 186,170 168,176 150,170 150,150" />
    <polygon points="222,144 240,150 240,170 222,176 204,170 204,150" />
    <polygon points="48,184 66,190 66,210 48,216 30,210 30,190" />
    <polygon points="102,184 120,190 120,210 102,216 84,210 84,190" />
    <polygon points="168,184 186,190 186,210 168,216 150,210 150,190" />
    <polygon points="222,184 240,190 240,210 222,216 204,210 204,190" />
    <polygon points="48,224 66,230 66,250 48,256 30,250 30,230" />
    <polygon points="102,224 120,230 120,250 102,256 84,250 84,230" />
    <polygon points="168,224 186,230 186,250 168,256 150,250 150,230" />
    <polygon points="222,224 240,230 240,250 222,256 204,250 204,230" />
    <polygon points="48,264 66,270 66,290 48,296 30,290 30,270" />
    <polygon points="102,264 120,270 120,290 102,296 84,290 84,270" />
    <polygon points="168,264 186,270 186,290 168,296 150,290 150,270" />
    <polygon points="222,264 240,270 240,290 222,296 204,290 204,270" />
    <polygon points="48,304 66,310 66,330 48,336 30,330 30,310" />
    <polygon points="102,304 120,310 120,330 102,336 84,330 84,310" />
    <polygon points="168,304 186,310 186,330 168,336 150,330 150,310" />
    <polygon points="222,304 240,310 240,330 222,336 204,330 204,310" />
  </g>

  <!-- MID HEXAGONS - intermediate ring -->
  <g stroke="#1c1c1c" stroke-width="0.5" fill="none" opacity="0.40">
    <polygon points="48,66 64,72 64,88 48,94 32,88 32,72" />
    <polygon points="102,66 118,72 118,88 102,94 86,88 86,72" />
    <polygon points="168,66 184,72 184,88 168,94 152,88 152,72" />
    <polygon points="222,66 238,72 238,88 222,94 206,88 206,72" />
    <polygon points="48,106 64,112 64,128 48,134 32,128 32,112" />
    <polygon points="102,106 118,112 118,128 102,134 86,128 86,112" />
    <polygon points="168,106 184,112 184,128 168,134 152,128 152,112" />
    <polygon points="222,106 238,112 238,128 222,134 206,128 206,112" />
    <polygon points="48,146 64,152 64,168 48,174 32,168 32,152" />
    <polygon points="102,146 118,152 118,168 102,174 86,168 86,152" />
    <polygon points="168,146 184,152 184,168 168,174 152,168 152,152" />
    <polygon points="222,146 238,152 238,168 222,174 206,168 206,152" />
    <polygon points="48,186 64,192 64,208 48,214 32,208 32,192" />
    <polygon points="102,186 118,192 118,208 102,214 86,208 86,192" />
    <polygon points="168,186 184,192 184,208 168,214 152,208 152,192" />
    <polygon points="222,186 238,192 238,208 222,214 206,208 206,192" />
    <polygon points="48,226 64,232 64,248 48,254 32,248 32,232" />
    <polygon points="102,226 118,232 118,248 102,254 86,248 86,232" />
    <polygon points="168,226 184,232 184,248 168,254 152,248 152,232" />
    <polygon points="222,226 238,232 238,248 222,254 206,248 206,232" />
    <polygon points="48,266 64,272 64,288 48,294 32,288 32,272" />
    <polygon points="102,266 118,272 118,288 102,294 86,288 86,272" />
    <polygon points="168,266 184,272 184,288 168,294 152,288 152,272" />
    <polygon points="222,266 238,272 238,288 222,294 206,288 206,272" />
    <polygon points="48,306 64,312 64,328 48,334 32,328 32,312" />
    <polygon points="102,306 118,312 118,328 102,334 86,328 86,312" />
    <polygon points="168,306 184,312 184,328 168,334 152,328 152,312" />
    <polygon points="222,306 238,312 238,328 222,334 206,328 206,312" />
  </g>

  <!-- INNER HEXAGONS -->
  <g stroke="#333333" stroke-width="0.5" fill="none" opacity="0.45">
    <polygon points="48,69 60,74 60,86 48,91 36,86 36,74" />
    <polygon points="102,69 114,74 114,86 102,91 90,86 90,74" />
    <polygon points="168,69 180,74 180,86 168,91 156,86 156,74" />
    <polygon points="222,69 234,74 234,86 222,91 210,86 210,74" />
    <polygon points="48,109 60,114 60,126 48,131 36,126 36,114" />
    <polygon points="102,109 114,114 114,126 102,131 90,126 90,114" />
    <polygon points="168,109 180,114 180,126 168,131 156,126 156,114" />
    <polygon points="222,109 234,114 234,126 222,131 210,126 210,114" />
    <polygon points="48,149 60,154 60,166 48,171 36,166 36,154" />
    <polygon points="102,149 114,154 114,166 102,171 90,166 90,154" />
    <polygon points="168,149 180,154 180,166 168,171 156,166 156,154" />
    <polygon points="222,149 234,154 234,166 222,171 210,166 210,154" />
    <polygon points="48,189 60,194 60,206 48,211 36,206 36,194" />
    <polygon points="102,189 114,194 114,206 102,211 90,206 90,194" />
    <polygon points="168,189 180,194 180,206 168,211 156,206 156,194" />
    <polygon points="222,189 234,194 234,206 222,211 210,206 210,194" />
    <polygon points="48,229 60,234 60,246 48,251 36,246 36,234" />
    <polygon points="102,229 114,234 114,246 102,251 90,246 90,234" />
    <polygon points="168,229 180,234 180,246 168,251 156,246 156,234" />
    <polygon points="222,229 234,234 234,246 222,251 210,246 210,234" />
    <polygon points="48,269 60,274 60,286 48,291 36,286 36,274" />
    <polygon points="102,269 114,274 114,286 102,291 90,286 90,274" />
    <polygon points="168,269 180,274 180,286 168,291 156,286 156,274" />
    <polygon points="222,269 234,274 234,286 222,291 210,286 210,274" />
    <polygon points="48,309 60,314 60,326 48,331 36,326 36,314" />
    <polygon points="102,309 114,314 114,326 102,331 90,326 90,314" />
    <polygon points="168,309 180,314 180,326 168,331 156,326 156,314" />
    <polygon points="222,309 234,314 234,326 222,331 210,326 210,314" />
  </g>

  <!-- SPOKES: inner to outer -->
  <g stroke="#3a3a3a" stroke-width="0.5" fill="none" opacity="0.35">
    <path d="M48,69 L48,64 M60,74 L66,70 M60,86 L66,90 M48,91 L48,96 M36,86 L30,90 M36,74 L30,70" />
    <path d="M102,69 L102,64 M114,74 L120,70 M114,86 L120,90 M102,91 L102,96 M90,86 L84,90 M90,74 L84,70" />
    <path d="M168,69 L168,64 M180,74 L186,70 M180,86 L186,90 M168,91 L168,96 M156,86 L150,90 M156,74 L150,70" />
    <path d="M222,69 L222,64 M234,74 L240,70 M234,86 L240,90 M222,91 L222,96 M210,86 L204,90 M210,74 L204,70" />
    <path d="M48,109 L48,104 M60,114 L66,110 M60,126 L66,130 M48,131 L48,136 M36,126 L30,130 M36,114 L30,110" />
    <path d="M102,109 L102,104 M114,114 L120,110 M114,126 L120,130 M102,131 L102,136 M90,126 L84,130 M90,114 L84,110" />
    <path d="M168,109 L168,104 M180,114 L186,110 M180,126 L186,130 M168,131 L168,136 M156,126 L150,130 M156,114 L150,110" />
    <path d="M222,109 L222,104 M234,114 L240,110 M234,126 L240,130 M222,131 L222,136 M210,126 L204,130 M210,114 L204,110" />
    <path d="M48,149 L48,144 M60,154 L66,150 M60,166 L66,170 M48,171 L48,176 M36,166 L30,170 M36,154 L30,150" />
    <path d="M102,149 L102,144 M114,154 L120,150 M114,166 L120,170 M102,171 L102,176 M90,166 L84,170 M90,154 L84,150" />
    <path d="M168,149 L168,144 M180,154 L186,150 M180,166 L186,170 M168,171 L168,176 M156,166 L150,170 M156,154 L150,150" />
    <path d="M222,149 L222,144 M234,154 L240,150 M234,166 L240,170 M222,171 L222,176 M210,166 L204,170 M210,154 L204,150" />
    <path d="M48,189 L48,184 M60,194 L66,190 M60,206 L66,210 M48,211 L48,216 M36,206 L30,210 M36,194 L30,190" />
    <path d="M102,189 L102,184 M114,194 L120,190 M114,206 L120,210 M102,211 L102,216 M90,206 L84,210 M90,194 L84,190" />
    <path d="M168,189 L168,184 M180,194 L186,190 M180,206 L186,210 M168,211 L168,216 M156,206 L150,210 M156,194 L150,190" />
    <path d="M222,189 L222,184 M234,194 L240,190 M234,206 L240,210 M222,211 L222,216 M210,206 L204,210 M210,194 L204,190" />
    <path d="M48,229 L48,224 M60,234 L66,230 M60,246 L66,250 M48,251 L48,256 M36,246 L30,250 M36,234 L30,230" />
    <path d="M102,229 L102,224 M114,234 L120,230 M114,246 L120,250 M102,251 L102,256 M90,246 L84,250 M90,234 L84,230" />
    <path d="M168,229 L168,224 M180,234 L186,230 M180,246 L186,250 M168,251 L168,256 M156,246 L150,250 M156,234 L150,230" />
    <path d="M222,229 L222,224 M234,234 L240,230 M234,246 L240,250 M222,251 L222,256 M210,246 L204,250 M210,234 L204,230" />
    <path d="M48,269 L48,264 M60,274 L66,270 M60,286 L66,290 M48,291 L48,296 M36,286 L30,290 M36,274 L30,270" />
    <path d="M102,269 L102,264 M114,274 L120,270 M114,286 L120,290 M102,291 L102,296 M90,286 L84,290 M90,274 L84,270" />
    <path d="M168,269 L168,264 M180,274 L186,270 M180,286 L186,290 M168,291 L168,296 M156,286 L150,290 M156,274 L150,270" />
    <path d="M222,269 L222,264 M234,274 L240,270 M234,286 L240,290 M222,291 L222,296 M210,286 L204,290 M210,274 L204,270" />
    <path d="M48,309 L48,304 M60,314 L66,310 M60,326 L66,330 M48,331 L48,336 M36,326 L30,330 M36,314 L30,310" />
    <path d="M102,309 L102,304 M114,314 L120,310 M114,326 L120,330 M102,331 L102,336 M90,326 L84,330 M90,314 L84,310" />
    <path d="M168,309 L168,304 M180,314 L186,310 M180,326 L186,330 M168,331 L168,336 M156,326 L150,330 M156,314 L150,310" />
    <path d="M222,309 L222,304 M234,314 L240,310 M234,326 L240,330 M222,331 L222,336 M210,326 L204,330 M210,314 L204,310" />
  </g>

  <!-- GOLD VERTEX DOTS at inner hex corners -->
  <g fill="#b07d00" opacity="0.55">
    <circle cx="48" cy="69" r="1.5" />
    <circle cx="60" cy="74" r="1.5" />
    <circle cx="60" cy="86" r="1.5" />
    <circle cx="48" cy="91" r="1.5" />
    <circle cx="36" cy="86" r="1.5" />
    <circle cx="36" cy="74" r="1.5" />
    <circle cx="102" cy="69" r="1.5" />
    <circle cx="114" cy="74" r="1.5" />
    <circle cx="114" cy="86" r="1.5" />
    <circle cx="102" cy="91" r="1.5" />
    <circle cx="90" cy="86" r="1.5" />
    <circle cx="90" cy="74" r="1.5" />
    <circle cx="168" cy="69" r="1.5" />
    <circle cx="180" cy="74" r="1.5" />
    <circle cx="180" cy="86" r="1.5" />
    <circle cx="168" cy="91" r="1.5" />
    <circle cx="156" cy="86" r="1.5" />
    <circle cx="156" cy="74" r="1.5" />
    <circle cx="222" cy="69" r="1.5" />
    <circle cx="234" cy="74" r="1.5" />
    <circle cx="234" cy="86" r="1.5" />
    <circle cx="222" cy="91" r="1.5" />
    <circle cx="210" cy="86" r="1.5" />
    <circle cx="210" cy="74" r="1.5" />
    <circle cx="48" cy="109" r="1.5" />
    <circle cx="60" cy="114" r="1.5" />
    <circle cx="60" cy="126" r="1.5" />
    <circle cx="48" cy="131" r="1.5" />
    <circle cx="36" cy="126" r="1.5" />
    <circle cx="36" cy="114" r="1.5" />
    <circle cx="102" cy="109" r="1.5" />
    <circle cx="114" cy="114" r="1.5" />
    <circle cx="114" cy="126" r="1.5" />
    <circle cx="102" cy="131" r="1.5" />
    <circle cx="90" cy="126" r="1.5" />
    <circle cx="90" cy="114" r="1.5" />
    <circle cx="168" cy="109" r="1.5" />
    <circle cx="180" cy="114" r="1.5" />
    <circle cx="180" cy="126" r="1.5" />
    <circle cx="168" cy="131" r="1.5" />
    <circle cx="156" cy="126" r="1.5" />
    <circle cx="156" cy="114" r="1.5" />
    <circle cx="222" cy="109" r="1.5" />
    <circle cx="234" cy="114" r="1.5" />
    <circle cx="234" cy="126" r="1.5" />
    <circle cx="222" cy="131" r="1.5" />
    <circle cx="210" cy="126" r="1.5" />
    <circle cx="210" cy="114" r="1.5" />
    <circle cx="48" cy="149" r="1.5" />
    <circle cx="60" cy="154" r="1.5" />
    <circle cx="60" cy="166" r="1.5" />
    <circle cx="48" cy="171" r="1.5" />
    <circle cx="36" cy="166" r="1.5" />
    <circle cx="36" cy="154" r="1.5" />
    <circle cx="102" cy="149" r="1.5" />
    <circle cx="114" cy="154" r="1.5" />
    <circle cx="114" cy="166" r="1.5" />
    <circle cx="102" cy="171" r="1.5" />
    <circle cx="90" cy="166" r="1.5" />
    <circle cx="90" cy="154" r="1.5" />
    <circle cx="168" cy="149" r="1.5" />
    <circle cx="180" cy="154" r="1.5" />
    <circle cx="180" cy="166" r="1.5" />
    <circle cx="168" cy="171" r="1.5" />
    <circle cx="156" cy="166" r="1.5" />
    <circle cx="156" cy="154" r="1.5" />
    <circle cx="222" cy="149" r="1.5" />
    <circle cx="234" cy="154" r="1.5" />
    <circle cx="234" cy="166" r="1.5" />
    <circle cx="222" cy="171" r="1.5" />
    <circle cx="210" cy="166" r="1.5" />
    <circle cx="210" cy="154" r="1.5" />
    <circle cx="48" cy="189" r="1.5" />
    <circle cx="60" cy="194" r="1.5" />
    <circle cx="60" cy="206" r="1.5" />
    <circle cx="48" cy="211" r="1.5" />
    <circle cx="36" cy="206" r="1.5" />
    <circle cx="36" cy="194" r="1.5" />
    <circle cx="102" cy="189" r="1.5" />
    <circle cx="114" cy="194" r="1.5" />
    <circle cx="114" cy="206" r="1.5" />
    <circle cx="102" cy="211" r="1.5" />
    <circle cx="90" cy="206" r="1.5" />
    <circle cx="90" cy="194" r="1.5" />
    <circle cx="168" cy="189" r="1.5" />
    <circle cx="180" cy="194" r="1.5" />
    <circle cx="180" cy="206" r="1.5" />
    <circle cx="168" cy="211" r="1.5" />
    <circle cx="156" cy="206" r="1.5" />
    <circle cx="156" cy="194" r="1.5" />
    <circle cx="222" cy="189" r="1.5" />
    <circle cx="234" cy="194" r="1.5" />
    <circle cx="234" cy="206" r="1.5" />
    <circle cx="222" cy="211" r="1.5" />
    <circle cx="210" cy="206" r="1.5" />
    <circle cx="210" cy="194" r="1.5" />
    <circle cx="48" cy="229" r="1.5" />
    <circle cx="60" cy="234" r="1.5" />
    <circle cx="60" cy="246" r="1.5" />
    <circle cx="48" cy="251" r="1.5" />
    <circle cx="36" cy="246" r="1.5" />
    <circle cx="36" cy="234" r="1.5" />
    <circle cx="102" cy="229" r="1.5" />
    <circle cx="114" cy="234" r="1.5" />
    <circle cx="114" cy="246" r="1.5" />
    <circle cx="102" cy="251" r="1.5" />
    <circle cx="90" cy="246" r="1.5" />
    <circle cx="90" cy="234" r="1.5" />
    <circle cx="168" cy="229" r="1.5" />
    <circle cx="180" cy="234" r="1.5" />
    <circle cx="180" cy="246" r="1.5" />
    <circle cx="168" cy="251" r="1.5" />
    <circle cx="156" cy="246" r="1.5" />
    <circle cx="156" cy="234" r="1.5" />
    <circle cx="222" cy="229" r="1.5" />
    <circle cx="234" cy="234" r="1.5" />
    <circle cx="234" cy="246" r="1.5" />
    <circle cx="222" cy="251" r="1.5" />
    <circle cx="210" cy="246" r="1.5" />
    <circle cx="210" cy="234" r="1.5" />
    <circle cx="48" cy="269" r="1.5" />
    <circle cx="60" cy="274" r="1.5" />
    <circle cx="60" cy="286" r="1.5" />
    <circle cx="48" cy="291" r="1.5" />
    <circle cx="36" cy="286" r="1.5" />
    <circle cx="36" cy="274" r="1.5" />
    <circle cx="102" cy="269" r="1.5" />
    <circle cx="114" cy="274" r="1.5" />
    <circle cx="114" cy="286" r="1.5" />
    <circle cx="102" cy="291" r="1.5" />
    <circle cx="90" cy="286" r="1.5" />
    <circle cx="90" cy="274" r="1.5" />
    <circle cx="168" cy="269" r="1.5" />
    <circle cx="180" cy="274" r="1.5" />
    <circle cx="180" cy="286" r="1.5" />
    <circle cx="168" cy="291" r="1.5" />
    <circle cx="156" cy="286" r="1.5" />
    <circle cx="156" cy="274" r="1.5" />
    <circle cx="222" cy="269" r="1.5" />
    <circle cx="234" cy="274" r="1.5" />
    <circle cx="234" cy="286" r="1.5" />
    <circle cx="222" cy="291" r="1.5" />
    <circle cx="210" cy="286" r="1.5" />
    <circle cx="210" cy="274" r="1.5" />
    <circle cx="48" cy="309" r="1.5" />
    <circle cx="60" cy="314" r="1.5" />
    <circle cx="60" cy="326" r="1.5" />
    <circle cx="48" cy="331" r="1.5" />
    <circle cx="36" cy="326" r="1.5" />
    <circle cx="36" cy="314" r="1.5" />
    <circle cx="102" cy="309" r="1.5" />
    <circle cx="114" cy="314" r="1.5" />
    <circle cx="114" cy="326" r="1.5" />
    <circle cx="102" cy="331" r="1.5" />
    <circle cx="90" cy="326" r="1.5" />
    <circle cx="90" cy="314" r="1.5" />
    <circle cx="168" cy="309" r="1.5" />
    <circle cx="180" cy="314" r="1.5" />
    <circle cx="180" cy="326" r="1.5" />
    <circle cx="168" cy="331" r="1.5" />
    <circle cx="156" cy="326" r="1.5" />
    <circle cx="156" cy="314" r="1.5" />
    <circle cx="222" cy="309" r="1.5" />
    <circle cx="234" cy="314" r="1.5" />
    <circle cx="234" cy="326" r="1.5" />
    <circle cx="222" cy="331" r="1.5" />
    <circle cx="210" cy="326" r="1.5" />
    <circle cx="210" cy="314" r="1.5" />
  </g>

  <!-- HORIZONTAL CONNECTORS: tick lines + diamonds -->
  <g stroke="#222222" stroke-width="0.5" fill="none" opacity="0.45">
    <line x1="66" y1="77" x2="84" y2="77" />
    <line x1="66" y1="83" x2="84" y2="83" />
    <line x1="66" y1="80" x2="84" y2="80" stroke-width="0.3" opacity="0.5" />
    <polygon points="75,74 80,80 75,86 70,80" />
    <line x1="186" y1="77" x2="204" y2="77" />
    <line x1="186" y1="83" x2="204" y2="83" />
    <line x1="186" y1="80" x2="204" y2="80" stroke-width="0.3" opacity="0.5" />
    <polygon points="195,74 200,80 195,86 190,80" />
    <line x1="66" y1="117" x2="84" y2="117" />
    <line x1="66" y1="123" x2="84" y2="123" />
    <line x1="66" y1="120" x2="84" y2="120" stroke-width="0.3" opacity="0.5" />
    <polygon points="75,114 80,120 75,126 70,120" />
    <line x1="186" y1="117" x2="204" y2="117" />
    <line x1="186" y1="123" x2="204" y2="123" />
    <line x1="186" y1="120" x2="204" y2="120" stroke-width="0.3" opacity="0.5" />
    <polygon points="195,114 200,120 195,126 190,120" />
    <line x1="66" y1="157" x2="84" y2="157" />
    <line x1="66" y1="163" x2="84" y2="163" />
    <line x1="66" y1="160" x2="84" y2="160" stroke-width="0.3" opacity="0.5" />
    <polygon points="75,154 80,160 75,166 70,160" />
    <line x1="186" y1="157" x2="204" y2="157" />
    <line x1="186" y1="163" x2="204" y2="163" />
    <line x1="186" y1="160" x2="204" y2="160" stroke-width="0.3" opacity="0.5" />
    <polygon points="195,154 200,160 195,166 190,160" />
    <line x1="66" y1="197" x2="84" y2="197" />
    <line x1="66" y1="203" x2="84" y2="203" />
    <line x1="66" y1="200" x2="84" y2="200" stroke-width="0.3" opacity="0.5" />
    <polygon points="75,194 80,200 75,206 70,200" />
    <line x1="186" y1="197" x2="204" y2="197" />
    <line x1="186" y1="203" x2="204" y2="203" />
    <line x1="186" y1="200" x2="204" y2="200" stroke-width="0.3" opacity="0.5" />
    <polygon points="195,194 200,200 195,206 190,200" />
    <line x1="66" y1="237" x2="84" y2="237" />
    <line x1="66" y1="243" x2="84" y2="243" />
    <line x1="66" y1="240" x2="84" y2="240" stroke-width="0.3" opacity="0.5" />
    <polygon points="75,234 80,240 75,246 70,240" />
    <line x1="186" y1="237" x2="204" y2="237" />
    <line x1="186" y1="243" x2="204" y2="243" />
    <line x1="186" y1="240" x2="204" y2="240" stroke-width="0.3" opacity="0.5" />
    <polygon points="195,234 200,240 195,246 190,240" />
    <line x1="66" y1="277" x2="84" y2="277" />
    <line x1="66" y1="283" x2="84" y2="283" />
    <line x1="66" y1="280" x2="84" y2="280" stroke-width="0.3" opacity="0.5" />
    <polygon points="75,274 80,280 75,286 70,280" />
    <line x1="186" y1="277" x2="204" y2="277" />
    <line x1="186" y1="283" x2="204" y2="283" />
    <line x1="186" y1="280" x2="204" y2="280" stroke-width="0.3" opacity="0.5" />
    <polygon points="195,274 200,280 195,286 190,280" />
    <line x1="66" y1="317" x2="84" y2="317" />
    <line x1="66" y1="323" x2="84" y2="323" />
    <line x1="66" y1="320" x2="84" y2="320" stroke-width="0.3" opacity="0.5" />
    <polygon points="75,314 80,320 75,326 70,320" />
    <line x1="186" y1="317" x2="204" y2="317" />
    <line x1="186" y1="323" x2="204" y2="323" />
    <line x1="186" y1="320" x2="204" y2="320" stroke-width="0.3" opacity="0.5" />
    <polygon points="195,314 200,320 195,326 190,320" />
  </g>

  <!-- CENTRE RECT CELLS: nested diamond motif (gold) -->
  <g stroke="#b07d00" stroke-width="0.6" fill="none" opacity="0.50">
    <polygon points="120,80 135,70 150,80 135,90" />
    <polygon points="125,80 135,74 145,80 135,86" />
    <polygon points="131,80 135,76 139,80 135,84" stroke-width="0.4" />
    <circle cx="135" cy="80" r="1.8" fill="#b07d00" stroke="none" />
    <circle cx="120" cy="80" r="1.2" fill="#b07d00" stroke="none" />
    <circle cx="150" cy="80" r="1.2" fill="#b07d00" stroke="none" />
    <polygon points="120,120 135,110 150,120 135,130" />
    <polygon points="125,120 135,114 145,120 135,126" />
    <polygon points="131,120 135,116 139,120 135,124" stroke-width="0.4" />
    <circle cx="135" cy="120" r="1.8" fill="#b07d00" stroke="none" />
    <circle cx="120" cy="120" r="1.2" fill="#b07d00" stroke="none" />
    <circle cx="150" cy="120" r="1.2" fill="#b07d00" stroke="none" />
    <polygon points="120,160 135,150 150,160 135,170" />
    <polygon points="125,160 135,154 145,160 135,166" />
    <polygon points="131,160 135,156 139,160 135,164" stroke-width="0.4" />
    <circle cx="135" cy="160" r="1.8" fill="#b07d00" stroke="none" />
    <circle cx="120" cy="160" r="1.2" fill="#b07d00" stroke="none" />
    <circle cx="150" cy="160" r="1.2" fill="#b07d00" stroke="none" />
    <polygon points="120,200 135,190 150,200 135,210" />
    <polygon points="125,200 135,194 145,200 135,206" />
    <polygon points="131,200 135,196 139,200 135,204" stroke-width="0.4" />
    <circle cx="135" cy="200" r="1.8" fill="#b07d00" stroke="none" />
    <circle cx="120" cy="200" r="1.2" fill="#b07d00" stroke="none" />
    <circle cx="150" cy="200" r="1.2" fill="#b07d00" stroke="none" />
    <polygon points="120,240 135,230 150,240 135,250" />
    <polygon points="125,240 135,234 145,240 135,246" />
    <polygon points="131,240 135,236 139,240 135,244" stroke-width="0.4" />
    <circle cx="135" cy="240" r="1.8" fill="#b07d00" stroke="none" />
    <circle cx="120" cy="240" r="1.2" fill="#b07d00" stroke="none" />
    <circle cx="150" cy="240" r="1.2" fill="#b07d00" stroke="none" />
    <polygon points="120,280 135,270 150,280 135,290" />
    <polygon points="125,280 135,274 145,280 135,286" />
    <polygon points="131,280 135,276 139,280 135,284" stroke-width="0.4" />
    <circle cx="135" cy="280" r="1.8" fill="#b07d00" stroke="none" />
    <circle cx="120" cy="280" r="1.2" fill="#b07d00" stroke="none" />
    <circle cx="150" cy="280" r="1.2" fill="#b07d00" stroke="none" />
    <polygon points="120,320 135,310 150,320 135,330" />
    <polygon points="125,320 135,314 145,320 135,326" />
    <polygon points="131,320 135,316 139,320 135,324" stroke-width="0.4" />
    <circle cx="135" cy="320" r="1.8" fill="#b07d00" stroke="none" />
    <circle cx="120" cy="320" r="1.2" fill="#b07d00" stroke="none" />
    <circle cx="150" cy="320" r="1.2" fill="#b07d00" stroke="none" />
  </g>

  <!-- VERTICAL CONNECTORS: diamonds at gap tick positions -->
  <g stroke="#2a2a2a" stroke-width="0.5" fill="none" opacity="0.45">
    <polygon points="48,95 53,100 48,105 43,100" />
    <circle cx="48" cy="100" r="1.2" fill="#2a2a2a" stroke="none" opacity="0.5" />
    <polygon points="102,95 107,100 102,105 97,100" />
    <circle cx="102" cy="100" r="1.2" fill="#2a2a2a" stroke="none" opacity="0.5" />
    <polygon points="168,95 173,100 168,105 163,100" />
    <circle cx="168" cy="100" r="1.2" fill="#2a2a2a" stroke="none" opacity="0.5" />
    <polygon points="222,95 227,100 222,105 217,100" />
    <circle cx="222" cy="100" r="1.2" fill="#2a2a2a" stroke="none" opacity="0.5" />
    <polygon points="48,135 53,140 48,145 43,140" />
    <circle cx="48" cy="140" r="1.2" fill="#2a2a2a" stroke="none" opacity="0.5" />
    <polygon points="102,135 107,140 102,145 97,140" />
    <circle cx="102" cy="140" r="1.2" fill="#2a2a2a" stroke="none" opacity="0.5" />
    <polygon points="168,135 173,140 168,145 163,140" />
    <circle cx="168" cy="140" r="1.2" fill="#2a2a2a" stroke="none" opacity="0.5" />
    <polygon points="222,135 227,140 222,145 217,140" />
    <circle cx="222" cy="140" r="1.2" fill="#2a2a2a" stroke="none" opacity="0.5" />
    <polygon points="48,175 53,180 48,185 43,180" />
    <circle cx="48" cy="180" r="1.2" fill="#2a2a2a" stroke="none" opacity="0.5" />
    <polygon points="102,175 107,180 102,185 97,180" />
    <circle cx="102" cy="180" r="1.2" fill="#2a2a2a" stroke="none" opacity="0.5" />
    <polygon points="168,175 173,180 168,185 163,180" />
    <circle cx="168" cy="180" r="1.2" fill="#2a2a2a" stroke="none" opacity="0.5" />
    <polygon points="222,175 227,180 222,185 217,180" />
    <circle cx="222" cy="180" r="1.2" fill="#2a2a2a" stroke="none" opacity="0.5" />
    <polygon points="48,215 53,220 48,225 43,220" />
    <circle cx="48" cy="220" r="1.2" fill="#2a2a2a" stroke="none" opacity="0.5" />
    <polygon points="102,215 107,220 102,225 97,220" />
    <circle cx="102" cy="220" r="1.2" fill="#2a2a2a" stroke="none" opacity="0.5" />
    <polygon points="168,215 173,220 168,225 163,220" />
    <circle cx="168" cy="220" r="1.2" fill="#2a2a2a" stroke="none" opacity="0.5" />
    <polygon points="222,215 227,220 222,225 217,220" />
    <circle cx="222" cy="220" r="1.2" fill="#2a2a2a" stroke="none" opacity="0.5" />
    <polygon points="48,255 53,260 48,265 43,260" />
    <circle cx="48" cy="260" r="1.2" fill="#2a2a2a" stroke="none" opacity="0.5" />
    <polygon points="102,255 107,260 102,265 97,260" />
    <circle cx="102" cy="260" r="1.2" fill="#2a2a2a" stroke="none" opacity="0.5" />
    <polygon points="168,255 173,260 168,265 163,260" />
    <circle cx="168" cy="260" r="1.2" fill="#2a2a2a" stroke="none" opacity="0.5" />
    <polygon points="222,255 227,260 222,265 217,260" />
    <circle cx="222" cy="260" r="1.2" fill="#2a2a2a" stroke="none" opacity="0.5" />
    <polygon points="48,295 53,300 48,305 43,300" />
    <circle cx="48" cy="300" r="1.2" fill="#2a2a2a" stroke="none" opacity="0.5" />
    <polygon points="102,295 107,300 102,305 97,300" />
    <circle cx="102" cy="300" r="1.2" fill="#2a2a2a" stroke="none" opacity="0.5" />
    <polygon points="168,295 173,300 168,305 163,300" />
    <circle cx="168" cy="300" r="1.2" fill="#2a2a2a" stroke="none" opacity="0.5" />
    <polygon points="222,295 227,300 222,305 217,300" />
    <circle cx="222" cy="300" r="1.2" fill="#2a2a2a" stroke="none" opacity="0.5" />
  </g>

  <!-- TEAL EDGE CHAIN -->
  <g fill="none" stroke="#d4001a" opacity="0.40">
    <polygon points="18,72 24,80 18,88 12,80" stroke-width="0.6" />
    <circle cx="18" cy="80" r="1.8" fill="#d4001a" stroke="none" />
    <line x1="18" y1="88" x2="18" y2="112" stroke-width="0.4" />
    <polygon points="252,72 258,80 252,88 246,80" stroke-width="0.6" />
    <circle cx="252" cy="80" r="1.8" fill="#d4001a" stroke="none" />
    <line x1="252" y1="88" x2="252" y2="112" stroke-width="0.4" />
    <polygon points="18,112 24,120 18,128 12,120" stroke-width="0.6" />
    <circle cx="18" cy="120" r="1.8" fill="#d4001a" stroke="none" />
    <line x1="18" y1="128" x2="18" y2="152" stroke-width="0.4" />
    <polygon points="252,112 258,120 252,128 246,120" stroke-width="0.6" />
    <circle cx="252" cy="120" r="1.8" fill="#d4001a" stroke="none" />
    <line x1="252" y1="128" x2="252" y2="152" stroke-width="0.4" />
    <polygon points="18,152 24,160 18,168 12,160" stroke-width="0.6" />
    <circle cx="18" cy="160" r="1.8" fill="#d4001a" stroke="none" />
    <line x1="18" y1="168" x2="18" y2="192" stroke-width="0.4" />
    <polygon points="252,152 258,160 252,168 246,160" stroke-width="0.6" />
    <circle cx="252" cy="160" r="1.8" fill="#d4001a" stroke="none" />
    <line x1="252" y1="168" x2="252" y2="192" stroke-width="0.4" />
    <polygon points="18,192 24,200 18,208 12,200" stroke-width="0.6" />
    <circle cx="18" cy="200" r="1.8" fill="#d4001a" stroke="none" />
    <line x1="18" y1="208" x2="18" y2="232" stroke-width="0.4" />
    <polygon points="252,192 258,200 252,208 246,200" stroke-width="0.6" />
    <circle cx="252" cy="200" r="1.8" fill="#d4001a" stroke="none" />
    <line x1="252" y1="208" x2="252" y2="232" stroke-width="0.4" />
    <polygon points="18,232 24,240 18,248 12,240" stroke-width="0.6" />
    <circle cx="18" cy="240" r="1.8" fill="#d4001a" stroke="none" />
    <line x1="18" y1="248" x2="18" y2="272" stroke-width="0.4" />
    <polygon points="252,232 258,240 252,248 246,240" stroke-width="0.6" />
    <circle cx="252" cy="240" r="1.8" fill="#d4001a" stroke="none" />
    <line x1="252" y1="248" x2="252" y2="272" stroke-width="0.4" />
    <polygon points="18,272 24,280 18,288 12,280" stroke-width="0.6" />
    <circle cx="18" cy="280" r="1.8" fill="#d4001a" stroke="none" />
    <line x1="18" y1="288" x2="18" y2="312" stroke-width="0.4" />
    <polygon points="252,272 258,280 252,288 246,280" stroke-width="0.6" />
    <circle cx="252" cy="280" r="1.8" fill="#d4001a" stroke="none" />
    <line x1="252" y1="288" x2="252" y2="312" stroke-width="0.4" />
    <polygon points="18,312 24,320 18,328 12,320" stroke-width="0.6" />
    <circle cx="18" cy="320" r="1.8" fill="#d4001a" stroke="none" />
    <polygon points="252,312 258,320 252,328 246,320" stroke-width="0.6" />
    <circle cx="252" cy="320" r="1.8" fill="#d4001a" stroke="none" />
  </g>

  <!-- TOP HEADER: title area accent -->
  <g opacity="0.7">
    <rect x="0" y="0" width="270" height="55" fill="#dcdcdc" />
    <rect x="0" y="53" width="270" height="0.8" fill="#b07d00" opacity="0.5" />
  </g>

  <g fill="none" stroke-width="1.0">
    <g stroke="#333333">
      <circle cx="48" cy="80" r="9.0" /><circle cx="222" cy="80" r="9.0" />
      <circle cx="48" cy="120" r="9.0" /><circle cx="222" cy="120" r="9.0" />
      <circle cx="48" cy="160" r="9.0" /><circle cx="222" cy="160" r="9.0" />
      <circle cx="48" cy="200" r="9.0" /><circle cx="222" cy="200" r="9.0" />
      <circle cx="48" cy="240" r="9.0" /><circle cx="222" cy="240" r="9.0" />
      <circle cx="48" cy="280" r="9.0" /><circle cx="222" cy="280" r="9.0" />
      <circle cx="48" cy="320" r="9.0" /><circle cx="222" cy="320" r="9.0" />
    </g>
    <g stroke="#b07d00">
      <circle cx="102" cy="80" r="9.0" /><circle cx="168" cy="80" r="9.0" />
      <circle cx="102" cy="120" r="9.0" /><circle cx="168" cy="120" r="9.0" />
      <circle cx="102" cy="160" r="9.0" /><circle cx="168" cy="160" r="9.0" />
      <circle cx="102" cy="200" r="9.0" /><circle cx="168" cy="200" r="9.0" />
      <circle cx="102" cy="240" r="9.0" /><circle cx="168" cy="240" r="9.0" />
      <circle cx="102" cy="280" r="9.0" /><circle cx="168" cy="280" r="9.0" />
      <circle cx="102" cy="320" r="9.0" /><circle cx="168" cy="320" r="9.0" />
    </g>
  </g>
</svg>