<svg xmlns="http://www.w3.org/2000/svg" width="615.0" height="379.4" viewBox="0 0 615.0 379.4">
<rect x="0" y="0" width="615.0" height="379.4" fill="#e8e8ea"/>
<rect x="0" y="0" width="615.0" height="38.4" fill="#d4001a" opacity="0.06"/>
<line x1="0" y1="38.4" x2="615.0" y2="38.4" stroke="#d4001a" stroke-width="1.5" opacity="0.5"/>
<g>
<circle cx="307.5" cy="20.7" r="4.1" fill="#d4001a" fill-opacity="0.9"/>
<circle cx="307.5" cy="20.7" r="8.9" fill="none" stroke="#d4001a" stroke-width="1.2" stroke-opacity="0.50"/>
<circle cx="307.5" cy="20.7" r="13.6" fill="none" stroke="#d4001a" stroke-width="1.2" stroke-opacity="0.36"/>
<circle cx="307.5" cy="20.7" r="18.3" fill="none" stroke="#d4001a" stroke-width="1.2" stroke-opacity="0.22"/>
</g>
<g id="components">
<rect x="17.7" y="35.4" width="579.6" height="10.3" rx="3.0" fill="#cdd4dc" opacity="0.6"/>
<rect id="display_lantern" x="17.7" y="47.2" width="579.6" height="283.5" rx="4.4" fill="#d8dade" stroke="#c0c4ca" stroke-width="1"/>
<line x1="17.7" y1="65.0" x2="597.3" y2="65.0" stroke="#c4c8ce" stroke-width="0.5" opacity="0.5"/>
<line x1="17.7" y1="82.7" x2="597.3" y2="82.7" stroke="#c4c8ce" stroke-width="0.5" opacity="0.5"/>
<line x1="17.7" y1="100.4" x2="597.3" y2="100.4" stroke="#c4c8ce" stroke-width="0.5" opacity="0.5"/>
<line x1="17.7" y1="118.1" x2="597.3" y2="118.1" stroke="#c4c8ce" stroke-width="0.5" opacity="0.5"/>
<line x1="17.7" y1="135.8" x2="597.3" y2="135.8" stroke="#c4c8ce" stroke-width="0.5" opacity="0.5"/>
<line x1="17.7" y1="153.5" x2="597.3" y2="153.5" stroke="#c4c8ce" stroke-width="0.5" opacity="0.5"/>
<line x1="17.7" y1="171.3" x2="597.3" y2="171.3" stroke="#c4c8ce" stroke-width="0.5" opacity="0.5"/>
<line x1="17.7" y1="189.0" x2="597.3" y2="189.0" stroke="#c4c8ce" stroke-width="0.5" opacity="0.5"/>
<line x1="17.7" y1="206.7" x2="597.3" y2="206.7" stroke="#c4c8ce" stroke-width="0.5" opacity="0.5"/>
<line x1="17.7" y1="224.4" x2="597.3" y2="224.4" stroke="#c4c8ce" stroke-width="0.5" opacity="0.5"/>
<line x1="17.7" y1="242.1" x2="597.3" y2="242.1" stroke="#c4c8ce" stroke-width="0.5" opacity="0.5"/>
<line x1="17.7" y1="259.8" x2="597.3" y2="259.8" stroke="#c4c8ce" stroke-width="0.5" opacity="0.5"/>
<line x1="17.7" y1="277.6" x2="597.3" y2="277.6" stroke="#c4c8ce" stroke-width="0.5" opacity="0.5"/>
<line x1="17.7" y1="295.3" x2="597.3" y2="295.3" stroke="#c4c8ce" stroke-width="0.5" opacity="0.5"/>
<line x1="17.7" y1="313.0" x2="597.3" y2="313.0" stroke="#c4c8ce" stroke-width="0.5" opacity="0.5"/>
<line x1="190.7" y1="47.2" x2="190.7" y2="330.7" stroke="#c4c8ce" stroke-width="0.6" opacity="0.6"/>
<line x1="316.4" y1="47.2" x2="316.4" y2="330.7" stroke="#c4c8ce" stroke-width="0.6" opacity="0.6"/>
<line x1="442.1" y1="47.2" x2="442.1" y2="330.7" stroke="#c4c8ce" stroke-width="0.6" opacity="0.6"/>
<rect id="param_VIEW_NOTES" x="29.5" y="338.1" width="59.1" height="20.7" rx="3.0" fill="#d4d6d9" stroke="#a8aeb6" stroke-width="1.2"/>
<rect id="param_VIEW_VELOCITY" x="97.4" y="338.1" width="59.1" height="20.7" rx="3.0" fill="#d4d6d9" stroke="#a8aeb6" stroke-width="1.2"/>
<rect id="param_VIEW_PROB" x="165.3" y="338.1" width="59.1" height="20.7" rx="3.0" fill="#d4d6d9" stroke="#a8aeb6" stroke-width="1.2"/>
<circle id="param_ZOOM" cx="307.5" cy="348.4" r="19.2" fill="#d4d6d9" stroke="#a8aeb6" stroke-width="1.2"/>
<rect id="param_FOLLOW" x="526.4" y="336.6" width="59.1" height="23.6" rx="3.0" fill="#d4d6d9" stroke="#a8aeb6" stroke-width="1.2"/>
<circle id="light_connect" cx="307.5" cy="370.6" r="0.5" fill="#000000" fill-opacity="0"/>
</g>
</svg>