<?xml version="1.0" encoding="UTF-8"?>
<svg xmlns="http://www.w3.org/2000/svg" width="510.00" height="379.43" viewBox="0 0 172.72 128.5">
<defs>
<pattern id="grain" x="0" y="0" width="172.72" height="0.2" patternUnits="userSpaceOnUse">
  <rect width="172.72" height="0.2" fill="#1a1a1a"/>
  <rect y="0.110" width="172.72" height="0.050" fill="#222222" opacity="0.35"/>
</pattern>
<radialGradient id="jg" cx="36%" cy="30%" r="62%">
  <stop offset="0%"   stop-color="#585858"/>
  <stop offset="50%"  stop-color="#282828"/>
  <stop offset="100%" stop-color="#080808"/>
</radialGradient>
<radialGradient id="jgo" cx="36%" cy="30%" r="62%">
  <stop offset="0%"   stop-color="#806020"/>
  <stop offset="50%"  stop-color="#402808"/>
  <stop offset="100%" stop-color="#080400"/>
</radialGradient>
</defs>
<rect width="172.72" height="128.5" fill="#1a1a1a"/>
<rect width="172.72" height="128.5" fill="url(#grain)"/>
<rect x="0.5" y="0.5" width="171.72" height="127.50" fill="none" stroke="#0a0a0a" stroke-width="1.0"/>
<circle cx="4.5" cy="4.5" r="3.6" fill="#252525" stroke="#0a0a0a" stroke-width="0.5"/>
<circle cx="4.5" cy="4.5" r="2.2" fill="#1e1e1e" stroke="#333" stroke-width="0.3"/>
<line x1="3.51" y1="3.51" x2="5.49" y2="5.49" stroke="#444" stroke-width="0.4" stroke-linecap="round"/>
<line x1="3.51" y1="5.49" x2="5.49" y2="3.51" stroke="#444" stroke-width="0.4" stroke-linecap="round"/>
<circle cx="168.22" cy="4.5" r="3.6" fill="#252525" stroke="#0a0a0a" stroke-width="0.5"/>
<circle cx="168.22" cy="4.5" r="2.2" fill="#1e1e1e" stroke="#333" stroke-width="0.3"/>
<line x1="167.23" y1="3.51" x2="169.21" y2="5.49" stroke="#444" stroke-width="0.4" stroke-linecap="round"/>
<line x1="167.23" y1="5.49" x2="169.21" y2="3.51" stroke="#444" stroke-width="0.4" stroke-linecap="round"/>
<circle cx="4.5" cy="124.0" r="3.6" fill="#252525" stroke="#0a0a0a" stroke-width="0.5"/>
<circle cx="4.5" cy="124.0" r="2.2" fill="#1e1e1e" stroke="#333" stroke-width="0.3"/>
<line x1="3.51" y1="123.01" x2="5.49" y2="124.99" stroke="#444" stroke-width="0.4" stroke-linecap="round"/>
<line x1="3.51" y1="124.99" x2="5.49" y2="123.01" stroke="#444" stroke-width="0.4" stroke-linecap="round"/>
<circle cx="168.22" cy="124.0" r="3.6" fill="#252525" stroke="#0a0a0a" stroke-width="0.5"/>
<circle cx="168.22" cy="124.0" r="2.2" fill="#1e1e1e" stroke="#333" stroke-width="0.3"/>
<line x1="167.23" y1="123.01" x2="169.21" y2="124.99" stroke="#444" stroke-width="0.4" stroke-linecap="round"/>
<line x1="167.23" y1="124.99" x2="169.21" y2="123.01" stroke="#444" stroke-width="0.4" stroke-linecap="round"/>
<rect x="0" y="0" width="172.72" height="10.5" fill="#141414"/>
<line x1="2" y1="10.50" x2="170.72" y2="10.50" stroke="#2a2a2a" stroke-width="0.5"/>
<circle cx="8.5" cy="5.25" r="2.6" fill="#cc2222"/>
<line x1="8.34" y1="29.66" x2="7.14" y2="30.86" stroke="#555555" stroke-width="0.45" stroke-linecap="round"/>
<line x1="6.39" y1="26.47" x2="5.54" y2="26.75" stroke="#383838" stroke-width="0.28" stroke-linecap="round"/>
<line x1="6.10" y1="22.75" x2="5.21" y2="22.61" stroke="#383838" stroke-width="0.28" stroke-linecap="round"/>
<line x1="7.53" y1="19.30" x2="6.80" y2="18.77" stroke="#383838" stroke-width="0.28" stroke-linecap="round"/>
<line x1="10.37" y1="16.87" x2="9.96" y2="16.07" stroke="#383838" stroke-width="0.28" stroke-linecap="round"/>
<line x1="14.00" y1="16.00" x2="14.00" y2="14.30" stroke="#555555" stroke-width="0.45" stroke-linecap="round"/>
<line x1="17.63" y1="16.87" x2="18.04" y2="16.07" stroke="#383838" stroke-width="0.28" stroke-linecap="round"/>
<line x1="20.47" y1="19.30" x2="21.20" y2="18.77" stroke="#383838" stroke-width="0.28" stroke-linecap="round"/>
<line x1="21.90" y1="22.75" x2="22.79" y2="22.61" stroke="#383838" stroke-width="0.28" stroke-linecap="round"/>
<line x1="21.61" y1="26.47" x2="22.46" y2="26.75" stroke="#383838" stroke-width="0.28" stroke-linecap="round"/>
<line x1="19.66" y1="29.66" x2="20.86" y2="30.86" stroke="#555555" stroke-width="0.45" stroke-linecap="round"/>
<line x1="31.34" y1="29.66" x2="30.14" y2="30.86" stroke="#555555" stroke-width="0.45" stroke-linecap="round"/>
<line x1="29.39" y1="26.47" x2="28.54" y2="26.75" stroke="#383838" stroke-width="0.28" stroke-linecap="round"/>
<line x1="29.10" y1="22.75" x2="28.21" y2="22.61" stroke="#383838" stroke-width="0.28" stroke-linecap="round"/>
<line x1="30.53" y1="19.30" x2="29.80" y2="18.77" stroke="#383838" stroke-width="0.28" stroke-linecap="round"/>
<line x1="33.37" y1="16.87" x2="32.96" y2="16.07" stroke="#383838" stroke-width="0.28" stroke-linecap="round"/>
<line x1="37.00" y1="16.00" x2="37.00" y2="14.30" stroke="#555555" stroke-width="0.45" stroke-linecap="round"/>
<line x1="40.63" y1="16.87" x2="41.04" y2="16.07" stroke="#383838" stroke-width="0.28" stroke-linecap="round"/>
<line x1="43.47" y1="19.30" x2="44.20" y2="18.77" stroke="#383838" stroke-width="0.28" stroke-linecap="round"/>
<line x1="44.90" y1="22.75" x2="45.79" y2="22.61" stroke="#383838" stroke-width="0.28" stroke-linecap="round"/>
<line x1="44.61" y1="26.47" x2="45.46" y2="26.75" stroke="#383838" stroke-width="0.28" stroke-linecap="round"/>
<line x1="42.66" y1="29.66" x2="43.86" y2="30.86" stroke="#555555" stroke-width="0.45" stroke-linecap="round"/>
<line x1="54.34" y1="29.66" x2="53.14" y2="30.86" stroke="#555555" stroke-width="0.45" stroke-linecap="round"/>
<line x1="52.39" y1="26.47" x2="51.54" y2="26.75" stroke="#383838" stroke-width="0.28" stroke-linecap="round"/>
<line x1="52.10" y1="22.75" x2="51.21" y2="22.61" stroke="#383838" stroke-width="0.28" stroke-linecap="round"/>
<line x1="53.53" y1="19.30" x2="52.80" y2="18.77" stroke="#383838" stroke-width="0.28" stroke-linecap="round"/>
<line x1="56.37" y1="16.87" x2="55.96" y2="16.07" stroke="#383838" stroke-width="0.28" stroke-linecap="round"/>
<line x1="60.00" y1="16.00" x2="60.00" y2="14.30" stroke="#555555" stroke-width="0.45" stroke-linecap="round"/>
<line x1="63.63" y1="16.87" x2="64.04" y2="16.07" stroke="#383838" stroke-width="0.28" stroke-linecap="round"/>
<line x1="66.47" y1="19.30" x2="67.20" y2="18.77" stroke="#383838" stroke-width="0.28" stroke-linecap="round"/>
<line x1="67.90" y1="22.75" x2="68.79" y2="22.61" stroke="#383838" stroke-width="0.28" stroke-linecap="round"/>
<line x1="67.61" y1="26.47" x2="68.46" y2="26.75" stroke="#383838" stroke-width="0.28" stroke-linecap="round"/>
<line x1="65.66" y1="29.66" x2="66.86" y2="30.86" stroke="#555555" stroke-width="0.45" stroke-linecap="round"/>
<line x1="77.34" y1="29.66" x2="76.14" y2="30.86" stroke="#555555" stroke-width="0.45" stroke-linecap="round"/>
<line x1="75.39" y1="26.47" x2="74.54" y2="26.75" stroke="#383838" stroke-width="0.28" stroke-linecap="round"/>
<line x1="75.10" y1="22.75" x2="74.21" y2="22.61" stroke="#383838" stroke-width="0.28" stroke-linecap="round"/>
<line x1="76.53" y1="19.30" x2="75.80" y2="18.77" stroke="#383838" stroke-width="0.28" stroke-linecap="round"/>
<line x1="79.37" y1="16.87" x2="78.96" y2="16.07" stroke="#383838" stroke-width="0.28" stroke-linecap="round"/>
<line x1="83.00" y1="16.00" x2="83.00" y2="14.30" stroke="#555555" stroke-width="0.45" stroke-linecap="round"/>
<line x1="86.63" y1="16.87" x2="87.04" y2="16.07" stroke="#383838" stroke-width="0.28" stroke-linecap="round"/>
<line x1="89.47" y1="19.30" x2="90.20" y2="18.77" stroke="#383838" stroke-width="0.28" stroke-linecap="round"/>
<line x1="90.90" y1="22.75" x2="91.79" y2="22.61" stroke="#383838" stroke-width="0.28" stroke-linecap="round"/>
<line x1="90.61" y1="26.47" x2="91.46" y2="26.75" stroke="#383838" stroke-width="0.28" stroke-linecap="round"/>
<line x1="88.66" y1="29.66" x2="89.86" y2="30.86" stroke="#555555" stroke-width="0.45" stroke-linecap="round"/>
<line x1="8.48" y1="29.52" x2="7.28" y2="30.72" stroke="#505050" stroke-width="0.42" stroke-linecap="round"/>
<line x1="6.58" y1="26.41" x2="5.73" y2="26.69" stroke="#333" stroke-width="0.26" stroke-linecap="round"/>
<line x1="6.30" y1="22.78" x2="5.41" y2="22.64" stroke="#333" stroke-width="0.26" stroke-linecap="round"/>
<line x1="7.69" y1="19.42" x2="6.96" y2="18.89" stroke="#333" stroke-width="0.26" stroke-linecap="round"/>
<line x1="10.46" y1="17.05" x2="10.05" y2="16.25" stroke="#333" stroke-width="0.26" stroke-linecap="round"/>
<line x1="14.00" y1="16.20" x2="14.00" y2="14.50" stroke="#505050" stroke-width="0.42" stroke-linecap="round"/>
<line x1="17.54" y1="17.05" x2="17.95" y2="16.25" stroke="#333" stroke-width="0.26" stroke-linecap="round"/>
<line x1="20.31" y1="19.42" x2="21.04" y2="18.89" stroke="#333" stroke-width="0.26" stroke-linecap="round"/>
<line x1="21.70" y1="22.78" x2="22.59" y2="22.64" stroke="#333" stroke-width="0.26" stroke-linecap="round"/>
<line x1="21.42" y1="26.41" x2="22.27" y2="26.69" stroke="#333" stroke-width="0.26" stroke-linecap="round"/>
<line x1="19.52" y1="29.52" x2="20.72" y2="30.72" stroke="#505050" stroke-width="0.42" stroke-linecap="round"/>
<line x1="32.55" y1="28.45" x2="31.34" y2="29.66" stroke="#505050" stroke-width="0.42" stroke-linecap="round"/>
<line x1="31.01" y1="25.95" x2="30.15" y2="26.22" stroke="#333" stroke-width="0.26" stroke-linecap="round"/>
<line x1="30.78" y1="23.01" x2="29.89" y2="22.87" stroke="#333" stroke-width="0.26" stroke-linecap="round"/>
<line x1="31.90" y1="20.30" x2="31.18" y2="19.77" stroke="#333" stroke-width="0.26" stroke-linecap="round"/>
<line x1="34.14" y1="18.39" x2="33.73" y2="17.58" stroke="#333" stroke-width="0.26" stroke-linecap="round"/>
<line x1="37.00" y1="17.70" x2="37.00" y2="16.00" stroke="#505050" stroke-width="0.42" stroke-linecap="round"/>
<line x1="39.86" y1="18.39" x2="40.27" y2="17.58" stroke="#333" stroke-width="0.26" stroke-linecap="round"/>
<line x1="42.10" y1="20.30" x2="42.82" y2="19.77" stroke="#333" stroke-width="0.26" stroke-linecap="round"/>
<line x1="43.22" y1="23.01" x2="44.11" y2="22.87" stroke="#333" stroke-width="0.26" stroke-linecap="round"/>
<line x1="42.99" y1="25.95" x2="43.85" y2="26.22" stroke="#333" stroke-width="0.26" stroke-linecap="round"/>
<line x1="41.45" y1="28.45" x2="42.66" y2="29.66" stroke="#505050" stroke-width="0.42" stroke-linecap="round"/>
<line x1="55.55" y1="28.45" x2="54.34" y2="29.66" stroke="#505050" stroke-width="0.42" stroke-linecap="round"/>
<line x1="54.01" y1="25.95" x2="53.15" y2="26.22" stroke="#333" stroke-width="0.26" stroke-linecap="round"/>
<line x1="53.78" y1="23.01" x2="52.89" y2="22.87" stroke="#333" stroke-width="0.26" stroke-linecap="round"/>
<line x1="54.90" y1="20.30" x2="54.18" y2="19.77" stroke="#333" stroke-width="0.26" stroke-linecap="round"/>
<line x1="57.14" y1="18.39" x2="56.73" y2="17.58" stroke="#333" stroke-width="0.26" stroke-linecap="round"/>
<line x1="60.00" y1="17.70" x2="60.00" y2="16.00" stroke="#505050" stroke-width="0.42" stroke-linecap="round"/>
<line x1="62.86" y1="18.39" x2="63.27" y2="17.58" stroke="#333" stroke-width="0.26" stroke-linecap="round"/>
<line x1="65.10" y1="20.30" x2="65.82" y2="19.77" stroke="#333" stroke-width="0.26" stroke-linecap="round"/>
<line x1="66.22" y1="23.01" x2="67.11" y2="22.87" stroke="#333" stroke-width="0.26" stroke-linecap="round"/>
<line x1="65.99" y1="25.95" x2="66.85" y2="26.22" stroke="#333" stroke-width="0.26" stroke-linecap="round"/>
<line x1="64.45" y1="28.45" x2="65.66" y2="29.66" stroke="#505050" stroke-width="0.42" stroke-linecap="round"/>
<line x1="78.55" y1="28.45" x2="77.34" y2="29.66" stroke="#505050" stroke-width="0.42" stroke-linecap="round"/>
<line x1="77.01" y1="25.95" x2="76.15" y2="26.22" stroke="#333" stroke-width="0.26" stroke-linecap="round"/>
<line x1="76.78" y1="23.01" x2="75.89" y2="22.87" stroke="#333" stroke-width="0.26" stroke-linecap="round"/>
<line x1="77.90" y1="20.30" x2="77.18" y2="19.77" stroke="#333" stroke-width="0.26" stroke-linecap="round"/>
<line x1="80.14" y1="18.39" x2="79.73" y2="17.58" stroke="#333" stroke-width="0.26" stroke-linecap="round"/>
<line x1="83.00" y1="17.70" x2="83.00" y2="16.00" stroke="#505050" stroke-width="0.42" stroke-linecap="round"/>
<line x1="85.86" y1="18.39" x2="86.27" y2="17.58" stroke="#333" stroke-width="0.26" stroke-linecap="round"/>
<line x1="88.10" y1="20.30" x2="88.82" y2="19.77" stroke="#333" stroke-width="0.26" stroke-linecap="round"/>
<line x1="89.22" y1="23.01" x2="90.11" y2="22.87" stroke="#333" stroke-width="0.26" stroke-linecap="round"/>
<line x1="88.99" y1="25.95" x2="89.85" y2="26.22" stroke="#333" stroke-width="0.26" stroke-linecap="round"/>
<line x1="87.45" y1="28.45" x2="88.66" y2="29.66" stroke="#505050" stroke-width="0.42" stroke-linecap="round"/>
<line x1="106.25" y1="27.75" x2="105.05" y2="28.95" stroke="#505050" stroke-width="0.42" stroke-linecap="round"/>
<line x1="104.80" y1="25.03" x2="103.92" y2="25.21" stroke="#333" stroke-width="0.26" stroke-linecap="round"/>
<line x1="105.10" y1="21.97" x2="104.27" y2="21.63" stroke="#333" stroke-width="0.26" stroke-linecap="round"/>
<line x1="107.06" y1="19.59" x2="106.56" y2="18.84" stroke="#333" stroke-width="0.26" stroke-linecap="round"/>
<line x1="110.00" y1="18.70" x2="110.00" y2="17.00" stroke="#505050" stroke-width="0.42" stroke-linecap="round"/>
<line x1="112.94" y1="19.59" x2="113.44" y2="18.84" stroke="#333" stroke-width="0.26" stroke-linecap="round"/>
<line x1="114.90" y1="21.97" x2="115.73" y2="21.63" stroke="#333" stroke-width="0.26" stroke-linecap="round"/>
<line x1="115.20" y1="25.03" x2="116.08" y2="25.21" stroke="#333" stroke-width="0.26" stroke-linecap="round"/>
<line x1="113.75" y1="27.75" x2="114.95" y2="28.95" stroke="#505050" stroke-width="0.42" stroke-linecap="round"/>
<line x1="129.25" y1="27.75" x2="128.05" y2="28.95" stroke="#505050" stroke-width="0.42" stroke-linecap="round"/>
<line x1="127.80" y1="25.03" x2="126.92" y2="25.21" stroke="#333" stroke-width="0.26" stroke-linecap="round"/>
<line x1="128.10" y1="21.97" x2="127.27" y2="21.63" stroke="#333" stroke-width="0.26" stroke-linecap="round"/>
<line x1="130.06" y1="19.59" x2="129.56" y2="18.84" stroke="#333" stroke-width="0.26" stroke-linecap="round"/>
<line x1="133.00" y1="18.70" x2="133.00" y2="17.00" stroke="#505050" stroke-width="0.42" stroke-linecap="round"/>
<line x1="135.94" y1="19.59" x2="136.44" y2="18.84" stroke="#333" stroke-width="0.26" stroke-linecap="round"/>
<line x1="137.90" y1="21.97" x2="138.73" y2="21.63" stroke="#333" stroke-width="0.26" stroke-linecap="round"/>
<line x1="138.20" y1="25.03" x2="139.08" y2="25.21" stroke="#333" stroke-width="0.26" stroke-linecap="round"/>
<line x1="136.75" y1="27.75" x2="137.95" y2="28.95" stroke="#505050" stroke-width="0.42" stroke-linecap="round"/>
<line x1="152.25" y1="27.75" x2="151.05" y2="28.95" stroke="#505050" stroke-width="0.42" stroke-linecap="round"/>
<line x1="150.80" y1="25.03" x2="149.92" y2="25.21" stroke="#333" stroke-width="0.26" stroke-linecap="round"/>
<line x1="151.10" y1="21.97" x2="150.27" y2="21.63" stroke="#333" stroke-width="0.26" stroke-linecap="round"/>
<line x1="153.06" y1="19.59" x2="152.56" y2="18.84" stroke="#333" stroke-width="0.26" stroke-linecap="round"/>
<line x1="156.00" y1="18.70" x2="156.00" y2="17.00" stroke="#505050" stroke-width="0.42" stroke-linecap="round"/>
<line x1="158.94" y1="19.59" x2="159.44" y2="18.84" stroke="#333" stroke-width="0.26" stroke-linecap="round"/>
<line x1="160.90" y1="21.97" x2="161.73" y2="21.63" stroke="#333" stroke-width="0.26" stroke-linecap="round"/>
<line x1="161.20" y1="25.03" x2="162.08" y2="25.21" stroke="#333" stroke-width="0.26" stroke-linecap="round"/>
<line x1="159.75" y1="27.75" x2="160.95" y2="28.95" stroke="#505050" stroke-width="0.42" stroke-linecap="round"/>
<line x1="2" y1="11.50" x2="170.72" y2="11.50" stroke="#2a2a2a" stroke-width="0.5"/>
<line x1="2" y1="34.50" x2="170.72" y2="34.50" stroke="#2a2a2a" stroke-width="0.5"/>
<rect x="5.30" y="37.70" width="4.40" height="28.60" rx="1.5" fill="#0a0a0a"/>
<rect x="5.60" y="38.00" width="3.80" height="28.00" rx="1.2" fill="#1e1e1e" stroke="#252525" stroke-width="0.3"/>
<rect x="7.10" y="38.50" width="0.8" height="27.0" rx="0.4" fill="#303030" opacity="0.5"/>
<circle cx="7.50" cy="68.00" r="1.30" fill="#0a0a0a"/>
<circle cx="7.50" cy="68.00" r="0.90" fill="#0c0c0c" stroke="#1a1a1a" stroke-width="0.25"/>
<rect x="12.30" y="37.70" width="4.40" height="28.60" rx="1.5" fill="#0a0a0a"/>
<rect x="12.60" y="38.00" width="3.80" height="28.00" rx="1.2" fill="#1e1e1e" stroke="#252525" stroke-width="0.3"/>
<rect x="14.10" y="38.50" width="0.8" height="27.0" rx="0.4" fill="#303030" opacity="0.5"/>
<circle cx="14.50" cy="68.00" r="1.30" fill="#0a0a0a"/>
<circle cx="14.50" cy="68.00" r="0.90" fill="#0c0c0c" stroke="#1a1a1a" stroke-width="0.25"/>
<rect x="19.30" y="37.70" width="4.40" height="28.60" rx="1.5" fill="#0a0a0a"/>
<rect x="19.60" y="38.00" width="3.80" height="28.00" rx="1.2" fill="#1e1e1e" stroke="#252525" stroke-width="0.3"/>
<rect x="21.10" y="38.50" width="0.8" height="27.0" rx="0.4" fill="#303030" opacity="0.5"/>
<circle cx="21.50" cy="68.00" r="1.30" fill="#0a0a0a"/>
<circle cx="21.50" cy="68.00" r="0.90" fill="#0c0c0c" stroke="#1a1a1a" stroke-width="0.25"/>
<rect x="26.30" y="37.70" width="4.40" height="28.60" rx="1.5" fill="#0a0a0a"/>
<rect x="26.60" y="38.00" width="3.80" height="28.00" rx="1.2" fill="#1e1e1e" stroke="#252525" stroke-width="0.3"/>
<rect x="28.10" y="38.50" width="0.8" height="27.0" rx="0.4" fill="#303030" opacity="0.5"/>
<circle cx="28.50" cy="68.00" r="1.30" fill="#0a0a0a"/>
<circle cx="28.50" cy="68.00" r="0.90" fill="#0c0c0c" stroke="#1a1a1a" stroke-width="0.25"/>
<rect x="33.30" y="37.70" width="4.40" height="28.60" rx="1.5" fill="#0a0a0a"/>
<rect x="33.60" y="38.00" width="3.80" height="28.00" rx="1.2" fill="#1e1e1e" stroke="#252525" stroke-width="0.3"/>
<rect x="35.10" y="38.50" width="0.8" height="27.0" rx="0.4" fill="#303030" opacity="0.5"/>
<circle cx="35.50" cy="68.00" r="1.30" fill="#0a0a0a"/>
<circle cx="35.50" cy="68.00" r="0.90" fill="#0c0c0c" stroke="#1a1a1a" stroke-width="0.25"/>
<rect x="40.30" y="37.70" width="4.40" height="28.60" rx="1.5" fill="#0a0a0a"/>
<rect x="40.60" y="38.00" width="3.80" height="28.00" rx="1.2" fill="#1e1e1e" stroke="#252525" stroke-width="0.3"/>
<rect x="42.10" y="38.50" width="0.8" height="27.0" rx="0.4" fill="#303030" opacity="0.5"/>
<circle cx="42.50" cy="68.00" r="1.30" fill="#0a0a0a"/>
<circle cx="42.50" cy="68.00" r="0.90" fill="#0c0c0c" stroke="#1a1a1a" stroke-width="0.25"/>
<rect x="47.30" y="37.70" width="4.40" height="28.60" rx="1.5" fill="#0a0a0a"/>
<rect x="47.60" y="38.00" width="3.80" height="28.00" rx="1.2" fill="#1e1e1e" stroke="#252525" stroke-width="0.3"/>
<rect x="49.10" y="38.50" width="0.8" height="27.0" rx="0.4" fill="#303030" opacity="0.5"/>
<circle cx="49.50" cy="68.00" r="1.30" fill="#0a0a0a"/>
<circle cx="49.50" cy="68.00" r="0.90" fill="#0c0c0c" stroke="#1a1a1a" stroke-width="0.25"/>
<rect x="54.30" y="37.70" width="4.40" height="28.60" rx="1.5" fill="#0a0a0a"/>
<rect x="54.60" y="38.00" width="3.80" height="28.00" rx="1.2" fill="#1e1e1e" stroke="#252525" stroke-width="0.3"/>
<rect x="56.10" y="38.50" width="0.8" height="27.0" rx="0.4" fill="#303030" opacity="0.5"/>
<circle cx="56.50" cy="68.00" r="1.30" fill="#0a0a0a"/>
<circle cx="56.50" cy="68.00" r="0.90" fill="#0c0c0c" stroke="#1a1a1a" stroke-width="0.25"/>
<rect x="61.30" y="37.70" width="4.40" height="28.60" rx="1.5" fill="#0a0a0a"/>
<rect x="61.60" y="38.00" width="3.80" height="28.00" rx="1.2" fill="#1e1e1e" stroke="#252525" stroke-width="0.3"/>
<rect x="63.10" y="38.50" width="0.8" height="27.0" rx="0.4" fill="#303030" opacity="0.5"/>
<circle cx="63.50" cy="68.00" r="1.30" fill="#0a0a0a"/>
<circle cx="63.50" cy="68.00" r="0.90" fill="#0c0c0c" stroke="#1a1a1a" stroke-width="0.25"/>
<rect x="68.30" y="37.70" width="4.40" height="28.60" rx="1.5" fill="#0a0a0a"/>
<rect x="68.60" y="38.00" width="3.80" height="28.00" rx="1.2" fill="#1e1e1e" stroke="#252525" stroke-width="0.3"/>
<rect x="70.10" y="38.50" width="0.8" height="27.0" rx="0.4" fill="#303030" opacity="0.5"/>
<circle cx="70.50" cy="68.00" r="1.30" fill="#0a0a0a"/>
<circle cx="70.50" cy="68.00" r="0.90" fill="#0c0c0c" stroke="#1a1a1a" stroke-width="0.25"/>
<rect x="75.30" y="37.70" width="4.40" height="28.60" rx="1.5" fill="#0a0a0a"/>
<rect x="75.60" y="38.00" width="3.80" height="28.00" rx="1.2" fill="#1e1e1e" stroke="#252525" stroke-width="0.3"/>
<rect x="77.10" y="38.50" width="0.8" height="27.0" rx="0.4" fill="#303030" opacity="0.5"/>
<circle cx="77.50" cy="68.00" r="1.30" fill="#0a0a0a"/>
<circle cx="77.50" cy="68.00" r="0.90" fill="#0c0c0c" stroke="#1a1a1a" stroke-width="0.25"/>
<rect x="82.30" y="37.70" width="4.40" height="28.60" rx="1.5" fill="#0a0a0a"/>
<rect x="82.60" y="38.00" width="3.80" height="28.00" rx="1.2" fill="#1e1e1e" stroke="#252525" stroke-width="0.3"/>
<rect x="84.10" y="38.50" width="0.8" height="27.0" rx="0.4" fill="#303030" opacity="0.5"/>
<circle cx="84.50" cy="68.00" r="1.30" fill="#0a0a0a"/>
<circle cx="84.50" cy="68.00" r="0.90" fill="#0c0c0c" stroke="#1a1a1a" stroke-width="0.25"/>
<line x1="90" y1="34.50" x2="118" y2="34.50" stroke="#26a69a" stroke-width="0.5"/>
<rect x="95.80" y="37.70" width="4.40" height="28.60" rx="1.5" fill="#0a0a0a"/>
<rect x="96.10" y="38.00" width="3.80" height="28.00" rx="1.2" fill="#1a3a38" stroke="#252525" stroke-width="0.3"/>
<rect x="97.60" y="38.50" width="0.8" height="27.0" rx="0.4" fill="#26a69a" opacity="0.5"/>
<circle cx="98.00" cy="68.00" r="1.30" fill="#0a0a0a"/>
<circle cx="98.00" cy="68.00" r="0.90" fill="#0c0c0c" stroke="#1a1a1a" stroke-width="0.25"/>
<circle cx="98.00" cy="68.00" r="0.90" fill="#26a69a" opacity="0.18"/>
<rect x="103.80" y="37.70" width="4.40" height="28.60" rx="1.5" fill="#0a0a0a"/>
<rect x="104.10" y="38.00" width="3.80" height="28.00" rx="1.2" fill="#1a3a38" stroke="#252525" stroke-width="0.3"/>
<rect x="105.60" y="38.50" width="0.8" height="27.0" rx="0.4" fill="#26a69a" opacity="0.5"/>
<circle cx="106.00" cy="68.00" r="1.30" fill="#0a0a0a"/>
<circle cx="106.00" cy="68.00" r="0.90" fill="#0c0c0c" stroke="#1a1a1a" stroke-width="0.25"/>
<circle cx="106.00" cy="68.00" r="0.90" fill="#26a69a" opacity="0.18"/>
<line x1="92.0" y1="34.5" x2="92.0" y2="72.0" stroke="#2a2a2a" stroke-width="0.4"/>
<line x1="114.0" y1="34.5" x2="114.0" y2="72.0" stroke="#2a2a2a" stroke-width="0.4"/>
<line x1="162.0" y1="11.5" x2="162.0" y2="72.0" stroke="#2a2a2a" stroke-width="0.4"/>
<circle cx="138.0" cy="51.0" r="18.0" fill="#0e0e0e" stroke="#1a1a1a" stroke-width="0.8"/>
<circle cx="138.0" cy="51.0" r="8.5" fill="#141414"/>
<circle cx="138.00" cy="39.00" r="1.50" fill="#0a0a0a"/>
<circle cx="138.00" cy="39.00" r="1.10" fill="#0c0c0c" stroke="#1a1a1a" stroke-width="0.25"/>
<circle cx="138.00" cy="39.00" r="1.10" fill="#cc3333" opacity="0.18"/>
<line x1="138.00" y1="35.00" x2="138.00" y2="33.00" stroke="#484848" stroke-width="0.55"/>
<circle cx="142.59" cy="39.91" r="1.30" fill="#0a0a0a"/>
<circle cx="142.59" cy="39.91" r="0.90" fill="#0c0c0c" stroke="#1a1a1a" stroke-width="0.25"/>
<circle cx="142.59" cy="39.91" r="0.90" fill="#22cc44" opacity="0.18"/>
<line x1="144.12" y1="36.22" x2="144.51" y2="35.29" stroke="#2a2a2a" stroke-width="0.32"/>
<circle cx="146.49" cy="42.51" r="1.30" fill="#0a0a0a"/>
<circle cx="146.49" cy="42.51" r="0.90" fill="#0c0c0c" stroke="#1a1a1a" stroke-width="0.25"/>
<circle cx="146.49" cy="42.51" r="0.90" fill="#22cc44" opacity="0.18"/>
<line x1="149.31" y1="39.69" x2="150.02" y2="38.98" stroke="#2a2a2a" stroke-width="0.32"/>
<circle cx="149.09" cy="46.41" r="1.30" fill="#0a0a0a"/>
<circle cx="149.09" cy="46.41" r="0.90" fill="#0c0c0c" stroke="#1a1a1a" stroke-width="0.25"/>
<circle cx="149.09" cy="46.41" r="0.90" fill="#22cc44" opacity="0.18"/>
<line x1="152.78" y1="44.88" x2="153.71" y2="44.49" stroke="#2a2a2a" stroke-width="0.32"/>
<circle cx="150.00" cy="51.00" r="1.50" fill="#0a0a0a"/>
<circle cx="150.00" cy="51.00" r="1.10" fill="#0c0c0c" stroke="#1a1a1a" stroke-width="0.25"/>
<circle cx="150.00" cy="51.00" r="1.10" fill="#cc3333" opacity="0.18"/>
<line x1="154.00" y1="51.00" x2="156.00" y2="51.00" stroke="#484848" stroke-width="0.55"/>
<circle cx="149.09" cy="55.59" r="1.30" fill="#0a0a0a"/>
<circle cx="149.09" cy="55.59" r="0.90" fill="#0c0c0c" stroke="#1a1a1a" stroke-width="0.25"/>
<circle cx="149.09" cy="55.59" r="0.90" fill="#22cc44" opacity="0.18"/>
<line x1="152.78" y1="57.12" x2="153.71" y2="57.51" stroke="#2a2a2a" stroke-width="0.32"/>
<circle cx="146.49" cy="59.49" r="1.30" fill="#0a0a0a"/>
<circle cx="146.49" cy="59.49" r="0.90" fill="#0c0c0c" stroke="#1a1a1a" stroke-width="0.25"/>
<circle cx="146.49" cy="59.49" r="0.90" fill="#22cc44" opacity="0.18"/>
<line x1="149.31" y1="62.31" x2="150.02" y2="63.02" stroke="#2a2a2a" stroke-width="0.32"/>
<circle cx="142.59" cy="62.09" r="1.30" fill="#0a0a0a"/>
<circle cx="142.59" cy="62.09" r="0.90" fill="#0c0c0c" stroke="#1a1a1a" stroke-width="0.25"/>
<circle cx="142.59" cy="62.09" r="0.90" fill="#22cc44" opacity="0.18"/>
<line x1="144.12" y1="65.78" x2="144.51" y2="66.71" stroke="#2a2a2a" stroke-width="0.32"/>
<circle cx="138.00" cy="63.00" r="1.50" fill="#0a0a0a"/>
<circle cx="138.00" cy="63.00" r="1.10" fill="#0c0c0c" stroke="#1a1a1a" stroke-width="0.25"/>
<circle cx="138.00" cy="63.00" r="1.10" fill="#cc3333" opacity="0.18"/>
<line x1="138.00" y1="67.00" x2="138.00" y2="69.00" stroke="#484848" stroke-width="0.55"/>
<circle cx="133.41" cy="62.09" r="1.30" fill="#0a0a0a"/>
<circle cx="133.41" cy="62.09" r="0.90" fill="#0c0c0c" stroke="#1a1a1a" stroke-width="0.25"/>
<circle cx="133.41" cy="62.09" r="0.90" fill="#22cc44" opacity="0.18"/>
<line x1="131.88" y1="65.78" x2="131.49" y2="66.71" stroke="#2a2a2a" stroke-width="0.32"/>
<circle cx="129.51" cy="59.49" r="1.30" fill="#0a0a0a"/>
<circle cx="129.51" cy="59.49" r="0.90" fill="#0c0c0c" stroke="#1a1a1a" stroke-width="0.25"/>
<circle cx="129.51" cy="59.49" r="0.90" fill="#22cc44" opacity="0.18"/>
<line x1="126.69" y1="62.31" x2="125.98" y2="63.02" stroke="#2a2a2a" stroke-width="0.32"/>
<circle cx="126.91" cy="55.59" r="1.30" fill="#0a0a0a"/>
<circle cx="126.91" cy="55.59" r="0.90" fill="#0c0c0c" stroke="#1a1a1a" stroke-width="0.25"/>
<circle cx="126.91" cy="55.59" r="0.90" fill="#22cc44" opacity="0.18"/>
<line x1="123.22" y1="57.12" x2="122.29" y2="57.51" stroke="#2a2a2a" stroke-width="0.32"/>
<circle cx="126.00" cy="51.00" r="1.50" fill="#0a0a0a"/>
<circle cx="126.00" cy="51.00" r="1.10" fill="#0c0c0c" stroke="#1a1a1a" stroke-width="0.25"/>
<circle cx="126.00" cy="51.00" r="1.10" fill="#cc3333" opacity="0.18"/>
<line x1="122.00" y1="51.00" x2="120.00" y2="51.00" stroke="#484848" stroke-width="0.55"/>
<circle cx="126.91" cy="46.41" r="1.30" fill="#0a0a0a"/>
<circle cx="126.91" cy="46.41" r="0.90" fill="#0c0c0c" stroke="#1a1a1a" stroke-width="0.25"/>
<circle cx="126.91" cy="46.41" r="0.90" fill="#22cc44" opacity="0.18"/>
<line x1="123.22" y1="44.88" x2="122.29" y2="44.49" stroke="#2a2a2a" stroke-width="0.32"/>
<circle cx="129.51" cy="42.51" r="1.30" fill="#0a0a0a"/>
<circle cx="129.51" cy="42.51" r="0.90" fill="#0c0c0c" stroke="#1a1a1a" stroke-width="0.25"/>
<circle cx="129.51" cy="42.51" r="0.90" fill="#22cc44" opacity="0.18"/>
<line x1="126.69" y1="39.69" x2="125.98" y2="38.98" stroke="#2a2a2a" stroke-width="0.32"/>
<circle cx="133.41" cy="39.91" r="1.30" fill="#0a0a0a"/>
<circle cx="133.41" cy="39.91" r="0.90" fill="#0c0c0c" stroke="#1a1a1a" stroke-width="0.25"/>
<circle cx="133.41" cy="39.91" r="0.90" fill="#22cc44" opacity="0.18"/>
<line x1="131.88" y1="36.22" x2="131.49" y2="35.29" stroke="#2a2a2a" stroke-width="0.32"/>
<circle cx="168" cy="16" r="2.50" fill="#141414" stroke="#0a0a0a" stroke-width="0.3"/>
<circle cx="168" cy="16" r="2.00" fill="#2a2a2a" stroke="#222" stroke-width="0.3"/>
<circle cx="167.72" cy="16.00" r="1.50" fill="#0a0a0a"/>
<circle cx="167.72" cy="16.00" r="1.10" fill="#0c0c0c" stroke="#1a1a1a" stroke-width="0.25"/>
<circle cx="167.72" cy="16.00" r="1.10" fill="#cc3333" opacity="0.18"/>
<circle cx="168" cy="29" r="2.50" fill="#141414" stroke="#0a0a0a" stroke-width="0.3"/>
<circle cx="168" cy="29" r="2.00" fill="#2a2a2a" stroke="#222" stroke-width="0.3"/>
<circle cx="167.72" cy="29.00" r="1.50" fill="#0a0a0a"/>
<circle cx="167.72" cy="29.00" r="1.10" fill="#0c0c0c" stroke="#1a1a1a" stroke-width="0.25"/>
<circle cx="167.72" cy="29.00" r="1.10" fill="#ffaa00" opacity="0.18"/>
<circle cx="168" cy="42" r="2.50" fill="#141414" stroke="#0a0a0a" stroke-width="0.3"/>
<circle cx="168" cy="42" r="2.00" fill="#2a2a2a" stroke="#222" stroke-width="0.3"/>
<circle cx="167.72" cy="42.00" r="1.50" fill="#0a0a0a"/>
<circle cx="167.72" cy="42.00" r="1.10" fill="#0c0c0c" stroke="#1a1a1a" stroke-width="0.25"/>
<circle cx="167.72" cy="42.00" r="1.10" fill="#ffaa00" opacity="0.18"/>
<circle cx="168" cy="55" r="2.50" fill="#141414" stroke="#0a0a0a" stroke-width="0.3"/>
<circle cx="168" cy="55" r="2.00" fill="#2a2a2a" stroke="#222" stroke-width="0.3"/>
<circle cx="167.72" cy="55.00" r="1.50" fill="#0a0a0a"/>
<circle cx="167.72" cy="55.00" r="1.10" fill="#0c0c0c" stroke="#1a1a1a" stroke-width="0.25"/>
<circle cx="167.72" cy="55.00" r="1.10" fill="#2288ff" opacity="0.18"/>
<line x1="2" y1="73.00" x2="170.72" y2="73.00" stroke="#2a2a2a" stroke-width="0.5"/>
<circle cx="12" cy="81.0" r="2.50" fill="#141414" stroke="#0a0a0a" stroke-width="0.3"/>
<circle cx="12" cy="81.0" r="2.00" fill="#2a2a2a" stroke="#222" stroke-width="0.3"/>
<circle cx="12.00" cy="86.50" r="1.50" fill="#0a0a0a"/>
<circle cx="12.00" cy="86.50" r="1.10" fill="#0c0c0c" stroke="#1a1a1a" stroke-width="0.25"/>
<circle cx="12.00" cy="86.50" r="1.10" fill="#cc3333" opacity="0.18"/>
<circle cx="26" cy="81.0" r="2.50" fill="#141414" stroke="#0a0a0a" stroke-width="0.3"/>
<circle cx="26" cy="81.0" r="2.00" fill="#2a2a2a" stroke="#222" stroke-width="0.3"/>
<circle cx="26.00" cy="86.50" r="1.50" fill="#0a0a0a"/>
<circle cx="26.00" cy="86.50" r="1.10" fill="#0c0c0c" stroke="#1a1a1a" stroke-width="0.25"/>
<circle cx="26.00" cy="86.50" r="1.10" fill="#cc3333" opacity="0.18"/>
<circle cx="40" cy="81.0" r="2.50" fill="#141414" stroke="#0a0a0a" stroke-width="0.3"/>
<circle cx="40" cy="81.0" r="2.00" fill="#2a2a2a" stroke="#222" stroke-width="0.3"/>
<circle cx="40.00" cy="86.50" r="1.50" fill="#0a0a0a"/>
<circle cx="40.00" cy="86.50" r="1.10" fill="#0c0c0c" stroke="#1a1a1a" stroke-width="0.25"/>
<circle cx="40.00" cy="86.50" r="1.10" fill="#2288ff" opacity="0.18"/>
<circle cx="54" cy="81.0" r="2.50" fill="#141414" stroke="#0a0a0a" stroke-width="0.3"/>
<circle cx="54" cy="81.0" r="2.00" fill="#2a2a2a" stroke="#222" stroke-width="0.3"/>
<circle cx="54.00" cy="86.50" r="1.50" fill="#0a0a0a"/>
<circle cx="54.00" cy="86.50" r="1.10" fill="#0c0c0c" stroke="#1a1a1a" stroke-width="0.25"/>
<circle cx="54.00" cy="86.50" r="1.10" fill="#cc3333" opacity="0.18"/>
<circle cx="68" cy="81.0" r="2.50" fill="#141414" stroke="#0a0a0a" stroke-width="0.3"/>
<circle cx="68" cy="81.0" r="2.00" fill="#2a2a2a" stroke="#222" stroke-width="0.3"/>
<circle cx="68.00" cy="86.50" r="1.50" fill="#0a0a0a"/>
<circle cx="68.00" cy="86.50" r="1.10" fill="#0c0c0c" stroke="#1a1a1a" stroke-width="0.25"/>
<circle cx="68.00" cy="86.50" r="1.10" fill="#cc3333" opacity="0.18"/>
<circle cx="82" cy="81.0" r="2.50" fill="#141414" stroke="#0a0a0a" stroke-width="0.3"/>
<circle cx="82" cy="81.0" r="2.00" fill="#2a2a2a" stroke="#222" stroke-width="0.3"/>
<circle cx="82.00" cy="86.50" r="1.50" fill="#0a0a0a"/>
<circle cx="82.00" cy="86.50" r="1.10" fill="#0c0c0c" stroke="#1a1a1a" stroke-width="0.25"/>
<circle cx="82.00" cy="86.50" r="1.10" fill="#2288ff" opacity="0.18"/>
<circle cx="102" cy="81.0" r="2.50" fill="#141414" stroke="#0a0a0a" stroke-width="0.3"/>
<circle cx="102" cy="81.0" r="2.00" fill="#2a2a2a" stroke="#222" stroke-width="0.3"/>
<circle cx="102.00" cy="86.50" r="1.50" fill="#0a0a0a"/>
<circle cx="102.00" cy="86.50" r="1.10" fill="#0c0c0c" stroke="#1a1a1a" stroke-width="0.25"/>
<circle cx="102.00" cy="86.50" r="1.10" fill="#cc3333" opacity="0.18"/>
<circle cx="122" cy="81.0" r="2.50" fill="#141414" stroke="#0a0a0a" stroke-width="0.3"/>
<circle cx="122" cy="81.0" r="2.00" fill="#2a2a2a" stroke="#222" stroke-width="0.3"/>
<circle cx="122.00" cy="86.50" r="1.50" fill="#0a0a0a"/>
<circle cx="122.00" cy="86.50" r="1.10" fill="#0c0c0c" stroke="#1a1a1a" stroke-width="0.25"/>
<circle cx="122.00" cy="86.50" r="1.10" fill="#22cc44" opacity="0.18"/>
<line x1="2" y1="90.00" x2="170.72" y2="90.00" stroke="#2a2a2a" stroke-width="0.5"/>
<circle cx="7.50" cy="96.00" r="3.10" fill="#111" stroke="#0a0a0a" stroke-width="0.3"/>
<circle cx="7.50" cy="96.00" r="2.50" fill="url(#jg)" stroke="#1a1a1a" stroke-width="0.25"/>
<circle cx="7.50" cy="96.00" r="0.90" fill="#050505"/>
<circle cx="17.50" cy="96.00" r="3.10" fill="#111" stroke="#0a0a0a" stroke-width="0.3"/>
<circle cx="17.50" cy="96.00" r="2.50" fill="url(#jg)" stroke="#1a1a1a" stroke-width="0.25"/>
<circle cx="17.50" cy="96.00" r="0.90" fill="#050505"/>
<circle cx="27.50" cy="96.00" r="3.10" fill="#111" stroke="#0a0a0a" stroke-width="0.3"/>
<circle cx="27.50" cy="96.00" r="2.50" fill="url(#jg)" stroke="#1a1a1a" stroke-width="0.25"/>
<circle cx="27.50" cy="96.00" r="0.90" fill="#050505"/>
<circle cx="37.50" cy="96.00" r="3.10" fill="#111" stroke="#0a0a0a" stroke-width="0.3"/>
<circle cx="37.50" cy="96.00" r="2.50" fill="url(#jg)" stroke="#1a1a1a" stroke-width="0.25"/>
<circle cx="37.50" cy="96.00" r="0.90" fill="#050505"/>
<circle cx="47.50" cy="96.00" r="3.10" fill="#111" stroke="#0a0a0a" stroke-width="0.3"/>
<circle cx="47.50" cy="96.00" r="2.50" fill="url(#jg)" stroke="#1a1a1a" stroke-width="0.25"/>
<circle cx="47.50" cy="96.00" r="0.90" fill="#050505"/>
<circle cx="57.50" cy="96.00" r="3.10" fill="#111" stroke="#0a0a0a" stroke-width="0.3"/>
<circle cx="57.50" cy="96.00" r="2.50" fill="url(#jg)" stroke="#1a1a1a" stroke-width="0.25"/>
<circle cx="57.50" cy="96.00" r="0.90" fill="#050505"/>
<circle cx="7.50" cy="105.00" r="3.10" fill="#111" stroke="#0a0a0a" stroke-width="0.3"/>
<circle cx="7.50" cy="105.00" r="2.50" fill="url(#jg)" stroke="#1a1a1a" stroke-width="0.25"/>
<circle cx="7.50" cy="105.00" r="0.90" fill="#050505"/>
<circle cx="17.50" cy="105.00" r="3.10" fill="#111" stroke="#0a0a0a" stroke-width="0.3"/>
<circle cx="17.50" cy="105.00" r="2.50" fill="url(#jg)" stroke="#1a1a1a" stroke-width="0.25"/>
<circle cx="17.50" cy="105.00" r="0.90" fill="#050505"/>
<circle cx="27.50" cy="105.00" r="3.10" fill="#111" stroke="#0a0a0a" stroke-width="0.3"/>
<circle cx="27.50" cy="105.00" r="2.50" fill="url(#jg)" stroke="#1a1a1a" stroke-width="0.25"/>
<circle cx="27.50" cy="105.00" r="0.90" fill="#050505"/>
<circle cx="37.50" cy="105.00" r="3.10" fill="#111" stroke="#0a0a0a" stroke-width="0.3"/>
<circle cx="37.50" cy="105.00" r="2.50" fill="url(#jg)" stroke="#1a1a1a" stroke-width="0.25"/>
<circle cx="37.50" cy="105.00" r="0.90" fill="#050505"/>
<circle cx="47.50" cy="105.00" r="3.10" fill="#111" stroke="#0a0a0a" stroke-width="0.3"/>
<circle cx="47.50" cy="105.00" r="2.50" fill="url(#jg)" stroke="#1a1a1a" stroke-width="0.25"/>
<circle cx="47.50" cy="105.00" r="0.90" fill="#050505"/>
<circle cx="57.50" cy="105.00" r="3.10" fill="#111" stroke="#0a0a0a" stroke-width="0.3"/>
<circle cx="57.50" cy="105.00" r="2.50" fill="url(#jg)" stroke="#1a1a1a" stroke-width="0.25"/>
<circle cx="57.50" cy="105.00" r="0.90" fill="#050505"/>
<circle cx="67.00" cy="105.00" r="3.10" fill="#111" stroke="#0a0a0a" stroke-width="0.3"/>
<circle cx="67.00" cy="105.00" r="2.50" fill="url(#jg)" stroke="#1a1a1a" stroke-width="0.25"/>
<circle cx="67.00" cy="105.00" r="0.90" fill="#050505"/>
<circle cx="77.00" cy="105.00" r="3.10" fill="#111" stroke="#0a0a0a" stroke-width="0.3"/>
<circle cx="77.00" cy="105.00" r="2.50" fill="url(#jg)" stroke="#1a1a1a" stroke-width="0.25"/>
<circle cx="77.00" cy="105.00" r="0.90" fill="#050505"/>
<circle cx="88.00" cy="105.00" r="3.10" fill="#111" stroke="#0a0a0a" stroke-width="0.3"/>
<circle cx="88.00" cy="105.00" r="2.50" fill="url(#jg)" stroke="#1a1a1a" stroke-width="0.25"/>
<circle cx="88.00" cy="105.00" r="0.90" fill="#050505"/>
<circle cx="98.00" cy="105.00" r="3.10" fill="#111" stroke="#0a0a0a" stroke-width="0.3"/>
<circle cx="98.00" cy="105.00" r="2.50" fill="url(#jg)" stroke="#1a1a1a" stroke-width="0.25"/>
<circle cx="98.00" cy="105.00" r="0.90" fill="#050505"/>
<circle cx="108.00" cy="105.00" r="3.10" fill="#111" stroke="#0a0a0a" stroke-width="0.3"/>
<circle cx="108.00" cy="105.00" r="2.50" fill="url(#jg)" stroke="#1a1a1a" stroke-width="0.25"/>
<circle cx="108.00" cy="105.00" r="0.90" fill="#050505"/>
<circle cx="118.00" cy="105.00" r="3.10" fill="#111" stroke="#0a0a0a" stroke-width="0.3"/>
<circle cx="118.00" cy="105.00" r="2.50" fill="url(#jg)" stroke="#1a1a1a" stroke-width="0.25"/>
<circle cx="118.00" cy="105.00" r="0.90" fill="#050505"/>
<circle cx="128.00" cy="105.00" r="3.10" fill="#111" stroke="#0a0a0a" stroke-width="0.3"/>
<circle cx="128.00" cy="105.00" r="2.50" fill="url(#jg)" stroke="#1a1a1a" stroke-width="0.25"/>
<circle cx="128.00" cy="105.00" r="0.90" fill="#050505"/>
<line x1="2" y1="112.50" x2="170.72" y2="112.50" stroke="#2a2a2a" stroke-width="0.5"/>
<line x1="88.0" y1="90.0" x2="88.0" y2="126.5" stroke="#2a2a2a" stroke-width="0.4"/>
<circle cx="14.00" cy="120.00" r="4.50" fill="#111111" stroke="#0a0a0a" stroke-width="0.4"/>
<circle cx="14.00" cy="120.00" r="3.50" fill="url(#jg)" stroke="#1a1a1a" stroke-width="0.3"/>
<circle cx="14.00" cy="120.00" r="1.33" fill="#050505"/>
<circle cx="30.00" cy="120.00" r="4.50" fill="#111111" stroke="#0a0a0a" stroke-width="0.4"/>
<circle cx="30.00" cy="120.00" r="3.50" fill="url(#jg)" stroke="#1a1a1a" stroke-width="0.3"/>
<circle cx="30.00" cy="120.00" r="1.33" fill="#050505"/>
<circle cx="46.00" cy="120.00" r="4.50" fill="#111111" stroke="#0a0a0a" stroke-width="0.4"/>
<circle cx="46.00" cy="120.00" r="3.50" fill="url(#jg)" stroke="#1a1a1a" stroke-width="0.3"/>
<circle cx="46.00" cy="120.00" r="1.33" fill="#050505"/>
<circle cx="62.00" cy="120.00" r="4.50" fill="#111111" stroke="#0a0a0a" stroke-width="0.4"/>
<circle cx="62.00" cy="120.00" r="3.50" fill="url(#jg)" stroke="#1a1a1a" stroke-width="0.3"/>
<circle cx="62.00" cy="120.00" r="1.33" fill="#050505"/>
<circle cx="78.00" cy="120.00" r="4.50" fill="#111111" stroke="#0a0a0a" stroke-width="0.4"/>
<circle cx="78.00" cy="120.00" r="3.50" fill="url(#jg)" stroke="#1a1a1a" stroke-width="0.3"/>
<circle cx="78.00" cy="120.00" r="1.33" fill="#050505"/>
<circle cx="95.00" cy="120.00" r="4.50" fill="#111111" stroke="#0a0a0a" stroke-width="0.4"/>
<circle cx="95.00" cy="120.00" r="3.50" fill="url(#jgo)" stroke="#1a1a1a" stroke-width="0.3"/>
<circle cx="95.00" cy="120.00" r="1.33" fill="#050505"/>
<circle cx="95.00" cy="120.00" r="2.38" fill="none" stroke="#8a6010" stroke-width="0.55" opacity="0.7"/>
<circle cx="111.00" cy="120.00" r="4.50" fill="#111111" stroke="#0a0a0a" stroke-width="0.4"/>
<circle cx="111.00" cy="120.00" r="3.50" fill="url(#jgo)" stroke="#1a1a1a" stroke-width="0.3"/>
<circle cx="111.00" cy="120.00" r="1.33" fill="#050505"/>
<circle cx="111.00" cy="120.00" r="2.38" fill="none" stroke="#8a6010" stroke-width="0.55" opacity="0.7"/>
<circle cx="127.00" cy="120.00" r="4.50" fill="#111111" stroke="#0a0a0a" stroke-width="0.4"/>
<circle cx="127.00" cy="120.00" r="3.50" fill="url(#jgo)" stroke="#1a1a1a" stroke-width="0.3"/>
<circle cx="127.00" cy="120.00" r="1.33" fill="#050505"/>
<circle cx="127.00" cy="120.00" r="2.38" fill="none" stroke="#8a6010" stroke-width="0.55" opacity="0.7"/>
<circle cx="143.00" cy="120.00" r="4.50" fill="#111111" stroke="#0a0a0a" stroke-width="0.4"/>
<circle cx="143.00" cy="120.00" r="3.50" fill="url(#jgo)" stroke="#1a1a1a" stroke-width="0.3"/>
<circle cx="143.00" cy="120.00" r="1.33" fill="#050505"/>
<circle cx="143.00" cy="120.00" r="2.38" fill="none" stroke="#8a6010" stroke-width="0.55" opacity="0.7"/>
<circle cx="159.00" cy="120.00" r="4.50" fill="#111111" stroke="#0a0a0a" stroke-width="0.4"/>
<circle cx="159.00" cy="120.00" r="3.50" fill="url(#jgo)" stroke="#1a1a1a" stroke-width="0.3"/>
<circle cx="159.00" cy="120.00" r="1.33" fill="#050505"/>
<circle cx="159.00" cy="120.00" r="2.38" fill="none" stroke="#8a6010" stroke-width="0.55" opacity="0.7"/>
</svg>