<?xml version="1.0" encoding="UTF-8"?>
<svg xmlns="http://www.w3.org/2000/svg" width="510.00" height="379.43" viewBox="0 0 172.72 128.5">
<defs>
<pattern id="grain" x="0" y="0" width="172.72" height="0.2" patternUnits="userSpaceOnUse">
  <rect width="172.72" height="0.2" fill="#1a1a1a"/>
  <rect y="0.110" width="172.72" height="0.050" fill="#222222" opacity="0.35"/>
</pattern>
<radialGradient id="jg" cx="38%" cy="32%" r="70%">
  <stop offset="0%"   stop-color="#3a3a3a"/>
  <stop offset="60%"  stop-color="#1e1e1e"/>
  <stop offset="100%" stop-color="#0a0a0a"/>
</radialGradient>
<radialGradient id="jgo" cx="36%" cy="30%" r="62%">
  <stop offset="0%"   stop-color="#806020"/>
  <stop offset="50%"  stop-color="#402808"/>
  <stop offset="100%" stop-color="#080400"/>
</radialGradient>
</defs>
<rect width="172.72" height="128.5" fill="#1a1a1a"/>
<rect width="172.72" height="128.5" fill="url(#grain)"/>
<rect x="0.5" y="0.5" width="171.72" height="127.50" fill="none" stroke="#0a0a0a" stroke-width="1.0"/>
<circle cx="4.5" cy="4.5" r="3.6" fill="#252525" stroke="#0a0a0a" stroke-width="0.5"/>
<circle cx="4.5" cy="4.5" r="2.2" fill="#1e1e1e" stroke="#333" stroke-width="0.3"/>
<line x1="3.51" y1="3.51" x2="5.49" y2="5.49" stroke="#444" stroke-width="0.4" stroke-linecap="round"/>
<line x1="3.51" y1="5.49" x2="5.49" y2="3.51" stroke="#444" stroke-width="0.4" stroke-linecap="round"/>
<circle cx="168.22" cy="4.5" r="3.6" fill="#252525" stroke="#0a0a0a" stroke-width="0.5"/>
<circle cx="168.22" cy="4.5" r="2.2" fill="#1e1e1e" stroke="#333" stroke-width="0.3"/>
<line x1="167.23" y1="3.51" x2="169.21" y2="5.49" stroke="#444" stroke-width="0.4" stroke-linecap="round"/>
<line x1="167.23" y1="5.49" x2="169.21" y2="3.51" stroke="#444" stroke-width="0.4" stroke-linecap="round"/>
<circle cx="4.5" cy="124.0" r="3.6" fill="#252525" stroke="#0a0a0a" stroke-width="0.5"/>
<circle cx="4.5" cy="124.0" r="2.2" fill="#1e1e1e" stroke="#333" stroke-width="0.3"/>
<line x1="3.51" y1="123.01" x2="5.49" y2="124.99" stroke="#444" stroke-width="0.4" stroke-linecap="round"/>
<line x1="3.51" y1="124.99" x2="5.49" y2="123.01" stroke="#444" stroke-width="0.4" stroke-linecap="round"/>
<circle cx="168.22" cy="124.0" r="3.6" fill="#252525" stroke="#0a0a0a" stroke-width="0.5"/>
<circle cx="168.22" cy="124.0" r="2.2" fill="#1e1e1e" stroke="#333" stroke-width="0.3"/>
<line x1="167.23" y1="123.01" x2="169.21" y2="124.99" stroke="#444" stroke-width="0.4" stroke-linecap="round"/>
<line x1="167.23" y1="124.99" x2="169.21" y2="123.01" stroke="#444" stroke-width="0.4" stroke-linecap="round"/>
<rect x="0" y="0" width="172.72" height="10.5" fill="#141414"/>
<line x1="2" y1="10.50" x2="170.72" y2="10.50" stroke="#2a2a2a" stroke-width="0.5"/>
<line x1="2" y1="11.50" x2="170.72" y2="11.50" stroke="#2a2a2a" stroke-width="0.5"/>
<line x1="2" y1="34.50" x2="170.72" y2="34.50" stroke="#2a2a2a" stroke-width="0.5"/>
<line x1="90" y1="34.50" x2="118" y2="34.50" stroke="#26a69a" stroke-width="0.5"/>
<line x1="92.0" y1="34.5" x2="92.0" y2="72.0" stroke="#2a2a2a" stroke-width="0.4"/>
<line x1="114.0" y1="34.5" x2="114.0" y2="72.0" stroke="#2a2a2a" stroke-width="0.4"/>
<line x1="162.0" y1="11.5" x2="162.0" y2="72.0" stroke="#2a2a2a" stroke-width="0.4"/>
<circle cx="138.0" cy="51.0" r="18.0" fill="#0e0e0e" stroke="#1a1a1a" stroke-width="0.8"/>
<circle cx="138.0" cy="51.0" r="8.5" fill="#141414"/>
<line x1="2" y1="73.00" x2="170.72" y2="73.00" stroke="#2a2a2a" stroke-width="0.5"/>
<line x1="2" y1="90.00" x2="170.72" y2="90.00" stroke="#2a2a2a" stroke-width="0.5"/>
<line x1="88.0" y1="90.0" x2="88.0" y2="126.5" stroke="#2a2a2a" stroke-width="0.4"/>
<line x1="2" y1="112.50" x2="170.72" y2="112.50" stroke="#2a2a2a" stroke-width="0.5"/>
</svg>
