<svg xmlns="http://www.w3.org/2000/svg" width="767.99" height="485.67" viewBox="0 0 767.99 485.67">
  <defs>
    <pattern id="grain" x="0" y="0" width="767.99" height="0.5" patternUnits="userSpaceOnUse">
      <rect width="767.99" height="0.5" fill="#141416"/>
      <rect y="0.25" width="767.99" height="0.12" fill="#2a2a2c" opacity="0.40"/>
    </pattern>
    <radialGradient id="gG" cx="50%" cy="50%" r="50%">
      <stop offset="0%" stop-color="#d4af37" stop-opacity="0.30"/>
      <stop offset="65%" stop-color="#d4af37" stop-opacity="0.03"/>
      <stop offset="100%" stop-color="#d4af37" stop-opacity="0.0"/>
    </radialGradient>
    <radialGradient id="gT" cx="50%" cy="50%" r="50%">
      <stop offset="0%" stop-color="#26a69a" stop-opacity="0.26"/>
      <stop offset="65%" stop-color="#26a69a" stop-opacity="0.03"/>
      <stop offset="100%" stop-color="#26a69a" stop-opacity="0.0"/>
    </radialGradient>
  </defs>
  <rect width="767.99" height="485.67" fill="url(#grain)"/>

  <g stroke="#333333" stroke-width="0.5" opacity="0.4">
    <line x1="0" y1="52.91" x2="767.99" y2="52.91"/>
    <line x1="0" y1="143.62" x2="767.99" y2="143.62"/>
    <line x1="0" y1="294.80" x2="767.99" y2="294.80"/>
    <line x1="0" y1="366.61" x2="767.99" y2="366.61"/>
    <line x1="0" y1="427.08" x2="767.99" y2="427.08"/>
    <line x1="340.16" y1="366.61" x2="340.16" y2="485.67" stroke-dasharray="2,2"/>
  </g>

  <g>
    <polygon points="52.91,52.91 90.71,71.81 90.71,109.61 52.91,128.50 15.12,109.61 15.12,71.81" fill="url(#gG)" stroke="none"/>
    <polygon points="139.84,52.91 177.64,71.81 177.64,109.61 139.84,128.50 102.05,109.61 102.05,71.81" fill="url(#gG)" stroke="none"/>
    <polygon points="226.77,52.91 264.56,71.81 264.56,109.61 226.77,128.50 188.97,109.61 188.97,71.81" fill="url(#gG)" stroke="none"/>
    <polygon points="313.70,52.91 351.49,71.81 351.49,109.61 313.70,128.50 275.90,109.61 275.90,71.81" fill="url(#gG)" stroke="none"/>
    <polygon points="400.63,52.91 438.42,71.81 438.42,109.61 400.63,128.50 362.83,109.61 362.83,71.81" fill="url(#gG)" stroke="none"/>
    <polygon points="529.13,64.25 555.59,79.37 555.59,102.05 529.13,117.16 502.67,102.05 502.67,79.37" fill="url(#gT)" stroke="none"/>
    <polygon points="616.06,64.25 642.51,79.37 642.51,102.05 616.06,117.16 589.60,102.05 589.60,79.37" fill="url(#gT)" stroke="none"/>
    <polygon points="702.99,64.25 729.44,79.37 729.44,102.05 702.99,117.16 676.53,102.05 676.53,79.37" fill="url(#gT)" stroke="none"/>
  </g>
  <g stroke="#6a6a6a" stroke-width="0.85" fill="none" opacity="0.62">
    <polygon points="52.91,52.91 90.71,71.81 90.71,109.61 52.91,128.50 15.12,109.61 15.12,71.81"/>
    <polygon points="139.84,52.91 177.64,71.81 177.64,109.61 139.84,128.50 102.05,109.61 102.05,71.81"/>
    <polygon points="226.77,52.91 264.56,71.81 264.56,109.61 226.77,128.50 188.97,109.61 188.97,71.81"/>
    <polygon points="313.70,52.91 351.49,71.81 351.49,109.61 313.70,128.50 275.90,109.61 275.90,71.81"/>
    <polygon points="400.63,52.91 438.42,71.81 438.42,109.61 400.63,128.50 362.83,109.61 362.83,71.81"/>
    <polygon points="529.13,64.25 555.59,79.37 555.59,102.05 529.13,117.16 502.67,102.05 502.67,79.37"/>
    <polygon points="616.06,64.25 642.51,79.37 642.51,102.05 616.06,117.16 589.60,102.05 589.60,79.37"/>
    <polygon points="702.99,64.25 729.44,79.37 729.44,102.05 702.99,117.16 676.53,102.05 676.53,79.37"/>
  </g>
  <g stroke="#888888" stroke-width="0.5" fill="none" opacity="0.50">
    <polygon points="52.91,68.03 75.59,79.37 75.59,102.05 52.91,113.39 30.24,102.05 30.24,79.37"/>
    <polygon points="139.84,68.03 162.52,79.37 162.52,102.05 139.84,113.39 117.16,102.05 117.16,79.37"/>
    <polygon points="226.77,68.03 249.45,79.37 249.45,102.05 226.77,113.39 204.09,102.05 204.09,79.37"/>
    <polygon points="313.70,68.03 336.38,79.37 336.38,102.05 313.70,113.39 291.02,102.05 291.02,79.37"/>
    <polygon points="400.63,68.03 423.30,79.37 423.30,102.05 400.63,113.39 377.95,102.05 377.95,79.37"/>
    <polygon points="529.13,75.59 544.25,83.15 544.25,98.27 529.13,105.83 514.01,98.27 514.01,83.15"/>
    <polygon points="616.06,75.59 631.18,83.15 631.18,98.27 616.06,105.83 600.94,98.27 600.94,83.15"/>
    <polygon points="702.99,75.59 718.11,83.15 718.11,98.27 702.99,105.83 687.87,98.27 687.87,83.15"/>
  </g>
  <g stroke="#999999" stroke-width="0.45" fill="none" opacity="0.38">
    <path d="M52.91,68.03 L52.91,52.91 M75.59,79.37 L90.71,71.81 M75.59,102.05 L90.71,109.61 M52.91,113.39 L52.91,128.50 M30.24,102.05 L15.12,109.61 M30.24,79.37 L15.12,71.81"/>
    <path d="M139.84,68.03 L139.84,52.91 M162.52,79.37 L177.64,71.81 M162.52,102.05 L177.64,109.61 M139.84,113.39 L139.84,128.50 M117.16,102.05 L102.05,109.61 M117.16,79.37 L102.05,71.81"/>
    <path d="M226.77,68.03 L226.77,52.91 M249.45,79.37 L264.56,71.81 M249.45,102.05 L264.56,109.61 M226.77,113.39 L226.77,128.50 M204.09,102.05 L188.97,109.61 M204.09,79.37 L188.97,71.81"/>
    <path d="M313.70,68.03 L313.70,52.91 M336.38,79.37 L351.49,71.81 M336.38,102.05 L351.49,109.61 M313.70,113.39 L313.70,128.50 M291.02,102.05 L275.90,109.61 M291.02,79.37 L275.90,71.81"/>
    <path d="M400.63,68.03 L400.63,52.91 M423.30,79.37 L438.42,71.81 M423.30,102.05 L438.42,109.61 M400.63,113.39 L400.63,128.50 M377.95,102.05 L362.83,109.61 M377.95,79.37 L362.83,71.81"/>
    <path d="M529.13,75.59 L529.13,64.25 M544.25,83.15 L555.59,79.37 M544.25,98.27 L555.59,102.05 M529.13,105.83 L529.13,117.16 M514.01,98.27 L502.67,102.05 M514.01,83.15 L502.67,79.37"/>
    <path d="M616.06,75.59 L616.06,64.25 M631.18,83.15 L642.51,79.37 M631.18,98.27 L642.51,102.05 M616.06,105.83 L616.06,117.16 M600.94,98.27 L589.60,102.05 M600.94,83.15 L589.60,79.37"/>
    <path d="M702.99,75.59 L702.99,64.25 M718.11,83.15 L729.44,79.37 M718.11,98.27 L729.44,102.05 M702.99,105.83 L702.99,117.16 M687.87,98.27 L676.53,102.05 M687.87,83.15 L676.53,79.37"/>
  </g>
  <g fill="#d4af37" opacity="0.65">
    <circle cx="52.91" cy="68.03" r="1.4"/>
    <circle cx="75.59" cy="79.37" r="1.4"/>
    <circle cx="75.59" cy="102.05" r="1.4"/>
    <circle cx="52.91" cy="113.39" r="1.4"/>
    <circle cx="30.24" cy="102.05" r="1.4"/>
    <circle cx="30.24" cy="79.37" r="1.4"/>
    <circle cx="139.84" cy="68.03" r="1.4"/>
    <circle cx="162.52" cy="79.37" r="1.4"/>
    <circle cx="162.52" cy="102.05" r="1.4"/>
    <circle cx="139.84" cy="113.39" r="1.4"/>
    <circle cx="117.16" cy="102.05" r="1.4"/>
    <circle cx="117.16" cy="79.37" r="1.4"/>
    <circle cx="226.77" cy="68.03" r="1.4"/>
    <circle cx="249.45" cy="79.37" r="1.4"/>
    <circle cx="249.45" cy="102.05" r="1.4"/>
    <circle cx="226.77" cy="113.39" r="1.4"/>
    <circle cx="204.09" cy="102.05" r="1.4"/>
    <circle cx="204.09" cy="79.37" r="1.4"/>
    <circle cx="313.70" cy="68.03" r="1.4"/>
    <circle cx="336.38" cy="79.37" r="1.4"/>
    <circle cx="336.38" cy="102.05" r="1.4"/>
    <circle cx="313.70" cy="113.39" r="1.4"/>
    <circle cx="291.02" cy="102.05" r="1.4"/>
    <circle cx="291.02" cy="79.37" r="1.4"/>
    <circle cx="400.63" cy="68.03" r="1.4"/>
    <circle cx="423.30" cy="79.37" r="1.4"/>
    <circle cx="423.30" cy="102.05" r="1.4"/>
    <circle cx="400.63" cy="113.39" r="1.4"/>
    <circle cx="377.95" cy="102.05" r="1.4"/>
    <circle cx="377.95" cy="79.37" r="1.4"/>
    <circle cx="529.13" cy="75.59" r="1.1"/>
    <circle cx="544.25" cy="83.15" r="1.1"/>
    <circle cx="544.25" cy="98.27" r="1.1"/>
    <circle cx="529.13" cy="105.83" r="1.1"/>
    <circle cx="514.01" cy="98.27" r="1.1"/>
    <circle cx="514.01" cy="83.15" r="1.1"/>
    <circle cx="616.06" cy="75.59" r="1.1"/>
    <circle cx="631.18" cy="83.15" r="1.1"/>
    <circle cx="631.18" cy="98.27" r="1.1"/>
    <circle cx="616.06" cy="105.83" r="1.1"/>
    <circle cx="600.94" cy="98.27" r="1.1"/>
    <circle cx="600.94" cy="83.15" r="1.1"/>
    <circle cx="702.99" cy="75.59" r="1.1"/>
    <circle cx="718.11" cy="83.15" r="1.1"/>
    <circle cx="718.11" cy="98.27" r="1.1"/>
    <circle cx="702.99" cy="105.83" r="1.1"/>
    <circle cx="687.87" cy="98.27" r="1.1"/>
    <circle cx="687.87" cy="83.15" r="1.1"/>
  </g>
  <g stroke="#777777" stroke-width="0.4" fill="none" opacity="0.45">
    <polygon points="96.38,79.37 107.72,90.71 96.38,102.05 85.04,90.71"/>
    <polygon points="183.31,79.37 194.64,90.71 183.31,102.05 171.97,90.71"/>
    <polygon points="270.23,79.37 281.57,90.71 270.23,102.05 258.90,90.71"/>
    <polygon points="357.16,79.37 368.50,90.71 357.16,102.05 345.82,90.71"/>
    <polygon points="464.88,79.37 476.22,90.71 464.88,102.05 453.54,90.71"/>
    <polygon points="572.59,79.37 583.93,90.71 572.59,102.05 561.26,90.71"/>
    <polygon points="659.52,79.37 670.86,90.71 659.52,102.05 648.18,90.71"/>
  </g>

  <g stroke="#d4af37" stroke-width="0.5" fill="none" opacity="0.38">
    <polygon points="28.35,210.71 41.57,225.83 28.35,240.94 15.12,225.83"/>
    <line x1="21.73" y1="170.08" x2="21.73" y2="285.35" stroke-width="0.25" opacity="0.4"/>
    <polygon points="52.91,210.71 66.14,225.83 52.91,240.94 39.68,225.83"/>
    <line x1="46.30" y1="170.08" x2="46.30" y2="285.35" stroke-width="0.25" opacity="0.4"/>
    <polygon points="77.48,210.71 90.71,225.83 77.48,240.94 64.25,225.83"/>
    <line x1="70.87" y1="170.08" x2="70.87" y2="285.35" stroke-width="0.25" opacity="0.4"/>
    <polygon points="102.05,210.71 115.27,225.83 102.05,240.94 88.82,225.83"/>
    <line x1="95.43" y1="170.08" x2="95.43" y2="285.35" stroke-width="0.25" opacity="0.4"/>
    <polygon points="126.61,210.71 139.84,225.83 126.61,240.94 113.39,225.83"/>
    <line x1="120.00" y1="170.08" x2="120.00" y2="285.35" stroke-width="0.25" opacity="0.4"/>
    <polygon points="151.18,210.71 164.41,225.83 151.18,240.94 137.95,225.83"/>
    <line x1="144.57" y1="170.08" x2="144.57" y2="285.35" stroke-width="0.25" opacity="0.4"/>
    <polygon points="175.75,210.71 188.97,225.83 175.75,240.94 162.52,225.83"/>
    <line x1="169.13" y1="170.08" x2="169.13" y2="285.35" stroke-width="0.25" opacity="0.4"/>
    <polygon points="200.31,210.71 213.54,225.83 200.31,240.94 187.09,225.83"/>
    <line x1="193.70" y1="170.08" x2="193.70" y2="285.35" stroke-width="0.25" opacity="0.4"/>
    <polygon points="224.88,210.71 238.11,225.83 224.88,240.94 211.65,225.83"/>
    <line x1="218.27" y1="170.08" x2="218.27" y2="285.35" stroke-width="0.25" opacity="0.4"/>
    <polygon points="249.45,210.71 262.68,225.83 249.45,240.94 236.22,225.83"/>
    <line x1="242.83" y1="170.08" x2="242.83" y2="285.35" stroke-width="0.25" opacity="0.4"/>
    <polygon points="274.01,210.71 287.24,225.83 274.01,240.94 260.79,225.83"/>
    <line x1="267.40" y1="170.08" x2="267.40" y2="285.35" stroke-width="0.25" opacity="0.4"/>
    <polygon points="298.58,210.71 311.81,225.83 298.58,240.94 285.35,225.83"/>
    <line x1="291.97" y1="170.08" x2="291.97" y2="285.35" stroke-width="0.25" opacity="0.4"/>
    <polygon points="377.95,210.71 391.18,225.83 377.95,240.94 364.72,225.83"/>
    <line x1="371.34" y1="170.08" x2="371.34" y2="285.35" stroke-width="0.25" opacity="0.4"/>
    <polygon points="408.19,210.71 421.41,225.83 408.19,240.94 394.96,225.83"/>
    <line x1="401.57" y1="170.08" x2="401.57" y2="285.35" stroke-width="0.25" opacity="0.4"/>
  </g>

  <g fill="url(#gT)">
    <circle cx="491.34" cy="234.33" r="68.03" stroke="none"/>
  </g>
  <g stroke="#6a6a6a" stroke-width="0.7" fill="none" opacity="0.58">
    <circle cx="491.34" cy="234.33" r="60.47"/>
    <circle cx="491.34" cy="234.33" r="68.03" stroke-width="0.35" opacity="0.4"/>
  </g>
  <g stroke="#d4af37" stroke-width="0.6" opacity="0.60">
    <line x1="491.34" y1="179.53" x2="491.34" y2="168.19"/>
    <line x1="512.31" y1="183.70" x2="516.65" y2="173.22"/>
    <line x1="530.09" y1="195.58" x2="538.10" y2="187.56"/>
    <line x1="541.97" y1="213.36" x2="552.44" y2="209.02"/>
    <line x1="546.14" y1="234.33" x2="557.48" y2="234.33"/>
    <line x1="541.97" y1="255.30" x2="552.44" y2="259.64"/>
    <line x1="530.09" y1="273.08" x2="538.10" y2="281.10"/>
    <line x1="512.31" y1="284.96" x2="516.65" y2="295.44"/>
    <line x1="491.34" y1="289.13" x2="491.34" y2="300.47"/>
    <line x1="470.36" y1="284.96" x2="466.02" y2="295.44"/>
    <line x1="452.58" y1="273.08" x2="444.57" y2="281.10"/>
    <line x1="440.70" y1="255.30" x2="430.23" y2="259.64"/>
    <line x1="436.53" y1="234.33" x2="425.19" y2="234.33"/>
    <line x1="440.70" y1="213.36" x2="430.23" y2="209.02"/>
    <line x1="452.58" y1="195.58" x2="444.57" y2="187.56"/>
    <line x1="470.36" y1="183.70" x2="466.02" y2="173.22"/>
  </g>

  <g fill="url(#gT)">
    <polygon points="559.37,304.25 572.59,317.48 559.37,330.71 546.14,317.48" stroke="none"/>
    <polygon points="597.16,304.25 610.39,317.48 597.16,330.71 583.93,317.48" stroke="none"/>
    <polygon points="634.96,304.25 648.18,317.48 634.96,330.71 621.73,317.48" stroke="none"/>
    <polygon points="672.75,304.25 685.98,317.48 672.75,330.71 659.52,317.48" stroke="none"/>
    <polygon points="710.55,304.25 723.77,317.48 710.55,330.71 697.32,317.48" stroke="none"/>
    <polygon points="748.34,304.25 761.57,317.48 748.34,330.71 735.11,317.48" stroke="none"/>
  </g>
  <g stroke="#777777" stroke-width="0.4" fill="none" opacity="0.42">
    <polygon points="559.37,304.25 572.59,317.48 559.37,330.71 546.14,317.48"/>
    <polygon points="597.16,304.25 610.39,317.48 597.16,330.71 583.93,317.48"/>
    <polygon points="634.96,304.25 648.18,317.48 634.96,330.71 621.73,317.48"/>
    <polygon points="672.75,304.25 685.98,317.48 672.75,330.71 659.52,317.48"/>
    <polygon points="710.55,304.25 723.77,317.48 710.55,330.71 697.32,317.48"/>
    <polygon points="748.34,304.25 761.57,317.48 748.34,330.71 735.11,317.48"/>
  </g>

  <g>
    <polygon points="52.91,376.06 71.81,385.51 71.81,400.63 52.91,410.08 34.02,400.63 34.02,385.51" fill="url(#gT)" stroke="none"/>
    <polygon points="113.39,376.06 132.28,385.51 132.28,400.63 113.39,410.08 94.49,400.63 94.49,385.51" fill="url(#gT)" stroke="none"/>
    <polygon points="173.86,376.06 192.75,385.51 192.75,400.63 173.86,410.08 154.96,400.63 154.96,385.51" fill="url(#gT)" stroke="none"/>
    <polygon points="234.33,376.06 253.23,385.51 253.23,400.63 234.33,410.08 215.43,400.63 215.43,385.51" fill="url(#gT)" stroke="none"/>
    <polygon points="294.80,376.06 313.70,385.51 313.70,400.63 294.80,410.08 275.90,400.63 275.90,385.51" fill="url(#gT)" stroke="none"/>
  </g>
  <g stroke="#6a6a6a" stroke-width="0.5" fill="none" opacity="0.52">
    <polygon points="52.91,376.06 71.81,385.51 71.81,400.63 52.91,410.08 34.02,400.63 34.02,385.51"/>
    <polygon points="113.39,376.06 132.28,385.51 132.28,400.63 113.39,410.08 94.49,400.63 94.49,385.51"/>
    <polygon points="173.86,376.06 192.75,385.51 192.75,400.63 173.86,410.08 154.96,400.63 154.96,385.51"/>
    <polygon points="234.33,376.06 253.23,385.51 253.23,400.63 234.33,410.08 215.43,400.63 215.43,385.51"/>
    <polygon points="294.80,376.06 313.70,385.51 313.70,400.63 294.80,410.08 275.90,400.63 275.90,385.51"/>
  </g>
  <g>
    <polygon points="52.91,438.42 71.81,447.87 71.81,462.99 52.91,472.44 34.02,462.99 34.02,447.87" fill="url(#gT)" stroke="none"/>
    <polygon points="113.39,438.42 132.28,447.87 132.28,462.99 113.39,472.44 94.49,462.99 94.49,447.87" fill="url(#gT)" stroke="none"/>
    <polygon points="173.86,438.42 192.75,447.87 192.75,462.99 173.86,472.44 154.96,462.99 154.96,447.87" fill="url(#gT)" stroke="none"/>
    <polygon points="234.33,438.42 253.23,447.87 253.23,462.99 234.33,472.44 215.43,462.99 215.43,447.87" fill="url(#gT)" stroke="none"/>
    <polygon points="294.80,438.42 313.70,447.87 313.70,462.99 294.80,472.44 275.90,462.99 275.90,447.87" fill="url(#gT)" stroke="none"/>
  </g>
  <g stroke="#6a6a6a" stroke-width="0.5" fill="none" opacity="0.52">
    <polygon points="52.91,438.42 71.81,447.87 71.81,462.99 52.91,472.44 34.02,462.99 34.02,447.87"/>
    <polygon points="113.39,438.42 132.28,447.87 132.28,462.99 113.39,472.44 94.49,462.99 94.49,447.87"/>
    <polygon points="173.86,438.42 192.75,447.87 192.75,462.99 173.86,472.44 154.96,462.99 154.96,447.87"/>
    <polygon points="234.33,438.42 253.23,447.87 253.23,462.99 234.33,472.44 215.43,462.99 215.43,447.87"/>
    <polygon points="294.80,438.42 313.70,447.87 313.70,462.99 294.80,472.44 275.90,462.99 275.90,447.87"/>
  </g>
  <g>
    <polygon points="377.95,376.06 396.85,385.51 396.85,400.63 377.95,410.08 359.05,400.63 359.05,385.51" fill="url(#gG)" stroke="none"/>
    <polygon points="427.08,376.06 445.98,385.51 445.98,400.63 427.08,410.08 408.19,400.63 408.19,385.51" fill="url(#gG)" stroke="none"/>
    <polygon points="476.22,376.06 495.11,385.51 495.11,400.63 476.22,410.08 457.32,400.63 457.32,385.51" fill="url(#gG)" stroke="none"/>
    <polygon points="525.35,376.06 544.25,385.51 544.25,400.63 525.35,410.08 506.45,400.63 506.45,385.51" fill="url(#gG)" stroke="none"/>
    <polygon points="574.48,376.06 593.38,385.51 593.38,400.63 574.48,410.08 555.59,400.63 555.59,385.51" fill="url(#gG)" stroke="none"/>
  </g>
  <g stroke="#6a6a6a" stroke-width="0.5" fill="none" opacity="0.52">
    <polygon points="377.95,376.06 396.85,385.51 396.85,400.63 377.95,410.08 359.05,400.63 359.05,385.51"/>
    <polygon points="427.08,376.06 445.98,385.51 445.98,400.63 427.08,410.08 408.19,400.63 408.19,385.51"/>
    <polygon points="476.22,376.06 495.11,385.51 495.11,400.63 476.22,410.08 457.32,400.63 457.32,385.51"/>
    <polygon points="525.35,376.06 544.25,385.51 544.25,400.63 525.35,410.08 506.45,400.63 506.45,385.51"/>
    <polygon points="574.48,376.06 593.38,385.51 593.38,400.63 574.48,410.08 555.59,400.63 555.59,385.51"/>
  </g>
  <g>
    <polygon points="377.95,438.42 396.85,447.87 396.85,462.99 377.95,472.44 359.05,462.99 359.05,447.87" fill="url(#gG)" stroke="none"/>
    <polygon points="427.08,438.42 445.98,447.87 445.98,462.99 427.08,472.44 408.19,462.99 408.19,447.87" fill="url(#gG)" stroke="none"/>
    <polygon points="476.22,438.42 495.11,447.87 495.11,462.99 476.22,472.44 457.32,462.99 457.32,447.87" fill="url(#gG)" stroke="none"/>
    <polygon points="525.35,438.42 544.25,447.87 544.25,462.99 525.35,472.44 506.45,462.99 506.45,447.87" fill="url(#gG)" stroke="none"/>
  </g>
  <g stroke="#6a6a6a" stroke-width="0.5" fill="none" opacity="0.52">
    <polygon points="377.95,438.42 396.85,447.87 396.85,462.99 377.95,472.44 359.05,462.99 359.05,447.87"/>
    <polygon points="427.08,438.42 445.98,447.87 445.98,462.99 427.08,472.44 408.19,462.99 408.19,447.87"/>
    <polygon points="476.22,438.42 495.11,447.87 495.11,462.99 476.22,472.44 457.32,462.99 457.32,447.87"/>
    <polygon points="525.35,438.42 544.25,447.87 544.25,462.99 525.35,472.44 506.45,462.99 506.45,447.87"/>
  </g>
  <g stroke="#777777" stroke-width="0.35" fill="none" opacity="0.38">
    <polygon points="83.15,383.62 92.60,393.07 83.15,402.52 73.70,393.07"/>
    <polygon points="143.62,383.62 153.07,393.07 143.62,402.52 134.17,393.07"/>
    <polygon points="204.09,383.62 213.54,393.07 204.09,402.52 194.64,393.07"/>
    <polygon points="264.56,383.62 274.01,393.07 264.56,402.52 255.12,393.07"/>
    <polygon points="83.15,445.98 92.60,455.43 83.15,464.88 73.70,455.43"/>
    <polygon points="143.62,445.98 153.07,455.43 143.62,464.88 134.17,455.43"/>
    <polygon points="204.09,445.98 213.54,455.43 204.09,464.88 194.64,455.43"/>
    <polygon points="264.56,445.98 274.01,455.43 264.56,464.88 255.12,455.43"/>
    <polygon points="402.52,383.62 411.97,393.07 402.52,402.52 393.07,393.07"/>
    <polygon points="451.65,383.62 461.10,393.07 451.65,402.52 442.20,393.07"/>
    <polygon points="500.78,383.62 510.23,393.07 500.78,402.52 491.34,393.07"/>
    <polygon points="549.92,383.62 559.37,393.07 549.92,402.52 540.47,393.07"/>
    <polygon points="402.52,445.98 411.97,455.43 402.52,464.88 393.07,455.43"/>
    <polygon points="451.65,445.98 461.10,455.43 451.65,464.88 442.20,455.43"/>
    <polygon points="500.78,445.98 510.23,455.43 500.78,464.88 491.34,455.43"/>
  </g>

  <g fill="none" stroke="#26a69a" opacity="0.38">
    <polygon points="7.56,75.59 18.90,90.71 7.56,105.83 -3.78,90.71" stroke-width="0.5"/>
    <circle cx="7.56" cy="90.71" r="1.4" fill="#26a69a" stroke="none"/>
    <polygon points="760.44,75.59 771.77,90.71 760.44,105.83 749.10,90.71" stroke-width="0.5"/>
    <circle cx="760.44" cy="90.71" r="1.4" fill="#26a69a" stroke="none"/>
    <polygon points="7.56,210.71 18.90,225.83 7.56,240.94 -3.78,225.83" stroke-width="0.5"/>
    <circle cx="7.56" cy="225.83" r="1.4" fill="#26a69a" stroke="none"/>
    <polygon points="760.44,210.71 771.77,225.83 760.44,240.94 749.10,225.83" stroke-width="0.5"/>
    <circle cx="760.44" cy="225.83" r="1.4" fill="#26a69a" stroke="none"/>
    <polygon points="7.56,302.36 18.90,317.48 7.56,332.60 -3.78,317.48" stroke-width="0.5"/>
    <circle cx="7.56" cy="317.48" r="1.4" fill="#26a69a" stroke="none"/>
    <polygon points="760.44,302.36 771.77,317.48 760.44,332.60 749.10,317.48" stroke-width="0.5"/>
    <circle cx="760.44" cy="317.48" r="1.4" fill="#26a69a" stroke="none"/>
    <polygon points="7.56,377.95 18.90,393.07 7.56,408.19 -3.78,393.07" stroke-width="0.5"/>
    <circle cx="7.56" cy="393.07" r="1.4" fill="#26a69a" stroke="none"/>
    <polygon points="760.44,377.95 771.77,393.07 760.44,408.19 749.10,393.07" stroke-width="0.5"/>
    <circle cx="760.44" cy="393.07" r="1.4" fill="#26a69a" stroke="none"/>
    <polygon points="7.56,440.31 18.90,455.43 7.56,470.55 -3.78,455.43" stroke-width="0.5"/>
    <circle cx="7.56" cy="455.43" r="1.4" fill="#26a69a" stroke="none"/>
    <polygon points="760.44,440.31 771.77,455.43 760.44,470.55 749.10,455.43" stroke-width="0.5"/>
    <circle cx="760.44" cy="455.43" r="1.4" fill="#26a69a" stroke="none"/>
  </g>
  <circle cx="752.88" cy="15.12" r="4" fill="#dc2626"/>

  <g fill="none" stroke-width="0.6" opacity="0.40">
    <g stroke="#d4af37">
      <circle cx="52.91" cy="90.71" r="32.13"/>
      <circle cx="139.84" cy="90.71" r="26.46"/>
      <circle cx="226.77" cy="90.71" r="26.46"/>
      <circle cx="313.70" cy="90.71" r="26.46"/>
      <circle cx="400.63" cy="90.71" r="26.46"/>
    </g>
    <g stroke="#888888">
      <circle cx="529.13" cy="90.71" r="18.90"/>
      <circle cx="616.06" cy="90.71" r="18.90"/>
      <circle cx="702.99" cy="90.71" r="18.90"/>
    </g>
  </g>
  <g fill="none" stroke-width="0.7">
    <g stroke="#666666" opacity="0.55">
      <circle cx="52.91" cy="393.07" r="14.74"/>
      <circle cx="113.39" cy="393.07" r="14.74"/>
      <circle cx="173.86" cy="393.07" r="14.74"/>
      <circle cx="234.33" cy="393.07" r="14.74"/>
      <circle cx="294.80" cy="393.07" r="14.74"/>
      <circle cx="52.91" cy="455.43" r="14.74"/>
      <circle cx="113.39" cy="455.43" r="14.74"/>
      <circle cx="173.86" cy="455.43" r="14.74"/>
      <circle cx="234.33" cy="455.43" r="14.74"/>
      <circle cx="294.80" cy="455.43" r="14.74"/>
    </g>
    <g stroke="#d4af37" opacity="0.55">
      <circle cx="377.95" cy="393.07" r="14.74"/>
      <circle cx="427.08" cy="393.07" r="14.74"/>
      <circle cx="476.22" cy="393.07" r="14.74"/>
      <circle cx="525.35" cy="393.07" r="14.74"/>
      <circle cx="574.48" cy="393.07" r="14.74"/>
      <circle cx="377.95" cy="455.43" r="14.74"/>
      <circle cx="427.08" cy="455.43" r="14.74"/>
      <circle cx="476.22" cy="455.43" r="14.74"/>
      <circle cx="525.35" cy="455.43" r="14.74"/>
    </g>
  </g>
</svg>