<svg xmlns="http://www.w3.org/2000/svg" xmlns:inkscape="http://www.inkscape.org/namespaces/inkscape" width="600.0" height="379.43" viewBox="0 0 600.0 379.43">
<g inkscape:label="artwork" inkscape:groupmode="layer">
<rect width="600.0" height="379.43" fill="#16181c"/>
<g opacity="0.16">
<polygon points="46.1,379.4 60.2,379.4 56.1,212.6 50.2,212.6" fill="#2a3038"/>
<ellipse cx="53.1" cy="212.6" rx="38.4" ry="11.5" fill="#323a44"/>
<line x1="53.1" y1="212.6" x2="11.4" y2="209.3" stroke="#323a44" stroke-width="0.7"/>
<line x1="53.1" y1="212.6" x2="16.3" y2="202.3" stroke="#323a44" stroke-width="0.7"/>
<line x1="53.1" y1="212.6" x2="25.7" y2="196.5" stroke="#323a44" stroke-width="0.7"/>
<line x1="53.1" y1="212.6" x2="38.5" y2="192.8" stroke="#323a44" stroke-width="0.7"/>
<line x1="53.1" y1="212.6" x2="53.1" y2="191.5" stroke="#323a44" stroke-width="0.7"/>
<line x1="53.1" y1="212.6" x2="67.8" y2="192.8" stroke="#323a44" stroke-width="0.7"/>
<line x1="53.1" y1="212.6" x2="80.6" y2="196.5" stroke="#323a44" stroke-width="0.7"/>
<line x1="53.1" y1="212.6" x2="90.0" y2="202.3" stroke="#323a44" stroke-width="0.7"/>
<line x1="53.1" y1="212.6" x2="94.8" y2="209.3" stroke="#323a44" stroke-width="0.7"/>
<polygon points="155.3,379.4 169.5,379.4 165.3,177.2 159.4,177.2" fill="#2a3038"/>
<ellipse cx="162.4" cy="177.2" rx="47.2" ry="14.2" fill="#323a44"/>
<line x1="162.4" y1="177.2" x2="111.1" y2="173.1" stroke="#323a44" stroke-width="0.7"/>
<line x1="162.4" y1="177.2" x2="117.1" y2="164.5" stroke="#323a44" stroke-width="0.7"/>
<line x1="162.4" y1="177.2" x2="128.7" y2="157.4" stroke="#323a44" stroke-width="0.7"/>
<line x1="162.4" y1="177.2" x2="144.4" y2="152.8" stroke="#323a44" stroke-width="0.7"/>
<line x1="162.4" y1="177.2" x2="162.4" y2="151.2" stroke="#323a44" stroke-width="0.7"/>
<line x1="162.4" y1="177.2" x2="180.4" y2="152.8" stroke="#323a44" stroke-width="0.7"/>
<line x1="162.4" y1="177.2" x2="196.2" y2="157.4" stroke="#323a44" stroke-width="0.7"/>
<line x1="162.4" y1="177.2" x2="207.7" y2="164.5" stroke="#323a44" stroke-width="0.7"/>
<line x1="162.4" y1="177.2" x2="213.7" y2="173.1" stroke="#323a44" stroke-width="0.7"/>
<polygon points="273.4,379.4 287.6,379.4 283.5,230.3 277.6,230.3" fill="#2a3038"/>
<ellipse cx="280.5" cy="230.3" rx="32.5" ry="9.7" fill="#323a44"/>
<line x1="280.5" y1="230.3" x2="245.2" y2="227.5" stroke="#323a44" stroke-width="0.7"/>
<line x1="280.5" y1="230.3" x2="249.3" y2="221.6" stroke="#323a44" stroke-width="0.7"/>
<line x1="280.5" y1="230.3" x2="257.3" y2="216.7" stroke="#323a44" stroke-width="0.7"/>
<line x1="280.5" y1="230.3" x2="268.1" y2="213.6" stroke="#323a44" stroke-width="0.7"/>
<line x1="280.5" y1="230.3" x2="280.5" y2="212.4" stroke="#323a44" stroke-width="0.7"/>
<line x1="280.5" y1="230.3" x2="292.9" y2="213.6" stroke="#323a44" stroke-width="0.7"/>
<line x1="280.5" y1="230.3" x2="303.7" y2="216.7" stroke="#323a44" stroke-width="0.7"/>
<line x1="280.5" y1="230.3" x2="311.7" y2="221.6" stroke="#323a44" stroke-width="0.7"/>
<line x1="280.5" y1="230.3" x2="315.8" y2="227.5" stroke="#323a44" stroke-width="0.7"/>
<polygon points="376.8,379.4 390.9,379.4 386.8,189.0 380.9,189.0" fill="#2a3038"/>
<ellipse cx="383.9" cy="189.0" rx="41.3" ry="12.4" fill="#323a44"/>
<line x1="383.9" y1="189.0" x2="338.9" y2="185.4" stroke="#323a44" stroke-width="0.7"/>
<line x1="383.9" y1="189.0" x2="344.2" y2="177.9" stroke="#323a44" stroke-width="0.7"/>
<line x1="383.9" y1="189.0" x2="354.3" y2="171.7" stroke="#323a44" stroke-width="0.7"/>
<line x1="383.9" y1="189.0" x2="368.1" y2="167.7" stroke="#323a44" stroke-width="0.7"/>
<line x1="383.9" y1="189.0" x2="383.9" y2="166.2" stroke="#323a44" stroke-width="0.7"/>
<line x1="383.9" y1="189.0" x2="399.6" y2="167.7" stroke="#323a44" stroke-width="0.7"/>
<line x1="383.9" y1="189.0" x2="413.4" y2="171.7" stroke="#323a44" stroke-width="0.7"/>
<line x1="383.9" y1="189.0" x2="423.5" y2="177.9" stroke="#323a44" stroke-width="0.7"/>
<line x1="383.9" y1="189.0" x2="428.8" y2="185.4" stroke="#323a44" stroke-width="0.7"/>
<polygon points="480.1,379.4 494.3,379.4 490.2,206.7 484.2,206.7" fill="#2a3038"/>
<ellipse cx="487.2" cy="206.7" rx="35.4" ry="10.6" fill="#323a44"/>
<line x1="487.2" y1="206.7" x2="448.7" y2="203.6" stroke="#323a44" stroke-width="0.7"/>
<line x1="487.2" y1="206.7" x2="453.2" y2="197.2" stroke="#323a44" stroke-width="0.7"/>
<line x1="487.2" y1="206.7" x2="461.9" y2="191.9" stroke="#323a44" stroke-width="0.7"/>
<line x1="487.2" y1="206.7" x2="473.7" y2="188.4" stroke="#323a44" stroke-width="0.7"/>
<line x1="487.2" y1="206.7" x2="487.2" y2="187.2" stroke="#323a44" stroke-width="0.7"/>
<line x1="487.2" y1="206.7" x2="500.7" y2="188.4" stroke="#323a44" stroke-width="0.7"/>
<line x1="487.2" y1="206.7" x2="512.5" y2="191.9" stroke="#323a44" stroke-width="0.7"/>
<line x1="487.2" y1="206.7" x2="521.2" y2="197.2" stroke="#323a44" stroke-width="0.7"/>
<line x1="487.2" y1="206.7" x2="525.7" y2="203.6" stroke="#323a44" stroke-width="0.7"/>
<polygon points="559.8,379.4 574.0,379.4 569.9,171.3 564.0,171.3" fill="#2a3038"/>
<ellipse cx="566.9" cy="171.3" rx="44.3" ry="13.3" fill="#323a44"/>
<line x1="566.9" y1="171.3" x2="518.8" y2="167.4" stroke="#323a44" stroke-width="0.7"/>
<line x1="566.9" y1="171.3" x2="524.4" y2="159.4" stroke="#323a44" stroke-width="0.7"/>
<line x1="566.9" y1="171.3" x2="535.3" y2="152.7" stroke="#323a44" stroke-width="0.7"/>
<line x1="566.9" y1="171.3" x2="550.1" y2="148.4" stroke="#323a44" stroke-width="0.7"/>
<line x1="566.9" y1="171.3" x2="566.9" y2="146.9" stroke="#323a44" stroke-width="0.7"/>
<line x1="566.9" y1="171.3" x2="583.8" y2="148.4" stroke="#323a44" stroke-width="0.7"/>
<line x1="566.9" y1="171.3" x2="598.6" y2="152.7" stroke="#323a44" stroke-width="0.7"/>
<line x1="566.9" y1="171.3" x2="609.4" y2="159.4" stroke="#323a44" stroke-width="0.7"/>
<line x1="566.9" y1="171.3" x2="615.0" y2="167.4" stroke="#323a44" stroke-width="0.7"/>
</g>
<line x1="0" y1="32.5" x2="600.0" y2="32.5" stroke="#dc2626" stroke-width="1" opacity="0.4"/>
<line x1="11.8" y1="118.1" x2="588.2" y2="118.1" stroke="#2a2f37" stroke-width="0.5" opacity="0.4"/>
<line x1="11.8" y1="230.3" x2="588.2" y2="230.3" stroke="#2a2f37" stroke-width="0.5" opacity="0.4"/>
<line x1="11.8" y1="292.3" x2="588.2" y2="292.3" stroke="#2a2f37" stroke-width="0.5" opacity="0.4"/>
</g>
<g inkscape:label="control-graphics" inkscape:groupmode="layer">
<circle cx="47.2" cy="65.0" r="39.9" fill="#0f1114" stroke="#3a4048" stroke-width="1.2"/>
<circle cx="124.0" cy="65.0" r="32.5" fill="#0f1114" stroke="#3a4048" stroke-width="1.2"/>
<circle cx="200.8" cy="65.0" r="32.5" fill="#0f1114" stroke="#3a4048" stroke-width="1.2"/>
<circle cx="277.6" cy="65.0" r="32.5" fill="#0f1114" stroke="#3a4048" stroke-width="1.2"/>
<circle cx="354.3" cy="65.0" r="32.5" fill="#0f1114" stroke="#3a4048" stroke-width="1.2"/>
<circle cx="437.0" cy="171.3" r="23.6" fill="#0f1114" stroke="#3a4048" stroke-width="1.2"/>
<circle cx="481.3" cy="171.3" r="23.6" fill="#0f1114" stroke="#3a4048" stroke-width="1.2"/>
<circle cx="525.6" cy="171.3" r="23.6" fill="#0f1114" stroke="#3a4048" stroke-width="1.2"/>
<circle cx="478.4" cy="88.6" r="45.8" fill="none" stroke="#c8960c" stroke-width="0.8" opacity="0.6"/>
<circle cx="478.4" cy="88.6" r="34.0" fill="#0f1114" opacity="0.4"/>
<rect x="17.4" y="132.9" width="9.4" height="87.1" rx="4.1" fill="#101216" stroke="#2a2f37" stroke-width="0.5"/>
<rect x="44.0" y="132.9" width="9.4" height="87.1" rx="4.1" fill="#101216" stroke="#2a2f37" stroke-width="0.5"/>
<rect x="70.6" y="132.9" width="9.4" height="87.1" rx="4.1" fill="#101216" stroke="#2a2f37" stroke-width="0.5"/>
<rect x="97.2" y="132.9" width="9.4" height="87.1" rx="4.1" fill="#101216" stroke="#2a2f37" stroke-width="0.5"/>
<rect x="123.7" y="132.9" width="9.4" height="87.1" rx="4.1" fill="#101216" stroke="#2a2f37" stroke-width="0.5"/>
<rect x="150.3" y="132.9" width="9.4" height="87.1" rx="4.1" fill="#101216" stroke="#2a2f37" stroke-width="0.5"/>
<rect x="176.9" y="132.9" width="9.4" height="87.1" rx="4.1" fill="#101216" stroke="#2a2f37" stroke-width="0.5"/>
<rect x="203.4" y="132.9" width="9.4" height="87.1" rx="4.1" fill="#101216" stroke="#2a2f37" stroke-width="0.5"/>
<rect x="230.0" y="132.9" width="9.4" height="87.1" rx="4.1" fill="#101216" stroke="#2a2f37" stroke-width="0.5"/>
<rect x="256.6" y="132.9" width="9.4" height="87.1" rx="4.1" fill="#101216" stroke="#2a2f37" stroke-width="0.5"/>
<rect x="283.2" y="132.9" width="9.4" height="87.1" rx="4.1" fill="#101216" stroke="#2a2f37" stroke-width="0.5"/>
<rect x="309.7" y="132.9" width="9.4" height="87.1" rx="4.1" fill="#101216" stroke="#2a2f37" stroke-width="0.5"/>
<rect x="346.6" y="132.9" width="9.4" height="87.1" rx="4.1" fill="#101216" stroke="#dc2626" stroke-width="0.6" opacity="0.8"/>
<rect x="373.2" y="132.9" width="9.4" height="87.1" rx="4.1" fill="#101216" stroke="#dc2626" stroke-width="0.6" opacity="0.8"/>
<circle cx="581.7" cy="35.4" r="7.1" fill="#0f1114" stroke="#3a4048" stroke-width="1"/>
<circle cx="348.4" cy="256.9" r="6.5" fill="#0f1114" stroke="#3a4048" stroke-width="0.9"/>
<circle cx="392.7" cy="256.9" r="6.5" fill="#0f1114" stroke="#3a4048" stroke-width="0.9"/>
<circle cx="437.0" cy="256.9" r="6.5" fill="#0f1114" stroke="#3a4048" stroke-width="0.9"/>
<circle cx="481.3" cy="256.9" r="6.5" fill="#0f1114" stroke="#3a4048" stroke-width="0.9"/>
<circle cx="525.6" cy="256.9" r="6.5" fill="#0f1114" stroke="#3a4048" stroke-width="0.9"/>
<circle cx="569.9" cy="256.9" r="6.5" fill="#0f1114" stroke="#3a4048" stroke-width="0.9"/>
<circle cx="47.2" cy="310.0" r="11.5" fill="#0b0d10" stroke="#4a5058" stroke-width="1"/>
<circle cx="47.2" cy="310.0" r="5.0" fill="#101216"/>
<circle cx="88.6" cy="310.0" r="11.5" fill="#0b0d10" stroke="#4a5058" stroke-width="1"/>
<circle cx="88.6" cy="310.0" r="5.0" fill="#101216"/>
<circle cx="141.7" cy="310.0" r="11.5" fill="#0b0d10" stroke="#4a5058" stroke-width="1"/>
<circle cx="141.7" cy="310.0" r="5.0" fill="#101216"/>
<circle cx="194.9" cy="310.0" r="11.5" fill="#0b0d10" stroke="#4a5058" stroke-width="1"/>
<circle cx="194.9" cy="310.0" r="5.0" fill="#101216"/>
<circle cx="248.0" cy="310.0" r="11.5" fill="#0b0d10" stroke="#4a5058" stroke-width="1"/>
<circle cx="248.0" cy="310.0" r="5.0" fill="#101216"/>
<circle cx="47.2" cy="354.3" r="11.5" fill="#0b0d10" stroke="#4a5058" stroke-width="1"/>
<circle cx="47.2" cy="354.3" r="5.0" fill="#101216"/>
<circle cx="88.6" cy="354.3" r="11.5" fill="#0b0d10" stroke="#4a5058" stroke-width="1"/>
<circle cx="88.6" cy="354.3" r="5.0" fill="#101216"/>
<circle cx="141.7" cy="354.3" r="11.5" fill="#0b0d10" stroke="#4a5058" stroke-width="1"/>
<circle cx="141.7" cy="354.3" r="5.0" fill="#101216"/>
<circle cx="194.9" cy="354.3" r="11.5" fill="#0b0d10" stroke="#4a5058" stroke-width="1"/>
<circle cx="194.9" cy="354.3" r="5.0" fill="#101216"/>
<circle cx="248.0" cy="354.3" r="11.5" fill="#0b0d10" stroke="#4a5058" stroke-width="1"/>
<circle cx="248.0" cy="354.3" r="5.0" fill="#101216"/>
<circle cx="307.1" cy="310.0" r="11.5" fill="#0b0d10" stroke="#4a5058" stroke-width="1"/>
<circle cx="307.1" cy="310.0" r="5.0" fill="#101216"/>
<circle cx="360.2" cy="310.0" r="11.5" fill="#0b0d10" stroke="#4a5058" stroke-width="1"/>
<circle cx="360.2" cy="310.0" r="5.0" fill="#101216"/>
<circle cx="413.4" cy="310.0" r="11.5" fill="#0b0d10" stroke="#4a5058" stroke-width="1"/>
<circle cx="413.4" cy="310.0" r="5.0" fill="#101216"/>
<circle cx="466.5" cy="310.0" r="11.5" fill="#0b0d10" stroke="#4a5058" stroke-width="1"/>
<circle cx="466.5" cy="310.0" r="5.0" fill="#101216"/>
<circle cx="519.7" cy="310.0" r="11.5" fill="#0b0d10" stroke="#4a5058" stroke-width="1"/>
<circle cx="519.7" cy="310.0" r="5.0" fill="#101216"/>
<circle cx="307.1" cy="354.3" r="11.5" fill="#0b0d10" stroke="#4a5058" stroke-width="1"/>
<circle cx="307.1" cy="354.3" r="5.0" fill="#101216"/>
<circle cx="360.2" cy="354.3" r="11.5" fill="#0b0d10" stroke="#4a5058" stroke-width="1"/>
<circle cx="360.2" cy="354.3" r="5.0" fill="#101216"/>
<circle cx="413.4" cy="354.3" r="11.5" fill="#0b0d10" stroke="#4a5058" stroke-width="1"/>
<circle cx="413.4" cy="354.3" r="5.0" fill="#101216"/>
<circle cx="466.5" cy="354.3" r="11.5" fill="#0b0d10" stroke="#4a5058" stroke-width="1"/>
<circle cx="466.5" cy="354.3" r="5.0" fill="#101216"/>
<circle cx="11.8" cy="11.8" r="2.7" fill="#26a69a" opacity="0.5"/>
<circle cx="26.6" cy="11.8" r="2.7" fill="#26a69a" opacity="0.5"/>
<circle cx="41.3" cy="11.8" r="2.7" fill="#26a69a" opacity="0.5"/>
</g>
<g inkscape:label="components" inkscape:groupmode="layer" id="components" style="display:none">
    <circle id="SEMI0_PARAM" cx="22.146" cy="176.427" r="2.953" style="fill:#ff0000"/>
    <circle id="SEMI1_PARAM" cx="48.720" cy="176.427" r="2.953" style="fill:#ff0000"/>
    <circle id="SEMI2_PARAM" cx="75.295" cy="176.427" r="2.953" style="fill:#ff0000"/>
    <circle id="SEMI3_PARAM" cx="101.870" cy="176.427" r="2.953" style="fill:#ff0000"/>
    <circle id="SEMI4_PARAM" cx="128.445" cy="176.427" r="2.953" style="fill:#ff0000"/>
    <circle id="SEMI5_PARAM" cx="155.020" cy="176.427" r="2.953" style="fill:#ff0000"/>
    <circle id="SEMI6_PARAM" cx="181.594" cy="176.427" r="2.953" style="fill:#ff0000"/>
    <circle id="SEMI7_PARAM" cx="208.169" cy="176.427" r="2.953" style="fill:#ff0000"/>
    <circle id="SEMI8_PARAM" cx="234.744" cy="176.427" r="2.953" style="fill:#ff0000"/>
    <circle id="SEMI9_PARAM" cx="261.319" cy="176.427" r="2.953" style="fill:#ff0000"/>
    <circle id="SEMI10_PARAM" cx="287.894" cy="176.427" r="2.953" style="fill:#ff0000"/>
    <circle id="SEMI11_PARAM" cx="314.469" cy="176.427" r="2.953" style="fill:#ff0000"/>
    <circle id="OCT_LO_PARAM" cx="351.378" cy="176.427" r="2.953" style="fill:#ff0000"/>
    <circle id="OCT_HI_PARAM" cx="377.953" cy="176.427" r="2.953" style="fill:#ff0000"/>
    <circle id="MODE_PARAM" cx="581.693" cy="35.433" r="2.953" style="fill:#ff0000"/>
    <circle id="DICE_R_PARAM" cx="348.425" cy="256.890" r="2.953" style="fill:#ff0000"/>
    <circle id="DICE_M_PARAM" cx="392.717" cy="256.890" r="2.953" style="fill:#ff0000"/>
    <circle id="LOCK_PARAM" cx="437.008" cy="256.890" r="2.953" style="fill:#ff0000"/>
    <circle id="MUTE_PARAM" cx="481.299" cy="256.890" r="2.953" style="fill:#ff0000"/>
    <circle id="RESET_BUTTON_PARAM" cx="525.591" cy="256.890" r="2.953" style="fill:#ff0000"/>
    <circle id="RUN_GATE_PARAM" cx="569.882" cy="256.890" r="2.953" style="fill:#ff0000"/>
    <circle id="NOTE_VALUE_PARAM" cx="47.244" cy="64.961" r="2.953" style="fill:#ff0000"/>
    <circle id="VARIATION_PARAM" cx="124.016" cy="64.961" r="2.953" style="fill:#ff0000"/>
    <circle id="LEGATO_PARAM" cx="200.787" cy="64.961" r="2.953" style="fill:#ff0000"/>
    <circle id="REST_PARAM" cx="277.559" cy="64.961" r="2.953" style="fill:#ff0000"/>
    <circle id="ACCENT_KNOB" cx="354.331" cy="64.961" r="2.953" style="fill:#ff0000"/>
    <circle id="BPM_PARAM" cx="437.008" cy="171.260" r="2.953" style="fill:#ff0000"/>
    <circle id="PATTERN_LENGTH_PARAM" cx="481.299" cy="171.260" r="2.953" style="fill:#ff0000"/>
    <circle id="PATTERN_OFFSET_PARAM" cx="525.591" cy="171.260" r="2.953" style="fill:#ff0000"/>
    <circle id="RUN_GATE_INPUT" cx="47.244" cy="310.039" r="2.953" style="fill:#00ff00"/>
    <circle id="RESET_TRIGGER_INPUT" cx="88.583" cy="310.039" r="2.953" style="fill:#00ff00"/>
    <circle id="SEED_INPUT" cx="141.732" cy="310.039" r="2.953" style="fill:#00ff00"/>
    <circle id="LENGTH_INPUT" cx="194.882" cy="310.039" r="2.953" style="fill:#00ff00"/>
    <circle id="OFFSET_INPUT" cx="248.031" cy="310.039" r="2.953" style="fill:#00ff00"/>
    <circle id="CLK_INPUT" cx="47.244" cy="354.331" r="2.953" style="fill:#00ff00"/>
    <circle id="GATE1_INPUT" cx="88.583" cy="354.331" r="2.953" style="fill:#00ff00"/>
    <circle id="GATE2_INPUT" cx="141.732" cy="354.331" r="2.953" style="fill:#00ff00"/>
    <circle id="CV1_INPUT" cx="194.882" cy="354.331" r="2.953" style="fill:#00ff00"/>
    <circle id="CV2_INPUT" cx="248.031" cy="354.331" r="2.953" style="fill:#00ff00"/>
    <circle id="GATE_OUTPUT" cx="307.087" cy="310.039" r="2.953" style="fill:#0000ff"/>
    <circle id="TIE_OUTPUT" cx="360.236" cy="310.039" r="2.953" style="fill:#0000ff"/>
    <circle id="LEGATO_OUTPUT" cx="413.386" cy="310.039" r="2.953" style="fill:#0000ff"/>
    <circle id="TIE_OR_LEGATO_OUTPUT" cx="466.535" cy="310.039" r="2.953" style="fill:#0000ff"/>
    <circle id="ACCENT_OUTPUT" cx="519.685" cy="310.039" r="2.953" style="fill:#0000ff"/>
    <circle id="CV_OUTPUT" cx="307.087" cy="354.331" r="2.953" style="fill:#0000ff"/>
    <circle id="SEED_OUTPUT" cx="360.236" cy="354.331" r="2.953" style="fill:#0000ff"/>
    <circle id="RUN_GATE_OUTPUT" cx="413.386" cy="354.331" r="2.953" style="fill:#0000ff"/>
    <circle id="RESET_TRIGGER_OUTPUT" cx="466.535" cy="354.331" r="2.953" style="fill:#0000ff"/>
    <circle id="STEP_LIGHT_0" cx="478.346" cy="47.244" r="1.772" style="fill:#00ffff"/>
    <circle id="STEP_LIGHT_1" cx="494.166" cy="50.391" r="1.772" style="fill:#00ffff"/>
    <circle id="STEP_LIGHT_2" cx="507.577" cy="59.352" r="1.772" style="fill:#00ffff"/>
    <circle id="STEP_LIGHT_3" cx="516.538" cy="72.763" r="1.772" style="fill:#00ffff"/>
    <circle id="STEP_LIGHT_4" cx="519.685" cy="88.583" r="1.772" style="fill:#00ffff"/>
    <circle id="STEP_LIGHT_5" cx="516.538" cy="104.402" r="1.772" style="fill:#00ffff"/>
    <circle id="STEP_LIGHT_6" cx="507.577" cy="117.813" r="1.772" style="fill:#00ffff"/>
    <circle id="STEP_LIGHT_7" cx="494.166" cy="126.775" r="1.772" style="fill:#00ffff"/>
    <circle id="STEP_LIGHT_8" cx="478.346" cy="129.921" r="1.772" style="fill:#00ffff"/>
    <circle id="STEP_LIGHT_9" cx="462.527" cy="126.775" r="1.772" style="fill:#00ffff"/>
    <circle id="STEP_LIGHT_10" cx="449.116" cy="117.813" r="1.772" style="fill:#00ffff"/>
    <circle id="STEP_LIGHT_11" cx="440.155" cy="104.402" r="1.772" style="fill:#00ffff"/>
    <circle id="STEP_LIGHT_12" cx="437.008" cy="88.583" r="1.772" style="fill:#00ffff"/>
    <circle id="STEP_LIGHT_13" cx="440.155" cy="72.763" r="1.772" style="fill:#00ffff"/>
    <circle id="STEP_LIGHT_14" cx="449.116" cy="59.352" r="1.772" style="fill:#00ffff"/>
    <circle id="STEP_LIGHT_15" cx="462.527" cy="50.391" r="1.772" style="fill:#00ffff"/>
    <circle id="MODE_A_LIGHT_0" cx="566.929" cy="100.394" r="1.772" style="fill:#00ffff"/>
    <circle id="MODE_A_LIGHT_1" cx="566.929" cy="124.016" r="1.772" style="fill:#00ffff"/>
    <circle id="MODE_A_LIGHT_2" cx="566.929" cy="147.638" r="1.772" style="fill:#00ffff"/>
    <circle id="MODE_A_LIGHT_3" cx="566.929" cy="171.260" r="1.772" style="fill:#00ffff"/>
    <circle id="RHYTHM_DICE_LIGHT" cx="348.425" cy="274.606" r="1.772" style="fill:#00ffff"/>
    <circle id="MELODY_DICE_LIGHT" cx="392.717" cy="274.606" r="1.772" style="fill:#00ffff"/>
    <circle id="LOCK_LIGHT" cx="437.008" cy="274.606" r="1.772" style="fill:#00ffff"/>
    <circle id="MUTE_LIGHT" cx="481.299" cy="274.606" r="1.772" style="fill:#00ffff"/>
    <circle id="RESET_LIGHT" cx="525.591" cy="274.606" r="1.772" style="fill:#00ffff"/>
    <circle id="RUN_GATE_LIGHT" cx="569.882" cy="274.606" r="1.772" style="fill:#00ffff"/>
    <circle id="SCALE_EXPANDER_LIGHT" cx="11.811" cy="11.811" r="1.772" style="fill:#00ffff"/>
    <circle id="DNA_EXPANDER_LIGHT" cx="26.575" cy="11.811" r="1.772" style="fill:#00ffff"/>
    <circle id="POLY_EXPANDER_LIGHT" cx="41.339" cy="11.811" r="1.772" style="fill:#00ffff"/>
</g>
</svg>