<svg xmlns="http://www.w3.org/2000/svg" width="767.99" height="485.67" viewBox="0 0 767.99 485.67">
  <defs>
    <pattern id="grain" x="0" y="0" width="767.99" height="0.5" patternUnits="userSpaceOnUse">
      <rect width="767.99" height="0.5" fill="#f7f7f7"/>
      <rect y="0.25" width="767.99" height="0.12" fill="#cccccc" opacity="0.35"/>
    </pattern>
    <radialGradient id="gG" cx="50%" cy="50%" r="50%">
      <stop offset="0%" stop-color="#b8860b" stop-opacity="0.32"/>
      <stop offset="65%" stop-color="#b8860b" stop-opacity="0.03"/>
      <stop offset="100%" stop-color="#b8860b" stop-opacity="0.0"/>
    </radialGradient>
    <radialGradient id="gT" cx="50%" cy="50%" r="50%">
      <stop offset="0%" stop-color="#26a69a" stop-opacity="0.28"/>
      <stop offset="65%" stop-color="#26a69a" stop-opacity="0.03"/>
      <stop offset="100%" stop-color="#26a69a" stop-opacity="0.0"/>
    </radialGradient>
  </defs>
  <rect width="767.99" height="485.67" fill="url(#grain)"/>

  <g stroke="#cccccc" stroke-width="0.5" opacity="0.4">
    <line x1="0" y1="52.91" x2="767.99" y2="52.91"/>
    <line x1="0" y1="143.62" x2="767.99" y2="143.62"/>
    <line x1="0" y1="294.80" x2="767.99" y2="294.80"/>
    <line x1="0" y1="370.39" x2="767.99" y2="370.39"/>
    <line x1="0" y1="427.08" x2="767.99" y2="427.08"/>
    <line x1="272.12" y1="370.39" x2="272.12" y2="485.67" stroke-dasharray="2,2"/>
  </g>

  <g>
    <polygon points="45.35,45.35 83.15,64.25 83.15,102.05 45.35,120.94 7.56,102.05 7.56,64.25" fill="url(#gG)" stroke="none"/>
    <polygon points="102.05,45.35 139.84,64.25 139.84,102.05 102.05,120.94 64.25,102.05 64.25,64.25" fill="url(#gG)" stroke="none"/>
    <polygon points="158.74,45.35 196.53,64.25 196.53,102.05 158.74,120.94 120.94,102.05 120.94,64.25" fill="url(#gG)" stroke="none"/>
    <polygon points="215.43,45.35 253.23,64.25 253.23,102.05 215.43,120.94 177.64,102.05 177.64,64.25" fill="url(#gG)" stroke="none"/>
    <polygon points="272.12,45.35 309.92,64.25 309.92,102.05 272.12,120.94 234.33,102.05 234.33,64.25" fill="url(#gG)" stroke="none"/>
    <polygon points="517.79,56.69 544.25,71.81 544.25,94.49 517.79,109.61 491.34,94.49 491.34,71.81" fill="url(#gT)" stroke="none"/>
    <polygon points="566.93,56.69 593.38,71.81 593.38,94.49 566.93,109.61 540.47,94.49 540.47,71.81" fill="url(#gT)" stroke="none"/>
    <polygon points="616.06,56.69 642.51,71.81 642.51,94.49 616.06,109.61 589.60,94.49 589.60,71.81" fill="url(#gT)" stroke="none"/>
  </g>
  <g stroke="#9a9a9a" stroke-width="0.85" fill="none" opacity="0.60">
    <polygon points="45.35,45.35 83.15,64.25 83.15,102.05 45.35,120.94 7.56,102.05 7.56,64.25"/>
    <polygon points="102.05,45.35 139.84,64.25 139.84,102.05 102.05,120.94 64.25,102.05 64.25,64.25"/>
    <polygon points="158.74,45.35 196.53,64.25 196.53,102.05 158.74,120.94 120.94,102.05 120.94,64.25"/>
    <polygon points="215.43,45.35 253.23,64.25 253.23,102.05 215.43,120.94 177.64,102.05 177.64,64.25"/>
    <polygon points="272.12,45.35 309.92,64.25 309.92,102.05 272.12,120.94 234.33,102.05 234.33,64.25"/>
    <polygon points="517.79,56.69 544.25,71.81 544.25,94.49 517.79,109.61 491.34,94.49 491.34,71.81"/>
    <polygon points="566.93,56.69 593.38,71.81 593.38,94.49 566.93,109.61 540.47,94.49 540.47,71.81"/>
    <polygon points="616.06,56.69 642.51,71.81 642.51,94.49 616.06,109.61 589.60,94.49 589.60,71.81"/>
  </g>
  <g stroke="#999999" stroke-width="0.5" fill="none" opacity="0.46">
    <polygon points="45.35,60.47 68.03,71.81 68.03,94.49 45.35,105.83 22.68,94.49 22.68,71.81"/>
    <polygon points="102.05,60.47 124.72,71.81 124.72,94.49 102.05,105.83 79.37,94.49 79.37,71.81"/>
    <polygon points="158.74,60.47 181.42,71.81 181.42,94.49 158.74,105.83 136.06,94.49 136.06,71.81"/>
    <polygon points="215.43,60.47 238.11,71.81 238.11,94.49 215.43,105.83 192.75,94.49 192.75,71.81"/>
    <polygon points="272.12,60.47 294.80,71.81 294.80,94.49 272.12,105.83 249.45,94.49 249.45,71.81"/>
    <polygon points="517.79,68.03 532.91,75.59 532.91,90.71 517.79,98.27 502.67,90.71 502.67,75.59"/>
    <polygon points="566.93,68.03 582.04,75.59 582.04,90.71 566.93,98.27 551.81,90.71 551.81,75.59"/>
    <polygon points="616.06,68.03 631.18,75.59 631.18,90.71 616.06,98.27 600.94,90.71 600.94,75.59"/>
  </g>
  <g stroke="#aaaaaa" stroke-width="0.45" fill="none" opacity="0.34">
    <path d="M45.35,60.47 L45.35,45.35 M68.03,71.81 L83.15,64.25 M68.03,94.49 L83.15,102.05 M45.35,105.83 L45.35,120.94 M22.68,94.49 L7.56,102.05 M22.68,71.81 L7.56,64.25"/>
    <path d="M102.05,60.47 L102.05,45.35 M124.72,71.81 L139.84,64.25 M124.72,94.49 L139.84,102.05 M102.05,105.83 L102.05,120.94 M79.37,94.49 L64.25,102.05 M79.37,71.81 L64.25,64.25"/>
    <path d="M158.74,60.47 L158.74,45.35 M181.42,71.81 L196.53,64.25 M181.42,94.49 L196.53,102.05 M158.74,105.83 L158.74,120.94 M136.06,94.49 L120.94,102.05 M136.06,71.81 L120.94,64.25"/>
    <path d="M215.43,60.47 L215.43,45.35 M238.11,71.81 L253.23,64.25 M238.11,94.49 L253.23,102.05 M215.43,105.83 L215.43,120.94 M192.75,94.49 L177.64,102.05 M192.75,71.81 L177.64,64.25"/>
    <path d="M272.12,60.47 L272.12,45.35 M294.80,71.81 L309.92,64.25 M294.80,94.49 L309.92,102.05 M272.12,105.83 L272.12,120.94 M249.45,94.49 L234.33,102.05 M249.45,71.81 L234.33,64.25"/>
    <path d="M517.79,68.03 L517.79,56.69 M532.91,75.59 L544.25,71.81 M532.91,90.71 L544.25,94.49 M517.79,98.27 L517.79,109.61 M502.67,90.71 L491.34,94.49 M502.67,75.59 L491.34,71.81"/>
    <path d="M566.93,68.03 L566.93,56.69 M582.04,75.59 L593.38,71.81 M582.04,90.71 L593.38,94.49 M566.93,98.27 L566.93,109.61 M551.81,90.71 L540.47,94.49 M551.81,75.59 L540.47,71.81"/>
    <path d="M616.06,68.03 L616.06,56.69 M631.18,75.59 L642.51,71.81 M631.18,90.71 L642.51,94.49 M616.06,98.27 L616.06,109.61 M600.94,90.71 L589.60,94.49 M600.94,75.59 L589.60,71.81"/>
  </g>
  <g fill="#b8860b" opacity="0.68">
    <circle cx="45.35" cy="60.47" r="1.4"/>
    <circle cx="68.03" cy="71.81" r="1.4"/>
    <circle cx="68.03" cy="94.49" r="1.4"/>
    <circle cx="45.35" cy="105.83" r="1.4"/>
    <circle cx="22.68" cy="94.49" r="1.4"/>
    <circle cx="22.68" cy="71.81" r="1.4"/>
    <circle cx="102.05" cy="60.47" r="1.4"/>
    <circle cx="124.72" cy="71.81" r="1.4"/>
    <circle cx="124.72" cy="94.49" r="1.4"/>
    <circle cx="102.05" cy="105.83" r="1.4"/>
    <circle cx="79.37" cy="94.49" r="1.4"/>
    <circle cx="79.37" cy="71.81" r="1.4"/>
    <circle cx="158.74" cy="60.47" r="1.4"/>
    <circle cx="181.42" cy="71.81" r="1.4"/>
    <circle cx="181.42" cy="94.49" r="1.4"/>
    <circle cx="158.74" cy="105.83" r="1.4"/>
    <circle cx="136.06" cy="94.49" r="1.4"/>
    <circle cx="136.06" cy="71.81" r="1.4"/>
    <circle cx="215.43" cy="60.47" r="1.4"/>
    <circle cx="238.11" cy="71.81" r="1.4"/>
    <circle cx="238.11" cy="94.49" r="1.4"/>
    <circle cx="215.43" cy="105.83" r="1.4"/>
    <circle cx="192.75" cy="94.49" r="1.4"/>
    <circle cx="192.75" cy="71.81" r="1.4"/>
    <circle cx="272.12" cy="60.47" r="1.4"/>
    <circle cx="294.80" cy="71.81" r="1.4"/>
    <circle cx="294.80" cy="94.49" r="1.4"/>
    <circle cx="272.12" cy="105.83" r="1.4"/>
    <circle cx="249.45" cy="94.49" r="1.4"/>
    <circle cx="249.45" cy="71.81" r="1.4"/>
    <circle cx="517.79" cy="68.03" r="1.1"/>
    <circle cx="532.91" cy="75.59" r="1.1"/>
    <circle cx="532.91" cy="90.71" r="1.1"/>
    <circle cx="517.79" cy="98.27" r="1.1"/>
    <circle cx="502.67" cy="90.71" r="1.1"/>
    <circle cx="502.67" cy="75.59" r="1.1"/>
    <circle cx="566.93" cy="68.03" r="1.1"/>
    <circle cx="582.04" cy="75.59" r="1.1"/>
    <circle cx="582.04" cy="90.71" r="1.1"/>
    <circle cx="566.93" cy="98.27" r="1.1"/>
    <circle cx="551.81" cy="90.71" r="1.1"/>
    <circle cx="551.81" cy="75.59" r="1.1"/>
    <circle cx="616.06" cy="68.03" r="1.1"/>
    <circle cx="631.18" cy="75.59" r="1.1"/>
    <circle cx="631.18" cy="90.71" r="1.1"/>
    <circle cx="616.06" cy="98.27" r="1.1"/>
    <circle cx="600.94" cy="90.71" r="1.1"/>
    <circle cx="600.94" cy="75.59" r="1.1"/>
  </g>
  <g stroke="#888888" stroke-width="0.4" fill="none" opacity="0.42">
    <polygon points="73.70,71.81 85.04,83.15 73.70,94.49 62.36,83.15"/>
    <polygon points="130.39,71.81 141.73,83.15 130.39,94.49 119.05,83.15"/>
    <polygon points="187.09,71.81 198.42,83.15 187.09,94.49 175.75,83.15"/>
    <polygon points="243.78,71.81 255.12,83.15 243.78,94.49 232.44,83.15"/>
    <polygon points="542.36,71.81 553.70,83.15 542.36,94.49 531.02,83.15"/>
    <polygon points="591.49,71.81 602.83,83.15 591.49,94.49 580.15,83.15"/>
  </g>

  <!-- Step ring -->
  <circle cx="434.64" cy="90.71" r="64.25" fill="url(#gT)" stroke="none"/>
  <g stroke="#9a9a9a" stroke-width="0.7" fill="none" opacity="0.60">
    <circle cx="434.64" cy="90.71" r="56.69"/>
    <circle cx="434.64" cy="90.71" r="64.25" stroke-width="0.35" opacity="0.4"/>
  </g>
  <g stroke="#b8860b" stroke-width="0.60" opacity="0.62">
    <line x1="434.64" y1="39.68" x2="434.64" y2="28.35"/>
    <line x1="454.17" y1="43.57" x2="458.51" y2="33.09"/>
    <line x1="470.72" y1="54.63" x2="478.74" y2="46.61"/>
    <line x1="481.78" y1="71.18" x2="492.26" y2="66.84"/>
    <line x1="485.67" y1="90.71" x2="497.00" y2="90.71"/>
    <line x1="481.78" y1="110.23" x2="492.26" y2="114.57"/>
    <line x1="470.72" y1="126.79" x2="478.74" y2="134.80"/>
    <line x1="454.17" y1="137.85" x2="458.51" y2="148.32"/>
    <line x1="434.64" y1="141.73" x2="434.64" y2="153.07"/>
    <line x1="415.12" y1="137.85" x2="410.78" y2="148.32"/>
    <line x1="398.56" y1="126.79" x2="390.55" y2="134.80"/>
    <line x1="387.50" y1="110.23" x2="377.03" y2="114.57"/>
    <line x1="383.62" y1="90.71" x2="372.28" y2="90.71"/>
    <line x1="387.50" y1="71.18" x2="377.03" y2="66.84"/>
    <line x1="398.56" y1="54.63" x2="390.55" y2="46.61"/>
    <line x1="415.12" y1="43.57" x2="410.78" y2="33.09"/>
  </g>

  <g stroke="#b8860b" stroke-width="0.5" fill="none" opacity="0.38">
    <polygon points="28.35,210.71 41.57,225.83 28.35,240.94 15.12,225.83"/>
    <line x1="21.73" y1="170.08" x2="21.73" y2="285.35" stroke-width="0.25" opacity="0.4"/>
    <polygon points="58.58,210.71 71.81,225.83 58.58,240.94 45.35,225.83"/>
    <line x1="51.97" y1="170.08" x2="51.97" y2="285.35" stroke-width="0.25" opacity="0.4"/>
    <polygon points="88.82,210.71 102.05,225.83 88.82,240.94 75.59,225.83"/>
    <line x1="82.20" y1="170.08" x2="82.20" y2="285.35" stroke-width="0.25" opacity="0.4"/>
    <polygon points="119.05,210.71 132.28,225.83 119.05,240.94 105.83,225.83"/>
    <line x1="112.44" y1="170.08" x2="112.44" y2="285.35" stroke-width="0.25" opacity="0.4"/>
    <polygon points="149.29,210.71 162.52,225.83 149.29,240.94 136.06,225.83"/>
    <line x1="142.68" y1="170.08" x2="142.68" y2="285.35" stroke-width="0.25" opacity="0.4"/>
    <polygon points="179.53,210.71 192.75,225.83 179.53,240.94 166.30,225.83"/>
    <line x1="172.91" y1="170.08" x2="172.91" y2="285.35" stroke-width="0.25" opacity="0.4"/>
    <polygon points="209.76,210.71 222.99,225.83 209.76,240.94 196.53,225.83"/>
    <line x1="203.15" y1="170.08" x2="203.15" y2="285.35" stroke-width="0.25" opacity="0.4"/>
    <polygon points="240.00,210.71 253.23,225.83 240.00,240.94 226.77,225.83"/>
    <line x1="233.38" y1="170.08" x2="233.38" y2="285.35" stroke-width="0.25" opacity="0.4"/>
    <polygon points="270.23,210.71 283.46,225.83 270.23,240.94 257.01,225.83"/>
    <line x1="263.62" y1="170.08" x2="263.62" y2="285.35" stroke-width="0.25" opacity="0.4"/>
    <polygon points="300.47,210.71 313.70,225.83 300.47,240.94 287.24,225.83"/>
    <line x1="293.86" y1="170.08" x2="293.86" y2="285.35" stroke-width="0.25" opacity="0.4"/>
    <polygon points="330.71,210.71 343.93,225.83 330.71,240.94 317.48,225.83"/>
    <line x1="324.09" y1="170.08" x2="324.09" y2="285.35" stroke-width="0.25" opacity="0.4"/>
    <polygon points="360.94,210.71 374.17,225.83 360.94,240.94 347.71,225.83"/>
    <line x1="354.33" y1="170.08" x2="354.33" y2="285.35" stroke-width="0.25" opacity="0.4"/>
    <polygon points="400.63,210.71 413.86,225.83 400.63,240.94 387.40,225.83"/>
    <line x1="394.01" y1="170.08" x2="394.01" y2="285.35" stroke-width="0.25" opacity="0.4"/>
    <polygon points="434.64,210.71 447.87,225.83 434.64,240.94 421.41,225.83"/>
    <line x1="428.03" y1="170.08" x2="428.03" y2="285.35" stroke-width="0.25" opacity="0.4"/>
  </g>

  <g fill="url(#gT)">
    <polygon points="453.54,315.59 466.77,328.82 453.54,342.04 440.31,328.82" stroke="none"/>
    <polygon points="491.34,315.59 504.56,328.82 491.34,342.04 478.11,328.82" stroke="none"/>
    <polygon points="529.13,315.59 542.36,328.82 529.13,342.04 515.90,328.82" stroke="none"/>
    <polygon points="566.93,315.59 580.15,328.82 566.93,342.04 553.70,328.82" stroke="none"/>
    <polygon points="604.72,315.59 617.95,328.82 604.72,342.04 591.49,328.82" stroke="none"/>
    <polygon points="642.51,315.59 655.74,328.82 642.51,342.04 629.29,328.82" stroke="none"/>
  </g>
  <g stroke="#888888" stroke-width="0.4" fill="none" opacity="0.42">
    <polygon points="453.54,315.59 466.77,328.82 453.54,342.04 440.31,328.82"/>
    <polygon points="491.34,315.59 504.56,328.82 491.34,342.04 478.11,328.82"/>
    <polygon points="529.13,315.59 542.36,328.82 529.13,342.04 515.90,328.82"/>
    <polygon points="566.93,315.59 580.15,328.82 566.93,342.04 553.70,328.82"/>
    <polygon points="604.72,315.59 617.95,328.82 604.72,342.04 591.49,328.82"/>
    <polygon points="642.51,315.59 655.74,328.82 642.51,342.04 629.29,328.82"/>
  </g>

  <g>
    <polygon points="37.80,379.84 56.69,389.29 56.69,404.41 37.80,413.86 18.90,404.41 18.90,389.29" fill="url(#gT)" stroke="none"/>
    <polygon points="86.93,379.84 105.83,389.29 105.83,404.41 86.93,413.86 68.03,404.41 68.03,389.29" fill="url(#gT)" stroke="none"/>
    <polygon points="136.06,379.84 154.96,389.29 154.96,404.41 136.06,413.86 117.16,404.41 117.16,389.29" fill="url(#gT)" stroke="none"/>
    <polygon points="185.20,379.84 204.09,389.29 204.09,404.41 185.20,413.86 166.30,404.41 166.30,389.29" fill="url(#gT)" stroke="none"/>
    <polygon points="234.33,379.84 253.23,389.29 253.23,404.41 234.33,413.86 215.43,404.41 215.43,389.29" fill="url(#gT)" stroke="none"/>
  </g>
  <g stroke="#9a9a9a" stroke-width="0.5" fill="none" opacity="0.52">
    <polygon points="37.80,379.84 56.69,389.29 56.69,404.41 37.80,413.86 18.90,404.41 18.90,389.29"/>
    <polygon points="86.93,379.84 105.83,389.29 105.83,404.41 86.93,413.86 68.03,404.41 68.03,389.29"/>
    <polygon points="136.06,379.84 154.96,389.29 154.96,404.41 136.06,413.86 117.16,404.41 117.16,389.29"/>
    <polygon points="185.20,379.84 204.09,389.29 204.09,404.41 185.20,413.86 166.30,404.41 166.30,389.29"/>
    <polygon points="234.33,379.84 253.23,389.29 253.23,404.41 234.33,413.86 215.43,404.41 215.43,389.29"/>
  </g>
  <g>
    <polygon points="37.80,436.53 56.69,445.98 56.69,461.10 37.80,470.55 18.90,461.10 18.90,445.98" fill="url(#gT)" stroke="none"/>
    <polygon points="86.93,436.53 105.83,445.98 105.83,461.10 86.93,470.55 68.03,461.10 68.03,445.98" fill="url(#gT)" stroke="none"/>
    <polygon points="136.06,436.53 154.96,445.98 154.96,461.10 136.06,470.55 117.16,461.10 117.16,445.98" fill="url(#gT)" stroke="none"/>
    <polygon points="185.20,436.53 204.09,445.98 204.09,461.10 185.20,470.55 166.30,461.10 166.30,445.98" fill="url(#gT)" stroke="none"/>
    <polygon points="234.33,436.53 253.23,445.98 253.23,461.10 234.33,470.55 215.43,461.10 215.43,445.98" fill="url(#gT)" stroke="none"/>
  </g>
  <g stroke="#9a9a9a" stroke-width="0.5" fill="none" opacity="0.52">
    <polygon points="37.80,436.53 56.69,445.98 56.69,461.10 37.80,470.55 18.90,461.10 18.90,445.98"/>
    <polygon points="86.93,436.53 105.83,445.98 105.83,461.10 86.93,470.55 68.03,461.10 68.03,445.98"/>
    <polygon points="136.06,436.53 154.96,445.98 154.96,461.10 136.06,470.55 117.16,461.10 117.16,445.98"/>
    <polygon points="185.20,436.53 204.09,445.98 204.09,461.10 185.20,470.55 166.30,461.10 166.30,445.98"/>
    <polygon points="234.33,436.53 253.23,445.98 253.23,461.10 234.33,470.55 215.43,461.10 215.43,445.98"/>
  </g>
  <g>
    <polygon points="302.36,379.84 321.26,389.29 321.26,404.41 302.36,413.86 283.46,404.41 283.46,389.29" fill="url(#gG)" stroke="none"/>
    <polygon points="351.49,379.84 370.39,389.29 370.39,404.41 351.49,413.86 332.60,404.41 332.60,389.29" fill="url(#gG)" stroke="none"/>
    <polygon points="400.63,379.84 419.52,389.29 419.52,404.41 400.63,413.86 381.73,404.41 381.73,389.29" fill="url(#gG)" stroke="none"/>
    <polygon points="449.76,379.84 468.66,389.29 468.66,404.41 449.76,413.86 430.86,404.41 430.86,389.29" fill="url(#gG)" stroke="none"/>
    <polygon points="498.89,379.84 517.79,389.29 517.79,404.41 498.89,413.86 480.00,404.41 480.00,389.29" fill="url(#gG)" stroke="none"/>
  </g>
  <g stroke="#9a9a9a" stroke-width="0.5" fill="none" opacity="0.52">
    <polygon points="302.36,379.84 321.26,389.29 321.26,404.41 302.36,413.86 283.46,404.41 283.46,389.29"/>
    <polygon points="351.49,379.84 370.39,389.29 370.39,404.41 351.49,413.86 332.60,404.41 332.60,389.29"/>
    <polygon points="400.63,379.84 419.52,389.29 419.52,404.41 400.63,413.86 381.73,404.41 381.73,389.29"/>
    <polygon points="449.76,379.84 468.66,389.29 468.66,404.41 449.76,413.86 430.86,404.41 430.86,389.29"/>
    <polygon points="498.89,379.84 517.79,389.29 517.79,404.41 498.89,413.86 480.00,404.41 480.00,389.29"/>
  </g>
  <g>
    <polygon points="302.36,436.53 321.26,445.98 321.26,461.10 302.36,470.55 283.46,461.10 283.46,445.98" fill="url(#gG)" stroke="none"/>
    <polygon points="351.49,436.53 370.39,445.98 370.39,461.10 351.49,470.55 332.60,461.10 332.60,445.98" fill="url(#gG)" stroke="none"/>
    <polygon points="400.63,436.53 419.52,445.98 419.52,461.10 400.63,470.55 381.73,461.10 381.73,445.98" fill="url(#gG)" stroke="none"/>
    <polygon points="449.76,436.53 468.66,445.98 468.66,461.10 449.76,470.55 430.86,461.10 430.86,445.98" fill="url(#gG)" stroke="none"/>
  </g>
  <g stroke="#9a9a9a" stroke-width="0.5" fill="none" opacity="0.52">
    <polygon points="302.36,436.53 321.26,445.98 321.26,461.10 302.36,470.55 283.46,461.10 283.46,445.98"/>
    <polygon points="351.49,436.53 370.39,445.98 370.39,461.10 351.49,470.55 332.60,461.10 332.60,445.98"/>
    <polygon points="400.63,436.53 419.52,445.98 419.52,461.10 400.63,470.55 381.73,461.10 381.73,445.98"/>
    <polygon points="449.76,436.53 468.66,445.98 468.66,461.10 449.76,470.55 430.86,461.10 430.86,445.98"/>
  </g>
  <g stroke="#888888" stroke-width="0.35" fill="none" opacity="0.38">
    <polygon points="62.36,387.40 71.81,396.85 62.36,406.30 52.91,396.85"/>
    <polygon points="111.50,387.40 120.94,396.85 111.50,406.30 102.05,396.85"/>
    <polygon points="160.63,387.40 170.08,396.85 160.63,406.30 151.18,396.85"/>
    <polygon points="209.76,387.40 219.21,396.85 209.76,406.30 200.31,396.85"/>
    <polygon points="62.36,444.09 71.81,453.54 62.36,462.99 52.91,453.54"/>
    <polygon points="111.50,444.09 120.94,453.54 111.50,462.99 102.05,453.54"/>
    <polygon points="160.63,444.09 170.08,453.54 160.63,462.99 151.18,453.54"/>
    <polygon points="209.76,444.09 219.21,453.54 209.76,462.99 200.31,453.54"/>
    <polygon points="326.93,387.40 336.38,396.85 326.93,406.30 317.48,396.85"/>
    <polygon points="376.06,387.40 385.51,396.85 376.06,406.30 366.61,396.85"/>
    <polygon points="425.19,387.40 434.64,396.85 425.19,406.30 415.75,396.85"/>
    <polygon points="474.33,387.40 483.78,396.85 474.33,406.30 464.88,396.85"/>
    <polygon points="326.93,444.09 336.38,453.54 326.93,462.99 317.48,453.54"/>
    <polygon points="376.06,444.09 385.51,453.54 376.06,462.99 366.61,453.54"/>
    <polygon points="425.19,444.09 434.64,453.54 425.19,462.99 415.75,453.54"/>
  </g>

  <g fill="none" stroke="#26a69a" opacity="0.42">
    <polygon points="7.56,68.03 18.90,83.15 7.56,98.27 -3.78,83.15" stroke-width="0.5"/>
    <circle cx="7.56" cy="83.15" r="1.4" fill="#26a69a" stroke="none"/>
    <polygon points="760.44,68.03 771.77,83.15 760.44,98.27 749.10,83.15" stroke-width="0.5"/>
    <circle cx="760.44" cy="83.15" r="1.4" fill="#26a69a" stroke="none"/>
    <polygon points="7.56,210.71 18.90,225.83 7.56,240.94 -3.78,225.83" stroke-width="0.5"/>
    <circle cx="7.56" cy="225.83" r="1.4" fill="#26a69a" stroke="none"/>
    <polygon points="760.44,210.71 771.77,225.83 760.44,240.94 749.10,225.83" stroke-width="0.5"/>
    <circle cx="760.44" cy="225.83" r="1.4" fill="#26a69a" stroke="none"/>
    <polygon points="7.56,313.70 18.90,328.82 7.56,343.93 -3.78,328.82" stroke-width="0.5"/>
    <circle cx="7.56" cy="328.82" r="1.4" fill="#26a69a" stroke="none"/>
    <polygon points="760.44,313.70 771.77,328.82 760.44,343.93 749.10,328.82" stroke-width="0.5"/>
    <circle cx="760.44" cy="328.82" r="1.4" fill="#26a69a" stroke="none"/>
    <polygon points="7.56,381.73 18.90,396.85 7.56,411.97 -3.78,396.85" stroke-width="0.5"/>
    <circle cx="7.56" cy="396.85" r="1.4" fill="#26a69a" stroke="none"/>
    <polygon points="760.44,381.73 771.77,396.85 760.44,411.97 749.10,396.85" stroke-width="0.5"/>
    <circle cx="760.44" cy="396.85" r="1.4" fill="#26a69a" stroke="none"/>
    <polygon points="7.56,438.42 18.90,453.54 7.56,468.66 -3.78,453.54" stroke-width="0.5"/>
    <circle cx="7.56" cy="453.54" r="1.4" fill="#26a69a" stroke="none"/>
    <polygon points="760.44,438.42 771.77,453.54 760.44,468.66 749.10,453.54" stroke-width="0.5"/>
    <circle cx="760.44" cy="453.54" r="1.4" fill="#26a69a" stroke="none"/>
  </g>
  <circle cx="752.88" cy="15.12" r="4" fill="#dc2626"/>

  <g fill="none" stroke-width="0.6" opacity="0.40">
    <g stroke="#b8860b">
      <circle cx="45.35" cy="83.15" r="28.35"/>
      <circle cx="102.05" cy="83.15" r="28.35"/>
      <circle cx="158.74" cy="83.15" r="28.35"/>
      <circle cx="215.43" cy="83.15" r="28.35"/>
      <circle cx="272.12" cy="83.15" r="28.35"/>
    </g>
    <g stroke="#666666">
      <circle cx="517.79" cy="83.15" r="18.90"/>
      <circle cx="566.93" cy="83.15" r="18.90"/>
      <circle cx="616.06" cy="83.15" r="18.90"/>
    </g>
  </g>
  <g fill="none" stroke-width="0.7">
    <g stroke="#888888" opacity="0.55">
      <circle cx="37.80" cy="396.85" r="14.74"/>
      <circle cx="86.93" cy="396.85" r="14.74"/>
      <circle cx="136.06" cy="396.85" r="14.74"/>
      <circle cx="185.20" cy="396.85" r="14.74"/>
      <circle cx="234.33" cy="396.85" r="14.74"/>
      <circle cx="37.80" cy="453.54" r="14.74"/>
      <circle cx="86.93" cy="453.54" r="14.74"/>
      <circle cx="136.06" cy="453.54" r="14.74"/>
      <circle cx="185.20" cy="453.54" r="14.74"/>
      <circle cx="234.33" cy="453.54" r="14.74"/>
    </g>
    <g stroke="#b8860b" opacity="0.55">
      <circle cx="302.36" cy="396.85" r="14.74"/>
      <circle cx="351.49" cy="396.85" r="14.74"/>
      <circle cx="400.63" cy="396.85" r="14.74"/>
      <circle cx="449.76" cy="396.85" r="14.74"/>
      <circle cx="498.89" cy="396.85" r="14.74"/>
      <circle cx="302.36" cy="453.54" r="14.74"/>
      <circle cx="351.49" cy="453.54" r="14.74"/>
      <circle cx="400.63" cy="453.54" r="14.74"/>
      <circle cx="449.76" cy="453.54" r="14.74"/>
    </g>
  </g>
</svg>