<svg xmlns="http://www.w3.org/2000/svg" xmlns:inkscape="http://www.inkscape.org/namespaces/inkscape" width="767.99" height="485.67" viewBox="0 0 767.99 485.67">
<g inkscape:label="artwork" inkscape:groupmode="layer">
<rect width="767.99" height="485.67" fill="#16181c"/>
<g opacity="0.16">
<polygon points="59.0,485.7 77.1,485.7 71.8,272.1 64.2,272.1" fill="#2a3038"/>
<ellipse cx="68.0" cy="272.1" rx="49.1" ry="14.7" fill="#323a44"/>
<line x1="68.0" y1="272.1" x2="14.7" y2="267.9" stroke="#323a44" stroke-width="0.7"/>
<line x1="68.0" y1="272.1" x2="20.9" y2="258.9" stroke="#323a44" stroke-width="0.7"/>
<line x1="68.0" y1="272.1" x2="32.9" y2="251.6" stroke="#323a44" stroke-width="0.7"/>
<line x1="68.0" y1="272.1" x2="49.3" y2="246.8" stroke="#323a44" stroke-width="0.7"/>
<line x1="68.0" y1="272.1" x2="68.0" y2="245.1" stroke="#323a44" stroke-width="0.7"/>
<line x1="68.0" y1="272.1" x2="86.7" y2="246.8" stroke="#323a44" stroke-width="0.7"/>
<line x1="68.0" y1="272.1" x2="103.1" y2="251.6" stroke="#323a44" stroke-width="0.7"/>
<line x1="68.0" y1="272.1" x2="115.2" y2="258.9" stroke="#323a44" stroke-width="0.7"/>
<line x1="68.0" y1="272.1" x2="121.4" y2="267.9" stroke="#323a44" stroke-width="0.7"/>
<polygon points="198.8,485.7 216.9,485.7 211.7,226.8 204.1,226.8" fill="#2a3038"/>
<ellipse cx="207.9" cy="226.8" rx="60.5" ry="18.1" fill="#323a44"/>
<line x1="207.9" y1="226.8" x2="142.2" y2="221.6" stroke="#323a44" stroke-width="0.7"/>
<line x1="207.9" y1="226.8" x2="149.8" y2="210.5" stroke="#323a44" stroke-width="0.7"/>
<line x1="207.9" y1="226.8" x2="164.7" y2="201.5" stroke="#323a44" stroke-width="0.7"/>
<line x1="207.9" y1="226.8" x2="184.8" y2="195.6" stroke="#323a44" stroke-width="0.7"/>
<line x1="207.9" y1="226.8" x2="207.9" y2="193.5" stroke="#323a44" stroke-width="0.7"/>
<line x1="207.9" y1="226.8" x2="230.9" y2="195.6" stroke="#323a44" stroke-width="0.7"/>
<line x1="207.9" y1="226.8" x2="251.1" y2="201.5" stroke="#323a44" stroke-width="0.7"/>
<line x1="207.9" y1="226.8" x2="265.9" y2="210.5" stroke="#323a44" stroke-width="0.7"/>
<line x1="207.9" y1="226.8" x2="273.6" y2="221.6" stroke="#323a44" stroke-width="0.7"/>
<polygon points="350.0,485.7 368.1,485.7 362.8,294.8 355.3,294.8" fill="#2a3038"/>
<ellipse cx="359.1" cy="294.8" rx="41.6" ry="12.5" fill="#323a44"/>
<line x1="359.1" y1="294.8" x2="313.9" y2="291.2" stroke="#323a44" stroke-width="0.7"/>
<line x1="359.1" y1="294.8" x2="319.1" y2="283.6" stroke="#323a44" stroke-width="0.7"/>
<line x1="359.1" y1="294.8" x2="329.4" y2="277.4" stroke="#323a44" stroke-width="0.7"/>
<line x1="359.1" y1="294.8" x2="343.2" y2="273.4" stroke="#323a44" stroke-width="0.7"/>
<line x1="359.1" y1="294.8" x2="359.1" y2="271.9" stroke="#323a44" stroke-width="0.7"/>
<line x1="359.1" y1="294.8" x2="374.9" y2="273.4" stroke="#323a44" stroke-width="0.7"/>
<line x1="359.1" y1="294.8" x2="388.8" y2="277.4" stroke="#323a44" stroke-width="0.7"/>
<line x1="359.1" y1="294.8" x2="398.9" y2="283.6" stroke="#323a44" stroke-width="0.7"/>
<line x1="359.1" y1="294.8" x2="404.2" y2="291.2" stroke="#323a44" stroke-width="0.7"/>
<polygon points="482.3,485.7 500.4,485.7 495.1,241.9 487.6,241.9" fill="#2a3038"/>
<ellipse cx="491.3" cy="241.9" rx="52.9" ry="15.9" fill="#323a44"/>
<line x1="491.3" y1="241.9" x2="433.9" y2="237.3" stroke="#323a44" stroke-width="0.7"/>
<line x1="491.3" y1="241.9" x2="440.6" y2="227.7" stroke="#323a44" stroke-width="0.7"/>
<line x1="491.3" y1="241.9" x2="453.5" y2="219.8" stroke="#323a44" stroke-width="0.7"/>
<line x1="491.3" y1="241.9" x2="471.2" y2="214.6" stroke="#323a44" stroke-width="0.7"/>
<line x1="491.3" y1="241.9" x2="491.3" y2="212.8" stroke="#323a44" stroke-width="0.7"/>
<line x1="491.3" y1="241.9" x2="511.5" y2="214.6" stroke="#323a44" stroke-width="0.7"/>
<line x1="491.3" y1="241.9" x2="529.1" y2="219.8" stroke="#323a44" stroke-width="0.7"/>
<line x1="491.3" y1="241.9" x2="542.1" y2="227.7" stroke="#323a44" stroke-width="0.7"/>
<line x1="491.3" y1="241.9" x2="548.8" y2="237.3" stroke="#323a44" stroke-width="0.7"/>
<polygon points="614.5,485.7 632.7,485.7 627.4,264.6 619.8,264.6" fill="#2a3038"/>
<ellipse cx="623.6" cy="264.6" rx="45.4" ry="13.6" fill="#323a44"/>
<line x1="623.6" y1="264.6" x2="574.3" y2="260.7" stroke="#323a44" stroke-width="0.7"/>
<line x1="623.6" y1="264.6" x2="580.1" y2="252.4" stroke="#323a44" stroke-width="0.7"/>
<line x1="623.6" y1="264.6" x2="591.2" y2="245.6" stroke="#323a44" stroke-width="0.7"/>
<line x1="623.6" y1="264.6" x2="606.4" y2="241.2" stroke="#323a44" stroke-width="0.7"/>
<line x1="623.6" y1="264.6" x2="623.6" y2="239.6" stroke="#323a44" stroke-width="0.7"/>
<line x1="623.6" y1="264.6" x2="640.9" y2="241.2" stroke="#323a44" stroke-width="0.7"/>
<line x1="623.6" y1="264.6" x2="656.0" y2="245.6" stroke="#323a44" stroke-width="0.7"/>
<line x1="623.6" y1="264.6" x2="667.1" y2="252.4" stroke="#323a44" stroke-width="0.7"/>
<line x1="623.6" y1="264.6" x2="672.9" y2="260.7" stroke="#323a44" stroke-width="0.7"/>
<polygon points="716.6,485.7 734.7,485.7 729.4,219.2 721.9,219.2" fill="#2a3038"/>
<ellipse cx="725.7" cy="219.2" rx="56.7" ry="17.0" fill="#323a44"/>
<line x1="725.7" y1="219.2" x2="664.1" y2="214.3" stroke="#323a44" stroke-width="0.7"/>
<line x1="725.7" y1="219.2" x2="671.2" y2="204.0" stroke="#323a44" stroke-width="0.7"/>
<line x1="725.7" y1="219.2" x2="685.2" y2="195.5" stroke="#323a44" stroke-width="0.7"/>
<line x1="725.7" y1="219.2" x2="704.1" y2="190.0" stroke="#323a44" stroke-width="0.7"/>
<line x1="725.7" y1="219.2" x2="725.7" y2="188.0" stroke="#323a44" stroke-width="0.7"/>
<line x1="725.7" y1="219.2" x2="747.2" y2="190.0" stroke="#323a44" stroke-width="0.7"/>
<line x1="725.7" y1="219.2" x2="766.2" y2="195.5" stroke="#323a44" stroke-width="0.7"/>
<line x1="725.7" y1="219.2" x2="780.1" y2="204.0" stroke="#323a44" stroke-width="0.7"/>
<line x1="725.7" y1="219.2" x2="787.3" y2="214.3" stroke="#323a44" stroke-width="0.7"/>
</g>
<line x1="0" y1="41.6" x2="767.99" y2="41.6" stroke="#dc2626" stroke-width="1" opacity="0.4"/>
<line x1="15.1" y1="151.2" x2="752.9" y2="151.2" stroke="#2a2f37" stroke-width="0.5" opacity="0.4"/>
<line x1="15.1" y1="294.8" x2="752.9" y2="294.8" stroke="#2a2f37" stroke-width="0.5" opacity="0.4"/>
<line x1="15.1" y1="374.2" x2="752.9" y2="374.2" stroke="#2a2f37" stroke-width="0.5" opacity="0.4"/>
</g>
<g inkscape:label="control-graphics" inkscape:groupmode="layer">
<circle cx="60.5" cy="83.2" r="51.0" fill="#0f1114" stroke="#3a4048" stroke-width="1.2"/>
<circle cx="158.7" cy="83.2" r="41.6" fill="#0f1114" stroke="#3a4048" stroke-width="1.2"/>
<circle cx="257.0" cy="83.2" r="41.6" fill="#0f1114" stroke="#3a4048" stroke-width="1.2"/>
<circle cx="355.3" cy="83.2" r="41.6" fill="#0f1114" stroke="#3a4048" stroke-width="1.2"/>
<circle cx="453.5" cy="83.2" r="41.6" fill="#0f1114" stroke="#3a4048" stroke-width="1.2"/>
<text x="60.5" y="141.7" font-family="sans-serif" font-size="9.8" fill="#d8d8dc" text-anchor="middle">NOTE VALUE</text>
<text x="158.7" y="141.7" font-family="sans-serif" font-size="9.8" fill="#d8d8dc" text-anchor="middle">VARIATION</text>
<text x="257.0" y="141.7" font-family="sans-serif" font-size="9.8" fill="#d8d8dc" text-anchor="middle">LEGATO</text>
<text x="355.3" y="141.7" font-family="sans-serif" font-size="9.8" fill="#d8d8dc" text-anchor="middle">REST</text>
<text x="453.5" y="141.7" font-family="sans-serif" font-size="9.8" fill="#d8d8dc" text-anchor="middle">ACCENT</text>
<circle cx="559.4" cy="219.2" r="30.2" fill="#0f1114" stroke="#3a4048" stroke-width="1.2"/>
<circle cx="616.1" cy="219.2" r="30.2" fill="#0f1114" stroke="#3a4048" stroke-width="1.2"/>
<circle cx="672.8" cy="219.2" r="30.2" fill="#0f1114" stroke="#3a4048" stroke-width="1.2"/>
<text x="559.4" y="262.7" font-family="sans-serif" font-size="9.1" fill="#d8d8dc" text-anchor="middle">BPM</text>
<text x="616.1" y="262.7" font-family="sans-serif" font-size="9.1" fill="#d8d8dc" text-anchor="middle">LEN</text>
<text x="672.8" y="262.7" font-family="sans-serif" font-size="9.1" fill="#d8d8dc" text-anchor="middle">OFFSET</text>
<circle cx="612.3" cy="113.4" r="68.0" fill="none" stroke="#c8960c" stroke-width="0.8" opacity="0.6"/>
<circle cx="612.3" cy="113.4" r="37.8" fill="#0f1114" opacity="0.4"/>
<rect x="22.3" y="170.1" width="12.1" height="111.5" rx="5.3" fill="#101216" stroke="#2a2f37" stroke-width="0.5"/>
<rect x="56.3" y="170.1" width="12.1" height="111.5" rx="5.3" fill="#101216" stroke="#2a2f37" stroke-width="0.5"/>
<rect x="90.3" y="170.1" width="12.1" height="111.5" rx="5.3" fill="#101216" stroke="#2a2f37" stroke-width="0.5"/>
<rect x="124.3" y="170.1" width="12.1" height="111.5" rx="5.3" fill="#101216" stroke="#2a2f37" stroke-width="0.5"/>
<rect x="158.4" y="170.1" width="12.1" height="111.5" rx="5.3" fill="#101216" stroke="#2a2f37" stroke-width="0.5"/>
<rect x="192.4" y="170.1" width="12.1" height="111.5" rx="5.3" fill="#101216" stroke="#2a2f37" stroke-width="0.5"/>
<rect x="226.4" y="170.1" width="12.1" height="111.5" rx="5.3" fill="#101216" stroke="#2a2f37" stroke-width="0.5"/>
<rect x="260.4" y="170.1" width="12.1" height="111.5" rx="5.3" fill="#101216" stroke="#2a2f37" stroke-width="0.5"/>
<rect x="294.4" y="170.1" width="12.1" height="111.5" rx="5.3" fill="#101216" stroke="#2a2f37" stroke-width="0.5"/>
<rect x="328.4" y="170.1" width="12.1" height="111.5" rx="5.3" fill="#101216" stroke="#2a2f37" stroke-width="0.5"/>
<rect x="362.4" y="170.1" width="12.1" height="111.5" rx="5.3" fill="#101216" stroke="#2a2f37" stroke-width="0.5"/>
<rect x="396.5" y="170.1" width="12.1" height="111.5" rx="5.3" fill="#101216" stroke="#2a2f37" stroke-width="0.5"/>
<text x="28.4" y="164.4" font-family="sans-serif" font-size="7.6" fill="#8a8f98" text-anchor="middle">C</text>
<text x="62.4" y="164.4" font-family="sans-serif" font-size="7.6" fill="#8a8f98" text-anchor="middle">C#</text>
<text x="96.4" y="164.4" font-family="sans-serif" font-size="7.6" fill="#8a8f98" text-anchor="middle">D</text>
<text x="130.4" y="164.4" font-family="sans-serif" font-size="7.6" fill="#8a8f98" text-anchor="middle">D#</text>
<text x="164.4" y="164.4" font-family="sans-serif" font-size="7.6" fill="#8a8f98" text-anchor="middle">E</text>
<text x="198.4" y="164.4" font-family="sans-serif" font-size="7.6" fill="#8a8f98" text-anchor="middle">F</text>
<text x="232.4" y="164.4" font-family="sans-serif" font-size="7.6" fill="#8a8f98" text-anchor="middle">F#</text>
<text x="266.4" y="164.4" font-family="sans-serif" font-size="7.6" fill="#8a8f98" text-anchor="middle">G</text>
<text x="300.5" y="164.4" font-family="sans-serif" font-size="7.6" fill="#8a8f98" text-anchor="middle">G#</text>
<text x="334.5" y="164.4" font-family="sans-serif" font-size="7.6" fill="#8a8f98" text-anchor="middle">A</text>
<text x="368.5" y="164.4" font-family="sans-serif" font-size="7.6" fill="#8a8f98" text-anchor="middle">A#</text>
<text x="402.5" y="164.4" font-family="sans-serif" font-size="7.6" fill="#8a8f98" text-anchor="middle">B</text>
<rect x="443.7" y="170.1" width="12.1" height="111.5" rx="5.3" fill="#101216" stroke="#dc2626" stroke-width="0.6" opacity="0.8"/>
<text x="449.8" y="164.4" font-family="sans-serif" font-size="7.6" fill="#26a69a" text-anchor="middle">LO</text>
<rect x="477.7" y="170.1" width="12.1" height="111.5" rx="5.3" fill="#101216" stroke="#dc2626" stroke-width="0.6" opacity="0.8"/>
<text x="483.8" y="164.4" font-family="sans-serif" font-size="7.6" fill="#26a69a" text-anchor="middle">HI</text>
<circle cx="744.6" cy="45.4" r="9.1" fill="#0f1114" stroke="#3a4048" stroke-width="1"/>
<text x="744.6" y="30.2" font-family="sans-serif" font-size="9.1" fill="#d8d8dc" text-anchor="middle">MODE</text>
<text x="710.5" y="132.3" font-family="sans-serif" font-size="9.8" fill="#8a8f98" text-anchor="end">A</text>
<text x="710.5" y="162.5" font-family="sans-serif" font-size="9.8" fill="#8a8f98" text-anchor="end">B</text>
<text x="710.5" y="192.8" font-family="sans-serif" font-size="9.8" fill="#8a8f98" text-anchor="end">C</text>
<text x="710.5" y="223.0" font-family="sans-serif" font-size="9.8" fill="#8a8f98" text-anchor="end">D</text>
<circle cx="446.0" cy="328.8" r="8.3" fill="#0f1114" stroke="#3a4048" stroke-width="0.9"/>
<text x="446.0" y="313.7" font-family="sans-serif" font-size="7.2" fill="#8a8f98" text-anchor="middle">DICE R</text>
<circle cx="502.7" cy="328.8" r="8.3" fill="#0f1114" stroke="#3a4048" stroke-width="0.9"/>
<text x="502.7" y="313.7" font-family="sans-serif" font-size="7.2" fill="#8a8f98" text-anchor="middle">DICE M</text>
<circle cx="559.4" cy="328.8" r="8.3" fill="#0f1114" stroke="#3a4048" stroke-width="0.9"/>
<text x="559.4" y="313.7" font-family="sans-serif" font-size="7.2" fill="#8a8f98" text-anchor="middle">LOCK</text>
<circle cx="616.1" cy="328.8" r="8.3" fill="#0f1114" stroke="#3a4048" stroke-width="0.9"/>
<text x="616.1" y="313.7" font-family="sans-serif" font-size="7.2" fill="#8a8f98" text-anchor="middle">MUTE</text>
<circle cx="672.8" cy="328.8" r="8.3" fill="#0f1114" stroke="#3a4048" stroke-width="0.9"/>
<text x="672.8" y="313.7" font-family="sans-serif" font-size="7.2" fill="#8a8f98" text-anchor="middle">RESET</text>
<circle cx="729.4" cy="328.8" r="8.3" fill="#0f1114" stroke="#3a4048" stroke-width="0.9"/>
<text x="729.4" y="313.7" font-family="sans-serif" font-size="7.2" fill="#8a8f98" text-anchor="middle">RUN</text>
<circle cx="60.5" cy="396.9" r="14.7" fill="#0b0d10" stroke="#4a5058" stroke-width="1"/>
<circle cx="60.5" cy="396.9" r="6.4" fill="#101216"/>
<text x="60.5" y="376.1" font-family="sans-serif" font-size="7.2" fill="#8a8f98" text-anchor="middle">RUN</text>
<circle cx="113.4" cy="396.9" r="14.7" fill="#0b0d10" stroke="#4a5058" stroke-width="1"/>
<circle cx="113.4" cy="396.9" r="6.4" fill="#101216"/>
<text x="113.4" y="376.1" font-family="sans-serif" font-size="7.2" fill="#8a8f98" text-anchor="middle">RST</text>
<circle cx="181.4" cy="396.9" r="14.7" fill="#0b0d10" stroke="#4a5058" stroke-width="1"/>
<circle cx="181.4" cy="396.9" r="6.4" fill="#101216"/>
<text x="181.4" y="376.1" font-family="sans-serif" font-size="7.2" fill="#8a8f98" text-anchor="middle">SEED</text>
<circle cx="249.4" cy="396.9" r="14.7" fill="#0b0d10" stroke="#4a5058" stroke-width="1"/>
<circle cx="249.4" cy="396.9" r="6.4" fill="#101216"/>
<text x="249.4" y="376.1" font-family="sans-serif" font-size="7.2" fill="#8a8f98" text-anchor="middle">LEN</text>
<circle cx="317.5" cy="396.9" r="14.7" fill="#0b0d10" stroke="#4a5058" stroke-width="1"/>
<circle cx="317.5" cy="396.9" r="6.4" fill="#101216"/>
<text x="317.5" y="376.1" font-family="sans-serif" font-size="7.2" fill="#8a8f98" text-anchor="middle">OFF</text>
<circle cx="60.5" cy="453.5" r="14.7" fill="#0b0d10" stroke="#4a5058" stroke-width="1"/>
<circle cx="60.5" cy="453.5" r="6.4" fill="#101216"/>
<text x="60.5" y="478.1" font-family="sans-serif" font-size="7.2" fill="#8a8f98" text-anchor="middle">CLK</text>
<circle cx="113.4" cy="453.5" r="14.7" fill="#0b0d10" stroke="#4a5058" stroke-width="1"/>
<circle cx="113.4" cy="453.5" r="6.4" fill="#101216"/>
<text x="113.4" y="478.1" font-family="sans-serif" font-size="7.2" fill="#8a8f98" text-anchor="middle">G1</text>
<circle cx="181.4" cy="453.5" r="14.7" fill="#0b0d10" stroke="#4a5058" stroke-width="1"/>
<circle cx="181.4" cy="453.5" r="6.4" fill="#101216"/>
<text x="181.4" y="478.1" font-family="sans-serif" font-size="7.2" fill="#8a8f98" text-anchor="middle">G2</text>
<circle cx="249.4" cy="453.5" r="14.7" fill="#0b0d10" stroke="#4a5058" stroke-width="1"/>
<circle cx="249.4" cy="453.5" r="6.4" fill="#101216"/>
<text x="249.4" y="478.1" font-family="sans-serif" font-size="7.2" fill="#8a8f98" text-anchor="middle">CV1</text>
<circle cx="317.5" cy="453.5" r="14.7" fill="#0b0d10" stroke="#4a5058" stroke-width="1"/>
<circle cx="317.5" cy="453.5" r="6.4" fill="#101216"/>
<text x="317.5" y="478.1" font-family="sans-serif" font-size="7.2" fill="#8a8f98" text-anchor="middle">CV2</text>
<circle cx="393.1" cy="396.9" r="14.7" fill="#0b0d10" stroke="#4a5058" stroke-width="1"/>
<circle cx="393.1" cy="396.9" r="6.4" fill="#101216"/>
<text x="393.1" y="376.1" font-family="sans-serif" font-size="7.2" fill="#8a8f98" text-anchor="middle">GATE</text>
<circle cx="461.1" cy="396.9" r="14.7" fill="#0b0d10" stroke="#4a5058" stroke-width="1"/>
<circle cx="461.1" cy="396.9" r="6.4" fill="#101216"/>
<text x="461.1" y="376.1" font-family="sans-serif" font-size="7.2" fill="#8a8f98" text-anchor="middle">TIE</text>
<circle cx="529.1" cy="396.9" r="14.7" fill="#0b0d10" stroke="#4a5058" stroke-width="1"/>
<circle cx="529.1" cy="396.9" r="6.4" fill="#101216"/>
<text x="529.1" y="376.1" font-family="sans-serif" font-size="7.2" fill="#8a8f98" text-anchor="middle">LEG</text>
<circle cx="597.2" cy="396.9" r="14.7" fill="#0b0d10" stroke="#4a5058" stroke-width="1"/>
<circle cx="597.2" cy="396.9" r="6.4" fill="#101216"/>
<text x="597.2" y="376.1" font-family="sans-serif" font-size="7.2" fill="#8a8f98" text-anchor="middle">T|L</text>
<circle cx="665.2" cy="396.9" r="14.7" fill="#0b0d10" stroke="#4a5058" stroke-width="1"/>
<circle cx="665.2" cy="396.9" r="6.4" fill="#101216"/>
<text x="665.2" y="376.1" font-family="sans-serif" font-size="7.2" fill="#8a8f98" text-anchor="middle">ACC</text>
<circle cx="393.1" cy="453.5" r="14.7" fill="#0b0d10" stroke="#4a5058" stroke-width="1"/>
<circle cx="393.1" cy="453.5" r="6.4" fill="#101216"/>
<text x="393.1" y="478.1" font-family="sans-serif" font-size="7.2" fill="#8a8f98" text-anchor="middle">CV</text>
<circle cx="461.1" cy="453.5" r="14.7" fill="#0b0d10" stroke="#4a5058" stroke-width="1"/>
<circle cx="461.1" cy="453.5" r="6.4" fill="#101216"/>
<text x="461.1" y="478.1" font-family="sans-serif" font-size="7.2" fill="#8a8f98" text-anchor="middle">SEED</text>
<circle cx="529.1" cy="453.5" r="14.7" fill="#0b0d10" stroke="#4a5058" stroke-width="1"/>
<circle cx="529.1" cy="453.5" r="6.4" fill="#101216"/>
<text x="529.1" y="478.1" font-family="sans-serif" font-size="7.2" fill="#8a8f98" text-anchor="middle">RUN</text>
<circle cx="597.2" cy="453.5" r="14.7" fill="#0b0d10" stroke="#4a5058" stroke-width="1"/>
<circle cx="597.2" cy="453.5" r="6.4" fill="#101216"/>
<text x="597.2" y="478.1" font-family="sans-serif" font-size="7.2" fill="#8a8f98" text-anchor="middle">RST</text>
<circle cx="15.1" cy="15.1" r="3.4" fill="#26a69a" opacity="0.5"/>
<circle cx="34.0" cy="15.1" r="3.4" fill="#26a69a" opacity="0.5"/>
<circle cx="52.9" cy="15.1" r="3.4" fill="#26a69a" opacity="0.5"/>
</g>
<g inkscape:label="components" inkscape:groupmode="layer" id="components" style="display:none">
    <circle id="SEMI0_PARAM" cx="28.346" cy="225.825" r="3.780" style="fill:#ff0000"/>
    <circle id="SEMI1_PARAM" cx="62.362" cy="225.825" r="3.780" style="fill:#ff0000"/>
    <circle id="SEMI2_PARAM" cx="96.377" cy="225.825" r="3.780" style="fill:#ff0000"/>
    <circle id="SEMI3_PARAM" cx="130.393" cy="225.825" r="3.780" style="fill:#ff0000"/>
    <circle id="SEMI4_PARAM" cx="164.408" cy="225.825" r="3.780" style="fill:#ff0000"/>
    <circle id="SEMI5_PARAM" cx="198.424" cy="225.825" r="3.780" style="fill:#ff0000"/>
    <circle id="SEMI6_PARAM" cx="232.439" cy="225.825" r="3.780" style="fill:#ff0000"/>
    <circle id="SEMI7_PARAM" cx="266.455" cy="225.825" r="3.780" style="fill:#ff0000"/>
    <circle id="SEMI8_PARAM" cx="300.470" cy="225.825" r="3.780" style="fill:#ff0000"/>
    <circle id="SEMI9_PARAM" cx="334.486" cy="225.825" r="3.780" style="fill:#ff0000"/>
    <circle id="SEMI10_PARAM" cx="368.501" cy="225.825" r="3.780" style="fill:#ff0000"/>
    <circle id="SEMI11_PARAM" cx="402.517" cy="225.825" r="3.780" style="fill:#ff0000"/>
    <circle id="OCT_LO_PARAM" cx="449.761" cy="225.825" r="3.780" style="fill:#ff0000"/>
    <circle id="OCT_HI_PARAM" cx="483.776" cy="225.825" r="3.780" style="fill:#ff0000"/>
    <circle id="MODE_PARAM" cx="744.562" cy="45.354" r="3.780" style="fill:#ff0000"/>
    <circle id="DICE_R_PARAM" cx="445.981" cy="328.817" r="3.780" style="fill:#ff0000"/>
    <circle id="DICE_M_PARAM" cx="502.673" cy="328.817" r="3.780" style="fill:#ff0000"/>
    <circle id="LOCK_PARAM" cx="559.366" cy="328.817" r="3.780" style="fill:#ff0000"/>
    <circle id="MUTE_PARAM" cx="616.058" cy="328.817" r="3.780" style="fill:#ff0000"/>
    <circle id="RESET_BUTTON_PARAM" cx="672.751" cy="328.817" r="3.780" style="fill:#ff0000"/>
    <circle id="RUN_GATE_PARAM" cx="729.443" cy="328.817" r="3.780" style="fill:#ff0000"/>
    <circle id="NOTE_VALUE_PARAM" cx="60.472" cy="83.149" r="3.780" style="fill:#ff0000"/>
    <circle id="VARIATION_PARAM" cx="158.739" cy="83.149" r="3.780" style="fill:#ff0000"/>
    <circle id="LEGATO_PARAM" cx="257.006" cy="83.149" r="3.780" style="fill:#ff0000"/>
    <circle id="REST_PARAM" cx="355.273" cy="83.149" r="3.780" style="fill:#ff0000"/>
    <circle id="ACCENT_KNOB" cx="453.540" cy="83.149" r="3.780" style="fill:#ff0000"/>
    <circle id="BPM_PARAM" cx="559.366" cy="219.211" r="3.780" style="fill:#ff0000"/>
    <circle id="PATTERN_LENGTH_PARAM" cx="616.058" cy="219.211" r="3.780" style="fill:#ff0000"/>
    <circle id="PATTERN_OFFSET_PARAM" cx="672.751" cy="219.211" r="3.780" style="fill:#ff0000"/>
    <circle id="RUN_GATE_INPUT" cx="60.472" cy="396.848" r="3.780" style="fill:#00ff00"/>
    <circle id="RESET_TRIGGER_INPUT" cx="113.385" cy="396.848" r="3.780" style="fill:#00ff00"/>
    <circle id="SEED_INPUT" cx="181.416" cy="396.848" r="3.780" style="fill:#00ff00"/>
    <circle id="LENGTH_INPUT" cx="249.447" cy="396.848" r="3.780" style="fill:#00ff00"/>
    <circle id="OFFSET_INPUT" cx="317.478" cy="396.848" r="3.780" style="fill:#00ff00"/>
    <circle id="CLK_INPUT" cx="60.472" cy="453.540" r="3.780" style="fill:#00ff00"/>
    <circle id="GATE1_INPUT" cx="113.385" cy="453.540" r="3.780" style="fill:#00ff00"/>
    <circle id="GATE2_INPUT" cx="181.416" cy="453.540" r="3.780" style="fill:#00ff00"/>
    <circle id="CV1_INPUT" cx="249.447" cy="453.540" r="3.780" style="fill:#00ff00"/>
    <circle id="CV2_INPUT" cx="317.478" cy="453.540" r="3.780" style="fill:#00ff00"/>
    <circle id="GATE_OUTPUT" cx="393.068" cy="396.848" r="3.780" style="fill:#0000ff"/>
    <circle id="TIE_OUTPUT" cx="461.099" cy="396.848" r="3.780" style="fill:#0000ff"/>
    <circle id="LEGATO_OUTPUT" cx="529.130" cy="396.848" r="3.780" style="fill:#0000ff"/>
    <circle id="TIE_OR_LEGATO_OUTPUT" cx="597.161" cy="396.848" r="3.780" style="fill:#0000ff"/>
    <circle id="ACCENT_OUTPUT" cx="665.192" cy="396.848" r="3.780" style="fill:#0000ff"/>
    <circle id="CV_OUTPUT" cx="393.068" cy="453.540" r="3.780" style="fill:#0000ff"/>
    <circle id="SEED_OUTPUT" cx="461.099" cy="453.540" r="3.780" style="fill:#0000ff"/>
    <circle id="RUN_GATE_OUTPUT" cx="529.130" cy="453.540" r="3.780" style="fill:#0000ff"/>
    <circle id="RESET_TRIGGER_OUTPUT" cx="597.161" cy="453.540" r="3.780" style="fill:#0000ff"/>
    <circle id="STEP_LIGHT_0" cx="612.279" cy="60.472" r="2.268" style="fill:#00ffff"/>
    <circle id="STEP_LIGHT_1" cx="632.528" cy="64.500" r="2.268" style="fill:#00ffff"/>
    <circle id="STEP_LIGHT_2" cx="649.694" cy="75.970" r="2.268" style="fill:#00ffff"/>
    <circle id="STEP_LIGHT_3" cx="661.164" cy="93.136" r="2.268" style="fill:#00ffff"/>
    <circle id="STEP_LIGHT_4" cx="665.192" cy="113.385" r="2.268" style="fill:#00ffff"/>
    <circle id="STEP_LIGHT_5" cx="661.164" cy="133.634" r="2.268" style="fill:#00ffff"/>
    <circle id="STEP_LIGHT_6" cx="649.694" cy="150.800" r="2.268" style="fill:#00ffff"/>
    <circle id="STEP_LIGHT_7" cx="632.528" cy="162.270" r="2.268" style="fill:#00ffff"/>
    <circle id="STEP_LIGHT_8" cx="612.279" cy="166.298" r="2.268" style="fill:#00ffff"/>
    <circle id="STEP_LIGHT_9" cx="592.030" cy="162.270" r="2.268" style="fill:#00ffff"/>
    <circle id="STEP_LIGHT_10" cx="574.864" cy="150.800" r="2.268" style="fill:#00ffff"/>
    <circle id="STEP_LIGHT_11" cx="563.394" cy="133.634" r="2.268" style="fill:#00ffff"/>
    <circle id="STEP_LIGHT_12" cx="559.366" cy="113.385" r="2.268" style="fill:#00ffff"/>
    <circle id="STEP_LIGHT_13" cx="563.394" cy="93.136" r="2.268" style="fill:#00ffff"/>
    <circle id="STEP_LIGHT_14" cx="574.864" cy="75.970" r="2.268" style="fill:#00ffff"/>
    <circle id="STEP_LIGHT_15" cx="592.030" cy="64.500" r="2.268" style="fill:#00ffff"/>
    <circle id="MODE_A_LIGHT_0" cx="725.664" cy="128.503" r="2.268" style="fill:#00ffff"/>
    <circle id="MODE_A_LIGHT_1" cx="725.664" cy="158.739" r="2.268" style="fill:#00ffff"/>
    <circle id="MODE_A_LIGHT_2" cx="725.664" cy="188.975" r="2.268" style="fill:#00ffff"/>
    <circle id="MODE_A_LIGHT_3" cx="725.664" cy="219.211" r="2.268" style="fill:#00ffff"/>
    <circle id="RHYTHM_DICE_LIGHT" cx="445.981" cy="351.493" r="2.268" style="fill:#00ffff"/>
    <circle id="MELODY_DICE_LIGHT" cx="502.673" cy="351.493" r="2.268" style="fill:#00ffff"/>
    <circle id="LOCK_LIGHT" cx="559.366" cy="351.493" r="2.268" style="fill:#00ffff"/>
    <circle id="MUTE_LIGHT" cx="616.058" cy="351.493" r="2.268" style="fill:#00ffff"/>
    <circle id="RESET_LIGHT" cx="672.751" cy="351.493" r="2.268" style="fill:#00ffff"/>
    <circle id="RUN_GATE_LIGHT" cx="729.443" cy="351.493" r="2.268" style="fill:#00ffff"/>
    <circle id="SCALE_EXPANDER_LIGHT" cx="15.118" cy="15.118" r="2.268" style="fill:#00ffff"/>
    <circle id="DNA_EXPANDER_LIGHT" cx="34.016" cy="15.118" r="2.268" style="fill:#00ffff"/>
    <circle id="POLY_EXPANDER_LIGHT" cx="52.913" cy="15.118" r="2.268" style="fill:#00ffff"/>
</g>
</svg>