<svg xmlns="http://www.w3.org/2000/svg" width="767.99" height="485.67" viewBox="0 0 767.99 485.67">
  <defs>
    <pattern id="g" x="0" y="0" width="767.99" height="0.5" patternUnits="userSpaceOnUse">
      <rect width="767.99" height="0.5" fill="#f7f7f7"/>
      <rect y="0.25" width="767.99" height="0.12" fill="#cccccc" opacity="0.35"/>
    </pattern>
    <radialGradient id="gG" cx="50%" cy="50%" r="50%">
      <stop offset="0%" stop-color="#b8860b" stop-opacity="0.32"/>
      <stop offset="65%" stop-color="#b8860b" stop-opacity="0.03"/>
      <stop offset="100%" stop-color="#b8860b" stop-opacity="0.0"/>
    </radialGradient>
    <radialGradient id="gT" cx="50%" cy="50%" r="50%">
      <stop offset="0%" stop-color="#26a69a" stop-opacity="0.28"/>
      <stop offset="65%" stop-color="#26a69a" stop-opacity="0.03"/>
      <stop offset="100%" stop-color="#26a69a" stop-opacity="0.0"/>
    </radialGradient>
  </defs>
  <rect width="767.99" height="485.67" fill="url(#g)"/>
  <g stroke="#cccccc" stroke-width="0.6" opacity="0.45">
    <line x1="0" y1="52.91" x2="767.99" y2="52.91"/>
    <line x1="0" y1="143.62" x2="767.99" y2="143.62"/>
    <line x1="0" y1="294.80" x2="767.99" y2="294.80"/>
    <line x1="0" y1="370.39" x2="767.99" y2="370.39"/>
    <line x1="0" y1="427.08" x2="767.99" y2="427.08"/>
    <line x1="351.49" y1="370.39" x2="351.49" y2="485.67" stroke-dasharray="2,2" opacity="0.35"/>
  </g>
  <!-- Red Dot edge accent lines -->
  <g stroke="#dc2626" stroke-width="1.0" opacity="0.35">
    <line x1="7.56" y1="0" x2="7.56" y2="485.67" stroke-dasharray="3,4"/>
    <line x1="760.44" y1="0" x2="760.44" y2="485.67" stroke-dasharray="3,4"/>
  </g>
  <g stroke="#dc2626" stroke-width="1.0" opacity="0.55">
    <line x1="1.89" y1="52.91" x2="13.23" y2="52.91"/>
    <line x1="754.77" y1="52.91" x2="766.10" y2="52.91"/>
    <line x1="1.89" y1="143.62" x2="13.23" y2="143.62"/>
    <line x1="754.77" y1="143.62" x2="766.10" y2="143.62"/>
    <line x1="1.89" y1="294.80" x2="13.23" y2="294.80"/>
    <line x1="754.77" y1="294.80" x2="766.10" y2="294.80"/>
    <line x1="1.89" y1="370.39" x2="13.23" y2="370.39"/>
    <line x1="754.77" y1="370.39" x2="766.10" y2="370.39"/>
    <line x1="1.89" y1="427.08" x2="13.23" y2="427.08"/>
    <line x1="754.77" y1="427.08" x2="766.10" y2="427.08"/>
  </g>
  <g>
    <polygon points="45.35,41.57 86.93,64.25 86.93,102.05 45.35,124.72 3.78,102.05 3.78,64.25" fill="url(#gG)" stroke="none"/>
    <polygon points="120.94,41.57 162.52,64.25 162.52,102.05 120.94,124.72 79.37,102.05 79.37,64.25" fill="url(#gG)" stroke="none"/>
    <polygon points="196.53,41.57 238.11,64.25 238.11,102.05 196.53,124.72 154.96,102.05 154.96,64.25" fill="url(#gG)" stroke="none"/>
    <polygon points="272.12,41.57 313.70,64.25 313.70,102.05 272.12,124.72 230.55,102.05 230.55,64.25" fill="url(#gG)" stroke="none"/>
    <polygon points="347.71,41.57 389.29,64.25 389.29,102.05 347.71,124.72 306.14,102.05 306.14,64.25" fill="url(#gG)" stroke="none"/>
  </g>
  <g stroke="#9a9a9a" stroke-width="1.0" fill="none" opacity="0.75">
    <polygon points="45.35,41.57 86.93,64.25 86.93,102.05 45.35,124.72 3.78,102.05 3.78,64.25"/>
    <polygon points="120.94,41.57 162.52,64.25 162.52,102.05 120.94,124.72 79.37,102.05 79.37,64.25"/>
    <polygon points="196.53,41.57 238.11,64.25 238.11,102.05 196.53,124.72 154.96,102.05 154.96,64.25"/>
    <polygon points="272.12,41.57 313.70,64.25 313.70,102.05 272.12,124.72 230.55,102.05 230.55,64.25"/>
    <polygon points="347.71,41.57 389.29,64.25 389.29,102.05 347.71,124.72 306.14,102.05 306.14,64.25"/>
  </g>
  <g stroke="#999999" stroke-width="0.6" fill="none" opacity="0.65">
    <polygon points="45.35,56.69 71.81,71.81 71.81,94.49 45.35,109.61 18.90,94.49 18.90,71.81"/>
    <polygon points="120.94,56.69 147.40,71.81 147.40,94.49 120.94,109.61 94.49,94.49 94.49,71.81"/>
    <polygon points="196.53,56.69 222.99,71.81 222.99,94.49 196.53,109.61 170.08,94.49 170.08,71.81"/>
    <polygon points="272.12,56.69 298.58,71.81 298.58,94.49 272.12,109.61 245.67,94.49 245.67,71.81"/>
    <polygon points="347.71,56.69 374.17,71.81 374.17,94.49 347.71,109.61 321.26,94.49 321.26,71.81"/>
  </g>
  <g stroke="#aaaaaa" stroke-width="0.55" fill="none" opacity="0.50">
    <path d="M45.35,56.69 L45.35,41.57 M71.81,71.81 L86.93,64.25 M71.81,94.49 L86.93,102.05 M45.35,109.61 L45.35,124.72 M18.90,94.49 L3.78,102.05 M18.90,71.81 L3.78,64.25"/>
    <path d="M120.94,56.69 L120.94,41.57 M147.40,71.81 L162.52,64.25 M147.40,94.49 L162.52,102.05 M120.94,109.61 L120.94,124.72 M94.49,94.49 L79.37,102.05 M94.49,71.81 L79.37,64.25"/>
    <path d="M196.53,56.69 L196.53,41.57 M222.99,71.81 L238.11,64.25 M222.99,94.49 L238.11,102.05 M196.53,109.61 L196.53,124.72 M170.08,94.49 L154.96,102.05 M170.08,71.81 L154.96,64.25"/>
    <path d="M272.12,56.69 L272.12,41.57 M298.58,71.81 L313.70,64.25 M298.58,94.49 L313.70,102.05 M272.12,109.61 L272.12,124.72 M245.67,94.49 L230.55,102.05 M245.67,71.81 L230.55,64.25"/>
    <path d="M347.71,56.69 L347.71,41.57 M374.17,71.81 L389.29,64.25 M374.17,94.49 L389.29,102.05 M347.71,109.61 L347.71,124.72 M321.26,94.49 L306.14,102.05 M321.26,71.81 L306.14,64.25"/>
  </g>
  <g fill="#b8860b" opacity="0.80">
    <circle cx="45.35" cy="56.69" r="1.6"/>
    <circle cx="71.81" cy="71.81" r="1.6"/>
    <circle cx="71.81" cy="94.49" r="1.6"/>
    <circle cx="45.35" cy="109.61" r="1.6"/>
    <circle cx="18.90" cy="94.49" r="1.6"/>
    <circle cx="18.90" cy="71.81" r="1.6"/>
    <circle cx="120.94" cy="56.69" r="1.6"/>
    <circle cx="147.40" cy="71.81" r="1.6"/>
    <circle cx="147.40" cy="94.49" r="1.6"/>
    <circle cx="120.94" cy="109.61" r="1.6"/>
    <circle cx="94.49" cy="94.49" r="1.6"/>
    <circle cx="94.49" cy="71.81" r="1.6"/>
    <circle cx="196.53" cy="56.69" r="1.6"/>
    <circle cx="222.99" cy="71.81" r="1.6"/>
    <circle cx="222.99" cy="94.49" r="1.6"/>
    <circle cx="196.53" cy="109.61" r="1.6"/>
    <circle cx="170.08" cy="94.49" r="1.6"/>
    <circle cx="170.08" cy="71.81" r="1.6"/>
    <circle cx="272.12" cy="56.69" r="1.6"/>
    <circle cx="298.58" cy="71.81" r="1.6"/>
    <circle cx="298.58" cy="94.49" r="1.6"/>
    <circle cx="272.12" cy="109.61" r="1.6"/>
    <circle cx="245.67" cy="94.49" r="1.6"/>
    <circle cx="245.67" cy="71.81" r="1.6"/>
    <circle cx="347.71" cy="56.69" r="1.6"/>
    <circle cx="374.17" cy="71.81" r="1.6"/>
    <circle cx="374.17" cy="94.49" r="1.6"/>
    <circle cx="347.71" cy="109.61" r="1.6"/>
    <circle cx="321.26" cy="94.49" r="1.6"/>
    <circle cx="321.26" cy="71.81" r="1.6"/>
  </g>
  <g stroke="#888888" stroke-width="0.5" fill="none" opacity="0.58">
    <polygon points="83.15,69.92 96.38,83.15 83.15,96.38 69.92,83.15"/>
    <polygon points="158.74,69.92 171.97,83.15 158.74,96.38 145.51,83.15"/>
    <polygon points="234.33,69.92 247.56,83.15 234.33,96.38 221.10,83.15"/>
    <polygon points="309.92,69.92 323.15,83.15 309.92,96.38 296.69,83.15"/>
  </g>
  <g>
    <polygon points="559.37,196.53 582.04,207.87 582.04,230.55 559.37,241.89 536.69,230.55 536.69,207.87" fill="url(#gT)" stroke="none"/>
    <polygon points="616.06,196.53 638.74,207.87 638.74,230.55 616.06,241.89 593.38,230.55 593.38,207.87" fill="url(#gT)" stroke="none"/>
    <polygon points="672.75,196.53 695.43,207.87 695.43,230.55 672.75,241.89 650.07,230.55 650.07,207.87" fill="url(#gT)" stroke="none"/>
  </g>
  <g stroke="#9a9a9a" stroke-width="0.8" fill="none" opacity="0.75">
    <polygon points="559.37,196.53 582.04,207.87 582.04,230.55 559.37,241.89 536.69,230.55 536.69,207.87"/>
    <polygon points="616.06,196.53 638.74,207.87 638.74,230.55 616.06,241.89 593.38,230.55 593.38,207.87"/>
    <polygon points="672.75,196.53 695.43,207.87 695.43,230.55 672.75,241.89 650.07,230.55 650.07,207.87"/>
  </g>
  <g stroke="#999999" stroke-width="0.5" fill="none" opacity="0.65">
    <polygon points="559.37,204.09 574.48,211.65 574.48,226.77 559.37,234.33 544.25,226.77 544.25,211.65"/>
    <polygon points="616.06,204.09 631.18,211.65 631.18,226.77 616.06,234.33 600.94,226.77 600.94,211.65"/>
    <polygon points="672.75,204.09 687.87,211.65 687.87,226.77 672.75,234.33 657.63,226.77 657.63,211.65"/>
  </g>
  <circle cx="612.28" cy="113.39" r="90.71" fill="url(#gT)" stroke="none"/>
  <g stroke="#9a9a9a" stroke-width="0.9" fill="none" opacity="0.72">
    <circle cx="612.28" cy="113.39" r="75.59"/>
    <circle cx="612.28" cy="113.39" r="90.71" stroke-width="0.45" opacity="0.45"/>
  </g>
  <g stroke="#b8860b" stroke-width="0.75" opacity="0.72">
    <line x1="612.28" y1="43.46" x2="612.28" y2="26.46"/>
    <line x1="639.04" y1="48.79" x2="645.55" y2="33.07"/>
    <line x1="661.72" y1="63.94" x2="673.75" y2="51.92"/>
    <line x1="676.88" y1="86.63" x2="692.59" y2="80.12"/>
    <line x1="682.20" y1="113.39" x2="699.21" y2="113.39"/>
    <line x1="676.88" y1="140.14" x2="692.59" y2="146.65"/>
    <line x1="661.72" y1="162.83" x2="673.75" y2="174.85"/>
    <line x1="639.04" y1="177.98" x2="645.55" y2="193.70"/>
    <line x1="612.28" y1="183.31" x2="612.28" y2="200.31"/>
    <line x1="585.52" y1="177.98" x2="579.01" y2="193.70"/>
    <line x1="562.84" y1="162.83" x2="550.81" y2="174.85"/>
    <line x1="547.68" y1="140.14" x2="531.97" y2="146.65"/>
    <line x1="542.36" y1="113.39" x2="525.35" y2="113.39"/>
    <line x1="547.68" y1="86.63" x2="531.97" y2="80.12"/>
    <line x1="562.84" y1="63.94" x2="550.81" y2="51.92"/>
    <line x1="585.52" y1="48.79" x2="579.01" y2="33.07"/>
  </g>
  <!-- Slider tick marks -->
  <g stroke="#999999" fill="none">
    <g stroke-width="1.0" opacity="0.85">
      <line x1="17.76" y1="170.08" x2="38.93" y2="170.08"/>
      <line x1="51.78" y1="170.08" x2="72.94" y2="170.08"/>
      <line x1="85.79" y1="170.08" x2="106.96" y2="170.08"/>
      <line x1="119.81" y1="170.08" x2="140.98" y2="170.08"/>
      <line x1="153.83" y1="170.08" x2="174.99" y2="170.08"/>
      <line x1="187.84" y1="170.08" x2="209.01" y2="170.08"/>
      <line x1="221.86" y1="170.08" x2="243.02" y2="170.08"/>
      <line x1="255.87" y1="170.08" x2="277.04" y2="170.08"/>
      <line x1="289.89" y1="170.08" x2="311.05" y2="170.08"/>
      <line x1="323.90" y1="170.08" x2="345.07" y2="170.08"/>
      <line x1="357.92" y1="170.08" x2="379.08" y2="170.08"/>
      <line x1="391.93" y1="170.08" x2="413.10" y2="170.08"/>
      <line x1="439.18" y1="170.08" x2="460.34" y2="170.08"/>
      <line x1="473.19" y1="170.08" x2="494.36" y2="170.08"/>
    </g>
    <g stroke-width="0.65" opacity="0.55">
      <line x1="22.30" y1="184.01" x2="34.39" y2="184.01"/>
      <line x1="56.31" y1="184.01" x2="68.41" y2="184.01"/>
      <line x1="90.33" y1="184.01" x2="102.42" y2="184.01"/>
      <line x1="124.35" y1="184.01" x2="136.44" y2="184.01"/>
      <line x1="158.36" y1="184.01" x2="170.46" y2="184.01"/>
      <line x1="192.38" y1="184.01" x2="204.47" y2="184.01"/>
      <line x1="226.39" y1="184.01" x2="238.49" y2="184.01"/>
      <line x1="260.41" y1="184.01" x2="272.50" y2="184.01"/>
      <line x1="294.42" y1="184.01" x2="306.52" y2="184.01"/>
      <line x1="328.44" y1="184.01" x2="340.53" y2="184.01"/>
      <line x1="362.45" y1="184.01" x2="374.55" y2="184.01"/>
      <line x1="396.47" y1="184.01" x2="408.56" y2="184.01"/>
      <line x1="443.71" y1="184.01" x2="455.81" y2="184.01"/>
      <line x1="477.73" y1="184.01" x2="489.82" y2="184.01"/>
    </g>
    <g stroke-width="0.65" opacity="0.55">
      <line x1="22.30" y1="197.95" x2="34.39" y2="197.95"/>
      <line x1="56.31" y1="197.95" x2="68.41" y2="197.95"/>
      <line x1="90.33" y1="197.95" x2="102.42" y2="197.95"/>
      <line x1="124.35" y1="197.95" x2="136.44" y2="197.95"/>
      <line x1="158.36" y1="197.95" x2="170.46" y2="197.95"/>
      <line x1="192.38" y1="197.95" x2="204.47" y2="197.95"/>
      <line x1="226.39" y1="197.95" x2="238.49" y2="197.95"/>
      <line x1="260.41" y1="197.95" x2="272.50" y2="197.95"/>
      <line x1="294.42" y1="197.95" x2="306.52" y2="197.95"/>
      <line x1="328.44" y1="197.95" x2="340.53" y2="197.95"/>
      <line x1="362.45" y1="197.95" x2="374.55" y2="197.95"/>
      <line x1="396.47" y1="197.95" x2="408.56" y2="197.95"/>
      <line x1="443.71" y1="197.95" x2="455.81" y2="197.95"/>
      <line x1="477.73" y1="197.95" x2="489.82" y2="197.95"/>
    </g>
    <g stroke-width="0.65" opacity="0.55">
      <line x1="22.30" y1="211.89" x2="34.39" y2="211.89"/>
      <line x1="56.31" y1="211.89" x2="68.41" y2="211.89"/>
      <line x1="90.33" y1="211.89" x2="102.42" y2="211.89"/>
      <line x1="124.35" y1="211.89" x2="136.44" y2="211.89"/>
      <line x1="158.36" y1="211.89" x2="170.46" y2="211.89"/>
      <line x1="192.38" y1="211.89" x2="204.47" y2="211.89"/>
      <line x1="226.39" y1="211.89" x2="238.49" y2="211.89"/>
      <line x1="260.41" y1="211.89" x2="272.50" y2="211.89"/>
      <line x1="294.42" y1="211.89" x2="306.52" y2="211.89"/>
      <line x1="328.44" y1="211.89" x2="340.53" y2="211.89"/>
      <line x1="362.45" y1="211.89" x2="374.55" y2="211.89"/>
      <line x1="396.47" y1="211.89" x2="408.56" y2="211.89"/>
      <line x1="443.71" y1="211.89" x2="455.81" y2="211.89"/>
      <line x1="477.73" y1="211.89" x2="489.82" y2="211.89"/>
    </g>
    <g stroke-width="1.0" opacity="0.85">
      <line x1="17.76" y1="225.83" x2="38.93" y2="225.83"/>
      <line x1="51.78" y1="225.83" x2="72.94" y2="225.83"/>
      <line x1="85.79" y1="225.83" x2="106.96" y2="225.83"/>
      <line x1="119.81" y1="225.83" x2="140.98" y2="225.83"/>
      <line x1="153.83" y1="225.83" x2="174.99" y2="225.83"/>
      <line x1="187.84" y1="225.83" x2="209.01" y2="225.83"/>
      <line x1="221.86" y1="225.83" x2="243.02" y2="225.83"/>
      <line x1="255.87" y1="225.83" x2="277.04" y2="225.83"/>
      <line x1="289.89" y1="225.83" x2="311.05" y2="225.83"/>
      <line x1="323.90" y1="225.83" x2="345.07" y2="225.83"/>
      <line x1="357.92" y1="225.83" x2="379.08" y2="225.83"/>
      <line x1="391.93" y1="225.83" x2="413.10" y2="225.83"/>
      <line x1="439.18" y1="225.83" x2="460.34" y2="225.83"/>
      <line x1="473.19" y1="225.83" x2="494.36" y2="225.83"/>
    </g>
    <g stroke-width="0.65" opacity="0.55">
      <line x1="22.30" y1="239.76" x2="34.39" y2="239.76"/>
      <line x1="56.31" y1="239.76" x2="68.41" y2="239.76"/>
      <line x1="90.33" y1="239.76" x2="102.42" y2="239.76"/>
      <line x1="124.35" y1="239.76" x2="136.44" y2="239.76"/>
      <line x1="158.36" y1="239.76" x2="170.46" y2="239.76"/>
      <line x1="192.38" y1="239.76" x2="204.47" y2="239.76"/>
      <line x1="226.39" y1="239.76" x2="238.49" y2="239.76"/>
      <line x1="260.41" y1="239.76" x2="272.50" y2="239.76"/>
      <line x1="294.42" y1="239.76" x2="306.52" y2="239.76"/>
      <line x1="328.44" y1="239.76" x2="340.53" y2="239.76"/>
      <line x1="362.45" y1="239.76" x2="374.55" y2="239.76"/>
      <line x1="396.47" y1="239.76" x2="408.56" y2="239.76"/>
      <line x1="443.71" y1="239.76" x2="455.81" y2="239.76"/>
      <line x1="477.73" y1="239.76" x2="489.82" y2="239.76"/>
    </g>
    <g stroke-width="0.65" opacity="0.55">
      <line x1="22.30" y1="253.70" x2="34.39" y2="253.70"/>
      <line x1="56.31" y1="253.70" x2="68.41" y2="253.70"/>
      <line x1="90.33" y1="253.70" x2="102.42" y2="253.70"/>
      <line x1="124.35" y1="253.70" x2="136.44" y2="253.70"/>
      <line x1="158.36" y1="253.70" x2="170.46" y2="253.70"/>
      <line x1="192.38" y1="253.70" x2="204.47" y2="253.70"/>
      <line x1="226.39" y1="253.70" x2="238.49" y2="253.70"/>
      <line x1="260.41" y1="253.70" x2="272.50" y2="253.70"/>
      <line x1="294.42" y1="253.70" x2="306.52" y2="253.70"/>
      <line x1="328.44" y1="253.70" x2="340.53" y2="253.70"/>
      <line x1="362.45" y1="253.70" x2="374.55" y2="253.70"/>
      <line x1="396.47" y1="253.70" x2="408.56" y2="253.70"/>
      <line x1="443.71" y1="253.70" x2="455.81" y2="253.70"/>
      <line x1="477.73" y1="253.70" x2="489.82" y2="253.70"/>
    </g>
    <g stroke-width="0.65" opacity="0.55">
      <line x1="22.30" y1="267.64" x2="34.39" y2="267.64"/>
      <line x1="56.31" y1="267.64" x2="68.41" y2="267.64"/>
      <line x1="90.33" y1="267.64" x2="102.42" y2="267.64"/>
      <line x1="124.35" y1="267.64" x2="136.44" y2="267.64"/>
      <line x1="158.36" y1="267.64" x2="170.46" y2="267.64"/>
      <line x1="192.38" y1="267.64" x2="204.47" y2="267.64"/>
      <line x1="226.39" y1="267.64" x2="238.49" y2="267.64"/>
      <line x1="260.41" y1="267.64" x2="272.50" y2="267.64"/>
      <line x1="294.42" y1="267.64" x2="306.52" y2="267.64"/>
      <line x1="328.44" y1="267.64" x2="340.53" y2="267.64"/>
      <line x1="362.45" y1="267.64" x2="374.55" y2="267.64"/>
      <line x1="396.47" y1="267.64" x2="408.56" y2="267.64"/>
      <line x1="443.71" y1="267.64" x2="455.81" y2="267.64"/>
      <line x1="477.73" y1="267.64" x2="489.82" y2="267.64"/>
    </g>
    <g stroke-width="1.0" opacity="0.85">
      <line x1="17.76" y1="281.57" x2="38.93" y2="281.57"/>
      <line x1="51.78" y1="281.57" x2="72.94" y2="281.57"/>
      <line x1="85.79" y1="281.57" x2="106.96" y2="281.57"/>
      <line x1="119.81" y1="281.57" x2="140.98" y2="281.57"/>
      <line x1="153.83" y1="281.57" x2="174.99" y2="281.57"/>
      <line x1="187.84" y1="281.57" x2="209.01" y2="281.57"/>
      <line x1="221.86" y1="281.57" x2="243.02" y2="281.57"/>
      <line x1="255.87" y1="281.57" x2="277.04" y2="281.57"/>
      <line x1="289.89" y1="281.57" x2="311.05" y2="281.57"/>
      <line x1="323.90" y1="281.57" x2="345.07" y2="281.57"/>
      <line x1="357.92" y1="281.57" x2="379.08" y2="281.57"/>
      <line x1="391.93" y1="281.57" x2="413.10" y2="281.57"/>
      <line x1="439.18" y1="281.57" x2="460.34" y2="281.57"/>
      <line x1="473.19" y1="281.57" x2="494.36" y2="281.57"/>
    </g>
  </g>
  <g fill="url(#gT)">
    <polygon points="445.98,313.70 461.10,328.82 445.98,343.93 430.86,328.82" stroke="none"/>
    <polygon points="502.67,313.70 517.79,328.82 502.67,343.93 487.56,328.82" stroke="none"/>
    <polygon points="559.37,313.70 574.48,328.82 559.37,343.93 544.25,328.82" stroke="none"/>
    <polygon points="616.06,313.70 631.18,328.82 616.06,343.93 600.94,328.82" stroke="none"/>
    <polygon points="672.75,313.70 687.87,328.82 672.75,343.93 657.63,328.82" stroke="none"/>
    <polygon points="729.44,313.70 744.56,328.82 729.44,343.93 714.33,328.82" stroke="none"/>
  </g>
  <g stroke="#888888" stroke-width="0.5" fill="none" opacity="0.58">
    <polygon points="445.98,313.70 461.10,328.82 445.98,343.93 430.86,328.82"/>
    <polygon points="502.67,313.70 517.79,328.82 502.67,343.93 487.56,328.82"/>
    <polygon points="559.37,313.70 574.48,328.82 559.37,343.93 544.25,328.82"/>
    <polygon points="616.06,313.70 631.18,328.82 616.06,343.93 600.94,328.82"/>
    <polygon points="672.75,313.70 687.87,328.82 672.75,343.93 657.63,328.82"/>
    <polygon points="729.44,313.70 744.56,328.82 729.44,343.93 714.33,328.82"/>
  </g>
  <g>
    <polygon points="45.35,376.06 68.03,389.29 68.03,404.41 45.35,417.63 22.68,404.41 22.68,389.29" fill="url(#gT)" stroke="none"/>
    <polygon points="113.39,376.06 136.06,389.29 136.06,404.41 113.39,417.63 90.71,404.41 90.71,389.29" fill="url(#gT)" stroke="none"/>
    <polygon points="181.42,376.06 204.09,389.29 204.09,404.41 181.42,417.63 158.74,404.41 158.74,389.29" fill="url(#gT)" stroke="none"/>
    <polygon points="249.45,376.06 272.12,389.29 272.12,404.41 249.45,417.63 226.77,404.41 226.77,389.29" fill="url(#gT)" stroke="none"/>
    <polygon points="317.48,376.06 340.16,389.29 340.16,404.41 317.48,417.63 294.80,404.41 294.80,389.29" fill="url(#gT)" stroke="none"/>
  </g>
  <g stroke="#9a9a9a" stroke-width="0.7" fill="none" opacity="0.62">
    <polygon points="45.35,376.06 68.03,389.29 68.03,404.41 45.35,417.63 22.68,404.41 22.68,389.29"/>
    <polygon points="113.39,376.06 136.06,389.29 136.06,404.41 113.39,417.63 90.71,404.41 90.71,389.29"/>
    <polygon points="181.42,376.06 204.09,389.29 204.09,404.41 181.42,417.63 158.74,404.41 158.74,389.29"/>
    <polygon points="249.45,376.06 272.12,389.29 272.12,404.41 249.45,417.63 226.77,404.41 226.77,389.29"/>
    <polygon points="317.48,376.06 340.16,389.29 340.16,404.41 317.48,417.63 294.80,404.41 294.80,389.29"/>
  </g>
  <g>
    <polygon points="45.35,432.75 68.03,445.98 68.03,461.10 45.35,474.33 22.68,461.10 22.68,445.98" fill="url(#gT)" stroke="none"/>
    <polygon points="113.39,432.75 136.06,445.98 136.06,461.10 113.39,474.33 90.71,461.10 90.71,445.98" fill="url(#gT)" stroke="none"/>
    <polygon points="181.42,432.75 204.09,445.98 204.09,461.10 181.42,474.33 158.74,461.10 158.74,445.98" fill="url(#gT)" stroke="none"/>
    <polygon points="249.45,432.75 272.12,445.98 272.12,461.10 249.45,474.33 226.77,461.10 226.77,445.98" fill="url(#gT)" stroke="none"/>
    <polygon points="317.48,432.75 340.16,445.98 340.16,461.10 317.48,474.33 294.80,461.10 294.80,445.98" fill="url(#gT)" stroke="none"/>
  </g>
  <g stroke="#9a9a9a" stroke-width="0.7" fill="none" opacity="0.62">
    <polygon points="45.35,432.75 68.03,445.98 68.03,461.10 45.35,474.33 22.68,461.10 22.68,445.98"/>
    <polygon points="113.39,432.75 136.06,445.98 136.06,461.10 113.39,474.33 90.71,461.10 90.71,445.98"/>
    <polygon points="181.42,432.75 204.09,445.98 204.09,461.10 181.42,474.33 158.74,461.10 158.74,445.98"/>
    <polygon points="249.45,432.75 272.12,445.98 272.12,461.10 249.45,474.33 226.77,461.10 226.77,445.98"/>
    <polygon points="317.48,432.75 340.16,445.98 340.16,461.10 317.48,474.33 294.80,461.10 294.80,445.98"/>
  </g>
  <g>
    <polygon points="393.07,376.06 415.75,389.29 415.75,404.41 393.07,417.63 370.39,404.41 370.39,389.29" fill="url(#gG)" stroke="none"/>
    <polygon points="461.10,376.06 483.78,389.29 483.78,404.41 461.10,417.63 438.42,404.41 438.42,389.29" fill="url(#gG)" stroke="none"/>
    <polygon points="529.13,376.06 551.81,389.29 551.81,404.41 529.13,417.63 506.45,404.41 506.45,389.29" fill="url(#gG)" stroke="none"/>
    <polygon points="597.16,376.06 619.84,389.29 619.84,404.41 597.16,417.63 574.48,404.41 574.48,389.29" fill="url(#gG)" stroke="none"/>
    <polygon points="665.19,376.06 687.87,389.29 687.87,404.41 665.19,417.63 642.51,404.41 642.51,389.29" fill="url(#gG)" stroke="none"/>
  </g>
  <g stroke="#9a9a9a" stroke-width="0.7" fill="none" opacity="0.62">
    <polygon points="393.07,376.06 415.75,389.29 415.75,404.41 393.07,417.63 370.39,404.41 370.39,389.29"/>
    <polygon points="461.10,376.06 483.78,389.29 483.78,404.41 461.10,417.63 438.42,404.41 438.42,389.29"/>
    <polygon points="529.13,376.06 551.81,389.29 551.81,404.41 529.13,417.63 506.45,404.41 506.45,389.29"/>
    <polygon points="597.16,376.06 619.84,389.29 619.84,404.41 597.16,417.63 574.48,404.41 574.48,389.29"/>
    <polygon points="665.19,376.06 687.87,389.29 687.87,404.41 665.19,417.63 642.51,404.41 642.51,389.29"/>
  </g>
  <g>
    <polygon points="393.07,432.75 415.75,445.98 415.75,461.10 393.07,474.33 370.39,461.10 370.39,445.98" fill="url(#gG)" stroke="none"/>
    <polygon points="461.10,432.75 483.78,445.98 483.78,461.10 461.10,474.33 438.42,461.10 438.42,445.98" fill="url(#gG)" stroke="none"/>
    <polygon points="529.13,432.75 551.81,445.98 551.81,461.10 529.13,474.33 506.45,461.10 506.45,445.98" fill="url(#gG)" stroke="none"/>
    <polygon points="597.16,432.75 619.84,445.98 619.84,461.10 597.16,474.33 574.48,461.10 574.48,445.98" fill="url(#gG)" stroke="none"/>
  </g>
  <g stroke="#9a9a9a" stroke-width="0.7" fill="none" opacity="0.62">
    <polygon points="393.07,432.75 415.75,445.98 415.75,461.10 393.07,474.33 370.39,461.10 370.39,445.98"/>
    <polygon points="461.10,432.75 483.78,445.98 483.78,461.10 461.10,474.33 438.42,461.10 438.42,445.98"/>
    <polygon points="529.13,432.75 551.81,445.98 551.81,461.10 529.13,474.33 506.45,461.10 506.45,445.98"/>
    <polygon points="597.16,432.75 619.84,445.98 619.84,461.10 597.16,474.33 574.48,461.10 574.48,445.98"/>
  </g>
  <g stroke="#888888" stroke-width="0.5" fill="none" opacity="0.58">
    <polygon points="79.37,385.51 90.71,396.85 79.37,408.19 68.03,396.85"/>
    <polygon points="147.40,385.51 158.74,396.85 147.40,408.19 136.06,396.85"/>
    <polygon points="215.43,385.51 226.77,396.85 215.43,408.19 204.09,396.85"/>
    <polygon points="283.46,385.51 294.80,396.85 283.46,408.19 272.12,396.85"/>
    <polygon points="79.37,442.20 90.71,453.54 79.37,464.88 68.03,453.54"/>
    <polygon points="147.40,442.20 158.74,453.54 147.40,464.88 136.06,453.54"/>
    <polygon points="215.43,442.20 226.77,453.54 215.43,464.88 204.09,453.54"/>
    <polygon points="283.46,442.20 294.80,453.54 283.46,464.88 272.12,453.54"/>
    <polygon points="427.08,385.51 438.42,396.85 427.08,408.19 415.75,396.85"/>
    <polygon points="495.11,385.51 506.45,396.85 495.11,408.19 483.78,396.85"/>
    <polygon points="563.15,385.51 574.48,396.85 563.15,408.19 551.81,396.85"/>
    <polygon points="631.18,385.51 642.51,396.85 631.18,408.19 619.84,396.85"/>
    <polygon points="427.08,442.20 438.42,453.54 427.08,464.88 415.75,453.54"/>
    <polygon points="495.11,442.20 506.45,453.54 495.11,464.88 483.78,453.54"/>
    <polygon points="563.15,442.20 574.48,453.54 563.15,464.88 551.81,453.54"/>
  </g>
  <circle cx="752.88" cy="15.12" r="4" fill="#dc2626"/>
  <g fill="none" stroke-width="0.8" opacity="0.45">
    <g stroke="#b8860b">
      <circle cx="45.35" cy="83.15" r="30.24"/>
      <circle cx="120.94" cy="83.15" r="30.24"/>
      <circle cx="196.53" cy="83.15" r="30.24"/>
      <circle cx="272.12" cy="83.15" r="30.24"/>
      <circle cx="347.71" cy="83.15" r="30.24"/>
    </g>
    <g stroke="#666666">
      <circle cx="559.37" cy="219.21" r="18.90"/>
      <circle cx="616.06" cy="219.21" r="18.90"/>
      <circle cx="672.75" cy="219.21" r="18.90"/>
    </g>
  </g>
  <g fill="none" stroke-width="0.8">
    <g stroke="#888888" opacity="0.65">
      <circle cx="45.35" cy="396.85" r="14.74"/>
      <circle cx="113.39" cy="396.85" r="14.74"/>
      <circle cx="181.42" cy="396.85" r="14.74"/>
      <circle cx="249.45" cy="396.85" r="14.74"/>
      <circle cx="317.48" cy="396.85" r="14.74"/>
      <circle cx="45.35" cy="453.54" r="14.74"/>
      <circle cx="113.39" cy="453.54" r="14.74"/>
      <circle cx="181.42" cy="453.54" r="14.74"/>
      <circle cx="249.45" cy="453.54" r="14.74"/>
      <circle cx="317.48" cy="453.54" r="14.74"/>
    </g>
    <g stroke="#b8860b" opacity="0.65">
      <circle cx="393.07" cy="396.85" r="14.74"/>
      <circle cx="461.10" cy="396.85" r="14.74"/>
      <circle cx="529.13" cy="396.85" r="14.74"/>
      <circle cx="597.16" cy="396.85" r="14.74"/>
      <circle cx="665.19" cy="396.85" r="14.74"/>
      <circle cx="393.07" cy="453.54" r="14.74"/>
      <circle cx="461.10" cy="453.54" r="14.74"/>
      <circle cx="529.13" cy="453.54" r="14.74"/>
      <circle cx="597.16" cy="453.54" r="14.74"/>
    </g>
  </g>
</svg>