<svg xmlns="http://www.w3.org/2000/svg" width="767.99" height="485.67" viewBox="0 0 767.99 485.67">
  <defs>
    <pattern id="g" x="0" y="0" width="767.99" height="0.5" patternUnits="userSpaceOnUse">
      <rect width="767.99" height="0.5" fill="#f7f7f7"/><rect y="0.25" width="767.99" height="0.12" fill="#cccccc" opacity="0.35"/>
    </pattern>
    <radialGradient id="gG" cx="50%" cy="50%" r="50%"><stop offset="0%" stop-color="#b8860b" stop-opacity="0.32"/><stop offset="65%" stop-color="#b8860b" stop-opacity="0.03"/><stop offset="100%" stop-color="#b8860b" stop-opacity="0.0"/></radialGradient>
    <radialGradient id="gT" cx="50%" cy="50%" r="50%"><stop offset="0%" stop-color="#26a69a" stop-opacity="0.28"/><stop offset="65%" stop-color="#26a69a" stop-opacity="0.03"/><stop offset="100%" stop-color="#26a69a" stop-opacity="0.0"/></radialGradient>
  </defs>
  <rect width="767.99" height="485.67" fill="url(#g)"/>
  <g stroke="#cccccc" stroke-width="0.5" opacity="0.40">
    <line x1="0" y1="52.91" x2="767.99" y2="52.91"/>
    <line x1="0" y1="143.62" x2="767.99" y2="143.62"/>
    <line x1="0" y1="294.80" x2="767.99" y2="294.80"/>
    <line x1="0" y1="370.39" x2="767.99" y2="370.39"/>
    <line x1="0" y1="427.08" x2="767.99" y2="427.08"/>
    <line x1="351.49" y1="370.39" x2="351.49" y2="485.67" stroke-dasharray="2,2"/>
  </g>
  <g>
    <polygon points="45.35,41.57 86.93,64.25 86.93,102.05 45.35,124.72 3.78,102.05 3.78,64.25" fill="url(#gG)" stroke="none"/>
    <polygon points="120.94,41.57 162.52,64.25 162.52,102.05 120.94,124.72 79.37,102.05 79.37,64.25" fill="url(#gG)" stroke="none"/>
    <polygon points="196.53,41.57 238.11,64.25 238.11,102.05 196.53,124.72 154.96,102.05 154.96,64.25" fill="url(#gG)" stroke="none"/>
    <polygon points="272.12,41.57 313.70,64.25 313.70,102.05 272.12,124.72 230.55,102.05 230.55,64.25" fill="url(#gG)" stroke="none"/>
    <polygon points="347.71,41.57 389.29,64.25 389.29,102.05 347.71,124.72 306.14,102.05 306.14,64.25" fill="url(#gG)" stroke="none"/>
  </g>
  <g stroke="#9a9a9a" stroke-width="0.85" fill="none" opacity="0.60">
    <polygon points="45.35,41.57 86.93,64.25 86.93,102.05 45.35,124.72 3.78,102.05 3.78,64.25"/>
    <polygon points="120.94,41.57 162.52,64.25 162.52,102.05 120.94,124.72 79.37,102.05 79.37,64.25"/>
    <polygon points="196.53,41.57 238.11,64.25 238.11,102.05 196.53,124.72 154.96,102.05 154.96,64.25"/>
    <polygon points="272.12,41.57 313.70,64.25 313.70,102.05 272.12,124.72 230.55,102.05 230.55,64.25"/>
    <polygon points="347.71,41.57 389.29,64.25 389.29,102.05 347.71,124.72 306.14,102.05 306.14,64.25"/>
  </g>
  <g stroke="#999999" stroke-width="0.5" fill="none" opacity="0.46">
    <polygon points="45.35,56.69 71.81,71.81 71.81,94.49 45.35,109.61 18.90,94.49 18.90,71.81"/>
    <polygon points="120.94,56.69 147.40,71.81 147.40,94.49 120.94,109.61 94.49,94.49 94.49,71.81"/>
    <polygon points="196.53,56.69 222.99,71.81 222.99,94.49 196.53,109.61 170.08,94.49 170.08,71.81"/>
    <polygon points="272.12,56.69 298.58,71.81 298.58,94.49 272.12,109.61 245.67,94.49 245.67,71.81"/>
    <polygon points="347.71,56.69 374.17,71.81 374.17,94.49 347.71,109.61 321.26,94.49 321.26,71.81"/>
  </g>
  <g stroke="#aaaaaa" stroke-width="0.45" fill="none" opacity="0.34">
    <path d="M45.35,56.69 L45.35,41.57 M71.81,71.81 L86.93,64.25 M71.81,94.49 L86.93,102.05 M45.35,109.61 L45.35,124.72 M18.90,94.49 L3.78,102.05 M18.90,71.81 L3.78,64.25"/>
    <path d="M120.94,56.69 L120.94,41.57 M147.40,71.81 L162.52,64.25 M147.40,94.49 L162.52,102.05 M120.94,109.61 L120.94,124.72 M94.49,94.49 L79.37,102.05 M94.49,71.81 L79.37,64.25"/>
    <path d="M196.53,56.69 L196.53,41.57 M222.99,71.81 L238.11,64.25 M222.99,94.49 L238.11,102.05 M196.53,109.61 L196.53,124.72 M170.08,94.49 L154.96,102.05 M170.08,71.81 L154.96,64.25"/>
    <path d="M272.12,56.69 L272.12,41.57 M298.58,71.81 L313.70,64.25 M298.58,94.49 L313.70,102.05 M272.12,109.61 L272.12,124.72 M245.67,94.49 L230.55,102.05 M245.67,71.81 L230.55,64.25"/>
    <path d="M347.71,56.69 L347.71,41.57 M374.17,71.81 L389.29,64.25 M374.17,94.49 L389.29,102.05 M347.71,109.61 L347.71,124.72 M321.26,94.49 L306.14,102.05 M321.26,71.81 L306.14,64.25"/>
  </g>
  <g fill="#b8860b" opacity="0.68">
    <circle cx="45.35" cy="56.69" r="1.5"/>
    <circle cx="71.81" cy="71.81" r="1.5"/>
    <circle cx="71.81" cy="94.49" r="1.5"/>
    <circle cx="45.35" cy="109.61" r="1.5"/>
    <circle cx="18.90" cy="94.49" r="1.5"/>
    <circle cx="18.90" cy="71.81" r="1.5"/>
    <circle cx="120.94" cy="56.69" r="1.5"/>
    <circle cx="147.40" cy="71.81" r="1.5"/>
    <circle cx="147.40" cy="94.49" r="1.5"/>
    <circle cx="120.94" cy="109.61" r="1.5"/>
    <circle cx="94.49" cy="94.49" r="1.5"/>
    <circle cx="94.49" cy="71.81" r="1.5"/>
    <circle cx="196.53" cy="56.69" r="1.5"/>
    <circle cx="222.99" cy="71.81" r="1.5"/>
    <circle cx="222.99" cy="94.49" r="1.5"/>
    <circle cx="196.53" cy="109.61" r="1.5"/>
    <circle cx="170.08" cy="94.49" r="1.5"/>
    <circle cx="170.08" cy="71.81" r="1.5"/>
    <circle cx="272.12" cy="56.69" r="1.5"/>
    <circle cx="298.58" cy="71.81" r="1.5"/>
    <circle cx="298.58" cy="94.49" r="1.5"/>
    <circle cx="272.12" cy="109.61" r="1.5"/>
    <circle cx="245.67" cy="94.49" r="1.5"/>
    <circle cx="245.67" cy="71.81" r="1.5"/>
    <circle cx="347.71" cy="56.69" r="1.5"/>
    <circle cx="374.17" cy="71.81" r="1.5"/>
    <circle cx="374.17" cy="94.49" r="1.5"/>
    <circle cx="347.71" cy="109.61" r="1.5"/>
    <circle cx="321.26" cy="94.49" r="1.5"/>
    <circle cx="321.26" cy="71.81" r="1.5"/>
  </g>
  <g stroke="#888888" stroke-width="0.4" fill="none" opacity="0.42">
    <polygon points="83.15,71.81 94.49,83.15 83.15,94.49 71.81,83.15"/>
    <polygon points="158.74,71.81 170.08,83.15 158.74,94.49 147.40,83.15"/>
    <polygon points="234.33,71.81 245.67,83.15 234.33,94.49 222.99,83.15"/>
    <polygon points="309.92,71.81 321.26,83.15 309.92,94.49 298.58,83.15"/>
  </g>
  <g>
    <polygon points="559.37,196.53 582.04,207.87 582.04,230.55 559.37,241.89 536.69,230.55 536.69,207.87" fill="url(#gT)" stroke="none"/>
    <polygon points="616.06,196.53 638.74,207.87 638.74,230.55 616.06,241.89 593.38,230.55 593.38,207.87" fill="url(#gT)" stroke="none"/>
    <polygon points="672.75,196.53 695.43,207.87 695.43,230.55 672.75,241.89 650.07,230.55 650.07,207.87" fill="url(#gT)" stroke="none"/>
  </g>
  <g stroke="#9a9a9a" stroke-width="0.7" fill="none" opacity="0.60">
    <polygon points="559.37,196.53 582.04,207.87 582.04,230.55 559.37,241.89 536.69,230.55 536.69,207.87"/>
    <polygon points="616.06,196.53 638.74,207.87 638.74,230.55 616.06,241.89 593.38,230.55 593.38,207.87"/>
    <polygon points="672.75,196.53 695.43,207.87 695.43,230.55 672.75,241.89 650.07,230.55 650.07,207.87"/>
  </g>
  <g stroke="#999999" stroke-width="0.4" fill="none" opacity="0.46">
    <polygon points="559.37,204.09 574.48,211.65 574.48,226.77 559.37,234.33 544.25,226.77 544.25,211.65"/>
    <polygon points="616.06,204.09 631.18,211.65 631.18,226.77 616.06,234.33 600.94,226.77 600.94,211.65"/>
    <polygon points="672.75,204.09 687.87,211.65 687.87,226.77 672.75,234.33 657.63,226.77 657.63,211.65"/>
  </g>
  <circle cx="612.28" cy="113.39" r="90.71" fill="url(#gT)" stroke="none"/>
  <g stroke="#9a9a9a" stroke-width="0.8" fill="none" opacity="0.65">
    <circle cx="612.28" cy="113.39" r="75.59"/>
    <circle cx="612.28" cy="113.39" r="90.71" stroke-width="0.4" opacity="0.40"/>
  </g>
  <g stroke="#b8860b" stroke-width="0.65" opacity="0.68">
    <line x1="612.28" y1="43.46" x2="612.28" y2="28.35"/>
    <line x1="639.04" y1="48.79" x2="644.82" y2="34.82"/>
    <line x1="661.72" y1="63.94" x2="672.41" y2="53.25"/>
    <line x1="676.88" y1="86.63" x2="690.84" y2="80.84"/>
    <line x1="682.20" y1="113.39" x2="697.32" y2="113.39"/>
    <line x1="676.88" y1="140.14" x2="690.84" y2="145.93"/>
    <line x1="661.72" y1="162.83" x2="672.41" y2="173.52"/>
    <line x1="639.04" y1="177.98" x2="644.82" y2="191.95"/>
    <line x1="612.28" y1="183.31" x2="612.28" y2="198.42"/>
    <line x1="585.52" y1="177.98" x2="579.74" y2="191.95"/>
    <line x1="562.84" y1="162.83" x2="552.15" y2="173.52"/>
    <line x1="547.68" y1="140.14" x2="533.71" y2="145.93"/>
    <line x1="542.36" y1="113.39" x2="527.24" y2="113.39"/>
    <line x1="547.68" y1="86.63" x2="533.71" y2="80.84"/>
    <line x1="562.84" y1="63.94" x2="552.15" y2="53.25"/>
    <line x1="585.52" y1="48.79" x2="579.74" y2="34.82"/>
  </g>
  <!-- Slider tick marks -->
  <g stroke="#888888" stroke-width="0.55" opacity="0.18">
    <line x1="20.03" y1="170.08" x2="36.66" y2="170.08"/>
    <line x1="54.05" y1="170.08" x2="70.68" y2="170.08"/>
    <line x1="88.06" y1="170.08" x2="104.69" y2="170.08"/>
    <line x1="122.08" y1="170.08" x2="138.71" y2="170.08"/>
    <line x1="156.09" y1="170.08" x2="172.72" y2="170.08"/>
    <line x1="190.11" y1="170.08" x2="206.74" y2="170.08"/>
    <line x1="224.12" y1="170.08" x2="240.75" y2="170.08"/>
    <line x1="258.14" y1="170.08" x2="274.77" y2="170.08"/>
    <line x1="292.16" y1="170.08" x2="308.79" y2="170.08"/>
    <line x1="326.17" y1="170.08" x2="342.80" y2="170.08"/>
    <line x1="360.19" y1="170.08" x2="376.82" y2="170.08"/>
    <line x1="394.20" y1="170.08" x2="410.83" y2="170.08"/>
    <line x1="441.45" y1="170.08" x2="458.08" y2="170.08"/>
    <line x1="475.46" y1="170.08" x2="492.09" y2="170.08"/>
    <line x1="23.43" y1="184.01" x2="33.26" y2="184.01"/>
    <line x1="57.45" y1="184.01" x2="67.28" y2="184.01"/>
    <line x1="91.46" y1="184.01" x2="101.29" y2="184.01"/>
    <line x1="125.48" y1="184.01" x2="135.31" y2="184.01"/>
    <line x1="159.49" y1="184.01" x2="169.32" y2="184.01"/>
    <line x1="193.51" y1="184.01" x2="203.34" y2="184.01"/>
    <line x1="227.53" y1="184.01" x2="237.35" y2="184.01"/>
    <line x1="261.54" y1="184.01" x2="271.37" y2="184.01"/>
    <line x1="295.56" y1="184.01" x2="305.38" y2="184.01"/>
    <line x1="329.57" y1="184.01" x2="339.40" y2="184.01"/>
    <line x1="363.59" y1="184.01" x2="373.41" y2="184.01"/>
    <line x1="397.60" y1="184.01" x2="407.43" y2="184.01"/>
    <line x1="444.85" y1="184.01" x2="454.67" y2="184.01"/>
    <line x1="478.86" y1="184.01" x2="488.69" y2="184.01"/>
    <line x1="23.43" y1="197.95" x2="33.26" y2="197.95"/>
    <line x1="57.45" y1="197.95" x2="67.28" y2="197.95"/>
    <line x1="91.46" y1="197.95" x2="101.29" y2="197.95"/>
    <line x1="125.48" y1="197.95" x2="135.31" y2="197.95"/>
    <line x1="159.49" y1="197.95" x2="169.32" y2="197.95"/>
    <line x1="193.51" y1="197.95" x2="203.34" y2="197.95"/>
    <line x1="227.53" y1="197.95" x2="237.35" y2="197.95"/>
    <line x1="261.54" y1="197.95" x2="271.37" y2="197.95"/>
    <line x1="295.56" y1="197.95" x2="305.38" y2="197.95"/>
    <line x1="329.57" y1="197.95" x2="339.40" y2="197.95"/>
    <line x1="363.59" y1="197.95" x2="373.41" y2="197.95"/>
    <line x1="397.60" y1="197.95" x2="407.43" y2="197.95"/>
    <line x1="444.85" y1="197.95" x2="454.67" y2="197.95"/>
    <line x1="478.86" y1="197.95" x2="488.69" y2="197.95"/>
    <line x1="23.43" y1="211.89" x2="33.26" y2="211.89"/>
    <line x1="57.45" y1="211.89" x2="67.28" y2="211.89"/>
    <line x1="91.46" y1="211.89" x2="101.29" y2="211.89"/>
    <line x1="125.48" y1="211.89" x2="135.31" y2="211.89"/>
    <line x1="159.49" y1="211.89" x2="169.32" y2="211.89"/>
    <line x1="193.51" y1="211.89" x2="203.34" y2="211.89"/>
    <line x1="227.53" y1="211.89" x2="237.35" y2="211.89"/>
    <line x1="261.54" y1="211.89" x2="271.37" y2="211.89"/>
    <line x1="295.56" y1="211.89" x2="305.38" y2="211.89"/>
    <line x1="329.57" y1="211.89" x2="339.40" y2="211.89"/>
    <line x1="363.59" y1="211.89" x2="373.41" y2="211.89"/>
    <line x1="397.60" y1="211.89" x2="407.43" y2="211.89"/>
    <line x1="444.85" y1="211.89" x2="454.67" y2="211.89"/>
    <line x1="478.86" y1="211.89" x2="488.69" y2="211.89"/>
    <line x1="20.03" y1="225.83" x2="36.66" y2="225.83"/>
    <line x1="54.05" y1="225.83" x2="70.68" y2="225.83"/>
    <line x1="88.06" y1="225.83" x2="104.69" y2="225.83"/>
    <line x1="122.08" y1="225.83" x2="138.71" y2="225.83"/>
    <line x1="156.09" y1="225.83" x2="172.72" y2="225.83"/>
    <line x1="190.11" y1="225.83" x2="206.74" y2="225.83"/>
    <line x1="224.12" y1="225.83" x2="240.75" y2="225.83"/>
    <line x1="258.14" y1="225.83" x2="274.77" y2="225.83"/>
    <line x1="292.16" y1="225.83" x2="308.79" y2="225.83"/>
    <line x1="326.17" y1="225.83" x2="342.80" y2="225.83"/>
    <line x1="360.19" y1="225.83" x2="376.82" y2="225.83"/>
    <line x1="394.20" y1="225.83" x2="410.83" y2="225.83"/>
    <line x1="441.45" y1="225.83" x2="458.08" y2="225.83"/>
    <line x1="475.46" y1="225.83" x2="492.09" y2="225.83"/>
    <line x1="23.43" y1="239.76" x2="33.26" y2="239.76"/>
    <line x1="57.45" y1="239.76" x2="67.28" y2="239.76"/>
    <line x1="91.46" y1="239.76" x2="101.29" y2="239.76"/>
    <line x1="125.48" y1="239.76" x2="135.31" y2="239.76"/>
    <line x1="159.49" y1="239.76" x2="169.32" y2="239.76"/>
    <line x1="193.51" y1="239.76" x2="203.34" y2="239.76"/>
    <line x1="227.53" y1="239.76" x2="237.35" y2="239.76"/>
    <line x1="261.54" y1="239.76" x2="271.37" y2="239.76"/>
    <line x1="295.56" y1="239.76" x2="305.38" y2="239.76"/>
    <line x1="329.57" y1="239.76" x2="339.40" y2="239.76"/>
    <line x1="363.59" y1="239.76" x2="373.41" y2="239.76"/>
    <line x1="397.60" y1="239.76" x2="407.43" y2="239.76"/>
    <line x1="444.85" y1="239.76" x2="454.67" y2="239.76"/>
    <line x1="478.86" y1="239.76" x2="488.69" y2="239.76"/>
    <line x1="23.43" y1="253.70" x2="33.26" y2="253.70"/>
    <line x1="57.45" y1="253.70" x2="67.28" y2="253.70"/>
    <line x1="91.46" y1="253.70" x2="101.29" y2="253.70"/>
    <line x1="125.48" y1="253.70" x2="135.31" y2="253.70"/>
    <line x1="159.49" y1="253.70" x2="169.32" y2="253.70"/>
    <line x1="193.51" y1="253.70" x2="203.34" y2="253.70"/>
    <line x1="227.53" y1="253.70" x2="237.35" y2="253.70"/>
    <line x1="261.54" y1="253.70" x2="271.37" y2="253.70"/>
    <line x1="295.56" y1="253.70" x2="305.38" y2="253.70"/>
    <line x1="329.57" y1="253.70" x2="339.40" y2="253.70"/>
    <line x1="363.59" y1="253.70" x2="373.41" y2="253.70"/>
    <line x1="397.60" y1="253.70" x2="407.43" y2="253.70"/>
    <line x1="444.85" y1="253.70" x2="454.67" y2="253.70"/>
    <line x1="478.86" y1="253.70" x2="488.69" y2="253.70"/>
    <line x1="23.43" y1="267.64" x2="33.26" y2="267.64"/>
    <line x1="57.45" y1="267.64" x2="67.28" y2="267.64"/>
    <line x1="91.46" y1="267.64" x2="101.29" y2="267.64"/>
    <line x1="125.48" y1="267.64" x2="135.31" y2="267.64"/>
    <line x1="159.49" y1="267.64" x2="169.32" y2="267.64"/>
    <line x1="193.51" y1="267.64" x2="203.34" y2="267.64"/>
    <line x1="227.53" y1="267.64" x2="237.35" y2="267.64"/>
    <line x1="261.54" y1="267.64" x2="271.37" y2="267.64"/>
    <line x1="295.56" y1="267.64" x2="305.38" y2="267.64"/>
    <line x1="329.57" y1="267.64" x2="339.40" y2="267.64"/>
    <line x1="363.59" y1="267.64" x2="373.41" y2="267.64"/>
    <line x1="397.60" y1="267.64" x2="407.43" y2="267.64"/>
    <line x1="444.85" y1="267.64" x2="454.67" y2="267.64"/>
    <line x1="478.86" y1="267.64" x2="488.69" y2="267.64"/>
    <line x1="20.03" y1="281.57" x2="36.66" y2="281.57"/>
    <line x1="54.05" y1="281.57" x2="70.68" y2="281.57"/>
    <line x1="88.06" y1="281.57" x2="104.69" y2="281.57"/>
    <line x1="122.08" y1="281.57" x2="138.71" y2="281.57"/>
    <line x1="156.09" y1="281.57" x2="172.72" y2="281.57"/>
    <line x1="190.11" y1="281.57" x2="206.74" y2="281.57"/>
    <line x1="224.12" y1="281.57" x2="240.75" y2="281.57"/>
    <line x1="258.14" y1="281.57" x2="274.77" y2="281.57"/>
    <line x1="292.16" y1="281.57" x2="308.79" y2="281.57"/>
    <line x1="326.17" y1="281.57" x2="342.80" y2="281.57"/>
    <line x1="360.19" y1="281.57" x2="376.82" y2="281.57"/>
    <line x1="394.20" y1="281.57" x2="410.83" y2="281.57"/>
    <line x1="441.45" y1="281.57" x2="458.08" y2="281.57"/>
    <line x1="475.46" y1="281.57" x2="492.09" y2="281.57"/>
  </g>
  <g fill="url(#gT)">
    <polygon points="445.98,313.70 461.10,328.82 445.98,343.93 430.86,328.82" stroke="none"/>
    <polygon points="502.67,313.70 517.79,328.82 502.67,343.93 487.56,328.82" stroke="none"/>
    <polygon points="559.37,313.70 574.48,328.82 559.37,343.93 544.25,328.82" stroke="none"/>
    <polygon points="616.06,313.70 631.18,328.82 616.06,343.93 600.94,328.82" stroke="none"/>
    <polygon points="672.75,313.70 687.87,328.82 672.75,343.93 657.63,328.82" stroke="none"/>
    <polygon points="729.44,313.70 744.56,328.82 729.44,343.93 714.33,328.82" stroke="none"/>
  </g>
  <g stroke="#888888" stroke-width="0.4" fill="none" opacity="0.42">
    <polygon points="445.98,313.70 461.10,328.82 445.98,343.93 430.86,328.82"/>
    <polygon points="502.67,313.70 517.79,328.82 502.67,343.93 487.56,328.82"/>
    <polygon points="559.37,313.70 574.48,328.82 559.37,343.93 544.25,328.82"/>
    <polygon points="616.06,313.70 631.18,328.82 616.06,343.93 600.94,328.82"/>
    <polygon points="672.75,313.70 687.87,328.82 672.75,343.93 657.63,328.82"/>
    <polygon points="729.44,313.70 744.56,328.82 729.44,343.93 714.33,328.82"/>
  </g>
  <g>
    <polygon points="37.80,376.06 60.47,389.29 60.47,404.41 37.80,417.63 15.12,404.41 15.12,389.29" fill="url(#gT)" stroke="none"/>
    <polygon points="105.83,376.06 128.50,389.29 128.50,404.41 105.83,417.63 83.15,404.41 83.15,389.29" fill="url(#gT)" stroke="none"/>
    <polygon points="173.86,376.06 196.53,389.29 196.53,404.41 173.86,417.63 151.18,404.41 151.18,389.29" fill="url(#gT)" stroke="none"/>
    <polygon points="241.89,376.06 264.56,389.29 264.56,404.41 241.89,417.63 219.21,404.41 219.21,389.29" fill="url(#gT)" stroke="none"/>
    <polygon points="309.92,376.06 332.60,389.29 332.60,404.41 309.92,417.63 287.24,404.41 287.24,389.29" fill="url(#gT)" stroke="none"/>
  </g>
  <g stroke="#9a9a9a" stroke-width="0.5" fill="none" opacity="0.52">
    <polygon points="37.80,376.06 60.47,389.29 60.47,404.41 37.80,417.63 15.12,404.41 15.12,389.29"/>
    <polygon points="105.83,376.06 128.50,389.29 128.50,404.41 105.83,417.63 83.15,404.41 83.15,389.29"/>
    <polygon points="173.86,376.06 196.53,389.29 196.53,404.41 173.86,417.63 151.18,404.41 151.18,389.29"/>
    <polygon points="241.89,376.06 264.56,389.29 264.56,404.41 241.89,417.63 219.21,404.41 219.21,389.29"/>
    <polygon points="309.92,376.06 332.60,389.29 332.60,404.41 309.92,417.63 287.24,404.41 287.24,389.29"/>
  </g>
  <g>
    <polygon points="37.80,432.75 60.47,445.98 60.47,461.10 37.80,474.33 15.12,461.10 15.12,445.98" fill="url(#gT)" stroke="none"/>
    <polygon points="105.83,432.75 128.50,445.98 128.50,461.10 105.83,474.33 83.15,461.10 83.15,445.98" fill="url(#gT)" stroke="none"/>
    <polygon points="173.86,432.75 196.53,445.98 196.53,461.10 173.86,474.33 151.18,461.10 151.18,445.98" fill="url(#gT)" stroke="none"/>
    <polygon points="241.89,432.75 264.56,445.98 264.56,461.10 241.89,474.33 219.21,461.10 219.21,445.98" fill="url(#gT)" stroke="none"/>
    <polygon points="309.92,432.75 332.60,445.98 332.60,461.10 309.92,474.33 287.24,461.10 287.24,445.98" fill="url(#gT)" stroke="none"/>
  </g>
  <g stroke="#9a9a9a" stroke-width="0.5" fill="none" opacity="0.52">
    <polygon points="37.80,432.75 60.47,445.98 60.47,461.10 37.80,474.33 15.12,461.10 15.12,445.98"/>
    <polygon points="105.83,432.75 128.50,445.98 128.50,461.10 105.83,474.33 83.15,461.10 83.15,445.98"/>
    <polygon points="173.86,432.75 196.53,445.98 196.53,461.10 173.86,474.33 151.18,461.10 151.18,445.98"/>
    <polygon points="241.89,432.75 264.56,445.98 264.56,461.10 241.89,474.33 219.21,461.10 219.21,445.98"/>
    <polygon points="309.92,432.75 332.60,445.98 332.60,461.10 309.92,474.33 287.24,461.10 287.24,445.98"/>
  </g>
  <g>
    <polygon points="393.07,376.06 415.75,389.29 415.75,404.41 393.07,417.63 370.39,404.41 370.39,389.29" fill="url(#gG)" stroke="none"/>
    <polygon points="461.10,376.06 483.78,389.29 483.78,404.41 461.10,417.63 438.42,404.41 438.42,389.29" fill="url(#gG)" stroke="none"/>
    <polygon points="529.13,376.06 551.81,389.29 551.81,404.41 529.13,417.63 506.45,404.41 506.45,389.29" fill="url(#gG)" stroke="none"/>
    <polygon points="597.16,376.06 619.84,389.29 619.84,404.41 597.16,417.63 574.48,404.41 574.48,389.29" fill="url(#gG)" stroke="none"/>
    <polygon points="665.19,376.06 687.87,389.29 687.87,404.41 665.19,417.63 642.51,404.41 642.51,389.29" fill="url(#gG)" stroke="none"/>
  </g>
  <g stroke="#9a9a9a" stroke-width="0.5" fill="none" opacity="0.52">
    <polygon points="393.07,376.06 415.75,389.29 415.75,404.41 393.07,417.63 370.39,404.41 370.39,389.29"/>
    <polygon points="461.10,376.06 483.78,389.29 483.78,404.41 461.10,417.63 438.42,404.41 438.42,389.29"/>
    <polygon points="529.13,376.06 551.81,389.29 551.81,404.41 529.13,417.63 506.45,404.41 506.45,389.29"/>
    <polygon points="597.16,376.06 619.84,389.29 619.84,404.41 597.16,417.63 574.48,404.41 574.48,389.29"/>
    <polygon points="665.19,376.06 687.87,389.29 687.87,404.41 665.19,417.63 642.51,404.41 642.51,389.29"/>
  </g>
  <g>
    <polygon points="393.07,432.75 415.75,445.98 415.75,461.10 393.07,474.33 370.39,461.10 370.39,445.98" fill="url(#gG)" stroke="none"/>
    <polygon points="461.10,432.75 483.78,445.98 483.78,461.10 461.10,474.33 438.42,461.10 438.42,445.98" fill="url(#gG)" stroke="none"/>
    <polygon points="529.13,432.75 551.81,445.98 551.81,461.10 529.13,474.33 506.45,461.10 506.45,445.98" fill="url(#gG)" stroke="none"/>
    <polygon points="597.16,432.75 619.84,445.98 619.84,461.10 597.16,474.33 574.48,461.10 574.48,445.98" fill="url(#gG)" stroke="none"/>
  </g>
  <g stroke="#9a9a9a" stroke-width="0.5" fill="none" opacity="0.52">
    <polygon points="393.07,432.75 415.75,445.98 415.75,461.10 393.07,474.33 370.39,461.10 370.39,445.98"/>
    <polygon points="461.10,432.75 483.78,445.98 483.78,461.10 461.10,474.33 438.42,461.10 438.42,445.98"/>
    <polygon points="529.13,432.75 551.81,445.98 551.81,461.10 529.13,474.33 506.45,461.10 506.45,445.98"/>
    <polygon points="597.16,432.75 619.84,445.98 619.84,461.10 597.16,474.33 574.48,461.10 574.48,445.98"/>
  </g>
  <g stroke="#888888" stroke-width="0.35" fill="none" opacity="0.38">
    <polygon points="71.81,385.51 83.15,396.85 71.81,408.19 60.47,396.85"/>
    <polygon points="139.84,385.51 151.18,396.85 139.84,408.19 128.50,396.85"/>
    <polygon points="207.87,385.51 219.21,396.85 207.87,408.19 196.53,396.85"/>
    <polygon points="275.90,385.51 287.24,396.85 275.90,408.19 264.56,396.85"/>
    <polygon points="71.81,442.20 83.15,453.54 71.81,464.88 60.47,453.54"/>
    <polygon points="139.84,442.20 151.18,453.54 139.84,464.88 128.50,453.54"/>
    <polygon points="207.87,442.20 219.21,453.54 207.87,464.88 196.53,453.54"/>
    <polygon points="275.90,442.20 287.24,453.54 275.90,464.88 264.56,453.54"/>
    <polygon points="427.08,385.51 438.42,396.85 427.08,408.19 415.75,396.85"/>
    <polygon points="495.11,385.51 506.45,396.85 495.11,408.19 483.78,396.85"/>
    <polygon points="563.15,385.51 574.48,396.85 563.15,408.19 551.81,396.85"/>
    <polygon points="631.18,385.51 642.51,396.85 631.18,408.19 619.84,396.85"/>
    <polygon points="427.08,442.20 438.42,453.54 427.08,464.88 415.75,453.54"/>
    <polygon points="495.11,442.20 506.45,453.54 495.11,464.88 483.78,453.54"/>
    <polygon points="563.15,442.20 574.48,453.54 563.15,464.88 551.81,453.54"/>
  </g>
  <g fill="none" stroke="#26a69a" opacity="0.42">
    <polygon points="7.56,68.03 18.90,83.15 7.56,98.27 -3.78,83.15" stroke-width="0.5"/>
    <circle cx="7.56" cy="83.15" r="1.4" fill="#26a69a" stroke="none"/>
    <polygon points="760.44,68.03 771.77,83.15 760.44,98.27 749.10,83.15" stroke-width="0.5"/>
    <circle cx="760.44" cy="83.15" r="1.4" fill="#26a69a" stroke="none"/>
    <polygon points="7.56,210.71 18.90,225.83 7.56,240.94 -3.78,225.83" stroke-width="0.5"/>
    <circle cx="7.56" cy="225.83" r="1.4" fill="#26a69a" stroke="none"/>
    <polygon points="760.44,210.71 771.77,225.83 760.44,240.94 749.10,225.83" stroke-width="0.5"/>
    <circle cx="760.44" cy="225.83" r="1.4" fill="#26a69a" stroke="none"/>
    <polygon points="7.56,313.70 18.90,328.82 7.56,343.93 -3.78,328.82" stroke-width="0.5"/>
    <circle cx="7.56" cy="328.82" r="1.4" fill="#26a69a" stroke="none"/>
    <polygon points="760.44,313.70 771.77,328.82 760.44,343.93 749.10,328.82" stroke-width="0.5"/>
    <circle cx="760.44" cy="328.82" r="1.4" fill="#26a69a" stroke="none"/>
    <polygon points="7.56,381.73 18.90,396.85 7.56,411.97 -3.78,396.85" stroke-width="0.5"/>
    <circle cx="7.56" cy="396.85" r="1.4" fill="#26a69a" stroke="none"/>
    <polygon points="760.44,381.73 771.77,396.85 760.44,411.97 749.10,396.85" stroke-width="0.5"/>
    <circle cx="760.44" cy="396.85" r="1.4" fill="#26a69a" stroke="none"/>
    <polygon points="7.56,438.42 18.90,453.54 7.56,468.66 -3.78,453.54" stroke-width="0.5"/>
    <circle cx="7.56" cy="453.54" r="1.4" fill="#26a69a" stroke="none"/>
    <polygon points="760.44,438.42 771.77,453.54 760.44,468.66 749.10,453.54" stroke-width="0.5"/>
    <circle cx="760.44" cy="453.54" r="1.4" fill="#26a69a" stroke="none"/>
  </g>
  <circle cx="752.88" cy="15.12" r="4" fill="#dc2626"/>
  <g fill="none" stroke-width="0.6" opacity="0.40">
    <g stroke="#b8860b">
      <circle cx="45.35" cy="83.15" r="30.24"/>
      <circle cx="120.94" cy="83.15" r="30.24"/>
      <circle cx="196.53" cy="83.15" r="30.24"/>
      <circle cx="272.12" cy="83.15" r="30.24"/>
      <circle cx="347.71" cy="83.15" r="30.24"/>
    </g>
    <g stroke="#666666">
      <circle cx="559.37" cy="219.21" r="18.90"/>
      <circle cx="616.06" cy="219.21" r="18.90"/>
      <circle cx="672.75" cy="219.21" r="18.90"/>
    </g>
  </g>
  <g fill="none" stroke-width="0.7">
    <g stroke="#888888" opacity="0.55">
      <circle cx="37.80" cy="396.85" r="14.74"/>
      <circle cx="105.83" cy="396.85" r="14.74"/>
      <circle cx="173.86" cy="396.85" r="14.74"/>
      <circle cx="241.89" cy="396.85" r="14.74"/>
      <circle cx="309.92" cy="396.85" r="14.74"/>
      <circle cx="37.80" cy="453.54" r="14.74"/>
      <circle cx="105.83" cy="453.54" r="14.74"/>
      <circle cx="173.86" cy="453.54" r="14.74"/>
      <circle cx="241.89" cy="453.54" r="14.74"/>
      <circle cx="309.92" cy="453.54" r="14.74"/>
    </g>
    <g stroke="#b8860b" opacity="0.55">
      <circle cx="393.07" cy="396.85" r="14.74"/>
      <circle cx="461.10" cy="396.85" r="14.74"/>
      <circle cx="529.13" cy="396.85" r="14.74"/>
      <circle cx="597.16" cy="396.85" r="14.74"/>
      <circle cx="665.19" cy="396.85" r="14.74"/>
      <circle cx="393.07" cy="453.54" r="14.74"/>
      <circle cx="461.10" cy="453.54" r="14.74"/>
      <circle cx="529.13" cy="453.54" r="14.74"/>
      <circle cx="597.16" cy="453.54" r="14.74"/>
    </g>
  </g>
</svg>