<svg xmlns="http://www.w3.org/2000/svg" width="767.99" height="485.66" viewBox="0 0 767.99 485.66">
<rect width="767.99" height="485.66" fill="#0a0e14"/>
<rect x="0" y="0.0" width="767.99" height="75.59" fill="#101725"/>
<rect x="0" y="75.59" width="767.99" height="90.71" fill="#161f2e"/>
<rect x="0" y="166.3" width="767.99" height="151.18" fill="#101725"/>
<rect x="0" y="317.48" width="767.99" height="143.62" fill="#161f2e"/>
<rect x="0" y="461.1" width="767.99" height="24.57" fill="#0c1017"/>
<line x1="347.42" y1="84.63" x2="356.49" y2="141.32" stroke="#3a4d61" stroke-width="0.4" stroke-opacity="0.35" stroke-dasharray="4.91,3.78"/>
<line x1="709.78" y1="70.4" x2="718.86" y2="127.09" stroke="#3a4d61" stroke-width="0.4" stroke-opacity="0.35" stroke-dasharray="4.91,3.78"/>
<line x1="390.02" y1="88.8" x2="399.09" y2="145.49" stroke="#3a4d61" stroke-width="0.4" stroke-opacity="0.35" stroke-dasharray="4.91,3.78"/>
<line x1="141.82" y1="77.39" x2="150.89" y2="134.08" stroke="#3a4d61" stroke-width="0.4" stroke-opacity="0.35" stroke-dasharray="4.91,3.78"/>
<line x1="483.74" y1="119.88" x2="492.81" y2="176.57" stroke="#3a4d61" stroke-width="0.4" stroke-opacity="0.35" stroke-dasharray="4.91,3.78"/>
<line x1="72.29" y1="45.87" x2="81.36" y2="102.56" stroke="#3a4d61" stroke-width="0.4" stroke-opacity="0.35" stroke-dasharray="4.91,3.78"/>
<line x1="69.63" y1="122.4" x2="78.7" y2="179.09" stroke="#3a4d61" stroke-width="0.4" stroke-opacity="0.35" stroke-dasharray="4.91,3.78"/>
<line x1="532.55" y1="6.33" x2="541.62" y2="63.02" stroke="#3a4d61" stroke-width="0.4" stroke-opacity="0.35" stroke-dasharray="4.91,3.78"/>
<line x1="754.31" y1="145.85" x2="763.39" y2="202.54" stroke="#3a4d61" stroke-width="0.4" stroke-opacity="0.35" stroke-dasharray="4.91,3.78"/>
<line x1="502.21" y1="93.06" x2="511.28" y2="149.75" stroke="#3a4d61" stroke-width="0.4" stroke-opacity="0.35" stroke-dasharray="4.91,3.78"/>
<line x1="120.95" y1="2.27" x2="130.02" y2="58.96" stroke="#3a4d61" stroke-width="0.4" stroke-opacity="0.35" stroke-dasharray="4.91,3.78"/>
<line x1="405.79" y1="9.0" x2="414.86" y2="65.7" stroke="#3a4d61" stroke-width="0.4" stroke-opacity="0.35" stroke-dasharray="4.91,3.78"/>
<line x1="146.08" y1="36.58" x2="155.15" y2="93.27" stroke="#3a4d61" stroke-width="0.4" stroke-opacity="0.35" stroke-dasharray="4.91,3.78"/>
<line x1="23.1" y1="70.14" x2="32.17" y2="126.83" stroke="#3a4d61" stroke-width="0.4" stroke-opacity="0.35" stroke-dasharray="4.91,3.78"/>
<line x1="338.32" y1="127.36" x2="347.39" y2="184.05" stroke="#3a4d61" stroke-width="0.4" stroke-opacity="0.35" stroke-dasharray="4.91,3.78"/>
<line x1="398.68" y1="96.8" x2="407.75" y2="153.49" stroke="#3a4d61" stroke-width="0.4" stroke-opacity="0.35" stroke-dasharray="4.91,3.78"/>
<line x1="383.82" y1="100.15" x2="392.89" y2="156.84" stroke="#3a4d61" stroke-width="0.4" stroke-opacity="0.35" stroke-dasharray="4.91,3.78"/>
<line x1="351.22" y1="42.05" x2="360.3" y2="98.74" stroke="#3a4d61" stroke-width="0.4" stroke-opacity="0.35" stroke-dasharray="4.91,3.78"/>
<line x1="766.19" y1="150.53" x2="775.26" y2="207.22" stroke="#3a4d61" stroke-width="0.4" stroke-opacity="0.35" stroke-dasharray="4.91,3.78"/>
<line x1="645.28" y1="107.01" x2="654.35" y2="163.7" stroke="#3a4d61" stroke-width="0.4" stroke-opacity="0.35" stroke-dasharray="4.91,3.78"/>
<line x1="242.13" y1="34.72" x2="251.2" y2="91.41" stroke="#3a4d61" stroke-width="0.4" stroke-opacity="0.35" stroke-dasharray="4.91,3.78"/>
<line x1="221.98" y1="10.62" x2="231.05" y2="67.31" stroke="#3a4d61" stroke-width="0.4" stroke-opacity="0.35" stroke-dasharray="4.91,3.78"/>
<line x1="588.5" y1="60.53" x2="597.57" y2="117.22" stroke="#3a4d61" stroke-width="0.4" stroke-opacity="0.35" stroke-dasharray="4.91,3.78"/>
<line x1="650.17" y1="58.43" x2="659.24" y2="115.12" stroke="#3a4d61" stroke-width="0.4" stroke-opacity="0.35" stroke-dasharray="4.91,3.78"/>
<line x1="735.77" y1="128.1" x2="744.84" y2="184.79" stroke="#3a4d61" stroke-width="0.4" stroke-opacity="0.35" stroke-dasharray="4.91,3.78"/>
<line x1="0.42" y1="31.7" x2="9.49" y2="88.4" stroke="#3a4d61" stroke-width="0.4" stroke-opacity="0.35" stroke-dasharray="4.91,3.78"/>
<line x1="699.08" y1="71.05" x2="708.15" y2="127.74" stroke="#3a4d61" stroke-width="0.4" stroke-opacity="0.35" stroke-dasharray="4.91,3.78"/>
<line x1="752.91" y1="60.08" x2="761.98" y2="116.77" stroke="#3a4d61" stroke-width="0.4" stroke-opacity="0.35" stroke-dasharray="4.91,3.78"/>
<line x1="56.09" y1="95.16" x2="65.16" y2="151.85" stroke="#3a4d61" stroke-width="0.4" stroke-opacity="0.35" stroke-dasharray="4.91,3.78"/>
<line x1="597.89" y1="40.78" x2="606.96" y2="97.48" stroke="#3a4d61" stroke-width="0.4" stroke-opacity="0.35" stroke-dasharray="4.91,3.78"/>
<line x1="580.15" y1="158.89" x2="577.86" y2="168.6" stroke="#5b7490" stroke-width="1.2" stroke-opacity="0.95"/>
<line x1="577.86" y1="168.6" x2="575.56" y2="178.3" stroke="#5b7490" stroke-width="1.2" stroke-opacity="0.92"/>
<line x1="575.56" y1="178.3" x2="573.27" y2="188.01" stroke="#5b7490" stroke-width="1.2" stroke-opacity="0.87"/>
<line x1="573.27" y1="188.01" x2="570.97" y2="197.72" stroke="#5b7490" stroke-width="1.2" stroke-opacity="0.81"/>
<line x1="570.97" y1="197.72" x2="568.68" y2="207.43" stroke="#5b7490" stroke-width="1.2" stroke-opacity="0.75"/>
<line x1="568.68" y1="207.43" x2="566.38" y2="217.14" stroke="#5b7490" stroke-width="1.2" stroke-opacity="0.68"/>
<line x1="566.38" y1="217.14" x2="564.09" y2="226.84" stroke="#5b7490" stroke-width="1.2" stroke-opacity="0.60"/>
<line x1="564.09" y1="226.84" x2="561.79" y2="236.55" stroke="#5b7490" stroke-width="1.2" stroke-opacity="0.52"/>
<line x1="561.79" y1="236.55" x2="559.5" y2="246.26" stroke="#5b7490" stroke-width="1.2" stroke-opacity="0.43"/>
<line x1="559.5" y1="246.26" x2="557.2" y2="255.97" stroke="#5b7490" stroke-width="1.2" stroke-opacity="0.34"/>
<line x1="557.2" y1="255.97" x2="554.91" y2="265.68" stroke="#5b7490" stroke-width="1.2" stroke-opacity="0.25"/>
<line x1="554.91" y1="265.68" x2="552.61" y2="275.38" stroke="#5b7490" stroke-width="1.2" stroke-opacity="0.16"/>
<line x1="552.61" y1="275.38" x2="550.32" y2="285.09" stroke="#5b7490" stroke-width="1.2" stroke-opacity="0.06"/>
<line x1="644.4" y1="158.89" x2="646.7" y2="168.6" stroke="#5b7490" stroke-width="1.2" stroke-opacity="0.95"/>
<line x1="646.7" y1="168.6" x2="648.99" y2="178.3" stroke="#5b7490" stroke-width="1.2" stroke-opacity="0.92"/>
<line x1="648.99" y1="178.3" x2="651.29" y2="188.01" stroke="#5b7490" stroke-width="1.2" stroke-opacity="0.87"/>
<line x1="651.29" y1="188.01" x2="653.58" y2="197.72" stroke="#5b7490" stroke-width="1.2" stroke-opacity="0.81"/>
<line x1="653.58" y1="197.72" x2="655.87" y2="207.43" stroke="#5b7490" stroke-width="1.2" stroke-opacity="0.75"/>
<line x1="655.87" y1="207.43" x2="658.17" y2="217.14" stroke="#5b7490" stroke-width="1.2" stroke-opacity="0.68"/>
<line x1="658.17" y1="217.14" x2="660.46" y2="226.84" stroke="#5b7490" stroke-width="1.2" stroke-opacity="0.60"/>
<line x1="660.46" y1="226.84" x2="662.76" y2="236.55" stroke="#5b7490" stroke-width="1.2" stroke-opacity="0.52"/>
<line x1="662.76" y1="236.55" x2="665.05" y2="246.26" stroke="#5b7490" stroke-width="1.2" stroke-opacity="0.43"/>
<line x1="665.05" y1="246.26" x2="667.35" y2="255.97" stroke="#5b7490" stroke-width="1.2" stroke-opacity="0.34"/>
<line x1="667.35" y1="255.97" x2="669.64" y2="265.68" stroke="#5b7490" stroke-width="1.2" stroke-opacity="0.25"/>
<line x1="669.64" y1="265.68" x2="671.94" y2="275.38" stroke="#5b7490" stroke-width="1.2" stroke-opacity="0.16"/>
<line x1="671.94" y1="275.38" x2="674.23" y2="285.09" stroke="#5b7490" stroke-width="1.2" stroke-opacity="0.06"/>
<line x1="612.28" y1="113.38" x2="612.28" y2="62.32" stroke="#44596e" stroke-width="0.3" stroke-opacity="0.75"/>
<line x1="612.28" y1="113.38" x2="622.24" y2="63.3" stroke="#44596e" stroke-width="0.3" stroke-opacity="0.75"/>
<line x1="612.28" y1="113.38" x2="631.82" y2="66.21" stroke="#44596e" stroke-width="0.3" stroke-opacity="0.75"/>
<line x1="612.28" y1="113.38" x2="640.64" y2="70.93" stroke="#44596e" stroke-width="0.3" stroke-opacity="0.75"/>
<line x1="612.28" y1="113.38" x2="648.38" y2="77.28" stroke="#44596e" stroke-width="0.3" stroke-opacity="0.75"/>
<line x1="612.28" y1="113.38" x2="654.73" y2="85.02" stroke="#44596e" stroke-width="0.3" stroke-opacity="0.75"/>
<line x1="612.28" y1="113.38" x2="659.45" y2="93.84" stroke="#44596e" stroke-width="0.3" stroke-opacity="0.75"/>
<line x1="612.28" y1="113.38" x2="662.36" y2="103.42" stroke="#44596e" stroke-width="0.3" stroke-opacity="0.75"/>
<line x1="612.28" y1="113.38" x2="663.34" y2="113.38" stroke="#44596e" stroke-width="0.3" stroke-opacity="0.75"/>
<line x1="612.28" y1="113.38" x2="662.36" y2="123.35" stroke="#44596e" stroke-width="0.3" stroke-opacity="0.75"/>
<line x1="612.28" y1="113.38" x2="659.45" y2="132.92" stroke="#44596e" stroke-width="0.3" stroke-opacity="0.75"/>
<line x1="612.28" y1="113.38" x2="654.73" y2="141.75" stroke="#44596e" stroke-width="0.3" stroke-opacity="0.75"/>
<line x1="612.28" y1="113.38" x2="648.38" y2="149.49" stroke="#44596e" stroke-width="0.3" stroke-opacity="0.75"/>
<line x1="612.28" y1="113.38" x2="640.64" y2="155.84" stroke="#44596e" stroke-width="0.3" stroke-opacity="0.75"/>
<line x1="612.28" y1="113.38" x2="631.82" y2="160.56" stroke="#44596e" stroke-width="0.3" stroke-opacity="0.75"/>
<line x1="612.28" y1="113.38" x2="622.24" y2="163.46" stroke="#44596e" stroke-width="0.3" stroke-opacity="0.75"/>
<line x1="612.28" y1="113.38" x2="612.28" y2="164.45" stroke="#44596e" stroke-width="0.3" stroke-opacity="0.75"/>
<line x1="612.28" y1="113.38" x2="602.31" y2="163.46" stroke="#44596e" stroke-width="0.3" stroke-opacity="0.75"/>
<line x1="612.28" y1="113.38" x2="592.74" y2="160.56" stroke="#44596e" stroke-width="0.3" stroke-opacity="0.75"/>
<line x1="612.28" y1="113.38" x2="583.91" y2="155.84" stroke="#44596e" stroke-width="0.3" stroke-opacity="0.75"/>
<line x1="612.28" y1="113.38" x2="576.17" y2="149.49" stroke="#44596e" stroke-width="0.3" stroke-opacity="0.75"/>
<line x1="612.28" y1="113.38" x2="569.82" y2="141.75" stroke="#44596e" stroke-width="0.3" stroke-opacity="0.75"/>
<line x1="612.28" y1="113.38" x2="565.1" y2="132.92" stroke="#44596e" stroke-width="0.3" stroke-opacity="0.75"/>
<line x1="612.28" y1="113.38" x2="562.2" y2="123.35" stroke="#44596e" stroke-width="0.3" stroke-opacity="0.75"/>
<line x1="612.28" y1="113.38" x2="561.21" y2="113.38" stroke="#44596e" stroke-width="0.3" stroke-opacity="0.75"/>
<line x1="612.28" y1="113.38" x2="562.2" y2="103.42" stroke="#44596e" stroke-width="0.3" stroke-opacity="0.75"/>
<line x1="612.28" y1="113.38" x2="565.1" y2="93.84" stroke="#44596e" stroke-width="0.3" stroke-opacity="0.75"/>
<line x1="612.28" y1="113.38" x2="569.82" y2="85.02" stroke="#44596e" stroke-width="0.3" stroke-opacity="0.75"/>
<line x1="612.28" y1="113.38" x2="576.17" y2="77.28" stroke="#44596e" stroke-width="0.3" stroke-opacity="0.75"/>
<line x1="612.28" y1="113.38" x2="583.91" y2="70.93" stroke="#44596e" stroke-width="0.3" stroke-opacity="0.75"/>
<line x1="612.28" y1="113.38" x2="592.74" y2="66.21" stroke="#44596e" stroke-width="0.3" stroke-opacity="0.75"/>
<line x1="612.28" y1="113.38" x2="602.31" y2="63.3" stroke="#44596e" stroke-width="0.3" stroke-opacity="0.75"/>
<circle cx="612.28" cy="113.38" r="52.91" fill="none" stroke="#93aec8" stroke-width="0.85"/>
<circle cx="612.28" cy="113.38" r="49.21" fill="none" stroke="#93aec8" stroke-width="0.4"/>
<circle cx="612.28" cy="113.38" r="7.18" fill="#5b7490" stroke="#93aec8" stroke-width="0.4"/>
<circle cx="612.28" cy="60.47" r="7.18" fill="#05070a" stroke="#93aec8" stroke-width="0.4"/>
<circle cx="632.52" cy="64.5" r="7.18" fill="#05070a" stroke="#93aec8" stroke-width="0.4"/>
<circle cx="649.69" cy="75.97" r="7.18" fill="#05070a" stroke="#93aec8" stroke-width="0.4"/>
<circle cx="661.16" cy="93.14" r="7.18" fill="#05070a" stroke="#93aec8" stroke-width="0.4"/>
<circle cx="665.19" cy="113.38" r="7.18" fill="#05070a" stroke="#93aec8" stroke-width="0.4"/>
<circle cx="661.16" cy="133.63" r="7.18" fill="#05070a" stroke="#93aec8" stroke-width="0.4"/>
<circle cx="649.69" cy="150.8" r="7.18" fill="#05070a" stroke="#93aec8" stroke-width="0.4"/>
<circle cx="632.52" cy="162.27" r="7.18" fill="#05070a" stroke="#93aec8" stroke-width="0.4"/>
<circle cx="612.28" cy="166.3" r="7.18" fill="#05070a" stroke="#93aec8" stroke-width="0.4"/>
<circle cx="592.03" cy="162.27" r="7.18" fill="#05070a" stroke="#93aec8" stroke-width="0.4"/>
<circle cx="574.86" cy="150.8" r="7.18" fill="#05070a" stroke="#93aec8" stroke-width="0.4"/>
<circle cx="563.39" cy="133.63" r="7.18" fill="#05070a" stroke="#93aec8" stroke-width="0.4"/>
<circle cx="559.36" cy="113.38" r="7.18" fill="#05070a" stroke="#93aec8" stroke-width="0.4"/>
<circle cx="563.39" cy="93.14" r="7.18" fill="#05070a" stroke="#93aec8" stroke-width="0.4"/>
<circle cx="574.86" cy="75.97" r="7.18" fill="#05070a" stroke="#93aec8" stroke-width="0.4"/>
<circle cx="592.03" cy="64.5" r="7.18" fill="#05070a" stroke="#93aec8" stroke-width="0.4"/>
<circle id="light_step_0" cx="612.28" cy="60.47" r="0.5" fill="none" stroke="none"/>
<circle id="light_step_1" cx="632.52" cy="64.5" r="0.5" fill="none" stroke="none"/>
<circle id="light_step_2" cx="649.69" cy="75.97" r="0.5" fill="none" stroke="none"/>
<circle id="light_step_3" cx="661.16" cy="93.14" r="0.5" fill="none" stroke="none"/>
<circle id="light_step_4" cx="665.19" cy="113.38" r="0.5" fill="none" stroke="none"/>
<circle id="light_step_5" cx="661.16" cy="133.63" r="0.5" fill="none" stroke="none"/>
<circle id="light_step_6" cx="649.69" cy="150.8" r="0.5" fill="none" stroke="none"/>
<circle id="light_step_7" cx="632.52" cy="162.27" r="0.5" fill="none" stroke="none"/>
<circle id="light_step_8" cx="612.28" cy="166.3" r="0.5" fill="none" stroke="none"/>
<circle id="light_step_9" cx="592.03" cy="162.27" r="0.5" fill="none" stroke="none"/>
<circle id="light_step_10" cx="574.86" cy="150.8" r="0.5" fill="none" stroke="none"/>
<circle id="light_step_11" cx="563.39" cy="133.63" r="0.5" fill="none" stroke="none"/>
<circle id="light_step_12" cx="559.36" cy="113.38" r="0.5" fill="none" stroke="none"/>
<circle id="light_step_13" cx="563.39" cy="93.14" r="0.5" fill="none" stroke="none"/>
<circle id="light_step_14" cx="574.86" cy="75.97" r="0.5" fill="none" stroke="none"/>
<circle id="light_step_15" cx="592.03" cy="64.5" r="0.5" fill="none" stroke="none"/>
<polygon points="63.58,390.88 72.48,390.88 73.26,396.28 62.80,396.28" fill="#2c3a4a" fill-opacity="0.11" stroke="none"/>
<polygon points="62.80,396.28 73.26,396.28 74.05,401.68 62.01,401.68" fill="#2c3a4a" fill-opacity="0.21" stroke="none"/>
<polygon points="62.01,401.68 74.05,401.68 74.84,407.08 61.22,407.08" fill="#2c3a4a" fill-opacity="0.32" stroke="none"/>
<polygon points="61.22,407.08 74.84,407.08 75.62,412.48 60.44,412.48" fill="#2c3a4a" fill-opacity="0.43" stroke="none"/>
<polygon points="60.44,412.48 75.62,412.48 76.41,417.89 59.65,417.89" fill="#2c3a4a" fill-opacity="0.54" stroke="none"/>
<polygon points="59.65,417.89 76.41,417.89 77.19,423.29 58.87,423.29" fill="#2c3a4a" fill-opacity="0.64" stroke="none"/>
<polygon points="58.87,423.29 77.19,423.29 77.98,428.69 58.08,428.69" fill="#2c3a4a" fill-opacity="0.75" stroke="none"/>
<polygon points="58.08,428.69 77.98,428.69 78.76,434.09 57.30,434.09" fill="#2c3a4a" fill-opacity="0.86" stroke="none"/>
<polygon points="57.30,434.09 78.76,434.09 79.55,439.49 56.51,439.49" fill="#2c3a4a" fill-opacity="0.90" stroke="none"/>
<polygon points="56.51,439.49 79.55,439.49 80.33,444.89 55.73,444.89" fill="#2c3a4a" fill-opacity="0.90" stroke="none"/>
<polygon points="55.73,444.89 80.33,444.89 81.12,450.30 54.94,450.30" fill="#2c3a4a" fill-opacity="0.90" stroke="none"/>
<polygon points="54.94,450.30 81.12,450.30 81.90,455.70 54.16,455.70" fill="#2c3a4a" fill-opacity="0.90" stroke="none"/>
<polygon points="54.16,455.70 81.90,455.70 82.69,461.10 53.37,461.10" fill="#2c3a4a" fill-opacity="0.90" stroke="none"/>
<line x1="60.92" y1="403.63" x2="75.14" y2="403.63" stroke="#5b6f84" stroke-width="0.6" stroke-opacity="0.40"/>
<line x1="59.85" y1="415.73" x2="76.21" y2="415.73" stroke="#5b6f84" stroke-width="0.6" stroke-opacity="0.40"/>
<line x1="58.64" y1="429.34" x2="77.42" y2="429.34" stroke="#5b6f84" stroke-width="0.6" stroke-opacity="0.40"/>
<line x1="57.30" y1="444.46" x2="78.76" y2="444.46" stroke="#5b6f84" stroke-width="0.6" stroke-opacity="0.40"/>
<ellipse cx="68.03" cy="385.48" rx="21.17" ry="5.93" fill="#2c3a4a" fill-opacity="0.90" stroke="none"/>
<line x1="47.72" y1="383.81" x2="41.65" y2="380.42" stroke="#d99a2b" stroke-width="0.5" stroke-opacity="0.65"/>
<line x1="50.22" y1="382.27" x2="45.82" y2="376.90" stroke="#5b6f84" stroke-width="0.5" stroke-opacity="0.40"/>
<line x1="54.17" y1="381.00" x2="51.29" y2="374.68" stroke="#5b6f84" stroke-width="0.5" stroke-opacity="0.40"/>
<line x1="59.24" y1="380.09" x2="57.61" y2="373.33" stroke="#5b6f84" stroke-width="0.5" stroke-opacity="0.40"/>
<line x1="65.02" y1="379.61" x2="64.49" y2="372.69" stroke="#5b6f84" stroke-width="0.5" stroke-opacity="0.40"/>
<line x1="71.04" y1="379.61" x2="71.57" y2="372.69" stroke="#5b6f84" stroke-width="0.5" stroke-opacity="0.40"/>
<line x1="76.82" y1="380.09" x2="78.45" y2="373.33" stroke="#5b6f84" stroke-width="0.5" stroke-opacity="0.40"/>
<line x1="81.89" y1="381.00" x2="84.77" y2="374.68" stroke="#5b6f84" stroke-width="0.5" stroke-opacity="0.40"/>
<line x1="85.84" y1="382.27" x2="90.24" y2="376.90" stroke="#5b6f84" stroke-width="0.5" stroke-opacity="0.40"/>
<line x1="88.34" y1="383.81" x2="94.41" y2="380.42" stroke="#d99a2b" stroke-width="0.5" stroke-opacity="0.65"/>
<polygon points="163.12,410.95 169.48,410.95 170.04,414.80 162.56,414.80" fill="#2c3a4a" fill-opacity="0.11" stroke="none"/>
<polygon points="162.56,414.80 170.04,414.80 170.60,418.66 162.00,418.66" fill="#2c3a4a" fill-opacity="0.21" stroke="none"/>
<polygon points="162.00,418.66 170.60,418.66 171.16,422.52 161.44,422.52" fill="#2c3a4a" fill-opacity="0.32" stroke="none"/>
<polygon points="161.44,422.52 171.16,422.52 171.72,426.38 160.88,426.38" fill="#2c3a4a" fill-opacity="0.43" stroke="none"/>
<polygon points="160.88,426.38 171.72,426.38 172.28,430.24 160.32,430.24" fill="#2c3a4a" fill-opacity="0.54" stroke="none"/>
<polygon points="160.32,430.24 172.28,430.24 172.84,434.09 159.76,434.09" fill="#2c3a4a" fill-opacity="0.64" stroke="none"/>
<polygon points="159.76,434.09 172.84,434.09 173.40,437.95 159.20,437.95" fill="#2c3a4a" fill-opacity="0.75" stroke="none"/>
<polygon points="159.20,437.95 173.40,437.95 173.97,441.81 158.63,441.81" fill="#2c3a4a" fill-opacity="0.86" stroke="none"/>
<polygon points="158.63,441.81 173.97,441.81 174.53,445.67 158.07,445.67" fill="#2c3a4a" fill-opacity="0.90" stroke="none"/>
<polygon points="158.07,445.67 174.53,445.67 175.09,449.53 157.51,449.53" fill="#2c3a4a" fill-opacity="0.90" stroke="none"/>
<polygon points="157.51,449.53 175.09,449.53 175.65,453.38 156.95,453.38" fill="#2c3a4a" fill-opacity="0.90" stroke="none"/>
<polygon points="156.95,453.38 175.65,453.38 176.21,457.24 156.39,457.24" fill="#2c3a4a" fill-opacity="0.90" stroke="none"/>
<polygon points="156.39,457.24 176.21,457.24 176.77,461.10 155.83,461.10" fill="#2c3a4a" fill-opacity="0.90" stroke="none"/>
<line x1="161.22" y1="420.05" x2="171.38" y2="420.05" stroke="#5b6f84" stroke-width="0.6" stroke-opacity="0.40"/>
<line x1="160.45" y1="428.69" x2="172.15" y2="428.69" stroke="#5b6f84" stroke-width="0.6" stroke-opacity="0.40"/>
<line x1="159.59" y1="438.42" x2="173.01" y2="438.42" stroke="#5b6f84" stroke-width="0.6" stroke-opacity="0.40"/>
<line x1="158.63" y1="449.22" x2="173.97" y2="449.22" stroke="#5b6f84" stroke-width="0.6" stroke-opacity="0.40"/>
<ellipse cx="166.30" cy="407.09" rx="15.12" ry="4.23" fill="#2c3a4a" fill-opacity="0.90" stroke="none"/>
<line x1="151.79" y1="405.90" x2="147.46" y2="403.48" stroke="#d99a2b" stroke-width="0.5" stroke-opacity="0.65"/>
<line x1="153.58" y1="404.80" x2="150.44" y2="400.96" stroke="#5b6f84" stroke-width="0.5" stroke-opacity="0.40"/>
<line x1="156.40" y1="403.89" x2="154.34" y2="399.38" stroke="#5b6f84" stroke-width="0.5" stroke-opacity="0.40"/>
<line x1="160.02" y1="403.24" x2="158.86" y2="398.42" stroke="#5b6f84" stroke-width="0.5" stroke-opacity="0.40"/>
<line x1="164.15" y1="402.90" x2="163.77" y2="397.95" stroke="#5b6f84" stroke-width="0.5" stroke-opacity="0.40"/>
<line x1="168.45" y1="402.90" x2="168.83" y2="397.95" stroke="#5b6f84" stroke-width="0.5" stroke-opacity="0.40"/>
<line x1="172.58" y1="403.24" x2="173.74" y2="398.42" stroke="#5b6f84" stroke-width="0.5" stroke-opacity="0.40"/>
<line x1="176.20" y1="403.89" x2="178.26" y2="399.38" stroke="#5b6f84" stroke-width="0.5" stroke-opacity="0.40"/>
<line x1="179.02" y1="404.80" x2="182.16" y2="400.96" stroke="#5b6f84" stroke-width="0.5" stroke-opacity="0.40"/>
<line x1="180.81" y1="405.90" x2="185.14" y2="403.48" stroke="#d99a2b" stroke-width="0.5" stroke-opacity="0.65"/>
<polygon points="282.32,383.38 292.16,383.38 293.03,389.36 281.45,389.36" fill="#2c3a4a" fill-opacity="0.11" stroke="none"/>
<polygon points="281.45,389.36 293.03,389.36 293.90,395.34 280.58,395.34" fill="#2c3a4a" fill-opacity="0.21" stroke="none"/>
<polygon points="280.58,395.34 293.90,395.34 294.77,401.32 279.71,401.32" fill="#2c3a4a" fill-opacity="0.32" stroke="none"/>
<polygon points="279.71,401.32 294.77,401.32 295.64,407.30 278.84,407.30" fill="#2c3a4a" fill-opacity="0.43" stroke="none"/>
<polygon points="278.84,407.30 295.64,407.30 296.51,413.27 277.97,413.27" fill="#2c3a4a" fill-opacity="0.54" stroke="none"/>
<polygon points="277.97,413.27 296.51,413.27 297.38,419.25 277.10,419.25" fill="#2c3a4a" fill-opacity="0.64" stroke="none"/>
<polygon points="277.10,419.25 297.38,419.25 298.25,425.23 276.23,425.23" fill="#2c3a4a" fill-opacity="0.75" stroke="none"/>
<polygon points="276.23,425.23 298.25,425.23 299.12,431.21 275.36,431.21" fill="#2c3a4a" fill-opacity="0.86" stroke="none"/>
<polygon points="275.36,431.21 299.12,431.21 299.99,437.19 274.49,437.19" fill="#2c3a4a" fill-opacity="0.90" stroke="none"/>
<polygon points="274.49,437.19 299.99,437.19 300.86,443.17 273.62,443.17" fill="#2c3a4a" fill-opacity="0.90" stroke="none"/>
<polygon points="273.62,443.17 300.86,443.17 301.73,449.14 272.75,449.14" fill="#2c3a4a" fill-opacity="0.90" stroke="none"/>
<polygon points="272.75,449.14 301.73,449.14 302.60,455.12 271.88,455.12" fill="#2c3a4a" fill-opacity="0.90" stroke="none"/>
<polygon points="271.88,455.12 302.60,455.12 303.47,461.10 271.01,461.10" fill="#2c3a4a" fill-opacity="0.90" stroke="none"/>
<line x1="279.37" y1="397.49" x2="295.11" y2="397.49" stroke="#5b6f84" stroke-width="0.6" stroke-opacity="0.40"/>
<line x1="278.18" y1="410.88" x2="296.30" y2="410.88" stroke="#5b6f84" stroke-width="0.6" stroke-opacity="0.40"/>
<line x1="276.84" y1="425.95" x2="297.64" y2="425.95" stroke="#5b6f84" stroke-width="0.6" stroke-opacity="0.40"/>
<line x1="275.36" y1="442.69" x2="299.12" y2="442.69" stroke="#5b6f84" stroke-width="0.6" stroke-opacity="0.40"/>
<ellipse cx="287.24" cy="377.40" rx="23.43" ry="6.56" fill="#2c3a4a" fill-opacity="0.90" stroke="none"/>
<line x1="264.76" y1="375.56" x2="258.05" y2="371.81" stroke="#d99a2b" stroke-width="0.5" stroke-opacity="0.65"/>
<line x1="267.53" y1="373.86" x2="262.66" y2="367.91" stroke="#5b6f84" stroke-width="0.5" stroke-opacity="0.40"/>
<line x1="271.90" y1="372.45" x2="268.71" y2="365.45" stroke="#5b6f84" stroke-width="0.5" stroke-opacity="0.40"/>
<line x1="277.51" y1="371.44" x2="275.71" y2="363.97" stroke="#5b6f84" stroke-width="0.5" stroke-opacity="0.40"/>
<line x1="283.91" y1="370.91" x2="283.33" y2="363.25" stroke="#5b6f84" stroke-width="0.5" stroke-opacity="0.40"/>
<line x1="290.57" y1="370.91" x2="291.15" y2="363.25" stroke="#5b6f84" stroke-width="0.5" stroke-opacity="0.40"/>
<line x1="296.97" y1="371.44" x2="298.77" y2="363.97" stroke="#5b6f84" stroke-width="0.5" stroke-opacity="0.40"/>
<line x1="302.58" y1="372.45" x2="305.77" y2="365.45" stroke="#5b6f84" stroke-width="0.5" stroke-opacity="0.40"/>
<line x1="306.95" y1="373.86" x2="311.82" y2="367.91" stroke="#5b6f84" stroke-width="0.5" stroke-opacity="0.40"/>
<line x1="309.72" y1="375.56" x2="316.43" y2="371.81" stroke="#d99a2b" stroke-width="0.5" stroke-opacity="0.65"/>
<polygon points="525.64,405.94 532.62,405.94 533.24,410.18 525.02,410.18" fill="#2c3a4a" fill-opacity="0.11" stroke="none"/>
<polygon points="525.02,410.18 533.24,410.18 533.86,414.42 524.40,414.42" fill="#2c3a4a" fill-opacity="0.21" stroke="none"/>
<polygon points="524.40,414.42 533.86,414.42 534.48,418.67 523.78,418.67" fill="#2c3a4a" fill-opacity="0.32" stroke="none"/>
<polygon points="523.78,418.67 534.48,418.67 535.09,422.91 523.17,422.91" fill="#2c3a4a" fill-opacity="0.43" stroke="none"/>
<polygon points="523.17,422.91 535.09,422.91 535.71,427.15 522.55,427.15" fill="#2c3a4a" fill-opacity="0.54" stroke="none"/>
<polygon points="522.55,427.15 535.71,427.15 536.33,431.40 521.93,431.40" fill="#2c3a4a" fill-opacity="0.64" stroke="none"/>
<polygon points="521.93,431.40 536.33,431.40 536.94,435.64 521.32,435.64" fill="#2c3a4a" fill-opacity="0.75" stroke="none"/>
<polygon points="521.32,435.64 536.94,435.64 537.56,439.88 520.70,439.88" fill="#2c3a4a" fill-opacity="0.86" stroke="none"/>
<polygon points="520.70,439.88 537.56,439.88 538.18,444.13 520.08,444.13" fill="#2c3a4a" fill-opacity="0.90" stroke="none"/>
<polygon points="520.08,444.13 538.18,444.13 538.80,448.37 519.46,448.37" fill="#2c3a4a" fill-opacity="0.90" stroke="none"/>
<polygon points="519.46,448.37 538.80,448.37 539.41,452.61 518.85,452.61" fill="#2c3a4a" fill-opacity="0.90" stroke="none"/>
<polygon points="518.85,452.61 539.41,452.61 540.03,456.86 518.23,456.86" fill="#2c3a4a" fill-opacity="0.90" stroke="none"/>
<polygon points="518.23,456.86 540.03,456.86 540.65,461.10 517.61,461.10" fill="#2c3a4a" fill-opacity="0.90" stroke="none"/>
<line x1="523.54" y1="415.95" x2="534.72" y2="415.95" stroke="#5b6f84" stroke-width="0.6" stroke-opacity="0.40"/>
<line x1="522.70" y1="425.46" x2="535.56" y2="425.46" stroke="#5b6f84" stroke-width="0.6" stroke-opacity="0.40"/>
<line x1="521.75" y1="436.15" x2="536.51" y2="436.15" stroke="#5b6f84" stroke-width="0.6" stroke-opacity="0.40"/>
<line x1="520.70" y1="448.03" x2="537.56" y2="448.03" stroke="#5b6f84" stroke-width="0.6" stroke-opacity="0.40"/>
<ellipse cx="529.13" cy="401.69" rx="16.63" ry="4.65" fill="#2c3a4a" fill-opacity="0.90" stroke="none"/>
<line x1="513.17" y1="400.38" x2="508.41" y2="397.73" stroke="#d99a2b" stroke-width="0.5" stroke-opacity="0.65"/>
<line x1="515.14" y1="399.18" x2="511.68" y2="394.96" stroke="#5b6f84" stroke-width="0.5" stroke-opacity="0.40"/>
<line x1="518.24" y1="398.18" x2="515.98" y2="393.21" stroke="#5b6f84" stroke-width="0.5" stroke-opacity="0.40"/>
<line x1="522.22" y1="397.46" x2="520.95" y2="392.16" stroke="#5b6f84" stroke-width="0.5" stroke-opacity="0.40"/>
<line x1="526.76" y1="397.09" x2="526.35" y2="391.65" stroke="#5b6f84" stroke-width="0.5" stroke-opacity="0.40"/>
<line x1="531.50" y1="397.09" x2="531.91" y2="391.65" stroke="#5b6f84" stroke-width="0.5" stroke-opacity="0.40"/>
<line x1="536.04" y1="397.46" x2="537.31" y2="392.16" stroke="#5b6f84" stroke-width="0.5" stroke-opacity="0.40"/>
<line x1="540.02" y1="398.18" x2="542.28" y2="393.21" stroke="#5b6f84" stroke-width="0.5" stroke-opacity="0.40"/>
<line x1="543.12" y1="399.18" x2="546.58" y2="394.96" stroke="#5b6f84" stroke-width="0.5" stroke-opacity="0.40"/>
<line x1="545.09" y1="400.38" x2="549.85" y2="397.73" stroke="#d99a2b" stroke-width="0.5" stroke-opacity="0.65"/>
<polygon points="699.01,398.41 706.95,398.41 707.65,403.23 698.31,403.23" fill="#2c3a4a" fill-opacity="0.11" stroke="none"/>
<polygon points="698.31,403.23 707.65,403.23 708.35,408.05 697.61,408.05" fill="#2c3a4a" fill-opacity="0.21" stroke="none"/>
<polygon points="697.61,408.05 708.35,408.05 709.06,412.88 696.90,412.88" fill="#2c3a4a" fill-opacity="0.32" stroke="none"/>
<polygon points="696.90,412.88 709.06,412.88 709.76,417.70 696.20,417.70" fill="#2c3a4a" fill-opacity="0.43" stroke="none"/>
<polygon points="696.20,417.70 709.76,417.70 710.46,422.52 695.50,422.52" fill="#2c3a4a" fill-opacity="0.54" stroke="none"/>
<polygon points="695.50,422.52 710.46,422.52 711.16,427.34 694.80,427.34" fill="#2c3a4a" fill-opacity="0.64" stroke="none"/>
<polygon points="694.80,427.34 711.16,427.34 711.86,432.17 694.10,432.17" fill="#2c3a4a" fill-opacity="0.75" stroke="none"/>
<polygon points="694.10,432.17 711.86,432.17 712.56,436.99 693.40,436.99" fill="#2c3a4a" fill-opacity="0.86" stroke="none"/>
<polygon points="693.40,436.99 712.56,436.99 713.26,441.81 692.70,441.81" fill="#2c3a4a" fill-opacity="0.90" stroke="none"/>
<polygon points="692.70,441.81 713.26,441.81 713.96,446.63 692.00,446.63" fill="#2c3a4a" fill-opacity="0.90" stroke="none"/>
<polygon points="692.00,446.63 713.96,446.63 714.67,451.46 691.29,451.46" fill="#2c3a4a" fill-opacity="0.90" stroke="none"/>
<polygon points="691.29,451.46 714.67,451.46 715.37,456.28 690.59,456.28" fill="#2c3a4a" fill-opacity="0.90" stroke="none"/>
<polygon points="690.59,456.28 715.37,456.28 716.07,461.10 689.89,461.10" fill="#2c3a4a" fill-opacity="0.90" stroke="none"/>
<line x1="696.63" y1="409.79" x2="709.33" y2="409.79" stroke="#5b6f84" stroke-width="0.6" stroke-opacity="0.40"/>
<line x1="695.67" y1="420.59" x2="710.29" y2="420.59" stroke="#5b6f84" stroke-width="0.6" stroke-opacity="0.40"/>
<line x1="694.59" y1="432.74" x2="711.37" y2="432.74" stroke="#5b6f84" stroke-width="0.6" stroke-opacity="0.40"/>
<line x1="693.40" y1="446.25" x2="712.56" y2="446.25" stroke="#5b6f84" stroke-width="0.6" stroke-opacity="0.40"/>
<ellipse cx="702.98" cy="393.59" rx="18.90" ry="5.29" fill="#2c3a4a" fill-opacity="0.90" stroke="none"/>
<line x1="684.85" y1="392.10" x2="679.43" y2="389.07" stroke="#d99a2b" stroke-width="0.5" stroke-opacity="0.65"/>
<line x1="687.08" y1="390.73" x2="683.15" y2="385.93" stroke="#5b6f84" stroke-width="0.5" stroke-opacity="0.40"/>
<line x1="690.60" y1="389.59" x2="688.03" y2="383.95" stroke="#5b6f84" stroke-width="0.5" stroke-opacity="0.40"/>
<line x1="695.13" y1="388.77" x2="693.68" y2="382.75" stroke="#5b6f84" stroke-width="0.5" stroke-opacity="0.40"/>
<line x1="700.29" y1="388.35" x2="699.82" y2="382.17" stroke="#5b6f84" stroke-width="0.5" stroke-opacity="0.40"/>
<line x1="705.67" y1="388.35" x2="706.14" y2="382.17" stroke="#5b6f84" stroke-width="0.5" stroke-opacity="0.40"/>
<line x1="710.83" y1="388.77" x2="712.28" y2="382.75" stroke="#5b6f84" stroke-width="0.5" stroke-opacity="0.40"/>
<line x1="715.36" y1="389.59" x2="717.93" y2="383.95" stroke="#5b6f84" stroke-width="0.5" stroke-opacity="0.40"/>
<line x1="718.88" y1="390.73" x2="722.81" y2="385.93" stroke="#5b6f84" stroke-width="0.5" stroke-opacity="0.40"/>
<line x1="721.11" y1="392.10" x2="726.53" y2="389.07" stroke="#d99a2b" stroke-width="0.5" stroke-opacity="0.65"/>
<line x1="11.34" y1="150.23" x2="11.34" y2="301.41" stroke="#5b7490" stroke-width="1.0"/>
<line x1="419.52" y1="150.23" x2="419.52" y2="301.41" stroke="#5b7490" stroke-width="1.0"/>
<line x1="11.34" y1="161.57" x2="419.52" y2="161.57" stroke="#6f8aa6" stroke-width="0.55" stroke-opacity="0.95"/>
<line x1="434.64" y1="161.57" x2="498.89" y2="161.57" stroke="#6f8aa6" stroke-width="0.55" stroke-opacity="0.95"/>
<line x1="11.34" y1="187.27" x2="419.52" y2="187.27" stroke="#6f8aa6" stroke-width="0.38" stroke-opacity="0.5"/>
<line x1="434.64" y1="187.27" x2="498.89" y2="187.27" stroke="#6f8aa6" stroke-width="0.38" stroke-opacity="0.5"/>
<line x1="11.34" y1="212.97" x2="419.52" y2="212.97" stroke="#6f8aa6" stroke-width="0.38" stroke-opacity="0.5"/>
<line x1="434.64" y1="212.97" x2="498.89" y2="212.97" stroke="#6f8aa6" stroke-width="0.38" stroke-opacity="0.5"/>
<line x1="11.34" y1="238.67" x2="419.52" y2="238.67" stroke="#6f8aa6" stroke-width="0.38" stroke-opacity="0.5"/>
<line x1="434.64" y1="238.67" x2="498.89" y2="238.67" stroke="#6f8aa6" stroke-width="0.38" stroke-opacity="0.5"/>
<line x1="11.34" y1="264.37" x2="419.52" y2="264.37" stroke="#6f8aa6" stroke-width="0.38" stroke-opacity="0.5"/>
<line x1="434.64" y1="264.37" x2="498.89" y2="264.37" stroke="#6f8aa6" stroke-width="0.38" stroke-opacity="0.5"/>
<line x1="11.34" y1="290.07" x2="419.52" y2="290.07" stroke="#6f8aa6" stroke-width="0.55" stroke-opacity="0.95"/>
<line x1="434.64" y1="290.07" x2="498.89" y2="290.07" stroke="#6f8aa6" stroke-width="0.55" stroke-opacity="0.95"/>
<line x1="11.34" y1="161.57" x2="11.34" y2="169.89" stroke="#6f8aa6" stroke-width="0.28" stroke-opacity="0.45"/>
<line x1="26.46" y1="161.57" x2="26.46" y2="169.89" stroke="#6f8aa6" stroke-width="0.28" stroke-opacity="0.45"/>
<line x1="41.57" y1="161.57" x2="41.57" y2="169.89" stroke="#6f8aa6" stroke-width="0.28" stroke-opacity="0.45"/>
<line x1="56.69" y1="161.57" x2="56.69" y2="169.89" stroke="#6f8aa6" stroke-width="0.28" stroke-opacity="0.45"/>
<line x1="71.81" y1="161.57" x2="71.81" y2="169.89" stroke="#6f8aa6" stroke-width="0.28" stroke-opacity="0.45"/>
<line x1="86.93" y1="161.57" x2="86.93" y2="169.89" stroke="#6f8aa6" stroke-width="0.28" stroke-opacity="0.45"/>
<line x1="102.05" y1="161.57" x2="102.05" y2="169.89" stroke="#6f8aa6" stroke-width="0.28" stroke-opacity="0.45"/>
<line x1="117.16" y1="161.57" x2="117.16" y2="169.89" stroke="#6f8aa6" stroke-width="0.28" stroke-opacity="0.45"/>
<line x1="132.28" y1="161.57" x2="132.28" y2="169.89" stroke="#6f8aa6" stroke-width="0.28" stroke-opacity="0.45"/>
<line x1="147.4" y1="161.57" x2="147.4" y2="169.89" stroke="#6f8aa6" stroke-width="0.28" stroke-opacity="0.45"/>
<line x1="162.52" y1="161.57" x2="162.52" y2="169.89" stroke="#6f8aa6" stroke-width="0.28" stroke-opacity="0.45"/>
<line x1="177.64" y1="161.57" x2="177.64" y2="169.89" stroke="#6f8aa6" stroke-width="0.28" stroke-opacity="0.45"/>
<line x1="192.75" y1="161.57" x2="192.75" y2="169.89" stroke="#6f8aa6" stroke-width="0.28" stroke-opacity="0.45"/>
<line x1="207.87" y1="161.57" x2="207.87" y2="169.89" stroke="#6f8aa6" stroke-width="0.28" stroke-opacity="0.45"/>
<line x1="222.99" y1="161.57" x2="222.99" y2="169.89" stroke="#6f8aa6" stroke-width="0.28" stroke-opacity="0.45"/>
<line x1="238.11" y1="161.57" x2="238.11" y2="169.89" stroke="#6f8aa6" stroke-width="0.28" stroke-opacity="0.45"/>
<line x1="253.23" y1="161.57" x2="253.23" y2="169.89" stroke="#6f8aa6" stroke-width="0.28" stroke-opacity="0.45"/>
<line x1="268.34" y1="161.57" x2="268.34" y2="169.89" stroke="#6f8aa6" stroke-width="0.28" stroke-opacity="0.45"/>
<line x1="283.46" y1="161.57" x2="283.46" y2="169.89" stroke="#6f8aa6" stroke-width="0.28" stroke-opacity="0.45"/>
<line x1="298.58" y1="161.57" x2="298.58" y2="169.89" stroke="#6f8aa6" stroke-width="0.28" stroke-opacity="0.45"/>
<line x1="313.7" y1="161.57" x2="313.7" y2="169.89" stroke="#6f8aa6" stroke-width="0.28" stroke-opacity="0.45"/>
<line x1="328.81" y1="161.57" x2="328.81" y2="169.89" stroke="#6f8aa6" stroke-width="0.28" stroke-opacity="0.45"/>
<line x1="343.93" y1="161.57" x2="343.93" y2="169.89" stroke="#6f8aa6" stroke-width="0.28" stroke-opacity="0.45"/>
<line x1="359.05" y1="161.57" x2="359.05" y2="169.89" stroke="#6f8aa6" stroke-width="0.28" stroke-opacity="0.45"/>
<line x1="374.17" y1="161.57" x2="374.17" y2="169.89" stroke="#6f8aa6" stroke-width="0.28" stroke-opacity="0.45"/>
<line x1="389.29" y1="161.57" x2="389.29" y2="169.89" stroke="#6f8aa6" stroke-width="0.28" stroke-opacity="0.45"/>
<line x1="404.4" y1="161.57" x2="404.4" y2="169.89" stroke="#6f8aa6" stroke-width="0.28" stroke-opacity="0.45"/>
<line x1="419.52" y1="161.57" x2="419.52" y2="169.89" stroke="#6f8aa6" stroke-width="0.28" stroke-opacity="0.45"/>
<rect x="22.3" y="161.57" width="12.09" height="128.5" rx="2.27" fill="#05070a" stroke="#8ba2b8" stroke-width="0.4"/>
<circle id="param_semi_0" cx="28.35" cy="225.82" r="0.5" fill="none" stroke="none"/>
<rect x="56.31" y="161.57" width="12.09" height="128.5" rx="2.27" fill="#05070a" stroke="#8ba2b8" stroke-width="0.4"/>
<circle id="param_semi_1" cx="62.36" cy="225.82" r="0.5" fill="none" stroke="none"/>
<rect x="90.33" y="161.57" width="12.09" height="128.5" rx="2.27" fill="#05070a" stroke="#8ba2b8" stroke-width="0.4"/>
<circle id="param_semi_2" cx="96.38" cy="225.82" r="0.5" fill="none" stroke="none"/>
<rect x="124.34" y="161.57" width="12.09" height="128.5" rx="2.27" fill="#05070a" stroke="#8ba2b8" stroke-width="0.4"/>
<circle id="param_semi_3" cx="130.39" cy="225.82" r="0.5" fill="none" stroke="none"/>
<rect x="158.36" y="161.57" width="12.09" height="128.5" rx="2.27" fill="#05070a" stroke="#8ba2b8" stroke-width="0.4"/>
<circle id="param_semi_4" cx="164.41" cy="225.82" r="0.5" fill="none" stroke="none"/>
<rect x="192.38" y="161.57" width="12.09" height="128.5" rx="2.27" fill="#05070a" stroke="#8ba2b8" stroke-width="0.4"/>
<circle id="param_semi_5" cx="198.42" cy="225.82" r="0.5" fill="none" stroke="none"/>
<rect x="226.39" y="161.57" width="12.09" height="128.5" rx="2.27" fill="#05070a" stroke="#8ba2b8" stroke-width="0.4"/>
<circle id="param_semi_6" cx="232.44" cy="225.82" r="0.5" fill="none" stroke="none"/>
<rect x="260.41" y="161.57" width="12.09" height="128.5" rx="2.27" fill="#05070a" stroke="#8ba2b8" stroke-width="0.4"/>
<circle id="param_semi_7" cx="266.45" cy="225.82" r="0.5" fill="none" stroke="none"/>
<rect x="294.42" y="161.57" width="12.09" height="128.5" rx="2.27" fill="#05070a" stroke="#8ba2b8" stroke-width="0.4"/>
<circle id="param_semi_8" cx="300.47" cy="225.82" r="0.5" fill="none" stroke="none"/>
<rect x="328.44" y="161.57" width="12.09" height="128.5" rx="2.27" fill="#05070a" stroke="#8ba2b8" stroke-width="0.4"/>
<circle id="param_semi_9" cx="334.48" cy="225.82" r="0.5" fill="none" stroke="none"/>
<rect x="362.45" y="161.57" width="12.09" height="128.5" rx="2.27" fill="#05070a" stroke="#8ba2b8" stroke-width="0.4"/>
<circle id="param_semi_10" cx="368.5" cy="225.82" r="0.5" fill="none" stroke="none"/>
<rect x="396.47" y="161.57" width="12.09" height="128.5" rx="2.27" fill="#05070a" stroke="#8ba2b8" stroke-width="0.4"/>
<circle id="param_semi_11" cx="402.51" cy="225.82" r="0.5" fill="none" stroke="none"/>
<rect x="443.71" y="161.57" width="12.09" height="128.5" rx="2.27" fill="#05070a" stroke="#8ba2b8" stroke-width="0.4"/>
<circle id="param_oct_lo" cx="449.76" cy="225.82" r="0.5" fill="none" stroke="none"/>
<rect x="477.73" y="161.57" width="12.09" height="128.5" rx="2.27" fill="#05070a" stroke="#8ba2b8" stroke-width="0.4"/>
<circle id="param_oct_hi" cx="483.77" cy="225.82" r="0.5" fill="none" stroke="none"/>
<circle cx="54.8" cy="334.48" r="12.09" fill="#05070a" stroke="#8ba2b8" stroke-width="0.55"/>
<circle id="ctl_0" cx="54.8" cy="334.48" r="0.5" fill="none" stroke="none"/>
<circle cx="103.94" cy="334.48" r="12.09" fill="#05070a" stroke="#8ba2b8" stroke-width="0.55"/>
<circle id="ctl_1" cx="103.94" cy="334.48" r="0.5" fill="none" stroke="none"/>
<circle cx="211.65" cy="334.48" r="12.09" fill="#05070a" stroke="#8ba2b8" stroke-width="0.55"/>
<circle id="ctl_2" cx="211.65" cy="334.48" r="0.5" fill="none" stroke="none"/>
<circle cx="241.89" cy="334.48" r="12.09" fill="#05070a" stroke="#8ba2b8" stroke-width="0.55"/>
<circle id="ctl_3" cx="241.89" cy="334.48" r="0.5" fill="none" stroke="none"/>
<circle cx="347.71" cy="334.48" r="12.09" fill="#05070a" stroke="#8ba2b8" stroke-width="0.55"/>
<circle id="ctl_4" cx="347.71" cy="334.48" r="0.5" fill="none" stroke="none"/>
<circle cx="408.18" cy="334.48" r="12.09" fill="#05070a" stroke="#8ba2b8" stroke-width="0.55"/>
<circle id="ctl_5" cx="408.18" cy="334.48" r="0.5" fill="none" stroke="none"/>
<circle cx="468.66" cy="334.48" r="12.09" fill="#05070a" stroke="#8ba2b8" stroke-width="0.55"/>
<circle id="ctl_6" cx="468.66" cy="334.48" r="0.5" fill="none" stroke="none"/>
<circle cx="583.93" cy="334.48" r="12.09" fill="#05070a" stroke="#8ba2b8" stroke-width="0.55"/>
<circle id="ctl_7" cx="583.93" cy="334.48" r="0.5" fill="none" stroke="none"/>
<circle cx="648.18" cy="334.48" r="12.09" fill="#05070a" stroke="#8ba2b8" stroke-width="0.55"/>
<circle id="ctl_8" cx="648.18" cy="334.48" r="0.5" fill="none" stroke="none"/>
<circle cx="54.8" cy="368.5" r="12.09" fill="#05070a" stroke="#8ba2b8" stroke-width="0.55"/>
<circle id="ctl_9" cx="54.8" cy="368.5" r="0.5" fill="none" stroke="none"/>
<circle cx="103.94" cy="368.5" r="12.09" fill="#05070a" stroke="#8ba2b8" stroke-width="0.55"/>
<circle id="ctl_10" cx="103.94" cy="368.5" r="0.5" fill="none" stroke="none"/>
<circle cx="211.65" cy="368.5" r="12.09" fill="#05070a" stroke="#8ba2b8" stroke-width="0.55"/>
<circle id="ctl_11" cx="211.65" cy="368.5" r="0.5" fill="none" stroke="none"/>
<circle cx="241.89" cy="368.5" r="12.09" fill="#05070a" stroke="#8ba2b8" stroke-width="0.55"/>
<circle id="ctl_12" cx="241.89" cy="368.5" r="0.5" fill="none" stroke="none"/>
<circle cx="347.71" cy="368.5" r="12.09" fill="#05070a" stroke="#8ba2b8" stroke-width="0.55"/>
<circle id="ctl_13" cx="347.71" cy="368.5" r="0.5" fill="none" stroke="none"/>
<circle cx="408.18" cy="368.5" r="12.09" fill="#05070a" stroke="#8ba2b8" stroke-width="0.55"/>
<circle id="ctl_14" cx="408.18" cy="368.5" r="0.5" fill="none" stroke="none"/>
<circle cx="468.66" cy="368.5" r="12.09" fill="#05070a" stroke="#8ba2b8" stroke-width="0.55"/>
<circle id="ctl_15" cx="468.66" cy="368.5" r="0.5" fill="none" stroke="none"/>
<circle cx="583.93" cy="368.5" r="12.09" fill="#05070a" stroke="#8ba2b8" stroke-width="0.55"/>
<circle id="ctl_16" cx="583.93" cy="368.5" r="0.5" fill="none" stroke="none"/>
<circle cx="648.18" cy="368.5" r="12.09" fill="#05070a" stroke="#8ba2b8" stroke-width="0.55"/>
<circle id="ctl_17" cx="648.18" cy="368.5" r="0.5" fill="none" stroke="none"/>
<circle cx="54.8" cy="402.51" r="12.09" fill="#05070a" stroke="#8ba2b8" stroke-width="0.55"/>
<circle id="ctl_18" cx="54.8" cy="402.51" r="0.5" fill="none" stroke="none"/>
<circle cx="103.94" cy="402.51" r="12.09" fill="#05070a" stroke="#8ba2b8" stroke-width="0.55"/>
<circle id="ctl_19" cx="103.94" cy="402.51" r="0.5" fill="none" stroke="none"/>
<circle cx="211.65" cy="402.51" r="12.09" fill="#05070a" stroke="#8ba2b8" stroke-width="0.55"/>
<circle id="ctl_20" cx="211.65" cy="402.51" r="0.5" fill="none" stroke="none"/>
<circle cx="241.89" cy="402.51" r="12.09" fill="#05070a" stroke="#8ba2b8" stroke-width="0.55"/>
<circle id="ctl_21" cx="241.89" cy="402.51" r="0.5" fill="none" stroke="none"/>
<circle cx="347.71" cy="402.51" r="12.09" fill="#05070a" stroke="#8ba2b8" stroke-width="0.55"/>
<circle id="ctl_22" cx="347.71" cy="402.51" r="0.5" fill="none" stroke="none"/>
<circle cx="408.18" cy="402.51" r="12.09" fill="#05070a" stroke="#8ba2b8" stroke-width="0.55"/>
<circle id="ctl_23" cx="408.18" cy="402.51" r="0.5" fill="none" stroke="none"/>
<circle cx="468.66" cy="402.51" r="12.09" fill="#05070a" stroke="#8ba2b8" stroke-width="0.55"/>
<circle id="ctl_24" cx="468.66" cy="402.51" r="0.5" fill="none" stroke="none"/>
<circle cx="583.93" cy="402.51" r="12.09" fill="#05070a" stroke="#8ba2b8" stroke-width="0.55"/>
<circle id="ctl_25" cx="583.93" cy="402.51" r="0.5" fill="none" stroke="none"/>
<circle cx="648.18" cy="402.51" r="12.09" fill="#05070a" stroke="#8ba2b8" stroke-width="0.55"/>
<circle id="ctl_26" cx="648.18" cy="402.51" r="0.5" fill="none" stroke="none"/>
<circle cx="744.56" cy="45.35" r="5.67" fill="#05070a" stroke="#d99a2b" stroke-width="0.45"/>
<circle id="light_mode_A" cx="744.56" cy="45.35" r="0.5" fill="none" stroke="none"/>
<circle cx="744.56" cy="62.74" r="5.67" fill="#05070a" stroke="#d99a2b" stroke-width="0.45"/>
<circle id="light_mode_B" cx="744.56" cy="62.74" r="0.5" fill="none" stroke="none"/>
<circle cx="744.56" cy="80.12" r="5.67" fill="#05070a" stroke="#d99a2b" stroke-width="0.45"/>
<circle id="light_mode_C" cx="744.56" cy="80.12" r="0.5" fill="none" stroke="none"/>
<circle cx="744.56" cy="97.51" r="5.67" fill="#05070a" stroke="#d99a2b" stroke-width="0.45"/>
<circle id="light_mode_D" cx="744.56" cy="97.51" r="0.5" fill="none" stroke="none"/>
<circle cx="744.56" cy="114.9" r="5.67" fill="#05070a" stroke="#d99a2b" stroke-width="0.45"/>
<circle id="light_mode_E" cx="744.56" cy="114.9" r="0.5" fill="none" stroke="none"/>
<circle id="param_mode" cx="744.56" cy="26.46" r="0.5" fill="none" stroke="none"/>
<rect x="0" y="0" width="767.99" height="4.54" fill="#d4001a"/>
</svg>