<svg xmlns="http://www.w3.org/2000/svg" width="767.99" height="485.67" viewBox="0 0 767.99 485.67">
  <defs>
    <pattern id="g" x="0" y="0" width="767.99" height="0.5" patternUnits="userSpaceOnUse">
      <rect width="767.99" height="0.5" fill="#f7f7f7"/><rect y="0.25" width="767.99" height="0.12" fill="#cccccc" opacity="0.35"/>
    </pattern>
    <radialGradient id="gG" cx="50%" cy="50%" r="50%"><stop offset="0%" stop-color="#b8860b" stop-opacity="0.32"/><stop offset="65%" stop-color="#b8860b" stop-opacity="0.03"/><stop offset="100%" stop-color="#b8860b" stop-opacity="0.0"/></radialGradient>
    <radialGradient id="gT" cx="50%" cy="50%" r="50%"><stop offset="0%" stop-color="#26a69a" stop-opacity="0.28"/><stop offset="65%" stop-color="#26a69a" stop-opacity="0.03"/><stop offset="100%" stop-color="#26a69a" stop-opacity="0.0"/></radialGradient>
  </defs>
  <rect width="767.99" height="485.67" fill="url(#g)"/>
  <g stroke="#cccccc" stroke-width="0.5" opacity="0.40">
    <line x1="0" y1="52.91" x2="767.99" y2="52.91"/>
    <line x1="0" y1="143.62" x2="767.99" y2="143.62"/>
    <line x1="0" y1="294.80" x2="767.99" y2="294.80"/>
    <line x1="0" y1="370.39" x2="767.99" y2="370.39"/>
    <line x1="0" y1="427.08" x2="767.99" y2="427.08"/>
    <line x1="351.49" y1="370.39" x2="351.49" y2="485.67" stroke-dasharray="2,2"/>
  </g>
  <g>
    <polygon points="68.03,41.57 109.61,64.25 109.61,102.05 68.03,124.72 26.46,102.05 26.46,64.25" fill="url(#gG)" stroke="none"/>
    <polygon points="143.62,41.57 185.20,64.25 185.20,102.05 143.62,124.72 102.05,102.05 102.05,64.25" fill="url(#gG)" stroke="none"/>
    <polygon points="219.21,41.57 260.79,64.25 260.79,102.05 219.21,124.72 177.64,102.05 177.64,64.25" fill="url(#gG)" stroke="none"/>
    <polygon points="294.80,41.57 336.38,64.25 336.38,102.05 294.80,124.72 253.23,102.05 253.23,64.25" fill="url(#gG)" stroke="none"/>
    <polygon points="370.39,41.57 411.97,64.25 411.97,102.05 370.39,124.72 328.82,102.05 328.82,64.25" fill="url(#gG)" stroke="none"/>
    <polygon points="593.38,56.69 619.84,71.81 619.84,94.49 593.38,109.61 566.93,94.49 566.93,71.81" fill="url(#gT)" stroke="none"/>
    <polygon points="653.85,56.69 680.31,71.81 680.31,94.49 653.85,109.61 627.40,94.49 627.40,71.81" fill="url(#gT)" stroke="none"/>
    <polygon points="714.33,56.69 740.78,71.81 740.78,94.49 714.33,109.61 687.87,94.49 687.87,71.81" fill="url(#gT)" stroke="none"/>
  </g>
  <g stroke="#9a9a9a" stroke-width="0.85" fill="none" opacity="0.60">
    <polygon points="68.03,41.57 109.61,64.25 109.61,102.05 68.03,124.72 26.46,102.05 26.46,64.25"/>
    <polygon points="143.62,41.57 185.20,64.25 185.20,102.05 143.62,124.72 102.05,102.05 102.05,64.25"/>
    <polygon points="219.21,41.57 260.79,64.25 260.79,102.05 219.21,124.72 177.64,102.05 177.64,64.25"/>
    <polygon points="294.80,41.57 336.38,64.25 336.38,102.05 294.80,124.72 253.23,102.05 253.23,64.25"/>
    <polygon points="370.39,41.57 411.97,64.25 411.97,102.05 370.39,124.72 328.82,102.05 328.82,64.25"/>
    <polygon points="593.38,56.69 619.84,71.81 619.84,94.49 593.38,109.61 566.93,94.49 566.93,71.81"/>
    <polygon points="653.85,56.69 680.31,71.81 680.31,94.49 653.85,109.61 627.40,94.49 627.40,71.81"/>
    <polygon points="714.33,56.69 740.78,71.81 740.78,94.49 714.33,109.61 687.87,94.49 687.87,71.81"/>
  </g>
  <g stroke="#999999" stroke-width="0.5" fill="none" opacity="0.46">
    <polygon points="68.03,56.69 94.49,71.81 94.49,94.49 68.03,109.61 41.57,94.49 41.57,71.81"/>
    <polygon points="143.62,56.69 170.08,71.81 170.08,94.49 143.62,109.61 117.16,94.49 117.16,71.81"/>
    <polygon points="219.21,56.69 245.67,71.81 245.67,94.49 219.21,109.61 192.75,94.49 192.75,71.81"/>
    <polygon points="294.80,56.69 321.26,71.81 321.26,94.49 294.80,109.61 268.34,94.49 268.34,71.81"/>
    <polygon points="370.39,56.69 396.85,71.81 396.85,94.49 370.39,109.61 343.93,94.49 343.93,71.81"/>
    <polygon points="593.38,68.03 608.50,75.59 608.50,90.71 593.38,98.27 578.26,90.71 578.26,75.59"/>
    <polygon points="653.85,68.03 668.97,75.59 668.97,90.71 653.85,98.27 638.74,90.71 638.74,75.59"/>
    <polygon points="714.33,68.03 729.44,75.59 729.44,90.71 714.33,98.27 699.21,90.71 699.21,75.59"/>
  </g>
  <g stroke="#aaaaaa" stroke-width="0.45" fill="none" opacity="0.34">
    <path d="M68.03,56.69 L68.03,41.57 M94.49,71.81 L109.61,64.25 M94.49,94.49 L109.61,102.05 M68.03,109.61 L68.03,124.72 M41.57,94.49 L26.46,102.05 M41.57,71.81 L26.46,64.25"/>
    <path d="M143.62,56.69 L143.62,41.57 M170.08,71.81 L185.20,64.25 M170.08,94.49 L185.20,102.05 M143.62,109.61 L143.62,124.72 M117.16,94.49 L102.05,102.05 M117.16,71.81 L102.05,64.25"/>
    <path d="M219.21,56.69 L219.21,41.57 M245.67,71.81 L260.79,64.25 M245.67,94.49 L260.79,102.05 M219.21,109.61 L219.21,124.72 M192.75,94.49 L177.64,102.05 M192.75,71.81 L177.64,64.25"/>
    <path d="M294.80,56.69 L294.80,41.57 M321.26,71.81 L336.38,64.25 M321.26,94.49 L336.38,102.05 M294.80,109.61 L294.80,124.72 M268.34,94.49 L253.23,102.05 M268.34,71.81 L253.23,64.25"/>
    <path d="M370.39,56.69 L370.39,41.57 M396.85,71.81 L411.97,64.25 M396.85,94.49 L411.97,102.05 M370.39,109.61 L370.39,124.72 M343.93,94.49 L328.82,102.05 M343.93,71.81 L328.82,64.25"/>
    <path d="M593.38,68.03 L593.38,56.69 M608.50,75.59 L619.84,71.81 M608.50,90.71 L619.84,94.49 M593.38,98.27 L593.38,109.61 M578.26,90.71 L566.93,94.49 M578.26,75.59 L566.93,71.81"/>
    <path d="M653.85,68.03 L653.85,56.69 M668.97,75.59 L680.31,71.81 M668.97,90.71 L680.31,94.49 M653.85,98.27 L653.85,109.61 M638.74,90.71 L627.40,94.49 M638.74,75.59 L627.40,71.81"/>
    <path d="M714.33,68.03 L714.33,56.69 M729.44,75.59 L740.78,71.81 M729.44,90.71 L740.78,94.49 M714.33,98.27 L714.33,109.61 M699.21,90.71 L687.87,94.49 M699.21,75.59 L687.87,71.81"/>
  </g>
  <g fill="#b8860b" opacity="0.68">
    <circle cx="68.03" cy="56.69" r="1.5"/>
    <circle cx="94.49" cy="71.81" r="1.5"/>
    <circle cx="94.49" cy="94.49" r="1.5"/>
    <circle cx="68.03" cy="109.61" r="1.5"/>
    <circle cx="41.57" cy="94.49" r="1.5"/>
    <circle cx="41.57" cy="71.81" r="1.5"/>
    <circle cx="143.62" cy="56.69" r="1.5"/>
    <circle cx="170.08" cy="71.81" r="1.5"/>
    <circle cx="170.08" cy="94.49" r="1.5"/>
    <circle cx="143.62" cy="109.61" r="1.5"/>
    <circle cx="117.16" cy="94.49" r="1.5"/>
    <circle cx="117.16" cy="71.81" r="1.5"/>
    <circle cx="219.21" cy="56.69" r="1.5"/>
    <circle cx="245.67" cy="71.81" r="1.5"/>
    <circle cx="245.67" cy="94.49" r="1.5"/>
    <circle cx="219.21" cy="109.61" r="1.5"/>
    <circle cx="192.75" cy="94.49" r="1.5"/>
    <circle cx="192.75" cy="71.81" r="1.5"/>
    <circle cx="294.80" cy="56.69" r="1.5"/>
    <circle cx="321.26" cy="71.81" r="1.5"/>
    <circle cx="321.26" cy="94.49" r="1.5"/>
    <circle cx="294.80" cy="109.61" r="1.5"/>
    <circle cx="268.34" cy="94.49" r="1.5"/>
    <circle cx="268.34" cy="71.81" r="1.5"/>
    <circle cx="370.39" cy="56.69" r="1.5"/>
    <circle cx="396.85" cy="71.81" r="1.5"/>
    <circle cx="396.85" cy="94.49" r="1.5"/>
    <circle cx="370.39" cy="109.61" r="1.5"/>
    <circle cx="343.93" cy="94.49" r="1.5"/>
    <circle cx="343.93" cy="71.81" r="1.5"/>
    <circle cx="593.38" cy="68.03" r="1.1"/>
    <circle cx="608.50" cy="75.59" r="1.1"/>
    <circle cx="608.50" cy="90.71" r="1.1"/>
    <circle cx="593.38" cy="98.27" r="1.1"/>
    <circle cx="578.26" cy="90.71" r="1.1"/>
    <circle cx="578.26" cy="75.59" r="1.1"/>
    <circle cx="653.85" cy="68.03" r="1.1"/>
    <circle cx="668.97" cy="75.59" r="1.1"/>
    <circle cx="668.97" cy="90.71" r="1.1"/>
    <circle cx="653.85" cy="98.27" r="1.1"/>
    <circle cx="638.74" cy="90.71" r="1.1"/>
    <circle cx="638.74" cy="75.59" r="1.1"/>
    <circle cx="714.33" cy="68.03" r="1.1"/>
    <circle cx="729.44" cy="75.59" r="1.1"/>
    <circle cx="729.44" cy="90.71" r="1.1"/>
    <circle cx="714.33" cy="98.27" r="1.1"/>
    <circle cx="699.21" cy="90.71" r="1.1"/>
    <circle cx="699.21" cy="75.59" r="1.1"/>
  </g>
  <g stroke="#888888" stroke-width="0.4" fill="none" opacity="0.42">
    <polygon points="105.83,71.81 117.16,83.15 105.83,94.49 94.49,83.15"/>
    <polygon points="181.42,71.81 192.75,83.15 181.42,94.49 170.08,83.15"/>
    <polygon points="257.01,71.81 268.34,83.15 257.01,94.49 245.67,83.15"/>
    <polygon points="332.60,71.81 343.93,83.15 332.60,94.49 321.26,83.15"/>
    <polygon points="623.62,71.81 634.96,83.15 623.62,94.49 612.28,83.15"/>
    <polygon points="684.09,71.81 695.43,83.15 684.09,94.49 672.75,83.15"/>
  </g>
  <circle cx="498.89" cy="86.93" r="71.81" fill="url(#gT)" stroke="none"/>
  <g stroke="#9a9a9a" stroke-width="0.7" fill="none" opacity="0.62">
    <circle cx="498.89" cy="86.93" r="60.47"/>
    <circle cx="498.89" cy="86.93" r="71.81" stroke-width="0.35" opacity="0.4"/>
  </g>
  <g stroke="#b8860b" stroke-width="0.62" opacity="0.65">
    <line x1="498.89" y1="32.13" x2="498.89" y2="18.90"/>
    <line x1="519.87" y1="36.30" x2="524.93" y2="24.08"/>
    <line x1="537.65" y1="48.18" x2="547.00" y2="38.82"/>
    <line x1="549.53" y1="65.96" x2="561.75" y2="60.89"/>
    <line x1="553.70" y1="86.93" x2="566.93" y2="86.93"/>
    <line x1="549.53" y1="107.90" x2="561.75" y2="112.96"/>
    <line x1="537.65" y1="125.68" x2="547.00" y2="135.03"/>
    <line x1="519.87" y1="137.56" x2="524.93" y2="149.78"/>
    <line x1="498.89" y1="141.73" x2="498.89" y2="154.96"/>
    <line x1="477.92" y1="137.56" x2="472.86" y2="149.78"/>
    <line x1="460.14" y1="125.68" x2="450.79" y2="135.03"/>
    <line x1="448.26" y1="107.90" x2="436.04" y2="112.96"/>
    <line x1="444.09" y1="86.93" x2="430.86" y2="86.93"/>
    <line x1="448.26" y1="65.96" x2="436.04" y2="60.89"/>
    <line x1="460.14" y1="48.18" x2="450.79" y2="38.82"/>
    <line x1="477.92" y1="36.30" x2="472.86" y2="24.08"/>
  </g>
  <g stroke="#b8860b" stroke-width="0.5" fill="none" opacity="0.38">
    <polygon points="28.35,210.71 43.46,225.83 28.35,240.94 13.23,225.83"/>
    <line x1="21.73" y1="170.08" x2="21.73" y2="285.35" stroke-width="0.25" opacity="0.4"/>
    <polygon points="62.36,210.71 77.48,225.83 62.36,240.94 47.24,225.83"/>
    <line x1="55.75" y1="170.08" x2="55.75" y2="285.35" stroke-width="0.25" opacity="0.4"/>
    <polygon points="96.38,210.71 111.50,225.83 96.38,240.94 81.26,225.83"/>
    <line x1="89.76" y1="170.08" x2="89.76" y2="285.35" stroke-width="0.25" opacity="0.4"/>
    <polygon points="130.39,210.71 145.51,225.83 130.39,240.94 115.27,225.83"/>
    <line x1="123.78" y1="170.08" x2="123.78" y2="285.35" stroke-width="0.25" opacity="0.4"/>
    <polygon points="164.41,210.71 179.53,225.83 164.41,240.94 149.29,225.83"/>
    <line x1="157.79" y1="170.08" x2="157.79" y2="285.35" stroke-width="0.25" opacity="0.4"/>
    <polygon points="198.42,210.71 213.54,225.83 198.42,240.94 183.31,225.83"/>
    <line x1="191.81" y1="170.08" x2="191.81" y2="285.35" stroke-width="0.25" opacity="0.4"/>
    <polygon points="232.44,210.71 247.56,225.83 232.44,240.94 217.32,225.83"/>
    <line x1="225.83" y1="170.08" x2="225.83" y2="285.35" stroke-width="0.25" opacity="0.4"/>
    <polygon points="266.45,210.71 281.57,225.83 266.45,240.94 251.34,225.83"/>
    <line x1="259.84" y1="170.08" x2="259.84" y2="285.35" stroke-width="0.25" opacity="0.4"/>
    <polygon points="300.47,210.71 315.59,225.83 300.47,240.94 285.35,225.83"/>
    <line x1="293.86" y1="170.08" x2="293.86" y2="285.35" stroke-width="0.25" opacity="0.4"/>
    <polygon points="334.49,210.71 349.60,225.83 334.49,240.94 319.37,225.83"/>
    <line x1="327.87" y1="170.08" x2="327.87" y2="285.35" stroke-width="0.25" opacity="0.4"/>
    <polygon points="368.50,210.71 383.62,225.83 368.50,240.94 353.38,225.83"/>
    <line x1="361.89" y1="170.08" x2="361.89" y2="285.35" stroke-width="0.25" opacity="0.4"/>
    <polygon points="402.52,210.71 417.63,225.83 402.52,240.94 387.40,225.83"/>
    <line x1="395.90" y1="170.08" x2="395.90" y2="285.35" stroke-width="0.25" opacity="0.4"/>
    <polygon points="449.76,210.71 464.88,225.83 449.76,240.94 434.64,225.83"/>
    <line x1="443.15" y1="170.08" x2="443.15" y2="285.35" stroke-width="0.25" opacity="0.4"/>
    <polygon points="491.34,210.71 506.45,225.83 491.34,240.94 476.22,225.83"/>
    <line x1="484.72" y1="170.08" x2="484.72" y2="285.35" stroke-width="0.25" opacity="0.4"/>
  </g>
  <g fill="url(#gT)">
    <polygon points="445.98,313.70 461.10,328.82 445.98,343.93 430.86,328.82" stroke="none"/>
    <polygon points="502.67,313.70 517.79,328.82 502.67,343.93 487.56,328.82" stroke="none"/>
    <polygon points="559.37,313.70 574.48,328.82 559.37,343.93 544.25,328.82" stroke="none"/>
    <polygon points="616.06,313.70 631.18,328.82 616.06,343.93 600.94,328.82" stroke="none"/>
    <polygon points="672.75,313.70 687.87,328.82 672.75,343.93 657.63,328.82" stroke="none"/>
    <polygon points="729.44,313.70 744.56,328.82 729.44,343.93 714.33,328.82" stroke="none"/>
  </g>
  <g stroke="#888888" stroke-width="0.4" fill="none" opacity="0.42">
    <polygon points="445.98,313.70 461.10,328.82 445.98,343.93 430.86,328.82"/>
    <polygon points="502.67,313.70 517.79,328.82 502.67,343.93 487.56,328.82"/>
    <polygon points="559.37,313.70 574.48,328.82 559.37,343.93 544.25,328.82"/>
    <polygon points="616.06,313.70 631.18,328.82 616.06,343.93 600.94,328.82"/>
    <polygon points="672.75,313.70 687.87,328.82 672.75,343.93 657.63,328.82"/>
    <polygon points="729.44,313.70 744.56,328.82 729.44,343.93 714.33,328.82"/>
  </g>
  <g>
    <polygon points="37.80,376.06 60.47,389.29 60.47,404.41 37.80,417.63 15.12,404.41 15.12,389.29" fill="url(#gT)" stroke="none"/>
    <polygon points="105.83,376.06 128.50,389.29 128.50,404.41 105.83,417.63 83.15,404.41 83.15,389.29" fill="url(#gT)" stroke="none"/>
    <polygon points="173.86,376.06 196.53,389.29 196.53,404.41 173.86,417.63 151.18,404.41 151.18,389.29" fill="url(#gT)" stroke="none"/>
    <polygon points="241.89,376.06 264.56,389.29 264.56,404.41 241.89,417.63 219.21,404.41 219.21,389.29" fill="url(#gT)" stroke="none"/>
    <polygon points="309.92,376.06 332.60,389.29 332.60,404.41 309.92,417.63 287.24,404.41 287.24,389.29" fill="url(#gT)" stroke="none"/>
  </g>
  <g stroke="#9a9a9a" stroke-width="0.5" fill="none" opacity="0.52">
    <polygon points="37.80,376.06 60.47,389.29 60.47,404.41 37.80,417.63 15.12,404.41 15.12,389.29"/>
    <polygon points="105.83,376.06 128.50,389.29 128.50,404.41 105.83,417.63 83.15,404.41 83.15,389.29"/>
    <polygon points="173.86,376.06 196.53,389.29 196.53,404.41 173.86,417.63 151.18,404.41 151.18,389.29"/>
    <polygon points="241.89,376.06 264.56,389.29 264.56,404.41 241.89,417.63 219.21,404.41 219.21,389.29"/>
    <polygon points="309.92,376.06 332.60,389.29 332.60,404.41 309.92,417.63 287.24,404.41 287.24,389.29"/>
  </g>
  <g>
    <polygon points="37.80,432.75 60.47,445.98 60.47,461.10 37.80,474.33 15.12,461.10 15.12,445.98" fill="url(#gT)" stroke="none"/>
    <polygon points="105.83,432.75 128.50,445.98 128.50,461.10 105.83,474.33 83.15,461.10 83.15,445.98" fill="url(#gT)" stroke="none"/>
    <polygon points="173.86,432.75 196.53,445.98 196.53,461.10 173.86,474.33 151.18,461.10 151.18,445.98" fill="url(#gT)" stroke="none"/>
    <polygon points="241.89,432.75 264.56,445.98 264.56,461.10 241.89,474.33 219.21,461.10 219.21,445.98" fill="url(#gT)" stroke="none"/>
    <polygon points="309.92,432.75 332.60,445.98 332.60,461.10 309.92,474.33 287.24,461.10 287.24,445.98" fill="url(#gT)" stroke="none"/>
  </g>
  <g stroke="#9a9a9a" stroke-width="0.5" fill="none" opacity="0.52">
    <polygon points="37.80,432.75 60.47,445.98 60.47,461.10 37.80,474.33 15.12,461.10 15.12,445.98"/>
    <polygon points="105.83,432.75 128.50,445.98 128.50,461.10 105.83,474.33 83.15,461.10 83.15,445.98"/>
    <polygon points="173.86,432.75 196.53,445.98 196.53,461.10 173.86,474.33 151.18,461.10 151.18,445.98"/>
    <polygon points="241.89,432.75 264.56,445.98 264.56,461.10 241.89,474.33 219.21,461.10 219.21,445.98"/>
    <polygon points="309.92,432.75 332.60,445.98 332.60,461.10 309.92,474.33 287.24,461.10 287.24,445.98"/>
  </g>
  <g>
    <polygon points="393.07,376.06 415.75,389.29 415.75,404.41 393.07,417.63 370.39,404.41 370.39,389.29" fill="url(#gG)" stroke="none"/>
    <polygon points="461.10,376.06 483.78,389.29 483.78,404.41 461.10,417.63 438.42,404.41 438.42,389.29" fill="url(#gG)" stroke="none"/>
    <polygon points="529.13,376.06 551.81,389.29 551.81,404.41 529.13,417.63 506.45,404.41 506.45,389.29" fill="url(#gG)" stroke="none"/>
    <polygon points="597.16,376.06 619.84,389.29 619.84,404.41 597.16,417.63 574.48,404.41 574.48,389.29" fill="url(#gG)" stroke="none"/>
    <polygon points="665.19,376.06 687.87,389.29 687.87,404.41 665.19,417.63 642.51,404.41 642.51,389.29" fill="url(#gG)" stroke="none"/>
  </g>
  <g stroke="#9a9a9a" stroke-width="0.5" fill="none" opacity="0.52">
    <polygon points="393.07,376.06 415.75,389.29 415.75,404.41 393.07,417.63 370.39,404.41 370.39,389.29"/>
    <polygon points="461.10,376.06 483.78,389.29 483.78,404.41 461.10,417.63 438.42,404.41 438.42,389.29"/>
    <polygon points="529.13,376.06 551.81,389.29 551.81,404.41 529.13,417.63 506.45,404.41 506.45,389.29"/>
    <polygon points="597.16,376.06 619.84,389.29 619.84,404.41 597.16,417.63 574.48,404.41 574.48,389.29"/>
    <polygon points="665.19,376.06 687.87,389.29 687.87,404.41 665.19,417.63 642.51,404.41 642.51,389.29"/>
  </g>
  <g>
    <polygon points="393.07,432.75 415.75,445.98 415.75,461.10 393.07,474.33 370.39,461.10 370.39,445.98" fill="url(#gG)" stroke="none"/>
    <polygon points="461.10,432.75 483.78,445.98 483.78,461.10 461.10,474.33 438.42,461.10 438.42,445.98" fill="url(#gG)" stroke="none"/>
    <polygon points="529.13,432.75 551.81,445.98 551.81,461.10 529.13,474.33 506.45,461.10 506.45,445.98" fill="url(#gG)" stroke="none"/>
    <polygon points="597.16,432.75 619.84,445.98 619.84,461.10 597.16,474.33 574.48,461.10 574.48,445.98" fill="url(#gG)" stroke="none"/>
  </g>
  <g stroke="#9a9a9a" stroke-width="0.5" fill="none" opacity="0.52">
    <polygon points="393.07,432.75 415.75,445.98 415.75,461.10 393.07,474.33 370.39,461.10 370.39,445.98"/>
    <polygon points="461.10,432.75 483.78,445.98 483.78,461.10 461.10,474.33 438.42,461.10 438.42,445.98"/>
    <polygon points="529.13,432.75 551.81,445.98 551.81,461.10 529.13,474.33 506.45,461.10 506.45,445.98"/>
    <polygon points="597.16,432.75 619.84,445.98 619.84,461.10 597.16,474.33 574.48,461.10 574.48,445.98"/>
  </g>
  <g stroke="#888888" stroke-width="0.35" fill="none" opacity="0.38">
    <polygon points="71.81,385.51 83.15,396.85 71.81,408.19 60.47,396.85"/>
    <polygon points="139.84,385.51 151.18,396.85 139.84,408.19 128.50,396.85"/>
    <polygon points="207.87,385.51 219.21,396.85 207.87,408.19 196.53,396.85"/>
    <polygon points="275.90,385.51 287.24,396.85 275.90,408.19 264.56,396.85"/>
    <polygon points="71.81,442.20 83.15,453.54 71.81,464.88 60.47,453.54"/>
    <polygon points="139.84,442.20 151.18,453.54 139.84,464.88 128.50,453.54"/>
    <polygon points="207.87,442.20 219.21,453.54 207.87,464.88 196.53,453.54"/>
    <polygon points="275.90,442.20 287.24,453.54 275.90,464.88 264.56,453.54"/>
    <polygon points="427.08,385.51 438.42,396.85 427.08,408.19 415.75,396.85"/>
    <polygon points="495.11,385.51 506.45,396.85 495.11,408.19 483.78,396.85"/>
    <polygon points="563.15,385.51 574.48,396.85 563.15,408.19 551.81,396.85"/>
    <polygon points="631.18,385.51 642.51,396.85 631.18,408.19 619.84,396.85"/>
    <polygon points="427.08,442.20 438.42,453.54 427.08,464.88 415.75,453.54"/>
    <polygon points="495.11,442.20 506.45,453.54 495.11,464.88 483.78,453.54"/>
    <polygon points="563.15,442.20 574.48,453.54 563.15,464.88 551.81,453.54"/>
  </g>
  <g fill="none" stroke="#26a69a" opacity="0.42">
    <polygon points="7.56,68.03 18.90,83.15 7.56,98.27 -3.78,83.15" stroke-width="0.5"/>
    <circle cx="7.56" cy="83.15" r="1.4" fill="#26a69a" stroke="none"/>
    <polygon points="760.44,68.03 771.77,83.15 760.44,98.27 749.10,83.15" stroke-width="0.5"/>
    <circle cx="760.44" cy="83.15" r="1.4" fill="#26a69a" stroke="none"/>
    <polygon points="7.56,210.71 18.90,225.83 7.56,240.94 -3.78,225.83" stroke-width="0.5"/>
    <circle cx="7.56" cy="225.83" r="1.4" fill="#26a69a" stroke="none"/>
    <polygon points="760.44,210.71 771.77,225.83 760.44,240.94 749.10,225.83" stroke-width="0.5"/>
    <circle cx="760.44" cy="225.83" r="1.4" fill="#26a69a" stroke="none"/>
    <polygon points="7.56,313.70 18.90,328.82 7.56,343.93 -3.78,328.82" stroke-width="0.5"/>
    <circle cx="7.56" cy="328.82" r="1.4" fill="#26a69a" stroke="none"/>
    <polygon points="760.44,313.70 771.77,328.82 760.44,343.93 749.10,328.82" stroke-width="0.5"/>
    <circle cx="760.44" cy="328.82" r="1.4" fill="#26a69a" stroke="none"/>
    <polygon points="7.56,381.73 18.90,396.85 7.56,411.97 -3.78,396.85" stroke-width="0.5"/>
    <circle cx="7.56" cy="396.85" r="1.4" fill="#26a69a" stroke="none"/>
    <polygon points="760.44,381.73 771.77,396.85 760.44,411.97 749.10,396.85" stroke-width="0.5"/>
    <circle cx="760.44" cy="396.85" r="1.4" fill="#26a69a" stroke="none"/>
    <polygon points="7.56,438.42 18.90,453.54 7.56,468.66 -3.78,453.54" stroke-width="0.5"/>
    <circle cx="7.56" cy="453.54" r="1.4" fill="#26a69a" stroke="none"/>
    <polygon points="760.44,438.42 771.77,453.54 760.44,468.66 749.10,453.54" stroke-width="0.5"/>
    <circle cx="760.44" cy="453.54" r="1.4" fill="#26a69a" stroke="none"/>
  </g>
  <circle cx="752.88" cy="15.12" r="4" fill="#dc2626"/>
  <g fill="none" stroke-width="0.6" opacity="0.40">
    <g stroke="#b8860b">
      <circle cx="68.03" cy="83.15" r="30.24"/>
      <circle cx="143.62" cy="83.15" r="30.24"/>
      <circle cx="219.21" cy="83.15" r="30.24"/>
      <circle cx="294.80" cy="83.15" r="30.24"/>
      <circle cx="370.39" cy="83.15" r="30.24"/>
    </g>
    <g stroke="#666666">
      <circle cx="593.38" cy="83.15" r="20.79"/>
      <circle cx="653.85" cy="83.15" r="20.79"/>
      <circle cx="714.33" cy="83.15" r="20.79"/>
    </g>
  </g>
  <g fill="none" stroke-width="0.7">
    <g stroke="#888888" opacity="0.55">
      <circle cx="37.80" cy="396.85" r="14.74"/>
      <circle cx="105.83" cy="396.85" r="14.74"/>
      <circle cx="173.86" cy="396.85" r="14.74"/>
      <circle cx="241.89" cy="396.85" r="14.74"/>
      <circle cx="309.92" cy="396.85" r="14.74"/>
      <circle cx="37.80" cy="453.54" r="14.74"/>
      <circle cx="105.83" cy="453.54" r="14.74"/>
      <circle cx="173.86" cy="453.54" r="14.74"/>
      <circle cx="241.89" cy="453.54" r="14.74"/>
      <circle cx="309.92" cy="453.54" r="14.74"/>
    </g>
    <g stroke="#b8860b" opacity="0.55">
      <circle cx="393.07" cy="396.85" r="14.74"/>
      <circle cx="461.10" cy="396.85" r="14.74"/>
      <circle cx="529.13" cy="396.85" r="14.74"/>
      <circle cx="597.16" cy="396.85" r="14.74"/>
      <circle cx="665.19" cy="396.85" r="14.74"/>
      <circle cx="393.07" cy="453.54" r="14.74"/>
      <circle cx="461.10" cy="453.54" r="14.74"/>
      <circle cx="529.13" cy="453.54" r="14.74"/>
      <circle cx="597.16" cy="453.54" r="14.74"/>
    </g>
  </g>
</svg>