<svg xmlns="http://www.w3.org/2000/svg" width="180" height="380" viewBox="0 0 180 380">
<rect width="180" height="380" fill="#0a0a0a"/>
<rect x="0" y="0" width="180" height="3" fill="#d4001a"/>
<rect x="0" y="377" width="180" height="3" fill="#d4001a"/>
<rect x="5.9" y="106.3" width="82.7" height="248.0" fill="#d4001a" fill-opacity="0.05"/>
<rect x="90.1" y="106.3" width="82.7" height="248.0" fill="#d4001a" fill-opacity="0.05"/>
<line x1="90.0" y1="106.3" x2="90.0" y2="354.3" stroke="#2a2a2a" stroke-width="0.8" stroke-opacity="0.5"/>
<g>
<path d="M 88.7 37.7 L 104.1 21.8 L 146.5 62.8 L 131.2 78.8 Z" fill="#d4001a" fill-opacity="0.87" stroke="#0a0a0a" stroke-width="0.8"/>
<line x1="100.5" y1="46.7" x2="113.5" y2="33.3" stroke="#0a0a0a" stroke-width="0.7" stroke-dasharray="1.5,1.5"/>
<line x1="112.2" y1="51.6" x2="118.8" y2="44.8" stroke="#0a0a0a" stroke-width="0.9" stroke-opacity="0.6"/>
<line x1="118.6" y1="57.8" x2="125.1" y2="51.0" stroke="#0a0a0a" stroke-width="0.9" stroke-opacity="0.6"/>
<path d="M 85.1 36.9 L 104.1 25.5 L 134.5 76.1 L 115.5 87.5 Z" fill="#d4001a" fill-opacity="0.84" stroke="#0a0a0a" stroke-width="0.8"/>
<line x1="94.2" y1="48.7" x2="110.1" y2="39.1" stroke="#0a0a0a" stroke-width="0.7" stroke-dasharray="1.5,1.5"/>
<line x1="104.2" y1="56.4" x2="112.3" y2="51.6" stroke="#0a0a0a" stroke-width="0.9" stroke-opacity="0.6"/>
<line x1="108.8" y1="64.0" x2="116.9" y2="59.2" stroke="#0a0a0a" stroke-width="0.9" stroke-opacity="0.6"/>
<path d="M 81.8 35.2 L 103.1 29.1 L 119.4 85.9 L 98.1 92.0 Z" fill="#d4001a" fill-opacity="0.81" stroke="#0a0a0a" stroke-width="0.8"/>
<line x1="87.6" y1="48.9" x2="105.5" y2="43.8" stroke="#0a0a0a" stroke-width="0.7" stroke-dasharray="1.5,1.5"/>
<line x1="95.2" y1="59.0" x2="104.3" y2="56.4" stroke="#0a0a0a" stroke-width="0.9" stroke-opacity="0.6"/>
<line x1="97.7" y1="67.5" x2="106.7" y2="64.9" stroke="#0a0a0a" stroke-width="0.9" stroke-opacity="0.6"/>
<path d="M 78.9 32.5 L 101.1 32.5 L 101.1 91.5 L 78.9 91.5 Z" fill="#d4001a" fill-opacity="0.78" stroke="#0a0a0a" stroke-width="0.8"/>
<line x1="80.7" y1="47.2" x2="99.3" y2="47.2" stroke="#0a0a0a" stroke-width="0.7" stroke-dasharray="1.5,1.5"/>
<line x1="85.3" y1="59.1" x2="94.7" y2="59.1" stroke="#0a0a0a" stroke-width="0.9" stroke-opacity="0.6"/>
<line x1="85.3" y1="67.9" x2="94.7" y2="67.9" stroke="#0a0a0a" stroke-width="0.9" stroke-opacity="0.6"/>
<path d="M 76.9 29.1 L 98.2 35.2 L 81.9 92.0 L 60.6 85.9 Z" fill="#d4001a" fill-opacity="0.81" stroke="#0a0a0a" stroke-width="0.8"/>
<line x1="74.5" y1="43.8" x2="92.4" y2="48.9" stroke="#0a0a0a" stroke-width="0.7" stroke-dasharray="1.5,1.5"/>
<line x1="75.7" y1="56.4" x2="84.8" y2="59.0" stroke="#0a0a0a" stroke-width="0.9" stroke-opacity="0.6"/>
<line x1="73.3" y1="64.9" x2="82.3" y2="67.5" stroke="#0a0a0a" stroke-width="0.9" stroke-opacity="0.6"/>
<path d="M 75.9 25.5 L 94.9 36.9 L 64.5 87.5 L 45.5 76.1 Z" fill="#d4001a" fill-opacity="0.84" stroke="#0a0a0a" stroke-width="0.8"/>
<line x1="69.9" y1="39.1" x2="85.8" y2="48.7" stroke="#0a0a0a" stroke-width="0.7" stroke-dasharray="1.5,1.5"/>
<line x1="67.7" y1="51.6" x2="75.8" y2="56.4" stroke="#0a0a0a" stroke-width="0.9" stroke-opacity="0.6"/>
<line x1="63.1" y1="59.2" x2="71.2" y2="64.0" stroke="#0a0a0a" stroke-width="0.9" stroke-opacity="0.6"/>
<path d="M 75.9 21.8 L 91.3 37.7 L 48.8 78.8 L 33.5 62.8 Z" fill="#d4001a" fill-opacity="0.87" stroke="#0a0a0a" stroke-width="0.8"/>
<line x1="66.5" y1="33.3" x2="79.5" y2="46.7" stroke="#0a0a0a" stroke-width="0.7" stroke-dasharray="1.5,1.5"/>
<line x1="61.2" y1="44.8" x2="67.8" y2="51.6" stroke="#0a0a0a" stroke-width="0.9" stroke-opacity="0.6"/>
<line x1="54.9" y1="51.0" x2="61.4" y2="57.8" stroke="#0a0a0a" stroke-width="0.9" stroke-opacity="0.6"/>
<circle cx="90.0" cy="23.6" r="5.3" fill="#c8960c"/>
</g>
<g id="components">
<circle cx="26.6" cy="112.2" r="10.6" fill="#0f1114" stroke="#3a3a3a" stroke-width="1.2"/><circle cx="26.6" cy="112.2" r="5.9" fill="none" stroke="#d4001a" stroke-width="0.7" opacity="0.5"/>
<circle cx="62.0" cy="112.2" r="8.9" fill="#0f1114" stroke="#c8960c" stroke-width="1.3"/><line x1="62.0" y1="109.5" x2="62.0" y2="105.1" stroke="#d4001a" stroke-width="1.2" stroke-linecap="round"/>
<circle cx="115.2" cy="112.2" r="8.9" fill="#0f1114" stroke="#c8960c" stroke-width="1.3"/><line x1="115.2" y1="109.5" x2="115.2" y2="105.1" stroke="#d4001a" stroke-width="1.2" stroke-linecap="round"/>
<circle cx="150.6" cy="112.2" r="10.6" fill="#0f1114" stroke="#3a3a3a" stroke-width="1.2"/><circle cx="150.6" cy="112.2" r="5.9" fill="none" stroke="#d4001a" stroke-width="0.7" opacity="0.5"/>
<circle cx="26.6" cy="147.6" r="10.6" fill="#0f1114" stroke="#3a3a3a" stroke-width="1.2"/><circle cx="26.6" cy="147.6" r="5.9" fill="none" stroke="#d4001a" stroke-width="0.7" opacity="0.5"/>
<circle cx="62.0" cy="147.6" r="8.9" fill="#0f1114" stroke="#c8960c" stroke-width="1.3"/><line x1="62.0" y1="145.0" x2="62.0" y2="140.6" stroke="#d4001a" stroke-width="1.2" stroke-linecap="round"/>
<circle cx="115.2" cy="147.6" r="8.9" fill="#0f1114" stroke="#c8960c" stroke-width="1.3"/><line x1="115.2" y1="145.0" x2="115.2" y2="140.6" stroke="#d4001a" stroke-width="1.2" stroke-linecap="round"/>
<circle cx="150.6" cy="147.6" r="10.6" fill="#0f1114" stroke="#3a3a3a" stroke-width="1.2"/><circle cx="150.6" cy="147.6" r="5.9" fill="none" stroke="#d4001a" stroke-width="0.7" opacity="0.5"/>
<circle cx="47.2" cy="194.9" r="10.6" fill="#0f1114" stroke="#3a3a3a" stroke-width="1.2"/><circle cx="47.2" cy="194.9" r="5.9" fill="none" stroke="#d4001a" stroke-width="0.7" opacity="0.5"/>
<circle cx="129.9" cy="194.9" r="10.6" fill="#0f1114" stroke="#3a3a3a" stroke-width="1.2"/><circle cx="129.9" cy="194.9" r="5.9" fill="none" stroke="#d4001a" stroke-width="0.7" opacity="0.5"/>
<circle cx="47.2" cy="230.3" r="10.6" fill="#0f1114" stroke="#3a3a3a" stroke-width="1.2"/><circle cx="47.2" cy="230.3" r="5.9" fill="none" stroke="#d4001a" stroke-width="0.7" opacity="0.5"/>
<circle cx="129.9" cy="230.3" r="10.6" fill="#0f1114" stroke="#3a3a3a" stroke-width="1.2"/><circle cx="129.9" cy="230.3" r="5.9" fill="none" stroke="#d4001a" stroke-width="0.7" opacity="0.5"/>
<circle cx="47.2" cy="265.7" r="10.6" fill="#0f1114" stroke="#3a3a3a" stroke-width="1.2"/><circle cx="47.2" cy="265.7" r="5.9" fill="none" stroke="#d4001a" stroke-width="0.7" opacity="0.5"/>
<circle cx="129.9" cy="265.7" r="10.6" fill="#0f1114" stroke="#3a3a3a" stroke-width="1.2"/><circle cx="129.9" cy="265.7" r="5.9" fill="none" stroke="#d4001a" stroke-width="0.7" opacity="0.5"/>
<circle cx="47.2" cy="301.2" r="10.6" fill="#0f1114" stroke="#3a3a3a" stroke-width="1.2"/><circle cx="47.2" cy="301.2" r="5.9" fill="none" stroke="#d4001a" stroke-width="0.7" opacity="0.5"/>
<circle cx="129.9" cy="301.2" r="10.6" fill="#0f1114" stroke="#3a3a3a" stroke-width="1.2"/><circle cx="129.9" cy="301.2" r="5.9" fill="none" stroke="#d4001a" stroke-width="0.7" opacity="0.5"/>
<circle cx="47.2" cy="336.6" r="10.6" fill="#0f1114" stroke="#3a3a3a" stroke-width="1.2"/><circle cx="47.2" cy="336.6" r="5.9" fill="none" stroke="#d4001a" stroke-width="0.7" opacity="0.5"/>
<circle cx="129.9" cy="336.6" r="10.6" fill="#0f1114" stroke="#3a3a3a" stroke-width="1.2"/><circle cx="129.9" cy="336.6" r="5.9" fill="none" stroke="#d4001a" stroke-width="0.7" opacity="0.5"/>
</g>
</svg>