<svg xmlns="http://www.w3.org/2000/svg" width="180" height="380" viewBox="0 0 180 380">
<rect width="180" height="380" fill="#18181a"/>
<rect x="0" y="0" width="180" height="3" fill="#d4001a"/>
<rect x="0" y="377" width="180" height="3" fill="#d4001a"/>
<rect x="8.9" y="100.4" width="76.8" height="259.8" rx="5.9" fill="none" stroke="#3a3a3e" stroke-width="1.0" stroke-opacity="0.8"/>
<rect x="91.5" y="100.4" width="76.8" height="259.8" rx="5.9" fill="none" stroke="#3a3a3e" stroke-width="1.0" stroke-opacity="0.8"/>
<rect x="38.4" y="98.6" width="17.7" height="3.5" fill="#d4001a" opacity="0.7"/>
<rect x="121.1" y="98.6" width="17.7" height="3.5" fill="#dc2626" opacity="0.7"/>
<g>
<path d="M 89.8 53.7 L 104.5 33.4 L 140.4 59.5 L 125.6 79.8 Z" fill="#d4001a" fill-opacity="0.87" stroke="#18181a" stroke-width="0.8"/>
<line x1="102.8" y1="61.0" x2="115.4" y2="43.6" stroke="#18181a" stroke-width="0.7" stroke-dasharray="1.5,1.5"/>
<line x1="115.9" y1="63.0" x2="121.4" y2="55.4" stroke="#18181a" stroke-width="0.9" stroke-opacity="0.6"/>
<line x1="123.1" y1="68.2" x2="128.6" y2="60.6" stroke="#18181a" stroke-width="0.9" stroke-opacity="0.6"/>
<path d="M 85.1 52.9 L 105.4 38.2 L 131.4 74.0 L 111.1 88.8 Z" fill="#d4001a" fill-opacity="0.84" stroke="#18181a" stroke-width="0.8"/>
<line x1="95.2" y1="63.8" x2="112.6" y2="51.2" stroke="#18181a" stroke-width="0.7" stroke-dasharray="1.5,1.5"/>
<line x1="107.0" y1="69.8" x2="114.6" y2="64.3" stroke="#18181a" stroke-width="0.9" stroke-opacity="0.6"/>
<line x1="112.2" y1="77.0" x2="119.9" y2="71.4" stroke="#18181a" stroke-width="0.9" stroke-opacity="0.6"/>
<path d="M 80.8 50.7 L 104.7 42.9 L 118.4 85.1 L 94.5 92.8 Z" fill="#d4001a" fill-opacity="0.81" stroke="#18181a" stroke-width="0.8"/>
<line x1="87.0" y1="64.2" x2="107.5" y2="57.5" stroke="#18181a" stroke-width="0.7" stroke-dasharray="1.5,1.5"/>
<line x1="96.5" y1="73.5" x2="105.4" y2="70.6" stroke="#18181a" stroke-width="0.9" stroke-opacity="0.6"/>
<line x1="99.2" y1="82.0" x2="108.2" y2="79.0" stroke="#18181a" stroke-width="0.9" stroke-opacity="0.6"/>
<path d="M 77.5 47.2 L 102.5 47.2 L 102.5 91.5 L 77.5 91.5 Z" fill="#d4001a" fill-opacity="0.78" stroke="#18181a" stroke-width="0.8"/>
<line x1="79.2" y1="62.0" x2="100.8" y2="62.0" stroke="#18181a" stroke-width="0.7" stroke-dasharray="1.5,1.5"/>
<line x1="85.3" y1="73.8" x2="94.7" y2="73.8" stroke="#18181a" stroke-width="0.9" stroke-opacity="0.6"/>
<line x1="85.3" y1="82.7" x2="94.7" y2="82.7" stroke="#18181a" stroke-width="0.9" stroke-opacity="0.6"/>
<path d="M 75.3 42.9 L 99.2 50.7 L 85.5 92.8 L 61.6 85.1 Z" fill="#d4001a" fill-opacity="0.81" stroke="#18181a" stroke-width="0.8"/>
<line x1="72.5" y1="57.5" x2="93.0" y2="64.2" stroke="#18181a" stroke-width="0.7" stroke-dasharray="1.5,1.5"/>
<line x1="74.6" y1="70.6" x2="83.5" y2="73.5" stroke="#18181a" stroke-width="0.9" stroke-opacity="0.6"/>
<line x1="71.8" y1="79.0" x2="80.8" y2="82.0" stroke="#18181a" stroke-width="0.9" stroke-opacity="0.6"/>
<path d="M 74.6 38.2 L 94.9 52.9 L 68.9 88.8 L 48.6 74.0 Z" fill="#d4001a" fill-opacity="0.84" stroke="#18181a" stroke-width="0.8"/>
<line x1="67.4" y1="51.2" x2="84.8" y2="63.8" stroke="#18181a" stroke-width="0.7" stroke-dasharray="1.5,1.5"/>
<line x1="65.4" y1="64.3" x2="73.0" y2="69.8" stroke="#18181a" stroke-width="0.9" stroke-opacity="0.6"/>
<line x1="60.1" y1="71.4" x2="67.8" y2="77.0" stroke="#18181a" stroke-width="0.9" stroke-opacity="0.6"/>
<path d="M 75.5 33.4 L 90.2 53.7 L 54.4 79.8 L 39.6 59.5 Z" fill="#d4001a" fill-opacity="0.87" stroke="#18181a" stroke-width="0.8"/>
<line x1="64.6" y1="43.6" x2="77.2" y2="61.0" stroke="#18181a" stroke-width="0.7" stroke-dasharray="1.5,1.5"/>
<line x1="58.6" y1="55.4" x2="64.1" y2="63.0" stroke="#18181a" stroke-width="0.9" stroke-opacity="0.6"/>
<line x1="51.4" y1="60.6" x2="56.9" y2="68.2" stroke="#18181a" stroke-width="0.9" stroke-opacity="0.6"/>
<circle cx="90.0" cy="38.4" r="5.3" fill="#c8960c"/>
</g>
<g id="components">
<circle id="input_RAFFLES_SLEW_R_CV" cx="26.6" cy="129.9" r="10.6" fill="#0f1012" stroke="#46464c" stroke-width="1.2"/><circle cx="26.6" cy="129.9" r="5.9" fill="none" stroke="#d4001a" stroke-width="0.7" opacity="0.5"/>
<circle id="param_RAFFLES_SLEW_R_ATT" cx="62.0" cy="129.9" r="8.9" fill="#0f1012" stroke="#c8960c" stroke-width="1.3"/><line x1="62.0" y1="127.3" x2="62.0" y2="122.8" stroke="#d4001a" stroke-width="1.2" stroke-linecap="round"/>
<circle id="param_RAFFLES_SLEW_M_ATT" cx="115.2" cy="129.9" r="8.9" fill="#0f1012" stroke="#c8960c" stroke-width="1.3"/><line x1="115.2" y1="127.3" x2="115.2" y2="122.8" stroke="#d4001a" stroke-width="1.2" stroke-linecap="round"/>
<circle id="input_RAFFLES_SLEW_M_CV" cx="150.6" cy="129.9" r="10.6" fill="#0f1012" stroke="#46464c" stroke-width="1.2"/><circle cx="150.6" cy="129.9" r="5.9" fill="none" stroke="#d4001a" stroke-width="0.7" opacity="0.5"/>
<circle id="input_RAFFLES_MIX_R_CV" cx="26.6" cy="165.4" r="10.6" fill="#0f1012" stroke="#46464c" stroke-width="1.2"/><circle cx="26.6" cy="165.4" r="5.9" fill="none" stroke="#d4001a" stroke-width="0.7" opacity="0.5"/>
<circle id="param_RAFFLES_MIX_R_ATT" cx="62.0" cy="165.4" r="8.9" fill="#0f1012" stroke="#c8960c" stroke-width="1.3"/><line x1="62.0" y1="162.7" x2="62.0" y2="158.3" stroke="#d4001a" stroke-width="1.2" stroke-linecap="round"/>
<circle id="param_RAFFLES_MIX_M_ATT" cx="115.2" cy="165.4" r="8.9" fill="#0f1012" stroke="#c8960c" stroke-width="1.3"/><line x1="115.2" y1="162.7" x2="115.2" y2="158.3" stroke="#d4001a" stroke-width="1.2" stroke-linecap="round"/>
<circle id="input_RAFFLES_MIX_M_CV" cx="150.6" cy="165.4" r="10.6" fill="#0f1012" stroke="#46464c" stroke-width="1.2"/><circle cx="150.6" cy="165.4" r="5.9" fill="none" stroke="#d4001a" stroke-width="0.7" opacity="0.5"/>
<circle id="input_RAFFLES_GATE_TRIAL_R" cx="32.5" cy="200.8" r="10.6" fill="#0f1012" stroke="#46464c" stroke-width="1.2"/><circle cx="32.5" cy="200.8" r="5.9" fill="none" stroke="#d4001a" stroke-width="0.7" opacity="0.5"/>
<circle id="input_RAFFLES_GATE_TRIAL_M" cx="144.7" cy="200.8" r="10.6" fill="#0f1012" stroke="#46464c" stroke-width="1.2"/><circle cx="144.7" cy="200.8" r="5.9" fill="none" stroke="#d4001a" stroke-width="0.7" opacity="0.5"/>
<circle id="input_RAFFLES_GATE_REDICE_R" cx="32.5" cy="236.2" r="10.6" fill="#0f1012" stroke="#46464c" stroke-width="1.2"/><circle cx="32.5" cy="236.2" r="5.9" fill="none" stroke="#d4001a" stroke-width="0.7" opacity="0.5"/>
<circle id="input_RAFFLES_GATE_REDICE_M" cx="144.7" cy="236.2" r="10.6" fill="#0f1012" stroke="#46464c" stroke-width="1.2"/><circle cx="144.7" cy="236.2" r="5.9" fill="none" stroke="#d4001a" stroke-width="0.7" opacity="0.5"/>
<circle id="input_RAFFLES_GATE_LASTTRIAL_R" cx="65.0" cy="200.8" r="10.6" fill="#0f1012" stroke="#46464c" stroke-width="1.2"/><circle cx="65.0" cy="200.8" r="5.9" fill="none" stroke="#d4001a" stroke-width="0.7" opacity="0.5"/>
<circle id="input_RAFFLES_GATE_LASTTRIAL_M" cx="112.2" cy="200.8" r="10.6" fill="#0f1012" stroke="#46464c" stroke-width="1.2"/><circle cx="112.2" cy="200.8" r="5.9" fill="none" stroke="#d4001a" stroke-width="0.7" opacity="0.5"/>
<circle id="input_RAFFLES_GATE_LASTDICE_R" cx="65.0" cy="236.2" r="10.6" fill="#0f1012" stroke="#46464c" stroke-width="1.2"/><circle cx="65.0" cy="236.2" r="5.9" fill="none" stroke="#d4001a" stroke-width="0.7" opacity="0.5"/>
<circle id="input_RAFFLES_GATE_LASTDICE_M" cx="112.2" cy="236.2" r="10.6" fill="#0f1012" stroke="#46464c" stroke-width="1.2"/><circle cx="112.2" cy="236.2" r="5.9" fill="none" stroke="#d4001a" stroke-width="0.7" opacity="0.5"/>
<circle id="input_RAFFLES_GATE_LIVESRC_R" cx="47.2" cy="271.7" r="10.6" fill="#0f1012" stroke="#46464c" stroke-width="1.2"/><circle cx="47.2" cy="271.7" r="5.9" fill="none" stroke="#d4001a" stroke-width="0.7" opacity="0.5"/>
<circle id="input_RAFFLES_GATE_LIVESRC_M" cx="129.9" cy="271.7" r="10.6" fill="#0f1012" stroke="#46464c" stroke-width="1.2"/><circle cx="129.9" cy="271.7" r="5.9" fill="none" stroke="#d4001a" stroke-width="0.7" opacity="0.5"/>
<circle id="input_RAFFLES_GATE_LIVESTATIC_R" cx="47.2" cy="307.1" r="10.6" fill="#0f1012" stroke="#46464c" stroke-width="1.2"/><circle cx="47.2" cy="307.1" r="5.9" fill="none" stroke="#d4001a" stroke-width="0.7" opacity="0.5"/>
<circle id="input_RAFFLES_GATE_LIVESTATIC_M" cx="129.9" cy="307.1" r="10.6" fill="#0f1012" stroke="#46464c" stroke-width="1.2"/><circle cx="129.9" cy="307.1" r="5.9" fill="none" stroke="#d4001a" stroke-width="0.7" opacity="0.5"/>
<circle id="input_RAFFLES_GATE_RESEED_ROLL" cx="47.2" cy="342.5" r="10.6" fill="#0f1012" stroke="#46464c" stroke-width="1.2"/><circle cx="47.2" cy="342.5" r="5.9" fill="none" stroke="#d4001a" stroke-width="0.7" opacity="0.5"/>
<circle id="input_RAFFLES_GATE_RESEED_RESTART" cx="129.9" cy="342.5" r="10.6" fill="#0f1012" stroke="#46464c" stroke-width="1.2"/><circle cx="129.9" cy="342.5" r="5.9" fill="none" stroke="#d4001a" stroke-width="0.7" opacity="0.5"/>
<circle id="light_connect" cx="90.0" cy="366.1" r="0.5" fill="#000000" fill-opacity="0"/>
</g>
</svg>