<svg xmlns="http://www.w3.org/2000/svg" width="180" height="380" viewBox="0 0 180 380">
<rect width="180" height="380" fill="#dcdcdc"/>
<rect x="0" y="0" width="180" height="3" fill="#d4001a"/>
<rect x="0" y="377" width="180" height="3" fill="#d4001a"/>
<circle cx="17.7" cy="26.6" r="7.1" fill="#d4001a"/>
<line x1="5.9" y1="44.3" x2="174.1" y2="44.3" stroke="#bcbcbc" stroke-width="0.8" stroke-opacity="0.6"/>
<rect x="5.9" y="106.3" width="82.7" height="248.0" fill="#d4001a" fill-opacity="0.05"/>
<rect x="90.1" y="106.3" width="82.7" height="248.0" fill="#d4001a" fill-opacity="0.05"/>
<line x1="90.0" y1="106.3" x2="90.0" y2="354.3" stroke="#bcbcbc" stroke-width="0.8" stroke-opacity="0.5"/>
<g>
<path d="M 89.8 65.6 L 104.5 45.3 L 140.4 71.3 L 125.6 91.6 Z" fill="#d4001a" fill-opacity="0.87" stroke="#dcdcdc" stroke-width="0.8"/>
<line x1="102.8" y1="72.8" x2="115.4" y2="55.4" stroke="#dcdcdc" stroke-width="0.7" stroke-dasharray="1.5,1.5"/>
<line x1="115.9" y1="74.8" x2="121.4" y2="67.2" stroke="#dcdcdc" stroke-width="0.9" stroke-opacity="0.6"/>
<line x1="123.1" y1="80.1" x2="128.6" y2="72.4" stroke="#dcdcdc" stroke-width="0.9" stroke-opacity="0.6"/>
<path d="M 85.1 64.7 L 105.4 50.0 L 131.4 85.8 L 111.1 100.6 Z" fill="#d4001a" fill-opacity="0.84" stroke="#dcdcdc" stroke-width="0.8"/>
<line x1="95.2" y1="75.6" x2="112.6" y2="63.0" stroke="#dcdcdc" stroke-width="0.7" stroke-dasharray="1.5,1.5"/>
<line x1="107.0" y1="81.6" x2="114.6" y2="76.1" stroke="#dcdcdc" stroke-width="0.9" stroke-opacity="0.6"/>
<line x1="112.2" y1="88.8" x2="119.9" y2="83.3" stroke="#dcdcdc" stroke-width="0.9" stroke-opacity="0.6"/>
<path d="M 80.8 62.5 L 104.7 54.7 L 118.4 96.9 L 94.5 104.6 Z" fill="#d4001a" fill-opacity="0.81" stroke="#dcdcdc" stroke-width="0.8"/>
<line x1="87.0" y1="76.0" x2="107.5" y2="69.3" stroke="#dcdcdc" stroke-width="0.7" stroke-dasharray="1.5,1.5"/>
<line x1="96.5" y1="85.4" x2="105.4" y2="82.4" stroke="#dcdcdc" stroke-width="0.9" stroke-opacity="0.6"/>
<line x1="99.2" y1="93.8" x2="108.2" y2="90.9" stroke="#dcdcdc" stroke-width="0.9" stroke-opacity="0.6"/>
<path d="M 77.5 59.1 L 102.5 59.1 L 102.5 103.3 L 77.5 103.3 Z" fill="#d4001a" fill-opacity="0.78" stroke="#dcdcdc" stroke-width="0.8"/>
<line x1="79.2" y1="73.8" x2="100.8" y2="73.8" stroke="#dcdcdc" stroke-width="0.7" stroke-dasharray="1.5,1.5"/>
<line x1="85.3" y1="85.6" x2="94.7" y2="85.6" stroke="#dcdcdc" stroke-width="0.9" stroke-opacity="0.6"/>
<line x1="85.3" y1="94.5" x2="94.7" y2="94.5" stroke="#dcdcdc" stroke-width="0.9" stroke-opacity="0.6"/>
<path d="M 75.3 54.7 L 99.2 62.5 L 85.5 104.6 L 61.6 96.9 Z" fill="#d4001a" fill-opacity="0.81" stroke="#dcdcdc" stroke-width="0.8"/>
<line x1="72.5" y1="69.3" x2="93.0" y2="76.0" stroke="#dcdcdc" stroke-width="0.7" stroke-dasharray="1.5,1.5"/>
<line x1="74.6" y1="82.4" x2="83.5" y2="85.4" stroke="#dcdcdc" stroke-width="0.9" stroke-opacity="0.6"/>
<line x1="71.8" y1="90.9" x2="80.8" y2="93.8" stroke="#dcdcdc" stroke-width="0.9" stroke-opacity="0.6"/>
<path d="M 74.6 50.0 L 94.9 64.7 L 68.9 100.6 L 48.6 85.8 Z" fill="#d4001a" fill-opacity="0.84" stroke="#dcdcdc" stroke-width="0.8"/>
<line x1="67.4" y1="63.0" x2="84.8" y2="75.6" stroke="#dcdcdc" stroke-width="0.7" stroke-dasharray="1.5,1.5"/>
<line x1="65.4" y1="76.1" x2="73.0" y2="81.6" stroke="#dcdcdc" stroke-width="0.9" stroke-opacity="0.6"/>
<line x1="60.1" y1="83.3" x2="67.8" y2="88.8" stroke="#dcdcdc" stroke-width="0.9" stroke-opacity="0.6"/>
<path d="M 75.5 45.3 L 90.2 65.6 L 54.4 91.6 L 39.6 71.3 Z" fill="#d4001a" fill-opacity="0.87" stroke="#dcdcdc" stroke-width="0.8"/>
<line x1="64.6" y1="55.4" x2="77.2" y2="72.8" stroke="#dcdcdc" stroke-width="0.7" stroke-dasharray="1.5,1.5"/>
<line x1="58.6" y1="67.2" x2="64.1" y2="74.8" stroke="#dcdcdc" stroke-width="0.9" stroke-opacity="0.6"/>
<line x1="51.4" y1="72.4" x2="56.9" y2="80.1" stroke="#dcdcdc" stroke-width="0.9" stroke-opacity="0.6"/>
<circle cx="90.0" cy="50.2" r="5.3" fill="#b07d00"/>
</g>
<g id="components">
<circle cx="26.6" cy="112.2" r="10.6" fill="#e8e2d6" stroke="#c0b8a8" stroke-width="1.2"/><circle cx="26.6" cy="112.2" r="5.9" fill="none" stroke="#d4001a" stroke-width="0.7" opacity="0.5"/>
<circle cx="62.0" cy="112.2" r="8.9" fill="#e8e2d6" stroke="#b07d00" stroke-width="1.3"/><line x1="62.0" y1="109.5" x2="62.0" y2="105.1" stroke="#d4001a" stroke-width="1.2" stroke-linecap="round"/>
<circle cx="115.2" cy="112.2" r="8.9" fill="#e8e2d6" stroke="#b07d00" stroke-width="1.3"/><line x1="115.2" y1="109.5" x2="115.2" y2="105.1" stroke="#d4001a" stroke-width="1.2" stroke-linecap="round"/>
<circle cx="150.6" cy="112.2" r="10.6" fill="#e8e2d6" stroke="#c0b8a8" stroke-width="1.2"/><circle cx="150.6" cy="112.2" r="5.9" fill="none" stroke="#d4001a" stroke-width="0.7" opacity="0.5"/>
<circle cx="26.6" cy="147.6" r="10.6" fill="#e8e2d6" stroke="#c0b8a8" stroke-width="1.2"/><circle cx="26.6" cy="147.6" r="5.9" fill="none" stroke="#d4001a" stroke-width="0.7" opacity="0.5"/>
<circle cx="62.0" cy="147.6" r="8.9" fill="#e8e2d6" stroke="#b07d00" stroke-width="1.3"/><line x1="62.0" y1="145.0" x2="62.0" y2="140.6" stroke="#d4001a" stroke-width="1.2" stroke-linecap="round"/>
<circle cx="115.2" cy="147.6" r="8.9" fill="#e8e2d6" stroke="#b07d00" stroke-width="1.3"/><line x1="115.2" y1="145.0" x2="115.2" y2="140.6" stroke="#d4001a" stroke-width="1.2" stroke-linecap="round"/>
<circle cx="150.6" cy="147.6" r="10.6" fill="#e8e2d6" stroke="#c0b8a8" stroke-width="1.2"/><circle cx="150.6" cy="147.6" r="5.9" fill="none" stroke="#d4001a" stroke-width="0.7" opacity="0.5"/>
<circle cx="47.2" cy="194.9" r="10.6" fill="#e8e2d6" stroke="#c0b8a8" stroke-width="1.2"/><circle cx="47.2" cy="194.9" r="5.9" fill="none" stroke="#d4001a" stroke-width="0.7" opacity="0.5"/>
<circle cx="129.9" cy="194.9" r="10.6" fill="#e8e2d6" stroke="#c0b8a8" stroke-width="1.2"/><circle cx="129.9" cy="194.9" r="5.9" fill="none" stroke="#d4001a" stroke-width="0.7" opacity="0.5"/>
<circle cx="47.2" cy="230.3" r="10.6" fill="#e8e2d6" stroke="#c0b8a8" stroke-width="1.2"/><circle cx="47.2" cy="230.3" r="5.9" fill="none" stroke="#d4001a" stroke-width="0.7" opacity="0.5"/>
<circle cx="129.9" cy="230.3" r="10.6" fill="#e8e2d6" stroke="#c0b8a8" stroke-width="1.2"/><circle cx="129.9" cy="230.3" r="5.9" fill="none" stroke="#d4001a" stroke-width="0.7" opacity="0.5"/>
<circle cx="47.2" cy="265.7" r="10.6" fill="#e8e2d6" stroke="#c0b8a8" stroke-width="1.2"/><circle cx="47.2" cy="265.7" r="5.9" fill="none" stroke="#d4001a" stroke-width="0.7" opacity="0.5"/>
<circle cx="129.9" cy="265.7" r="10.6" fill="#e8e2d6" stroke="#c0b8a8" stroke-width="1.2"/><circle cx="129.9" cy="265.7" r="5.9" fill="none" stroke="#d4001a" stroke-width="0.7" opacity="0.5"/>
<circle cx="47.2" cy="301.2" r="10.6" fill="#e8e2d6" stroke="#c0b8a8" stroke-width="1.2"/><circle cx="47.2" cy="301.2" r="5.9" fill="none" stroke="#d4001a" stroke-width="0.7" opacity="0.5"/>
<circle cx="129.9" cy="301.2" r="10.6" fill="#e8e2d6" stroke="#c0b8a8" stroke-width="1.2"/><circle cx="129.9" cy="301.2" r="5.9" fill="none" stroke="#d4001a" stroke-width="0.7" opacity="0.5"/>
<circle cx="47.2" cy="336.6" r="10.6" fill="#e8e2d6" stroke="#c0b8a8" stroke-width="1.2"/><circle cx="47.2" cy="336.6" r="5.9" fill="none" stroke="#d4001a" stroke-width="0.7" opacity="0.5"/>
<circle cx="129.9" cy="336.6" r="10.6" fill="#e8e2d6" stroke="#c0b8a8" stroke-width="1.2"/><circle cx="129.9" cy="336.6" r="5.9" fill="none" stroke="#d4001a" stroke-width="0.7" opacity="0.5"/>
</g>
</svg>