<svg xmlns="http://www.w3.org/2000/svg" width="460.8" height="485.67" viewBox="0 0 460.8 485.67">
  <defs>
    <pattern id="grain" x="0" y="0" width="460.8" height="2" patternUnits="userSpaceOnUse"><rect width="460.8" height="2" fill="#141416"/><rect y="1" width="460.8" height="0.6" fill="#1e2228" opacity="0.30"/></pattern>
    <linearGradient id="mbsG" x1="0" y1="0" x2="0" y2="1"><stop offset="0%"   stop-color="#1e2535" stop-opacity="0.0"/><stop offset="45%"  stop-color="#1e2535" stop-opacity="0.55"/><stop offset="100%" stop-color="#1e2535" stop-opacity="0.80"/></linearGradient>
  </defs>
  <rect width="460.8" height="485.67" fill="url(#grain)"/>
  <rect x="0" y="0" width="6.8" height="485.67" fill="#d4af37" opacity="0.85"/>
  <rect x="0" y="0" width="460.8" height="52.9" fill="#0e1018" opacity="0.90"/>
  <text x="230.4" y="22.7" font-size="14.4" font-family="monospace" text-anchor="middle" fill="#e4e4e7" font-weight="bold">SANDS MONO</text>
  <text x="230.4" y="41.6" font-size="10.6" font-family="monospace" text-anchor="middle" fill="#555">Voice 1 · 6 lanes</text>
  <line x1="7.6" y1="52.9" x2="453.2" y2="52.9" stroke="#d4af37" stroke-width="0.8" opacity="0.60"/>
  <!-- Bottom margin: MBS silhouette -->
  <line x1="0" y1="466.6" x2="460.8" y2="466.6" stroke="#d4af37" stroke-width="0.6" opacity="0.30"/>
  <g fill="url(#mbsG)" stroke="none">
    <polygon points="86.6,428.1 152.3,428.1 155.9,464.6 82.9,464.6"/>
    <polygon points="216.0,428.1 281.7,428.1 285.3,464.6 212.3,464.6"/>
    <polygon points="345.4,428.1 411.1,428.1 414.7,464.6 341.7,464.6"/>
    <polygon points="79.9,428.1 417.7,428.1 419.7,426.1 77.9,426.1"/>
  </g>
  <g fill="none" stroke="#dc2626" stroke-width="0.3" opacity="0.20">
    <polygon points="86.6,428.1 152.3,428.1 155.9,464.6 82.9,464.6"/>
    <line x1="83.9" y1="446.4" x2="154.9" y2="446.4"/>
    <polygon points="216.0,428.1 281.7,428.1 285.3,464.6 212.3,464.6"/>
    <line x1="213.3" y1="446.4" x2="284.3" y2="446.4"/>
    <polygon points="345.4,428.1 411.1,428.1 414.7,464.6 341.7,464.6"/>
    <line x1="342.7" y1="446.4" x2="413.7" y2="446.4"/>
    <polygon points="79.9,428.1 417.7,428.1 419.7,426.1 77.9,426.1"/>
  </g>
  <line x1="119.4" y1="428.1" x2="119.4" y2="422.1" stroke="#dc2626" stroke-width="0.5" opacity="0.40"/>
  <circle cx="119.4" cy="421.1" r="1.2" fill="#dc2626" opacity="0.40"/>
  <line x1="228.9" y1="428.1" x2="228.9" y2="422.1" stroke="#dc2626" stroke-width="0.5" opacity="0.40"/>
  <circle cx="228.9" cy="421.1" r="1.2" fill="#dc2626" opacity="0.40"/>
  <line x1="341.7" y1="428.1" x2="341.7" y2="422.1" stroke="#dc2626" stroke-width="0.5" opacity="0.40"/>
  <circle cx="341.7" cy="421.1" r="1.2" fill="#dc2626" opacity="0.40"/>
  <g fill="none" stroke="#1a3c58">
    <path d="M0.0,468.6 L11.5,470.4 L23.0,471.1 L34.6,470.3 L46.1,468.4 L57.6,466.7 L69.1,466.1 L80.6,467.1 L92.2,469.0 L103.7,470.7 L115.2,471.1 L126.7,470.0 L138.2,468.0 L149.8,466.5 L161.3,466.2 L172.8,467.4 L184.3,469.4 L195.8,470.8 L207.4,471.0 L218.9,469.6 L230.4,467.7 L241.9,466.3 L253.4,466.3 L265.0,467.7 L276.5,469.7 L288.0,471.0 L299.5,470.8 L311.0,469.3 L322.6,467.4 L334.1,466.2 L345.6,466.5 L357.1,468.1 L368.6,470.0 L380.2,471.1 L391.7,470.6 L403.2,468.9 L414.7,467.0 L426.2,466.1 L437.8,466.7 L449.3,468.5 L460.8,470.3" stroke-width="0.5" opacity="0.4"/>
    <path d="M0.0,474.0 L11.5,474.3 L23.0,472.9 L34.6,471.2 L46.1,470.9 L57.6,472.2 L69.1,473.9 L80.6,474.3 L92.2,473.1 L103.7,471.3 L115.2,470.9 L126.7,472.1 L138.2,473.8 L149.8,474.4 L161.3,473.2 L172.8,471.4 L184.3,470.8 L195.8,472.0 L207.4,473.7 L218.9,474.4 L230.4,473.3 L241.9,471.6 L253.4,470.8 L265.0,471.8 L276.5,473.6 L288.0,474.4 L299.5,473.5 L311.0,471.7 L322.6,470.8 L334.1,471.7 L345.6,473.5 L357.1,474.4 L368.6,473.6 L380.2,471.8 L391.7,470.8 L403.2,471.6 L414.7,473.4 L426.2,474.4 L437.8,473.7 L449.3,471.9 L460.8,470.8" stroke-width="0.4" opacity="0.3"/>
    <path d="M0.0,479.5 L11.5,478.5 L23.0,476.7 L34.6,474.8 L46.1,473.7 L57.6,473.8 L69.1,475.1 L80.6,477.0 L92.2,478.7 L103.7,479.6 L115.2,479.2 L126.7,477.7 L138.2,475.8 L149.8,474.2 L161.3,473.6 L172.8,474.3 L184.3,475.9 L195.8,477.8 L207.4,479.3 L218.9,479.6 L230.4,478.7 L241.9,476.9 L253.4,475.0 L265.0,473.8 L276.5,473.8 L288.0,474.9 L299.5,476.8 L311.0,478.6 L322.6,479.6 L334.1,479.3 L345.6,477.9 L357.1,476.0 L368.6,474.3 L380.2,473.6 L391.7,474.2 L403.2,475.7 L414.7,477.7 L426.2,479.2 L437.8,479.6 L449.3,478.8 L460.8,477.1" stroke-width="0.4" opacity="0.22"/>
    <path d="M0.0,481.2 L11.5,482.1 L23.0,481.1 L34.6,479.5 L46.1,479.3 L57.6,480.8 L69.1,482.1 L80.6,481.4 L92.2,479.7 L103.7,479.2 L115.2,480.5 L126.7,481.9 L138.2,481.7 L149.8,480.1 L161.3,479.1 L172.8,480.1 L184.3,481.7 L195.8,481.9 L207.4,480.4 L218.9,479.2 L230.4,479.8 L241.9,481.5 L253.4,482.1 L265.0,480.8 L276.5,479.3 L288.0,479.5 L299.5,481.1 L311.0,482.1 L322.6,481.2 L334.1,479.5 L345.6,479.3 L357.1,480.8 L368.6,482.1 L380.2,481.5 L391.7,479.8 L403.2,479.1 L414.7,480.4 L426.2,481.9 L437.8,481.8 L449.3,480.1 L460.8,479.1" stroke-width="0.3" opacity="0.16"/>
  </g>
  <circle cx="445.7" cy="15.1" r="9.4" fill="#dc2626"/>
</svg>