<svg xmlns="http://www.w3.org/2000/svg" xmlns:inkscape="http://www.inkscape.org/namespaces/inkscape" width="600.0" height="379.43" viewBox="0 0 600.0 379.43">
<g inkscape:label="artwork" inkscape:groupmode="layer">
<rect width="600.0" height="379.43" fill="#1a1d22"/>
<line x1="0" y1="29.5" x2="600.0" y2="29.5" stroke="#dc2626" stroke-width="1" opacity="0.4"/>
<rect x="168.3" y="43.8" width="67.9" height="133.9" rx="4.4" fill="#26a69a" opacity="0.06"/>
<rect x="259.8" y="47.2" width="328.4" height="271.6" rx="4.4" fill="#101216" stroke="#2a3038" stroke-width="1"/>
</g>
<g inkscape:label="control-graphics" inkscape:groupmode="layer">
<circle cx="17.7" cy="64.5" r="11.5" fill="#0e1013" stroke="#4a5058" stroke-width="1"/>
<circle cx="17.7" cy="64.5" r="5.0" fill="#101216"/>
<circle cx="100.4" cy="64.5" r="9.4" fill="#15181c" stroke="#3a4048" stroke-width="1"/>
<circle cx="44.3" cy="64.5" r="11.5" fill="#0e1013" stroke="#4a5058" stroke-width="1"/>
<circle cx="44.3" cy="64.5" r="5.0" fill="#101216"/>
<circle cx="127.0" cy="64.5" r="9.4" fill="#15181c" stroke="#3a4048" stroke-width="1"/>
<circle cx="70.9" cy="64.5" r="11.5" fill="#0e1013" stroke="#4a5058" stroke-width="1"/>
<circle cx="70.9" cy="64.5" r="5.0" fill="#101216"/>
<circle cx="153.5" cy="64.5" r="9.4" fill="#15181c" stroke="#3a4048" stroke-width="1"/>
<circle cx="17.7" cy="110.7" r="11.5" fill="#0e1013" stroke="#4a5058" stroke-width="1"/>
<circle cx="17.7" cy="110.7" r="5.0" fill="#101216"/>
<circle cx="100.4" cy="110.7" r="9.4" fill="#15181c" stroke="#3a4048" stroke-width="1"/>
<circle cx="44.3" cy="110.7" r="11.5" fill="#0e1013" stroke="#4a5058" stroke-width="1"/>
<circle cx="44.3" cy="110.7" r="5.0" fill="#101216"/>
<circle cx="127.0" cy="110.7" r="9.4" fill="#15181c" stroke="#3a4048" stroke-width="1"/>
<circle cx="70.9" cy="110.7" r="11.5" fill="#0e1013" stroke="#4a5058" stroke-width="1"/>
<circle cx="70.9" cy="110.7" r="5.0" fill="#101216"/>
<circle cx="153.5" cy="110.7" r="9.4" fill="#15181c" stroke="#3a4048" stroke-width="1"/>
<circle cx="17.7" cy="157.0" r="11.5" fill="#0e1013" stroke="#4a5058" stroke-width="1"/>
<circle cx="17.7" cy="157.0" r="5.0" fill="#101216"/>
<circle cx="100.4" cy="157.0" r="9.4" fill="#15181c" stroke="#3a4048" stroke-width="1"/>
<circle cx="44.3" cy="157.0" r="11.5" fill="#0e1013" stroke="#4a5058" stroke-width="1"/>
<circle cx="44.3" cy="157.0" r="5.0" fill="#101216"/>
<circle cx="127.0" cy="157.0" r="9.4" fill="#15181c" stroke="#3a4048" stroke-width="1"/>
<circle cx="70.9" cy="157.0" r="11.5" fill="#0e1013" stroke="#4a5058" stroke-width="1"/>
<circle cx="70.9" cy="157.0" r="5.0" fill="#101216"/>
<circle cx="153.5" cy="157.0" r="9.4" fill="#15181c" stroke="#3a4048" stroke-width="1"/>
<circle cx="17.7" cy="203.2" r="11.5" fill="#0e1013" stroke="#4a5058" stroke-width="1"/>
<circle cx="17.7" cy="203.2" r="5.0" fill="#101216"/>
<circle cx="100.4" cy="203.2" r="9.4" fill="#15181c" stroke="#3a4048" stroke-width="1"/>
<circle cx="44.3" cy="203.2" r="11.5" fill="#0e1013" stroke="#4a5058" stroke-width="1"/>
<circle cx="44.3" cy="203.2" r="5.0" fill="#101216"/>
<circle cx="127.0" cy="203.2" r="9.4" fill="#15181c" stroke="#3a4048" stroke-width="1"/>
<circle cx="70.9" cy="203.2" r="11.5" fill="#0e1013" stroke="#4a5058" stroke-width="1"/>
<circle cx="70.9" cy="203.2" r="5.0" fill="#101216"/>
<circle cx="153.5" cy="203.2" r="9.4" fill="#15181c" stroke="#3a4048" stroke-width="1"/>
<circle cx="17.7" cy="249.5" r="11.5" fill="#0e1013" stroke="#4a5058" stroke-width="1"/>
<circle cx="17.7" cy="249.5" r="5.0" fill="#101216"/>
<circle cx="100.4" cy="249.5" r="9.4" fill="#15181c" stroke="#3a4048" stroke-width="1"/>
<circle cx="44.3" cy="249.5" r="11.5" fill="#0e1013" stroke="#4a5058" stroke-width="1"/>
<circle cx="44.3" cy="249.5" r="5.0" fill="#101216"/>
<circle cx="127.0" cy="249.5" r="9.4" fill="#15181c" stroke="#3a4048" stroke-width="1"/>
<circle cx="70.9" cy="249.5" r="11.5" fill="#0e1013" stroke="#4a5058" stroke-width="1"/>
<circle cx="70.9" cy="249.5" r="5.0" fill="#101216"/>
<circle cx="153.5" cy="249.5" r="9.4" fill="#15181c" stroke="#3a4048" stroke-width="1"/>
<circle cx="17.7" cy="295.8" r="11.5" fill="#0e1013" stroke="#4a5058" stroke-width="1"/>
<circle cx="17.7" cy="295.8" r="5.0" fill="#101216"/>
<circle cx="100.4" cy="295.8" r="9.4" fill="#15181c" stroke="#3a4048" stroke-width="1"/>
<circle cx="44.3" cy="295.8" r="11.5" fill="#0e1013" stroke="#4a5058" stroke-width="1"/>
<circle cx="44.3" cy="295.8" r="5.0" fill="#101216"/>
<circle cx="127.0" cy="295.8" r="9.4" fill="#15181c" stroke="#3a4048" stroke-width="1"/>
<circle cx="70.9" cy="295.8" r="11.5" fill="#0e1013" stroke="#4a5058" stroke-width="1"/>
<circle cx="70.9" cy="295.8" r="5.0" fill="#101216"/>
<circle cx="153.5" cy="295.8" r="9.4" fill="#15181c" stroke="#3a4048" stroke-width="1"/>
<circle cx="183.1" cy="64.5" r="9.4" fill="#15181c" stroke="#26a69a" stroke-width="1"/>
<circle cx="209.7" cy="64.5" r="11.5" fill="#0e1013" stroke="#4a5058" stroke-width="1"/>
<circle cx="209.7" cy="64.5" r="5.0" fill="#101216"/>
<circle cx="236.2" cy="64.5" r="9.4" fill="#15181c" stroke="#26a69a" stroke-width="1"/>
<circle cx="183.1" cy="110.7" r="9.4" fill="#15181c" stroke="#26a69a" stroke-width="1"/>
<circle cx="209.7" cy="110.7" r="11.5" fill="#0e1013" stroke="#4a5058" stroke-width="1"/>
<circle cx="209.7" cy="110.7" r="5.0" fill="#101216"/>
<circle cx="236.2" cy="110.7" r="9.4" fill="#15181c" stroke="#26a69a" stroke-width="1"/>
<circle cx="183.1" cy="157.0" r="9.4" fill="#15181c" stroke="#26a69a" stroke-width="1"/>
<circle cx="209.7" cy="157.0" r="11.5" fill="#0e1013" stroke="#4a5058" stroke-width="1"/>
<circle cx="209.7" cy="157.0" r="5.0" fill="#101216"/>
<circle cx="236.2" cy="157.0" r="9.4" fill="#15181c" stroke="#26a69a" stroke-width="1"/>
</g><g inkscape:label="components" inkscape:groupmode="layer" id="components" style="display:none">
    <circle id="ATTEN_0_0" cx="128.503" cy="82.519" r="3.780" style="fill:#ff0000"/>
    <circle id="ATTEN_0_1" cx="162.519" cy="82.519" r="3.780" style="fill:#ff0000"/>
    <circle id="ATTEN_0_2" cx="196.534" cy="82.519" r="3.780" style="fill:#ff0000"/>
    <circle id="ATTEN_1_0" cx="128.503" cy="141.731" r="3.780" style="fill:#ff0000"/>
    <circle id="ATTEN_1_1" cx="162.519" cy="141.731" r="3.780" style="fill:#ff0000"/>
    <circle id="ATTEN_1_2" cx="196.534" cy="141.731" r="3.780" style="fill:#ff0000"/>
    <circle id="ATTEN_2_0" cx="128.503" cy="200.943" r="3.780" style="fill:#ff0000"/>
    <circle id="ATTEN_2_1" cx="162.519" cy="200.943" r="3.780" style="fill:#ff0000"/>
    <circle id="ATTEN_2_2" cx="196.534" cy="200.943" r="3.780" style="fill:#ff0000"/>
    <circle id="ATTEN_3_0" cx="128.503" cy="260.156" r="3.780" style="fill:#ff0000"/>
    <circle id="ATTEN_3_1" cx="162.519" cy="260.156" r="3.780" style="fill:#ff0000"/>
    <circle id="ATTEN_3_2" cx="196.534" cy="260.156" r="3.780" style="fill:#ff0000"/>
    <circle id="ATTEN_4_0" cx="128.503" cy="319.368" r="3.780" style="fill:#ff0000"/>
    <circle id="ATTEN_4_1" cx="162.519" cy="319.368" r="3.780" style="fill:#ff0000"/>
    <circle id="ATTEN_4_2" cx="196.534" cy="319.368" r="3.780" style="fill:#ff0000"/>
    <circle id="ATTEN_5_0" cx="128.503" cy="378.580" r="3.780" style="fill:#ff0000"/>
    <circle id="ATTEN_5_1" cx="162.519" cy="378.580" r="3.780" style="fill:#ff0000"/>
    <circle id="ATTEN_5_2" cx="196.534" cy="378.580" r="3.780" style="fill:#ff0000"/>
    <circle id="SPR_0" cx="234.329" cy="82.519" r="3.780" style="fill:#ff0000"/>
    <circle id="SPR_ATTEN_0" cx="302.360" cy="82.519" r="3.780" style="fill:#ff0000"/>
    <circle id="SPR_1" cx="234.329" cy="141.731" r="3.780" style="fill:#ff0000"/>
    <circle id="SPR_ATTEN_1" cx="302.360" cy="141.731" r="3.780" style="fill:#ff0000"/>
    <circle id="SPR_2" cx="234.329" cy="200.943" r="3.780" style="fill:#ff0000"/>
    <circle id="SPR_ATTEN_2" cx="302.360" cy="200.943" r="3.780" style="fill:#ff0000"/>
    <circle id="CV_0_0" cx="22.677" cy="82.519" r="3.780" style="fill:#00ff00"/>
    <circle id="CV_0_1" cx="56.693" cy="82.519" r="3.780" style="fill:#00ff00"/>
    <circle id="CV_0_2" cx="90.708" cy="82.519" r="3.780" style="fill:#00ff00"/>
    <circle id="CV_1_0" cx="22.677" cy="141.731" r="3.780" style="fill:#00ff00"/>
    <circle id="CV_1_1" cx="56.693" cy="141.731" r="3.780" style="fill:#00ff00"/>
    <circle id="CV_1_2" cx="90.708" cy="141.731" r="3.780" style="fill:#00ff00"/>
    <circle id="CV_2_0" cx="22.677" cy="200.943" r="3.780" style="fill:#00ff00"/>
    <circle id="CV_2_1" cx="56.693" cy="200.943" r="3.780" style="fill:#00ff00"/>
    <circle id="CV_2_2" cx="90.708" cy="200.943" r="3.780" style="fill:#00ff00"/>
    <circle id="CV_3_0" cx="22.677" cy="260.156" r="3.780" style="fill:#00ff00"/>
    <circle id="CV_3_1" cx="56.693" cy="260.156" r="3.780" style="fill:#00ff00"/>
    <circle id="CV_3_2" cx="90.708" cy="260.156" r="3.780" style="fill:#00ff00"/>
    <circle id="CV_4_0" cx="22.677" cy="319.368" r="3.780" style="fill:#00ff00"/>
    <circle id="CV_4_1" cx="56.693" cy="319.368" r="3.780" style="fill:#00ff00"/>
    <circle id="CV_4_2" cx="90.708" cy="319.368" r="3.780" style="fill:#00ff00"/>
    <circle id="CV_5_0" cx="22.677" cy="378.580" r="3.780" style="fill:#00ff00"/>
    <circle id="CV_5_1" cx="56.693" cy="378.580" r="3.780" style="fill:#00ff00"/>
    <circle id="CV_5_2" cx="90.708" cy="378.580" r="3.780" style="fill:#00ff00"/>
    <circle id="SPR_CV_0" cx="268.344" cy="82.519" r="3.780" style="fill:#00ff00"/>
    <circle id="SPR_CV_1" cx="268.344" cy="141.731" r="3.780" style="fill:#00ff00"/>
    <circle id="SPR_CV_2" cx="268.344" cy="200.943" r="3.780" style="fill:#00ff00"/>


</g>
</svg>