<svg xmlns="http://www.w3.org/2000/svg" width="390.0" height="379.43" viewBox="0 0 390.0 379.43">
<rect width="390.0" height="379.43" fill="#dcdcdc"/>
<rect x="0" y="0" width="390.0" height="3.54" fill="#d4001a"/>
<rect x="11.81" y="63.48" width="178.76" height="209.65" rx="3.54" fill="#bcd6cf"/>
<polygon points="11.81,56.1 40.41,14.76 161.97,14.76 190.57,56.1" fill="#c08878" stroke="#a06858" stroke-width="0.5"/>
<line x1="33.26" y1="25.1" x2="169.12" y2="25.1" stroke="#a06858" stroke-width="0.35"/>
<line x1="26.11" y1="35.43" x2="176.27" y2="35.43" stroke="#a06858" stroke-width="0.35"/>
<line x1="18.96" y1="45.77" x2="183.42" y2="45.77" stroke="#a06858" stroke-width="0.35"/>
<line x1="11.81" y1="56.1" x2="190.57" y2="56.1" stroke="#d8a898" stroke-width="0.6"/>
<rect x="83.31" y="5.31" width="35.75" height="11.81" rx="1.18" fill="#c8cdd4" stroke="#a4acb4" stroke-width="0.4"/>
<rect x="11.81" y="56.1" width="178.76" height="8.86" fill="#d0d6dc" stroke="#a4acb4" stroke-width="0.4"/>
<circle cx="29.69" cy="60.53" r="2.07" fill="#a4acb4"/>
<circle cx="65.44" cy="60.53" r="2.07" fill="#a4acb4"/>
<circle cx="101.19" cy="60.53" r="2.07" fill="#a4acb4"/>
<circle cx="136.94" cy="60.53" r="2.07" fill="#a4acb4"/>
<circle cx="172.69" cy="60.53" r="2.07" fill="#a4acb4"/>
<rect x="11.81" y="162.4" width="178.76" height="11.81" fill="#d0d6dc" stroke="#a4acb4" stroke-width="0.4"/>
<rect x="11.81" y="64.96" width="7.68" height="206.69" fill="#c8cdd4" stroke="#a4acb4" stroke-width="0.4"/>
<rect x="182.89" y="64.96" width="7.68" height="206.69" fill="#c8cdd4" stroke="#a4acb4" stroke-width="0.4"/>
<rect x="199.43" y="63.48" width="178.76" height="209.65" rx="3.54" fill="#d8b8b8"/>
<polygon points="199.43,56.1 228.03,14.76 349.59,14.76 378.19,56.1" fill="#c08878" stroke="#a06858" stroke-width="0.5"/>
<line x1="220.88" y1="25.1" x2="356.74" y2="25.1" stroke="#a06858" stroke-width="0.35"/>
<line x1="213.73" y1="35.43" x2="363.89" y2="35.43" stroke="#a06858" stroke-width="0.35"/>
<line x1="206.58" y1="45.77" x2="371.04" y2="45.77" stroke="#a06858" stroke-width="0.35"/>
<line x1="199.43" y1="56.1" x2="378.19" y2="56.1" stroke="#d8a898" stroke-width="0.6"/>
<rect x="270.93" y="5.31" width="35.75" height="11.81" rx="1.18" fill="#c8cdd4" stroke="#a4acb4" stroke-width="0.4"/>
<rect x="199.43" y="56.1" width="178.76" height="8.86" fill="#d0d6dc" stroke="#a4acb4" stroke-width="0.4"/>
<circle cx="217.31" cy="60.53" r="2.07" fill="#a4acb4"/>
<circle cx="253.06" cy="60.53" r="2.07" fill="#a4acb4"/>
<circle cx="288.81" cy="60.53" r="2.07" fill="#a4acb4"/>
<circle cx="324.56" cy="60.53" r="2.07" fill="#a4acb4"/>
<circle cx="360.31" cy="60.53" r="2.07" fill="#a4acb4"/>
<rect x="199.43" y="162.4" width="178.76" height="11.81" fill="#d0d6dc" stroke="#a4acb4" stroke-width="0.4"/>
<rect x="199.43" y="64.96" width="7.68" height="206.69" fill="#c8cdd4" stroke="#a4acb4" stroke-width="0.4"/>
<rect x="370.51" y="64.96" width="7.68" height="206.69" fill="#c8cdd4" stroke="#a4acb4" stroke-width="0.4"/>
<path d="M 24.8 91.54 L 24.8 88.58 A 76.39 76.39 0 0 1 177.58 88.58 L 177.58 91.54 Z" fill="none" stroke="#b8bec6" stroke-width="1.4"/>
<rect x="26.87" y="90.35" width="148.64" height="61.42" rx="1.18" fill="#2a2e33"/>
<rect id="shutter_0_0" x="28.05" y="91.54" width="19.63" height="59.06" rx="1.48" fill="#2a2e33" stroke="#8a8a8a" stroke-width="0.4"/>
<line x1="29.82" y1="106.3" x2="45.91" y2="106.3" stroke="#8a8a8a" stroke-width="0.3"/>
<line x1="29.82" y1="121.06" x2="45.91" y2="121.06" stroke="#8a8a8a" stroke-width="0.3"/>
<line x1="29.82" y1="135.83" x2="45.91" y2="135.83" stroke="#8a8a8a" stroke-width="0.3"/>
<rect id="shutter_0_2" x="49.16" y="91.54" width="19.63" height="59.06" rx="1.48" fill="#2a2e33" stroke="#8a8a8a" stroke-width="0.4"/>
<line x1="50.93" y1="106.3" x2="67.02" y2="106.3" stroke="#8a8a8a" stroke-width="0.3"/>
<line x1="50.93" y1="121.06" x2="67.02" y2="121.06" stroke="#8a8a8a" stroke-width="0.3"/>
<line x1="50.93" y1="135.83" x2="67.02" y2="135.83" stroke="#8a8a8a" stroke-width="0.3"/>
<rect id="shutter_0_4" x="70.27" y="91.54" width="19.63" height="59.06" rx="1.48" fill="#2a2e33" stroke="#8a8a8a" stroke-width="0.4"/>
<line x1="72.04" y1="106.3" x2="88.13" y2="106.3" stroke="#8a8a8a" stroke-width="0.3"/>
<line x1="72.04" y1="121.06" x2="88.13" y2="121.06" stroke="#8a8a8a" stroke-width="0.3"/>
<line x1="72.04" y1="135.83" x2="88.13" y2="135.83" stroke="#8a8a8a" stroke-width="0.3"/>
<rect id="shutter_0_5" x="91.38" y="91.54" width="19.63" height="59.06" rx="1.48" fill="#2a2e33" stroke="#8a8a8a" stroke-width="0.4"/>
<line x1="93.15" y1="106.3" x2="109.24" y2="106.3" stroke="#8a8a8a" stroke-width="0.3"/>
<line x1="93.15" y1="121.06" x2="109.24" y2="121.06" stroke="#8a8a8a" stroke-width="0.3"/>
<line x1="93.15" y1="135.83" x2="109.24" y2="135.83" stroke="#8a8a8a" stroke-width="0.3"/>
<rect id="shutter_0_7" x="112.48" y="91.54" width="19.63" height="59.06" rx="1.48" fill="#2a2e33" stroke="#8a8a8a" stroke-width="0.4"/>
<line x1="114.25" y1="106.3" x2="130.34" y2="106.3" stroke="#8a8a8a" stroke-width="0.3"/>
<line x1="114.25" y1="121.06" x2="130.34" y2="121.06" stroke="#8a8a8a" stroke-width="0.3"/>
<line x1="114.25" y1="135.83" x2="130.34" y2="135.83" stroke="#8a8a8a" stroke-width="0.3"/>
<rect id="shutter_0_9" x="133.59" y="91.54" width="19.63" height="59.06" rx="1.48" fill="#2a2e33" stroke="#8a8a8a" stroke-width="0.4"/>
<line x1="135.36" y1="106.3" x2="151.45" y2="106.3" stroke="#8a8a8a" stroke-width="0.3"/>
<line x1="135.36" y1="121.06" x2="151.45" y2="121.06" stroke="#8a8a8a" stroke-width="0.3"/>
<line x1="135.36" y1="135.83" x2="151.45" y2="135.83" stroke="#8a8a8a" stroke-width="0.3"/>
<rect id="shutter_0_11" x="154.7" y="91.54" width="19.63" height="59.06" rx="1.48" fill="#2a2e33" stroke="#8a8a8a" stroke-width="0.4"/>
<line x1="156.47" y1="106.3" x2="172.56" y2="106.3" stroke="#8a8a8a" stroke-width="0.3"/>
<line x1="156.47" y1="121.06" x2="172.56" y2="121.06" stroke="#8a8a8a" stroke-width="0.3"/>
<line x1="156.47" y1="135.83" x2="172.56" y2="135.83" stroke="#8a8a8a" stroke-width="0.3"/>
<rect id="shutter_0_1" x="41.79" y="91.54" width="11.78" height="34.25" rx="1.18" fill="#1c1f24" stroke="#8a8a8a" stroke-width="0.4"/>
<rect id="shutter_0_3" x="62.9" y="91.54" width="11.78" height="34.25" rx="1.18" fill="#1c1f24" stroke="#8a8a8a" stroke-width="0.4"/>
<rect id="shutter_0_6" x="105.12" y="91.54" width="11.78" height="34.25" rx="1.18" fill="#1c1f24" stroke="#8a8a8a" stroke-width="0.4"/>
<rect id="shutter_0_8" x="126.23" y="91.54" width="11.78" height="34.25" rx="1.18" fill="#1c1f24" stroke="#8a8a8a" stroke-width="0.4"/>
<rect id="shutter_0_10" x="147.33" y="91.54" width="11.78" height="34.25" rx="1.18" fill="#1c1f24" stroke="#8a8a8a" stroke-width="0.4"/>
<rect x="20.6" y="105.05" width="5.46" height="5.46" fill="#cdd2d8" stroke="#a4acb4" stroke-width="0.3"/>
<polygon points="21.69,105.54 22.29,106.14 21.69,106.74 21.09,106.14" fill="#b07d00" stroke="none"/>
<polygon points="21.69,108.81 22.29,109.41 21.69,110.01 21.09,109.41" fill="#b07d00" stroke="none"/>
<polygon points="24.96,105.54 25.56,106.14 24.96,106.74 24.36,106.14" fill="#b07d00" stroke="none"/>
<polygon points="24.96,108.81 25.56,109.41 24.96,110.01 24.36,109.41" fill="#b07d00" stroke="none"/>
<polygon points="23.33,105.97 24.25,107.78 23.33,109.58 22.4,107.78" fill="#a03a52" stroke="none"/>
<polygon points="21.53,107.78 23.33,106.85 25.13,107.78 23.33,108.7" fill="#1c7a70" fill-opacity="0.85" stroke="none"/>
<circle cx="23.33" cy="107.78" r="0.49" fill="#b07d00"/>
<rect x="20.6" y="131.62" width="5.46" height="5.46" fill="#cdd2d8" stroke="#a4acb4" stroke-width="0.3"/>
<polygon points="21.69,132.11 22.29,132.71 21.69,133.31 21.09,132.71" fill="#b07d00" stroke="none"/>
<polygon points="21.69,135.39 22.29,135.99 21.69,136.59 21.09,135.99" fill="#b07d00" stroke="none"/>
<polygon points="24.96,132.11 25.56,132.71 24.96,133.31 24.36,132.71" fill="#b07d00" stroke="none"/>
<polygon points="24.96,135.39 25.56,135.99 24.96,136.59 24.36,135.99" fill="#b07d00" stroke="none"/>
<polygon points="23.33,132.55 24.25,134.35 23.33,136.15 22.4,134.35" fill="#a03a52" stroke="none"/>
<polygon points="21.53,134.35 23.33,133.42 25.13,134.35 23.33,135.28" fill="#1c7a70" fill-opacity="0.85" stroke="none"/>
<circle cx="23.33" cy="134.35" r="0.49" fill="#b07d00"/>
<rect x="176.33" y="105.05" width="5.46" height="5.46" fill="#cdd2d8" stroke="#a4acb4" stroke-width="0.3"/>
<polygon points="177.42,105.54 178.02,106.14 177.42,106.74 176.82,106.14" fill="#b07d00" stroke="none"/>
<polygon points="177.42,108.81 178.02,109.41 177.42,110.01 176.82,109.41" fill="#b07d00" stroke="none"/>
<polygon points="180.69,105.54 181.29,106.14 180.69,106.74 180.09,106.14" fill="#b07d00" stroke="none"/>
<polygon points="180.69,108.81 181.29,109.41 180.69,110.01 180.09,109.41" fill="#b07d00" stroke="none"/>
<polygon points="179.06,105.97 179.98,107.78 179.06,109.58 178.13,107.78" fill="#a03a52" stroke="none"/>
<polygon points="177.25,107.78 179.06,106.85 180.86,107.78 179.06,108.7" fill="#1c7a70" fill-opacity="0.85" stroke="none"/>
<circle cx="179.06" cy="107.78" r="0.49" fill="#b07d00"/>
<rect x="176.33" y="131.62" width="5.46" height="5.46" fill="#cdd2d8" stroke="#a4acb4" stroke-width="0.3"/>
<polygon points="177.42,132.11 178.02,132.71 177.42,133.31 176.82,132.71" fill="#b07d00" stroke="none"/>
<polygon points="177.42,135.39 178.02,135.99 177.42,136.59 176.82,135.99" fill="#b07d00" stroke="none"/>
<polygon points="180.69,132.11 181.29,132.71 180.69,133.31 180.09,132.71" fill="#b07d00" stroke="none"/>
<polygon points="180.69,135.39 181.29,135.99 180.69,136.59 180.09,135.99" fill="#b07d00" stroke="none"/>
<polygon points="179.06,132.55 179.98,134.35 179.06,136.15 178.13,134.35" fill="#a03a52" stroke="none"/>
<polygon points="177.25,134.35 179.06,133.42 180.86,134.35 179.06,135.28" fill="#1c7a70" fill-opacity="0.85" stroke="none"/>
<circle cx="179.06" cy="134.35" r="0.49" fill="#b07d00"/>
<rect x="28.05" y="151.77" width="146.28" height="8.86" rx="1.48" fill="#e8e2d6" stroke="#a4acb4" stroke-width="0.3"/>
<circle id="name_band_0" cx="101.19" cy="155.91" r="0.5" fill="none" stroke="none"/>
<circle cx="181.71" cy="76.77" r="7.68" fill="#c8cdd4" stroke="#a4acb4" stroke-width="0.4"/>
<circle id="param_scale_0" cx="181.71" cy="76.77" r="0.5" fill="none" stroke="none"/>
<circle id="lantern_0" cx="101.19" cy="12.19" r="0.5" fill="none" stroke="none"/>
<path d="M 24.8 200.79 L 24.8 197.83 A 76.39 76.39 0 0 1 177.58 197.83 L 177.58 200.79 Z" fill="none" stroke="#b8bec6" stroke-width="1.4"/>
<rect x="26.87" y="199.61" width="148.64" height="61.42" rx="1.18" fill="#2a2e33"/>
<rect id="shutter_1_0" x="28.05" y="200.79" width="19.63" height="59.06" rx="1.48" fill="#2a2e33" stroke="#8a8a8a" stroke-width="0.4"/>
<line x1="29.82" y1="215.55" x2="45.91" y2="215.55" stroke="#8a8a8a" stroke-width="0.3"/>
<line x1="29.82" y1="230.31" x2="45.91" y2="230.31" stroke="#8a8a8a" stroke-width="0.3"/>
<line x1="29.82" y1="245.08" x2="45.91" y2="245.08" stroke="#8a8a8a" stroke-width="0.3"/>
<rect id="shutter_1_2" x="49.16" y="200.79" width="19.63" height="59.06" rx="1.48" fill="#2a2e33" stroke="#8a8a8a" stroke-width="0.4"/>
<line x1="50.93" y1="215.55" x2="67.02" y2="215.55" stroke="#8a8a8a" stroke-width="0.3"/>
<line x1="50.93" y1="230.31" x2="67.02" y2="230.31" stroke="#8a8a8a" stroke-width="0.3"/>
<line x1="50.93" y1="245.08" x2="67.02" y2="245.08" stroke="#8a8a8a" stroke-width="0.3"/>
<rect id="shutter_1_4" x="70.27" y="200.79" width="19.63" height="59.06" rx="1.48" fill="#2a2e33" stroke="#8a8a8a" stroke-width="0.4"/>
<line x1="72.04" y1="215.55" x2="88.13" y2="215.55" stroke="#8a8a8a" stroke-width="0.3"/>
<line x1="72.04" y1="230.31" x2="88.13" y2="230.31" stroke="#8a8a8a" stroke-width="0.3"/>
<line x1="72.04" y1="245.08" x2="88.13" y2="245.08" stroke="#8a8a8a" stroke-width="0.3"/>
<rect id="shutter_1_5" x="91.38" y="200.79" width="19.63" height="59.06" rx="1.48" fill="#2a2e33" stroke="#8a8a8a" stroke-width="0.4"/>
<line x1="93.15" y1="215.55" x2="109.24" y2="215.55" stroke="#8a8a8a" stroke-width="0.3"/>
<line x1="93.15" y1="230.31" x2="109.24" y2="230.31" stroke="#8a8a8a" stroke-width="0.3"/>
<line x1="93.15" y1="245.08" x2="109.24" y2="245.08" stroke="#8a8a8a" stroke-width="0.3"/>
<rect id="shutter_1_7" x="112.48" y="200.79" width="19.63" height="59.06" rx="1.48" fill="#2a2e33" stroke="#8a8a8a" stroke-width="0.4"/>
<line x1="114.25" y1="215.55" x2="130.34" y2="215.55" stroke="#8a8a8a" stroke-width="0.3"/>
<line x1="114.25" y1="230.31" x2="130.34" y2="230.31" stroke="#8a8a8a" stroke-width="0.3"/>
<line x1="114.25" y1="245.08" x2="130.34" y2="245.08" stroke="#8a8a8a" stroke-width="0.3"/>
<rect id="shutter_1_9" x="133.59" y="200.79" width="19.63" height="59.06" rx="1.48" fill="#2a2e33" stroke="#8a8a8a" stroke-width="0.4"/>
<line x1="135.36" y1="215.55" x2="151.45" y2="215.55" stroke="#8a8a8a" stroke-width="0.3"/>
<line x1="135.36" y1="230.31" x2="151.45" y2="230.31" stroke="#8a8a8a" stroke-width="0.3"/>
<line x1="135.36" y1="245.08" x2="151.45" y2="245.08" stroke="#8a8a8a" stroke-width="0.3"/>
<rect id="shutter_1_11" x="154.7" y="200.79" width="19.63" height="59.06" rx="1.48" fill="#2a2e33" stroke="#8a8a8a" stroke-width="0.4"/>
<line x1="156.47" y1="215.55" x2="172.56" y2="215.55" stroke="#8a8a8a" stroke-width="0.3"/>
<line x1="156.47" y1="230.31" x2="172.56" y2="230.31" stroke="#8a8a8a" stroke-width="0.3"/>
<line x1="156.47" y1="245.08" x2="172.56" y2="245.08" stroke="#8a8a8a" stroke-width="0.3"/>
<rect id="shutter_1_1" x="41.79" y="200.79" width="11.78" height="34.25" rx="1.18" fill="#1c1f24" stroke="#8a8a8a" stroke-width="0.4"/>
<rect id="shutter_1_3" x="62.9" y="200.79" width="11.78" height="34.25" rx="1.18" fill="#1c1f24" stroke="#8a8a8a" stroke-width="0.4"/>
<rect id="shutter_1_6" x="105.12" y="200.79" width="11.78" height="34.25" rx="1.18" fill="#1c1f24" stroke="#8a8a8a" stroke-width="0.4"/>
<rect id="shutter_1_8" x="126.23" y="200.79" width="11.78" height="34.25" rx="1.18" fill="#1c1f24" stroke="#8a8a8a" stroke-width="0.4"/>
<rect id="shutter_1_10" x="147.33" y="200.79" width="11.78" height="34.25" rx="1.18" fill="#1c1f24" stroke="#8a8a8a" stroke-width="0.4"/>
<rect x="20.6" y="214.3" width="5.46" height="5.46" fill="#cdd2d8" stroke="#a4acb4" stroke-width="0.3"/>
<polygon points="21.69,214.79 22.29,215.39 21.69,215.99 21.09,215.39" fill="#b07d00" stroke="none"/>
<polygon points="21.69,218.06 22.29,218.66 21.69,219.26 21.09,218.66" fill="#b07d00" stroke="none"/>
<polygon points="24.96,214.79 25.56,215.39 24.96,215.99 24.36,215.39" fill="#b07d00" stroke="none"/>
<polygon points="24.96,218.06 25.56,218.66 24.96,219.26 24.36,218.66" fill="#b07d00" stroke="none"/>
<polygon points="23.33,215.23 24.25,217.03 23.33,218.83 22.4,217.03" fill="#a03a52" stroke="none"/>
<polygon points="21.53,217.03 23.33,216.1 25.13,217.03 23.33,217.96" fill="#1c7a70" fill-opacity="0.85" stroke="none"/>
<circle cx="23.33" cy="217.03" r="0.49" fill="#b07d00"/>
<rect x="20.6" y="240.87" width="5.46" height="5.46" fill="#cdd2d8" stroke="#a4acb4" stroke-width="0.3"/>
<polygon points="21.69,241.37 22.29,241.97 21.69,242.57 21.09,241.97" fill="#b07d00" stroke="none"/>
<polygon points="21.69,244.64 22.29,245.24 21.69,245.84 21.09,245.24" fill="#b07d00" stroke="none"/>
<polygon points="24.96,241.37 25.56,241.97 24.96,242.57 24.36,241.97" fill="#b07d00" stroke="none"/>
<polygon points="24.96,244.64 25.56,245.24 24.96,245.84 24.36,245.24" fill="#b07d00" stroke="none"/>
<polygon points="23.33,241.8 24.25,243.6 23.33,245.4 22.4,243.6" fill="#a03a52" stroke="none"/>
<polygon points="21.53,243.6 23.33,242.67 25.13,243.6 23.33,244.53" fill="#1c7a70" fill-opacity="0.85" stroke="none"/>
<circle cx="23.33" cy="243.6" r="0.49" fill="#b07d00"/>
<rect x="176.33" y="214.3" width="5.46" height="5.46" fill="#cdd2d8" stroke="#a4acb4" stroke-width="0.3"/>
<polygon points="177.42,214.79 178.02,215.39 177.42,215.99 176.82,215.39" fill="#b07d00" stroke="none"/>
<polygon points="177.42,218.06 178.02,218.66 177.42,219.26 176.82,218.66" fill="#b07d00" stroke="none"/>
<polygon points="180.69,214.79 181.29,215.39 180.69,215.99 180.09,215.39" fill="#b07d00" stroke="none"/>
<polygon points="180.69,218.06 181.29,218.66 180.69,219.26 180.09,218.66" fill="#b07d00" stroke="none"/>
<polygon points="179.06,215.23 179.98,217.03 179.06,218.83 178.13,217.03" fill="#a03a52" stroke="none"/>
<polygon points="177.25,217.03 179.06,216.1 180.86,217.03 179.06,217.96" fill="#1c7a70" fill-opacity="0.85" stroke="none"/>
<circle cx="179.06" cy="217.03" r="0.49" fill="#b07d00"/>
<rect x="176.33" y="240.87" width="5.46" height="5.46" fill="#cdd2d8" stroke="#a4acb4" stroke-width="0.3"/>
<polygon points="177.42,241.37 178.02,241.97 177.42,242.57 176.82,241.97" fill="#b07d00" stroke="none"/>
<polygon points="177.42,244.64 178.02,245.24 177.42,245.84 176.82,245.24" fill="#b07d00" stroke="none"/>
<polygon points="180.69,241.37 181.29,241.97 180.69,242.57 180.09,241.97" fill="#b07d00" stroke="none"/>
<polygon points="180.69,244.64 181.29,245.24 180.69,245.84 180.09,245.24" fill="#b07d00" stroke="none"/>
<polygon points="179.06,241.8 179.98,243.6 179.06,245.4 178.13,243.6" fill="#a03a52" stroke="none"/>
<polygon points="177.25,243.6 179.06,242.67 180.86,243.6 179.06,244.53" fill="#1c7a70" fill-opacity="0.85" stroke="none"/>
<circle cx="179.06" cy="243.6" r="0.49" fill="#b07d00"/>
<rect x="28.05" y="261.02" width="146.28" height="8.86" rx="1.48" fill="#e8e2d6" stroke="#a4acb4" stroke-width="0.3"/>
<circle id="name_band_1" cx="101.19" cy="265.16" r="0.5" fill="none" stroke="none"/>
<circle cx="181.71" cy="186.02" r="7.68" fill="#c8cdd4" stroke="#a4acb4" stroke-width="0.4"/>
<circle id="param_scale_1" cx="181.71" cy="186.02" r="0.5" fill="none" stroke="none"/>
<circle id="lantern_1" cx="101.19" cy="121.45" r="0.5" fill="none" stroke="none"/>
<path d="M 212.42 91.54 L 212.42 88.58 A 76.39 76.39 0 0 1 365.2 88.58 L 365.2 91.54 Z" fill="none" stroke="#b8bec6" stroke-width="1.4"/>
<rect x="214.49" y="90.35" width="148.64" height="61.42" rx="1.18" fill="#2a2e33"/>
<rect id="shutter_2_0" x="215.67" y="91.54" width="19.63" height="59.06" rx="1.48" fill="#2a2e33" stroke="#8a8a8a" stroke-width="0.4"/>
<line x1="217.44" y1="106.3" x2="233.53" y2="106.3" stroke="#8a8a8a" stroke-width="0.3"/>
<line x1="217.44" y1="121.06" x2="233.53" y2="121.06" stroke="#8a8a8a" stroke-width="0.3"/>
<line x1="217.44" y1="135.83" x2="233.53" y2="135.83" stroke="#8a8a8a" stroke-width="0.3"/>
<rect id="shutter_2_2" x="236.78" y="91.54" width="19.63" height="59.06" rx="1.48" fill="#2a2e33" stroke="#8a8a8a" stroke-width="0.4"/>
<line x1="238.55" y1="106.3" x2="254.64" y2="106.3" stroke="#8a8a8a" stroke-width="0.3"/>
<line x1="238.55" y1="121.06" x2="254.64" y2="121.06" stroke="#8a8a8a" stroke-width="0.3"/>
<line x1="238.55" y1="135.83" x2="254.64" y2="135.83" stroke="#8a8a8a" stroke-width="0.3"/>
<rect id="shutter_2_4" x="257.89" y="91.54" width="19.63" height="59.06" rx="1.48" fill="#2a2e33" stroke="#8a8a8a" stroke-width="0.4"/>
<line x1="259.66" y1="106.3" x2="275.75" y2="106.3" stroke="#8a8a8a" stroke-width="0.3"/>
<line x1="259.66" y1="121.06" x2="275.75" y2="121.06" stroke="#8a8a8a" stroke-width="0.3"/>
<line x1="259.66" y1="135.83" x2="275.75" y2="135.83" stroke="#8a8a8a" stroke-width="0.3"/>
<rect id="shutter_2_5" x="278.99" y="91.54" width="19.63" height="59.06" rx="1.48" fill="#2a2e33" stroke="#8a8a8a" stroke-width="0.4"/>
<line x1="280.76" y1="106.3" x2="296.85" y2="106.3" stroke="#8a8a8a" stroke-width="0.3"/>
<line x1="280.76" y1="121.06" x2="296.85" y2="121.06" stroke="#8a8a8a" stroke-width="0.3"/>
<line x1="280.76" y1="135.83" x2="296.85" y2="135.83" stroke="#8a8a8a" stroke-width="0.3"/>
<rect id="shutter_2_7" x="300.1" y="91.54" width="19.63" height="59.06" rx="1.48" fill="#2a2e33" stroke="#8a8a8a" stroke-width="0.4"/>
<line x1="301.87" y1="106.3" x2="317.96" y2="106.3" stroke="#8a8a8a" stroke-width="0.3"/>
<line x1="301.87" y1="121.06" x2="317.96" y2="121.06" stroke="#8a8a8a" stroke-width="0.3"/>
<line x1="301.87" y1="135.83" x2="317.96" y2="135.83" stroke="#8a8a8a" stroke-width="0.3"/>
<rect id="shutter_2_9" x="321.21" y="91.54" width="19.63" height="59.06" rx="1.48" fill="#2a2e33" stroke="#8a8a8a" stroke-width="0.4"/>
<line x1="322.98" y1="106.3" x2="339.07" y2="106.3" stroke="#8a8a8a" stroke-width="0.3"/>
<line x1="322.98" y1="121.06" x2="339.07" y2="121.06" stroke="#8a8a8a" stroke-width="0.3"/>
<line x1="322.98" y1="135.83" x2="339.07" y2="135.83" stroke="#8a8a8a" stroke-width="0.3"/>
<rect id="shutter_2_11" x="342.32" y="91.54" width="19.63" height="59.06" rx="1.48" fill="#2a2e33" stroke="#8a8a8a" stroke-width="0.4"/>
<line x1="344.09" y1="106.3" x2="360.18" y2="106.3" stroke="#8a8a8a" stroke-width="0.3"/>
<line x1="344.09" y1="121.06" x2="360.18" y2="121.06" stroke="#8a8a8a" stroke-width="0.3"/>
<line x1="344.09" y1="135.83" x2="360.18" y2="135.83" stroke="#8a8a8a" stroke-width="0.3"/>
<rect id="shutter_2_1" x="229.41" y="91.54" width="11.78" height="34.25" rx="1.18" fill="#1c1f24" stroke="#8a8a8a" stroke-width="0.4"/>
<rect id="shutter_2_3" x="250.52" y="91.54" width="11.78" height="34.25" rx="1.18" fill="#1c1f24" stroke="#8a8a8a" stroke-width="0.4"/>
<rect id="shutter_2_6" x="292.74" y="91.54" width="11.78" height="34.25" rx="1.18" fill="#1c1f24" stroke="#8a8a8a" stroke-width="0.4"/>
<rect id="shutter_2_8" x="313.84" y="91.54" width="11.78" height="34.25" rx="1.18" fill="#1c1f24" stroke="#8a8a8a" stroke-width="0.4"/>
<rect id="shutter_2_10" x="334.95" y="91.54" width="11.78" height="34.25" rx="1.18" fill="#1c1f24" stroke="#8a8a8a" stroke-width="0.4"/>
<rect x="208.22" y="105.05" width="5.46" height="5.46" fill="#cdd2d8" stroke="#a4acb4" stroke-width="0.3"/>
<polygon points="209.31,105.54 209.91,106.14 209.31,106.74 208.71,106.14" fill="#b07d00" stroke="none"/>
<polygon points="209.31,108.81 209.91,109.41 209.31,110.01 208.71,109.41" fill="#b07d00" stroke="none"/>
<polygon points="212.58,105.54 213.18,106.14 212.58,106.74 211.98,106.14" fill="#b07d00" stroke="none"/>
<polygon points="212.58,108.81 213.18,109.41 212.58,110.01 211.98,109.41" fill="#b07d00" stroke="none"/>
<polygon points="210.94,105.97 211.87,107.78 210.94,109.58 210.02,107.78" fill="#a03a52" stroke="none"/>
<polygon points="209.14,107.78 210.94,106.85 212.75,107.78 210.94,108.7" fill="#1c7a70" fill-opacity="0.85" stroke="none"/>
<circle cx="210.94" cy="107.78" r="0.49" fill="#b07d00"/>
<rect x="208.22" y="131.62" width="5.46" height="5.46" fill="#cdd2d8" stroke="#a4acb4" stroke-width="0.3"/>
<polygon points="209.31,132.11 209.91,132.71 209.31,133.31 208.71,132.71" fill="#b07d00" stroke="none"/>
<polygon points="209.31,135.39 209.91,135.99 209.31,136.59 208.71,135.99" fill="#b07d00" stroke="none"/>
<polygon points="212.58,132.11 213.18,132.71 212.58,133.31 211.98,132.71" fill="#b07d00" stroke="none"/>
<polygon points="212.58,135.39 213.18,135.99 212.58,136.59 211.98,135.99" fill="#b07d00" stroke="none"/>
<polygon points="210.94,132.55 211.87,134.35 210.94,136.15 210.02,134.35" fill="#a03a52" stroke="none"/>
<polygon points="209.14,134.35 210.94,133.42 212.75,134.35 210.94,135.28" fill="#1c7a70" fill-opacity="0.85" stroke="none"/>
<circle cx="210.94" cy="134.35" r="0.49" fill="#b07d00"/>
<rect x="363.94" y="105.05" width="5.46" height="5.46" fill="#cdd2d8" stroke="#a4acb4" stroke-width="0.3"/>
<polygon points="365.04,105.54 365.64,106.14 365.04,106.74 364.44,106.14" fill="#b07d00" stroke="none"/>
<polygon points="365.04,108.81 365.64,109.41 365.04,110.01 364.44,109.41" fill="#b07d00" stroke="none"/>
<polygon points="368.31,105.54 368.91,106.14 368.31,106.74 367.71,106.14" fill="#b07d00" stroke="none"/>
<polygon points="368.31,108.81 368.91,109.41 368.31,110.01 367.71,109.41" fill="#b07d00" stroke="none"/>
<polygon points="366.67,105.97 367.6,107.78 366.67,109.58 365.75,107.78" fill="#a03a52" stroke="none"/>
<polygon points="364.87,107.78 366.67,106.85 368.47,107.78 366.67,108.7" fill="#1c7a70" fill-opacity="0.85" stroke="none"/>
<circle cx="366.67" cy="107.78" r="0.49" fill="#b07d00"/>
<rect x="363.94" y="131.62" width="5.46" height="5.46" fill="#cdd2d8" stroke="#a4acb4" stroke-width="0.3"/>
<polygon points="365.04,132.11 365.64,132.71 365.04,133.31 364.44,132.71" fill="#b07d00" stroke="none"/>
<polygon points="365.04,135.39 365.64,135.99 365.04,136.59 364.44,135.99" fill="#b07d00" stroke="none"/>
<polygon points="368.31,132.11 368.91,132.71 368.31,133.31 367.71,132.71" fill="#b07d00" stroke="none"/>
<polygon points="368.31,135.39 368.91,135.99 368.31,136.59 367.71,135.99" fill="#b07d00" stroke="none"/>
<polygon points="366.67,132.55 367.6,134.35 366.67,136.15 365.75,134.35" fill="#a03a52" stroke="none"/>
<polygon points="364.87,134.35 366.67,133.42 368.47,134.35 366.67,135.28" fill="#1c7a70" fill-opacity="0.85" stroke="none"/>
<circle cx="366.67" cy="134.35" r="0.49" fill="#b07d00"/>
<rect x="215.67" y="151.77" width="146.28" height="8.86" rx="1.48" fill="#e8e2d6" stroke="#a4acb4" stroke-width="0.3"/>
<circle id="name_band_2" cx="288.81" cy="155.91" r="0.5" fill="none" stroke="none"/>
<circle cx="369.33" cy="76.77" r="7.68" fill="#c8cdd4" stroke="#a4acb4" stroke-width="0.4"/>
<circle id="param_scale_2" cx="369.33" cy="76.77" r="0.5" fill="none" stroke="none"/>
<circle id="lantern_2" cx="288.81" cy="12.19" r="0.5" fill="none" stroke="none"/>
<path d="M 212.42 200.79 L 212.42 197.83 A 76.39 76.39 0 0 1 365.2 197.83 L 365.2 200.79 Z" fill="none" stroke="#b8bec6" stroke-width="1.4"/>
<rect x="214.49" y="199.61" width="148.64" height="61.42" rx="1.18" fill="#2a2e33"/>
<rect id="shutter_3_0" x="215.67" y="200.79" width="19.63" height="59.06" rx="1.48" fill="#2a2e33" stroke="#8a8a8a" stroke-width="0.4"/>
<line x1="217.44" y1="215.55" x2="233.53" y2="215.55" stroke="#8a8a8a" stroke-width="0.3"/>
<line x1="217.44" y1="230.31" x2="233.53" y2="230.31" stroke="#8a8a8a" stroke-width="0.3"/>
<line x1="217.44" y1="245.08" x2="233.53" y2="245.08" stroke="#8a8a8a" stroke-width="0.3"/>
<rect id="shutter_3_2" x="236.78" y="200.79" width="19.63" height="59.06" rx="1.48" fill="#2a2e33" stroke="#8a8a8a" stroke-width="0.4"/>
<line x1="238.55" y1="215.55" x2="254.64" y2="215.55" stroke="#8a8a8a" stroke-width="0.3"/>
<line x1="238.55" y1="230.31" x2="254.64" y2="230.31" stroke="#8a8a8a" stroke-width="0.3"/>
<line x1="238.55" y1="245.08" x2="254.64" y2="245.08" stroke="#8a8a8a" stroke-width="0.3"/>
<rect id="shutter_3_4" x="257.89" y="200.79" width="19.63" height="59.06" rx="1.48" fill="#2a2e33" stroke="#8a8a8a" stroke-width="0.4"/>
<line x1="259.66" y1="215.55" x2="275.75" y2="215.55" stroke="#8a8a8a" stroke-width="0.3"/>
<line x1="259.66" y1="230.31" x2="275.75" y2="230.31" stroke="#8a8a8a" stroke-width="0.3"/>
<line x1="259.66" y1="245.08" x2="275.75" y2="245.08" stroke="#8a8a8a" stroke-width="0.3"/>
<rect id="shutter_3_5" x="278.99" y="200.79" width="19.63" height="59.06" rx="1.48" fill="#2a2e33" stroke="#8a8a8a" stroke-width="0.4"/>
<line x1="280.76" y1="215.55" x2="296.85" y2="215.55" stroke="#8a8a8a" stroke-width="0.3"/>
<line x1="280.76" y1="230.31" x2="296.85" y2="230.31" stroke="#8a8a8a" stroke-width="0.3"/>
<line x1="280.76" y1="245.08" x2="296.85" y2="245.08" stroke="#8a8a8a" stroke-width="0.3"/>
<rect id="shutter_3_7" x="300.1" y="200.79" width="19.63" height="59.06" rx="1.48" fill="#2a2e33" stroke="#8a8a8a" stroke-width="0.4"/>
<line x1="301.87" y1="215.55" x2="317.96" y2="215.55" stroke="#8a8a8a" stroke-width="0.3"/>
<line x1="301.87" y1="230.31" x2="317.96" y2="230.31" stroke="#8a8a8a" stroke-width="0.3"/>
<line x1="301.87" y1="245.08" x2="317.96" y2="245.08" stroke="#8a8a8a" stroke-width="0.3"/>
<rect id="shutter_3_9" x="321.21" y="200.79" width="19.63" height="59.06" rx="1.48" fill="#2a2e33" stroke="#8a8a8a" stroke-width="0.4"/>
<line x1="322.98" y1="215.55" x2="339.07" y2="215.55" stroke="#8a8a8a" stroke-width="0.3"/>
<line x1="322.98" y1="230.31" x2="339.07" y2="230.31" stroke="#8a8a8a" stroke-width="0.3"/>
<line x1="322.98" y1="245.08" x2="339.07" y2="245.08" stroke="#8a8a8a" stroke-width="0.3"/>
<rect id="shutter_3_11" x="342.32" y="200.79" width="19.63" height="59.06" rx="1.48" fill="#2a2e33" stroke="#8a8a8a" stroke-width="0.4"/>
<line x1="344.09" y1="215.55" x2="360.18" y2="215.55" stroke="#8a8a8a" stroke-width="0.3"/>
<line x1="344.09" y1="230.31" x2="360.18" y2="230.31" stroke="#8a8a8a" stroke-width="0.3"/>
<line x1="344.09" y1="245.08" x2="360.18" y2="245.08" stroke="#8a8a8a" stroke-width="0.3"/>
<rect id="shutter_3_1" x="229.41" y="200.79" width="11.78" height="34.25" rx="1.18" fill="#1c1f24" stroke="#8a8a8a" stroke-width="0.4"/>
<rect id="shutter_3_3" x="250.52" y="200.79" width="11.78" height="34.25" rx="1.18" fill="#1c1f24" stroke="#8a8a8a" stroke-width="0.4"/>
<rect id="shutter_3_6" x="292.74" y="200.79" width="11.78" height="34.25" rx="1.18" fill="#1c1f24" stroke="#8a8a8a" stroke-width="0.4"/>
<rect id="shutter_3_8" x="313.84" y="200.79" width="11.78" height="34.25" rx="1.18" fill="#1c1f24" stroke="#8a8a8a" stroke-width="0.4"/>
<rect id="shutter_3_10" x="334.95" y="200.79" width="11.78" height="34.25" rx="1.18" fill="#1c1f24" stroke="#8a8a8a" stroke-width="0.4"/>
<rect x="208.22" y="214.3" width="5.46" height="5.46" fill="#cdd2d8" stroke="#a4acb4" stroke-width="0.3"/>
<polygon points="209.31,214.79 209.91,215.39 209.31,215.99 208.71,215.39" fill="#b07d00" stroke="none"/>
<polygon points="209.31,218.06 209.91,218.66 209.31,219.26 208.71,218.66" fill="#b07d00" stroke="none"/>
<polygon points="212.58,214.79 213.18,215.39 212.58,215.99 211.98,215.39" fill="#b07d00" stroke="none"/>
<polygon points="212.58,218.06 213.18,218.66 212.58,219.26 211.98,218.66" fill="#b07d00" stroke="none"/>
<polygon points="210.94,215.23 211.87,217.03 210.94,218.83 210.02,217.03" fill="#a03a52" stroke="none"/>
<polygon points="209.14,217.03 210.94,216.1 212.75,217.03 210.94,217.96" fill="#1c7a70" fill-opacity="0.85" stroke="none"/>
<circle cx="210.94" cy="217.03" r="0.49" fill="#b07d00"/>
<rect x="208.22" y="240.87" width="5.46" height="5.46" fill="#cdd2d8" stroke="#a4acb4" stroke-width="0.3"/>
<polygon points="209.31,241.37 209.91,241.97 209.31,242.57 208.71,241.97" fill="#b07d00" stroke="none"/>
<polygon points="209.31,244.64 209.91,245.24 209.31,245.84 208.71,245.24" fill="#b07d00" stroke="none"/>
<polygon points="212.58,241.37 213.18,241.97 212.58,242.57 211.98,241.97" fill="#b07d00" stroke="none"/>
<polygon points="212.58,244.64 213.18,245.24 212.58,245.84 211.98,245.24" fill="#b07d00" stroke="none"/>
<polygon points="210.94,241.8 211.87,243.6 210.94,245.4 210.02,243.6" fill="#a03a52" stroke="none"/>
<polygon points="209.14,243.6 210.94,242.67 212.75,243.6 210.94,244.53" fill="#1c7a70" fill-opacity="0.85" stroke="none"/>
<circle cx="210.94" cy="243.6" r="0.49" fill="#b07d00"/>
<rect x="363.94" y="214.3" width="5.46" height="5.46" fill="#cdd2d8" stroke="#a4acb4" stroke-width="0.3"/>
<polygon points="365.04,214.79 365.64,215.39 365.04,215.99 364.44,215.39" fill="#b07d00" stroke="none"/>
<polygon points="365.04,218.06 365.64,218.66 365.04,219.26 364.44,218.66" fill="#b07d00" stroke="none"/>
<polygon points="368.31,214.79 368.91,215.39 368.31,215.99 367.71,215.39" fill="#b07d00" stroke="none"/>
<polygon points="368.31,218.06 368.91,218.66 368.31,219.26 367.71,218.66" fill="#b07d00" stroke="none"/>
<polygon points="366.67,215.23 367.6,217.03 366.67,218.83 365.75,217.03" fill="#a03a52" stroke="none"/>
<polygon points="364.87,217.03 366.67,216.1 368.47,217.03 366.67,217.96" fill="#1c7a70" fill-opacity="0.85" stroke="none"/>
<circle cx="366.67" cy="217.03" r="0.49" fill="#b07d00"/>
<rect x="363.94" y="240.87" width="5.46" height="5.46" fill="#cdd2d8" stroke="#a4acb4" stroke-width="0.3"/>
<polygon points="365.04,241.37 365.64,241.97 365.04,242.57 364.44,241.97" fill="#b07d00" stroke="none"/>
<polygon points="365.04,244.64 365.64,245.24 365.04,245.84 364.44,245.24" fill="#b07d00" stroke="none"/>
<polygon points="368.31,241.37 368.91,241.97 368.31,242.57 367.71,241.97" fill="#b07d00" stroke="none"/>
<polygon points="368.31,244.64 368.91,245.24 368.31,245.84 367.71,245.24" fill="#b07d00" stroke="none"/>
<polygon points="366.67,241.8 367.6,243.6 366.67,245.4 365.75,243.6" fill="#a03a52" stroke="none"/>
<polygon points="364.87,243.6 366.67,242.67 368.47,243.6 366.67,244.53" fill="#1c7a70" fill-opacity="0.85" stroke="none"/>
<circle cx="366.67" cy="243.6" r="0.49" fill="#b07d00"/>
<rect x="215.67" y="261.02" width="146.28" height="8.86" rx="1.48" fill="#e8e2d6" stroke="#a4acb4" stroke-width="0.3"/>
<circle id="name_band_3" cx="288.81" cy="265.16" r="0.5" fill="none" stroke="none"/>
<circle cx="369.33" cy="186.02" r="7.68" fill="#c8cdd4" stroke="#a4acb4" stroke-width="0.4"/>
<circle id="param_scale_3" cx="369.33" cy="186.02" r="0.5" fill="none" stroke="none"/>
<circle id="lantern_3" cx="288.81" cy="121.45" r="0.5" fill="none" stroke="none"/>
<rect x="11.81" y="271.65" width="366.38" height="59.06" rx="2.95" fill="#c0c6cc" stroke="#a4acb4" stroke-width="0.5"/>
<path d="M 16.54 298.23 L 16.54 320.4 A 42.84 42.84 0 0 1 102.22 320.4 L 102.22 298.23 Z" fill="#dcdcdc" stroke="#c8cdd4" stroke-width="0.6"/>
<path d="M 106.95 298.23 L 106.95 320.4 A 42.84 42.84 0 0 1 192.64 320.4 L 192.64 298.23 Z" fill="#dcdcdc" stroke="#c8cdd4" stroke-width="0.6"/>
<path d="M 197.36 298.23 L 197.36 320.4 A 42.84 42.84 0 0 1 283.05 320.4 L 283.05 298.23 Z" fill="#dcdcdc" stroke="#c8cdd4" stroke-width="0.6"/>
<path d="M 287.78 298.23 L 287.78 320.4 A 42.84 42.84 0 0 1 373.46 320.4 L 373.46 298.23 Z" fill="#dcdcdc" stroke="#c8cdd4" stroke-width="0.6"/>
<circle cx="35.43" cy="317.42" r="8.86" fill="#e2ddd2" stroke="#b0a898" stroke-width="0.5"/>
<circle id="input_indexcv" cx="35.43" cy="317.42" r="0.5" fill="none" stroke="none"/>
<circle cx="70.87" cy="317.42" r="7.68" fill="#c8cdd4" stroke="#a4acb4" stroke-width="0.4"/>
<circle id="param_indexcvatt" cx="70.87" cy="317.42" r="0.5" fill="none" stroke="none"/>
<rect x="336.85" y="308.56" width="11.81" height="17.72" rx="1.48" fill="#e8e2d6" stroke="#a4acb4" stroke-width="0.4"/>
<circle id="param_conservation" cx="342.76" cy="317.42" r="0.5" fill="none" stroke="none"/>
<circle id="light_connect" cx="366.38" cy="317.42" r="0.5" fill="none" stroke="none"/>
</svg>