<svg xmlns="http://www.w3.org/2000/svg" width="420" height="380" viewBox="0 0 420 380">
<rect x="0" y="0" width="420" height="380" fill="#16181c"/>
<rect x="0" y="0" width="420" height="4" fill="#dc2626"/>
<circle cx="406" cy="14" r="5" fill="#dc2626"/>
<g transform="translate(252.00,66.00) scale(0.15120,0.14667)" opacity="0.744">
  
  
  
    
      <path d="M35 340 Q420 240 965 250" stroke="#2e333c" stroke-width="1.4" opacity="0.55" fill="none" stroke-linecap="round"/><path d="M40 300 Q420 205 950 225" stroke="#2e333c" stroke-width="1.4" opacity="0.55" fill="none" stroke-linecap="round"/><path d="M45 265 Q415 175 925 200" stroke="#2e333c" stroke-width="1.4" opacity="0.55" fill="none" stroke-linecap="round"/><path d="M55 230 Q410 145 890 178" stroke="#2e333c" stroke-width="1.4" opacity="0.55" fill="none" stroke-linecap="round"/><path d="M70 195 Q400 115 845 155" stroke="#2e333c" stroke-width="1.4" opacity="0.55" fill="none" stroke-linecap="round"/><path d="M90 160 Q380 88 790 138" stroke="#2e333c" stroke-width="1.4" opacity="0.55" fill="none" stroke-linecap="round"/><path d="M120 130 Q350 68 720 125" stroke="#2e333c" stroke-width="1.4" opacity="0.55" fill="none" stroke-linecap="round"/><path d="M155 102 Q320 52 650 118" stroke="#2e333c" stroke-width="1.4" opacity="0.55" fill="none" stroke-linecap="round"/>
    
    
      <ellipse cx="-40" cy="380" rx="140" ry="370" stroke="#2e333c" stroke-width="2" opacity="0.65" fill="none" stroke-linecap="round"/><ellipse cx="0" cy="380" rx="145" ry="370" stroke="#2e333c" stroke-width="2" opacity="0.65" fill="none" stroke-linecap="round"/><ellipse cx="40" cy="380" rx="150" ry="370" stroke="#2e333c" stroke-width="2" opacity="0.65" fill="none" stroke-linecap="round"/><ellipse cx="80" cy="380" rx="155" ry="370" stroke="#2e333c" stroke-width="2" opacity="0.65" fill="none" stroke-linecap="round"/><ellipse cx="120" cy="380" rx="160" ry="370" stroke="#2e333c" stroke-width="2" opacity="0.65" fill="none" stroke-linecap="round"/><ellipse cx="160" cy="380" rx="165" ry="370" stroke="#2e333c" stroke-width="2" opacity="0.65" fill="none" stroke-linecap="round"/><ellipse cx="200" cy="380" rx="170" ry="370" stroke="#2e333c" stroke-width="2" opacity="0.65" fill="none" stroke-linecap="round"/><ellipse cx="240" cy="380" rx="175" ry="370" stroke="#2e333c" stroke-width="2" opacity="0.65" fill="none" stroke-linecap="round"/><ellipse cx="280" cy="380" rx="180" ry="370" stroke="#2e333c" stroke-width="2" opacity="0.65" fill="none" stroke-linecap="round"/><ellipse cx="320" cy="380" rx="185" ry="370" stroke="#2e333c" stroke-width="2" opacity="0.65" fill="none" stroke-linecap="round"/><ellipse cx="360" cy="380" rx="190" ry="370" stroke="#2e333c" stroke-width="2" opacity="0.65" fill="none" stroke-linecap="round"/>
      <ellipse cx="420" cy="380" rx="180" ry="370" stroke="#2e333c" stroke-width="2" opacity="0.65" fill="none" stroke-linecap="round"/><ellipse cx="470" cy="380" rx="170" ry="370" stroke="#2e333c" stroke-width="2" opacity="0.65" fill="none" stroke-linecap="round"/><ellipse cx="520" cy="380" rx="160" ry="370" stroke="#2e333c" stroke-width="2" opacity="0.65" fill="none" stroke-linecap="round"/><ellipse cx="570" cy="380" rx="150" ry="370" stroke="#2e333c" stroke-width="2" opacity="0.65" fill="none" stroke-linecap="round"/><ellipse cx="620" cy="380" rx="140" ry="370" stroke="#2e333c" stroke-width="2" opacity="0.65" fill="none" stroke-linecap="round"/><ellipse cx="670" cy="380" rx="130" ry="370" stroke="#2e333c" stroke-width="2" opacity="0.65" fill="none" stroke-linecap="round"/><ellipse cx="720" cy="380" rx="120" ry="370" stroke="#2e333c" stroke-width="2" opacity="0.65" fill="none" stroke-linecap="round"/><ellipse cx="770" cy="380" rx="110" ry="370" stroke="#2e333c" stroke-width="2" opacity="0.65" fill="none" stroke-linecap="round"/><ellipse cx="820" cy="380" rx="100" ry="370" stroke="#2e333c" stroke-width="2" opacity="0.65" fill="none" stroke-linecap="round"/><ellipse cx="870" cy="380" rx="90" ry="370" stroke="#2e333c" stroke-width="2" opacity="0.65" fill="none" stroke-linecap="round"/><ellipse cx="920" cy="380" rx="80" ry="370" stroke="#2e333c" stroke-width="2" opacity="0.65" fill="none" stroke-linecap="round"/><ellipse cx="960" cy="380" rx="70" ry="370" stroke="#2e333c" stroke-width="2" opacity="0.65" fill="none" stroke-linecap="round"/>
    
    
      <path d="M70 330 L120 280 L170 330 M170 330 L220 280 L270 330 M270 330 L320 280 L370 330 M370 330 L420 280 L470 330 M470 330 L520 280 L570 330 M570 330 L620 280 L670 330 M670 330 L720 280 L770 330" stroke="#d8d8dc" stroke-width="1" opacity="0.13" fill="none" stroke-linecap="round"/>
      <path d="M120 250 L170 205 L220 250 M220 250 L270 205 L320 250 M320 250 L370 205 L420 250 M420 250 L470 205 L520 250 M520 250 L570 205 L620 250" stroke="#d8d8dc" stroke-width="1" opacity="0.13" fill="none" stroke-linecap="round"/>
    
  
  
  <path d="M0 0 L1000 0 L1000 250
           C900 125 720 45 500 42
           C240 45 40 120 35 340
           L0 340 Z" fill="#16181c"/>
  
  <path d="M0 343 L1000 343 L1000 450 L0 450 Z" fill="#16181c"/>
  
  <path d="M965 250 L1000 250 L1000 343 L965 343 Z" fill="#16181c"/>
  
  <path d="M35 340 C40 120 240 45 500 42 C720 45 900 125 965 250" fill="none" stroke="#2e333c" stroke-width="6" stroke-linecap="round"/>
  <path d="M18 342 L840 285" fill="none" stroke="#2e333c" stroke-width="10" stroke-linecap="round"/>
  <path d="M35 405 L760 375" fill="none" stroke="#2e333c" stroke-width="9" stroke-linecap="round"/>
  
    <polyline points="40,403 75,404 130,340 195,395 250,392 325,330 395,385 455,382 540,318 615,374 675,370 760,285" stroke="#2e333c" stroke-width="10" fill="none" stroke-linejoin="round" stroke-linecap="round"/>
    <path d="M130 340 L130 398 M325 330 L325 388 M540 318 L540 380" stroke="#2e333c" stroke-width="10" fill="none" stroke-linejoin="round" stroke-linecap="round"/>
  
  <polygon points="760,288 980,270 980,280 790,295" fill="#2e333c"/>
  <polygon points="790,295 980,295 980,340 855,340 855,360 735,360 735,350 790,347" fill="#16181c"/>
  <rect x="845" y="312" width="120" height="10" fill="#16181c"/>
  <ellipse cx="470" cy="420" rx="410" ry="16" fill="#16181c" opacity="0.5"/>

</g>
<path d="M 15.0 312.0 C 22.6 307.3 37.8 307.3 45.5 312.0 C 53.1 316.7 68.3 316.7 75.9 312.0 C 83.5 307.3 98.7 307.3 106.3 312.0 C 114.0 316.7 129.2 316.7 136.8 312.0 C 144.4 307.3 159.6 307.3 167.2 312.0 C 174.9 316.7 190.1 316.7 197.7 312.0 C 205.3 307.3 220.5 307.3 228.2 312.0 C 235.8 316.7 251.0 316.7 258.6 312.0 " fill="none" stroke="#333944" stroke-width="1.5" stroke-opacity="0.4"/><path d="M 15.0 321.4 C 22.6 316.7 37.8 316.7 45.5 321.4 C 53.1 326.1 68.3 326.1 75.9 321.4 C 83.5 316.7 98.7 316.7 106.3 321.4 C 114.0 326.1 129.2 326.1 136.8 321.4 C 144.4 316.7 159.6 316.7 167.2 321.4 C 174.9 326.1 190.1 326.1 197.7 321.4 C 205.3 316.7 220.5 316.7 228.2 321.4 C 235.8 326.1 251.0 326.1 258.6 321.4 " fill="none" stroke="#333944" stroke-width="1.5" stroke-opacity="0.4"/><path d="M 15.0 330.8 C 22.6 326.1 37.8 326.1 45.5 330.8 C 53.1 335.5 68.3 335.5 75.9 330.8 C 83.5 326.1 98.7 326.1 106.3 330.8 C 114.0 335.5 129.2 335.5 136.8 330.8 C 144.4 326.1 159.6 326.1 167.2 330.8 C 174.9 335.5 190.1 335.5 197.7 330.8 C 205.3 326.1 220.5 326.1 228.2 330.8 C 235.8 335.5 251.0 335.5 258.6 330.8 " fill="none" stroke="#333944" stroke-width="1.5" stroke-opacity="0.4"/><path d="M 15.0 340.2 C 22.6 335.5 37.8 335.5 45.5 340.2 C 53.1 344.9 68.3 344.9 75.9 340.2 C 83.5 335.5 98.7 335.5 106.3 340.2 C 114.0 344.9 129.2 344.9 136.8 340.2 C 144.4 335.5 159.6 335.5 167.2 340.2 C 174.9 344.9 190.1 344.9 197.7 340.2 C 205.3 335.5 220.5 335.5 228.2 340.2 C 235.8 344.9 251.0 344.9 258.6 340.2 " fill="none" stroke="#333944" stroke-width="1.5" stroke-opacity="0.4"/>
<text x="14" y="30" fill="#d8d8dc" font-family="sans-serif" font-size="13" font-weight="700">STRAITS EAST</text>
<text x="14" y="44" fill="#8a8f98" font-family="sans-serif" font-size="9">VOICES 1-8</text>
<text x="38.0" y="30.0" fill="#8a8f98" font-family="sans-serif" font-size="8" text-anchor="middle">LVL</text>
<text x="81.0" y="30.0" fill="#8a8f98" font-family="sans-serif" font-size="8" text-anchor="middle">ATT</text>
<text x="124.0" y="30.0" fill="#8a8f98" font-family="sans-serif" font-size="8" text-anchor="middle">MOD</text>
<text x="167.0" y="30.0" fill="#8a8f98" font-family="sans-serif" font-size="8" text-anchor="middle">GATE</text>
<text x="210.0" y="30.0" fill="#8a8f98" font-family="sans-serif" font-size="8" text-anchor="middle">CV</text>
<text x="253.0" y="30.0" fill="#8a8f98" font-family="sans-serif" font-size="8" text-anchor="middle">ACC</text>
<text x="296.0" y="30.0" fill="#8a8f98" font-family="sans-serif" font-size="8" text-anchor="middle">A·ATT</text>
<text x="339.0" y="30.0" fill="#8a8f98" font-family="sans-serif" font-size="8" text-anchor="middle">A·MOD</text>
<text x="382.0" y="30.0" fill="#8a8f98" font-family="sans-serif" font-size="8" text-anchor="middle">A·CV</text>
<g>
<line x1="7.0" y1="32.0" x2="7.0" y2="310.0" stroke="#1f7a5a" stroke-width="1.3" opacity="0.42"/><line x1="9.6" y1="32.0" x2="9.6" y2="310.0" stroke="#1f7a5a" stroke-width="0.7" opacity="0.21"/><path d="M4.4 42.0 L8.3 38.4 L12.2 42.0 L8.3 45.6 Z" fill="none" stroke="#1f7a5a" stroke-width="0.7" opacity="0.34"/><path d="M4.4 72.0 L8.3 68.4 L12.2 72.0 L8.3 75.6 Z" fill="none" stroke="#1f7a5a" stroke-width="0.7" opacity="0.34"/><path d="M4.4 102.0 L8.3 98.4 L12.2 102.0 L8.3 105.6 Z" fill="none" stroke="#1f7a5a" stroke-width="0.7" opacity="0.34"/><path d="M4.4 132.0 L8.3 128.4 L12.2 132.0 L8.3 135.6 Z" fill="none" stroke="#1f7a5a" stroke-width="0.7" opacity="0.34"/><path d="M4.4 162.0 L8.3 158.4 L12.2 162.0 L8.3 165.6 Z" fill="none" stroke="#1f7a5a" stroke-width="0.7" opacity="0.34"/><path d="M4.4 192.0 L8.3 188.4 L12.2 192.0 L8.3 195.6 Z" fill="none" stroke="#1f7a5a" stroke-width="0.7" opacity="0.34"/><path d="M4.4 222.0 L8.3 218.4 L12.2 222.0 L8.3 225.6 Z" fill="none" stroke="#1f7a5a" stroke-width="0.7" opacity="0.34"/><path d="M4.4 252.0 L8.3 248.4 L12.2 252.0 L8.3 255.6 Z" fill="none" stroke="#1f7a5a" stroke-width="0.7" opacity="0.34"/><path d="M4.4 282.0 L8.3 278.4 L12.2 282.0 L8.3 285.6 Z" fill="none" stroke="#1f7a5a" stroke-width="0.7" opacity="0.34"/>
<line x1="413.0" y1="32.0" x2="413.0" y2="310.0" stroke="#1f7a5a" stroke-width="1.3" opacity="0.42"/><line x1="415.6" y1="32.0" x2="415.6" y2="310.0" stroke="#1f7a5a" stroke-width="0.7" opacity="0.21"/><path d="M410.4 42.0 L414.3 38.4 L418.2 42.0 L414.3 45.6 Z" fill="none" stroke="#1f7a5a" stroke-width="0.7" opacity="0.34"/><path d="M410.4 72.0 L414.3 68.4 L418.2 72.0 L414.3 75.6 Z" fill="none" stroke="#1f7a5a" stroke-width="0.7" opacity="0.34"/><path d="M410.4 102.0 L414.3 98.4 L418.2 102.0 L414.3 105.6 Z" fill="none" stroke="#1f7a5a" stroke-width="0.7" opacity="0.34"/><path d="M410.4 132.0 L414.3 128.4 L418.2 132.0 L414.3 135.6 Z" fill="none" stroke="#1f7a5a" stroke-width="0.7" opacity="0.34"/><path d="M410.4 162.0 L414.3 158.4 L418.2 162.0 L414.3 165.6 Z" fill="none" stroke="#1f7a5a" stroke-width="0.7" opacity="0.34"/><path d="M410.4 192.0 L414.3 188.4 L418.2 192.0 L414.3 195.6 Z" fill="none" stroke="#1f7a5a" stroke-width="0.7" opacity="0.34"/><path d="M410.4 222.0 L414.3 218.4 L418.2 222.0 L414.3 225.6 Z" fill="none" stroke="#1f7a5a" stroke-width="0.7" opacity="0.34"/><path d="M410.4 252.0 L414.3 248.4 L418.2 252.0 L414.3 255.6 Z" fill="none" stroke="#1f7a5a" stroke-width="0.7" opacity="0.34"/><path d="M410.4 282.0 L414.3 278.4 L418.2 282.0 L414.3 285.6 Z" fill="none" stroke="#1f7a5a" stroke-width="0.7" opacity="0.34"/>
<text x="16.0" y="53.0" fill="#8a8f98" font-family="sans-serif" font-size="9" text-anchor="end">V2</text>
<circle cx="38.0" cy="50.0" r="8.0" fill="#0f1114" stroke="#3a4048" stroke-width="1.2"/>
<circle cx="81.0" cy="50.0" r="8.0" fill="#0f1114" stroke="#3a4048" stroke-width="1.2"/>
<circle cx="124.0" cy="50.0" r="9.0" fill="#0b0d10" stroke="#4a5058" stroke-width="1.2"/>
<circle cx="167.0" cy="50.0" r="9.0" fill="#0b0d10" stroke="#4a5058" stroke-width="1.2"/>
<circle cx="210.0" cy="50.0" r="9.0" fill="#0b0d10" stroke="#4a5058" stroke-width="1.2"/>
<circle cx="253.0" cy="50.0" r="8.0" fill="#0f1114" stroke="#3a4048" stroke-width="1.2"/>
<circle cx="296.0" cy="50.0" r="8.0" fill="#0f1114" stroke="#3a4048" stroke-width="1.2"/>
<circle cx="339.0" cy="50.0" r="9.0" fill="#0b0d10" stroke="#4a5058" stroke-width="1.2"/>
<circle cx="382.0" cy="50.0" r="9.0" fill="#0b0d10" stroke="#4a5058" stroke-width="1.2"/>
<text x="16.0" y="88.0" fill="#8a8f98" font-family="sans-serif" font-size="9" text-anchor="end">V3</text>
<circle cx="38.0" cy="85.0" r="8.0" fill="#0f1114" stroke="#3a4048" stroke-width="1.2"/>
<circle cx="81.0" cy="85.0" r="8.0" fill="#0f1114" stroke="#3a4048" stroke-width="1.2"/>
<circle cx="124.0" cy="85.0" r="9.0" fill="#0b0d10" stroke="#4a5058" stroke-width="1.2"/>
<circle cx="167.0" cy="85.0" r="9.0" fill="#0b0d10" stroke="#4a5058" stroke-width="1.2"/>
<circle cx="210.0" cy="85.0" r="9.0" fill="#0b0d10" stroke="#4a5058" stroke-width="1.2"/>
<circle cx="253.0" cy="85.0" r="8.0" fill="#0f1114" stroke="#3a4048" stroke-width="1.2"/>
<circle cx="296.0" cy="85.0" r="8.0" fill="#0f1114" stroke="#3a4048" stroke-width="1.2"/>
<circle cx="339.0" cy="85.0" r="9.0" fill="#0b0d10" stroke="#4a5058" stroke-width="1.2"/>
<circle cx="382.0" cy="85.0" r="9.0" fill="#0b0d10" stroke="#4a5058" stroke-width="1.2"/>
<text x="16.0" y="123.0" fill="#8a8f98" font-family="sans-serif" font-size="9" text-anchor="end">V4</text>
<circle cx="38.0" cy="120.0" r="8.0" fill="#0f1114" stroke="#3a4048" stroke-width="1.2"/>
<circle cx="81.0" cy="120.0" r="8.0" fill="#0f1114" stroke="#3a4048" stroke-width="1.2"/>
<circle cx="124.0" cy="120.0" r="9.0" fill="#0b0d10" stroke="#4a5058" stroke-width="1.2"/>
<circle cx="167.0" cy="120.0" r="9.0" fill="#0b0d10" stroke="#4a5058" stroke-width="1.2"/>
<circle cx="210.0" cy="120.0" r="9.0" fill="#0b0d10" stroke="#4a5058" stroke-width="1.2"/>
<circle cx="253.0" cy="120.0" r="8.0" fill="#0f1114" stroke="#3a4048" stroke-width="1.2"/>
<circle cx="296.0" cy="120.0" r="8.0" fill="#0f1114" stroke="#3a4048" stroke-width="1.2"/>
<circle cx="339.0" cy="120.0" r="9.0" fill="#0b0d10" stroke="#4a5058" stroke-width="1.2"/>
<circle cx="382.0" cy="120.0" r="9.0" fill="#0b0d10" stroke="#4a5058" stroke-width="1.2"/>
<text x="16.0" y="158.0" fill="#8a8f98" font-family="sans-serif" font-size="9" text-anchor="end">V5</text>
<circle cx="38.0" cy="155.0" r="8.0" fill="#0f1114" stroke="#3a4048" stroke-width="1.2"/>
<circle cx="81.0" cy="155.0" r="8.0" fill="#0f1114" stroke="#3a4048" stroke-width="1.2"/>
<circle cx="124.0" cy="155.0" r="9.0" fill="#0b0d10" stroke="#4a5058" stroke-width="1.2"/>
<circle cx="167.0" cy="155.0" r="9.0" fill="#0b0d10" stroke="#4a5058" stroke-width="1.2"/>
<circle cx="210.0" cy="155.0" r="9.0" fill="#0b0d10" stroke="#4a5058" stroke-width="1.2"/>
<circle cx="253.0" cy="155.0" r="8.0" fill="#0f1114" stroke="#3a4048" stroke-width="1.2"/>
<circle cx="296.0" cy="155.0" r="8.0" fill="#0f1114" stroke="#3a4048" stroke-width="1.2"/>
<circle cx="339.0" cy="155.0" r="9.0" fill="#0b0d10" stroke="#4a5058" stroke-width="1.2"/>
<circle cx="382.0" cy="155.0" r="9.0" fill="#0b0d10" stroke="#4a5058" stroke-width="1.2"/>
<text x="16.0" y="193.0" fill="#8a8f98" font-family="sans-serif" font-size="9" text-anchor="end">V6</text>
<circle cx="38.0" cy="190.0" r="8.0" fill="#0f1114" stroke="#3a4048" stroke-width="1.2"/>
<circle cx="81.0" cy="190.0" r="8.0" fill="#0f1114" stroke="#3a4048" stroke-width="1.2"/>
<circle cx="124.0" cy="190.0" r="9.0" fill="#0b0d10" stroke="#4a5058" stroke-width="1.2"/>
<circle cx="167.0" cy="190.0" r="9.0" fill="#0b0d10" stroke="#4a5058" stroke-width="1.2"/>
<circle cx="210.0" cy="190.0" r="9.0" fill="#0b0d10" stroke="#4a5058" stroke-width="1.2"/>
<circle cx="253.0" cy="190.0" r="8.0" fill="#0f1114" stroke="#3a4048" stroke-width="1.2"/>
<circle cx="296.0" cy="190.0" r="8.0" fill="#0f1114" stroke="#3a4048" stroke-width="1.2"/>
<circle cx="339.0" cy="190.0" r="9.0" fill="#0b0d10" stroke="#4a5058" stroke-width="1.2"/>
<circle cx="382.0" cy="190.0" r="9.0" fill="#0b0d10" stroke="#4a5058" stroke-width="1.2"/>
<text x="16.0" y="228.0" fill="#8a8f98" font-family="sans-serif" font-size="9" text-anchor="end">V7</text>
<circle cx="38.0" cy="225.0" r="8.0" fill="#0f1114" stroke="#3a4048" stroke-width="1.2"/>
<circle cx="81.0" cy="225.0" r="8.0" fill="#0f1114" stroke="#3a4048" stroke-width="1.2"/>
<circle cx="124.0" cy="225.0" r="9.0" fill="#0b0d10" stroke="#4a5058" stroke-width="1.2"/>
<circle cx="167.0" cy="225.0" r="9.0" fill="#0b0d10" stroke="#4a5058" stroke-width="1.2"/>
<circle cx="210.0" cy="225.0" r="9.0" fill="#0b0d10" stroke="#4a5058" stroke-width="1.2"/>
<circle cx="253.0" cy="225.0" r="8.0" fill="#0f1114" stroke="#3a4048" stroke-width="1.2"/>
<circle cx="296.0" cy="225.0" r="8.0" fill="#0f1114" stroke="#3a4048" stroke-width="1.2"/>
<circle cx="339.0" cy="225.0" r="9.0" fill="#0b0d10" stroke="#4a5058" stroke-width="1.2"/>
<circle cx="382.0" cy="225.0" r="9.0" fill="#0b0d10" stroke="#4a5058" stroke-width="1.2"/>
<text x="16.0" y="263.0" fill="#8a8f98" font-family="sans-serif" font-size="9" text-anchor="end">V8</text>
<circle cx="38.0" cy="260.0" r="8.0" fill="#0f1114" stroke="#3a4048" stroke-width="1.2"/>
<circle cx="81.0" cy="260.0" r="8.0" fill="#0f1114" stroke="#3a4048" stroke-width="1.2"/>
<circle cx="124.0" cy="260.0" r="9.0" fill="#0b0d10" stroke="#4a5058" stroke-width="1.2"/>
<circle cx="167.0" cy="260.0" r="9.0" fill="#0b0d10" stroke="#4a5058" stroke-width="1.2"/>
<circle cx="210.0" cy="260.0" r="9.0" fill="#0b0d10" stroke="#4a5058" stroke-width="1.2"/>
<circle cx="253.0" cy="260.0" r="8.0" fill="#0f1114" stroke="#3a4048" stroke-width="1.2"/>
<circle cx="296.0" cy="260.0" r="8.0" fill="#0f1114" stroke="#3a4048" stroke-width="1.2"/>
<circle cx="339.0" cy="260.0" r="9.0" fill="#0b0d10" stroke="#4a5058" stroke-width="1.2"/>
<circle cx="382.0" cy="260.0" r="9.0" fill="#0b0d10" stroke="#4a5058" stroke-width="1.2"/>
<circle cx="124.0" cy="300.0" r="9.0" fill="#0b0d10" stroke="#4a5058" stroke-width="1.2"/>
<circle cx="167.0" cy="300.0" r="9.0" fill="#0b0d10" stroke="#4a5058" stroke-width="1.2"/>
<circle cx="210.0" cy="300.0" r="9.0" fill="#0b0d10" stroke="#4a5058" stroke-width="1.2"/>
<circle cx="339.0" cy="300.0" r="9.0" fill="#0b0d10" stroke="#4a5058" stroke-width="1.2"/>
</g>
<g id="components">
<circle id="param_knob_0" cx="38.00" cy="50.00" r="0.5" fill="none" stroke="none"/>
<circle id="param_att_0" cx="81.00" cy="50.00" r="0.5" fill="none" stroke="none"/>
<circle id="input_modcv_0" cx="124.00" cy="50.00" r="0.5" fill="none" stroke="none"/>
<circle id="output_gate_0" cx="167.00" cy="50.00" r="0.5" fill="none" stroke="none"/>
<circle id="output_cv_0" cx="210.00" cy="50.00" r="0.5" fill="none" stroke="none"/>
<circle id="param_accknob_0" cx="253.00" cy="50.00" r="0.5" fill="none" stroke="none"/>
<circle id="param_accatt_0" cx="296.00" cy="50.00" r="0.5" fill="none" stroke="none"/>
<circle id="input_accmodcv_0" cx="339.00" cy="50.00" r="0.5" fill="none" stroke="none"/>
<circle id="output_acc_0" cx="382.00" cy="50.00" r="0.5" fill="none" stroke="none"/>
<circle id="param_knob_1" cx="38.00" cy="85.00" r="0.5" fill="none" stroke="none"/>
<circle id="param_att_1" cx="81.00" cy="85.00" r="0.5" fill="none" stroke="none"/>
<circle id="input_modcv_1" cx="124.00" cy="85.00" r="0.5" fill="none" stroke="none"/>
<circle id="output_gate_1" cx="167.00" cy="85.00" r="0.5" fill="none" stroke="none"/>
<circle id="output_cv_1" cx="210.00" cy="85.00" r="0.5" fill="none" stroke="none"/>
<circle id="param_accknob_1" cx="253.00" cy="85.00" r="0.5" fill="none" stroke="none"/>
<circle id="param_accatt_1" cx="296.00" cy="85.00" r="0.5" fill="none" stroke="none"/>
<circle id="input_accmodcv_1" cx="339.00" cy="85.00" r="0.5" fill="none" stroke="none"/>
<circle id="output_acc_1" cx="382.00" cy="85.00" r="0.5" fill="none" stroke="none"/>
<circle id="param_knob_2" cx="38.00" cy="120.00" r="0.5" fill="none" stroke="none"/>
<circle id="param_att_2" cx="81.00" cy="120.00" r="0.5" fill="none" stroke="none"/>
<circle id="input_modcv_2" cx="124.00" cy="120.00" r="0.5" fill="none" stroke="none"/>
<circle id="output_gate_2" cx="167.00" cy="120.00" r="0.5" fill="none" stroke="none"/>
<circle id="output_cv_2" cx="210.00" cy="120.00" r="0.5" fill="none" stroke="none"/>
<circle id="param_accknob_2" cx="253.00" cy="120.00" r="0.5" fill="none" stroke="none"/>
<circle id="param_accatt_2" cx="296.00" cy="120.00" r="0.5" fill="none" stroke="none"/>
<circle id="input_accmodcv_2" cx="339.00" cy="120.00" r="0.5" fill="none" stroke="none"/>
<circle id="output_acc_2" cx="382.00" cy="120.00" r="0.5" fill="none" stroke="none"/>
<circle id="param_knob_3" cx="38.00" cy="155.00" r="0.5" fill="none" stroke="none"/>
<circle id="param_att_3" cx="81.00" cy="155.00" r="0.5" fill="none" stroke="none"/>
<circle id="input_modcv_3" cx="124.00" cy="155.00" r="0.5" fill="none" stroke="none"/>
<circle id="output_gate_3" cx="167.00" cy="155.00" r="0.5" fill="none" stroke="none"/>
<circle id="output_cv_3" cx="210.00" cy="155.00" r="0.5" fill="none" stroke="none"/>
<circle id="param_accknob_3" cx="253.00" cy="155.00" r="0.5" fill="none" stroke="none"/>
<circle id="param_accatt_3" cx="296.00" cy="155.00" r="0.5" fill="none" stroke="none"/>
<circle id="input_accmodcv_3" cx="339.00" cy="155.00" r="0.5" fill="none" stroke="none"/>
<circle id="output_acc_3" cx="382.00" cy="155.00" r="0.5" fill="none" stroke="none"/>
<circle id="param_knob_4" cx="38.00" cy="190.00" r="0.5" fill="none" stroke="none"/>
<circle id="param_att_4" cx="81.00" cy="190.00" r="0.5" fill="none" stroke="none"/>
<circle id="input_modcv_4" cx="124.00" cy="190.00" r="0.5" fill="none" stroke="none"/>
<circle id="output_gate_4" cx="167.00" cy="190.00" r="0.5" fill="none" stroke="none"/>
<circle id="output_cv_4" cx="210.00" cy="190.00" r="0.5" fill="none" stroke="none"/>
<circle id="param_accknob_4" cx="253.00" cy="190.00" r="0.5" fill="none" stroke="none"/>
<circle id="param_accatt_4" cx="296.00" cy="190.00" r="0.5" fill="none" stroke="none"/>
<circle id="input_accmodcv_4" cx="339.00" cy="190.00" r="0.5" fill="none" stroke="none"/>
<circle id="output_acc_4" cx="382.00" cy="190.00" r="0.5" fill="none" stroke="none"/>
<circle id="param_knob_5" cx="38.00" cy="225.00" r="0.5" fill="none" stroke="none"/>
<circle id="param_att_5" cx="81.00" cy="225.00" r="0.5" fill="none" stroke="none"/>
<circle id="input_modcv_5" cx="124.00" cy="225.00" r="0.5" fill="none" stroke="none"/>
<circle id="output_gate_5" cx="167.00" cy="225.00" r="0.5" fill="none" stroke="none"/>
<circle id="output_cv_5" cx="210.00" cy="225.00" r="0.5" fill="none" stroke="none"/>
<circle id="param_accknob_5" cx="253.00" cy="225.00" r="0.5" fill="none" stroke="none"/>
<circle id="param_accatt_5" cx="296.00" cy="225.00" r="0.5" fill="none" stroke="none"/>
<circle id="input_accmodcv_5" cx="339.00" cy="225.00" r="0.5" fill="none" stroke="none"/>
<circle id="output_acc_5" cx="382.00" cy="225.00" r="0.5" fill="none" stroke="none"/>
<circle id="param_knob_6" cx="38.00" cy="260.00" r="0.5" fill="none" stroke="none"/>
<circle id="param_att_6" cx="81.00" cy="260.00" r="0.5" fill="none" stroke="none"/>
<circle id="input_modcv_6" cx="124.00" cy="260.00" r="0.5" fill="none" stroke="none"/>
<circle id="output_gate_6" cx="167.00" cy="260.00" r="0.5" fill="none" stroke="none"/>
<circle id="output_cv_6" cx="210.00" cy="260.00" r="0.5" fill="none" stroke="none"/>
<circle id="param_accknob_6" cx="253.00" cy="260.00" r="0.5" fill="none" stroke="none"/>
<circle id="param_accatt_6" cx="296.00" cy="260.00" r="0.5" fill="none" stroke="none"/>
<circle id="input_accmodcv_6" cx="339.00" cy="260.00" r="0.5" fill="none" stroke="none"/>
<circle id="output_acc_6" cx="382.00" cy="260.00" r="0.5" fill="none" stroke="none"/>
<circle id="input_global_modcv" cx="124.00" cy="300.00" r="0.5" fill="none" stroke="none"/>
<circle id="output_global_gate" cx="167.00" cy="300.00" r="0.5" fill="none" stroke="none"/>
<circle id="output_global_cv" cx="210.00" cy="300.00" r="0.5" fill="none" stroke="none"/>
<circle id="input_global_acc_cv" cx="339.00" cy="300.00" r="0.5" fill="none" stroke="none"/>
<circle id="light_connect" cx="210.00" cy="360.00" r="0.5" fill="none" stroke="none"/>
</g>
</svg>