<svg xmlns="http://www.w3.org/2000/svg" width="390" height="380" viewBox="0 0 390 380">
<rect x="0" y="0" width="390" height="380" fill="#16181c"/>
<rect x="0" y="0" width="390" height="4" fill="#dc2626"/>
<circle cx="376" cy="14" r="5" fill="#dc2626"/>
<g opacity="0.5" stroke="#2e333c" stroke-width="1.2" fill="none"><polyline points="125.0,250.0 131.4,246.0 137.7,242.4 144.1,239.2 150.5,236.3 156.8,233.8 163.2,231.8 169.5,230.0 175.9,228.7 182.3,227.8 188.6,227.2 195.0,227.0 201.4,227.2 207.7,227.8 214.1,228.7 220.5,230.0 226.8,231.8 233.2,233.8 239.5,236.3 245.9,239.2 252.3,242.4 258.6,246.0 265.0,250.0"/><line x1="164.2" y1="250.0" x2="164.2" y2="215.9"/><line x1="195.0" y1="250.0" x2="195.0" y2="207.7"/><line x1="225.8" y1="250.0" x2="225.8" y2="215.9"/></g>
<text x="14" y="30" fill="#d8d8dc" font-family="sans-serif" font-size="13" font-weight="700">STRAITS EAST</text>
<text x="14" y="44" fill="#8a8f98" font-family="sans-serif" font-size="9">VOICES 1-8</text>
<g>
<circle cx="48.0" cy="50.0" r="8.0" fill="#0f1114" stroke="#3a4048" stroke-width="1.2"/>
<circle cx="102.0" cy="50.0" r="8.0" fill="#0f1114" stroke="#3a4048" stroke-width="1.2"/>
<circle cx="168.0" cy="50.0" r="9.0" fill="#0b0d10" stroke="#4a5058" stroke-width="1.2"/>
<circle cx="234.0" cy="50.0" r="9.0" fill="#0b0d10" stroke="#4a5058" stroke-width="1.2"/>
<circle cx="288.0" cy="50.0" r="9.0" fill="#0b0d10" stroke="#4a5058" stroke-width="1.2"/>
<circle cx="342.0" cy="50.0" r="9.0" fill="#0b0d10" stroke="#4a5058" stroke-width="1.2"/>
<circle cx="48.0" cy="85.0" r="8.0" fill="#0f1114" stroke="#3a4048" stroke-width="1.2"/>
<circle cx="102.0" cy="85.0" r="8.0" fill="#0f1114" stroke="#3a4048" stroke-width="1.2"/>
<circle cx="168.0" cy="85.0" r="9.0" fill="#0b0d10" stroke="#4a5058" stroke-width="1.2"/>
<circle cx="234.0" cy="85.0" r="9.0" fill="#0b0d10" stroke="#4a5058" stroke-width="1.2"/>
<circle cx="288.0" cy="85.0" r="9.0" fill="#0b0d10" stroke="#4a5058" stroke-width="1.2"/>
<circle cx="342.0" cy="85.0" r="9.0" fill="#0b0d10" stroke="#4a5058" stroke-width="1.2"/>
<circle cx="48.0" cy="120.0" r="8.0" fill="#0f1114" stroke="#3a4048" stroke-width="1.2"/>
<circle cx="102.0" cy="120.0" r="8.0" fill="#0f1114" stroke="#3a4048" stroke-width="1.2"/>
<circle cx="168.0" cy="120.0" r="9.0" fill="#0b0d10" stroke="#4a5058" stroke-width="1.2"/>
<circle cx="234.0" cy="120.0" r="9.0" fill="#0b0d10" stroke="#4a5058" stroke-width="1.2"/>
<circle cx="288.0" cy="120.0" r="9.0" fill="#0b0d10" stroke="#4a5058" stroke-width="1.2"/>
<circle cx="342.0" cy="120.0" r="9.0" fill="#0b0d10" stroke="#4a5058" stroke-width="1.2"/>
<circle cx="48.0" cy="155.0" r="8.0" fill="#0f1114" stroke="#3a4048" stroke-width="1.2"/>
<circle cx="102.0" cy="155.0" r="8.0" fill="#0f1114" stroke="#3a4048" stroke-width="1.2"/>
<circle cx="168.0" cy="155.0" r="9.0" fill="#0b0d10" stroke="#4a5058" stroke-width="1.2"/>
<circle cx="234.0" cy="155.0" r="9.0" fill="#0b0d10" stroke="#4a5058" stroke-width="1.2"/>
<circle cx="288.0" cy="155.0" r="9.0" fill="#0b0d10" stroke="#4a5058" stroke-width="1.2"/>
<circle cx="342.0" cy="155.0" r="9.0" fill="#0b0d10" stroke="#4a5058" stroke-width="1.2"/>
<circle cx="48.0" cy="190.0" r="8.0" fill="#0f1114" stroke="#3a4048" stroke-width="1.2"/>
<circle cx="102.0" cy="190.0" r="8.0" fill="#0f1114" stroke="#3a4048" stroke-width="1.2"/>
<circle cx="168.0" cy="190.0" r="9.0" fill="#0b0d10" stroke="#4a5058" stroke-width="1.2"/>
<circle cx="234.0" cy="190.0" r="9.0" fill="#0b0d10" stroke="#4a5058" stroke-width="1.2"/>
<circle cx="288.0" cy="190.0" r="9.0" fill="#0b0d10" stroke="#4a5058" stroke-width="1.2"/>
<circle cx="342.0" cy="190.0" r="9.0" fill="#0b0d10" stroke="#4a5058" stroke-width="1.2"/>
<circle cx="48.0" cy="225.0" r="8.0" fill="#0f1114" stroke="#3a4048" stroke-width="1.2"/>
<circle cx="102.0" cy="225.0" r="8.0" fill="#0f1114" stroke="#3a4048" stroke-width="1.2"/>
<circle cx="168.0" cy="225.0" r="9.0" fill="#0b0d10" stroke="#4a5058" stroke-width="1.2"/>
<circle cx="234.0" cy="225.0" r="9.0" fill="#0b0d10" stroke="#4a5058" stroke-width="1.2"/>
<circle cx="288.0" cy="225.0" r="9.0" fill="#0b0d10" stroke="#4a5058" stroke-width="1.2"/>
<circle cx="342.0" cy="225.0" r="9.0" fill="#0b0d10" stroke="#4a5058" stroke-width="1.2"/>
<circle cx="48.0" cy="260.0" r="8.0" fill="#0f1114" stroke="#3a4048" stroke-width="1.2"/>
<circle cx="102.0" cy="260.0" r="8.0" fill="#0f1114" stroke="#3a4048" stroke-width="1.2"/>
<circle cx="168.0" cy="260.0" r="9.0" fill="#0b0d10" stroke="#4a5058" stroke-width="1.2"/>
<circle cx="234.0" cy="260.0" r="9.0" fill="#0b0d10" stroke="#4a5058" stroke-width="1.2"/>
<circle cx="288.0" cy="260.0" r="9.0" fill="#0b0d10" stroke="#4a5058" stroke-width="1.2"/>
<circle cx="342.0" cy="260.0" r="9.0" fill="#0b0d10" stroke="#4a5058" stroke-width="1.2"/>
<circle cx="48.0" cy="295.0" r="8.0" fill="#0f1114" stroke="#3a4048" stroke-width="1.2"/>
<circle cx="102.0" cy="295.0" r="8.0" fill="#0f1114" stroke="#3a4048" stroke-width="1.2"/>
<circle cx="168.0" cy="295.0" r="9.0" fill="#0b0d10" stroke="#4a5058" stroke-width="1.2"/>
<circle cx="234.0" cy="295.0" r="9.0" fill="#0b0d10" stroke="#4a5058" stroke-width="1.2"/>
<circle cx="288.0" cy="295.0" r="9.0" fill="#0b0d10" stroke="#4a5058" stroke-width="1.2"/>
<circle cx="342.0" cy="295.0" r="9.0" fill="#0b0d10" stroke="#4a5058" stroke-width="1.2"/>
<circle cx="168.0" cy="300.0" r="9.0" fill="#0b0d10" stroke="#4a5058" stroke-width="1.2"/>
<circle cx="234.0" cy="300.0" r="9.0" fill="#0b0d10" stroke="#4a5058" stroke-width="1.2"/>
<circle cx="288.0" cy="300.0" r="9.0" fill="#0b0d10" stroke="#4a5058" stroke-width="1.2"/>
</g>
<g id="components">
<circle id="param_knob_0" cx="48.00" cy="50.00" r="0.5" fill="none" stroke="none"/>
<circle id="param_att_0" cx="102.00" cy="50.00" r="0.5" fill="none" stroke="none"/>
<circle id="input_modcv_0" cx="168.00" cy="50.00" r="0.5" fill="none" stroke="none"/>
<circle id="output_gate_0" cx="234.00" cy="50.00" r="0.5" fill="none" stroke="none"/>
<circle id="output_cv_0" cx="288.00" cy="50.00" r="0.5" fill="none" stroke="none"/>
<circle id="output_acc_0" cx="342.00" cy="50.00" r="0.5" fill="none" stroke="none"/>
<circle id="param_knob_1" cx="48.00" cy="85.00" r="0.5" fill="none" stroke="none"/>
<circle id="param_att_1" cx="102.00" cy="85.00" r="0.5" fill="none" stroke="none"/>
<circle id="input_modcv_1" cx="168.00" cy="85.00" r="0.5" fill="none" stroke="none"/>
<circle id="output_gate_1" cx="234.00" cy="85.00" r="0.5" fill="none" stroke="none"/>
<circle id="output_cv_1" cx="288.00" cy="85.00" r="0.5" fill="none" stroke="none"/>
<circle id="output_acc_1" cx="342.00" cy="85.00" r="0.5" fill="none" stroke="none"/>
<circle id="param_knob_2" cx="48.00" cy="120.00" r="0.5" fill="none" stroke="none"/>
<circle id="param_att_2" cx="102.00" cy="120.00" r="0.5" fill="none" stroke="none"/>
<circle id="input_modcv_2" cx="168.00" cy="120.00" r="0.5" fill="none" stroke="none"/>
<circle id="output_gate_2" cx="234.00" cy="120.00" r="0.5" fill="none" stroke="none"/>
<circle id="output_cv_2" cx="288.00" cy="120.00" r="0.5" fill="none" stroke="none"/>
<circle id="output_acc_2" cx="342.00" cy="120.00" r="0.5" fill="none" stroke="none"/>
<circle id="param_knob_3" cx="48.00" cy="155.00" r="0.5" fill="none" stroke="none"/>
<circle id="param_att_3" cx="102.00" cy="155.00" r="0.5" fill="none" stroke="none"/>
<circle id="input_modcv_3" cx="168.00" cy="155.00" r="0.5" fill="none" stroke="none"/>
<circle id="output_gate_3" cx="234.00" cy="155.00" r="0.5" fill="none" stroke="none"/>
<circle id="output_cv_3" cx="288.00" cy="155.00" r="0.5" fill="none" stroke="none"/>
<circle id="output_acc_3" cx="342.00" cy="155.00" r="0.5" fill="none" stroke="none"/>
<circle id="param_knob_4" cx="48.00" cy="190.00" r="0.5" fill="none" stroke="none"/>
<circle id="param_att_4" cx="102.00" cy="190.00" r="0.5" fill="none" stroke="none"/>
<circle id="input_modcv_4" cx="168.00" cy="190.00" r="0.5" fill="none" stroke="none"/>
<circle id="output_gate_4" cx="234.00" cy="190.00" r="0.5" fill="none" stroke="none"/>
<circle id="output_cv_4" cx="288.00" cy="190.00" r="0.5" fill="none" stroke="none"/>
<circle id="output_acc_4" cx="342.00" cy="190.00" r="0.5" fill="none" stroke="none"/>
<circle id="param_knob_5" cx="48.00" cy="225.00" r="0.5" fill="none" stroke="none"/>
<circle id="param_att_5" cx="102.00" cy="225.00" r="0.5" fill="none" stroke="none"/>
<circle id="input_modcv_5" cx="168.00" cy="225.00" r="0.5" fill="none" stroke="none"/>
<circle id="output_gate_5" cx="234.00" cy="225.00" r="0.5" fill="none" stroke="none"/>
<circle id="output_cv_5" cx="288.00" cy="225.00" r="0.5" fill="none" stroke="none"/>
<circle id="output_acc_5" cx="342.00" cy="225.00" r="0.5" fill="none" stroke="none"/>
<circle id="param_knob_6" cx="48.00" cy="260.00" r="0.5" fill="none" stroke="none"/>
<circle id="param_att_6" cx="102.00" cy="260.00" r="0.5" fill="none" stroke="none"/>
<circle id="input_modcv_6" cx="168.00" cy="260.00" r="0.5" fill="none" stroke="none"/>
<circle id="output_gate_6" cx="234.00" cy="260.00" r="0.5" fill="none" stroke="none"/>
<circle id="output_cv_6" cx="288.00" cy="260.00" r="0.5" fill="none" stroke="none"/>
<circle id="output_acc_6" cx="342.00" cy="260.00" r="0.5" fill="none" stroke="none"/>
<circle id="param_knob_7" cx="48.00" cy="295.00" r="0.5" fill="none" stroke="none"/>
<circle id="param_att_7" cx="102.00" cy="295.00" r="0.5" fill="none" stroke="none"/>
<circle id="input_modcv_7" cx="168.00" cy="295.00" r="0.5" fill="none" stroke="none"/>
<circle id="output_gate_7" cx="234.00" cy="295.00" r="0.5" fill="none" stroke="none"/>
<circle id="output_cv_7" cx="288.00" cy="295.00" r="0.5" fill="none" stroke="none"/>
<circle id="output_acc_7" cx="342.00" cy="295.00" r="0.5" fill="none" stroke="none"/>
<circle id="input_global_modcv" cx="168.00" cy="300.00" r="0.5" fill="none" stroke="none"/>
<circle id="output_global_gate" cx="234.00" cy="300.00" r="0.5" fill="none" stroke="none"/>
<circle id="output_global_cv" cx="288.00" cy="300.00" r="0.5" fill="none" stroke="none"/>
</g>
</svg>