<svg xmlns="http://www.w3.org/2000/svg" width="460.8" height="485.67" viewBox="0 0 460.8 485.67">
  <defs>
    <pattern id="grain" x="0" y="0" width="460.8" height="2" patternUnits="userSpaceOnUse"><rect width="460.8" height="2" fill="#141416"/><rect y="1" width="460.8" height="0.6" fill="#1e2228" opacity="0.28"/></pattern>
    <linearGradient id="mbsG" x1="0" y1="0" x2="0" y2="1"><stop offset="0%" stop-color="#1e2535" stop-opacity="0.0"/><stop offset="45%" stop-color="#1e2535" stop-opacity="0.55"/><stop offset="100%" stop-color="#1e2535" stop-opacity="0.82"/></linearGradient>
  </defs>
  <rect width="460.8" height="485.67" fill="url(#grain)"/>
  <rect x="0" y="0" width="6.8" height="485.67" fill="#4a90d9" opacity="0.85"/>
  <rect x="0" y="0" width="460.8" height="49.1" fill="#0e1018" opacity="0.90"/>
  <text x="230.4" y="20.8" font-size="12.8" font-family="monospace" text-anchor="middle" fill="#e4e4e7" font-weight="bold">SANDS WEST  V9–16</text>
  <text x="230.4" y="39.7" font-size="9.8" font-family="monospace" text-anchor="middle" fill="#555">drag bars · handles = start / end / rot</text>
  <line x1="7.6" y1="49.1" x2="453.2" y2="49.1" stroke="#4a90d9" stroke-width="0.8" opacity="0.55"/>
  <rect x="7.6" y="52.9" width="445.7" height="34.0" fill="#111" opacity="0.50" rx="1"/>
  <text x="35.4" y="69.9" font-size="9.4" font-family="monospace" text-anchor="middle" fill="#4a90d9" opacity="0.70">V9</text>
  <text x="91.1" y="69.9" font-size="9.4" font-family="monospace" text-anchor="middle" fill="#4a90d9" opacity="0.70">V10</text>
  <text x="146.8" y="69.9" font-size="9.4" font-family="monospace" text-anchor="middle" fill="#4a90d9" opacity="0.70">V11</text>
  <text x="202.5" y="69.9" font-size="9.4" font-family="monospace" text-anchor="middle" fill="#4a90d9" opacity="0.70">V12</text>
  <text x="258.3" y="69.9" font-size="9.4" font-family="monospace" text-anchor="middle" fill="#4a90d9" opacity="0.70">V13</text>
  <text x="314.0" y="69.9" font-size="9.4" font-family="monospace" text-anchor="middle" fill="#4a90d9" opacity="0.70">V14</text>
  <text x="369.7" y="69.9" font-size="9.4" font-family="monospace" text-anchor="middle" fill="#4a90d9" opacity="0.70">V15</text>
  <text x="425.4" y="69.9" font-size="9.4" font-family="monospace" text-anchor="middle" fill="#4a90d9" opacity="0.70">V16</text>
  <rect x="7.6" y="90.7" width="445.7" height="219.2" fill="#0a0a0c" opacity="0.60" rx="1"/>
  <line x1="7.6" y1="90.7" x2="453.2" y2="90.7" stroke="#2a2a30" stroke-width="0.5" opacity="0.50"/>
  <line x1="7.6" y1="309.9" x2="453.2" y2="309.9" stroke="#2a2a30" stroke-width="0.6" opacity="0.55"/>
  <text x="7.6" y="323.1" font-size="9.8" font-family="monospace" fill="#666">SPREAD</text>
  <text x="75.6" y="319.4" font-size="9.4" font-family="monospace" text-anchor="middle" fill="#4a90d9" opacity="0.75">RST</text>
  <text x="226.8" y="319.4" font-size="9.4" font-family="monospace" text-anchor="middle" fill="#4a90d9" opacity="0.75">MEL</text>
  <text x="377.9" y="319.4" font-size="9.4" font-family="monospace" text-anchor="middle" fill="#4a90d9" opacity="0.75">OCT</text>
  <circle cx="75.6" cy="332.6" r="13.2" fill="none" stroke="#888" stroke-width="0.7" opacity="0.55"/>
  <circle cx="226.8" cy="332.6" r="13.2" fill="none" stroke="#888" stroke-width="0.7" opacity="0.55"/>
  <circle cx="377.9" cy="332.6" r="13.2" fill="none" stroke="#888" stroke-width="0.7" opacity="0.55"/>
  <line x1="15.1" y1="366.6" x2="445.7" y2="366.6" stroke="#2a2a30" stroke-width="0.4" opacity="0.40" stroke-dasharray="2,3"/>
  <text x="7.6" y="377.9" font-size="9.8" font-family="monospace" fill="#666">CV MOD  (poly)</text>
  <text x="68.0" y="387.4" font-size="9.1" font-family="monospace" text-anchor="middle" fill="#888" opacity="0.70">LEN</text>
  <text x="189.0" y="387.4" font-size="9.1" font-family="monospace" text-anchor="middle" fill="#888" opacity="0.70">OFF</text>
  <text x="309.9" y="387.4" font-size="9.1" font-family="monospace" text-anchor="middle" fill="#888" opacity="0.70">ROT</text>
  <text x="408.2" y="387.4" font-size="9.1" font-family="monospace" text-anchor="middle" fill="#888" opacity="0.70">DEPTH</text>
  <circle cx="68.0" cy="408.2" r="14.7" fill="none" stroke="#888" stroke-width="0.7" opacity="0.55"/>
  <circle cx="189.0" cy="408.2" r="14.7" fill="none" stroke="#888" stroke-width="0.7" opacity="0.55"/>
  <circle cx="309.9" cy="408.2" r="14.7" fill="none" stroke="#888" stroke-width="0.7" opacity="0.55"/>
  <circle cx="408.2" cy="408.2" r="13.2" fill="none" stroke="#888" stroke-width="0.7" opacity="0.55"/>
  <line x1="0" y1="438.4" x2="460.8" y2="438.4" stroke="#4a90d9" stroke-width="0.5" opacity="0.25"/>
  <g fill="url(#mbsG)" stroke="none">
    <polygon points="91.1,443.1 155.0,443.1 158.5,473.9 87.6,473.9"/>
    <polygon points="216.9,443.1 280.8,443.1 284.3,473.9 213.4,473.9"/>
    <polygon points="342.7,443.1 406.6,443.1 410.1,473.9 339.1,473.9"/>
    <polygon points="84.6,443.1 413.1,443.1 415.1,441.1 82.6,441.1"/>
  </g>
  <g fill="none" stroke="#dc2626" stroke-width="0.25" opacity="0.18">
    <polygon points="91.1,443.1 155.0,443.1 158.5,473.9 87.6,473.9"/>
    <line x1="88.6" y1="458.5" x2="157.5" y2="458.5"/>
    <polygon points="216.9,443.1 280.8,443.1 284.3,473.9 213.4,473.9"/>
    <line x1="214.4" y1="458.5" x2="283.3" y2="458.5"/>
    <polygon points="342.7,443.1 406.6,443.1 410.1,473.9 339.1,473.9"/>
    <line x1="340.1" y1="458.5" x2="409.1" y2="458.5"/>
    <polygon points="84.6,443.1 413.1,443.1 415.1,441.1 82.6,441.1"/>
  </g>
  <line x1="126.3" y1="443.1" x2="126.3" y2="438.1" stroke="#dc2626" stroke-width="0.5" opacity="0.38"/>
  <circle cx="126.3" cy="437.1" r="1.1" fill="#dc2626" opacity="0.38"/>
  <line x1="232.7" y1="443.1" x2="232.7" y2="438.1" stroke="#dc2626" stroke-width="0.5" opacity="0.38"/>
  <circle cx="232.7" cy="437.1" r="1.1" fill="#dc2626" opacity="0.38"/>
  <line x1="342.4" y1="443.1" x2="342.4" y2="438.1" stroke="#dc2626" stroke-width="0.5" opacity="0.38"/>
  <circle cx="342.4" cy="437.1" r="1.1" fill="#dc2626" opacity="0.38"/>
  <g fill="none" stroke="#1a3c58">
    <path d="M0.0,475.9 L11.5,477.4 L23.0,477.4 L34.6,475.9 L46.1,474.3 L57.6,474.2 L69.1,475.7 L80.6,477.3 L92.2,477.5 L103.7,476.1 L115.2,474.4 L126.7,474.2 L138.2,475.6 L149.8,477.2 L161.3,477.6 L172.8,476.2 L184.3,474.5 L195.8,474.1 L207.4,475.4 L218.9,477.1 L230.4,477.6 L241.9,476.3 L253.4,474.6 L265.0,474.1 L276.5,475.3 L288.0,477.0 L299.5,477.6 L311.0,476.5 L322.6,474.7 L334.1,474.1 L345.6,475.2 L357.1,476.9 L368.6,477.6 L380.2,476.6 L391.7,474.8 L403.2,474.1 L414.7,475.0 L426.2,476.8 L437.8,477.7 L449.3,476.7 L460.8,475.0" stroke-width="0.4" opacity="0.35"/>
    <path d="M0.0,479.9 L11.5,479.7 L23.0,478.3 L34.6,477.7 L46.1,478.8 L57.6,480.0 L69.1,479.5 L80.6,478.0 L92.2,477.8 L103.7,479.2 L115.2,480.1 L126.7,479.1 L138.2,477.8 L149.8,478.0 L161.3,479.5 L172.8,480.0 L184.3,478.8 L195.8,477.7 L207.4,478.3 L218.9,479.8 L230.4,479.8 L241.9,478.4 L253.4,477.7 L265.0,478.7 L276.5,480.0 L288.0,479.6 L299.5,478.1 L311.0,477.8 L322.6,479.0 L334.1,480.1 L345.6,479.3 L357.1,477.9 L368.6,477.9 L380.2,479.4 L391.7,480.0 L403.2,478.9 L414.7,477.7 L426.2,478.2 L437.8,479.7 L449.3,479.9 L460.8,478.6" stroke-width="0.35" opacity="0.25"/>
    <path d="M0.0,483.8 L11.5,482.8 L23.0,481.2 L34.6,480.0 L46.1,480.1 L57.6,481.4 L69.1,483.0 L80.6,483.8 L92.2,483.3 L103.7,481.8 L115.2,480.3 L126.7,479.9 L138.2,480.8 L149.8,482.5 L161.3,483.7 L172.8,483.7 L184.3,482.4 L195.8,480.8 L207.4,479.9 L218.9,480.3 L230.4,481.8 L241.9,483.3 L253.4,483.8 L265.0,483.0 L276.5,481.4 L288.0,480.1 L299.5,480.0 L311.0,481.2 L322.6,482.8 L334.1,483.8 L345.6,483.5 L357.1,482.0 L368.6,480.5 L380.2,479.9 L391.7,480.6 L403.2,482.2 L414.7,483.6 L426.2,483.8 L437.8,482.6 L449.3,481.0 L460.8,479.9" stroke-width="0.35" opacity="0.18"/>
  </g>
  <circle cx="445.7" cy="15.1" r="9.4" fill="#dc2626"/>
</svg>