<?xml version="1.0" encoding="UTF-8" standalone="no"?>
<svg xmlns="http://www.w3.org/2000/svg" viewBox="0 0 80 380">
  <rect width="80" height="380" fill="#e6e6e6"/>
  <rect x="0.5" y="0.5" width="79" height="379" fill="none" stroke="#ccc" stroke-width="0.8"/>
  <rect x="0" y="0" width="80" height="16" fill="#d0d0d0"/>
  <text x="40" y="13" font-size="7" font-family="monospace" text-anchor="middle" fill="#333" font-weight="bold">MACRO</text>
  <text x="40" y="25" font-size="4" font-family="monospace" text-anchor="middle" fill="#666">interpolation</text>
  <circle cx="10" cy="8" r="2.5" fill="#dc2626"/>
  
  <!-- 3 Columns: Rest, Melody, Octave -->
  <text x="13" y="45" font-size="5" font-family="monospace" text-anchor="middle" fill="#777" font-weight="bold">REST</text>
  <circle cx="13" cy="65" r="5" fill="none" stroke="#bbb" stroke-width="0.4" stroke-dasharray="1.5,1" opacity="0.7"/>
  <text x="13" y="80" font-size="3" font-family="monospace" text-anchor="middle" fill="#888">L</text>
  <circle cx="13" cy="95" r="4.5" fill="none" stroke="#bbb" stroke-width="0.35" stroke-dasharray="1.5,1" opacity="0.7"/>
  <text x="13" y="108" font-size="3" font-family="monospace" text-anchor="middle" fill="#888">O</text>
  <circle cx="13" cy="120" r="4.5" fill="none" stroke="#bbb" stroke-width="0.35" stroke-dasharray="1.5,1" opacity="0.7"/>
  <text x="13" y="133" font-size="3" font-family="monospace" text-anchor="middle" fill="#888">R</text>
  <rect x="8" y="150" width="4" height="40" rx="2" fill="none" stroke="#bbb" stroke-width="0.3" stroke-dasharray="1.5,1" opacity="0.7"/>
  <text x="10" y="205" font-size="2.5" font-family="monospace" text-anchor="middle" fill="#888">I</text>
  
  <text x="40" y="45" font-size="5" font-family="monospace" text-anchor="middle" fill="#777" font-weight="bold">MELODY</text>
  <circle cx="40" cy="65" r="5" fill="none" stroke="#bbb" stroke-width="0.4" stroke-dasharray="1.5,1" opacity="0.7"/>
  <circle cx="40" cy="95" r="4.5" fill="none" stroke="#bbb" stroke-width="0.35" stroke-dasharray="1.5,1" opacity="0.7"/>
  <circle cx="40" cy="120" r="4.5" fill="none" stroke="#bbb" stroke-width="0.35" stroke-dasharray="1.5,1" opacity="0.7"/>
  <rect x="35" y="150" width="4" height="40" rx="2" fill="none" stroke="#bbb" stroke-width="0.3" stroke-dasharray="1.5,1" opacity="0.7"/>
  <text x="37" y="205" font-size="2.5" font-family="monospace" text-anchor="middle" fill="#888">I</text>
  
  <text x="67" y="45" font-size="5" font-family="monospace" text-anchor="middle" fill="#777" font-weight="bold">OCTAVE</text>
  <circle cx="67" cy="65" r="5" fill="none" stroke="#bbb" stroke-width="0.4" stroke-dasharray="1.5,1" opacity="0.7"/>
  <circle cx="67" cy="95" r="4.5" fill="none" stroke="#bbb" stroke-width="0.35" stroke-dasharray="1.5,1" opacity="0.7"/>
  <circle cx="67" cy="120" r="4.5" fill="none" stroke="#bbb" stroke-width="0.35" stroke-dasharray="1.5,1" opacity="0.7"/>
  <rect x="62" y="150" width="4" height="40" rx="2" fill="none" stroke="#bbb" stroke-width="0.3" stroke-dasharray="1.5,1" opacity="0.7"/>
  <text x="64" y="205" font-size="2.5" font-family="monospace" text-anchor="middle" fill="#888">I</text>
  
  <!-- Master Controls -->
  <line x1="4" y1="240" x2="76" y2="240" stroke="#d0d0d0" stroke-width="0.5"/>
  <text x="10" y="255" font-size="4" font-family="monospace" fill="#777" font-weight="bold">master</text>
  <rect x="12" y="265" width="14" height="7" rx="0.8" fill="none" stroke="#bbb" stroke-width="0.35" stroke-dasharray="1.5,1" opacity="0.7"/>
  <text x="19" y="277" font-size="3" font-family="monospace" text-anchor="middle" fill="#888">scr</text>
  <rect x="50" y="265" width="14" height="7" rx="0.8" fill="none" stroke="#bbb" stroke-width="0.35" stroke-dasharray="1.5,1" opacity="0.7"/>
  <text x="57" y="277" font-size="3" font-family="monospace" text-anchor="middle" fill="#888">rst</text>
</svg>
