<svg xmlns="http://www.w3.org/2000/svg" xmlns:inkscape="http://www.inkscape.org/namespaces/inkscape" width="600.0" height="379.43" viewBox="0 0 600.0 379.43">
<g inkscape:label="artwork" inkscape:groupmode="layer">
<rect width="600.0" height="379.43" fill="#e7e8ea"/>
<line x1="0" y1="29.5" x2="600.0" y2="29.5" stroke="#c0202a" stroke-width="1" opacity="0.4"/>
<rect x="171.3" y="17.7" width="416.9" height="29.5" rx="3.0" fill="#cdd4dc" opacity="0.5"/>
<rect x="171.3" y="53.1" width="416.9" height="141.7" rx="4.4" fill="#dde0e4" stroke="#c0c4ca" stroke-width="1"/>
</g>
<g inkscape:label="control-graphics" inkscape:groupmode="layer">
<circle cx="23.6" cy="64.5" r="11.5" fill="#dadce0" stroke="#9298a0" stroke-width="1"/>
<circle cx="23.6" cy="64.5" r="5.0" fill="#dde0e4"/>
<circle cx="53.1" cy="64.5" r="11.5" fill="#dadce0" stroke="#9298a0" stroke-width="1"/>
<circle cx="53.1" cy="64.5" r="5.0" fill="#dde0e4"/>
<circle cx="88.6" cy="64.5" r="9.4" fill="#d6d8dc" stroke="#a8aeb6" stroke-width="1"/>
<circle cx="115.2" cy="64.5" r="9.4" fill="#d6d8dc" stroke="#a8aeb6" stroke-width="1"/>
<circle cx="23.6" cy="110.7" r="11.5" fill="#dadce0" stroke="#9298a0" stroke-width="1"/>
<circle cx="23.6" cy="110.7" r="5.0" fill="#dde0e4"/>
<circle cx="53.1" cy="110.7" r="11.5" fill="#dadce0" stroke="#9298a0" stroke-width="1"/>
<circle cx="53.1" cy="110.7" r="5.0" fill="#dde0e4"/>
<circle cx="88.6" cy="110.7" r="9.4" fill="#d6d8dc" stroke="#a8aeb6" stroke-width="1"/>
<circle cx="115.2" cy="110.7" r="9.4" fill="#d6d8dc" stroke="#a8aeb6" stroke-width="1"/>
<circle cx="23.6" cy="157.0" r="11.5" fill="#dadce0" stroke="#9298a0" stroke-width="1"/>
<circle cx="23.6" cy="157.0" r="5.0" fill="#dde0e4"/>
<circle cx="53.1" cy="157.0" r="11.5" fill="#dadce0" stroke="#9298a0" stroke-width="1"/>
<circle cx="53.1" cy="157.0" r="5.0" fill="#dde0e4"/>
<circle cx="88.6" cy="157.0" r="9.4" fill="#d6d8dc" stroke="#a8aeb6" stroke-width="1"/>
<circle cx="115.2" cy="157.0" r="9.4" fill="#d6d8dc" stroke="#a8aeb6" stroke-width="1"/>
<circle cx="23.6" cy="203.2" r="11.5" fill="#dadce0" stroke="#9298a0" stroke-width="1"/>
<circle cx="23.6" cy="203.2" r="5.0" fill="#dde0e4"/>
<circle cx="53.1" cy="203.2" r="11.5" fill="#dadce0" stroke="#9298a0" stroke-width="1"/>
<circle cx="53.1" cy="203.2" r="5.0" fill="#dde0e4"/>
<circle cx="88.6" cy="203.2" r="9.4" fill="#d6d8dc" stroke="#a8aeb6" stroke-width="1"/>
<circle cx="115.2" cy="203.2" r="9.4" fill="#d6d8dc" stroke="#a8aeb6" stroke-width="1"/>
<circle cx="23.6" cy="249.5" r="11.5" fill="#dadce0" stroke="#9298a0" stroke-width="1"/>
<circle cx="23.6" cy="249.5" r="5.0" fill="#dde0e4"/>
<circle cx="53.1" cy="249.5" r="11.5" fill="#dadce0" stroke="#9298a0" stroke-width="1"/>
<circle cx="53.1" cy="249.5" r="5.0" fill="#dde0e4"/>
<circle cx="88.6" cy="249.5" r="9.4" fill="#d6d8dc" stroke="#a8aeb6" stroke-width="1"/>
<circle cx="115.2" cy="249.5" r="9.4" fill="#d6d8dc" stroke="#a8aeb6" stroke-width="1"/>
<circle cx="23.6" cy="295.8" r="11.5" fill="#dadce0" stroke="#9298a0" stroke-width="1"/>
<circle cx="23.6" cy="295.8" r="5.0" fill="#dde0e4"/>
<circle cx="53.1" cy="295.8" r="11.5" fill="#dadce0" stroke="#9298a0" stroke-width="1"/>
<circle cx="53.1" cy="295.8" r="5.0" fill="#dde0e4"/>
<circle cx="88.6" cy="295.8" r="9.4" fill="#d6d8dc" stroke="#a8aeb6" stroke-width="1"/>
<circle cx="115.2" cy="295.8" r="9.4" fill="#d6d8dc" stroke="#a8aeb6" stroke-width="1"/>
<circle cx="144.7" cy="87.6" r="9.4" fill="#d6d8dc" stroke="#1a8276" stroke-width="1"/>
<circle cx="144.7" cy="180.1" r="9.4" fill="#d6d8dc" stroke="#1a8276" stroke-width="1"/>
<circle cx="144.7" cy="272.6" r="9.4" fill="#d6d8dc" stroke="#1a8276" stroke-width="1"/>
</g>
</svg>