<svg xmlns="http://www.w3.org/2000/svg" width="390" height="380" viewBox="0 0 390 380">
  <defs>
    <pattern id="grain" x="0" y="0" width="390" height="0.8" patternUnits="userSpaceOnUse"><rect width="390" height="0.8" fill="#18181a"/><rect y="0.4" width="390" height="0.15" fill="#161616" opacity="0.35"/></pattern>
    <linearGradient id="skyG" x1="0" y1="0" x2="0" y2="1"><stop offset="0%" stop-color="#0c0606" stop-opacity="1.0"/><stop offset="50%" stop-color="#18181a" stop-opacity="0.0"/></linearGradient>
    <linearGradient id="silG" x1="0" y1="0" x2="0" y2="1"><stop offset="0%" stop-color="#181e28" stop-opacity="0.60"/><stop offset="100%" stop-color="#181e28" stop-opacity="0.92"/></linearGradient>
    <linearGradient id="waveG" x1="0" y1="0" x2="0" y2="1"><stop offset="0%" stop-color="#100808" stop-opacity="0.65"/><stop offset="100%" stop-color="#18181a" stop-opacity="0.0"/></linearGradient>
  </defs>
  <rect width="390" height="380" fill="#18181a"/>
  <rect x="0" y="0" width="390" height="280" fill="url(#skyG)"/>
  <path d="M 213.0,253.4 C 216.1,196.3 360.1,199.4 377.0,248.0 L 213.0,253.4 Z" fill="#101216" fill-opacity="0.45" stroke="none"/>
  <g stroke="#7a7e86" stroke-width="0.45" fill="none" opacity="0.95">
    <polyline points="213.0,253.4 217.8,252.8 222.7,252.3 227.6,251.9 232.6,251.4 237.6,251.0 242.6,250.6 247.7,250.2 252.8,249.9 258.0,249.5 263.2,249.2 268.4,248.9 273.6,248.7 278.8,248.4 284.1,248.2 289.4,248.0 294.6,247.9 299.9,247.7 305.2,247.6 310.5,247.5 315.7,247.4 321.0,247.3 326.2,247.3 331.4,247.3 336.6,247.3 341.8,247.3 346.9,247.3 352.0,247.4 357.1,247.5 362.2,247.6 367.2,247.7 372.1,247.8 377.0,248.0"/>
    <polyline points="213.0,253.4 217.5,252.5 222.1,251.6 226.8,250.9 231.6,250.1 236.5,249.4 241.5,248.8 246.5,248.2 251.7,247.7 256.8,247.2 262.1,246.7 267.4,246.3 272.7,246.0 278.0,245.7 283.4,245.4 288.8,245.2 294.3,245.0 299.7,244.9 305.1,244.8 310.5,244.8 315.9,244.8 321.3,244.8 326.7,244.9 332.0,245.0 337.2,245.2 342.5,245.4 347.6,245.7 352.7,246.0 357.7,246.3 362.7,246.7 367.6,247.1 372.3,247.5 377.0,248.0"/>
    <polyline points="213.0,253.4 217.2,252.1 221.5,251.0 226.0,249.9 230.7,248.9 235.4,247.9 240.3,247.0 245.4,246.2 250.5,245.5 255.7,244.9 261.0,244.3 266.3,243.8 271.8,243.3 277.3,242.9 282.8,242.6 288.3,242.4 293.9,242.2 299.5,242.1 305.0,242.0 310.6,242.1 316.1,242.2 321.6,242.3 327.1,242.5 332.5,242.8 337.9,243.1 343.1,243.5 348.3,244.0 353.4,244.5 358.4,245.1 363.2,245.7 368.0,246.4 372.6,247.2 377.0,248.0"/>
    <polyline points="213.0,253.4 216.9,251.8 220.9,250.3 225.2,248.9 229.7,247.6 234.4,246.4 239.2,245.3 244.2,244.3 249.3,243.3 254.5,242.5 259.9,241.8 265.3,241.2 270.9,240.6 276.5,240.2 282.1,239.8 287.8,239.5 293.5,239.4 299.2,239.3 305.0,239.3 310.7,239.4 316.4,239.5 322.0,239.8 327.6,240.1 333.1,240.5 338.5,241.1 343.8,241.6 349.0,242.3 354.1,243.1 359.0,243.9 363.8,244.8 368.4,245.8 372.8,246.9 377.0,248.0"/>
    <polyline points="213.0,253.4 216.5,251.4 220.4,249.6 224.4,247.9 228.8,246.3 233.3,244.8 238.1,243.5 243.0,242.3 248.1,241.2 253.4,240.2 258.8,239.3 264.3,238.6 270.0,237.9 275.7,237.4 281.5,237.0 287.3,236.7 293.1,236.5 299.0,236.5 304.9,236.5 310.8,236.7 316.6,236.9 322.3,237.3 328.0,237.7 333.6,238.3 339.1,239.0 344.5,239.8 349.7,240.6 354.7,241.6 359.6,242.7 364.3,243.9 368.8,245.2 373.0,246.5 377.0,248.0"/>
    <polyline points="213.0,253.4 216.2,251.1 219.8,248.9 223.7,246.9 227.8,245.0 232.3,243.3 236.9,241.7 241.8,240.3 247.0,239.0 252.3,237.9 257.7,236.9 263.3,236.0 269.1,235.3 274.9,234.7 280.8,234.2 286.8,233.9 292.8,233.7 298.8,233.7 304.8,233.7 310.8,234.0 316.8,234.3 322.7,234.8 328.5,235.3 334.2,236.1 339.7,236.9 345.1,237.9 350.4,239.0 355.4,240.2 360.2,241.5 364.8,243.0 369.2,244.5 373.2,246.2 377.0,248.0"/>
    <polyline points="213.0,253.4 215.9,250.7 219.2,248.2 222.9,245.9 226.9,243.7 231.2,241.8 235.8,239.9 240.7,238.3 245.8,236.8 251.1,235.5 256.6,234.4 262.3,233.4 268.1,232.6 274.1,231.9 280.1,231.4 286.2,231.1 292.4,230.9 298.6,230.9 304.8,231.0 310.9,231.2 317.0,231.7 323.0,232.2 328.9,233.0 334.7,233.8 340.3,234.8 345.8,236.0 351.0,237.3 356.1,238.7 360.9,240.3 365.4,242.0 369.6,243.9 373.5,245.9 377.0,248.0"/>
    <polyline points="213.0,253.4 215.6,250.3 218.6,247.5 222.1,244.9 225.9,242.5 230.1,240.2 234.7,238.2 239.5,236.3 244.6,234.7 250.0,233.2 255.5,231.9 261.3,230.8 267.2,229.9 273.3,229.2 279.5,228.6 285.7,228.3 292.0,228.1 298.4,228.0 304.7,228.2 311.0,228.5 317.2,229.0 323.3,229.7 329.4,230.6 335.2,231.6 341.0,232.8 346.5,234.1 351.7,235.6 356.7,237.3 361.5,239.1 365.9,241.1 370.0,243.2 373.7,245.5 377.0,248.0"/>
    <polyline points="213.0,253.4 215.3,250.0 218.1,246.8 221.3,243.9 225.0,241.2 229.1,238.7 233.5,236.4 238.3,234.3 243.4,232.5 248.8,230.9 254.4,229.4 260.3,228.2 266.3,227.2 272.5,226.4 278.8,225.8 285.2,225.4 291.7,225.2 298.1,225.2 304.6,225.4 311.1,225.8 317.4,226.4 323.7,227.2 329.8,228.2 335.8,229.3 341.6,230.7 347.1,232.2 352.4,233.9 357.4,235.8 362.1,237.9 366.4,240.2 370.4,242.6 373.9,245.2 377.0,248.0"/>
    <polyline points="213.0,253.4 215.0,249.6 217.5,246.1 220.5,242.9 224.0,239.9 228.0,237.1 232.4,234.6 237.1,232.4 242.3,230.3 247.7,228.5 253.4,227.0 259.3,225.6 265.4,224.5 271.7,223.7 278.2,223.0 284.7,222.6 291.3,222.4 297.9,222.4 304.5,222.7 311.1,223.1 317.6,223.8 324.0,224.7 330.3,225.8 336.3,227.1 342.2,228.6 347.8,230.3 353.1,232.3 358.1,234.4 362.7,236.7 367.0,239.3 370.8,242.0 374.1,244.9 377.0,248.0"/>
    <polyline points="213.0,253.4 214.6,249.3 216.9,245.4 219.7,241.9 223.1,238.6 226.9,235.6 231.2,232.9 236.0,230.4 241.1,228.2 246.5,226.2 252.3,224.5 258.3,223.0 264.5,221.9 270.9,220.9 277.5,220.2 284.2,219.8 290.9,219.6 297.7,219.6 304.5,219.9 311.2,220.4 317.8,221.2 324.4,222.2 330.7,223.4 336.9,224.9 342.8,226.6 348.5,228.5 353.8,230.6 358.8,233.0 363.3,235.5 367.5,238.3 371.2,241.3 374.4,244.6 377.0,248.0"/>
    <polyline points="213.0,253.4 214.3,248.9 216.3,244.8 218.9,240.9 222.1,237.3 225.9,234.1 230.1,231.1 234.8,228.4 239.9,226.0 245.4,223.9 251.2,222.0 257.3,220.5 263.6,219.2 270.1,218.2 276.8,217.4 283.7,217.0 290.6,216.7 297.5,216.8 304.4,217.1 311.3,217.7 318.1,218.6 324.7,219.7 331.2,221.0 337.4,222.6 343.4,224.5 349.1,226.6 354.5,228.9 359.4,231.5 364.0,234.3 368.0,237.4 371.6,240.7 374.6,244.2 377.0,248.0"/>
    <polyline points="213.0,253.4 214.0,248.6 215.7,244.1 218.2,239.9 221.2,236.1 224.8,232.5 229.0,229.3 233.6,226.4 238.7,223.8 244.2,221.5 250.1,219.5 256.3,217.9 262.7,216.5 269.4,215.4 276.2,214.6 283.1,214.1 290.2,213.9 297.3,214.0 304.3,214.4 311.4,215.0 318.3,215.9 325.0,217.2 331.6,218.6 338.0,220.4 344.0,222.4 349.8,224.7 355.2,227.3 360.1,230.1 364.6,233.1 368.6,236.5 372.0,240.1 374.8,243.9 377.0,248.0"/>
  </g>
  <g stroke="#7a7e86" stroke-width="0.4" fill="none" opacity="0.7124999999999999">
    <line x1="213.0" y1="253.4" x2="259.7" y2="228.8"/>
    <line x1="222.1" y1="253.1" x2="263.4" y2="228.7"/>
    <line x1="231.2" y1="252.8" x2="267.0" y2="228.6"/>
    <line x1="240.3" y1="252.5" x2="270.7" y2="228.4"/>
    <line x1="249.4" y1="252.2" x2="274.3" y2="228.3"/>
    <line x1="258.6" y1="251.9" x2="278.0" y2="228.2"/>
    <line x1="267.7" y1="251.6" x2="281.6" y2="228.1"/>
    <line x1="276.8" y1="251.3" x2="285.3" y2="228.0"/>
    <line x1="285.9" y1="251.0" x2="288.9" y2="227.9"/>
    <line x1="295.0" y1="250.7" x2="292.5" y2="227.7"/>
    <line x1="304.1" y1="250.4" x2="296.2" y2="227.6"/>
    <line x1="313.2" y1="250.1" x2="299.8" y2="227.5"/>
    <line x1="322.3" y1="249.8" x2="303.5" y2="227.4"/>
    <line x1="331.4" y1="249.5" x2="307.1" y2="227.3"/>
    <line x1="340.6" y1="249.2" x2="310.8" y2="227.1"/>
    <line x1="349.7" y1="248.9" x2="314.4" y2="227.0"/>
    <line x1="358.8" y1="248.6" x2="318.1" y2="226.9"/>
    <line x1="367.9" y1="248.3" x2="321.7" y2="226.8"/>
    <line x1="377.0" y1="248.0" x2="325.3" y2="226.7"/>
    <line x1="213.0" y1="253.4" x2="244.2" y2="237.0"/>
    <line x1="214.8" y1="244.4" x2="245.2" y2="231.6"/>
    <line x1="218.9" y1="236.6" x2="247.7" y2="226.9"/>
    <line x1="225.1" y1="229.8" x2="251.4" y2="222.9"/>
    <line x1="233.0" y1="224.1" x2="256.2" y2="219.4"/>
    <line x1="242.5" y1="219.5" x2="261.8" y2="216.6"/>
    <line x1="253.1" y1="215.8" x2="268.2" y2="214.5"/>
    <line x1="264.8" y1="213.3" x2="275.2" y2="212.9"/>
    <line x1="277.1" y1="211.7" x2="282.6" y2="212.0"/>
    <line x1="289.8" y1="211.1" x2="290.3" y2="211.6"/>
    <line x1="302.7" y1="211.5" x2="298.0" y2="211.9"/>
    <line x1="315.4" y1="212.8" x2="305.6" y2="212.7"/>
    <line x1="327.6" y1="215.1" x2="312.9" y2="214.1"/>
    <line x1="339.2" y1="218.4" x2="319.9" y2="216.0"/>
    <line x1="349.8" y1="222.5" x2="326.3" y2="218.5"/>
    <line x1="359.2" y1="227.6" x2="331.9" y2="221.5"/>
    <line x1="367.0" y1="233.5" x2="336.6" y2="225.1"/>
    <line x1="373.0" y1="240.3" x2="340.2" y2="229.2"/>
    <line x1="377.0" y1="248.0" x2="342.6" y2="233.8"/>
  </g>
  <path d="M 213.0,253.4 C 216.1,196.3 360.1,199.4 377.0,248.0" fill="none" stroke="#9a9fa8" stroke-width="0.9" opacity="0.7"/>
  <line x1="213.0" y1="253.4" x2="377.0" y2="248.0" stroke="#9a9fa8" stroke-width="0.8" opacity="0.7"/>
  <g stroke="#9a9fa8" stroke-width="0.8" fill="none" opacity="0.7">
    <line x1="229.4" y1="260.0" x2="229.4" y2="252.8"/>
    <line x1="226.4" y1="252.8" x2="232.4" y2="252.8"/>
    <line x1="257.3" y1="261.5" x2="257.3" y2="251.9"/>
    <line x1="254.3" y1="251.9" x2="260.3" y2="251.9"/>
    <line x1="285.2" y1="263.0" x2="285.2" y2="251.0"/>
    <line x1="282.2" y1="251.0" x2="288.2" y2="251.0"/>
    <line x1="313.0" y1="264.5" x2="313.0" y2="250.1"/>
    <line x1="310.0" y1="250.1" x2="316.0" y2="250.1"/>
    <line x1="340.9" y1="266.0" x2="340.9" y2="249.2"/>
    <line x1="337.9" y1="249.2" x2="343.9" y2="249.2"/>
    <line x1="365.5" y1="267.5" x2="365.5" y2="248.4"/>
    <line x1="362.5" y1="248.4" x2="368.5" y2="248.4"/>
  </g>
  <rect x="0" y="290" width="390" height="90" fill="url(#waveG)"/>
  <path d="M0.0,298.0 L4.9,299.1 L9.8,300.0 L14.6,300.9 L19.5,301.6 L24.4,302.2 L29.2,302.4 L34.1,302.5 L39.0,302.3 L43.9,301.8 L48.8,301.2 L53.6,300.4 L58.5,299.4 L63.4,298.4 L68.2,297.3 L73.1,296.3 L78.0,295.4 L82.9,294.6 L87.8,294.0 L92.6,293.6 L97.5,293.5 L102.4,293.6 L107.2,294.0 L112.1,294.6 L117.0,295.4 L121.9,296.3 L126.8,297.3 L131.6,298.4 L136.5,299.4 L141.4,300.4 L146.2,301.2 L151.1,301.8 L156.0,302.3 L160.9,302.5 L165.8,302.4 L170.6,302.2 L175.5,301.6 L180.4,300.9 L185.2,300.0 L190.1,299.1 L195.0,298.0 L199.9,296.9 L204.8,296.0 L209.6,295.1 L214.5,294.4 L219.4,293.8 L224.2,293.6 L229.1,293.5 L234.0,293.7 L238.9,294.2 L243.8,294.8 L248.6,295.6 L253.5,296.6 L258.4,297.6 L263.2,298.7 L268.1,299.7 L273.0,300.6 L277.9,301.4 L282.8,302.0 L287.6,302.4 L292.5,302.5 L297.4,302.4 L302.2,302.0 L307.1,301.4 L312.0,300.6 L316.9,299.7 L321.8,298.7 L326.6,297.6 L331.5,296.6 L336.4,295.6 L341.2,294.8 L346.1,294.2 L351.0,293.7 L355.9,293.5 L360.8,293.6 L365.6,293.8 L370.5,294.4 L375.4,295.1 L380.2,296.0 L385.1,296.9 L390.0,298.0" fill="none" stroke="#3a1414" stroke-width="0.7" opacity="0.55"/>
  <path d="M0.0,296.8 L4.9,297.9 L9.8,298.8 L14.6,299.7 L19.5,300.4 L24.4,301.0 L29.2,301.2 L34.1,301.3 L39.0,301.1 L43.9,300.6 L48.8,300.0 L53.6,299.2 L58.5,298.2 L63.4,297.2 L68.2,296.1 L73.1,295.1 L78.0,294.2 L82.9,293.4 L87.8,292.8 L92.6,292.4 L97.5,292.3 L102.4,292.4 L107.2,292.8 L112.1,293.4 L117.0,294.2 L121.9,295.1 L126.8,296.1 L131.6,297.2 L136.5,298.2 L141.4,299.2 L146.2,300.0 L151.1,300.6 L156.0,301.1 L160.9,301.3 L165.8,301.2 L170.6,301.0 L175.5,300.4 L180.4,299.7 L185.2,298.8 L190.1,297.9 L195.0,296.8 L199.9,295.7 L204.8,294.8 L209.6,293.9 L214.5,293.2 L219.4,292.6 L224.2,292.4 L229.1,292.3 L234.0,292.5 L238.9,293.0 L243.8,293.6 L248.6,294.4 L253.5,295.4 L258.4,296.4 L263.2,297.5 L268.1,298.5 L273.0,299.4 L277.9,300.2 L282.8,300.8 L287.6,301.2 L292.5,301.3 L297.4,301.2 L302.2,300.8 L307.1,300.2 L312.0,299.4 L316.9,298.5 L321.8,297.5 L326.6,296.4 L331.5,295.4 L336.4,294.4 L341.2,293.6 L346.1,293.0 L351.0,292.5 L355.9,292.3 L360.8,292.4 L365.6,292.6 L370.5,293.2 L375.4,293.9 L380.2,294.8 L385.1,295.7 L390.0,296.8" fill="none" stroke="#5a1e1e" stroke-width="0.4" opacity="0.30"/>
  <path d="M0.0,309.4 L4.9,310.2 L9.8,310.7 L14.6,311.0 L19.5,310.9 L24.4,310.6 L29.2,309.9 L34.1,309.1 L39.0,308.2 L43.9,307.2 L48.8,306.3 L53.6,305.6 L58.5,305.2 L63.4,305.0 L68.2,305.1 L73.1,305.6 L78.0,306.2 L82.9,307.1 L87.8,308.1 L92.6,309.0 L97.5,309.9 L102.4,310.5 L107.2,310.9 L112.1,311.0 L117.0,310.8 L121.9,310.3 L126.8,309.5 L131.6,308.7 L136.5,307.7 L141.4,306.8 L146.2,306.0 L151.1,305.4 L156.0,305.0 L160.9,305.0 L165.8,305.3 L170.6,305.9 L175.5,306.7 L180.4,307.6 L185.2,308.6 L190.1,309.5 L195.0,310.2 L199.9,310.7 L204.8,311.0 L209.6,310.9 L214.5,310.6 L219.4,309.9 L224.2,309.1 L229.1,308.2 L234.0,307.2 L238.9,306.3 L243.8,305.6 L248.6,305.2 L253.5,305.0 L258.4,305.1 L263.2,305.6 L268.1,306.3 L273.0,307.1 L277.9,308.1 L282.8,309.0 L287.6,309.9 L292.5,310.5 L297.4,310.9 L302.2,311.0 L307.1,310.8 L312.0,310.3 L316.9,309.5 L321.8,308.6 L326.6,307.7 L331.5,306.7 L336.4,305.9 L341.2,305.4 L346.1,305.0 L351.0,305.0 L355.9,305.3 L360.8,305.9 L365.6,306.7 L370.5,307.6 L375.4,308.6 L380.2,309.5 L385.1,310.2 L390.0,310.8" fill="none" stroke="#3a1414" stroke-width="0.6" opacity="0.48"/>
  <path d="M0.0,308.2 L4.9,309.0 L9.8,309.5 L14.6,309.8 L19.5,309.7 L24.4,309.4 L29.2,308.7 L34.1,307.9 L39.0,307.0 L43.9,306.0 L48.8,305.1 L53.6,304.4 L58.5,304.0 L63.4,303.8 L68.2,303.9 L73.1,304.4 L78.0,305.0 L82.9,305.9 L87.8,306.9 L92.6,307.8 L97.5,308.7 L102.4,309.3 L107.2,309.7 L112.1,309.8 L117.0,309.6 L121.9,309.1 L126.8,308.3 L131.6,307.5 L136.5,306.5 L141.4,305.6 L146.2,304.8 L151.1,304.2 L156.0,303.8 L160.9,303.8 L165.8,304.1 L170.6,304.7 L175.5,305.5 L180.4,306.4 L185.2,307.4 L190.1,308.3 L195.0,309.0 L199.9,309.5 L204.8,309.8 L209.6,309.7 L214.5,309.4 L219.4,308.7 L224.2,307.9 L229.1,307.0 L234.0,306.0 L238.9,305.1 L243.8,304.4 L248.6,304.0 L253.5,303.8 L258.4,303.9 L263.2,304.4 L268.1,305.1 L273.0,305.9 L277.9,306.9 L282.8,307.8 L287.6,308.7 L292.5,309.3 L297.4,309.7 L302.2,309.8 L307.1,309.6 L312.0,309.1 L316.9,308.3 L321.8,307.4 L326.6,306.5 L331.5,305.5 L336.4,304.7 L341.2,304.2 L346.1,303.8 L351.0,303.8 L355.9,304.1 L360.8,304.7 L365.6,305.5 L370.5,306.4 L375.4,307.4 L380.2,308.3 L385.1,309.0 L390.0,309.6" fill="none" stroke="#5a1e1e" stroke-width="0.4" opacity="0.26"/>
  <path d="M0.0,323.1 L4.9,323.4 L9.8,323.5 L14.6,323.4 L19.5,323.1 L24.4,322.6 L29.2,321.9 L34.1,321.1 L39.0,320.2 L43.9,319.2 L48.8,318.1 L53.6,317.1 L58.5,316.1 L63.4,315.1 L68.2,314.3 L73.1,313.6 L78.0,313.0 L82.9,312.7 L87.8,312.5 L92.6,312.5 L97.5,312.8 L102.4,313.2 L107.2,313.8 L112.1,314.5 L117.0,315.4 L121.9,316.4 L126.8,317.4 L131.6,318.5 L136.5,319.5 L141.4,320.5 L146.2,321.4 L151.1,322.1 L156.0,322.8 L160.9,323.2 L165.8,323.4 L170.6,323.5 L175.5,323.3 L180.4,323.0 L185.2,322.5 L190.1,321.8 L195.0,321.0 L199.9,320.0 L204.8,319.0 L209.6,318.0 L214.5,316.9 L219.4,315.9 L224.2,315.0 L229.1,314.2 L234.0,313.5 L238.9,313.0 L243.8,312.6 L248.6,312.5 L253.5,312.6 L258.4,312.8 L263.2,313.3 L268.1,313.9 L273.0,314.7 L277.9,315.6 L282.8,316.6 L287.6,317.6 L292.5,318.7 L297.4,319.7 L302.2,320.7 L307.1,321.5 L312.0,322.3 L316.9,322.8 L321.8,323.3 L326.6,323.5 L331.5,323.5 L336.4,323.3 L341.2,322.9 L346.1,322.4 L351.0,321.6 L355.9,320.8 L360.8,319.8 L365.6,318.8 L370.5,317.8 L375.4,316.7 L380.2,315.7 L385.1,314.8 L390.0,314.0" fill="none" stroke="#3a1414" stroke-width="0.7" opacity="0.42"/>
  <path d="M0.0,321.9 L4.9,322.2 L9.8,322.3 L14.6,322.2 L19.5,321.9 L24.4,321.4 L29.2,320.7 L34.1,319.9 L39.0,319.0 L43.9,318.0 L48.8,316.9 L53.6,315.9 L58.5,314.9 L63.4,313.9 L68.2,313.1 L73.1,312.4 L78.0,311.8 L82.9,311.5 L87.8,311.3 L92.6,311.3 L97.5,311.6 L102.4,312.0 L107.2,312.6 L112.1,313.3 L117.0,314.2 L121.9,315.2 L126.8,316.2 L131.6,317.3 L136.5,318.3 L141.4,319.3 L146.2,320.2 L151.1,320.9 L156.0,321.6 L160.9,322.0 L165.8,322.2 L170.6,322.3 L175.5,322.1 L180.4,321.8 L185.2,321.3 L190.1,320.6 L195.0,319.8 L199.9,318.8 L204.8,317.8 L209.6,316.8 L214.5,315.7 L219.4,314.7 L224.2,313.8 L229.1,313.0 L234.0,312.3 L238.9,311.8 L243.8,311.4 L248.6,311.3 L253.5,311.4 L258.4,311.6 L263.2,312.1 L268.1,312.7 L273.0,313.5 L277.9,314.4 L282.8,315.4 L287.6,316.4 L292.5,317.5 L297.4,318.5 L302.2,319.5 L307.1,320.3 L312.0,321.1 L316.9,321.6 L321.8,322.1 L326.6,322.3 L331.5,322.3 L336.4,322.1 L341.2,321.7 L346.1,321.2 L351.0,320.4 L355.9,319.6 L360.8,318.6 L365.6,317.6 L370.5,316.6 L375.4,315.5 L380.2,314.5 L385.1,313.6 L390.0,312.8" fill="none" stroke="#5a1e1e" stroke-width="0.4" opacity="0.23"/>
  <path d="M0.0,329.8 L4.9,330.3 L9.8,330.5 L14.6,330.3 L19.5,329.8 L24.4,329.0 L29.2,328.1 L34.1,327.2 L39.0,326.3 L43.9,325.8 L48.8,325.5 L53.6,325.6 L58.5,326.1 L63.4,326.8 L68.2,327.7 L73.1,328.6 L78.0,329.5 L82.9,330.1 L87.8,330.5 L92.6,330.4 L97.5,330.1 L102.4,329.4 L107.2,328.5 L112.1,327.5 L117.0,326.7 L121.9,326.0 L126.8,325.6 L131.6,325.5 L136.5,325.8 L141.4,326.5 L146.2,327.3 L151.1,328.3 L156.0,329.2 L160.9,329.9 L165.8,330.4 L170.6,330.5 L175.5,330.3 L180.4,329.7 L185.2,328.9 L190.1,327.9 L195.0,327.0 L199.9,326.2 L204.8,325.7 L209.6,325.5 L214.5,325.7 L219.4,326.2 L224.2,326.9 L229.1,327.9 L234.0,328.8 L238.9,329.6 L243.8,330.2 L248.6,330.5 L253.5,330.4 L258.4,330.0 L263.2,329.2 L268.1,328.3 L273.0,327.4 L277.9,326.5 L282.8,325.9 L287.6,325.5 L292.5,325.6 L297.4,325.9 L302.2,326.6 L307.1,327.5 L312.0,328.4 L316.9,329.3 L321.8,330.0 L326.6,330.4 L331.5,330.5 L336.4,330.2 L341.2,329.6 L346.1,328.7 L351.0,327.8 L355.9,326.9 L360.8,326.1 L365.6,325.6 L370.5,325.5 L375.4,325.7 L380.2,326.3 L385.1,327.1 L390.0,328.0" fill="none" stroke="#3a1414" stroke-width="0.5" opacity="0.36"/>
  <path d="M0.0,328.6 L4.9,329.1 L9.8,329.3 L14.6,329.1 L19.5,328.6 L24.4,327.8 L29.2,326.9 L34.1,326.0 L39.0,325.1 L43.9,324.6 L48.8,324.3 L53.6,324.4 L58.5,324.9 L63.4,325.6 L68.2,326.5 L73.1,327.4 L78.0,328.3 L82.9,328.9 L87.8,329.3 L92.6,329.2 L97.5,328.9 L102.4,328.2 L107.2,327.3 L112.1,326.3 L117.0,325.5 L121.9,324.8 L126.8,324.4 L131.6,324.3 L136.5,324.6 L141.4,325.3 L146.2,326.1 L151.1,327.1 L156.0,328.0 L160.9,328.7 L165.8,329.2 L170.6,329.3 L175.5,329.1 L180.4,328.5 L185.2,327.7 L190.1,326.7 L195.0,325.8 L199.9,325.0 L204.8,324.5 L209.6,324.3 L214.5,324.5 L219.4,325.0 L224.2,325.7 L229.1,326.7 L234.0,327.6 L238.9,328.4 L243.8,329.0 L248.6,329.3 L253.5,329.2 L258.4,328.8 L263.2,328.0 L268.1,327.1 L273.0,326.2 L277.9,325.3 L282.8,324.7 L287.6,324.3 L292.5,324.4 L297.4,324.7 L302.2,325.4 L307.1,326.3 L312.0,327.2 L316.9,328.1 L321.8,328.8 L326.6,329.2 L331.5,329.3 L336.4,329.0 L341.2,328.4 L346.1,327.5 L351.0,326.6 L355.9,325.7 L360.8,324.9 L365.6,324.4 L370.5,324.3 L375.4,324.5 L380.2,325.1 L385.1,325.9 L390.0,326.8" fill="none" stroke="#5a1e1e" stroke-width="0.4" opacity="0.20"/>
  <path d="M0.0,341.5 L4.9,340.8 L9.8,339.9 L14.6,339.0 L19.5,337.9 L24.4,336.9 L29.2,335.9 L34.1,335.1 L39.0,334.5 L43.9,334.1 L48.8,334.0 L53.6,334.2 L58.5,334.7 L63.4,335.4 L68.2,336.2 L73.1,337.3 L78.0,338.3 L82.9,339.4 L87.8,340.3 L92.6,341.1 L97.5,341.6 L102.4,341.9 L107.2,342.0 L112.1,341.7 L117.0,341.2 L121.9,340.5 L126.8,339.6 L131.6,338.5 L136.5,337.5 L141.4,336.4 L146.2,335.5 L151.1,334.8 L156.0,334.3 L160.9,334.0 L165.8,334.1 L170.6,334.4 L175.5,334.9 L180.4,335.7 L185.2,336.6 L190.1,337.7 L195.0,338.7 L199.9,339.8 L204.8,340.6 L209.6,341.3 L214.5,341.8 L219.4,342.0 L224.2,341.9 L229.1,341.5 L234.0,340.9 L238.9,340.1 L243.8,339.1 L248.6,338.1 L253.5,337.0 L258.4,336.1 L263.2,335.2 L268.1,334.5 L273.0,334.1 L277.9,334.0 L282.8,334.1 L287.6,334.6 L292.5,335.2 L297.4,336.1 L302.2,337.1 L307.1,338.1 L312.0,339.2 L316.9,340.1 L321.8,341.0 L326.6,341.6 L331.5,341.9 L336.4,342.0 L341.2,341.8 L346.1,341.3 L351.0,340.6 L355.9,339.7 L360.8,338.7 L365.6,337.7 L370.5,336.6 L375.4,335.7 L380.2,334.9 L385.1,334.3 L390.0,334.0" fill="none" stroke="#3a1414" stroke-width="0.6" opacity="0.3"/>
  <path d="M0.0,340.3 L4.9,339.6 L9.8,338.7 L14.6,337.8 L19.5,336.7 L24.4,335.7 L29.2,334.7 L34.1,333.9 L39.0,333.3 L43.9,332.9 L48.8,332.8 L53.6,333.0 L58.5,333.5 L63.4,334.2 L68.2,335.0 L73.1,336.1 L78.0,337.1 L82.9,338.2 L87.8,339.1 L92.6,339.9 L97.5,340.4 L102.4,340.7 L107.2,340.8 L112.1,340.5 L117.0,340.0 L121.9,339.3 L126.8,338.4 L131.6,337.3 L136.5,336.3 L141.4,335.2 L146.2,334.3 L151.1,333.6 L156.0,333.1 L160.9,332.8 L165.8,332.9 L170.6,333.2 L175.5,333.7 L180.4,334.5 L185.2,335.4 L190.1,336.5 L195.0,337.5 L199.9,338.6 L204.8,339.4 L209.6,340.1 L214.5,340.6 L219.4,340.8 L224.2,340.7 L229.1,340.3 L234.0,339.7 L238.9,338.9 L243.8,337.9 L248.6,336.9 L253.5,335.8 L258.4,334.9 L263.2,334.0 L268.1,333.3 L273.0,332.9 L277.9,332.8 L282.8,332.9 L287.6,333.4 L292.5,334.0 L297.4,334.9 L302.2,335.9 L307.1,336.9 L312.0,338.0 L316.9,338.9 L321.8,339.8 L326.6,340.4 L331.5,340.7 L336.4,340.8 L341.2,340.6 L346.1,340.1 L351.0,339.4 L355.9,338.5 L360.8,337.5 L365.6,336.5 L370.5,335.4 L375.4,334.5 L380.2,333.7 L385.1,333.1 L390.0,332.8" fill="none" stroke="#5a1e1e" stroke-width="0.4" opacity="0.17"/>
  <path d="M0.0,351.5 L4.9,351.4 L9.8,351.0 L14.6,350.3 L19.5,349.4 L24.4,348.4 L29.2,347.3 L34.1,346.3 L39.0,345.5 L43.9,344.9 L48.8,344.5 L53.6,344.5 L58.5,344.9 L63.4,345.5 L68.2,346.3 L73.1,347.3 L78.0,348.4 L82.9,349.4 L87.8,350.3 L92.6,351.0 L97.5,351.4 L102.4,351.5 L107.2,351.2 L112.1,350.7 L117.0,349.9 L121.9,348.9 L126.8,347.9 L131.6,346.8 L136.5,345.9 L141.4,345.1 L146.2,344.7 L151.1,344.5 L156.0,344.7 L160.9,345.1 L165.8,345.9 L170.6,346.8 L175.5,347.9 L180.4,348.9 L185.2,349.9 L190.1,350.7 L195.0,351.2 L199.9,351.5 L204.8,351.4 L209.6,351.0 L214.5,350.3 L219.4,349.4 L224.2,348.4 L229.1,347.3 L234.0,346.3 L238.9,345.5 L243.8,344.9 L248.6,344.5 L253.5,344.5 L258.4,344.9 L263.2,345.5 L268.1,346.3 L273.0,347.3 L277.9,348.4 L282.8,349.4 L287.6,350.3 L292.5,351.0 L297.4,351.4 L302.2,351.5 L307.1,351.3 L312.0,350.7 L316.9,349.9 L321.8,349.0 L326.6,347.9 L331.5,346.8 L336.4,345.9 L341.2,345.2 L346.1,344.7 L351.0,344.5 L355.9,344.7 L360.8,345.1 L365.6,345.9 L370.5,346.8 L375.4,347.8 L380.2,348.9 L385.1,349.9 L390.0,350.7" fill="none" stroke="#3a1414" stroke-width="0.5" opacity="0.24"/>
  <path d="M0.0,358.6 L4.9,359.2 L9.8,359.7 L14.6,360.0 L19.5,360.0 L24.4,359.7 L29.2,359.3 L34.1,358.6 L39.0,357.9 L43.9,357.2 L48.8,356.6 L53.6,356.2 L58.5,356.0 L63.4,356.1 L68.2,356.4 L73.1,356.9 L78.0,357.6 L82.9,358.3 L87.8,359.0 L92.6,359.5 L97.5,359.9 L102.4,360.0 L107.2,359.9 L112.1,359.5 L117.0,358.9 L121.9,358.2 L126.8,357.5 L131.6,356.9 L136.5,356.4 L141.4,356.1 L146.2,356.0 L151.1,356.2 L156.0,356.7 L160.9,357.3 L165.8,358.0 L170.6,358.7 L175.5,359.3 L180.4,359.8 L185.2,360.0 L190.1,360.0 L195.0,359.7 L199.9,359.2 L204.8,358.5 L209.6,357.8 L214.5,357.1 L219.4,356.6 L224.2,356.2 L229.1,356.0 L234.0,356.1 L238.9,356.4 L243.8,357.0 L248.6,357.7 L253.5,358.4 L258.4,359.0 L263.2,359.6 L268.1,359.9 L273.0,360.0 L277.9,359.8 L282.8,359.4 L287.6,358.8 L292.5,358.1 L297.4,357.4 L302.2,356.8 L307.1,356.3 L312.0,356.0 L316.9,356.0 L321.8,356.3 L326.6,356.7 L331.5,357.4 L336.4,358.1 L341.2,358.8 L346.1,359.4 L351.0,359.8 L355.9,360.0 L360.8,359.9 L365.6,359.6 L370.5,359.1 L375.4,358.4 L380.2,357.7 L385.1,357.1 L390.0,356.5" fill="none" stroke="#3a1414" stroke-width="0.5" opacity="0.18"/>
  <path d="M0.0,369.5 L4.9,368.6 L9.8,367.6 L14.6,366.6 L19.5,365.7 L24.4,364.9 L29.2,364.3 L34.1,363.8 L39.0,363.6 L43.9,363.5 L48.8,363.7 L53.6,364.0 L58.5,364.6 L63.4,365.3 L68.2,366.2 L73.1,367.1 L78.0,368.1 L82.9,369.1 L87.8,370.0 L92.6,370.8 L97.5,371.5 L102.4,372.0 L107.2,372.4 L112.1,372.5 L117.0,372.4 L121.9,372.1 L126.8,371.6 L131.6,371.0 L136.5,370.2 L141.4,369.2 L146.2,368.3 L151.1,367.3 L156.0,366.3 L160.9,365.5 L165.8,364.7 L170.6,364.1 L175.5,363.7 L180.4,363.5 L185.2,363.5 L190.1,363.8 L195.0,364.2 L199.9,364.8 L204.8,365.5 L209.6,366.4 L214.5,367.4 L219.4,368.4 L224.2,369.3 L229.1,370.2 L234.0,371.0 L238.9,371.7 L243.8,372.1 L248.6,372.4 L253.5,372.5 L258.4,372.4 L263.2,372.0 L268.1,371.5 L273.0,370.7 L277.9,369.9 L282.8,369.0 L287.6,368.0 L292.5,367.0 L297.4,366.1 L302.2,365.3 L307.1,364.5 L312.0,364.0 L316.9,363.6 L321.8,363.5 L326.6,363.6 L331.5,363.9 L336.4,364.3 L341.2,365.0 L346.1,365.8 L351.0,366.7 L355.9,367.6 L360.8,368.6 L365.6,369.6 L370.5,370.5 L375.4,371.2 L380.2,371.8 L385.1,372.2 L390.0,372.5" fill="none" stroke="#3a1414" stroke-width="0.5" opacity="0.14"/>
  <path d="M0.0,379.3 L4.9,379.5 L9.8,379.4 L14.6,379.1 L19.5,378.6 L24.4,377.9 L29.2,377.3 L34.1,376.8 L39.0,376.5 L43.9,376.5 L48.8,376.8 L53.6,377.3 L58.5,378.0 L63.4,378.6 L68.2,379.1 L73.1,379.4 L78.0,379.5 L82.9,379.3 L87.8,378.8 L92.6,378.2 L97.5,377.5 L102.4,377.0 L107.2,376.6 L112.1,376.5 L117.0,376.7 L121.9,377.1 L126.8,377.7 L131.6,378.4 L136.5,378.9 L141.4,379.4 L146.2,379.5 L151.1,379.4 L156.0,379.0 L160.9,378.4 L165.8,377.7 L170.6,377.1 L175.5,376.7 L180.4,376.5 L185.2,376.6 L190.1,376.9 L195.0,377.5 L199.9,378.1 L204.8,378.8 L209.6,379.2 L214.5,379.5 L219.4,379.4 L224.2,379.1 L229.1,378.6 L234.0,378.0 L238.9,377.3 L243.8,376.8 L248.6,376.5 L253.5,376.5 L258.4,376.8 L263.2,377.3 L268.1,377.9 L273.0,378.5 L277.9,379.1 L282.8,379.4 L287.6,379.5 L292.5,379.3 L297.4,378.8 L302.2,378.2 L307.1,377.6 L312.0,377.0 L316.9,376.6 L321.8,376.5 L326.6,376.7 L331.5,377.1 L336.4,377.7 L341.2,378.3 L346.1,378.9 L351.0,379.3 L355.9,379.5 L360.8,379.4 L365.6,379.0 L370.5,378.4 L375.4,377.8 L380.2,377.2 L385.1,376.7 L390.0,376.5" fill="none" stroke="#3a1414" stroke-width="0.4" opacity="0.1"/>
  <g stroke="#555555" stroke-width="0.6" fill="none" opacity="0.28">
    <path d="M18,0 L18,380 M372,0 L372,380"/>
  </g>
  <g stroke="#d4001a" stroke-width="1.0" opacity="0.35">
    <line x1="6" y1="0" x2="6" y2="380" stroke-dasharray="3,5"/>
    <line x1="384" y1="0" x2="384" y2="380" stroke-dasharray="3,5"/>
  </g>
  <g stroke="#d4001a" stroke-width="1.0" opacity="0.55">
    <line x1="3.0" y1="20" x2="9.0" y2="20"/>
    <line x1="381.0" y1="20" x2="387.0" y2="20"/>
    <line x1="3.0" y1="360" x2="9.0" y2="360"/>
    <line x1="381.0" y1="360" x2="387.0" y2="360"/>
  </g>
  <g stroke="#666666" stroke-width="0.5" fill="none" opacity="0.42">
    <polygon points="48.0,62.0 53.0,67.0 48.0,72.0 43.0,67.0" />
    <circle cx="48.0" cy="67.0" r="1.2" fill="#666666" stroke="none" opacity="0.50"/>
    <polygon points="102.0,62.0 107.0,67.0 102.0,72.0 97.0,67.0" />
    <circle cx="102.0" cy="67.0" r="1.2" fill="#666666" stroke="none" opacity="0.50"/>
    <polygon points="168.0,62.0 173.0,67.0 168.0,72.0 163.0,67.0" />
    <circle cx="168.0" cy="67.0" r="1.2" fill="#666666" stroke="none" opacity="0.50"/>
    <polygon points="234.0,62.0 239.0,67.0 234.0,72.0 229.0,67.0" />
    <circle cx="234.0" cy="67.0" r="1.2" fill="#666666" stroke="none" opacity="0.50"/>
    <polygon points="288.0,62.0 293.0,67.0 288.0,72.0 283.0,67.0" />
    <circle cx="288.0" cy="67.0" r="1.2" fill="#666666" stroke="none" opacity="0.50"/>
    <polygon points="342.0,62.0 347.0,67.0 342.0,72.0 337.0,67.0" />
    <circle cx="342.0" cy="67.0" r="1.2" fill="#666666" stroke="none" opacity="0.50"/>
    <polygon points="48.0,97.0 53.0,102.0 48.0,107.0 43.0,102.0" />
    <circle cx="48.0" cy="102.0" r="1.2" fill="#666666" stroke="none" opacity="0.50"/>
    <polygon points="102.0,97.0 107.0,102.0 102.0,107.0 97.0,102.0" />
    <circle cx="102.0" cy="102.0" r="1.2" fill="#666666" stroke="none" opacity="0.50"/>
    <polygon points="168.0,97.0 173.0,102.0 168.0,107.0 163.0,102.0" />
    <circle cx="168.0" cy="102.0" r="1.2" fill="#666666" stroke="none" opacity="0.50"/>
    <polygon points="234.0,97.0 239.0,102.0 234.0,107.0 229.0,102.0" />
    <circle cx="234.0" cy="102.0" r="1.2" fill="#666666" stroke="none" opacity="0.50"/>
    <polygon points="288.0,97.0 293.0,102.0 288.0,107.0 283.0,102.0" />
    <circle cx="288.0" cy="102.0" r="1.2" fill="#666666" stroke="none" opacity="0.50"/>
    <polygon points="342.0,97.0 347.0,102.0 342.0,107.0 337.0,102.0" />
    <circle cx="342.0" cy="102.0" r="1.2" fill="#666666" stroke="none" opacity="0.50"/>
    <polygon points="48.0,132.0 53.0,137.0 48.0,142.0 43.0,137.0" />
    <circle cx="48.0" cy="137.0" r="1.2" fill="#666666" stroke="none" opacity="0.50"/>
    <polygon points="102.0,132.0 107.0,137.0 102.0,142.0 97.0,137.0" />
    <circle cx="102.0" cy="137.0" r="1.2" fill="#666666" stroke="none" opacity="0.50"/>
    <polygon points="168.0,132.0 173.0,137.0 168.0,142.0 163.0,137.0" />
    <circle cx="168.0" cy="137.0" r="1.2" fill="#666666" stroke="none" opacity="0.50"/>
    <polygon points="234.0,132.0 239.0,137.0 234.0,142.0 229.0,137.0" />
    <circle cx="234.0" cy="137.0" r="1.2" fill="#666666" stroke="none" opacity="0.50"/>
    <polygon points="288.0,132.0 293.0,137.0 288.0,142.0 283.0,137.0" />
    <circle cx="288.0" cy="137.0" r="1.2" fill="#666666" stroke="none" opacity="0.50"/>
    <polygon points="342.0,132.0 347.0,137.0 342.0,142.0 337.0,137.0" />
    <circle cx="342.0" cy="137.0" r="1.2" fill="#666666" stroke="none" opacity="0.50"/>
    <polygon points="48.0,167.0 53.0,172.0 48.0,177.0 43.0,172.0" />
    <circle cx="48.0" cy="172.0" r="1.2" fill="#666666" stroke="none" opacity="0.50"/>
    <polygon points="102.0,167.0 107.0,172.0 102.0,177.0 97.0,172.0" />
    <circle cx="102.0" cy="172.0" r="1.2" fill="#666666" stroke="none" opacity="0.50"/>
    <polygon points="168.0,167.0 173.0,172.0 168.0,177.0 163.0,172.0" />
    <circle cx="168.0" cy="172.0" r="1.2" fill="#666666" stroke="none" opacity="0.50"/>
    <polygon points="234.0,167.0 239.0,172.0 234.0,177.0 229.0,172.0" />
    <circle cx="234.0" cy="172.0" r="1.2" fill="#666666" stroke="none" opacity="0.50"/>
    <polygon points="288.0,167.0 293.0,172.0 288.0,177.0 283.0,172.0" />
    <circle cx="288.0" cy="172.0" r="1.2" fill="#666666" stroke="none" opacity="0.50"/>
    <polygon points="342.0,167.0 347.0,172.0 342.0,177.0 337.0,172.0" />
    <circle cx="342.0" cy="172.0" r="1.2" fill="#666666" stroke="none" opacity="0.50"/>
    <polygon points="48.0,202.0 53.0,207.0 48.0,212.0 43.0,207.0" />
    <circle cx="48.0" cy="207.0" r="1.2" fill="#666666" stroke="none" opacity="0.50"/>
    <polygon points="102.0,202.0 107.0,207.0 102.0,212.0 97.0,207.0" />
    <circle cx="102.0" cy="207.0" r="1.2" fill="#666666" stroke="none" opacity="0.50"/>
    <polygon points="168.0,202.0 173.0,207.0 168.0,212.0 163.0,207.0" />
    <circle cx="168.0" cy="207.0" r="1.2" fill="#666666" stroke="none" opacity="0.50"/>
    <polygon points="234.0,202.0 239.0,207.0 234.0,212.0 229.0,207.0" />
    <circle cx="234.0" cy="207.0" r="1.2" fill="#666666" stroke="none" opacity="0.50"/>
    <polygon points="288.0,202.0 293.0,207.0 288.0,212.0 283.0,207.0" />
    <circle cx="288.0" cy="207.0" r="1.2" fill="#666666" stroke="none" opacity="0.50"/>
    <polygon points="342.0,202.0 347.0,207.0 342.0,212.0 337.0,207.0" />
    <circle cx="342.0" cy="207.0" r="1.2" fill="#666666" stroke="none" opacity="0.50"/>
    <polygon points="48.0,237.0 53.0,242.0 48.0,247.0 43.0,242.0" />
    <circle cx="48.0" cy="242.0" r="1.2" fill="#666666" stroke="none" opacity="0.50"/>
    <polygon points="102.0,237.0 107.0,242.0 102.0,247.0 97.0,242.0" />
    <circle cx="102.0" cy="242.0" r="1.2" fill="#666666" stroke="none" opacity="0.50"/>
    <polygon points="168.0,237.0 173.0,242.0 168.0,247.0 163.0,242.0" />
    <circle cx="168.0" cy="242.0" r="1.2" fill="#666666" stroke="none" opacity="0.50"/>
    <polygon points="234.0,237.0 239.0,242.0 234.0,247.0 229.0,242.0" />
    <circle cx="234.0" cy="242.0" r="1.2" fill="#666666" stroke="none" opacity="0.50"/>
    <polygon points="288.0,237.0 293.0,242.0 288.0,247.0 283.0,242.0" />
    <circle cx="288.0" cy="242.0" r="1.2" fill="#666666" stroke="none" opacity="0.50"/>
    <polygon points="342.0,237.0 347.0,242.0 342.0,247.0 337.0,242.0" />
    <circle cx="342.0" cy="242.0" r="1.2" fill="#666666" stroke="none" opacity="0.50"/>
    <polygon points="48.0,272.0 53.0,277.0 48.0,282.0 43.0,277.0" />
    <circle cx="48.0" cy="277.0" r="1.2" fill="#666666" stroke="none" opacity="0.50"/>
    <polygon points="102.0,272.0 107.0,277.0 102.0,282.0 97.0,277.0" />
    <circle cx="102.0" cy="277.0" r="1.2" fill="#666666" stroke="none" opacity="0.50"/>
    <polygon points="168.0,272.0 173.0,277.0 168.0,282.0 163.0,277.0" />
    <circle cx="168.0" cy="277.0" r="1.2" fill="#666666" stroke="none" opacity="0.50"/>
    <polygon points="234.0,272.0 239.0,277.0 234.0,282.0 229.0,277.0" />
    <circle cx="234.0" cy="277.0" r="1.2" fill="#666666" stroke="none" opacity="0.50"/>
    <polygon points="288.0,272.0 293.0,277.0 288.0,282.0 283.0,277.0" />
    <circle cx="288.0" cy="277.0" r="1.2" fill="#666666" stroke="none" opacity="0.50"/>
    <polygon points="342.0,272.0 347.0,277.0 342.0,282.0 337.0,277.0" />
    <circle cx="342.0" cy="277.0" r="1.2" fill="#666666" stroke="none" opacity="0.50"/>
    <polygon points="48.0,307.0 53.0,312.0 48.0,317.0 43.0,312.0" />
    <circle cx="48.0" cy="312.0" r="1.2" fill="#666666" stroke="none" opacity="0.50"/>
    <polygon points="102.0,307.0 107.0,312.0 102.0,317.0 97.0,312.0" />
    <circle cx="102.0" cy="312.0" r="1.2" fill="#666666" stroke="none" opacity="0.50"/>
    <polygon points="168.0,307.0 173.0,312.0 168.0,317.0 163.0,312.0" />
    <circle cx="168.0" cy="312.0" r="1.2" fill="#666666" stroke="none" opacity="0.50"/>
    <polygon points="234.0,307.0 239.0,312.0 234.0,317.0 229.0,312.0" />
    <circle cx="234.0" cy="312.0" r="1.2" fill="#666666" stroke="none" opacity="0.50"/>
    <polygon points="288.0,307.0 293.0,312.0 288.0,317.0 283.0,312.0" />
    <circle cx="288.0" cy="312.0" r="1.2" fill="#666666" stroke="none" opacity="0.50"/>
    <polygon points="342.0,307.0 347.0,312.0 342.0,317.0 337.0,312.0" />
    <circle cx="342.0" cy="312.0" r="1.2" fill="#666666" stroke="none" opacity="0.50"/>
  </g>
  <g fill="none" stroke-width="1.0">
    <g stroke="#888888">
      <circle cx="48" cy="50" r="9"/>
      <circle cx="234" cy="50" r="9"/>
      <circle cx="288" cy="50" r="9"/>
      <circle cx="342" cy="50" r="9"/>
      <circle cx="48" cy="85" r="9"/>
      <circle cx="234" cy="85" r="9"/>
      <circle cx="288" cy="85" r="9"/>
      <circle cx="342" cy="85" r="9"/>
      <circle cx="48" cy="120" r="9"/>
      <circle cx="234" cy="120" r="9"/>
      <circle cx="288" cy="120" r="9"/>
      <circle cx="342" cy="120" r="9"/>
      <circle cx="48" cy="155" r="9"/>
      <circle cx="234" cy="155" r="9"/>
      <circle cx="288" cy="155" r="9"/>
      <circle cx="342" cy="155" r="9"/>
      <circle cx="48" cy="190" r="9"/>
      <circle cx="234" cy="190" r="9"/>
      <circle cx="288" cy="190" r="9"/>
      <circle cx="342" cy="190" r="9"/>
      <circle cx="48" cy="225" r="9"/>
      <circle cx="234" cy="225" r="9"/>
      <circle cx="288" cy="225" r="9"/>
      <circle cx="342" cy="225" r="9"/>
      <circle cx="48" cy="260" r="9"/>
      <circle cx="234" cy="260" r="9"/>
      <circle cx="288" cy="260" r="9"/>
      <circle cx="342" cy="260" r="9"/>
      <circle cx="48" cy="295" r="9"/>
      <circle cx="234" cy="295" r="9"/>
      <circle cx="288" cy="295" r="9"/>
      <circle cx="342" cy="295" r="9"/>
      <circle cx="48" cy="330" r="9"/>
      <circle cx="234" cy="330" r="9"/>
      <circle cx="288" cy="330" r="9"/>
      <circle cx="342" cy="330" r="9"/>
    </g>
    <g stroke="#d4af37">
      <circle cx="102" cy="50" r="9"/>
      <circle cx="168" cy="50" r="9"/>
      <circle cx="102" cy="85" r="9"/>
      <circle cx="168" cy="85" r="9"/>
      <circle cx="102" cy="120" r="9"/>
      <circle cx="168" cy="120" r="9"/>
      <circle cx="102" cy="155" r="9"/>
      <circle cx="168" cy="155" r="9"/>
      <circle cx="102" cy="190" r="9"/>
      <circle cx="168" cy="190" r="9"/>
      <circle cx="102" cy="225" r="9"/>
      <circle cx="168" cy="225" r="9"/>
      <circle cx="102" cy="260" r="9"/>
      <circle cx="168" cy="260" r="9"/>
      <circle cx="102" cy="295" r="9"/>
      <circle cx="168" cy="295" r="9"/>
      <circle cx="102" cy="330" r="9"/>
      <circle cx="168" cy="330" r="9"/>
    </g>
  </g>
  <circle cx="380.0" cy="10" r="5" fill="#d4001a"/>
</svg>