<svg xmlns="http://www.w3.org/2000/svg" xmlns:inkscape="http://www.inkscape.org/namespaces/inkscape" width="390.0" height="379.43" viewBox="0 0 390.0 379.43">
<g inkscape:label="artwork" inkscape:groupmode="layer">
<rect width="390.0" height="379.43" fill="#1a1d22"/>
<line x1="0" y1="29.5" x2="390.0" y2="29.5" stroke="#dc2626" stroke-width="1" opacity="0.4"/>
<rect x="115.2" y="47.2" width="263.0" height="141.7" rx="4.4" fill="#101216" stroke="#2a3038" stroke-width="1"/>
</g>
<g inkscape:label="control-graphics" inkscape:groupmode="layer">
<circle cx="17.7" cy="64.5" r="11.5" fill="#0e1013" stroke="#4a5058" stroke-width="1"/>
<circle cx="17.7" cy="64.5" r="5.0" fill="#101216"/>
<circle cx="41.3" cy="64.5" r="11.5" fill="#0e1013" stroke="#4a5058" stroke-width="1"/>
<circle cx="41.3" cy="64.5" r="5.0" fill="#101216"/>
<circle cx="67.9" cy="64.5" r="9.4" fill="#15181c" stroke="#3a4048" stroke-width="1"/>
<circle cx="94.5" cy="64.5" r="9.4" fill="#15181c" stroke="#3a4048" stroke-width="1"/>
<circle cx="17.7" cy="110.7" r="11.5" fill="#0e1013" stroke="#4a5058" stroke-width="1"/>
<circle cx="17.7" cy="110.7" r="5.0" fill="#101216"/>
<circle cx="41.3" cy="110.7" r="11.5" fill="#0e1013" stroke="#4a5058" stroke-width="1"/>
<circle cx="41.3" cy="110.7" r="5.0" fill="#101216"/>
<circle cx="67.9" cy="110.7" r="9.4" fill="#15181c" stroke="#3a4048" stroke-width="1"/>
<circle cx="94.5" cy="110.7" r="9.4" fill="#15181c" stroke="#3a4048" stroke-width="1"/>
<circle cx="17.7" cy="157.0" r="11.5" fill="#0e1013" stroke="#4a5058" stroke-width="1"/>
<circle cx="17.7" cy="157.0" r="5.0" fill="#101216"/>
<circle cx="41.3" cy="157.0" r="11.5" fill="#0e1013" stroke="#4a5058" stroke-width="1"/>
<circle cx="41.3" cy="157.0" r="5.0" fill="#101216"/>
<circle cx="67.9" cy="157.0" r="9.4" fill="#15181c" stroke="#3a4048" stroke-width="1"/>
<circle cx="94.5" cy="157.0" r="9.4" fill="#15181c" stroke="#3a4048" stroke-width="1"/>
<circle cx="17.7" cy="203.2" r="11.5" fill="#0e1013" stroke="#4a5058" stroke-width="1"/>
<circle cx="17.7" cy="203.2" r="5.0" fill="#101216"/>
<circle cx="41.3" cy="203.2" r="11.5" fill="#0e1013" stroke="#4a5058" stroke-width="1"/>
<circle cx="41.3" cy="203.2" r="5.0" fill="#101216"/>
<circle cx="67.9" cy="203.2" r="9.4" fill="#15181c" stroke="#3a4048" stroke-width="1"/>
<circle cx="94.5" cy="203.2" r="9.4" fill="#15181c" stroke="#3a4048" stroke-width="1"/>
<circle cx="17.7" cy="249.5" r="11.5" fill="#0e1013" stroke="#4a5058" stroke-width="1"/>
<circle cx="17.7" cy="249.5" r="5.0" fill="#101216"/>
<circle cx="41.3" cy="249.5" r="11.5" fill="#0e1013" stroke="#4a5058" stroke-width="1"/>
<circle cx="41.3" cy="249.5" r="5.0" fill="#101216"/>
<circle cx="67.9" cy="249.5" r="9.4" fill="#15181c" stroke="#3a4048" stroke-width="1"/>
<circle cx="94.5" cy="249.5" r="9.4" fill="#15181c" stroke="#3a4048" stroke-width="1"/>
<circle cx="17.7" cy="295.8" r="11.5" fill="#0e1013" stroke="#4a5058" stroke-width="1"/>
<circle cx="17.7" cy="295.8" r="5.0" fill="#101216"/>
<circle cx="41.3" cy="295.8" r="11.5" fill="#0e1013" stroke="#4a5058" stroke-width="1"/>
<circle cx="41.3" cy="295.8" r="5.0" fill="#101216"/>
<circle cx="67.9" cy="295.8" r="9.4" fill="#15181c" stroke="#3a4048" stroke-width="1"/>
<circle cx="94.5" cy="295.8" r="9.4" fill="#15181c" stroke="#3a4048" stroke-width="1"/>
</g><g inkscape:label="components" inkscape:groupmode="layer" id="components" style="display:none">
    <circle id="ATTEN_0_0" cx="67.913" cy="64.469" r="2.953" style="fill:#ff0000"/>
    <circle id="ATTEN_0_1" cx="94.488" cy="64.469" r="2.953" style="fill:#ff0000"/>
    <circle id="ATTEN_1_0" cx="67.913" cy="110.728" r="2.953" style="fill:#ff0000"/>
    <circle id="ATTEN_1_1" cx="94.488" cy="110.728" r="2.953" style="fill:#ff0000"/>
    <circle id="ATTEN_2_0" cx="67.913" cy="156.988" r="2.953" style="fill:#ff0000"/>
    <circle id="ATTEN_2_1" cx="94.488" cy="156.988" r="2.953" style="fill:#ff0000"/>
    <circle id="ATTEN_3_0" cx="67.913" cy="203.248" r="2.953" style="fill:#ff0000"/>
    <circle id="ATTEN_3_1" cx="94.488" cy="203.248" r="2.953" style="fill:#ff0000"/>
    <circle id="ATTEN_4_0" cx="67.913" cy="249.508" r="2.953" style="fill:#ff0000"/>
    <circle id="ATTEN_4_1" cx="94.488" cy="249.508" r="2.953" style="fill:#ff0000"/>
    <circle id="ATTEN_5_0" cx="67.913" cy="295.768" r="2.953" style="fill:#ff0000"/>
    <circle id="ATTEN_5_1" cx="94.488" cy="295.768" r="2.953" style="fill:#ff0000"/>
    <circle id="CV_0_0" cx="17.717" cy="64.469" r="2.953" style="fill:#00ff00"/>
    <circle id="CV_0_1" cx="41.339" cy="64.469" r="2.953" style="fill:#00ff00"/>
    <circle id="CV_1_0" cx="17.717" cy="110.728" r="2.953" style="fill:#00ff00"/>
    <circle id="CV_1_1" cx="41.339" cy="110.728" r="2.953" style="fill:#00ff00"/>
    <circle id="CV_2_0" cx="17.717" cy="156.988" r="2.953" style="fill:#00ff00"/>
    <circle id="CV_2_1" cx="41.339" cy="156.988" r="2.953" style="fill:#00ff00"/>
    <circle id="CV_3_0" cx="17.717" cy="203.248" r="2.953" style="fill:#00ff00"/>
    <circle id="CV_3_1" cx="41.339" cy="203.248" r="2.953" style="fill:#00ff00"/>
    <circle id="CV_4_0" cx="17.717" cy="249.508" r="2.953" style="fill:#00ff00"/>
    <circle id="CV_4_1" cx="41.339" cy="249.508" r="2.953" style="fill:#00ff00"/>
    <circle id="CV_5_0" cx="17.717" cy="295.768" r="2.953" style="fill:#00ff00"/>
    <circle id="CV_5_1" cx="41.339" cy="295.768" r="2.953" style="fill:#00ff00"/>


</g>
</svg>