<svg xmlns="http://www.w3.org/2000/svg" width="499.2" height="485.67" viewBox="0 0 499.2 485.67">
  <defs>
    <pattern id="g" x="0" y="0" width="499.2" height="2" patternUnits="userSpaceOnUse"><rect width="499.2" height="2" fill="#f7f7f7"/><rect y="1" width="499.2" height="0.6" fill="#cccccc" opacity="0.28"/></pattern>
    <linearGradient id="mbsG" x1="0" y1="0" x2="0" y2="1"><stop offset="0%" stop-color="#9aa8c0" stop-opacity="0.3"/><stop offset="60%" stop-color="#9aa8c0" stop-opacity="0.75"/><stop offset="100%" stop-color="#9aa8c0" stop-opacity="0.95"/></linearGradient>
    <linearGradient id="waterG" x1="0" y1="0" x2="0" y2="1"><stop offset="0%" stop-color="#a8c4d4" stop-opacity="0.0"/><stop offset="70%" stop-color="#a8c4d4" stop-opacity="0.12"/><stop offset="100%" stop-color="#a8c4d4" stop-opacity="0.25"/></linearGradient>
  </defs>

  <rect width="499.2" height="485.67" fill="url(#g)"/>
  <rect x="0" y="45.4" width="170.1" height="440.3" fill="url(#waterG)"/>
  <g fill="none" stroke="#5a82a0" opacity="0.18">
    <path d="M0.0,75.6 L3.5,75.9 L6.9,76.2 L10.4,76.5 L13.9,76.7 L17.3,76.8 L20.8,76.8 L24.3,76.7 L27.7,76.6 L31.2,76.4 L34.6,76.1 L38.1,75.8 L41.6,75.4 L45.0,75.1 L48.5,74.8 L52.0,74.6 L55.4,74.5 L58.9,74.4 L62.4,74.4 L65.8,74.5 L69.3,74.7 L72.8,74.9 L76.2,75.2 L79.7,75.6 L83.2,75.9 L86.6,76.2 L90.1,76.4 L93.5,76.6 L97.0,76.8 L100.5,76.8 L103.9,76.7 L107.4,76.6 L110.9,76.4 L114.3,76.1 L117.8,75.8 L121.3,75.5 L124.7,75.2 L128.2,74.9 L131.7,74.6 L135.1,74.5 L138.6,74.4 L142.0,74.4 L145.5,74.5 L149.0,74.7 L152.4,74.9 L155.9,75.2 L159.4,75.5 L162.8,75.9 L166.3,76.2" stroke-width="0.4"/>
    <path d="M0.0,133.1 L3.5,133.3 L6.9,133.4 L10.4,133.5 L13.9,133.5 L17.3,133.3 L20.8,133.1 L24.3,132.9 L27.7,132.6 L31.2,132.3 L34.6,131.9 L38.1,131.7 L41.6,131.4 L45.0,131.2 L48.5,131.1 L52.0,131.1 L55.4,131.1 L58.9,131.3 L62.4,131.5 L65.8,131.8 L69.3,132.1 L72.8,132.4 L76.2,132.8 L79.7,133.0 L83.2,133.3 L86.6,133.4 L90.1,133.5 L93.5,133.5 L97.0,133.4 L100.5,133.2 L103.9,132.9 L107.4,132.6 L110.9,132.3 L114.3,132.0 L117.8,131.7 L121.3,131.4 L124.7,131.2 L128.2,131.1 L131.7,131.1 L135.1,131.1 L138.6,131.3 L142.0,131.5 L145.5,131.8 L149.0,132.1 L152.4,132.4 L155.9,132.7 L159.4,133.0 L162.8,133.2 L166.3,133.4" stroke-width="0.4"/>
    <path d="M0.0,190.2 L3.5,190.2 L6.9,190.1 L10.4,189.9 L13.9,189.7 L17.3,189.4 L20.8,189.1 L24.3,188.8 L27.7,188.5 L31.2,188.2 L34.6,188.0 L38.1,187.8 L41.6,187.8 L45.0,187.8 L48.5,187.9 L52.0,188.1 L55.4,188.4 L58.9,188.7 L62.4,189.0 L65.8,189.3 L69.3,189.6 L72.8,189.9 L76.2,190.0 L79.7,190.1 L83.2,190.2 L86.6,190.1 L90.1,189.9 L93.5,189.7 L97.0,189.4 L100.5,189.1 L103.9,188.8 L107.4,188.5 L110.9,188.2 L114.3,188.0 L117.8,187.8 L121.3,187.8 L124.7,187.8 L128.2,187.9 L131.7,188.1 L135.1,188.3 L138.6,188.6 L142.0,189.0 L145.5,189.3 L149.0,189.6 L152.4,189.8 L155.9,190.0 L159.4,190.1 L162.8,190.2 L166.3,190.1" stroke-width="0.4"/>
    <path d="M0.0,246.7 L3.5,246.5 L6.9,246.2 L10.4,245.9 L13.9,245.6 L17.3,245.3 L20.8,245.0 L24.3,244.8 L27.7,244.6 L31.2,244.5 L34.6,244.5 L38.1,244.6 L41.6,244.7 L45.0,244.9 L48.5,245.2 L52.0,245.5 L55.4,245.9 L58.9,246.2 L62.4,246.5 L65.8,246.7 L69.3,246.8 L72.8,246.9 L76.2,246.8 L79.7,246.7 L83.2,246.5 L86.6,246.3 L90.1,246.0 L93.5,245.6 L97.0,245.3 L100.5,245.0 L103.9,244.8 L107.4,244.6 L110.9,244.5 L114.3,244.5 L117.8,244.5 L121.3,244.7 L124.7,244.9 L128.2,245.2 L131.7,245.5 L135.1,245.8 L138.6,246.2 L142.0,246.4 L145.5,246.7 L149.0,246.8 L152.4,246.9 L155.9,246.8 L159.4,246.7 L162.8,246.5 L166.3,246.3" stroke-width="0.4"/>
    <path d="M0.0,302.8 L3.5,302.4 L6.9,302.1 L10.4,301.8 L13.9,301.5 L17.3,301.3 L20.8,301.2 L24.3,301.2 L27.7,301.2 L31.2,301.3 L34.6,301.5 L38.1,301.8 L41.6,302.1 L45.0,302.4 L48.5,302.7 L52.0,303.0 L55.4,303.3 L58.9,303.5 L62.4,303.5 L65.8,303.6 L69.3,303.5 L72.8,303.3 L76.2,303.1 L79.7,302.8 L83.2,302.5 L86.6,302.1 L90.1,301.8 L93.5,301.6 L97.0,301.4 L100.5,301.2 L103.9,301.2 L107.4,301.2 L110.9,301.3 L114.3,301.5 L117.8,301.8 L121.3,302.1 L124.7,302.4 L128.2,302.7 L131.7,303.0 L135.1,303.3 L138.6,303.4 L142.0,303.5 L145.5,303.6 L149.0,303.5 L152.4,303.3 L155.9,303.1 L159.4,302.8 L162.8,302.5 L166.3,302.2" stroke-width="0.4"/>
    <path d="M0.0,358.6 L3.5,358.3 L6.9,358.1 L10.4,357.9 L13.9,357.9 L17.3,357.9 L20.8,358.0 L24.3,358.1 L27.7,358.4 L31.2,358.7 L34.6,359.0 L38.1,359.3 L41.6,359.6 L45.0,359.9 L48.5,360.1 L52.0,360.2 L55.4,360.2 L58.9,360.2 L62.4,360.1 L65.8,359.9 L69.3,359.6 L72.8,359.3 L76.2,359.0 L79.7,358.7 L83.2,358.4 L86.6,358.1 L90.1,358.0 L93.5,357.9 L97.0,357.9 L100.5,357.9 L103.9,358.1 L107.4,358.3 L110.9,358.6 L114.3,358.9 L117.8,359.3 L121.3,359.6 L124.7,359.8 L128.2,360.1 L131.7,360.2 L135.1,360.2 L138.6,360.2 L142.0,360.1 L145.5,359.9 L149.0,359.6 L152.4,359.3 L155.9,359.0 L159.4,358.7 L162.8,358.4 L166.3,358.1" stroke-width="0.4"/>
  </g>
  <rect x="0" y="0" width="6.8" height="485.67" fill="#dc2626" opacity="0.85"/>
  <rect x="0" y="0" width="499.2" height="45.4" fill="#e8e8e8" opacity="0.92"/>
  <text x="249.6" y="18.9" font-size="13.6" font-family="monospace" text-anchor="middle" fill="#222" font-weight="bold">SANDS MACRO</text>
  <text x="249.6" y="34.0" font-size="8.7" font-family="monospace" text-anchor="middle" fill="#888">Global · 12 mono CV</text>
  <polygon points="12.9,41.6 16.3,45.0 12.9,48.4 9.6,45.0" fill="none" stroke="#dc2626" stroke-width="0.4" opacity="0.40"/>
  <circle cx="12.9" cy="45.0" r="1.1" fill="#dc2626" opacity="0.35"/>
  <circle cx="7.6" cy="45.0" r="1.7" fill="none" stroke="#dc2626" stroke-width="0.3" opacity="0.25"/>
  <polygon points="23.7,41.6 27.1,45.0 23.7,48.4 20.3,45.0" fill="none" stroke="#dc2626" stroke-width="0.4" opacity="0.40"/>
  <circle cx="23.7" cy="45.0" r="1.1" fill="#dc2626" opacity="0.35"/>
  <circle cx="18.3" cy="45.0" r="1.7" fill="none" stroke="#dc2626" stroke-width="0.3" opacity="0.25"/>
  <polygon points="34.5,41.6 37.8,45.0 34.5,48.4 31.1,45.0" fill="none" stroke="#dc2626" stroke-width="0.4" opacity="0.40"/>
  <circle cx="34.5" cy="45.0" r="1.1" fill="#dc2626" opacity="0.35"/>
  <circle cx="29.1" cy="45.0" r="1.7" fill="none" stroke="#dc2626" stroke-width="0.3" opacity="0.25"/>
  <polygon points="45.2,41.6 48.6,45.0 45.2,48.4 41.8,45.0" fill="none" stroke="#dc2626" stroke-width="0.4" opacity="0.40"/>
  <circle cx="45.2" cy="45.0" r="1.1" fill="#dc2626" opacity="0.35"/>
  <circle cx="39.8" cy="45.0" r="1.7" fill="none" stroke="#dc2626" stroke-width="0.3" opacity="0.25"/>
  <polygon points="56.0,41.6 59.4,45.0 56.0,48.4 52.6,45.0" fill="none" stroke="#dc2626" stroke-width="0.4" opacity="0.40"/>
  <circle cx="56.0" cy="45.0" r="1.1" fill="#dc2626" opacity="0.35"/>
  <circle cx="50.6" cy="45.0" r="1.7" fill="none" stroke="#dc2626" stroke-width="0.3" opacity="0.25"/>
  <polygon points="66.7,41.6 70.1,45.0 66.7,48.4 63.3,45.0" fill="none" stroke="#dc2626" stroke-width="0.4" opacity="0.40"/>
  <circle cx="66.7" cy="45.0" r="1.1" fill="#dc2626" opacity="0.35"/>
  <circle cx="61.3" cy="45.0" r="1.7" fill="none" stroke="#dc2626" stroke-width="0.3" opacity="0.25"/>
  <polygon points="77.5,41.6 80.9,45.0 77.5,48.4 74.1,45.0" fill="none" stroke="#dc2626" stroke-width="0.4" opacity="0.40"/>
  <circle cx="77.5" cy="45.0" r="1.1" fill="#dc2626" opacity="0.35"/>
  <circle cx="72.1" cy="45.0" r="1.7" fill="none" stroke="#dc2626" stroke-width="0.3" opacity="0.25"/>
  <polygon points="88.2,41.6 91.6,45.0 88.2,48.4 84.9,45.0" fill="none" stroke="#dc2626" stroke-width="0.4" opacity="0.40"/>
  <circle cx="88.2" cy="45.0" r="1.1" fill="#dc2626" opacity="0.35"/>
  <circle cx="82.9" cy="45.0" r="1.7" fill="none" stroke="#dc2626" stroke-width="0.3" opacity="0.25"/>
  <polygon points="99.0,41.6 102.4,45.0 99.0,48.4 95.6,45.0" fill="none" stroke="#dc2626" stroke-width="0.4" opacity="0.40"/>
  <circle cx="99.0" cy="45.0" r="1.1" fill="#dc2626" opacity="0.35"/>
  <circle cx="93.6" cy="45.0" r="1.7" fill="none" stroke="#dc2626" stroke-width="0.3" opacity="0.25"/>
  <polygon points="109.8,41.6 113.1,45.0 109.8,48.4 106.4,45.0" fill="none" stroke="#dc2626" stroke-width="0.4" opacity="0.40"/>
  <circle cx="109.8" cy="45.0" r="1.1" fill="#dc2626" opacity="0.35"/>
  <circle cx="104.4" cy="45.0" r="1.7" fill="none" stroke="#dc2626" stroke-width="0.3" opacity="0.25"/>
  <polygon points="120.5,41.6 123.9,45.0 120.5,48.4 117.1,45.0" fill="none" stroke="#dc2626" stroke-width="0.4" opacity="0.40"/>
  <circle cx="120.5" cy="45.0" r="1.1" fill="#dc2626" opacity="0.35"/>
  <circle cx="115.1" cy="45.0" r="1.7" fill="none" stroke="#dc2626" stroke-width="0.3" opacity="0.25"/>
  <polygon points="131.3,41.6 134.7,45.0 131.3,48.4 127.9,45.0" fill="none" stroke="#dc2626" stroke-width="0.4" opacity="0.40"/>
  <circle cx="131.3" cy="45.0" r="1.1" fill="#dc2626" opacity="0.35"/>
  <circle cx="125.9" cy="45.0" r="1.7" fill="none" stroke="#dc2626" stroke-width="0.3" opacity="0.25"/>
  <polygon points="142.0,41.6 145.4,45.0 142.0,48.4 138.6,45.0" fill="none" stroke="#dc2626" stroke-width="0.4" opacity="0.40"/>
  <circle cx="142.0" cy="45.0" r="1.1" fill="#dc2626" opacity="0.35"/>
  <circle cx="136.6" cy="45.0" r="1.7" fill="none" stroke="#dc2626" stroke-width="0.3" opacity="0.25"/>
  <polygon points="152.8,41.6 156.2,45.0 152.8,48.4 149.4,45.0" fill="none" stroke="#dc2626" stroke-width="0.4" opacity="0.40"/>
  <circle cx="152.8" cy="45.0" r="1.1" fill="#dc2626" opacity="0.35"/>
  <circle cx="147.4" cy="45.0" r="1.7" fill="none" stroke="#dc2626" stroke-width="0.3" opacity="0.25"/>
  <polygon points="163.5,41.6 166.9,45.0 163.5,48.4 160.2,45.0" fill="none" stroke="#dc2626" stroke-width="0.4" opacity="0.40"/>
  <circle cx="163.5" cy="45.0" r="1.1" fill="#dc2626" opacity="0.35"/>
  <circle cx="158.2" cy="45.0" r="1.7" fill="none" stroke="#dc2626" stroke-width="0.3" opacity="0.25"/>
  <polygon points="174.3,41.6 177.7,45.0 174.3,48.4 170.9,45.0" fill="none" stroke="#dc2626" stroke-width="0.4" opacity="0.40"/>
  <circle cx="174.3" cy="45.0" r="1.1" fill="#dc2626" opacity="0.35"/>
  <circle cx="168.9" cy="45.0" r="1.7" fill="none" stroke="#dc2626" stroke-width="0.3" opacity="0.25"/>
  <polygon points="185.1,41.6 188.4,45.0 185.1,48.4 181.7,45.0" fill="none" stroke="#dc2626" stroke-width="0.4" opacity="0.40"/>
  <circle cx="185.1" cy="45.0" r="1.1" fill="#dc2626" opacity="0.35"/>
  <circle cx="179.7" cy="45.0" r="1.7" fill="none" stroke="#dc2626" stroke-width="0.3" opacity="0.25"/>
  <polygon points="195.8,41.6 199.2,45.0 195.8,48.4 192.4,45.0" fill="none" stroke="#dc2626" stroke-width="0.4" opacity="0.40"/>
  <circle cx="195.8" cy="45.0" r="1.1" fill="#dc2626" opacity="0.35"/>
  <circle cx="190.4" cy="45.0" r="1.7" fill="none" stroke="#dc2626" stroke-width="0.3" opacity="0.25"/>
  <polygon points="206.6,41.6 210.0,45.0 206.6,48.4 203.2,45.0" fill="none" stroke="#dc2626" stroke-width="0.4" opacity="0.40"/>
  <circle cx="206.6" cy="45.0" r="1.1" fill="#dc2626" opacity="0.35"/>
  <circle cx="201.2" cy="45.0" r="1.7" fill="none" stroke="#dc2626" stroke-width="0.3" opacity="0.25"/>
  <polygon points="217.3,41.6 220.7,45.0 217.3,48.4 213.9,45.0" fill="none" stroke="#dc2626" stroke-width="0.4" opacity="0.40"/>
  <circle cx="217.3" cy="45.0" r="1.1" fill="#dc2626" opacity="0.35"/>
  <circle cx="211.9" cy="45.0" r="1.7" fill="none" stroke="#dc2626" stroke-width="0.3" opacity="0.25"/>
  <polygon points="228.1,41.6 231.5,45.0 228.1,48.4 224.7,45.0" fill="none" stroke="#dc2626" stroke-width="0.4" opacity="0.40"/>
  <circle cx="228.1" cy="45.0" r="1.1" fill="#dc2626" opacity="0.35"/>
  <circle cx="222.7" cy="45.0" r="1.7" fill="none" stroke="#dc2626" stroke-width="0.3" opacity="0.25"/>
  <polygon points="238.8,41.6 242.2,45.0 238.8,48.4 235.5,45.0" fill="none" stroke="#dc2626" stroke-width="0.4" opacity="0.40"/>
  <circle cx="238.8" cy="45.0" r="1.1" fill="#dc2626" opacity="0.35"/>
  <circle cx="233.5" cy="45.0" r="1.7" fill="none" stroke="#dc2626" stroke-width="0.3" opacity="0.25"/>
  <polygon points="249.6,41.6 253.0,45.0 249.6,48.4 246.2,45.0" fill="none" stroke="#dc2626" stroke-width="0.4" opacity="0.40"/>
  <circle cx="249.6" cy="45.0" r="1.1" fill="#dc2626" opacity="0.35"/>
  <circle cx="244.2" cy="45.0" r="1.7" fill="none" stroke="#dc2626" stroke-width="0.3" opacity="0.25"/>
  <polygon points="260.4,41.6 263.7,45.0 260.4,48.4 257.0,45.0" fill="none" stroke="#dc2626" stroke-width="0.4" opacity="0.40"/>
  <circle cx="260.4" cy="45.0" r="1.1" fill="#dc2626" opacity="0.35"/>
  <circle cx="255.0" cy="45.0" r="1.7" fill="none" stroke="#dc2626" stroke-width="0.3" opacity="0.25"/>
  <polygon points="271.1,41.6 274.5,45.0 271.1,48.4 267.7,45.0" fill="none" stroke="#dc2626" stroke-width="0.4" opacity="0.40"/>
  <circle cx="271.1" cy="45.0" r="1.1" fill="#dc2626" opacity="0.35"/>
  <circle cx="265.7" cy="45.0" r="1.7" fill="none" stroke="#dc2626" stroke-width="0.3" opacity="0.25"/>
  <polygon points="281.9,41.6 285.3,45.0 281.9,48.4 278.5,45.0" fill="none" stroke="#dc2626" stroke-width="0.4" opacity="0.40"/>
  <circle cx="281.9" cy="45.0" r="1.1" fill="#dc2626" opacity="0.35"/>
  <circle cx="276.5" cy="45.0" r="1.7" fill="none" stroke="#dc2626" stroke-width="0.3" opacity="0.25"/>
  <polygon points="292.6,41.6 296.0,45.0 292.6,48.4 289.2,45.0" fill="none" stroke="#dc2626" stroke-width="0.4" opacity="0.40"/>
  <circle cx="292.6" cy="45.0" r="1.1" fill="#dc2626" opacity="0.35"/>
  <circle cx="287.3" cy="45.0" r="1.7" fill="none" stroke="#dc2626" stroke-width="0.3" opacity="0.25"/>
  <polygon points="303.4,41.6 306.8,45.0 303.4,48.4 300.0,45.0" fill="none" stroke="#dc2626" stroke-width="0.4" opacity="0.40"/>
  <circle cx="303.4" cy="45.0" r="1.1" fill="#dc2626" opacity="0.35"/>
  <circle cx="298.0" cy="45.0" r="1.7" fill="none" stroke="#dc2626" stroke-width="0.3" opacity="0.25"/>
  <polygon points="314.1,41.6 317.5,45.0 314.1,48.4 310.8,45.0" fill="none" stroke="#dc2626" stroke-width="0.4" opacity="0.40"/>
  <circle cx="314.1" cy="45.0" r="1.1" fill="#dc2626" opacity="0.35"/>
  <circle cx="308.8" cy="45.0" r="1.7" fill="none" stroke="#dc2626" stroke-width="0.3" opacity="0.25"/>
  <polygon points="324.9,41.6 328.3,45.0 324.9,48.4 321.5,45.0" fill="none" stroke="#dc2626" stroke-width="0.4" opacity="0.40"/>
  <circle cx="324.9" cy="45.0" r="1.1" fill="#dc2626" opacity="0.35"/>
  <circle cx="319.5" cy="45.0" r="1.7" fill="none" stroke="#dc2626" stroke-width="0.3" opacity="0.25"/>
  <polygon points="335.7,41.6 339.0,45.0 335.7,48.4 332.3,45.0" fill="none" stroke="#dc2626" stroke-width="0.4" opacity="0.40"/>
  <circle cx="335.7" cy="45.0" r="1.1" fill="#dc2626" opacity="0.35"/>
  <circle cx="330.3" cy="45.0" r="1.7" fill="none" stroke="#dc2626" stroke-width="0.3" opacity="0.25"/>
  <polygon points="346.4,41.6 349.8,45.0 346.4,48.4 343.0,45.0" fill="none" stroke="#dc2626" stroke-width="0.4" opacity="0.40"/>
  <circle cx="346.4" cy="45.0" r="1.1" fill="#dc2626" opacity="0.35"/>
  <circle cx="341.0" cy="45.0" r="1.7" fill="none" stroke="#dc2626" stroke-width="0.3" opacity="0.25"/>
  <polygon points="357.2,41.6 360.6,45.0 357.2,48.4 353.8,45.0" fill="none" stroke="#dc2626" stroke-width="0.4" opacity="0.40"/>
  <circle cx="357.2" cy="45.0" r="1.1" fill="#dc2626" opacity="0.35"/>
  <circle cx="351.8" cy="45.0" r="1.7" fill="none" stroke="#dc2626" stroke-width="0.3" opacity="0.25"/>
  <polygon points="367.9,41.6 371.3,45.0 367.9,48.4 364.5,45.0" fill="none" stroke="#dc2626" stroke-width="0.4" opacity="0.40"/>
  <circle cx="367.9" cy="45.0" r="1.1" fill="#dc2626" opacity="0.35"/>
  <circle cx="362.6" cy="45.0" r="1.7" fill="none" stroke="#dc2626" stroke-width="0.3" opacity="0.25"/>
  <polygon points="378.7,41.6 382.1,45.0 378.7,48.4 375.3,45.0" fill="none" stroke="#dc2626" stroke-width="0.4" opacity="0.40"/>
  <circle cx="378.7" cy="45.0" r="1.1" fill="#dc2626" opacity="0.35"/>
  <circle cx="373.3" cy="45.0" r="1.7" fill="none" stroke="#dc2626" stroke-width="0.3" opacity="0.25"/>
  <polygon points="389.4,41.6 392.8,45.0 389.4,48.4 386.1,45.0" fill="none" stroke="#dc2626" stroke-width="0.4" opacity="0.40"/>
  <circle cx="389.4" cy="45.0" r="1.1" fill="#dc2626" opacity="0.35"/>
  <circle cx="384.1" cy="45.0" r="1.7" fill="none" stroke="#dc2626" stroke-width="0.3" opacity="0.25"/>
  <polygon points="400.2,41.6 403.6,45.0 400.2,48.4 396.8,45.0" fill="none" stroke="#dc2626" stroke-width="0.4" opacity="0.40"/>
  <circle cx="400.2" cy="45.0" r="1.1" fill="#dc2626" opacity="0.35"/>
  <circle cx="394.8" cy="45.0" r="1.7" fill="none" stroke="#dc2626" stroke-width="0.3" opacity="0.25"/>
  <polygon points="411.0,41.6 414.3,45.0 411.0,48.4 407.6,45.0" fill="none" stroke="#dc2626" stroke-width="0.4" opacity="0.40"/>
  <circle cx="411.0" cy="45.0" r="1.1" fill="#dc2626" opacity="0.35"/>
  <circle cx="405.6" cy="45.0" r="1.7" fill="none" stroke="#dc2626" stroke-width="0.3" opacity="0.25"/>
  <polygon points="421.7,41.6 425.1,45.0 421.7,48.4 418.3,45.0" fill="none" stroke="#dc2626" stroke-width="0.4" opacity="0.40"/>
  <circle cx="421.7" cy="45.0" r="1.1" fill="#dc2626" opacity="0.35"/>
  <circle cx="416.3" cy="45.0" r="1.7" fill="none" stroke="#dc2626" stroke-width="0.3" opacity="0.25"/>
  <polygon points="432.5,41.6 435.9,45.0 432.5,48.4 429.1,45.0" fill="none" stroke="#dc2626" stroke-width="0.4" opacity="0.40"/>
  <circle cx="432.5" cy="45.0" r="1.1" fill="#dc2626" opacity="0.35"/>
  <circle cx="427.1" cy="45.0" r="1.7" fill="none" stroke="#dc2626" stroke-width="0.3" opacity="0.25"/>
  <polygon points="443.2,41.6 446.6,45.0 443.2,48.4 439.8,45.0" fill="none" stroke="#dc2626" stroke-width="0.4" opacity="0.40"/>
  <circle cx="443.2" cy="45.0" r="1.1" fill="#dc2626" opacity="0.35"/>
  <circle cx="437.9" cy="45.0" r="1.7" fill="none" stroke="#dc2626" stroke-width="0.3" opacity="0.25"/>
  <polygon points="454.0,41.6 457.4,45.0 454.0,48.4 450.6,45.0" fill="none" stroke="#dc2626" stroke-width="0.4" opacity="0.40"/>
  <circle cx="454.0" cy="45.0" r="1.1" fill="#dc2626" opacity="0.35"/>
  <circle cx="448.6" cy="45.0" r="1.7" fill="none" stroke="#dc2626" stroke-width="0.3" opacity="0.25"/>
  <polygon points="464.7,41.6 468.1,45.0 464.7,48.4 461.4,45.0" fill="none" stroke="#dc2626" stroke-width="0.4" opacity="0.40"/>
  <circle cx="464.7" cy="45.0" r="1.1" fill="#dc2626" opacity="0.35"/>
  <circle cx="459.4" cy="45.0" r="1.7" fill="none" stroke="#dc2626" stroke-width="0.3" opacity="0.25"/>
  <polygon points="475.5,41.6 478.9,45.0 475.5,48.4 472.1,45.0" fill="none" stroke="#dc2626" stroke-width="0.4" opacity="0.40"/>
  <circle cx="475.5" cy="45.0" r="1.1" fill="#dc2626" opacity="0.35"/>
  <circle cx="470.1" cy="45.0" r="1.7" fill="none" stroke="#dc2626" stroke-width="0.3" opacity="0.25"/>
  <polygon points="486.3,41.6 489.6,45.0 486.3,48.4 482.9,45.0" fill="none" stroke="#dc2626" stroke-width="0.4" opacity="0.40"/>
  <circle cx="486.3" cy="45.0" r="1.1" fill="#dc2626" opacity="0.35"/>
  <circle cx="480.9" cy="45.0" r="1.7" fill="none" stroke="#dc2626" stroke-width="0.3" opacity="0.25"/>
  <rect x="6.8" y="52.9" width="162.5" height="118.4" fill="#dc2626" opacity="0.045" rx="1"/>
  <rect x="6.8" y="171.3" width="162.5" height="118.4" fill="#26a69a" opacity="0.045" rx="1"/>
  <rect x="6.8" y="289.8" width="162.5" height="118.4" fill="#4a90d9" opacity="0.045" rx="1"/>
  <text x="30.2" y="51.0" font-size="8.3" font-family="monospace" text-anchor="middle" fill="#888" opacity="0.60">J1</text>
  <text x="68.0" y="51.0" font-size="8.3" font-family="monospace" text-anchor="middle" fill="#888" opacity="0.60">J2</text>
  <text x="113.4" y="51.0" font-size="8.3" font-family="monospace" text-anchor="middle" fill="#888" opacity="0.60">A1</text>
  <text x="147.4" y="51.0" font-size="8.3" font-family="monospace" text-anchor="middle" fill="#888" opacity="0.60">A2</text>
  <line x1="90.7" y1="52.9" x2="90.7" y2="408.2" stroke="#bbb" stroke-width="0.4" opacity="0.30" stroke-dasharray="2,4"/>
  <line x1="6.8" y1="171.3" x2="170.1" y2="171.3" stroke="#bbb" stroke-width="0.5" opacity="0.40" stroke-dasharray="2,3"/>
  <line x1="6.8" y1="289.8" x2="170.1" y2="289.8" stroke="#bbb" stroke-width="0.5" opacity="0.40" stroke-dasharray="2,3"/>
  <rect x="6.8" y="76.8" width="3.0" height="11.3" fill="#dc2626" opacity="0.60"/>
  <circle cx="30.2" cy="82.5" r="14.7" fill="none" stroke="#888" stroke-width="0.7" opacity="0.55"/>
  <circle cx="68.0" cy="82.5" r="14.7" fill="none" stroke="#888" stroke-width="0.7" opacity="0.55"/>
  <circle cx="113.4" cy="82.5" r="11.3" fill="none" stroke="#666" stroke-width="0.6" opacity="0.50"/>
  <circle cx="147.4" cy="82.5" r="11.3" fill="none" stroke="#666" stroke-width="0.6" opacity="0.50"/>
  <text x="170.1" y="78.7" font-size="7.9" font-family="monospace" text-anchor="end" fill="#dc2626" opacity="0.55">REST LEN</text>
  <text x="170.1" y="92.0" font-size="7.9" font-family="monospace" text-anchor="end" fill="#dc2626" opacity="0.45">REST OFF</text>
  <rect x="6.8" y="136.1" width="3.0" height="11.3" fill="#dc2626" opacity="0.60"/>
  <circle cx="30.2" cy="141.7" r="14.7" fill="none" stroke="#888" stroke-width="0.7" opacity="0.55"/>
  <circle cx="68.0" cy="141.7" r="14.7" fill="none" stroke="#888" stroke-width="0.7" opacity="0.55"/>
  <circle cx="113.4" cy="141.7" r="11.3" fill="none" stroke="#666" stroke-width="0.6" opacity="0.50"/>
  <circle cx="147.4" cy="141.7" r="11.3" fill="none" stroke="#666" stroke-width="0.6" opacity="0.50"/>
  <text x="170.1" y="137.9" font-size="7.9" font-family="monospace" text-anchor="end" fill="#dc2626" opacity="0.55">REST ROT</text>
  <text x="170.1" y="151.2" font-size="7.9" font-family="monospace" text-anchor="end" fill="#dc2626" opacity="0.45">REST SPR</text>
  <rect x="6.8" y="195.3" width="3.0" height="11.3" fill="#26a69a" opacity="0.60"/>
  <circle cx="30.2" cy="200.9" r="14.7" fill="none" stroke="#888" stroke-width="0.7" opacity="0.55"/>
  <circle cx="68.0" cy="200.9" r="14.7" fill="none" stroke="#888" stroke-width="0.7" opacity="0.55"/>
  <circle cx="113.4" cy="200.9" r="11.3" fill="none" stroke="#666" stroke-width="0.6" opacity="0.50"/>
  <circle cx="147.4" cy="200.9" r="11.3" fill="none" stroke="#666" stroke-width="0.6" opacity="0.50"/>
  <text x="170.1" y="197.2" font-size="7.9" font-family="monospace" text-anchor="end" fill="#26a69a" opacity="0.55">MEL LEN</text>
  <text x="170.1" y="210.4" font-size="7.9" font-family="monospace" text-anchor="end" fill="#26a69a" opacity="0.45">MEL OFF</text>
  <rect x="6.8" y="254.5" width="3.0" height="11.3" fill="#26a69a" opacity="0.60"/>
  <circle cx="30.2" cy="260.2" r="14.7" fill="none" stroke="#888" stroke-width="0.7" opacity="0.55"/>
  <circle cx="68.0" cy="260.2" r="14.7" fill="none" stroke="#888" stroke-width="0.7" opacity="0.55"/>
  <circle cx="113.4" cy="260.2" r="11.3" fill="none" stroke="#666" stroke-width="0.6" opacity="0.50"/>
  <circle cx="147.4" cy="260.2" r="11.3" fill="none" stroke="#666" stroke-width="0.6" opacity="0.50"/>
  <text x="170.1" y="256.4" font-size="7.9" font-family="monospace" text-anchor="end" fill="#26a69a" opacity="0.55">MEL ROT</text>
  <text x="170.1" y="269.6" font-size="7.9" font-family="monospace" text-anchor="end" fill="#26a69a" opacity="0.45">MEL SPR</text>
  <rect x="6.8" y="313.7" width="3.0" height="11.3" fill="#4a90d9" opacity="0.60"/>
  <circle cx="30.2" cy="319.4" r="14.7" fill="none" stroke="#888" stroke-width="0.7" opacity="0.55"/>
  <circle cx="68.0" cy="319.4" r="14.7" fill="none" stroke="#888" stroke-width="0.7" opacity="0.55"/>
  <circle cx="113.4" cy="319.4" r="11.3" fill="none" stroke="#666" stroke-width="0.6" opacity="0.50"/>
  <circle cx="147.4" cy="319.4" r="11.3" fill="none" stroke="#666" stroke-width="0.6" opacity="0.50"/>
  <text x="170.1" y="315.6" font-size="7.9" font-family="monospace" text-anchor="end" fill="#4a90d9" opacity="0.55">OCT LEN</text>
  <text x="170.1" y="328.8" font-size="7.9" font-family="monospace" text-anchor="end" fill="#4a90d9" opacity="0.45">OCT OFF</text>
  <rect x="6.8" y="372.9" width="3.0" height="11.3" fill="#4a90d9" opacity="0.60"/>
  <circle cx="30.2" cy="378.6" r="14.7" fill="none" stroke="#888" stroke-width="0.7" opacity="0.55"/>
  <circle cx="68.0" cy="378.6" r="14.7" fill="none" stroke="#888" stroke-width="0.7" opacity="0.55"/>
  <circle cx="113.4" cy="378.6" r="11.3" fill="none" stroke="#666" stroke-width="0.6" opacity="0.50"/>
  <circle cx="147.4" cy="378.6" r="11.3" fill="none" stroke="#666" stroke-width="0.6" opacity="0.50"/>
  <text x="170.1" y="374.8" font-size="7.9" font-family="monospace" text-anchor="end" fill="#4a90d9" opacity="0.55">OCT ROT</text>
  <text x="170.1" y="388.0" font-size="7.9" font-family="monospace" text-anchor="end" fill="#4a90d9" opacity="0.45">OCT SPR</text>
  <line x1="170.1" y1="45.4" x2="170.1" y2="485.7" stroke="#dc2626" stroke-width="0.8" opacity="0.45"/>
  <rect x="173.9" y="60.5" width="310.2" height="347.7" fill="#f0f0f0" opacity="0.55" rx="1"/>
  <line x1="0" y1="419.5" x2="499.2" y2="419.5" stroke="#dc2626" stroke-width="0.4" opacity="0.25"/>
  <g fill="url(#mbsG)" stroke="none">
    <polygon points="238.0,404.4 274.8,404.4 276.9,449.8 235.9,449.8" />
    <polygon points="310.5,404.4 347.4,404.4 349.4,449.8 308.5,449.8" />
    <polygon points="383.1,404.4 420.0,404.4 422.0,449.8 381.1,449.8" />
    <polygon points="232.9,404.4 425.0,404.4 427.0,402.4 230.9,402.4" />
  </g>
  <g fill="none" stroke="#dc2626" stroke-width="0.3" opacity="0.30">
    <polygon points="238.0,404.4 274.8,404.4 276.9,449.8 235.9,449.8" />
    <polygon points="310.5,404.4 347.4,404.4 349.4,449.8 308.5,449.8" />
    <polygon points="383.1,404.4 420.0,404.4 422.0,449.8 381.1,449.8" />
    <polygon points="232.9,404.4 425.0,404.4 427.0,402.4 230.9,402.4" />
  </g>
  <line x1="258.2" y1="404.4" x2="258.2" y2="395.0" stroke="#dc2626" stroke-width="0.5" opacity="0.40"/>
  <circle cx="258.2" cy="393.8" r="1.2" fill="#dc2626" opacity="0.40"/>
  <line x1="319.7" y1="404.4" x2="319.7" y2="395.0" stroke="#dc2626" stroke-width="0.5" opacity="0.40"/>
  <circle cx="319.7" cy="393.8" r="1.2" fill="#dc2626" opacity="0.40"/>
  <line x1="382.9" y1="404.4" x2="382.9" y2="395.0" stroke="#dc2626" stroke-width="0.5" opacity="0.40"/>
  <circle cx="382.9" cy="393.8" r="1.2" fill="#dc2626" opacity="0.40"/>
  <g fill="none" stroke="#5a82a0">
    <path d="M0.0,427.1 L10.4,428.5 L20.8,428.9 L31.2,428.0 L41.6,426.5 L52.0,425.4 L62.4,425.5 L72.8,426.8 L83.2,428.2 L93.6,428.9 L104.0,428.3 L114.4,426.8 L124.8,425.5 L135.2,425.4 L145.6,426.4 L156.0,428.0 L166.4,428.9 L176.8,428.5 L187.2,427.1 L197.6,425.7 L208.0,425.3 L218.4,426.1 L228.8,427.7 L239.2,428.8 L249.6,428.7 L260.0,427.5 L270.4,426.0 L280.8,425.3 L291.2,425.9 L301.6,427.3 L312.0,428.6 L322.4,428.8 L332.8,427.8 L343.2,426.3 L353.6,425.3 L364.0,425.7 L374.4,427.0 L384.8,428.4 L395.2,428.9 L405.6,428.1 L416.0,426.6 L426.4,425.4 L436.8,425.5 L447.2,426.7 L457.6,428.2 L468.0,428.9 L478.4,428.3 L488.8,426.9 L499.2,425.6" stroke-width="0.6" opacity="0.45"/>
    <path d="M0.0,443.3 L10.4,443.3 L20.8,442.1 L31.2,441.0 L41.6,441.3 L52.0,442.7 L62.4,443.5 L72.8,442.9 L83.2,441.5 L93.6,440.9 L104.0,441.8 L114.4,443.2 L124.8,443.4 L135.2,442.3 L145.6,441.1 L156.0,441.2 L166.4,442.4 L176.8,443.5 L187.2,443.1 L197.6,441.7 L208.0,440.9 L218.4,441.6 L228.8,443.0 L239.2,443.5 L249.6,442.5 L260.0,441.2 L270.4,441.0 L280.8,442.2 L291.2,443.4 L301.6,443.2 L312.0,441.9 L322.4,440.9 L332.8,441.4 L343.2,442.8 L353.6,443.5 L364.0,442.7 L374.4,441.4 L384.8,441.0 L395.2,442.0 L405.6,443.3 L416.0,443.3 L426.4,442.1 L436.8,441.0 L447.2,441.3 L457.6,442.6 L468.0,443.5 L478.4,442.9 L488.8,441.5 L499.2,440.9" stroke-width="0.5" opacity="0.35"/>
    <path d="M0.0,459.3 L10.4,458.5 L20.8,457.3 L31.2,456.0 L41.6,455.3 L52.0,455.6 L62.4,456.6 L72.8,458.0 L83.2,459.0 L93.6,459.3 L104.0,458.7 L114.4,457.4 L124.8,456.1 L135.2,455.4 L145.6,455.5 L156.0,456.5 L166.4,457.8 L176.8,458.9 L187.2,459.3 L197.6,458.8 L208.0,457.6 L218.4,456.3 L228.8,455.4 L239.2,455.4 L249.6,456.3 L260.0,457.6 L270.4,458.8 L280.8,459.3 L291.2,458.9 L301.6,457.8 L312.0,456.5 L322.4,455.5 L332.8,455.4 L343.2,456.1 L353.6,457.4 L364.0,458.7 L374.4,459.3 L384.8,459.0 L395.2,458.0 L405.6,456.6 L416.0,455.6 L426.4,455.3 L436.8,456.0 L447.2,457.2 L457.6,458.5 L468.0,459.3 L478.4,459.1 L488.8,458.2 L499.2,456.8" stroke-width="0.5" opacity="0.26"/>
    <path d="M0.0,473.1 L10.4,473.8 L20.8,472.5 L31.2,471.1 L41.6,471.7 L52.0,473.4 L62.4,473.7 L72.8,472.1 L83.2,471.0 L93.6,472.0 L104.0,473.6 L114.4,473.5 L124.8,471.8 L135.2,471.1 L145.6,472.4 L156.0,473.8 L166.4,473.2 L176.8,471.5 L187.2,471.2 L197.6,472.7 L208.0,473.8 L218.4,472.9 L228.8,471.3 L239.2,471.4 L249.6,473.0 L260.0,473.8 L270.4,472.5 L280.8,471.1 L291.2,471.6 L301.6,473.3 L312.0,473.7 L322.4,472.2 L332.8,471.0 L343.2,472.0 L353.6,473.6 L364.0,473.5 L374.4,471.9 L384.8,471.1 L395.2,472.3 L405.6,473.7 L416.0,473.3 L426.4,471.6 L436.8,471.2 L447.2,472.6 L457.6,473.8 L468.0,473.0 L478.4,471.3 L488.8,471.3 L499.2,473.0" stroke-width="0.4" opacity="0.18"/>
  </g>
  <g stroke="#dc2626" stroke-width="0.9" opacity="0.35">
    <line x1="6.8" y1="0" x2="6.8" y2="485.67" stroke-dasharray="3,5"/>
    <line x1="492.4" y1="0" x2="492.4" y2="485.67" stroke-dasharray="3,5"/>
  </g>
  <circle cx="484.1" cy="15.1" r="9.4" fill="#dc2626"/>
  <text x="11.3" y="480.0" font-size="9.1" font-family="monospace" fill="#dc2626" opacity="0.45" font-weight="bold">dot.modular</text>
</svg>