<svg xmlns="http://www.w3.org/2000/svg" width="691.19" height="485.67" viewBox="0 0 691.19 485.67">
  <defs>
    <pattern id="g" x="0" y="0" width="691.19" height="2" patternUnits="userSpaceOnUse"><rect width="691.19" height="2" fill="#141416"/><rect y="1" width="691.19" height="0.6" fill="#1e2228" opacity="0.28"/></pattern>
    <linearGradient id="mbsG" x1="0" y1="0" x2="0" y2="1"><stop offset="0%" stop-color="#2a3550" stop-opacity="0.3"/><stop offset="60%" stop-color="#2a3550" stop-opacity="0.75"/><stop offset="100%" stop-color="#2a3550" stop-opacity="0.95"/></linearGradient>
    <linearGradient id="waterG" x1="0" y1="0" x2="0" y2="1"><stop offset="0%" stop-color="#12303f" stop-opacity="0.0"/><stop offset="70%" stop-color="#12303f" stop-opacity="0.12"/><stop offset="100%" stop-color="#12303f" stop-opacity="0.25"/></linearGradient>
  </defs>

  <rect width="691.19" height="485.67" fill="url(#g)"/>
  <rect x="0" y="45.4" width="170.1" height="440.3" fill="url(#waterG)"/>
  <g fill="none" stroke="#3a6a8a" opacity="0.18">
    <path d="M0.0,75.6 L3.5,75.9 L6.9,76.2 L10.4,76.5 L13.9,76.7 L17.3,76.8 L20.8,76.8 L24.3,76.7 L27.7,76.6 L31.2,76.4 L34.6,76.1 L38.1,75.8 L41.6,75.4 L45.0,75.1 L48.5,74.8 L52.0,74.6 L55.4,74.5 L58.9,74.4 L62.4,74.4 L65.8,74.5 L69.3,74.7 L72.8,74.9 L76.2,75.2 L79.7,75.6 L83.2,75.9 L86.6,76.2 L90.1,76.4 L93.5,76.6 L97.0,76.8 L100.5,76.8 L103.9,76.7 L107.4,76.6 L110.9,76.4 L114.3,76.1 L117.8,75.8 L121.3,75.5 L124.7,75.2 L128.2,74.9 L131.7,74.6 L135.1,74.5 L138.6,74.4 L142.0,74.4 L145.5,74.5 L149.0,74.7 L152.4,74.9 L155.9,75.2 L159.4,75.5 L162.8,75.9 L166.3,76.2" stroke-width="0.4"/>
    <path d="M0.0,133.1 L3.5,133.3 L6.9,133.4 L10.4,133.5 L13.9,133.5 L17.3,133.3 L20.8,133.1 L24.3,132.9 L27.7,132.6 L31.2,132.3 L34.6,131.9 L38.1,131.7 L41.6,131.4 L45.0,131.2 L48.5,131.1 L52.0,131.1 L55.4,131.1 L58.9,131.3 L62.4,131.5 L65.8,131.8 L69.3,132.1 L72.8,132.4 L76.2,132.8 L79.7,133.0 L83.2,133.3 L86.6,133.4 L90.1,133.5 L93.5,133.5 L97.0,133.4 L100.5,133.2 L103.9,132.9 L107.4,132.6 L110.9,132.3 L114.3,132.0 L117.8,131.7 L121.3,131.4 L124.7,131.2 L128.2,131.1 L131.7,131.1 L135.1,131.1 L138.6,131.3 L142.0,131.5 L145.5,131.8 L149.0,132.1 L152.4,132.4 L155.9,132.7 L159.4,133.0 L162.8,133.2 L166.3,133.4" stroke-width="0.4"/>
    <path d="M0.0,190.2 L3.5,190.2 L6.9,190.1 L10.4,189.9 L13.9,189.7 L17.3,189.4 L20.8,189.1 L24.3,188.8 L27.7,188.5 L31.2,188.2 L34.6,188.0 L38.1,187.8 L41.6,187.8 L45.0,187.8 L48.5,187.9 L52.0,188.1 L55.4,188.4 L58.9,188.7 L62.4,189.0 L65.8,189.3 L69.3,189.6 L72.8,189.9 L76.2,190.0 L79.7,190.1 L83.2,190.2 L86.6,190.1 L90.1,189.9 L93.5,189.7 L97.0,189.4 L100.5,189.1 L103.9,188.8 L107.4,188.5 L110.9,188.2 L114.3,188.0 L117.8,187.8 L121.3,187.8 L124.7,187.8 L128.2,187.9 L131.7,188.1 L135.1,188.3 L138.6,188.6 L142.0,189.0 L145.5,189.3 L149.0,189.6 L152.4,189.8 L155.9,190.0 L159.4,190.1 L162.8,190.2 L166.3,190.1" stroke-width="0.4"/>
    <path d="M0.0,246.7 L3.5,246.5 L6.9,246.2 L10.4,245.9 L13.9,245.6 L17.3,245.3 L20.8,245.0 L24.3,244.8 L27.7,244.6 L31.2,244.5 L34.6,244.5 L38.1,244.6 L41.6,244.7 L45.0,244.9 L48.5,245.2 L52.0,245.5 L55.4,245.9 L58.9,246.2 L62.4,246.5 L65.8,246.7 L69.3,246.8 L72.8,246.9 L76.2,246.8 L79.7,246.7 L83.2,246.5 L86.6,246.3 L90.1,246.0 L93.5,245.6 L97.0,245.3 L100.5,245.0 L103.9,244.8 L107.4,244.6 L110.9,244.5 L114.3,244.5 L117.8,244.5 L121.3,244.7 L124.7,244.9 L128.2,245.2 L131.7,245.5 L135.1,245.8 L138.6,246.2 L142.0,246.4 L145.5,246.7 L149.0,246.8 L152.4,246.9 L155.9,246.8 L159.4,246.7 L162.8,246.5 L166.3,246.3" stroke-width="0.4"/>
    <path d="M0.0,302.8 L3.5,302.4 L6.9,302.1 L10.4,301.8 L13.9,301.5 L17.3,301.3 L20.8,301.2 L24.3,301.2 L27.7,301.2 L31.2,301.3 L34.6,301.5 L38.1,301.8 L41.6,302.1 L45.0,302.4 L48.5,302.7 L52.0,303.0 L55.4,303.3 L58.9,303.5 L62.4,303.5 L65.8,303.6 L69.3,303.5 L72.8,303.3 L76.2,303.1 L79.7,302.8 L83.2,302.5 L86.6,302.1 L90.1,301.8 L93.5,301.6 L97.0,301.4 L100.5,301.2 L103.9,301.2 L107.4,301.2 L110.9,301.3 L114.3,301.5 L117.8,301.8 L121.3,302.1 L124.7,302.4 L128.2,302.7 L131.7,303.0 L135.1,303.3 L138.6,303.4 L142.0,303.5 L145.5,303.6 L149.0,303.5 L152.4,303.3 L155.9,303.1 L159.4,302.8 L162.8,302.5 L166.3,302.2" stroke-width="0.4"/>
    <path d="M0.0,358.6 L3.5,358.3 L6.9,358.1 L10.4,357.9 L13.9,357.9 L17.3,357.9 L20.8,358.0 L24.3,358.1 L27.7,358.4 L31.2,358.7 L34.6,359.0 L38.1,359.3 L41.6,359.6 L45.0,359.9 L48.5,360.1 L52.0,360.2 L55.4,360.2 L58.9,360.2 L62.4,360.1 L65.8,359.9 L69.3,359.6 L72.8,359.3 L76.2,359.0 L79.7,358.7 L83.2,358.4 L86.6,358.1 L90.1,358.0 L93.5,357.9 L97.0,357.9 L100.5,357.9 L103.9,358.1 L107.4,358.3 L110.9,358.6 L114.3,358.9 L117.8,359.3 L121.3,359.6 L124.7,359.8 L128.2,360.1 L131.7,360.2 L135.1,360.2 L138.6,360.2 L142.0,360.1 L145.5,359.9 L149.0,359.6 L152.4,359.3 L155.9,359.0 L159.4,358.7 L162.8,358.4 L166.3,358.1" stroke-width="0.4"/>
  </g>
  <rect x="0" y="0" width="6.8" height="485.67" fill="#4a90d9" opacity="0.85"/>
  <rect x="0" y="0" width="691.19" height="45.4" fill="#0d0f14" opacity="0.92"/>
  <text x="345.6" y="18.9" font-size="13.6" font-family="monospace" text-anchor="middle" fill="#e4e4e7" font-weight="bold">SANDS WEST  V9–16</text>
  <text x="345.6" y="34.0" font-size="8.7" font-family="monospace" text-anchor="middle" fill="#555">CV via East · ch 9–16</text>
  <polygon points="12.9,41.6 16.3,45.0 12.9,48.4 9.5,45.0" fill="none" stroke="#4a90d9" stroke-width="0.4" opacity="0.40"/>
  <circle cx="12.9" cy="45.0" r="1.1" fill="#4a90d9" opacity="0.35"/>
  <circle cx="7.6" cy="45.0" r="1.7" fill="none" stroke="#4a90d9" stroke-width="0.3" opacity="0.25"/>
  <polygon points="23.7,41.6 27.0,45.0 23.7,48.4 20.3,45.0" fill="none" stroke="#4a90d9" stroke-width="0.4" opacity="0.40"/>
  <circle cx="23.7" cy="45.0" r="1.1" fill="#4a90d9" opacity="0.35"/>
  <circle cx="18.3" cy="45.0" r="1.7" fill="none" stroke="#4a90d9" stroke-width="0.3" opacity="0.25"/>
  <polygon points="34.4,41.6 37.8,45.0 34.4,48.4 31.0,45.0" fill="none" stroke="#4a90d9" stroke-width="0.4" opacity="0.40"/>
  <circle cx="34.4" cy="45.0" r="1.1" fill="#4a90d9" opacity="0.35"/>
  <circle cx="29.0" cy="45.0" r="1.7" fill="none" stroke="#4a90d9" stroke-width="0.3" opacity="0.25"/>
  <polygon points="45.1,41.6 48.5,45.0 45.1,48.4 41.7,45.0" fill="none" stroke="#4a90d9" stroke-width="0.4" opacity="0.40"/>
  <circle cx="45.1" cy="45.0" r="1.1" fill="#4a90d9" opacity="0.35"/>
  <circle cx="39.8" cy="45.0" r="1.7" fill="none" stroke="#4a90d9" stroke-width="0.3" opacity="0.25"/>
  <polygon points="55.9,41.6 59.2,45.0 55.9,48.4 52.5,45.0" fill="none" stroke="#4a90d9" stroke-width="0.4" opacity="0.40"/>
  <circle cx="55.9" cy="45.0" r="1.1" fill="#4a90d9" opacity="0.35"/>
  <circle cx="50.5" cy="45.0" r="1.7" fill="none" stroke="#4a90d9" stroke-width="0.3" opacity="0.25"/>
  <polygon points="66.6,41.6 70.0,45.0 66.6,48.4 63.2,45.0" fill="none" stroke="#4a90d9" stroke-width="0.4" opacity="0.40"/>
  <circle cx="66.6" cy="45.0" r="1.1" fill="#4a90d9" opacity="0.35"/>
  <circle cx="61.2" cy="45.0" r="1.7" fill="none" stroke="#4a90d9" stroke-width="0.3" opacity="0.25"/>
  <polygon points="77.3,41.6 80.7,45.0 77.3,48.4 73.9,45.0" fill="none" stroke="#4a90d9" stroke-width="0.4" opacity="0.40"/>
  <circle cx="77.3" cy="45.0" r="1.1" fill="#4a90d9" opacity="0.35"/>
  <circle cx="71.9" cy="45.0" r="1.7" fill="none" stroke="#4a90d9" stroke-width="0.3" opacity="0.25"/>
  <polygon points="88.0,41.6 91.4,45.0 88.0,48.4 84.7,45.0" fill="none" stroke="#4a90d9" stroke-width="0.4" opacity="0.40"/>
  <circle cx="88.0" cy="45.0" r="1.1" fill="#4a90d9" opacity="0.35"/>
  <circle cx="82.7" cy="45.0" r="1.7" fill="none" stroke="#4a90d9" stroke-width="0.3" opacity="0.25"/>
  <polygon points="98.8,41.6 102.2,45.0 98.8,48.4 95.4,45.0" fill="none" stroke="#4a90d9" stroke-width="0.4" opacity="0.40"/>
  <circle cx="98.8" cy="45.0" r="1.1" fill="#4a90d9" opacity="0.35"/>
  <circle cx="93.4" cy="45.0" r="1.7" fill="none" stroke="#4a90d9" stroke-width="0.3" opacity="0.25"/>
  <polygon points="109.5,41.6 112.9,45.0 109.5,48.4 106.1,45.0" fill="none" stroke="#4a90d9" stroke-width="0.4" opacity="0.40"/>
  <circle cx="109.5" cy="45.0" r="1.1" fill="#4a90d9" opacity="0.35"/>
  <circle cx="104.1" cy="45.0" r="1.7" fill="none" stroke="#4a90d9" stroke-width="0.3" opacity="0.25"/>
  <polygon points="120.2,41.6 123.6,45.0 120.2,48.4 116.9,45.0" fill="none" stroke="#4a90d9" stroke-width="0.4" opacity="0.40"/>
  <circle cx="120.2" cy="45.0" r="1.1" fill="#4a90d9" opacity="0.35"/>
  <circle cx="114.9" cy="45.0" r="1.7" fill="none" stroke="#4a90d9" stroke-width="0.3" opacity="0.25"/>
  <polygon points="131.0,41.6 134.4,45.0 131.0,48.4 127.6,45.0" fill="none" stroke="#4a90d9" stroke-width="0.4" opacity="0.40"/>
  <circle cx="131.0" cy="45.0" r="1.1" fill="#4a90d9" opacity="0.35"/>
  <circle cx="125.6" cy="45.0" r="1.7" fill="none" stroke="#4a90d9" stroke-width="0.3" opacity="0.25"/>
  <polygon points="141.7,41.6 145.1,45.0 141.7,48.4 138.3,45.0" fill="none" stroke="#4a90d9" stroke-width="0.4" opacity="0.40"/>
  <circle cx="141.7" cy="45.0" r="1.1" fill="#4a90d9" opacity="0.35"/>
  <circle cx="136.3" cy="45.0" r="1.7" fill="none" stroke="#4a90d9" stroke-width="0.3" opacity="0.25"/>
  <polygon points="152.4,41.6 155.8,45.0 152.4,48.4 149.0,45.0" fill="none" stroke="#4a90d9" stroke-width="0.4" opacity="0.40"/>
  <circle cx="152.4" cy="45.0" r="1.1" fill="#4a90d9" opacity="0.35"/>
  <circle cx="147.1" cy="45.0" r="1.7" fill="none" stroke="#4a90d9" stroke-width="0.3" opacity="0.25"/>
  <polygon points="163.2,41.6 166.5,45.0 163.2,48.4 159.8,45.0" fill="none" stroke="#4a90d9" stroke-width="0.4" opacity="0.40"/>
  <circle cx="163.2" cy="45.0" r="1.1" fill="#4a90d9" opacity="0.35"/>
  <circle cx="157.8" cy="45.0" r="1.7" fill="none" stroke="#4a90d9" stroke-width="0.3" opacity="0.25"/>
  <polygon points="173.9,41.6 177.3,45.0 173.9,48.4 170.5,45.0" fill="none" stroke="#4a90d9" stroke-width="0.4" opacity="0.40"/>
  <circle cx="173.9" cy="45.0" r="1.1" fill="#4a90d9" opacity="0.35"/>
  <circle cx="168.5" cy="45.0" r="1.7" fill="none" stroke="#4a90d9" stroke-width="0.3" opacity="0.25"/>
  <polygon points="184.6,41.6 188.0,45.0 184.6,48.4 181.2,45.0" fill="none" stroke="#4a90d9" stroke-width="0.4" opacity="0.40"/>
  <circle cx="184.6" cy="45.0" r="1.1" fill="#4a90d9" opacity="0.35"/>
  <circle cx="179.3" cy="45.0" r="1.7" fill="none" stroke="#4a90d9" stroke-width="0.3" opacity="0.25"/>
  <polygon points="195.4,41.6 198.7,45.0 195.4,48.4 192.0,45.0" fill="none" stroke="#4a90d9" stroke-width="0.4" opacity="0.40"/>
  <circle cx="195.4" cy="45.0" r="1.1" fill="#4a90d9" opacity="0.35"/>
  <circle cx="190.0" cy="45.0" r="1.7" fill="none" stroke="#4a90d9" stroke-width="0.3" opacity="0.25"/>
  <polygon points="206.1,41.6 209.5,45.0 206.1,48.4 202.7,45.0" fill="none" stroke="#4a90d9" stroke-width="0.4" opacity="0.40"/>
  <circle cx="206.1" cy="45.0" r="1.1" fill="#4a90d9" opacity="0.35"/>
  <circle cx="200.7" cy="45.0" r="1.7" fill="none" stroke="#4a90d9" stroke-width="0.3" opacity="0.25"/>
  <polygon points="216.8,41.6 220.2,45.0 216.8,48.4 213.4,45.0" fill="none" stroke="#4a90d9" stroke-width="0.4" opacity="0.40"/>
  <circle cx="216.8" cy="45.0" r="1.1" fill="#4a90d9" opacity="0.35"/>
  <circle cx="211.5" cy="45.0" r="1.7" fill="none" stroke="#4a90d9" stroke-width="0.3" opacity="0.25"/>
  <polygon points="227.6,41.6 230.9,45.0 227.6,48.4 224.2,45.0" fill="none" stroke="#4a90d9" stroke-width="0.4" opacity="0.40"/>
  <circle cx="227.6" cy="45.0" r="1.1" fill="#4a90d9" opacity="0.35"/>
  <circle cx="222.2" cy="45.0" r="1.7" fill="none" stroke="#4a90d9" stroke-width="0.3" opacity="0.25"/>
  <polygon points="238.3,41.6 241.7,45.0 238.3,48.4 234.9,45.0" fill="none" stroke="#4a90d9" stroke-width="0.4" opacity="0.40"/>
  <circle cx="238.3" cy="45.0" r="1.1" fill="#4a90d9" opacity="0.35"/>
  <circle cx="232.9" cy="45.0" r="1.7" fill="none" stroke="#4a90d9" stroke-width="0.3" opacity="0.25"/>
  <polygon points="249.0,41.6 252.4,45.0 249.0,48.4 245.6,45.0" fill="none" stroke="#4a90d9" stroke-width="0.4" opacity="0.40"/>
  <circle cx="249.0" cy="45.0" r="1.1" fill="#4a90d9" opacity="0.35"/>
  <circle cx="243.6" cy="45.0" r="1.7" fill="none" stroke="#4a90d9" stroke-width="0.3" opacity="0.25"/>
  <polygon points="259.7,41.6 263.1,45.0 259.7,48.4 256.4,45.0" fill="none" stroke="#4a90d9" stroke-width="0.4" opacity="0.40"/>
  <circle cx="259.7" cy="45.0" r="1.1" fill="#4a90d9" opacity="0.35"/>
  <circle cx="254.4" cy="45.0" r="1.7" fill="none" stroke="#4a90d9" stroke-width="0.3" opacity="0.25"/>
  <polygon points="270.5,41.6 273.9,45.0 270.5,48.4 267.1,45.0" fill="none" stroke="#4a90d9" stroke-width="0.4" opacity="0.40"/>
  <circle cx="270.5" cy="45.0" r="1.1" fill="#4a90d9" opacity="0.35"/>
  <circle cx="265.1" cy="45.0" r="1.7" fill="none" stroke="#4a90d9" stroke-width="0.3" opacity="0.25"/>
  <polygon points="281.2,41.6 284.6,45.0 281.2,48.4 277.8,45.0" fill="none" stroke="#4a90d9" stroke-width="0.4" opacity="0.40"/>
  <circle cx="281.2" cy="45.0" r="1.1" fill="#4a90d9" opacity="0.35"/>
  <circle cx="275.8" cy="45.0" r="1.7" fill="none" stroke="#4a90d9" stroke-width="0.3" opacity="0.25"/>
  <polygon points="291.9,41.6 295.3,45.0 291.9,48.4 288.6,45.0" fill="none" stroke="#4a90d9" stroke-width="0.4" opacity="0.40"/>
  <circle cx="291.9" cy="45.0" r="1.1" fill="#4a90d9" opacity="0.35"/>
  <circle cx="286.6" cy="45.0" r="1.7" fill="none" stroke="#4a90d9" stroke-width="0.3" opacity="0.25"/>
  <polygon points="302.7,41.6 306.1,45.0 302.7,48.4 299.3,45.0" fill="none" stroke="#4a90d9" stroke-width="0.4" opacity="0.40"/>
  <circle cx="302.7" cy="45.0" r="1.1" fill="#4a90d9" opacity="0.35"/>
  <circle cx="297.3" cy="45.0" r="1.7" fill="none" stroke="#4a90d9" stroke-width="0.3" opacity="0.25"/>
  <polygon points="313.4,41.6 316.8,45.0 313.4,48.4 310.0,45.0" fill="none" stroke="#4a90d9" stroke-width="0.4" opacity="0.40"/>
  <circle cx="313.4" cy="45.0" r="1.1" fill="#4a90d9" opacity="0.35"/>
  <circle cx="308.0" cy="45.0" r="1.7" fill="none" stroke="#4a90d9" stroke-width="0.3" opacity="0.25"/>
  <polygon points="324.1,41.6 327.5,45.0 324.1,48.4 320.7,45.0" fill="none" stroke="#4a90d9" stroke-width="0.4" opacity="0.40"/>
  <circle cx="324.1" cy="45.0" r="1.1" fill="#4a90d9" opacity="0.35"/>
  <circle cx="318.8" cy="45.0" r="1.7" fill="none" stroke="#4a90d9" stroke-width="0.3" opacity="0.25"/>
  <polygon points="334.9,41.6 338.2,45.0 334.9,48.4 331.5,45.0" fill="none" stroke="#4a90d9" stroke-width="0.4" opacity="0.40"/>
  <circle cx="334.9" cy="45.0" r="1.1" fill="#4a90d9" opacity="0.35"/>
  <circle cx="329.5" cy="45.0" r="1.7" fill="none" stroke="#4a90d9" stroke-width="0.3" opacity="0.25"/>
  <polygon points="345.6,41.6 349.0,45.0 345.6,48.4 342.2,45.0" fill="none" stroke="#4a90d9" stroke-width="0.4" opacity="0.40"/>
  <circle cx="345.6" cy="45.0" r="1.1" fill="#4a90d9" opacity="0.35"/>
  <circle cx="340.2" cy="45.0" r="1.7" fill="none" stroke="#4a90d9" stroke-width="0.3" opacity="0.25"/>
  <polygon points="356.3,41.6 359.7,45.0 356.3,48.4 352.9,45.0" fill="none" stroke="#4a90d9" stroke-width="0.4" opacity="0.40"/>
  <circle cx="356.3" cy="45.0" r="1.1" fill="#4a90d9" opacity="0.35"/>
  <circle cx="351.0" cy="45.0" r="1.7" fill="none" stroke="#4a90d9" stroke-width="0.3" opacity="0.25"/>
  <polygon points="367.1,41.6 370.4,45.0 367.1,48.4 363.7,45.0" fill="none" stroke="#4a90d9" stroke-width="0.4" opacity="0.40"/>
  <circle cx="367.1" cy="45.0" r="1.1" fill="#4a90d9" opacity="0.35"/>
  <circle cx="361.7" cy="45.0" r="1.7" fill="none" stroke="#4a90d9" stroke-width="0.3" opacity="0.25"/>
  <polygon points="377.8,41.6 381.2,45.0 377.8,48.4 374.4,45.0" fill="none" stroke="#4a90d9" stroke-width="0.4" opacity="0.40"/>
  <circle cx="377.8" cy="45.0" r="1.1" fill="#4a90d9" opacity="0.35"/>
  <circle cx="372.4" cy="45.0" r="1.7" fill="none" stroke="#4a90d9" stroke-width="0.3" opacity="0.25"/>
  <polygon points="388.5,41.6 391.9,45.0 388.5,48.4 385.1,45.0" fill="none" stroke="#4a90d9" stroke-width="0.4" opacity="0.40"/>
  <circle cx="388.5" cy="45.0" r="1.1" fill="#4a90d9" opacity="0.35"/>
  <circle cx="383.2" cy="45.0" r="1.7" fill="none" stroke="#4a90d9" stroke-width="0.3" opacity="0.25"/>
  <polygon points="399.3,41.6 402.6,45.0 399.3,48.4 395.9,45.0" fill="none" stroke="#4a90d9" stroke-width="0.4" opacity="0.40"/>
  <circle cx="399.3" cy="45.0" r="1.1" fill="#4a90d9" opacity="0.35"/>
  <circle cx="393.9" cy="45.0" r="1.7" fill="none" stroke="#4a90d9" stroke-width="0.3" opacity="0.25"/>
  <polygon points="410.0,41.6 413.4,45.0 410.0,48.4 406.6,45.0" fill="none" stroke="#4a90d9" stroke-width="0.4" opacity="0.40"/>
  <circle cx="410.0" cy="45.0" r="1.1" fill="#4a90d9" opacity="0.35"/>
  <circle cx="404.6" cy="45.0" r="1.7" fill="none" stroke="#4a90d9" stroke-width="0.3" opacity="0.25"/>
  <polygon points="420.7,41.6 424.1,45.0 420.7,48.4 417.3,45.0" fill="none" stroke="#4a90d9" stroke-width="0.4" opacity="0.40"/>
  <circle cx="420.7" cy="45.0" r="1.1" fill="#4a90d9" opacity="0.35"/>
  <circle cx="415.3" cy="45.0" r="1.7" fill="none" stroke="#4a90d9" stroke-width="0.3" opacity="0.25"/>
  <polygon points="431.4,41.6 434.8,45.0 431.4,48.4 428.1,45.0" fill="none" stroke="#4a90d9" stroke-width="0.4" opacity="0.40"/>
  <circle cx="431.4" cy="45.0" r="1.1" fill="#4a90d9" opacity="0.35"/>
  <circle cx="426.1" cy="45.0" r="1.7" fill="none" stroke="#4a90d9" stroke-width="0.3" opacity="0.25"/>
  <polygon points="442.2,41.6 445.6,45.0 442.2,48.4 438.8,45.0" fill="none" stroke="#4a90d9" stroke-width="0.4" opacity="0.40"/>
  <circle cx="442.2" cy="45.0" r="1.1" fill="#4a90d9" opacity="0.35"/>
  <circle cx="436.8" cy="45.0" r="1.7" fill="none" stroke="#4a90d9" stroke-width="0.3" opacity="0.25"/>
  <polygon points="452.9,41.6 456.3,45.0 452.9,48.4 449.5,45.0" fill="none" stroke="#4a90d9" stroke-width="0.4" opacity="0.40"/>
  <circle cx="452.9" cy="45.0" r="1.1" fill="#4a90d9" opacity="0.35"/>
  <circle cx="447.5" cy="45.0" r="1.7" fill="none" stroke="#4a90d9" stroke-width="0.3" opacity="0.25"/>
  <polygon points="463.6,41.6 467.0,45.0 463.6,48.4 460.3,45.0" fill="none" stroke="#4a90d9" stroke-width="0.4" opacity="0.40"/>
  <circle cx="463.6" cy="45.0" r="1.1" fill="#4a90d9" opacity="0.35"/>
  <circle cx="458.3" cy="45.0" r="1.7" fill="none" stroke="#4a90d9" stroke-width="0.3" opacity="0.25"/>
  <polygon points="474.4,41.6 477.8,45.0 474.4,48.4 471.0,45.0" fill="none" stroke="#4a90d9" stroke-width="0.4" opacity="0.40"/>
  <circle cx="474.4" cy="45.0" r="1.1" fill="#4a90d9" opacity="0.35"/>
  <circle cx="469.0" cy="45.0" r="1.7" fill="none" stroke="#4a90d9" stroke-width="0.3" opacity="0.25"/>
  <polygon points="485.1,41.6 488.5,45.0 485.1,48.4 481.7,45.0" fill="none" stroke="#4a90d9" stroke-width="0.4" opacity="0.40"/>
  <circle cx="485.1" cy="45.0" r="1.1" fill="#4a90d9" opacity="0.35"/>
  <circle cx="479.7" cy="45.0" r="1.7" fill="none" stroke="#4a90d9" stroke-width="0.3" opacity="0.25"/>
  <polygon points="495.8,41.6 499.2,45.0 495.8,48.4 492.4,45.0" fill="none" stroke="#4a90d9" stroke-width="0.4" opacity="0.40"/>
  <circle cx="495.8" cy="45.0" r="1.1" fill="#4a90d9" opacity="0.35"/>
  <circle cx="490.5" cy="45.0" r="1.7" fill="none" stroke="#4a90d9" stroke-width="0.3" opacity="0.25"/>
  <polygon points="506.6,41.6 509.9,45.0 506.6,48.4 503.2,45.0" fill="none" stroke="#4a90d9" stroke-width="0.4" opacity="0.40"/>
  <circle cx="506.6" cy="45.0" r="1.1" fill="#4a90d9" opacity="0.35"/>
  <circle cx="501.2" cy="45.0" r="1.7" fill="none" stroke="#4a90d9" stroke-width="0.3" opacity="0.25"/>
  <polygon points="517.3,41.6 520.7,45.0 517.3,48.4 513.9,45.0" fill="none" stroke="#4a90d9" stroke-width="0.4" opacity="0.40"/>
  <circle cx="517.3" cy="45.0" r="1.1" fill="#4a90d9" opacity="0.35"/>
  <circle cx="511.9" cy="45.0" r="1.7" fill="none" stroke="#4a90d9" stroke-width="0.3" opacity="0.25"/>
  <polygon points="528.0,41.6 531.4,45.0 528.0,48.4 524.6,45.0" fill="none" stroke="#4a90d9" stroke-width="0.4" opacity="0.40"/>
  <circle cx="528.0" cy="45.0" r="1.1" fill="#4a90d9" opacity="0.35"/>
  <circle cx="522.7" cy="45.0" r="1.7" fill="none" stroke="#4a90d9" stroke-width="0.3" opacity="0.25"/>
  <polygon points="538.8,41.6 542.1,45.0 538.8,48.4 535.4,45.0" fill="none" stroke="#4a90d9" stroke-width="0.4" opacity="0.40"/>
  <circle cx="538.8" cy="45.0" r="1.1" fill="#4a90d9" opacity="0.35"/>
  <circle cx="533.4" cy="45.0" r="1.7" fill="none" stroke="#4a90d9" stroke-width="0.3" opacity="0.25"/>
  <polygon points="549.5,41.6 552.9,45.0 549.5,48.4 546.1,45.0" fill="none" stroke="#4a90d9" stroke-width="0.4" opacity="0.40"/>
  <circle cx="549.5" cy="45.0" r="1.1" fill="#4a90d9" opacity="0.35"/>
  <circle cx="544.1" cy="45.0" r="1.7" fill="none" stroke="#4a90d9" stroke-width="0.3" opacity="0.25"/>
  <polygon points="560.2,41.6 563.6,45.0 560.2,48.4 556.8,45.0" fill="none" stroke="#4a90d9" stroke-width="0.4" opacity="0.40"/>
  <circle cx="560.2" cy="45.0" r="1.1" fill="#4a90d9" opacity="0.35"/>
  <circle cx="554.9" cy="45.0" r="1.7" fill="none" stroke="#4a90d9" stroke-width="0.3" opacity="0.25"/>
  <polygon points="571.0,41.6 574.3,45.0 571.0,48.4 567.6,45.0" fill="none" stroke="#4a90d9" stroke-width="0.4" opacity="0.40"/>
  <circle cx="571.0" cy="45.0" r="1.1" fill="#4a90d9" opacity="0.35"/>
  <circle cx="565.6" cy="45.0" r="1.7" fill="none" stroke="#4a90d9" stroke-width="0.3" opacity="0.25"/>
  <polygon points="581.7,41.6 585.1,45.0 581.7,48.4 578.3,45.0" fill="none" stroke="#4a90d9" stroke-width="0.4" opacity="0.40"/>
  <circle cx="581.7" cy="45.0" r="1.1" fill="#4a90d9" opacity="0.35"/>
  <circle cx="576.3" cy="45.0" r="1.7" fill="none" stroke="#4a90d9" stroke-width="0.3" opacity="0.25"/>
  <polygon points="592.4,41.6 595.8,45.0 592.4,48.4 589.0,45.0" fill="none" stroke="#4a90d9" stroke-width="0.4" opacity="0.40"/>
  <circle cx="592.4" cy="45.0" r="1.1" fill="#4a90d9" opacity="0.35"/>
  <circle cx="587.0" cy="45.0" r="1.7" fill="none" stroke="#4a90d9" stroke-width="0.3" opacity="0.25"/>
  <polygon points="603.1,41.6 606.5,45.0 603.1,48.4 599.8,45.0" fill="none" stroke="#4a90d9" stroke-width="0.4" opacity="0.40"/>
  <circle cx="603.1" cy="45.0" r="1.1" fill="#4a90d9" opacity="0.35"/>
  <circle cx="597.8" cy="45.0" r="1.7" fill="none" stroke="#4a90d9" stroke-width="0.3" opacity="0.25"/>
  <polygon points="613.9,41.6 617.3,45.0 613.9,48.4 610.5,45.0" fill="none" stroke="#4a90d9" stroke-width="0.4" opacity="0.40"/>
  <circle cx="613.9" cy="45.0" r="1.1" fill="#4a90d9" opacity="0.35"/>
  <circle cx="608.5" cy="45.0" r="1.7" fill="none" stroke="#4a90d9" stroke-width="0.3" opacity="0.25"/>
  <polygon points="624.6,41.6 628.0,45.0 624.6,48.4 621.2,45.0" fill="none" stroke="#4a90d9" stroke-width="0.4" opacity="0.40"/>
  <circle cx="624.6" cy="45.0" r="1.1" fill="#4a90d9" opacity="0.35"/>
  <circle cx="619.2" cy="45.0" r="1.7" fill="none" stroke="#4a90d9" stroke-width="0.3" opacity="0.25"/>
  <polygon points="635.3,41.6 638.7,45.0 635.3,48.4 632.0,45.0" fill="none" stroke="#4a90d9" stroke-width="0.4" opacity="0.40"/>
  <circle cx="635.3" cy="45.0" r="1.1" fill="#4a90d9" opacity="0.35"/>
  <circle cx="630.0" cy="45.0" r="1.7" fill="none" stroke="#4a90d9" stroke-width="0.3" opacity="0.25"/>
  <polygon points="646.1,41.6 649.5,45.0 646.1,48.4 642.7,45.0" fill="none" stroke="#4a90d9" stroke-width="0.4" opacity="0.40"/>
  <circle cx="646.1" cy="45.0" r="1.1" fill="#4a90d9" opacity="0.35"/>
  <circle cx="640.7" cy="45.0" r="1.7" fill="none" stroke="#4a90d9" stroke-width="0.3" opacity="0.25"/>
  <polygon points="656.8,41.6 660.2,45.0 656.8,48.4 653.4,45.0" fill="none" stroke="#4a90d9" stroke-width="0.4" opacity="0.40"/>
  <circle cx="656.8" cy="45.0" r="1.1" fill="#4a90d9" opacity="0.35"/>
  <circle cx="651.4" cy="45.0" r="1.7" fill="none" stroke="#4a90d9" stroke-width="0.3" opacity="0.25"/>
  <polygon points="667.5,41.6 670.9,45.0 667.5,48.4 664.1,45.0" fill="none" stroke="#4a90d9" stroke-width="0.4" opacity="0.40"/>
  <circle cx="667.5" cy="45.0" r="1.1" fill="#4a90d9" opacity="0.35"/>
  <circle cx="662.2" cy="45.0" r="1.7" fill="none" stroke="#4a90d9" stroke-width="0.3" opacity="0.25"/>
  <polygon points="678.3,41.6 681.6,45.0 678.3,48.4 674.9,45.0" fill="none" stroke="#4a90d9" stroke-width="0.4" opacity="0.40"/>
  <circle cx="678.3" cy="45.0" r="1.1" fill="#4a90d9" opacity="0.35"/>
  <circle cx="672.9" cy="45.0" r="1.7" fill="none" stroke="#4a90d9" stroke-width="0.3" opacity="0.25"/>
  <rect x="6.8" y="52.9" width="162.5" height="118.4" fill="#d4af37" opacity="0.045" rx="1"/>
  <rect x="6.8" y="171.3" width="162.5" height="118.4" fill="#26a69a" opacity="0.045" rx="1"/>
  <rect x="6.8" y="289.8" width="162.5" height="118.4" fill="#4a90d9" opacity="0.045" rx="1"/>
  <text x="88.8" y="230.6" font-size="11.3" font-family="monospace" text-anchor="middle" fill="#4a90d9" opacity="0.28" transform="rotate(-90,88.8,230.6)">CH 9–16 via East</text>
  <line x1="90.7" y1="52.9" x2="90.7" y2="408.2" stroke="#333" stroke-width="0.4" opacity="0.30" stroke-dasharray="2,4"/>
  <line x1="6.8" y1="171.3" x2="170.1" y2="171.3" stroke="#333" stroke-width="0.5" opacity="0.40" stroke-dasharray="2,3"/>
  <line x1="6.8" y1="289.8" x2="170.1" y2="289.8" stroke="#333" stroke-width="0.5" opacity="0.40" stroke-dasharray="2,3"/>
  <rect x="6.8" y="76.8" width="3.0" height="11.3" fill="#d4af37" opacity="0.60"/>
  <rect x="6.8" y="136.1" width="3.0" height="11.3" fill="#d4af37" opacity="0.60"/>
  <rect x="6.8" y="195.3" width="3.0" height="11.3" fill="#26a69a" opacity="0.60"/>
  <rect x="6.8" y="254.5" width="3.0" height="11.3" fill="#26a69a" opacity="0.60"/>
  <rect x="6.8" y="313.7" width="3.0" height="11.3" fill="#4a90d9" opacity="0.60"/>
  <rect x="6.8" y="372.9" width="3.0" height="11.3" fill="#4a90d9" opacity="0.60"/>
  <line x1="170.1" y1="45.4" x2="170.1" y2="485.7" stroke="#4a90d9" stroke-width="0.8" opacity="0.45"/>
  <rect x="173.9" y="68.0" width="502.2" height="340.2" fill="#0a0a0c" opacity="0.55" rx="1"/>
  <rect x="173.9" y="30.2" width="502.2" height="34.0" fill="#111" opacity="0.50" rx="1"/>
  <text x="205.2" y="47.2" font-size="9.1" font-family="monospace" text-anchor="middle" fill="#4a90d9" opacity="0.70">V9</text>
  <text x="268.0" y="47.2" font-size="9.1" font-family="monospace" text-anchor="middle" fill="#4a90d9" opacity="0.70">V10</text>
  <text x="330.8" y="47.2" font-size="9.1" font-family="monospace" text-anchor="middle" fill="#4a90d9" opacity="0.70">V11</text>
  <text x="393.6" y="47.2" font-size="9.1" font-family="monospace" text-anchor="middle" fill="#4a90d9" opacity="0.70">V12</text>
  <text x="456.4" y="47.2" font-size="9.1" font-family="monospace" text-anchor="middle" fill="#4a90d9" opacity="0.70">V13</text>
  <text x="519.1" y="47.2" font-size="9.1" font-family="monospace" text-anchor="middle" fill="#4a90d9" opacity="0.70">V14</text>
  <text x="581.9" y="47.2" font-size="9.1" font-family="monospace" text-anchor="middle" fill="#4a90d9" opacity="0.70">V15</text>
  <text x="644.7" y="47.2" font-size="9.1" font-family="monospace" text-anchor="middle" fill="#4a90d9" opacity="0.70">V16</text>
  <line x1="0" y1="419.5" x2="691.19" y2="419.5" stroke="#4a90d9" stroke-width="0.4" opacity="0.25"/>
  <g fill="url(#mbsG)" stroke="none">
    <polygon points="277.6,404.4 337.3,404.4 340.6,449.8 274.3,449.8" />
    <polygon points="395.1,404.4 454.8,404.4 458.1,449.8 391.8,449.8" />
    <polygon points="512.7,404.4 572.3,404.4 575.6,449.8 509.3,449.8" />
    <polygon points="271.3,404.4 578.6,404.4 580.6,402.4 269.3,402.4" />
  </g>
  <g fill="none" stroke="#4a90d9" stroke-width="0.3" opacity="0.30">
    <polygon points="277.6,404.4 337.3,404.4 340.6,449.8 274.3,449.8" />
    <polygon points="395.1,404.4 454.8,404.4 458.1,449.8 391.8,449.8" />
    <polygon points="512.7,404.4 572.3,404.4 575.6,449.8 509.3,449.8" />
    <polygon points="271.3,404.4 578.6,404.4 580.6,402.4 269.3,402.4" />
  </g>
  <line x1="310.5" y1="404.4" x2="310.5" y2="395.0" stroke="#dc2626" stroke-width="0.5" opacity="0.40"/>
  <circle cx="310.5" cy="393.8" r="1.2" fill="#dc2626" opacity="0.40"/>
  <line x1="409.9" y1="404.4" x2="409.9" y2="395.0" stroke="#dc2626" stroke-width="0.5" opacity="0.40"/>
  <circle cx="409.9" cy="393.8" r="1.2" fill="#dc2626" opacity="0.40"/>
  <line x1="512.4" y1="404.4" x2="512.4" y2="395.0" stroke="#dc2626" stroke-width="0.5" opacity="0.40"/>
  <circle cx="512.4" cy="393.8" r="1.2" fill="#dc2626" opacity="0.40"/>
  <g fill="none" stroke="#3a6a8a">
    <path d="M0.0,427.1 L14.4,428.8 L28.8,428.3 L43.2,426.3 L57.6,425.3 L72.0,426.6 L86.4,428.6 L100.8,428.6 L115.2,426.7 L129.6,425.3 L144.0,426.2 L158.4,428.3 L172.8,428.8 L187.2,427.1 L201.6,425.4 L216.0,425.9 L230.4,427.9 L244.8,428.9 L259.2,427.6 L273.6,425.6 L288.0,425.6 L302.4,427.4 L316.8,428.9 L331.2,428.0 L345.6,426.0 L360.0,425.4 L374.4,427.0 L388.8,428.7 L403.2,428.4 L417.6,426.3 L432.0,425.3 L446.4,426.6 L460.8,428.5 L475.2,428.6 L489.6,426.8 L504.0,425.3 L518.4,426.1 L532.8,428.2 L547.2,428.8 L561.6,427.2 L576.0,425.5 L590.4,425.8 L604.8,427.8 L619.2,428.9 L633.6,427.7 L648.0,425.7 L662.4,425.5 L676.8,427.4 L691.2,428.8" stroke-width="0.6" opacity="0.45"/>
    <path d="M0.0,443.3 L14.4,442.9 L28.8,441.1 L43.2,441.5 L57.6,443.3 L72.0,443.0 L86.4,441.2 L100.8,441.4 L115.2,443.2 L129.6,443.0 L144.0,441.2 L158.4,441.4 L172.8,443.2 L187.2,443.1 L201.6,441.2 L216.0,441.3 L230.4,443.2 L244.8,443.1 L259.2,441.3 L273.6,441.3 L288.0,443.1 L302.4,443.1 L316.8,441.3 L331.2,441.3 L345.6,443.1 L360.0,443.2 L374.4,441.4 L388.8,441.2 L403.2,443.0 L417.6,443.2 L432.0,441.4 L446.4,441.2 L460.8,443.0 L475.2,443.3 L489.6,441.4 L504.0,441.2 L518.4,443.0 L532.8,443.3 L547.2,441.5 L561.6,441.1 L576.0,442.9 L590.4,443.3 L604.8,441.5 L619.2,441.1 L633.6,442.9 L648.0,443.3 L662.4,441.6 L676.8,441.1 L691.2,442.8" stroke-width="0.5" opacity="0.35"/>
    <path d="M0.0,459.3 L14.4,458.1 L28.8,456.3 L43.2,455.3 L57.6,456.1 L72.0,457.9 L86.4,459.2 L100.8,459.0 L115.2,457.3 L129.6,455.7 L144.0,455.4 L158.4,456.7 L172.8,458.5 L187.2,459.3 L201.6,458.4 L216.0,456.6 L230.4,455.4 L244.8,455.8 L259.2,457.5 L273.6,459.1 L288.0,459.1 L302.4,457.7 L316.8,455.9 L331.2,455.3 L345.6,456.4 L360.0,458.2 L374.4,459.3 L388.8,458.7 L403.2,456.9 L417.6,455.5 L432.0,455.6 L446.4,457.1 L460.8,458.8 L475.2,459.3 L489.6,458.1 L504.0,456.2 L518.4,455.3 L532.8,456.1 L547.2,457.9 L561.6,459.2 L576.0,458.9 L590.4,457.3 L604.8,455.7 L619.2,455.4 L633.6,456.8 L648.0,458.6 L662.4,459.3 L676.8,458.4 L691.2,456.6" stroke-width="0.5" opacity="0.26"/>
    <path d="M0.0,473.1 L14.4,473.5 L28.8,471.3 L43.2,472.0 L57.6,473.8 L72.0,472.3 L86.4,471.1 L100.8,473.2 L115.2,473.4 L129.6,471.2 L144.0,472.1 L158.4,473.8 L172.8,472.1 L187.2,471.2 L201.6,473.3 L216.0,473.3 L230.4,471.1 L244.8,472.2 L259.2,473.8 L273.6,472.0 L288.0,471.3 L302.4,473.4 L316.8,473.1 L331.2,471.1 L345.6,472.4 L360.0,473.8 L374.4,471.9 L388.8,471.3 L403.2,473.5 L417.6,473.0 L432.0,471.1 L446.4,472.5 L460.8,473.8 L475.2,471.7 L489.6,471.4 L504.0,473.6 L518.4,472.9 L532.8,471.0 L547.2,472.6 L561.6,473.7 L576.0,471.6 L590.4,471.5 L604.8,473.7 L619.2,472.8 L633.6,471.0 L648.0,472.8 L662.4,473.7 L676.8,471.5 L691.2,471.6" stroke-width="0.4" opacity="0.18"/>
  </g>
  <g stroke="#dc2626" stroke-width="0.9" opacity="0.35">
    <line x1="6.8" y1="0" x2="6.8" y2="485.67" stroke-dasharray="3,5"/>
    <line x1="684.4" y1="0" x2="684.4" y2="485.67" stroke-dasharray="3,5"/>
  </g>
  <circle cx="676.1" cy="15.1" r="9.4" fill="#dc2626"/>
  <text x="11.3" y="480.0" font-size="9.1" font-family="monospace" fill="#4a90d9" opacity="0.45" font-weight="bold">dot.modular</text>
</svg>