<svg xmlns="http://www.w3.org/2000/svg" width="390.0" height="379.43" viewBox="0 0 390.0 379.43">
<rect width="390.0" height="379.43" fill="#dcdcdc"/>
<rect x="0" y="0" width="390.0" height="3.54" fill="#d4001a"/>
<polyline points="14.76,47.24 18.9,49.5 23.04,49.09 27.17,48.64 31.31,49.66 35.45,48.97 39.58,46.15 43.72,45.07 47.86,45.88 52.0,45.36 56.13,44.58 60.27,46.54 64.41,49.01 68.54,48.93 72.68,48.57 76.82,49.79 80.95,49.53 85.09,46.82 89.23,45.41 93.36,46.02 97.5,45.43 101.64,44.3 105.77,45.88 109.91,48.46 114.05,48.68 118.18,48.4 122.32,49.8 126.46,50.0 130.59,47.49 134.73,45.83 138.87,46.26 143.0,45.61 147.14,44.14 151.28,45.27 155.42,47.87 159.55,48.36 163.69,48.13 167.83,49.67 171.96,50.35 176.1,48.13 180.24,46.3" fill="none" stroke="#6fa8a2" stroke-width="0.4" stroke-opacity="0.41"/>
<polyline points="14.76,62.47 18.9,64.17 23.04,62.55 27.17,61.12 31.31,59.85 35.45,56.78 39.58,54.69 43.72,56.8 47.86,60.19 52.0,61.53 56.13,62.57 60.27,63.94 64.41,62.32 68.54,58.06 72.68,55.92 76.82,56.64 80.95,57.16 85.09,58.24 89.23,61.8 93.36,64.56 97.5,63.19 101.64,60.48 105.77,59.17 109.91,57.36 114.05,55.08 118.18,56.13 122.32,60.14 126.46,62.46 130.59,62.59 134.73,63.07 138.87,62.43 143.0,58.68 147.14,55.42 151.28,56.01 155.42,57.85 159.55,58.86 163.69,61.19 167.83,64.29 171.96,63.93 176.1,60.45 180.24,58.22" fill="none" stroke="#6fa8a2" stroke-width="0.4" stroke-opacity="0.75"/>
<polyline points="14.76,78.19 18.9,77.39 23.04,73.02 27.17,69.69 31.31,67.64 35.45,67.16 39.58,70.87 43.72,76.77 47.86,78.42 52.0,74.79 56.13,70.77 60.27,68.36 64.41,66.98 68.54,68.86 72.68,74.62 76.82,78.55 80.95,76.55 85.09,72.13 89.23,69.18 93.36,67.32 97.5,67.55 101.64,72.17 105.77,77.67 109.91,77.94 114.05,73.79 118.18,70.14 122.32,67.95 126.46,67.0 130.59,69.9 134.73,75.88 138.87,78.6 143.0,75.6 147.14,71.34 151.28,68.72 155.42,67.08 159.55,68.18 163.69,73.53 167.83,78.28 171.96,77.24 176.1,72.85 180.24,69.59" fill="none" stroke="#6fa8a2" stroke-width="0.4" stroke-opacity="0.41"/>
<polyline points="14.76,92.71 18.9,89.81 23.04,86.69 27.17,84.33 31.31,80.4 35.45,76.77 39.58,77.37 43.72,80.55 47.86,82.92 52.0,85.86 56.13,90.44 60.27,92.72 64.41,90.76 68.54,88.06 72.68,85.92 76.82,81.92 80.95,77.54 85.09,77.02 89.23,79.48 93.36,81.49 97.5,84.2 101.64,89.06 105.77,92.32 109.91,91.36 114.05,89.21 118.18,87.45 122.32,83.62 126.46,78.65 130.59,77.07 134.73,78.72 138.87,80.24 143.0,82.52 147.14,87.44 151.28,91.54 155.42,91.58 159.55,90.09 163.69,88.86 167.83,85.39 171.96,80.07 176.1,77.51 180.24,78.31" fill="none" stroke="#6fa8a2" stroke-width="0.4" stroke-opacity="0.75"/>
<polyline points="14.76,99.28 18.9,96.63 23.04,96.02 27.17,95.95 31.31,94.58 35.45,94.82 39.58,97.85 43.72,99.65 47.86,98.74 52.0,98.32 56.13,98.49 60.27,96.44 64.41,93.92 68.54,94.66 72.68,96.85 76.82,97.31 80.95,97.83 85.09,99.8 89.23,99.87 93.36,96.99 97.5,95.2 101.64,95.68 105.77,95.41 109.91,94.92 114.05,97.11 118.18,99.88 122.32,99.51 126.46,97.89 130.59,97.74 134.73,96.92 138.87,94.43 143.0,93.99 147.14,96.56 151.28,98.17 155.42,98.04 159.55,98.98 163.69,99.87 167.83,97.72 171.96,94.87 176.1,94.91 180.24,95.89" fill="none" stroke="#6fa8a2" stroke-width="0.4" stroke-opacity="0.41"/>
<polyline points="14.76,110.63 18.9,106.91 23.04,106.36 27.17,106.93 31.31,108.18 35.45,111.68 39.58,114.5 43.72,112.43 47.86,108.02 52.0,106.27 56.13,106.71 60.27,107.47 64.41,110.09 68.54,113.84 72.68,113.83 76.82,109.63 80.95,106.54 85.09,106.47 89.23,107.07 93.36,108.75 97.5,112.54 101.64,114.5 105.77,111.46 109.91,107.34 114.05,106.29 118.18,106.83 122.32,107.81 126.46,110.95 130.59,114.3 134.73,113.13 138.87,108.69 143.0,106.34 147.14,106.61 151.28,107.26 155.42,109.45 159.55,113.32 163.69,114.24 167.83,110.45 171.96,106.83 176.1,106.38 180.24,106.96" fill="none" stroke="#6fa8a2" stroke-width="0.4" stroke-opacity="0.75"/>
<polyline points="14.76,120.18 18.9,118.06 23.04,117.69 27.17,116.59 31.31,117.02 35.45,120.94 39.58,124.73 43.72,125.81 47.86,126.71 52.0,127.88 56.13,125.96 60.27,121.56 64.41,119.0 68.54,118.2 72.68,116.59 76.82,116.21 80.95,119.56 85.09,123.49 89.23,124.99 93.36,126.28 97.5,128.12 101.64,127.03 105.77,122.93 109.91,120.09 114.05,118.94 118.18,116.88 122.32,115.67 126.46,118.32 130.59,122.2 134.73,124.01 138.87,125.59 143.0,128.05 147.14,127.85 151.28,124.23 155.42,121.26 159.55,119.88 163.69,117.47 167.83,115.45 171.96,117.27 176.1,120.94 180.24,122.91" fill="none" stroke="#6fa8a2" stroke-width="0.4" stroke-opacity="0.41"/>
<polyline points="14.76,128.77 18.9,127.75 23.04,129.14 27.17,131.45 31.31,136.35 35.45,141.64 39.58,142.06 43.72,138.03 47.86,134.04 52.0,130.7 56.13,127.3 60.27,127.3 64.41,132.5 68.54,138.13 72.68,140.34 76.82,140.72 80.95,139.63 85.09,134.79 89.23,128.68 93.36,126.9 97.5,129.38 101.64,132.47 105.77,136.26 109.91,141.04 114.05,142.51 118.18,138.41 122.32,133.14 126.46,130.11 130.59,128.02 134.73,127.64 138.87,131.92 143.0,138.35 147.14,141.26 151.28,140.46 155.42,138.67 159.55,134.95 163.69,129.17 167.83,126.3 171.96,129.0 176.1,133.41 180.24,136.81" fill="none" stroke="#6fa8a2" stroke-width="0.4" stroke-opacity="0.75"/>
<polyline points="14.76,144.13 18.9,145.84 23.04,146.81 27.17,147.37 31.31,149.24 35.45,149.61 39.58,146.53 43.72,144.07 47.86,145.08 52.0,146.62 56.13,147.01 60.27,148.44 64.41,149.91 68.54,147.99 72.68,144.63 76.82,144.39 80.95,146.19 85.09,146.87 89.23,147.69 93.36,149.6 97.5,149.18 101.64,145.76 105.77,144.03 109.91,145.51 114.05,146.74 118.18,147.18 122.32,148.89 126.46,149.82 130.59,147.19 134.73,144.24 138.87,144.75 143.0,146.46 147.14,146.93 151.28,148.08 155.42,149.83 159.55,148.57 163.69,145.08 167.83,144.17 171.96,145.91 176.1,146.82 180.24,147.43" fill="none" stroke="#6fa8a2" stroke-width="0.4" stroke-opacity="0.41"/>
<polyline points="14.76,155.67 18.9,157.57 23.04,158.06 27.17,159.74 31.31,163.07 35.45,164.05 39.58,162.24 43.72,161.21 47.86,160.65 52.0,157.83 56.13,154.96 60.27,155.41 64.41,157.03 68.54,157.33 72.68,158.77 76.82,162.26 80.95,163.9 85.09,162.6 89.23,161.77 93.36,161.49 97.5,158.84 101.64,155.56 105.77,155.36 109.91,156.64 114.05,156.71 118.18,157.79 122.32,161.32 126.46,163.54 130.59,162.76 134.73,162.18 138.87,162.24 143.0,159.9 147.14,156.34 151.28,155.52 155.42,156.44 159.55,156.23 163.69,156.87 167.83,160.28 171.96,162.98 176.1,162.72 180.24,162.41" fill="none" stroke="#6fa8a2" stroke-width="0.4" stroke-opacity="0.75"/>
<polyline points="14.76,168.68 18.9,171.95 23.04,174.16 27.17,176.96 31.31,177.93 35.45,174.22 39.58,169.29 43.72,167.41 47.86,167.25 52.0,167.5 56.13,170.62 60.27,175.85 64.41,177.99 68.54,176.01 72.68,173.61 76.82,171.21 80.95,167.37 85.09,165.25 89.23,168.08 93.36,172.59 97.5,174.93 101.64,176.39 105.77,177.38 109.91,174.78 114.05,169.39 118.18,166.51 122.32,167.21 126.46,168.46 130.59,170.66 134.73,175.22 138.87,178.38 143.0,176.62 147.14,172.91 151.28,170.48 155.42,167.94 159.55,165.66 163.69,167.45 167.83,172.59 171.96,175.9 176.1,176.4 180.24,176.48" fill="none" stroke="#6fa8a2" stroke-width="0.4" stroke-opacity="0.41"/>
<polyline points="14.76,183.67 18.9,188.35 23.04,190.51 27.17,190.02 31.31,185.02 35.45,178.13 39.58,176.43 43.72,181.25 47.86,186.85 52.0,189.91 56.13,190.66 60.27,187.53 64.41,180.59 68.54,176.17 72.68,178.9 76.82,184.91 80.95,189.0 85.09,190.69 89.23,189.35 93.36,183.46 97.5,177.12 101.64,177.07 105.77,182.6 109.91,187.73 114.05,190.28 118.18,190.4 122.32,186.21 126.46,179.15 130.59,176.16 134.73,180.16 138.87,186.04 143.0,189.54 147.14,190.74 151.28,188.44 155.42,181.86 159.55,176.45 163.69,177.99 167.83,183.91 171.96,188.48 176.1,190.55 180.24,189.92" fill="none" stroke="#6fa8a2" stroke-width="0.4" stroke-opacity="0.75"/>
<polyline points="14.76,198.28 18.9,197.79 23.04,198.53 27.17,199.88 31.31,198.49 35.45,195.94 39.58,195.62 43.72,195.78 47.86,194.22 52.0,193.78 56.13,196.16 60.27,197.84 64.41,197.5 68.54,198.27 72.68,199.95 76.82,199.03 80.95,196.52 85.09,195.98 89.23,196.12 93.36,194.43 97.5,193.51 101.64,195.55 105.77,197.36 109.91,197.15 114.05,197.89 118.18,199.88 122.32,199.47 126.46,197.08 130.59,196.38 134.73,196.52 138.87,194.77 143.0,193.39 147.14,195.03 151.28,196.88 155.42,196.76 159.55,197.44 163.69,199.66 167.83,199.79 171.96,197.6 176.1,196.79 180.24,196.97" fill="none" stroke="#6fa8a2" stroke-width="0.4" stroke-opacity="0.41"/>
<polyline points="14.76,212.4 18.9,212.19 23.04,212.42 27.17,210.92 31.31,206.84 35.45,204.58 39.58,206.12 43.72,208.0 47.86,209.15 52.0,211.78 56.13,214.17 60.27,212.53 64.41,208.84 68.54,207.15 72.68,206.49 76.82,205.27 80.95,206.36 85.09,210.52 89.23,213.19 93.36,212.51 97.5,211.55 101.64,210.67 105.77,207.55 109.91,204.45 114.05,205.37 118.18,208.41 122.32,210.0 126.46,211.39 130.59,213.57 134.73,213.08 138.87,209.14 143.0,206.29 147.14,206.2 151.28,206.13 155.42,206.51 159.55,209.83 163.69,213.45 167.83,213.27 171.96,211.08 176.1,209.86 180.24,207.99" fill="none" stroke="#6fa8a2" stroke-width="0.4" stroke-opacity="0.75"/>
<polyline points="14.76,226.67 18.9,225.22 23.04,222.6 27.17,218.15 31.31,215.19 35.45,218.11 39.58,224.0 43.72,226.73 47.86,225.91 52.0,223.84 56.13,220.03 60.27,215.79 64.41,216.26 68.54,221.8 72.68,226.22 76.82,226.46 80.95,224.78 85.09,221.77 89.23,217.18 93.36,215.29 97.5,219.37 101.64,224.99 105.77,226.76 109.91,225.54 114.05,223.2 118.18,218.99 122.32,215.34 126.46,217.19 130.59,223.07 134.73,226.59 138.87,226.17 143.0,224.29 147.14,220.84 151.28,216.34 155.42,215.7 159.55,220.71 163.69,225.76 167.83,226.63 171.96,225.14 176.1,222.46 180.24,217.97" fill="none" stroke="#6fa8a2" stroke-width="0.4" stroke-opacity="0.41"/>
<polyline points="14.76,239.83 18.9,238.24 23.04,235.73 27.17,230.72 31.31,226.97 35.45,227.3 39.58,228.91 43.72,230.29 47.86,234.01 52.0,239.24 56.13,241.39 60.27,240.35 64.41,239.33 68.54,237.37 72.68,232.45 76.82,227.98 80.95,227.34 85.09,228.26 89.23,229.01 93.36,232.23 97.5,237.67 101.64,240.7 105.77,240.5 109.91,240.13 114.05,238.86 118.18,234.28 122.32,229.29 126.46,227.76 130.59,227.96 134.73,228.0 138.87,230.53 143.0,235.94 147.14,239.68 151.28,240.28 155.42,240.59 159.55,240.14 163.69,236.1 167.83,230.83 171.96,228.52 176.1,228.03 180.24,227.31" fill="none" stroke="#6fa8a2" stroke-width="0.4" stroke-opacity="0.75"/>
<polyline points="14.76,247.06 18.9,247.0 23.04,245.75 27.17,243.5 31.31,244.08 35.45,246.91 39.58,247.96 43.72,247.75 47.86,248.8 52.0,249.0 56.13,246.23 60.27,243.94 64.41,244.68 68.54,245.57 72.68,245.38 76.82,246.93 80.95,249.61 85.09,249.38 89.23,246.97 93.36,246.11 97.5,245.93 101.64,244.24 105.77,243.69 109.91,246.35 114.05,248.63 118.18,248.26 122.32,248.06 126.46,248.63 130.59,246.94 134.73,243.98 138.87,243.86 143.0,245.74 147.14,246.25 151.28,246.68 155.42,248.93 159.55,249.86 163.69,247.48 167.83,245.38 171.96,245.47 176.1,244.99 180.24,243.96" fill="none" stroke="#6fa8a2" stroke-width="0.4" stroke-opacity="0.41"/>
<polyline points="14.76,258.96 18.9,257.28 23.04,255.25 27.17,255.58 31.31,259.91 35.45,263.5 39.58,262.5 43.72,259.75 47.86,257.97 52.0,256.0 56.13,254.92 60.27,257.93 64.41,262.58 68.54,263.37 72.68,260.75 76.82,258.6 80.95,256.84 85.09,254.98 89.23,256.25 93.36,260.98 97.5,263.67 101.64,261.89 105.77,259.29 109.91,257.6 114.05,255.56 118.18,255.19 122.32,259.01 126.46,263.19 130.59,262.94 134.73,260.17 138.87,258.25 143.0,256.38 147.14,254.87 151.28,257.12 155.42,261.93 159.55,263.59 163.69,261.25 167.83,258.89 171.96,257.2 176.1,255.19 180.24,255.69" fill="none" stroke="#6fa8a2" stroke-width="0.4" stroke-opacity="0.75"/>
<polyline points="14.76,269.28 18.9,267.68 23.04,265.37 27.17,265.97 31.31,269.77 35.45,272.61 39.58,273.95 43.72,276.36 47.86,278.08 52.0,275.89 56.13,272.2 60.27,270.35 64.41,268.53 68.54,265.66 72.68,265.33 76.82,268.57 80.95,271.42 85.09,272.89 89.23,275.59 93.36,278.09 97.5,276.77 101.64,273.4 105.77,271.49 109.91,269.59 114.05,266.24 118.18,264.99 122.32,267.54 126.46,270.26 130.59,271.74 134.73,274.59 138.87,277.78 143.0,277.38 147.14,274.46 151.28,272.63 155.42,270.77 159.55,267.11 163.69,264.98 167.83,266.75 171.96,269.2 176.1,270.56 180.24,273.4" fill="none" stroke="#6fa8a2" stroke-width="0.4" stroke-opacity="0.41"/>
<polyline points="14.76,278.69 18.9,277.27 23.04,278.26 27.17,283.71 31.31,289.6 35.45,291.01 39.58,289.29 43.72,286.89 47.86,282.49 52.0,277.16 56.13,276.1 60.27,280.13 64.41,284.56 68.54,287.73 72.68,290.81 76.82,291.25 80.95,286.47 85.09,280.42 89.23,277.9 93.36,277.87 97.5,278.97 101.64,283.26 105.77,289.43 109.91,291.83 114.05,289.32 118.18,285.84 122.32,282.32 126.46,277.84 130.59,275.88 134.73,279.58 138.87,285.26 143.0,288.53 147.14,290.23 151.28,290.67 155.42,286.98 159.55,280.47 163.69,276.98 167.83,277.85 171.96,279.98 176.1,283.36 180.24,288.83" fill="none" stroke="#6fa8a2" stroke-width="0.4" stroke-opacity="0.75"/>
<polyline points="14.76,295.11 18.9,294.61 23.04,295.83 27.17,298.96 31.31,299.54 35.45,296.75 39.58,294.94 43.72,295.13 47.86,294.79 52.0,294.99 56.13,297.77 60.27,299.85 64.41,297.99 68.54,295.32 72.68,295.0 76.82,295.03 80.95,294.62 85.09,296.47 89.23,299.45 93.36,299.1 97.5,296.14 101.64,294.9 105.77,295.14 109.91,294.66 114.05,295.39 118.18,298.46 122.32,299.76 126.46,297.3 130.59,295.06 134.73,295.08 138.87,294.9 143.0,294.76 147.14,297.17 151.28,299.75 155.42,298.53 159.55,295.64 163.69,294.94 167.83,295.1 171.96,294.6 176.1,295.94 180.24,299.07" fill="none" stroke="#6fa8a2" stroke-width="0.4" stroke-opacity="0.41"/>
<polyline points="14.76,306.19 18.9,306.25 23.04,308.82 27.17,312.26 31.31,312.79 35.45,311.82 39.58,312.02 43.72,311.14 47.86,307.62 52.0,305.16 56.13,305.62 60.27,305.91 64.41,305.57 68.54,307.75 72.68,311.4 76.82,312.49 80.95,311.88 85.09,312.38 89.23,312.0 93.36,308.69 97.5,305.82 101.64,305.8 105.77,305.81 109.91,305.04 114.05,306.74 118.18,310.43 122.32,312.01 126.46,311.75 130.59,312.56 134.73,312.73 138.87,309.76 143.0,306.62 147.14,306.16 151.28,305.91 155.42,304.71 159.55,305.82 163.69,309.41 167.83,311.38 171.96,311.43 176.1,312.53 180.24,313.29" fill="none" stroke="#6fa8a2" stroke-width="0.4" stroke-opacity="0.75"/>
<polyline points="209.76,47.24 213.9,49.5 218.04,49.09 222.17,48.64 226.31,49.66 230.45,48.97 234.58,46.15 238.72,45.07 242.86,45.88 247.0,45.36 251.13,44.58 255.27,46.54 259.41,49.01 263.54,48.93 267.68,48.57 271.82,49.79 275.95,49.53 280.09,46.82 284.23,45.41 288.36,46.02 292.5,45.43 296.64,44.3 300.77,45.88 304.91,48.46 309.05,48.68 313.18,48.4 317.32,49.8 321.46,50.0 325.59,47.49 329.73,45.83 333.87,46.26 338.0,45.61 342.14,44.14 346.28,45.27 350.42,47.87 354.55,48.36 358.69,48.13 362.83,49.67 366.96,50.35 371.1,48.13 375.24,46.3" fill="none" stroke="#d09a48" stroke-width="0.4" stroke-opacity="0.41"/>
<polyline points="209.76,62.47 213.9,64.17 218.04,62.55 222.17,61.12 226.31,59.85 230.45,56.78 234.58,54.69 238.72,56.8 242.86,60.19 247.0,61.53 251.13,62.57 255.27,63.94 259.41,62.32 263.54,58.06 267.68,55.92 271.82,56.64 275.95,57.16 280.09,58.24 284.23,61.8 288.36,64.56 292.5,63.19 296.64,60.48 300.77,59.17 304.91,57.36 309.05,55.08 313.18,56.13 317.32,60.14 321.46,62.46 325.59,62.59 329.73,63.07 333.87,62.43 338.0,58.68 342.14,55.42 346.28,56.01 350.42,57.85 354.55,58.86 358.69,61.19 362.83,64.29 366.96,63.93 371.1,60.45 375.24,58.22" fill="none" stroke="#d09a48" stroke-width="0.4" stroke-opacity="0.75"/>
<polyline points="209.76,78.19 213.9,77.39 218.04,73.02 222.17,69.69 226.31,67.64 230.45,67.16 234.58,70.87 238.72,76.77 242.86,78.42 247.0,74.79 251.13,70.77 255.27,68.36 259.41,66.98 263.54,68.86 267.68,74.62 271.82,78.55 275.95,76.55 280.09,72.13 284.23,69.18 288.36,67.32 292.5,67.55 296.64,72.17 300.77,77.67 304.91,77.94 309.05,73.79 313.18,70.14 317.32,67.95 321.46,67.0 325.59,69.9 329.73,75.88 333.87,78.6 338.0,75.6 342.14,71.34 346.28,68.72 350.42,67.08 354.55,68.18 358.69,73.53 362.83,78.28 366.96,77.24 371.1,72.85 375.24,69.59" fill="none" stroke="#d09a48" stroke-width="0.4" stroke-opacity="0.41"/>
<polyline points="209.76,92.71 213.9,89.81 218.04,86.69 222.17,84.33 226.31,80.4 230.45,76.77 234.58,77.37 238.72,80.55 242.86,82.92 247.0,85.86 251.13,90.44 255.27,92.72 259.41,90.76 263.54,88.06 267.68,85.92 271.82,81.92 275.95,77.54 280.09,77.02 284.23,79.48 288.36,81.49 292.5,84.2 296.64,89.06 300.77,92.32 304.91,91.36 309.05,89.21 313.18,87.45 317.32,83.62 321.46,78.65 325.59,77.07 329.73,78.72 333.87,80.24 338.0,82.52 342.14,87.44 346.28,91.54 350.42,91.58 354.55,90.09 358.69,88.86 362.83,85.39 366.96,80.07 371.1,77.51 375.24,78.31" fill="none" stroke="#d09a48" stroke-width="0.4" stroke-opacity="0.75"/>
<polyline points="209.76,99.28 213.9,96.63 218.04,96.02 222.17,95.95 226.31,94.58 230.45,94.82 234.58,97.85 238.72,99.65 242.86,98.74 247.0,98.32 251.13,98.49 255.27,96.44 259.41,93.92 263.54,94.66 267.68,96.85 271.82,97.31 275.95,97.83 280.09,99.8 284.23,99.87 288.36,96.99 292.5,95.2 296.64,95.68 300.77,95.41 304.91,94.92 309.05,97.11 313.18,99.88 317.32,99.51 321.46,97.89 325.59,97.74 329.73,96.92 333.87,94.43 338.0,93.99 342.14,96.56 346.28,98.17 350.42,98.04 354.55,98.98 358.69,99.87 362.83,97.72 366.96,94.87 371.1,94.91 375.24,95.89" fill="none" stroke="#d09a48" stroke-width="0.4" stroke-opacity="0.41"/>
<polyline points="209.76,110.63 213.9,106.91 218.04,106.36 222.17,106.93 226.31,108.18 230.45,111.68 234.58,114.5 238.72,112.43 242.86,108.02 247.0,106.27 251.13,106.71 255.27,107.47 259.41,110.09 263.54,113.84 267.68,113.83 271.82,109.63 275.95,106.54 280.09,106.47 284.23,107.07 288.36,108.75 292.5,112.54 296.64,114.5 300.77,111.46 304.91,107.34 309.05,106.29 313.18,106.83 317.32,107.81 321.46,110.95 325.59,114.3 329.73,113.13 333.87,108.69 338.0,106.34 342.14,106.61 346.28,107.26 350.42,109.45 354.55,113.32 358.69,114.24 362.83,110.45 366.96,106.83 371.1,106.38 375.24,106.96" fill="none" stroke="#d09a48" stroke-width="0.4" stroke-opacity="0.75"/>
<polyline points="209.76,120.18 213.9,118.06 218.04,117.69 222.17,116.59 226.31,117.02 230.45,120.94 234.58,124.73 238.72,125.81 242.86,126.71 247.0,127.88 251.13,125.96 255.27,121.56 259.41,119.0 263.54,118.2 267.68,116.59 271.82,116.21 275.95,119.56 280.09,123.49 284.23,124.99 288.36,126.28 292.5,128.12 296.64,127.03 300.77,122.93 304.91,120.09 309.05,118.94 313.18,116.88 317.32,115.67 321.46,118.32 325.59,122.2 329.73,124.01 333.87,125.59 338.0,128.05 342.14,127.85 346.28,124.23 350.42,121.26 354.55,119.88 358.69,117.47 362.83,115.45 366.96,117.27 371.1,120.94 375.24,122.91" fill="none" stroke="#d09a48" stroke-width="0.4" stroke-opacity="0.41"/>
<polyline points="209.76,128.77 213.9,127.75 218.04,129.14 222.17,131.45 226.31,136.35 230.45,141.64 234.58,142.06 238.72,138.03 242.86,134.04 247.0,130.7 251.13,127.3 255.27,127.3 259.41,132.5 263.54,138.13 267.68,140.34 271.82,140.72 275.95,139.63 280.09,134.79 284.23,128.68 288.36,126.9 292.5,129.38 296.64,132.47 300.77,136.26 304.91,141.04 309.05,142.51 313.18,138.41 317.32,133.14 321.46,130.11 325.59,128.02 329.73,127.64 333.87,131.92 338.0,138.35 342.14,141.26 346.28,140.46 350.42,138.67 354.55,134.95 358.69,129.17 362.83,126.3 366.96,129.0 371.1,133.41 375.24,136.81" fill="none" stroke="#d09a48" stroke-width="0.4" stroke-opacity="0.75"/>
<polyline points="209.76,144.13 213.9,145.84 218.04,146.81 222.17,147.37 226.31,149.24 230.45,149.61 234.58,146.53 238.72,144.07 242.86,145.08 247.0,146.62 251.13,147.01 255.27,148.44 259.41,149.91 263.54,147.99 267.68,144.63 271.82,144.39 275.95,146.19 280.09,146.87 284.23,147.69 288.36,149.6 292.5,149.18 296.64,145.76 300.77,144.03 304.91,145.51 309.05,146.74 313.18,147.18 317.32,148.89 321.46,149.82 325.59,147.19 329.73,144.24 333.87,144.75 338.0,146.46 342.14,146.93 346.28,148.08 350.42,149.83 354.55,148.57 358.69,145.08 362.83,144.17 366.96,145.91 371.1,146.82 375.24,147.43" fill="none" stroke="#d09a48" stroke-width="0.4" stroke-opacity="0.41"/>
<polyline points="209.76,155.67 213.9,157.57 218.04,158.06 222.17,159.74 226.31,163.07 230.45,164.05 234.58,162.24 238.72,161.21 242.86,160.65 247.0,157.83 251.13,154.96 255.27,155.41 259.41,157.03 263.54,157.33 267.68,158.77 271.82,162.26 275.95,163.9 280.09,162.6 284.23,161.77 288.36,161.49 292.5,158.84 296.64,155.56 300.77,155.36 304.91,156.64 309.05,156.71 313.18,157.79 317.32,161.32 321.46,163.54 325.59,162.76 329.73,162.18 333.87,162.24 338.0,159.9 342.14,156.34 346.28,155.52 350.42,156.44 354.55,156.23 358.69,156.87 362.83,160.28 366.96,162.98 371.1,162.72 375.24,162.41" fill="none" stroke="#d09a48" stroke-width="0.4" stroke-opacity="0.75"/>
<polyline points="209.76,168.68 213.9,171.95 218.04,174.16 222.17,176.96 226.31,177.93 230.45,174.22 234.58,169.29 238.72,167.41 242.86,167.25 247.0,167.5 251.13,170.62 255.27,175.85 259.41,177.99 263.54,176.01 267.68,173.61 271.82,171.21 275.95,167.37 280.09,165.25 284.23,168.08 288.36,172.59 292.5,174.93 296.64,176.39 300.77,177.38 304.91,174.78 309.05,169.39 313.18,166.51 317.32,167.21 321.46,168.46 325.59,170.66 329.73,175.22 333.87,178.38 338.0,176.62 342.14,172.91 346.28,170.48 350.42,167.94 354.55,165.66 358.69,167.45 362.83,172.59 366.96,175.9 371.1,176.4 375.24,176.48" fill="none" stroke="#d09a48" stroke-width="0.4" stroke-opacity="0.41"/>
<polyline points="209.76,183.67 213.9,188.35 218.04,190.51 222.17,190.02 226.31,185.02 230.45,178.13 234.58,176.43 238.72,181.25 242.86,186.85 247.0,189.91 251.13,190.66 255.27,187.53 259.41,180.59 263.54,176.17 267.68,178.9 271.82,184.91 275.95,189.0 280.09,190.69 284.23,189.35 288.36,183.46 292.5,177.12 296.64,177.07 300.77,182.6 304.91,187.73 309.05,190.28 313.18,190.4 317.32,186.21 321.46,179.15 325.59,176.16 329.73,180.16 333.87,186.04 338.0,189.54 342.14,190.74 346.28,188.44 350.42,181.86 354.55,176.45 358.69,177.99 362.83,183.91 366.96,188.48 371.1,190.55 375.24,189.92" fill="none" stroke="#d09a48" stroke-width="0.4" stroke-opacity="0.75"/>
<polyline points="209.76,198.28 213.9,197.79 218.04,198.53 222.17,199.88 226.31,198.49 230.45,195.94 234.58,195.62 238.72,195.78 242.86,194.22 247.0,193.78 251.13,196.16 255.27,197.84 259.41,197.5 263.54,198.27 267.68,199.95 271.82,199.03 275.95,196.52 280.09,195.98 284.23,196.12 288.36,194.43 292.5,193.51 296.64,195.55 300.77,197.36 304.91,197.15 309.05,197.89 313.18,199.88 317.32,199.47 321.46,197.08 325.59,196.38 329.73,196.52 333.87,194.77 338.0,193.39 342.14,195.03 346.28,196.88 350.42,196.76 354.55,197.44 358.69,199.66 362.83,199.79 366.96,197.6 371.1,196.79 375.24,196.97" fill="none" stroke="#d09a48" stroke-width="0.4" stroke-opacity="0.41"/>
<polyline points="209.76,212.4 213.9,212.19 218.04,212.42 222.17,210.92 226.31,206.84 230.45,204.58 234.58,206.12 238.72,208.0 242.86,209.15 247.0,211.78 251.13,214.17 255.27,212.53 259.41,208.84 263.54,207.15 267.68,206.49 271.82,205.27 275.95,206.36 280.09,210.52 284.23,213.19 288.36,212.51 292.5,211.55 296.64,210.67 300.77,207.55 304.91,204.45 309.05,205.37 313.18,208.41 317.32,210.0 321.46,211.39 325.59,213.57 329.73,213.08 333.87,209.14 338.0,206.29 342.14,206.2 346.28,206.13 350.42,206.51 354.55,209.83 358.69,213.45 362.83,213.27 366.96,211.08 371.1,209.86 375.24,207.99" fill="none" stroke="#d09a48" stroke-width="0.4" stroke-opacity="0.75"/>
<polyline points="209.76,226.67 213.9,225.22 218.04,222.6 222.17,218.15 226.31,215.19 230.45,218.11 234.58,224.0 238.72,226.73 242.86,225.91 247.0,223.84 251.13,220.03 255.27,215.79 259.41,216.26 263.54,221.8 267.68,226.22 271.82,226.46 275.95,224.78 280.09,221.77 284.23,217.18 288.36,215.29 292.5,219.37 296.64,224.99 300.77,226.76 304.91,225.54 309.05,223.2 313.18,218.99 317.32,215.34 321.46,217.19 325.59,223.07 329.73,226.59 333.87,226.17 338.0,224.29 342.14,220.84 346.28,216.34 350.42,215.7 354.55,220.71 358.69,225.76 362.83,226.63 366.96,225.14 371.1,222.46 375.24,217.97" fill="none" stroke="#d09a48" stroke-width="0.4" stroke-opacity="0.41"/>
<polyline points="209.76,239.83 213.9,238.24 218.04,235.73 222.17,230.72 226.31,226.97 230.45,227.3 234.58,228.91 238.72,230.29 242.86,234.01 247.0,239.24 251.13,241.39 255.27,240.35 259.41,239.33 263.54,237.37 267.68,232.45 271.82,227.98 275.95,227.34 280.09,228.26 284.23,229.01 288.36,232.23 292.5,237.67 296.64,240.7 300.77,240.5 304.91,240.13 309.05,238.86 313.18,234.28 317.32,229.29 321.46,227.76 325.59,227.96 329.73,228.0 333.87,230.53 338.0,235.94 342.14,239.68 346.28,240.28 350.42,240.59 354.55,240.14 358.69,236.1 362.83,230.83 366.96,228.52 371.1,228.03 375.24,227.31" fill="none" stroke="#d09a48" stroke-width="0.4" stroke-opacity="0.75"/>
<polyline points="209.76,247.06 213.9,247.0 218.04,245.75 222.17,243.5 226.31,244.08 230.45,246.91 234.58,247.96 238.72,247.75 242.86,248.8 247.0,249.0 251.13,246.23 255.27,243.94 259.41,244.68 263.54,245.57 267.68,245.38 271.82,246.93 275.95,249.61 280.09,249.38 284.23,246.97 288.36,246.11 292.5,245.93 296.64,244.24 300.77,243.69 304.91,246.35 309.05,248.63 313.18,248.26 317.32,248.06 321.46,248.63 325.59,246.94 329.73,243.98 333.87,243.86 338.0,245.74 342.14,246.25 346.28,246.68 350.42,248.93 354.55,249.86 358.69,247.48 362.83,245.38 366.96,245.47 371.1,244.99 375.24,243.96" fill="none" stroke="#d09a48" stroke-width="0.4" stroke-opacity="0.41"/>
<polyline points="209.76,258.96 213.9,257.28 218.04,255.25 222.17,255.58 226.31,259.91 230.45,263.5 234.58,262.5 238.72,259.75 242.86,257.97 247.0,256.0 251.13,254.92 255.27,257.93 259.41,262.58 263.54,263.37 267.68,260.75 271.82,258.6 275.95,256.84 280.09,254.98 284.23,256.25 288.36,260.98 292.5,263.67 296.64,261.89 300.77,259.29 304.91,257.6 309.05,255.56 313.18,255.19 317.32,259.01 321.46,263.19 325.59,262.94 329.73,260.17 333.87,258.25 338.0,256.38 342.14,254.87 346.28,257.12 350.42,261.93 354.55,263.59 358.69,261.25 362.83,258.89 366.96,257.2 371.1,255.19 375.24,255.69" fill="none" stroke="#d09a48" stroke-width="0.4" stroke-opacity="0.75"/>
<polyline points="209.76,269.28 213.9,267.68 218.04,265.37 222.17,265.97 226.31,269.77 230.45,272.61 234.58,273.95 238.72,276.36 242.86,278.08 247.0,275.89 251.13,272.2 255.27,270.35 259.41,268.53 263.54,265.66 267.68,265.33 271.82,268.57 275.95,271.42 280.09,272.89 284.23,275.59 288.36,278.09 292.5,276.77 296.64,273.4 300.77,271.49 304.91,269.59 309.05,266.24 313.18,264.99 317.32,267.54 321.46,270.26 325.59,271.74 329.73,274.59 333.87,277.78 338.0,277.38 342.14,274.46 346.28,272.63 350.42,270.77 354.55,267.11 358.69,264.98 362.83,266.75 366.96,269.2 371.1,270.56 375.24,273.4" fill="none" stroke="#d09a48" stroke-width="0.4" stroke-opacity="0.41"/>
<polyline points="209.76,278.69 213.9,277.27 218.04,278.26 222.17,283.71 226.31,289.6 230.45,291.01 234.58,289.29 238.72,286.89 242.86,282.49 247.0,277.16 251.13,276.1 255.27,280.13 259.41,284.56 263.54,287.73 267.68,290.81 271.82,291.25 275.95,286.47 280.09,280.42 284.23,277.9 288.36,277.87 292.5,278.97 296.64,283.26 300.77,289.43 304.91,291.83 309.05,289.32 313.18,285.84 317.32,282.32 321.46,277.84 325.59,275.88 329.73,279.58 333.87,285.26 338.0,288.53 342.14,290.23 346.28,290.67 350.42,286.98 354.55,280.47 358.69,276.98 362.83,277.85 366.96,279.98 371.1,283.36 375.24,288.83" fill="none" stroke="#d09a48" stroke-width="0.4" stroke-opacity="0.75"/>
<polyline points="209.76,295.11 213.9,294.61 218.04,295.83 222.17,298.96 226.31,299.54 230.45,296.75 234.58,294.94 238.72,295.13 242.86,294.79 247.0,294.99 251.13,297.77 255.27,299.85 259.41,297.99 263.54,295.32 267.68,295.0 271.82,295.03 275.95,294.62 280.09,296.47 284.23,299.45 288.36,299.1 292.5,296.14 296.64,294.9 300.77,295.14 304.91,294.66 309.05,295.39 313.18,298.46 317.32,299.76 321.46,297.3 325.59,295.06 329.73,295.08 333.87,294.9 338.0,294.76 342.14,297.17 346.28,299.75 350.42,298.53 354.55,295.64 358.69,294.94 362.83,295.1 366.96,294.6 371.1,295.94 375.24,299.07" fill="none" stroke="#d09a48" stroke-width="0.4" stroke-opacity="0.41"/>
<polyline points="209.76,306.19 213.9,306.25 218.04,308.82 222.17,312.26 226.31,312.79 230.45,311.82 234.58,312.02 238.72,311.14 242.86,307.62 247.0,305.16 251.13,305.62 255.27,305.91 259.41,305.57 263.54,307.75 267.68,311.4 271.82,312.49 275.95,311.88 280.09,312.38 284.23,312.0 288.36,308.69 292.5,305.82 296.64,305.8 300.77,305.81 304.91,305.04 309.05,306.74 313.18,310.43 317.32,312.01 321.46,311.75 325.59,312.56 329.73,312.73 333.87,309.76 338.0,306.62 342.14,306.16 346.28,305.91 350.42,304.71 354.55,305.82 358.69,309.41 362.83,311.38 366.96,311.43 371.1,312.53 375.24,313.29" fill="none" stroke="#d09a48" stroke-width="0.4" stroke-opacity="0.75"/>
<rect x="11.81" y="35.43" width="171.38" height="279.39" rx="4.43" fill="#5a9a94" fill-opacity="0.06" stroke="#5a9a94" stroke-width="0.3" stroke-opacity="0.4"/>
<rect x="206.81" y="35.43" width="171.38" height="279.39" rx="4.43" fill="#c88018" fill-opacity="0.08" stroke="#c88018" stroke-width="0.3" stroke-opacity="0.5"/>
<circle cx="97.5" cy="29.53" r="4.13" fill="#5a9a94"/>
<circle cx="292.5" cy="29.53" r="4.13" fill="#c88018"/>
<line x1="195.0" y1="47.24" x2="195.0" y2="308.92" stroke="#b0b8c0" stroke-width="1.77"/>
<circle cx="42.34" cy="74.96" r="13.29" fill="#c8ddd9" stroke="#5a9a94" stroke-width="2.36"/>
<line x1="42.34" y1="74.96" x2="42.34" y2="64.33" stroke="#5a5040" stroke-width="1.48"/>
<circle cx="42.34" cy="74.96" r="16.24" fill="none" stroke="#d4001a" stroke-width="1.48" stroke-opacity="0.8"/>
<circle id="param_rest_0" cx="42.34" cy="74.96" r="0.5" fill="none" stroke="none"/>
<circle cx="183.78" cy="74.96" r="2.07" fill="#4c6ab0" fill-opacity="1.0"/>
<circle cx="42.34" cy="118.57" r="13.29" fill="#c8ddd9" stroke="#5a9a94" stroke-width="1.48"/>
<line x1="42.34" y1="118.57" x2="42.34" y2="107.94" stroke="#5a5040" stroke-width="1.48"/>
<circle id="param_rest_1" cx="42.34" cy="118.57" r="0.5" fill="none" stroke="none"/>
<circle cx="183.78" cy="118.57" r="2.07" fill="#8a94a0" fill-opacity="0.5"/>
<circle cx="42.34" cy="162.18" r="13.29" fill="#c8ddd9" stroke="#5a9a94" stroke-width="1.48"/>
<line x1="42.34" y1="162.18" x2="42.34" y2="151.55" stroke="#5a5040" stroke-width="1.48"/>
<circle id="param_rest_2" cx="42.34" cy="162.18" r="0.5" fill="none" stroke="none"/>
<circle cx="183.78" cy="162.18" r="2.07" fill="#8a94a0" fill-opacity="0.5"/>
<circle cx="42.34" cy="205.79" r="13.29" fill="#c8ddd9" stroke="#5a9a94" stroke-width="1.48"/>
<line x1="42.34" y1="205.79" x2="42.34" y2="195.16" stroke="#5a5040" stroke-width="1.48"/>
<circle id="param_rest_3" cx="42.34" cy="205.79" r="0.5" fill="none" stroke="none"/>
<circle cx="183.78" cy="205.79" r="2.07" fill="#8a94a0" fill-opacity="0.5"/>
<circle cx="42.34" cy="249.4" r="13.29" fill="#c8ddd9" stroke="#5a9a94" stroke-width="1.48"/>
<line x1="42.34" y1="249.4" x2="42.34" y2="238.77" stroke="#5a5040" stroke-width="1.48"/>
<circle id="param_rest_4" cx="42.34" cy="249.4" r="0.5" fill="none" stroke="none"/>
<circle cx="183.78" cy="249.4" r="2.07" fill="#8a94a0" fill-opacity="0.5"/>
<circle cx="42.34" cy="293.02" r="13.29" fill="#c8ddd9" stroke="#5a9a94" stroke-width="1.48"/>
<line x1="42.34" y1="293.02" x2="42.34" y2="282.39" stroke="#5a5040" stroke-width="1.48"/>
<circle id="param_rest_5" cx="42.34" cy="293.02" r="0.5" fill="none" stroke="none"/>
<circle cx="183.78" cy="293.02" r="2.07" fill="#8a94a0" fill-opacity="0.5"/>
<circle cx="97.5" cy="74.96" r="13.29" fill="#c8ddd9" stroke="#5a9a94" stroke-width="1.48"/>
<line x1="97.5" y1="74.96" x2="97.5" y2="64.33" stroke="#5a5040" stroke-width="1.48"/>
<circle id="param_rest_6" cx="97.5" cy="74.96" r="0.5" fill="none" stroke="none"/>
<circle cx="97.5" cy="118.57" r="13.29" fill="#c8ddd9" stroke="#5a9a94" stroke-width="1.48"/>
<line x1="97.5" y1="118.57" x2="97.5" y2="107.94" stroke="#5a5040" stroke-width="1.48"/>
<circle id="param_rest_7" cx="97.5" cy="118.57" r="0.5" fill="none" stroke="none"/>
<circle cx="97.5" cy="162.18" r="13.29" fill="#c8ddd9" stroke="#5a9a94" stroke-width="1.48"/>
<line x1="97.5" y1="162.18" x2="97.5" y2="151.55" stroke="#5a5040" stroke-width="1.48"/>
<circle id="param_rest_8" cx="97.5" cy="162.18" r="0.5" fill="none" stroke="none"/>
<circle cx="97.5" cy="205.79" r="13.29" fill="#c8ddd9" stroke="#5a9a94" stroke-width="1.48"/>
<line x1="97.5" y1="205.79" x2="97.5" y2="195.16" stroke="#5a5040" stroke-width="1.48"/>
<circle id="param_rest_9" cx="97.5" cy="205.79" r="0.5" fill="none" stroke="none"/>
<circle cx="97.5" cy="249.4" r="13.29" fill="#c8ddd9" stroke="#5a9a94" stroke-width="1.48"/>
<line x1="97.5" y1="249.4" x2="97.5" y2="238.77" stroke="#5a5040" stroke-width="1.48"/>
<circle id="param_rest_10" cx="97.5" cy="249.4" r="0.5" fill="none" stroke="none"/>
<circle cx="97.5" cy="293.02" r="13.29" fill="#c8ddd9" stroke="#5a9a94" stroke-width="1.48"/>
<line x1="97.5" y1="293.02" x2="97.5" y2="282.39" stroke="#5a5040" stroke-width="1.48"/>
<circle id="param_rest_11" cx="97.5" cy="293.02" r="0.5" fill="none" stroke="none"/>
<circle cx="152.66" cy="118.57" r="13.29" fill="#c8ddd9" stroke="#5a9a94" stroke-width="1.48"/>
<line x1="152.66" y1="118.57" x2="152.66" y2="107.94" stroke="#5a5040" stroke-width="1.48"/>
<circle id="param_rest_12" cx="152.66" cy="118.57" r="0.5" fill="none" stroke="none"/>
<circle cx="152.66" cy="162.18" r="13.29" fill="#c8ddd9" stroke="#5a9a94" stroke-width="1.48"/>
<line x1="152.66" y1="162.18" x2="152.66" y2="151.55" stroke="#5a5040" stroke-width="1.48"/>
<circle id="param_rest_13" cx="152.66" cy="162.18" r="0.5" fill="none" stroke="none"/>
<circle cx="152.66" cy="205.79" r="13.29" fill="#c8ddd9" stroke="#5a9a94" stroke-width="1.48"/>
<line x1="152.66" y1="205.79" x2="152.66" y2="195.16" stroke="#5a5040" stroke-width="1.48"/>
<circle id="param_rest_14" cx="152.66" cy="205.79" r="0.5" fill="none" stroke="none"/>
<circle cx="152.66" cy="249.4" r="13.29" fill="#c8ddd9" stroke="#5a9a94" stroke-width="1.48"/>
<line x1="152.66" y1="249.4" x2="152.66" y2="238.77" stroke="#5a5040" stroke-width="1.48"/>
<circle id="param_rest_15" cx="152.66" cy="249.4" r="0.5" fill="none" stroke="none"/>
<circle cx="237.34" cy="74.96" r="13.29" fill="#e4d4b8" stroke="#c88018" stroke-width="2.36"/>
<line x1="237.34" y1="74.96" x2="237.34" y2="64.33" stroke="#5a5040" stroke-width="1.48"/>
<circle cx="237.34" cy="74.96" r="16.24" fill="none" stroke="#d4001a" stroke-width="1.48" stroke-opacity="0.8"/>
<circle id="param_accent_0" cx="237.34" cy="74.96" r="0.5" fill="none" stroke="none"/>
<circle cx="206.22" cy="74.96" r="2.07" fill="#4c6ab0" fill-opacity="1.0"/>
<circle cx="237.34" cy="118.57" r="13.29" fill="#e4d4b8" stroke="#c88018" stroke-width="1.48"/>
<line x1="237.34" y1="118.57" x2="237.34" y2="107.94" stroke="#5a5040" stroke-width="1.48"/>
<circle id="param_accent_1" cx="237.34" cy="118.57" r="0.5" fill="none" stroke="none"/>
<circle cx="206.22" cy="118.57" r="2.07" fill="#8a94a0" fill-opacity="0.5"/>
<circle cx="237.34" cy="162.18" r="13.29" fill="#e4d4b8" stroke="#c88018" stroke-width="1.48"/>
<line x1="237.34" y1="162.18" x2="237.34" y2="151.55" stroke="#5a5040" stroke-width="1.48"/>
<circle id="param_accent_2" cx="237.34" cy="162.18" r="0.5" fill="none" stroke="none"/>
<circle cx="206.22" cy="162.18" r="2.07" fill="#8a94a0" fill-opacity="0.5"/>
<circle cx="237.34" cy="205.79" r="13.29" fill="#e4d4b8" stroke="#c88018" stroke-width="1.48"/>
<line x1="237.34" y1="205.79" x2="237.34" y2="195.16" stroke="#5a5040" stroke-width="1.48"/>
<circle id="param_accent_3" cx="237.34" cy="205.79" r="0.5" fill="none" stroke="none"/>
<circle cx="206.22" cy="205.79" r="2.07" fill="#8a94a0" fill-opacity="0.5"/>
<circle cx="237.34" cy="249.4" r="13.29" fill="#e4d4b8" stroke="#c88018" stroke-width="1.48"/>
<line x1="237.34" y1="249.4" x2="237.34" y2="238.77" stroke="#5a5040" stroke-width="1.48"/>
<circle id="param_accent_4" cx="237.34" cy="249.4" r="0.5" fill="none" stroke="none"/>
<circle cx="206.22" cy="249.4" r="2.07" fill="#8a94a0" fill-opacity="0.5"/>
<circle cx="237.34" cy="293.02" r="13.29" fill="#e4d4b8" stroke="#c88018" stroke-width="1.48"/>
<line x1="237.34" y1="293.02" x2="237.34" y2="282.39" stroke="#5a5040" stroke-width="1.48"/>
<circle id="param_accent_5" cx="237.34" cy="293.02" r="0.5" fill="none" stroke="none"/>
<circle cx="206.22" cy="293.02" r="2.07" fill="#8a94a0" fill-opacity="0.5"/>
<circle cx="292.5" cy="74.96" r="13.29" fill="#e4d4b8" stroke="#c88018" stroke-width="1.48"/>
<line x1="292.5" y1="74.96" x2="292.5" y2="64.33" stroke="#5a5040" stroke-width="1.48"/>
<circle id="param_accent_6" cx="292.5" cy="74.96" r="0.5" fill="none" stroke="none"/>
<circle cx="292.5" cy="118.57" r="13.29" fill="#e4d4b8" stroke="#c88018" stroke-width="1.48"/>
<line x1="292.5" y1="118.57" x2="292.5" y2="107.94" stroke="#5a5040" stroke-width="1.48"/>
<circle id="param_accent_7" cx="292.5" cy="118.57" r="0.5" fill="none" stroke="none"/>
<circle cx="292.5" cy="162.18" r="13.29" fill="#e4d4b8" stroke="#c88018" stroke-width="1.48"/>
<line x1="292.5" y1="162.18" x2="292.5" y2="151.55" stroke="#5a5040" stroke-width="1.48"/>
<circle id="param_accent_8" cx="292.5" cy="162.18" r="0.5" fill="none" stroke="none"/>
<circle cx="292.5" cy="205.79" r="13.29" fill="#e4d4b8" stroke="#c88018" stroke-width="1.48"/>
<line x1="292.5" y1="205.79" x2="292.5" y2="195.16" stroke="#5a5040" stroke-width="1.48"/>
<circle id="param_accent_9" cx="292.5" cy="205.79" r="0.5" fill="none" stroke="none"/>
<circle cx="292.5" cy="249.4" r="13.29" fill="#e4d4b8" stroke="#c88018" stroke-width="1.48"/>
<line x1="292.5" y1="249.4" x2="292.5" y2="238.77" stroke="#5a5040" stroke-width="1.48"/>
<circle id="param_accent_10" cx="292.5" cy="249.4" r="0.5" fill="none" stroke="none"/>
<circle cx="292.5" cy="293.02" r="13.29" fill="#e4d4b8" stroke="#c88018" stroke-width="1.48"/>
<line x1="292.5" y1="293.02" x2="292.5" y2="282.39" stroke="#5a5040" stroke-width="1.48"/>
<circle id="param_accent_11" cx="292.5" cy="293.02" r="0.5" fill="none" stroke="none"/>
<circle cx="347.66" cy="118.57" r="13.29" fill="#e4d4b8" stroke="#c88018" stroke-width="1.48"/>
<line x1="347.66" y1="118.57" x2="347.66" y2="107.94" stroke="#5a5040" stroke-width="1.48"/>
<circle id="param_accent_12" cx="347.66" cy="118.57" r="0.5" fill="none" stroke="none"/>
<circle cx="347.66" cy="162.18" r="13.29" fill="#e4d4b8" stroke="#c88018" stroke-width="1.48"/>
<line x1="347.66" y1="162.18" x2="347.66" y2="151.55" stroke="#5a5040" stroke-width="1.48"/>
<circle id="param_accent_13" cx="347.66" cy="162.18" r="0.5" fill="none" stroke="none"/>
<circle cx="347.66" cy="205.79" r="13.29" fill="#e4d4b8" stroke="#c88018" stroke-width="1.48"/>
<line x1="347.66" y1="205.79" x2="347.66" y2="195.16" stroke="#5a5040" stroke-width="1.48"/>
<circle id="param_accent_14" cx="347.66" cy="205.79" r="0.5" fill="none" stroke="none"/>
<circle cx="347.66" cy="249.4" r="13.29" fill="#e4d4b8" stroke="#c88018" stroke-width="1.48"/>
<line x1="347.66" y1="249.4" x2="347.66" y2="238.77" stroke="#5a5040" stroke-width="1.48"/>
<circle id="param_accent_15" cx="347.66" cy="249.4" r="0.5" fill="none" stroke="none"/>
<circle cx="140.4" cy="328.11" r="10.63" fill="#e2ddd2" stroke="#b0a898" stroke-width="0.6"/>
<circle cx="140.4" cy="328.11" r="4.72" fill="none" stroke="#b07d00" stroke-width="0.4"/>
<circle id="output_polygate" cx="140.4" cy="328.11" r="0.5" fill="none" stroke="none"/>
<circle cx="191.1" cy="328.11" r="10.63" fill="#e2ddd2" stroke="#b0a898" stroke-width="0.6"/>
<circle cx="191.1" cy="328.11" r="4.72" fill="none" stroke="#b07d00" stroke-width="0.4"/>
<circle id="output_polystepgate" cx="191.1" cy="328.11" r="0.5" fill="none" stroke="none"/>
<circle cx="241.8" cy="328.11" r="10.63" fill="#e2ddd2" stroke="#b0a898" stroke-width="0.6"/>
<circle cx="241.8" cy="328.11" r="4.72" fill="none" stroke="#b07d00" stroke-width="0.4"/>
<circle id="output_polyslegato" cx="241.8" cy="328.11" r="0.5" fill="none" stroke="none"/>
<circle cx="292.5" cy="328.11" r="10.63" fill="#e2ddd2" stroke="#b0a898" stroke-width="0.6"/>
<circle cx="292.5" cy="328.11" r="4.72" fill="none" stroke="#b07d00" stroke-width="0.4"/>
<circle id="output_polycv" cx="292.5" cy="328.11" r="0.5" fill="none" stroke="none"/>
<circle cx="343.2" cy="328.11" r="10.63" fill="#e2ddd2" stroke="#b0a898" stroke-width="0.6"/>
<circle cx="343.2" cy="328.11" r="4.72" fill="none" stroke="#b07d00" stroke-width="0.4"/>
<circle id="output_polyaccent" cx="343.2" cy="328.11" r="0.5" fill="none" stroke="none"/>
<polyline points="14.76,344.35 23.78,346.61 32.79,346.19 41.8,345.75 50.81,346.77 59.82,346.08 68.83,343.25 77.85,342.17 86.86,342.99 95.87,342.46 104.88,341.69 113.89,343.65 122.91,346.12 131.92,346.04 140.93,345.68 149.94,346.9 158.95,346.64 167.96,343.92 176.98,342.52 185.99,343.13 195.0,342.54 204.01,341.4 213.02,342.98 222.04,345.57 231.05,345.79 240.06,345.51 249.07,346.9 258.08,347.11 267.09,344.59 276.11,342.93 285.12,343.36 294.13,342.72 303.14,341.24 312.15,342.38 321.17,344.98 330.18,345.47 339.19,345.24 348.2,346.78 357.21,347.46 366.22,345.24 375.24,343.4" fill="none" stroke="#b0b8c0" stroke-width="0.4" stroke-opacity="0.41"/>
<polyline points="14.76,349.82 23.78,351.53 32.79,349.91 41.8,348.47 50.81,347.21 59.82,344.13 68.83,342.04 77.85,344.16 86.86,347.54 95.87,348.89 104.88,349.92 113.89,351.29 122.91,349.67 131.92,345.41 140.93,343.27 149.94,343.99 158.95,344.52 167.96,345.59 176.98,349.15 185.99,351.91 195.0,350.55 204.01,347.83 213.02,346.52 222.04,344.72 231.05,342.44 240.06,343.48 249.07,347.49 258.08,349.81 267.09,349.94 276.11,350.42 285.12,349.78 294.13,346.03 303.14,342.77 312.15,343.36 321.17,345.2 330.18,346.21 339.19,348.54 348.2,351.64 357.21,351.28 366.22,347.81 375.24,345.57" fill="none" stroke="#b0b8c0" stroke-width="0.4" stroke-opacity="0.75"/>
<polyline points="14.76,355.79 23.78,354.99 32.79,350.62 41.8,347.29 50.81,345.24 59.82,344.76 68.83,348.47 77.85,354.37 86.86,356.02 95.87,352.39 104.88,348.36 113.89,345.96 122.91,344.58 131.92,346.46 140.93,352.22 149.94,356.15 158.95,354.15 167.96,349.73 176.98,346.78 185.99,344.92 195.0,345.15 204.01,349.77 213.02,355.26 222.04,355.54 231.05,351.39 240.06,347.74 249.07,345.55 258.08,344.6 267.09,347.49 276.11,353.47 285.12,356.2 294.13,353.2 303.14,348.94 312.15,346.31 321.17,344.68 330.18,345.78 339.19,351.13 348.2,355.88 357.21,354.84 366.22,350.45 375.24,347.19" fill="none" stroke="#b0b8c0" stroke-width="0.4" stroke-opacity="0.41"/>
<polyline points="14.76,360.55 23.78,357.65 32.79,354.54 41.8,352.18 50.81,348.24 59.82,344.62 68.83,345.21 77.85,348.4 86.86,350.76 95.87,353.71 104.88,358.29 113.89,360.56 122.91,358.6 131.92,355.9 140.93,353.76 149.94,349.77 158.95,345.38 167.96,344.86 176.98,347.32 185.99,349.33 195.0,352.04 204.01,356.9 213.02,360.16 222.04,359.2 231.05,357.05 240.06,355.3 249.07,351.46 258.08,346.5 267.09,344.91 276.11,346.56 285.12,348.08 294.13,350.37 303.14,355.29 312.15,359.38 321.17,359.43 330.18,357.93 339.19,356.7 348.2,353.23 357.21,347.91 366.22,345.35 375.24,346.15" fill="none" stroke="#b0b8c0" stroke-width="0.4" stroke-opacity="0.75"/>
<polyline points="14.76,357.37 23.78,354.72 32.79,354.11 41.8,354.04 50.81,352.67 59.82,352.91 68.83,355.94 77.85,357.74 86.86,356.83 95.87,356.41 104.88,356.58 113.89,354.53 122.91,352.01 131.92,352.75 140.93,354.94 149.94,355.4 158.95,355.92 167.96,357.89 176.98,357.96 185.99,355.08 195.0,353.29 204.01,353.77 213.02,353.5 222.04,353.01 231.05,355.2 240.06,357.97 249.07,357.6 258.08,355.98 267.09,355.83 276.11,355.01 285.12,352.52 294.13,352.09 303.14,354.65 312.15,356.26 321.17,356.13 330.18,357.07 339.19,357.96 348.2,355.81 357.21,352.96 366.22,353.0 375.24,353.98" fill="none" stroke="#b0b8c0" stroke-width="0.4" stroke-opacity="0.41"/>
<polyline points="14.76,358.97 23.78,355.25 32.79,354.69 41.8,355.27 50.81,356.51 59.82,360.02 68.83,362.84 77.85,360.77 86.86,356.36 95.87,354.61 104.88,355.05 113.89,355.8 122.91,358.43 131.92,362.18 140.93,362.17 149.94,357.97 158.95,354.88 167.96,354.81 176.98,355.41 185.99,357.08 195.0,360.88 204.01,362.84 213.02,359.8 222.04,355.67 231.05,354.63 240.06,355.17 249.07,356.15 258.08,359.29 267.09,362.64 276.11,361.47 285.12,357.03 294.13,354.67 303.14,354.94 312.15,355.6 321.17,357.78 330.18,361.66 339.19,362.57 348.2,358.78 357.21,355.16 366.22,354.71 375.24,355.29" fill="none" stroke="#b0b8c0" stroke-width="0.4" stroke-opacity="0.75"/>
<polyline points="14.76,358.76 23.78,356.64 32.79,356.27 41.8,355.17 50.81,355.6 59.82,359.52 68.83,363.31 77.85,364.39 86.86,365.29 95.87,366.46 104.88,364.54 113.89,360.14 122.91,357.58 131.92,356.78 140.93,355.17 149.94,354.79 158.95,358.14 167.96,362.07 176.98,363.57 185.99,364.86 195.0,366.7 204.01,365.61 213.02,361.52 222.04,358.67 231.05,357.52 240.06,355.47 249.07,354.26 258.08,356.9 267.09,360.79 276.11,362.59 285.12,364.17 294.13,366.63 303.14,366.44 312.15,362.81 321.17,359.84 330.18,358.46 339.19,356.05 348.2,354.03 357.21,355.85 366.22,359.52 375.24,361.49" fill="none" stroke="#b0b8c0" stroke-width="0.4" stroke-opacity="0.41"/>
<circle cx="32.48" cy="328.11" r="9.45" fill="#e8e2d6" stroke="#b0a898" stroke-width="0.6"/>
<circle id="param_voicecount" cx="32.48" cy="328.11" r="0.5" fill="none" stroke="none"/>
<text x="32.48" y="345.24" fill="#1a1a1a" font-family="sans-serif" font-size="5.91" text-anchor="middle" opacity="0.75">VOICES</text>
<circle cx="366.38" cy="328.11" r="4.72" fill="#e2ddd2" stroke="#b0a898" stroke-width="0.3"/>
<circle id="light_connect" cx="366.38" cy="328.11" r="0.5" fill="none" stroke="none"/>
<g transform="translate(144.80,355.81) scale(0.15280) translate(-26.00,-65.00)"><g transform="translate(40.00,148.00) scale(0.11000,-0.11000)"><path d="M370 700H528Q535 700 539.0 696.0Q543 692 543 685V15Q543 8 539.0 4.0Q535 0 528 0H370Q363 0 359.0 4.0Q355 8 355 15V45Q355 48 353.0 49.0Q351 50 349 47Q312 -8 233 -8Q166 -8 112.5 34.5Q59 77 37 150Q22 200 22 262Q22 334 44 390Q68 451 119.0 489.5Q170 528 241 528Q314 528 349 482Q351 480 353.0 480.5Q355 481 355 484V685Q355 692 359.0 696.0Q363 700 370 700ZM355 259Q355 307 339 336Q321 367 287 367Q251 367 234 334Q219 306 219 259Q219 214 234 186Q252 153 287 153Q322 153 340 187Q355 216 355 259Z" fill="#111111"/></g>
<g transform="translate(201.37,148.00) scale(0.11000,-0.11000)"><path d="M358 370H275Q270 370 270 365V208Q270 158 306 158H343Q350 158 354.0 154.0Q358 150 358 143V15Q358 1 343 -1Q304 -4 268 -4Q177 -4 134.0 24.0Q91 52 90 130V365Q90 370 85 370H31Q24 370 20.0 374.0Q16 378 16 385V505Q16 512 20.0 516.0Q24 520 31 520H85Q90 520 90 525V645Q90 652 94.0 656.0Q98 660 105 660H255Q262 660 266.0 656.0Q270 652 270 645V525Q270 520 275 520H358Q365 520 369.0 516.0Q373 512 373 505V385Q373 378 369.0 374.0Q365 370 358 370Z" fill="#111111"/></g>
<g transform="translate(288.27,148.00) scale(0.11000,-0.11000)"><path d="M815 341V15Q815 8 811.0 4.0Q807 0 800 0H642Q635 0 631.0 4.0Q627 8 627 15V300Q627 330 612.5 348.5Q598 367 575 367Q551 367 536.0 348.5Q521 330 521 300V15Q521 8 517.0 4.0Q513 0 506 0H348Q341 0 337.0 4.0Q333 8 333 15V300Q333 330 317.5 348.5Q302 367 277 367Q255 367 240.5 353.5Q226 340 222 317Q221 315 221 311V15Q221 8 217.0 4.0Q213 0 206 0H48Q41 0 37.0 4.0Q33 8 33 15V505Q33 512 37.0 516.0Q41 520 48 520H206Q213 520 217.0 516.0Q221 512 221 505V455Q221 451 223.0 451.0Q225 451 227 454Q265 528 355 528Q406 528 444.5 504.5Q483 481 503 437Q506 432 509 438Q529 483 564.5 505.5Q600 528 648 528Q727 528 771.0 479.0Q815 430 815 341Z" fill="#111111"/></g><g transform="translate(377.92,148.00) scale(0.11000,-0.11000)"><path d="M32 181Q22 217 22 261Q22 310 34 350Q58 433 122.5 480.5Q187 528 280 528Q373 528 436.5 480.5Q500 433 524 352Q536 310 536 263Q536 225 528 187Q507 97 441.5 44.5Q376 -8 279 -8Q184 -8 118.5 43.0Q53 94 32 181ZM343 217Q347 236 347 262Q347 285 342 308Q327 367 279 367Q229 367 216 308Q211 291 211 262Q211 236 215 217Q230 153 279 153Q305 153 321.0 170.5Q337 188 343 217Z" fill="#111111"/></g><g transform="translate(436.00,148.00) scale(0.11000,-0.11000)"><path d="M370 700H528Q535 700 539.0 696.0Q543 692 543 685V15Q543 8 539.0 4.0Q535 0 528 0H370Q363 0 359.0 4.0Q355 8 355 15V45Q355 48 353.0 49.0Q351 50 349 47Q312 -8 233 -8Q166 -8 112.5 34.5Q59 77 37 150Q22 200 22 262Q22 334 44 390Q68 451 119.0 489.5Q170 528 241 528Q314 528 349 482Q351 480 353.0 480.5Q355 481 355 484V685Q355 692 359.0 696.0Q363 700 370 700ZM355 259Q355 307 339 336Q321 367 287 367Q251 367 234 334Q219 306 219 259Q219 214 234 186Q252 153 287 153Q322 153 340 187Q355 216 355 259Z" fill="#111111"/></g><g transform="translate(496.39,148.00) scale(0.11000,-0.11000)"><path d="M346 520H504Q511 520 515.0 516.0Q519 512 519 505V15Q519 8 515.0 4.0Q511 0 504 0H346Q339 0 335.0 4.0Q331 8 331 15V48Q331 51 329.0 52.0Q327 53 325 50Q284 -8 197 -8Q121 -8 76.0 41.5Q31 91 31 179V505Q31 512 35.0 516.0Q39 520 46 520H204Q211 520 215.0 516.0Q219 512 219 505V220Q219 190 234.5 171.5Q250 153 275 153Q297 153 311.5 166.5Q326 180 330 203Q331 205 331 209V505Q331 512 335.0 516.0Q339 520 346 520Z" fill="#111111"/></g><g transform="translate(553.81,148.00) scale(0.11000,-0.11000)"><path d="M33 15V685Q33 692 37.0 696.0Q41 700 48 700H206Q213 700 217.0 696.0Q221 692 221 685V15Q221 8 217.0 4.0Q213 0 206 0H48Q41 0 37.0 4.0Q33 8 33 15Z" fill="#111111"/></g><g transform="translate(578.45,148.00) scale(0.11000,-0.11000)"><path d="M507 355V15Q507 8 503.0 4.0Q499 0 492 0H334Q327 0 323.0 4.0Q319 8 319 15V50Q319 54 317.5 54.5Q316 55 314 52Q297 21 267.0 6.5Q237 -8 188 -8Q106 -8 59.0 29.5Q12 67 12 139Q12 215 65.5 256.0Q119 297 221 297H314Q319 297 319 302V320Q319 341 303.5 354.0Q288 367 262 367Q244 367 230.0 361.0Q216 355 210 345Q206 338 202.5 335.5Q199 333 193 334L32 354Q18 356 18 366Q22 411 54.0 448.0Q86 485 139.5 506.5Q193 528 259 528Q327 528 384.0 505.0Q441 482 474.0 442.0Q507 402 507 355ZM319 185V198Q319 203 314 203H264Q201 203 201 162Q201 144 212.5 133.0Q224 122 246 122Q278 122 298.5 139.0Q319 156 319 185Z" fill="#111111"/></g><g transform="translate(634.55,148.00) scale(0.11000,-0.11000)"><path d="M379 514Q388 509 386 495L362 341Q361 333 356.5 331.0Q352 329 344 331Q326 335 312 335Q297 335 284 332Q258 327 239.5 310.5Q221 294 221 266V15Q221 8 217.0 4.0Q213 0 206 0H48Q41 0 37.0 4.0Q33 8 33 15V505Q33 512 37.0 516.0Q41 520 48 520H206Q213 520 217.0 516.0Q221 512 221 505V481Q221 478 223.0 477.0Q225 476 226 478Q264 527 325 527Q359 527 379 514Z" fill="#111111"/></g>
<path d="M 38.0,144.8 L 111.3,144.8 L 151.4,118.8 L 191.6,88.8 L 578.9,88.8" fill="none" stroke="#f0ede8" stroke-width="9.0" stroke-linecap="round" stroke-linejoin="round"/>
<path d="M 38.0,144.8 L 111.3,144.8 L 151.4,118.8 L 191.6,88.8 L 578.9,88.8" fill="none" stroke="#d4001a" stroke-width="2.60" stroke-linecap="round" stroke-linejoin="round"/>
<path d="M 38.0,144.8 L 111.3,144.8 L 151.4,118.8 L 191.6,88.8 L 578.9,88.8" fill="none" stroke="#ff5533" stroke-width="0.88" stroke-linecap="round" stroke-linejoin="round" opacity="0.7"/>
<circle cx="38.0" cy="144.8" r="4.2" fill="#0d0d0d" stroke="#d4001a" stroke-width="1.76"/>
<circle cx="578.9" cy="88.8" r="4.2" fill="#0d0d0d" stroke="#d4001a" stroke-width="1.76"/>
<circle cx="111.3" cy="144.8" r="2.4" fill="#d4001a"/>
<circle cx="191.6" cy="88.8" r="2.4" fill="#d4001a"/>
<g transform="translate(151.430,118.850)"><circle r="34.100" fill="#1c1c1c" stroke="#000000" stroke-width="1.023"/><circle r="28.644" fill="#0a0202"/><g stroke="#a83020" stroke-width="0.682" opacity="0.9"><line x1="-28.644" y1="0" x2="28.644" y2="0"/><line x1="0" y1="-28.644" x2="0" y2="28.644"/></g><g stroke="#7a2018" stroke-width="0.443" opacity="0.6"><line x1="-28.644" y1="-14.322" x2="28.644" y2="-14.322"/><line x1="-14.322" y1="-28.644" x2="-14.322" y2="28.644"/><line x1="-28.644" y1="14.322" x2="28.644" y2="14.322"/><line x1="14.322" y1="-28.644" x2="14.322" y2="28.644"/></g><path d="M 19.10,0.00 L 19.01,1.05 L 18.76,2.09 L 18.34,3.13 L 17.76,4.16 L 17.01,5.16 L 16.12,6.15 L 15.09,7.11 L 13.92,8.05 L 12.63,8.95 L 11.22,9.82 L 9.72,10.65 L 8.13,11.44 L 6.47,12.18 L 4.75,12.87 L 2.99,13.52 L 1.20,14.11 L -0.60,14.64 L -2.39,15.12 L -4.17,15.54 L -5.90,15.89 L -7.58,16.18 L -9.20,16.41 L -10.73,16.58 L -12.17,16.68 L -13.50,16.71 L -14.71,16.68 L -15.79,16.58 L -16.73,16.41 L -17.53,16.18 L -18.16,15.89 L -18.64,15.54 L -18.95,15.12 L -19.09,14.64 L -19.06,14.11 L -18.86,13.52 L -18.50,12.87 L -17.97,12.18 L -17.28,11.44 L -16.44,10.65 L -15.45,9.82 L -14.32,8.95 L -13.07,8.05 L -11.70,7.11 L -10.23,6.15 L -8.67,5.16 L -7.03,4.16 L -5.33,3.13 L -3.58,2.09 L -1.80,1.05 L -0.00,0.00 L 1.80,-1.05 L 3.58,-2.09 L 5.33,-3.13 L 7.03,-4.16 L 8.67,-5.16 L 10.23,-6.15 L 11.70,-7.11 L 13.07,-8.05 L 14.32,-8.95 L 15.45,-9.82 L 16.44,-10.65 L 17.28,-11.44 L 17.97,-12.18 L 18.50,-12.87 L 18.86,-13.52 L 19.06,-14.11 L 19.09,-14.64 L 18.95,-15.12 L 18.64,-15.54 L 18.16,-15.89 L 17.53,-16.18 L 16.73,-16.41 L 15.79,-16.58 L 14.71,-16.68 L 13.50,-16.71 L 12.17,-16.68 L 10.73,-16.58 L 9.20,-16.41 L 7.58,-16.18 L 5.90,-15.89 L 4.17,-15.54 L 2.39,-15.12 L 0.60,-14.64 L -1.20,-14.11 L -2.99,-13.52 L -4.75,-12.87 L -6.47,-12.18 L -8.13,-11.44 L -9.72,-10.65 L -11.22,-9.82 L -12.63,-8.95 L -13.92,-8.05 L -15.09,-7.11 L -16.12,-6.15 L -17.01,-5.16 L -17.76,-4.16 L -18.34,-3.13 L -18.76,-2.09 L -19.01,-1.05 L -19.10,-0.00 L -19.01,1.05 L -18.76,2.09 L -18.34,3.13 L -17.76,4.16 L -17.01,5.16 L -16.12,6.15 L -15.09,7.11 L -13.92,8.05 L -12.63,8.95 L -11.22,9.82 L -9.72,10.65 L -8.13,11.44 L -6.47,12.18 L -4.75,12.87 L -2.99,13.52 L -1.20,14.11 L 0.60,14.64 L 2.39,15.12 L 4.17,15.54 L 5.90,15.89 L 7.58,16.18 L 9.20,16.41 L 10.73,16.58 L 12.17,16.68 L 13.50,16.71 L 14.71,16.68 L 15.79,16.58 L 16.73,16.41 L 17.53,16.18 L 18.16,15.89 L 18.64,15.54 L 18.95,15.12 L 19.09,14.64 L 19.06,14.11 L 18.86,13.52 L 18.50,12.87 L 17.97,12.18 L 17.28,11.44 L 16.44,10.65 L 15.45,9.82 L 14.32,8.95 L 13.07,8.05 L 11.70,7.11 L 10.23,6.15 L 8.67,5.16 L 7.03,4.16 L 5.33,3.13 L 3.58,2.09 L 1.80,1.05 L 0.00,0.00 L -1.80,-1.05 L -3.58,-2.09 L -5.33,-3.13 L -7.03,-4.16 L -8.67,-5.16 L -10.23,-6.15 L -11.70,-7.11 L -13.07,-8.05 L -14.32,-8.95 L -15.45,-9.82 L -16.44,-10.65 L -17.28,-11.44 L -17.97,-12.18 L -18.50,-12.87 L -18.86,-13.52 L -19.06,-14.11 L -19.09,-14.64 L -18.95,-15.12 L -18.64,-15.54 L -18.16,-15.89 L -17.53,-16.18 L -16.73,-16.41 L -15.79,-16.58 L -14.71,-16.68 L -13.50,-16.71 L -12.17,-16.68 L -10.73,-16.58 L -9.20,-16.41 L -7.58,-16.18 L -5.90,-15.89 L -4.17,-15.54 L -2.39,-15.12 L -0.60,-14.64 L 1.20,-14.11 L 2.99,-13.52 L 4.75,-12.87 L 6.47,-12.18 L 8.13,-11.44 L 9.72,-10.65 L 11.22,-9.82 L 12.63,-8.95 L 13.92,-8.05 L 15.09,-7.11 L 16.12,-6.15 L 17.01,-5.16 L 17.76,-4.16 L 18.34,-3.13 L 18.76,-2.09 L 19.01,-1.05 L 19.10,-0.00 Z" fill="none" stroke="#ff2a1a" stroke-width="1.705" stroke-linejoin="round"/><circle r="26.257" fill="none" stroke="#d4001a" stroke-width="1.876"/><circle r="26.257" fill="none" stroke="#ff5533" stroke-width="0.614" opacity="0.7"/><circle r="2.899" fill="#ff3322"/><circle r="1.364" fill="#ffccbb"/></g>
<circle cx="267.1" cy="142.5" r="5.0" fill="#d4001a"/><circle cx="267.1" cy="142.5" r="2.0" fill="#ff5544"/>


</g>
</svg>