<svg xmlns="http://www.w3.org/2000/svg" width="330.0" height="379.43" viewBox="0 0 330.0 379.43">
<rect width="330.0" height="379.43" fill="#14171b"/>
<rect x="0" y="0" width="330.0" height="3.54" fill="#d4001a"/>
<polyline points="14.76,59.06 23.23,62.29 31.7,63.08 40.16,60.82 48.63,57.23 57.1,55.01 65.57,55.86 74.03,59.12 82.5,62.34 90.97,63.06 99.43,60.76 107.9,57.16 116.37,55.0 124.84,55.91 133.3,59.19 141.77,62.38 150.24,63.05" fill="none" stroke="#2a5a56" stroke-width="0.4" stroke-opacity="0.5"/>
<polyline points="14.76,92.79 23.23,94.78 31.7,92.53 40.16,87.74 48.63,84.03 57.1,84.22 65.57,88.15 74.03,92.86 82.5,94.78 90.97,92.45 99.43,87.65 107.9,84.0 116.37,84.26 124.84,88.24 133.3,92.93 141.77,94.77 150.24,92.38" fill="none" stroke="#2a5a56" stroke-width="0.4" stroke-opacity="0.5"/>
<polyline points="14.76,126.27 23.23,124.58 31.7,118.88 40.16,113.49 48.63,112.5 57.1,116.64 65.57,122.79 74.03,126.29 82.5,124.5 90.97,118.76 99.43,113.42 107.9,112.53 116.37,116.75 124.84,122.9 133.3,126.31 141.77,124.41 150.24,118.64" fill="none" stroke="#2a5a56" stroke-width="0.4" stroke-opacity="0.5"/>
<polyline points="14.76,152.98 23.23,149.99 31.7,146.57 40.16,145.29 48.63,147.13 57.1,150.7 65.57,153.29 74.03,152.94 82.5,149.92 90.97,146.52 99.43,145.3 107.9,147.19 116.37,150.76 124.84,153.31 133.3,152.91 141.77,149.85 150.24,146.47" fill="none" stroke="#2a5a56" stroke-width="0.4" stroke-opacity="0.5"/>
<polyline points="14.76,181.41 23.23,176.56 31.7,173.95 40.16,175.57 48.63,180.18 57.1,184.3 65.57,184.81 74.03,181.32 82.5,176.48 90.97,173.94 99.43,175.64 107.9,180.28 116.37,184.35 124.84,184.77 133.3,181.23 141.77,176.4 150.24,173.93" fill="none" stroke="#2a5a56" stroke-width="0.4" stroke-opacity="0.5"/>
<polyline points="14.76,207.16 23.23,202.9 31.7,203.75 40.16,209.06 48.63,214.81 57.1,216.66 65.57,213.2 74.03,207.05 82.5,202.87 90.97,203.81 99.43,209.18 107.9,214.89 116.37,216.64 124.84,213.09 133.3,206.94 141.77,202.83 150.24,203.88" fill="none" stroke="#2a5a56" stroke-width="0.4" stroke-opacity="0.5"/>
<polyline points="14.76,236.16 23.23,235.94 31.7,238.61 40.16,242.15 48.63,243.89 57.1,242.5 65.57,239.04 74.03,236.13 82.5,235.96 90.97,238.68 99.43,242.21 107.9,243.89 116.37,242.45 124.84,238.97 133.3,236.09 141.77,235.99 150.24,238.74" fill="none" stroke="#2a5a56" stroke-width="0.4" stroke-opacity="0.5"/>
<polyline points="14.76,264.37 23.23,267.28 31.7,272.15 40.16,275.31 48.63,274.36 57.1,270.02 65.57,265.57 74.03,264.39 82.5,267.36 90.97,272.24 99.43,275.34 107.9,274.3 116.37,269.93 124.84,265.52 133.3,264.41 141.77,267.44 150.24,272.32" fill="none" stroke="#2a5a56" stroke-width="0.4" stroke-opacity="0.5"/>
<polyline points="14.76,295.53 23.23,301.52 31.7,306.37 40.16,306.39 48.63,301.58 57.1,295.57 65.57,292.91 74.03,295.62 82.5,301.64 90.97,306.42 99.43,306.34 107.9,301.46 116.37,295.48 124.84,292.91 133.3,295.71 141.77,301.76 150.24,306.47" fill="none" stroke="#2a5a56" stroke-width="0.4" stroke-opacity="0.5"/>
<polyline points="179.76,59.06 188.23,62.29 196.7,63.08 205.16,60.82 213.63,57.23 222.1,55.01 230.57,55.86 239.03,59.12 247.5,62.34 255.97,63.06 264.43,60.76 272.9,57.16 281.37,55.0 289.84,55.91 298.3,59.19 306.77,62.38 315.24,63.05" fill="none" stroke="#8a5410" stroke-width="0.4" stroke-opacity="0.5"/>
<polyline points="179.76,92.79 188.23,94.78 196.7,92.53 205.16,87.74 213.63,84.03 222.1,84.22 230.57,88.15 239.03,92.86 247.5,94.78 255.97,92.45 264.43,87.65 272.9,84.0 281.37,84.26 289.84,88.24 298.3,92.93 306.77,94.77 315.24,92.38" fill="none" stroke="#8a5410" stroke-width="0.4" stroke-opacity="0.5"/>
<polyline points="179.76,126.27 188.23,124.58 196.7,118.88 205.16,113.49 213.63,112.5 222.1,116.64 230.57,122.79 239.03,126.29 247.5,124.5 255.97,118.76 264.43,113.42 272.9,112.53 281.37,116.75 289.84,122.9 298.3,126.31 306.77,124.41 315.24,118.64" fill="none" stroke="#8a5410" stroke-width="0.4" stroke-opacity="0.5"/>
<polyline points="179.76,152.98 188.23,149.99 196.7,146.57 205.16,145.29 213.63,147.13 222.1,150.7 230.57,153.29 239.03,152.94 247.5,149.92 255.97,146.52 264.43,145.3 272.9,147.19 281.37,150.76 289.84,153.31 298.3,152.91 306.77,149.85 315.24,146.47" fill="none" stroke="#8a5410" stroke-width="0.4" stroke-opacity="0.5"/>
<polyline points="179.76,181.41 188.23,176.56 196.7,173.95 205.16,175.57 213.63,180.18 222.1,184.3 230.57,184.81 239.03,181.32 247.5,176.48 255.97,173.94 264.43,175.64 272.9,180.28 281.37,184.35 289.84,184.77 298.3,181.23 306.77,176.4 315.24,173.93" fill="none" stroke="#8a5410" stroke-width="0.4" stroke-opacity="0.5"/>
<polyline points="179.76,207.16 188.23,202.9 196.7,203.75 205.16,209.06 213.63,214.81 222.1,216.66 230.57,213.2 239.03,207.05 247.5,202.87 255.97,203.81 264.43,209.18 272.9,214.89 281.37,216.64 289.84,213.09 298.3,206.94 306.77,202.83 315.24,203.88" fill="none" stroke="#8a5410" stroke-width="0.4" stroke-opacity="0.5"/>
<polyline points="179.76,236.16 188.23,235.94 196.7,238.61 205.16,242.15 213.63,243.89 222.1,242.5 230.57,239.04 239.03,236.13 247.5,235.96 255.97,238.68 264.43,242.21 272.9,243.89 281.37,242.45 289.84,238.97 298.3,236.09 306.77,235.99 315.24,238.74" fill="none" stroke="#8a5410" stroke-width="0.4" stroke-opacity="0.5"/>
<polyline points="179.76,264.37 188.23,267.28 196.7,272.15 205.16,275.31 213.63,274.36 222.1,270.02 230.57,265.57 239.03,264.39 247.5,267.36 255.97,272.24 264.43,275.34 272.9,274.3 281.37,269.93 289.84,265.52 298.3,264.41 306.77,267.44 315.24,272.32" fill="none" stroke="#8a5410" stroke-width="0.4" stroke-opacity="0.5"/>
<polyline points="179.76,295.53 188.23,301.52 196.7,306.37 205.16,306.39 213.63,301.58 222.1,295.57 230.57,292.91 239.03,295.62 247.5,301.64 255.97,306.42 264.43,306.34 272.9,301.46 281.37,295.48 289.84,292.91 298.3,295.71 306.77,301.76 315.24,306.47" fill="none" stroke="#8a5410" stroke-width="0.4" stroke-opacity="0.5"/>
<rect x="11.81" y="47.24" width="141.38" height="258.66" rx="4.43" fill="#3f7d78" fill-opacity="0.06" stroke="#3f7d78" stroke-width="0.3" stroke-opacity="0.4"/>
<rect x="176.81" y="47.24" width="141.38" height="258.66" rx="4.43" fill="#e08a1a" fill-opacity="0.08" stroke="#e08a1a" stroke-width="0.3" stroke-opacity="0.5"/>
<circle cx="82.5" cy="41.34" r="4.13" fill="#3f7d78"/>
<circle cx="247.5" cy="41.34" r="4.13" fill="#e08a1a"/>
<line x1="165.0" y1="59.06" x2="165.0" y2="300.0" stroke="#5a6470" stroke-width="1.77"/>
<circle cx="48.63" cy="80.02" r="8.86" fill="#1a2e2c" stroke="#3f7d78" stroke-width="2.36"/>
<line x1="48.63" y1="80.02" x2="48.63" y2="72.93" stroke="#c0c8d0" stroke-width="1.48"/>
<circle cx="48.63" cy="80.02" r="11.81" fill="none" stroke="#d4001a" stroke-width="1.48" stroke-opacity="0.8"/>
<circle id="param_rest_0" cx="48.63" cy="80.02" r="0.5" fill="none" stroke="none"/>
<circle cx="153.78" cy="80.02" r="2.07" fill="#4c7ac0" fill-opacity="1.0"/>
<circle cx="116.37" cy="80.02" r="8.86" fill="#1a2e2c" stroke="#3f7d78" stroke-width="1.48"/>
<line x1="116.37" y1="80.02" x2="116.37" y2="72.93" stroke="#c0c8d0" stroke-width="1.48"/>
<circle id="param_rest_1" cx="116.37" cy="80.02" r="0.5" fill="none" stroke="none"/>
<circle cx="153.78" cy="80.02" r="2.07" fill="#8a94a0" fill-opacity="0.5"/>
<circle cx="48.63" cy="110.14" r="8.86" fill="#1a2e2c" stroke="#3f7d78" stroke-width="1.48"/>
<line x1="48.63" y1="110.14" x2="48.63" y2="103.05" stroke="#c0c8d0" stroke-width="1.48"/>
<circle id="param_rest_2" cx="48.63" cy="110.14" r="0.5" fill="none" stroke="none"/>
<circle cx="153.78" cy="110.14" r="2.07" fill="#8a94a0" fill-opacity="0.5"/>
<circle cx="116.37" cy="110.14" r="8.86" fill="#1a2e2c" stroke="#3f7d78" stroke-width="1.48"/>
<line x1="116.37" y1="110.14" x2="116.37" y2="103.05" stroke="#c0c8d0" stroke-width="1.48"/>
<circle id="param_rest_3" cx="116.37" cy="110.14" r="0.5" fill="none" stroke="none"/>
<circle cx="153.78" cy="110.14" r="2.07" fill="#8a94a0" fill-opacity="0.5"/>
<circle cx="48.63" cy="140.26" r="8.86" fill="#1a2e2c" stroke="#3f7d78" stroke-width="1.48"/>
<line x1="48.63" y1="140.26" x2="48.63" y2="133.17" stroke="#c0c8d0" stroke-width="1.48"/>
<circle id="param_rest_4" cx="48.63" cy="140.26" r="0.5" fill="none" stroke="none"/>
<circle cx="153.78" cy="140.26" r="2.07" fill="#8a94a0" fill-opacity="0.5"/>
<circle cx="116.37" cy="140.26" r="8.86" fill="#1a2e2c" stroke="#3f7d78" stroke-width="1.48"/>
<line x1="116.37" y1="140.26" x2="116.37" y2="133.17" stroke="#c0c8d0" stroke-width="1.48"/>
<circle id="param_rest_5" cx="116.37" cy="140.26" r="0.5" fill="none" stroke="none"/>
<circle cx="153.78" cy="140.26" r="2.07" fill="#8a94a0" fill-opacity="0.5"/>
<circle cx="48.63" cy="170.37" r="8.86" fill="#1a2e2c" stroke="#3f7d78" stroke-width="1.48"/>
<line x1="48.63" y1="170.37" x2="48.63" y2="163.29" stroke="#c0c8d0" stroke-width="1.48"/>
<circle id="param_rest_6" cx="48.63" cy="170.37" r="0.5" fill="none" stroke="none"/>
<circle cx="153.78" cy="170.37" r="2.07" fill="#8a94a0" fill-opacity="0.5"/>
<circle cx="116.37" cy="170.37" r="8.86" fill="#1a2e2c" stroke="#3f7d78" stroke-width="1.48"/>
<line x1="116.37" y1="170.37" x2="116.37" y2="163.29" stroke="#c0c8d0" stroke-width="1.48"/>
<circle id="param_rest_7" cx="116.37" cy="170.37" r="0.5" fill="none" stroke="none"/>
<circle cx="153.78" cy="170.37" r="2.07" fill="#8a94a0" fill-opacity="0.5"/>
<circle cx="48.63" cy="200.49" r="8.86" fill="#1a2e2c" stroke="#3f7d78" stroke-width="1.48"/>
<line x1="48.63" y1="200.49" x2="48.63" y2="193.41" stroke="#c0c8d0" stroke-width="1.48"/>
<circle id="param_rest_8" cx="48.63" cy="200.49" r="0.5" fill="none" stroke="none"/>
<circle cx="153.78" cy="200.49" r="2.07" fill="#8a94a0" fill-opacity="0.5"/>
<circle cx="116.37" cy="200.49" r="8.86" fill="#1a2e2c" stroke="#3f7d78" stroke-width="1.48"/>
<line x1="116.37" y1="200.49" x2="116.37" y2="193.41" stroke="#c0c8d0" stroke-width="1.48"/>
<circle id="param_rest_9" cx="116.37" cy="200.49" r="0.5" fill="none" stroke="none"/>
<circle cx="153.78" cy="200.49" r="2.07" fill="#8a94a0" fill-opacity="0.5"/>
<circle cx="48.63" cy="230.61" r="8.86" fill="#1a2e2c" stroke="#3f7d78" stroke-width="1.48"/>
<line x1="48.63" y1="230.61" x2="48.63" y2="223.52" stroke="#c0c8d0" stroke-width="1.48"/>
<circle id="param_rest_10" cx="48.63" cy="230.61" r="0.5" fill="none" stroke="none"/>
<circle cx="153.78" cy="230.61" r="2.07" fill="#8a94a0" fill-opacity="0.5"/>
<circle cx="116.37" cy="230.61" r="8.86" fill="#1a2e2c" stroke="#3f7d78" stroke-width="1.48"/>
<line x1="116.37" y1="230.61" x2="116.37" y2="223.52" stroke="#c0c8d0" stroke-width="1.48"/>
<circle id="param_rest_11" cx="116.37" cy="230.61" r="0.5" fill="none" stroke="none"/>
<circle cx="153.78" cy="230.61" r="2.07" fill="#8a94a0" fill-opacity="0.5"/>
<circle cx="48.63" cy="260.73" r="8.86" fill="#1a2e2c" stroke="#3f7d78" stroke-width="1.48"/>
<line x1="48.63" y1="260.73" x2="48.63" y2="253.64" stroke="#c0c8d0" stroke-width="1.48"/>
<circle id="param_rest_12" cx="48.63" cy="260.73" r="0.5" fill="none" stroke="none"/>
<circle cx="153.78" cy="260.73" r="2.07" fill="#8a94a0" fill-opacity="0.5"/>
<circle cx="116.37" cy="260.73" r="8.86" fill="#1a2e2c" stroke="#3f7d78" stroke-width="1.48"/>
<line x1="116.37" y1="260.73" x2="116.37" y2="253.64" stroke="#c0c8d0" stroke-width="1.48"/>
<circle id="param_rest_13" cx="116.37" cy="260.73" r="0.5" fill="none" stroke="none"/>
<circle cx="153.78" cy="260.73" r="2.07" fill="#8a94a0" fill-opacity="0.5"/>
<circle cx="48.63" cy="290.85" r="8.86" fill="#1a2e2c" stroke="#3f7d78" stroke-width="1.48"/>
<line x1="48.63" y1="290.85" x2="48.63" y2="283.76" stroke="#c0c8d0" stroke-width="1.48"/>
<circle id="param_rest_14" cx="48.63" cy="290.85" r="0.5" fill="none" stroke="none"/>
<circle cx="153.78" cy="290.85" r="2.07" fill="#8a94a0" fill-opacity="0.5"/>
<circle cx="116.37" cy="290.85" r="8.86" fill="#1a2e2c" stroke="#3f7d78" stroke-width="1.48"/>
<line x1="116.37" y1="290.85" x2="116.37" y2="283.76" stroke="#c0c8d0" stroke-width="1.48"/>
<circle id="param_rest_15" cx="116.37" cy="290.85" r="0.5" fill="none" stroke="none"/>
<circle cx="153.78" cy="290.85" r="2.07" fill="#8a94a0" fill-opacity="0.5"/>
<circle cx="213.63" cy="80.02" r="8.86" fill="#3a2a10" stroke="#e08a1a" stroke-width="2.36"/>
<line x1="213.63" y1="80.02" x2="213.63" y2="72.93" stroke="#c0c8d0" stroke-width="1.48"/>
<circle cx="213.63" cy="80.02" r="11.81" fill="none" stroke="#d4001a" stroke-width="1.48" stroke-opacity="0.8"/>
<circle id="param_accent_0" cx="213.63" cy="80.02" r="0.5" fill="none" stroke="none"/>
<circle cx="176.22" cy="80.02" r="2.07" fill="#4c7ac0" fill-opacity="1.0"/>
<circle cx="281.37" cy="80.02" r="8.86" fill="#3a2a10" stroke="#e08a1a" stroke-width="1.48"/>
<line x1="281.37" y1="80.02" x2="281.37" y2="72.93" stroke="#c0c8d0" stroke-width="1.48"/>
<circle id="param_accent_1" cx="281.37" cy="80.02" r="0.5" fill="none" stroke="none"/>
<circle cx="176.22" cy="80.02" r="2.07" fill="#8a94a0" fill-opacity="0.5"/>
<circle cx="213.63" cy="110.14" r="8.86" fill="#3a2a10" stroke="#e08a1a" stroke-width="1.48"/>
<line x1="213.63" y1="110.14" x2="213.63" y2="103.05" stroke="#c0c8d0" stroke-width="1.48"/>
<circle id="param_accent_2" cx="213.63" cy="110.14" r="0.5" fill="none" stroke="none"/>
<circle cx="176.22" cy="110.14" r="2.07" fill="#8a94a0" fill-opacity="0.5"/>
<circle cx="281.37" cy="110.14" r="8.86" fill="#3a2a10" stroke="#e08a1a" stroke-width="1.48"/>
<line x1="281.37" y1="110.14" x2="281.37" y2="103.05" stroke="#c0c8d0" stroke-width="1.48"/>
<circle id="param_accent_3" cx="281.37" cy="110.14" r="0.5" fill="none" stroke="none"/>
<circle cx="176.22" cy="110.14" r="2.07" fill="#8a94a0" fill-opacity="0.5"/>
<circle cx="213.63" cy="140.26" r="8.86" fill="#3a2a10" stroke="#e08a1a" stroke-width="1.48"/>
<line x1="213.63" y1="140.26" x2="213.63" y2="133.17" stroke="#c0c8d0" stroke-width="1.48"/>
<circle id="param_accent_4" cx="213.63" cy="140.26" r="0.5" fill="none" stroke="none"/>
<circle cx="176.22" cy="140.26" r="2.07" fill="#8a94a0" fill-opacity="0.5"/>
<circle cx="281.37" cy="140.26" r="8.86" fill="#3a2a10" stroke="#e08a1a" stroke-width="1.48"/>
<line x1="281.37" y1="140.26" x2="281.37" y2="133.17" stroke="#c0c8d0" stroke-width="1.48"/>
<circle id="param_accent_5" cx="281.37" cy="140.26" r="0.5" fill="none" stroke="none"/>
<circle cx="176.22" cy="140.26" r="2.07" fill="#8a94a0" fill-opacity="0.5"/>
<circle cx="213.63" cy="170.37" r="8.86" fill="#3a2a10" stroke="#e08a1a" stroke-width="1.48"/>
<line x1="213.63" y1="170.37" x2="213.63" y2="163.29" stroke="#c0c8d0" stroke-width="1.48"/>
<circle id="param_accent_6" cx="213.63" cy="170.37" r="0.5" fill="none" stroke="none"/>
<circle cx="176.22" cy="170.37" r="2.07" fill="#8a94a0" fill-opacity="0.5"/>
<circle cx="281.37" cy="170.37" r="8.86" fill="#3a2a10" stroke="#e08a1a" stroke-width="1.48"/>
<line x1="281.37" y1="170.37" x2="281.37" y2="163.29" stroke="#c0c8d0" stroke-width="1.48"/>
<circle id="param_accent_7" cx="281.37" cy="170.37" r="0.5" fill="none" stroke="none"/>
<circle cx="176.22" cy="170.37" r="2.07" fill="#8a94a0" fill-opacity="0.5"/>
<circle cx="213.63" cy="200.49" r="8.86" fill="#3a2a10" stroke="#e08a1a" stroke-width="1.48"/>
<line x1="213.63" y1="200.49" x2="213.63" y2="193.41" stroke="#c0c8d0" stroke-width="1.48"/>
<circle id="param_accent_8" cx="213.63" cy="200.49" r="0.5" fill="none" stroke="none"/>
<circle cx="176.22" cy="200.49" r="2.07" fill="#8a94a0" fill-opacity="0.5"/>
<circle cx="281.37" cy="200.49" r="8.86" fill="#3a2a10" stroke="#e08a1a" stroke-width="1.48"/>
<line x1="281.37" y1="200.49" x2="281.37" y2="193.41" stroke="#c0c8d0" stroke-width="1.48"/>
<circle id="param_accent_9" cx="281.37" cy="200.49" r="0.5" fill="none" stroke="none"/>
<circle cx="176.22" cy="200.49" r="2.07" fill="#8a94a0" fill-opacity="0.5"/>
<circle cx="213.63" cy="230.61" r="8.86" fill="#3a2a10" stroke="#e08a1a" stroke-width="1.48"/>
<line x1="213.63" y1="230.61" x2="213.63" y2="223.52" stroke="#c0c8d0" stroke-width="1.48"/>
<circle id="param_accent_10" cx="213.63" cy="230.61" r="0.5" fill="none" stroke="none"/>
<circle cx="176.22" cy="230.61" r="2.07" fill="#8a94a0" fill-opacity="0.5"/>
<circle cx="281.37" cy="230.61" r="8.86" fill="#3a2a10" stroke="#e08a1a" stroke-width="1.48"/>
<line x1="281.37" y1="230.61" x2="281.37" y2="223.52" stroke="#c0c8d0" stroke-width="1.48"/>
<circle id="param_accent_11" cx="281.37" cy="230.61" r="0.5" fill="none" stroke="none"/>
<circle cx="176.22" cy="230.61" r="2.07" fill="#8a94a0" fill-opacity="0.5"/>
<circle cx="213.63" cy="260.73" r="8.86" fill="#3a2a10" stroke="#e08a1a" stroke-width="1.48"/>
<line x1="213.63" y1="260.73" x2="213.63" y2="253.64" stroke="#c0c8d0" stroke-width="1.48"/>
<circle id="param_accent_12" cx="213.63" cy="260.73" r="0.5" fill="none" stroke="none"/>
<circle cx="176.22" cy="260.73" r="2.07" fill="#8a94a0" fill-opacity="0.5"/>
<circle cx="281.37" cy="260.73" r="8.86" fill="#3a2a10" stroke="#e08a1a" stroke-width="1.48"/>
<line x1="281.37" y1="260.73" x2="281.37" y2="253.64" stroke="#c0c8d0" stroke-width="1.48"/>
<circle id="param_accent_13" cx="281.37" cy="260.73" r="0.5" fill="none" stroke="none"/>
<circle cx="176.22" cy="260.73" r="2.07" fill="#8a94a0" fill-opacity="0.5"/>
<circle cx="213.63" cy="290.85" r="8.86" fill="#3a2a10" stroke="#e08a1a" stroke-width="1.48"/>
<line x1="213.63" y1="290.85" x2="213.63" y2="283.76" stroke="#c0c8d0" stroke-width="1.48"/>
<circle id="param_accent_14" cx="213.63" cy="290.85" r="0.5" fill="none" stroke="none"/>
<circle cx="176.22" cy="290.85" r="2.07" fill="#8a94a0" fill-opacity="0.5"/>
<circle cx="281.37" cy="290.85" r="8.86" fill="#3a2a10" stroke="#e08a1a" stroke-width="1.48"/>
<line x1="281.37" y1="290.85" x2="281.37" y2="283.76" stroke="#c0c8d0" stroke-width="1.48"/>
<circle id="param_accent_15" cx="281.37" cy="290.85" r="0.5" fill="none" stroke="none"/>
<circle cx="176.22" cy="290.85" r="2.07" fill="#8a94a0" fill-opacity="0.5"/>
<circle cx="99.0" cy="323.62" r="10.63" fill="#0c0e11" stroke="#4a4a4a" stroke-width="0.6"/>
<circle cx="99.0" cy="323.62" r="4.72" fill="none" stroke="#c8960c" stroke-width="0.4"/>
<circle id="output_polygate" cx="99.0" cy="323.62" r="0.5" fill="none" stroke="none"/>
<circle cx="165.0" cy="323.62" r="10.63" fill="#0c0e11" stroke="#4a4a4a" stroke-width="0.6"/>
<circle cx="165.0" cy="323.62" r="4.72" fill="none" stroke="#c8960c" stroke-width="0.4"/>
<circle id="output_polycv" cx="165.0" cy="323.62" r="0.5" fill="none" stroke="none"/>
<circle cx="231.0" cy="323.62" r="10.63" fill="#0c0e11" stroke="#4a4a4a" stroke-width="0.6"/>
<circle cx="231.0" cy="323.62" r="4.72" fill="none" stroke="#c8960c" stroke-width="0.4"/>
<circle id="output_polyaccent" cx="231.0" cy="323.62" r="0.5" fill="none" stroke="none"/>
<polyline points="14.76,341.34 33.54,344.58 52.32,345.36 71.1,343.11 89.88,339.51 108.66,337.3 127.44,338.14 146.22,341.41 165.0,344.62 183.78,345.35 202.56,343.04 221.34,339.45 240.12,337.28 258.9,338.19 277.68,341.48 296.46,344.66 315.24,345.33" fill="none" stroke="#5a6470" stroke-width="0.4" stroke-opacity="0.5"/>
<polyline points="14.76,352.83 33.54,354.82 52.32,352.57 71.1,347.78 89.88,344.07 108.66,344.26 127.44,348.19 146.22,352.9 165.0,354.82 183.78,352.49 202.56,347.69 221.34,344.04 240.12,344.3 258.9,348.28 277.68,352.97 296.46,354.81 315.24,352.42" fill="none" stroke="#5a6470" stroke-width="0.4" stroke-opacity="0.5"/>
<polyline points="14.76,364.07 33.54,362.37 52.32,356.67 71.1,351.29 89.88,350.29 108.66,354.44 127.44,360.59 146.22,364.09 165.0,362.29 183.78,356.55 202.56,351.22 221.34,350.33 240.12,354.55 258.9,360.69 277.68,364.11 296.46,362.21 315.24,356.44" fill="none" stroke="#5a6470" stroke-width="0.4" stroke-opacity="0.5"/>
<polyline points="14.76,368.53 33.54,365.54 52.32,362.12 71.1,360.84 89.88,362.68 108.66,366.25 127.44,368.84 146.22,368.49 165.0,365.48 183.78,362.07 202.56,360.85 221.34,362.74 240.12,366.31 258.9,368.86 277.68,368.46 296.46,365.41 315.24,362.02" fill="none" stroke="#5a6470" stroke-width="0.4" stroke-opacity="0.5"/>
<circle cx="306.38" cy="323.62" r="4.72" fill="#0c0e11" stroke="#4a4a4a" stroke-width="0.3"/>
<circle id="light_connect" cx="306.38" cy="323.62" r="0.5" fill="none" stroke="none"/>
</svg>