<svg xmlns="http://www.w3.org/2000/svg" xmlns:inkscape="http://www.inkscape.org/namespaces/inkscape" width="600.0" height="379.43" viewBox="0 0 600.0 379.43">
<g inkscape:label="artwork" inkscape:groupmode="layer">
<rect width="600.0" height="379.43" fill="#16181c"/>
<g fill="#262a32" opacity="0.55"><rect x="354.3" y="281.6" width="26.9" height="60.9" rx="4.8"/><rect x="444.2" y="281.6" width="26.9" height="60.9" rx="4.8"/><rect x="534.2" y="281.6" width="26.9" height="60.9" rx="4.8"/><path d="M 350.2 278.7 L 581.7 271.7 L 581.7 275.2 L 350.2 282.3 Z"/></g>
<g stroke="#2c313a" stroke-width="1.5" fill="none" opacity="0.55"><path d="M 177.2 348.4 C 189.9 343.7 215.4 343.7 228.1 348.4 C 240.8 353.2 266.3 353.2 279.0 348.4 C 291.8 343.7 317.2 343.7 330.0 348.4 C 342.7 353.2 368.2 353.2 380.9 348.4 C 393.6 343.7 419.1 343.7 431.8 348.4 C 444.6 353.2 470.0 353.2 482.8 348.4 C 495.5 343.7 521.0 343.7 533.7 348.4 C 546.4 353.2 571.9 353.2 584.6 348.4 "/><path d="M 177.2 357.9 C 189.9 353.1 215.4 353.1 228.1 357.9 C 240.8 362.6 266.3 362.6 279.0 357.9 C 291.8 353.1 317.2 353.1 330.0 357.9 C 342.7 362.6 368.2 362.6 380.9 357.9 C 393.6 353.1 419.1 353.1 431.8 357.9 C 444.6 362.6 470.0 362.6 482.8 357.9 C 495.5 353.1 521.0 353.1 533.7 357.9 C 546.4 362.6 571.9 362.6 584.6 357.9 "/><path d="M 177.2 367.3 C 189.9 362.6 215.4 362.6 228.1 367.3 C 240.8 372.0 266.3 372.0 279.0 367.3 C 291.8 362.6 317.2 362.6 330.0 367.3 C 342.7 372.0 368.2 372.0 380.9 367.3 C 393.6 362.6 419.1 362.6 431.8 367.3 C 444.6 372.0 470.0 372.0 482.8 367.3 C 495.5 362.6 521.0 362.6 533.7 367.3 C 546.4 372.0 571.9 372.0 584.6 367.3 "/></g>
<line x1="0" y1="32.5" x2="600.0" y2="32.5" stroke="#dc2626" stroke-width="1.5" opacity="0.55"/>
<line x1="0" y1="354.3" x2="600.0" y2="354.3" stroke="#262b33" stroke-width="1" opacity="0.7"/>
<rect x="11.8" y="29.5" width="147.6" height="295.3" rx="5.9" fill="#13151a" stroke="#262b33" stroke-width="1"/>
<rect x="11.8" y="14.8" width="147.6" height="14.8" rx="3.0" fill="#202833" opacity="0.6"/>
<line x1="70.9" y1="35.4" x2="70.9" y2="318.9" stroke="#262b33" stroke-width="0.75" opacity="0.6"/>
<rect x="171.3" y="35.4" width="416.9" height="14.8" rx="3.0" fill="#202833" opacity="0.6"/>
<rect x="171.3" y="53.1" width="416.9" height="141.7" rx="4.4" fill="#101216" stroke="#2a2f37" stroke-width="1"/>
<line x1="174.2" y1="100.4" x2="585.2" y2="100.4" stroke="#2a2f37" stroke-width="0.75" opacity="0.7"/>
<line x1="174.2" y1="147.6" x2="585.2" y2="147.6" stroke="#2a2f37" stroke-width="0.75" opacity="0.7"/>
</g>
<g inkscape:label="branding" inkscape:groupmode="layer">
<g opacity="0.95"><circle cx="41.3" cy="17.7" r="11.8" fill="#0f1114" stroke="#262b33" stroke-width="1"/><circle cx="41.3" cy="17.7" r="9.9" fill="#101216"/><g stroke="#dc2626" stroke-width="1" opacity="0.85"><line x1="31.4" y1="17.7" x2="51.3" y2="17.7"/><line x1="41.3" y1="7.8" x2="41.3" y2="27.6"/></g><circle cx="41.3" cy="17.7" r="3.1" fill="#dc2626"/></g>
<g opacity="0.95"><circle cx="576.4" cy="367.6" r="8.9" fill="#0f1114" stroke="#262b33" stroke-width="1"/><circle cx="576.4" cy="367.6" r="7.4" fill="#101216"/><g stroke="#dc2626" stroke-width="1" opacity="0.85"><line x1="568.9" y1="367.6" x2="583.8" y2="367.6"/><line x1="576.4" y1="360.2" x2="576.4" y2="375.1"/></g><circle cx="576.4" cy="367.6" r="2.3" fill="#dc2626"/></g>
</g>
<g inkscape:label="control-graphics" inkscape:groupmode="layer">
<circle cx="23.6" cy="64.5" r="11.5" fill="#0b0d10" stroke="#4a5058" stroke-width="1"/>
<circle cx="23.6" cy="64.5" r="5.0" fill="#101216"/>
<circle cx="53.1" cy="64.5" r="11.5" fill="#0b0d10" stroke="#4a5058" stroke-width="1"/>
<circle cx="53.1" cy="64.5" r="5.0" fill="#101216"/>
<circle cx="88.6" cy="64.5" r="9.4" fill="#0f1114" stroke="#c8960c" stroke-width="1.25"/>
<line x1="88.6" y1="64.5" x2="88.6" y2="57.4" stroke="#c8960c" stroke-width="1"/>
<circle cx="115.2" cy="64.5" r="9.4" fill="#0f1114" stroke="#c8960c" stroke-width="1.25"/>
<line x1="115.2" y1="64.5" x2="115.2" y2="57.4" stroke="#c8960c" stroke-width="1"/>
<circle cx="23.6" cy="110.7" r="11.5" fill="#0b0d10" stroke="#4a5058" stroke-width="1"/>
<circle cx="23.6" cy="110.7" r="5.0" fill="#101216"/>
<circle cx="53.1" cy="110.7" r="11.5" fill="#0b0d10" stroke="#4a5058" stroke-width="1"/>
<circle cx="53.1" cy="110.7" r="5.0" fill="#101216"/>
<circle cx="88.6" cy="110.7" r="9.4" fill="#0f1114" stroke="#c8960c" stroke-width="1.25"/>
<line x1="88.6" y1="110.7" x2="88.6" y2="103.6" stroke="#c8960c" stroke-width="1"/>
<circle cx="115.2" cy="110.7" r="9.4" fill="#0f1114" stroke="#c8960c" stroke-width="1.25"/>
<line x1="115.2" y1="110.7" x2="115.2" y2="103.6" stroke="#c8960c" stroke-width="1"/>
<circle cx="23.6" cy="157.0" r="11.5" fill="#0b0d10" stroke="#4a5058" stroke-width="1"/>
<circle cx="23.6" cy="157.0" r="5.0" fill="#101216"/>
<circle cx="53.1" cy="157.0" r="11.5" fill="#0b0d10" stroke="#4a5058" stroke-width="1"/>
<circle cx="53.1" cy="157.0" r="5.0" fill="#101216"/>
<circle cx="88.6" cy="157.0" r="9.4" fill="#0f1114" stroke="#c8960c" stroke-width="1.25"/>
<line x1="88.6" y1="157.0" x2="88.6" y2="149.9" stroke="#c8960c" stroke-width="1"/>
<circle cx="115.2" cy="157.0" r="9.4" fill="#0f1114" stroke="#c8960c" stroke-width="1.25"/>
<line x1="115.2" y1="157.0" x2="115.2" y2="149.9" stroke="#c8960c" stroke-width="1"/>
<circle cx="23.6" cy="203.2" r="11.5" fill="#0b0d10" stroke="#4a5058" stroke-width="1"/>
<circle cx="23.6" cy="203.2" r="5.0" fill="#101216"/>
<circle cx="53.1" cy="203.2" r="11.5" fill="#0b0d10" stroke="#4a5058" stroke-width="1"/>
<circle cx="53.1" cy="203.2" r="5.0" fill="#101216"/>
<circle cx="88.6" cy="203.2" r="9.4" fill="#0f1114" stroke="#c8960c" stroke-width="1.25"/>
<line x1="88.6" y1="203.2" x2="88.6" y2="196.2" stroke="#c8960c" stroke-width="1"/>
<circle cx="115.2" cy="203.2" r="9.4" fill="#0f1114" stroke="#c8960c" stroke-width="1.25"/>
<line x1="115.2" y1="203.2" x2="115.2" y2="196.2" stroke="#c8960c" stroke-width="1"/>
<circle cx="23.6" cy="249.5" r="11.5" fill="#0b0d10" stroke="#4a5058" stroke-width="1"/>
<circle cx="23.6" cy="249.5" r="5.0" fill="#101216"/>
<circle cx="53.1" cy="249.5" r="11.5" fill="#0b0d10" stroke="#4a5058" stroke-width="1"/>
<circle cx="53.1" cy="249.5" r="5.0" fill="#101216"/>
<circle cx="88.6" cy="249.5" r="9.4" fill="#0f1114" stroke="#c8960c" stroke-width="1.25"/>
<line x1="88.6" y1="249.5" x2="88.6" y2="242.4" stroke="#c8960c" stroke-width="1"/>
<circle cx="115.2" cy="249.5" r="9.4" fill="#0f1114" stroke="#c8960c" stroke-width="1.25"/>
<line x1="115.2" y1="249.5" x2="115.2" y2="242.4" stroke="#c8960c" stroke-width="1"/>
<circle cx="23.6" cy="295.8" r="11.5" fill="#0b0d10" stroke="#4a5058" stroke-width="1"/>
<circle cx="23.6" cy="295.8" r="5.0" fill="#101216"/>
<circle cx="53.1" cy="295.8" r="11.5" fill="#0b0d10" stroke="#4a5058" stroke-width="1"/>
<circle cx="53.1" cy="295.8" r="5.0" fill="#101216"/>
<circle cx="88.6" cy="295.8" r="9.4" fill="#0f1114" stroke="#c8960c" stroke-width="1.25"/>
<line x1="88.6" y1="295.8" x2="88.6" y2="288.7" stroke="#c8960c" stroke-width="1"/>
<circle cx="115.2" cy="295.8" r="9.4" fill="#0f1114" stroke="#c8960c" stroke-width="1.25"/>
<line x1="115.2" y1="295.8" x2="115.2" y2="288.7" stroke="#c8960c" stroke-width="1"/>
<circle cx="144.7" cy="87.6" r="9.4" fill="#0f1114" stroke="#26a69a" stroke-width="1.25"/>
<line x1="144.7" y1="87.6" x2="144.7" y2="80.5" stroke="#26a69a" stroke-width="1"/>
<circle cx="144.7" cy="180.1" r="9.4" fill="#0f1114" stroke="#26a69a" stroke-width="1.25"/>
<line x1="144.7" y1="180.1" x2="144.7" y2="173.0" stroke="#26a69a" stroke-width="1"/>
<circle cx="144.7" cy="272.6" r="9.4" fill="#0f1114" stroke="#26a69a" stroke-width="1.25"/>
<line x1="144.7" y1="272.6" x2="144.7" y2="265.6" stroke="#26a69a" stroke-width="1"/>
</g>
<g inkscape:label="screws" inkscape:groupmode="layer">
<circle cx="14.8" cy="14.8" r="6.5" fill="#dc2626" stroke="#16181c" stroke-width="0.5"/>
<line x1="10.6" y1="14.8" x2="18.9" y2="14.8" stroke="#16181c" stroke-width="0.6" opacity="0.7"/>
<circle cx="14.8" cy="364.7" r="6.5" fill="#dc2626" stroke="#16181c" stroke-width="0.5"/>
<line x1="10.6" y1="364.7" x2="18.9" y2="364.7" stroke="#16181c" stroke-width="0.6" opacity="0.7"/>
<circle cx="585.2" cy="14.8" r="6.5" fill="#dc2626" stroke="#16181c" stroke-width="0.5"/>
<line x1="581.1" y1="14.8" x2="589.4" y2="14.8" stroke="#16181c" stroke-width="0.6" opacity="0.7"/>
<circle cx="585.2" cy="364.7" r="6.5" fill="#dc2626" stroke="#16181c" stroke-width="0.5"/>
<line x1="581.1" y1="364.7" x2="589.4" y2="364.7" stroke="#16181c" stroke-width="0.6" opacity="0.7"/>
</g>
</svg>