<svg xmlns="http://www.w3.org/2000/svg" width="420" height="380" viewBox="0 0 420 380">
<rect x="0" y="0" width="420" height="380" fill="#e8e8ea"/>
<rect x="0" y="0" width="420" height="4" fill="#c0202a"/>
<circle cx="406" cy="14" r="5" fill="#c0202a"/>
<g transform="translate(252.00,40.00) scale(0.15120,0.14222)" opacity="0.500">
  
  
  
    
      <path d="M35 340 Q420 240 965 250" stroke="#d8d9dc" stroke-width="1.4" opacity="0.55" fill="none" stroke-linecap="round"/><path d="M40 300 Q420 205 950 225" stroke="#d8d9dc" stroke-width="1.4" opacity="0.55" fill="none" stroke-linecap="round"/><path d="M45 265 Q415 175 925 200" stroke="#d8d9dc" stroke-width="1.4" opacity="0.55" fill="none" stroke-linecap="round"/><path d="M55 230 Q410 145 890 178" stroke="#d8d9dc" stroke-width="1.4" opacity="0.55" fill="none" stroke-linecap="round"/><path d="M70 195 Q400 115 845 155" stroke="#d8d9dc" stroke-width="1.4" opacity="0.55" fill="none" stroke-linecap="round"/><path d="M90 160 Q380 88 790 138" stroke="#d8d9dc" stroke-width="1.4" opacity="0.55" fill="none" stroke-linecap="round"/><path d="M120 130 Q350 68 720 125" stroke="#d8d9dc" stroke-width="1.4" opacity="0.55" fill="none" stroke-linecap="round"/><path d="M155 102 Q320 52 650 118" stroke="#d8d9dc" stroke-width="1.4" opacity="0.55" fill="none" stroke-linecap="round"/>
    
    
      <ellipse cx="-40" cy="380" rx="140" ry="370" stroke="#d8d9dc" stroke-width="2" opacity="0.65" fill="none" stroke-linecap="round"/><ellipse cx="0" cy="380" rx="145" ry="370" stroke="#d8d9dc" stroke-width="2" opacity="0.65" fill="none" stroke-linecap="round"/><ellipse cx="40" cy="380" rx="150" ry="370" stroke="#d8d9dc" stroke-width="2" opacity="0.65" fill="none" stroke-linecap="round"/><ellipse cx="80" cy="380" rx="155" ry="370" stroke="#d8d9dc" stroke-width="2" opacity="0.65" fill="none" stroke-linecap="round"/><ellipse cx="120" cy="380" rx="160" ry="370" stroke="#d8d9dc" stroke-width="2" opacity="0.65" fill="none" stroke-linecap="round"/><ellipse cx="160" cy="380" rx="165" ry="370" stroke="#d8d9dc" stroke-width="2" opacity="0.65" fill="none" stroke-linecap="round"/><ellipse cx="200" cy="380" rx="170" ry="370" stroke="#d8d9dc" stroke-width="2" opacity="0.65" fill="none" stroke-linecap="round"/><ellipse cx="240" cy="380" rx="175" ry="370" stroke="#d8d9dc" stroke-width="2" opacity="0.65" fill="none" stroke-linecap="round"/><ellipse cx="280" cy="380" rx="180" ry="370" stroke="#d8d9dc" stroke-width="2" opacity="0.65" fill="none" stroke-linecap="round"/><ellipse cx="320" cy="380" rx="185" ry="370" stroke="#d8d9dc" stroke-width="2" opacity="0.65" fill="none" stroke-linecap="round"/><ellipse cx="360" cy="380" rx="190" ry="370" stroke="#d8d9dc" stroke-width="2" opacity="0.65" fill="none" stroke-linecap="round"/>
      <ellipse cx="420" cy="380" rx="180" ry="370" stroke="#d8d9dc" stroke-width="2" opacity="0.65" fill="none" stroke-linecap="round"/><ellipse cx="470" cy="380" rx="170" ry="370" stroke="#d8d9dc" stroke-width="2" opacity="0.65" fill="none" stroke-linecap="round"/><ellipse cx="520" cy="380" rx="160" ry="370" stroke="#d8d9dc" stroke-width="2" opacity="0.65" fill="none" stroke-linecap="round"/><ellipse cx="570" cy="380" rx="150" ry="370" stroke="#d8d9dc" stroke-width="2" opacity="0.65" fill="none" stroke-linecap="round"/><ellipse cx="620" cy="380" rx="140" ry="370" stroke="#d8d9dc" stroke-width="2" opacity="0.65" fill="none" stroke-linecap="round"/><ellipse cx="670" cy="380" rx="130" ry="370" stroke="#d8d9dc" stroke-width="2" opacity="0.65" fill="none" stroke-linecap="round"/><ellipse cx="720" cy="380" rx="120" ry="370" stroke="#d8d9dc" stroke-width="2" opacity="0.65" fill="none" stroke-linecap="round"/><ellipse cx="770" cy="380" rx="110" ry="370" stroke="#d8d9dc" stroke-width="2" opacity="0.65" fill="none" stroke-linecap="round"/><ellipse cx="820" cy="380" rx="100" ry="370" stroke="#d8d9dc" stroke-width="2" opacity="0.65" fill="none" stroke-linecap="round"/><ellipse cx="870" cy="380" rx="90" ry="370" stroke="#d8d9dc" stroke-width="2" opacity="0.65" fill="none" stroke-linecap="round"/><ellipse cx="920" cy="380" rx="80" ry="370" stroke="#d8d9dc" stroke-width="2" opacity="0.65" fill="none" stroke-linecap="round"/><ellipse cx="960" cy="380" rx="70" ry="370" stroke="#d8d9dc" stroke-width="2" opacity="0.65" fill="none" stroke-linecap="round"/>
    
    
      <path d="M70 330 L120 280 L170 330 M170 330 L220 280 L270 330 M270 330 L320 280 L370 330 M370 330 L420 280 L470 330 M470 330 L520 280 L570 330 M570 330 L620 280 L670 330 M670 330 L720 280 L770 330" stroke="#2a2a2e" stroke-width="1" opacity="0.13" fill="none" stroke-linecap="round"/>
      <path d="M120 250 L170 205 L220 250 M220 250 L270 205 L320 250 M320 250 L370 205 L420 250 M420 250 L470 205 L520 250 M520 250 L570 205 L620 250" stroke="#2a2a2e" stroke-width="1" opacity="0.13" fill="none" stroke-linecap="round"/>
    
  
  
  <path d="M0 0 L1000 0 L1000 250
           C900 125 720 45 500 42
           C240 45 40 120 35 340
           L0 340 Z" fill="#e8e8ea"/>
  
  <path d="M0 343 L1000 343 L1000 450 L0 450 Z" fill="#e8e8ea"/>
  
  <path d="M965 250 L1000 250 L1000 343 L965 343 Z" fill="#e8e8ea"/>
  
  <path d="M35 340 C40 120 240 45 500 42 C720 45 900 125 965 250" fill="none" stroke="#d8d9dc" stroke-width="6" stroke-linecap="round"/>
  <path d="M18 342 L840 285" fill="none" stroke="#d8d9dc" stroke-width="10" stroke-linecap="round"/>
  <path d="M35 405 L760 375" fill="none" stroke="#d8d9dc" stroke-width="9" stroke-linecap="round"/>
  
    <polyline points="40,403 75,404 130,340 195,395 250,392 325,330 395,385 455,382 540,318 615,374 675,370 760,285" stroke="#d8d9dc" stroke-width="10" fill="none" stroke-linejoin="round" stroke-linecap="round"/>
    <path d="M130 340 L130 398 M325 330 L325 388 M540 318 L540 380" stroke="#d8d9dc" stroke-width="10" fill="none" stroke-linejoin="round" stroke-linecap="round"/>
  
  <polygon points="760,288 980,270 980,280 790,295" fill="#d8d9dc"/>
  <polygon points="790,295 980,295 980,340 855,340 855,360 735,360 735,350 790,347" fill="#e8e8ea"/>
  <rect x="845" y="312" width="120" height="10" fill="#e8e8ea"/>
  <ellipse cx="470" cy="420" rx="410" ry="16" fill="#e8e8ea" opacity="0.5"/>

</g>
<path d="M 12.0 56.0 C 16.5 51.3 25.4 51.3 29.9 56.0 C 34.3 60.7 43.2 60.7 47.7 56.0 C 52.2 51.3 61.1 51.3 65.6 56.0 C 70.0 60.7 78.9 60.7 83.4 56.0 C 87.9 51.3 96.8 51.3 101.2 56.0 C 105.7 60.7 114.6 60.7 119.1 56.0 C 123.6 51.3 132.5 51.3 137.0 56.0 C 141.4 60.7 150.3 60.7 154.8 56.0 " fill="none" stroke="#d2d4d8" stroke-width="1.5" stroke-opacity="0.34"/><path d="M 12.0 65.4 C 16.5 60.7 25.4 60.7 29.9 65.4 C 34.3 70.1 43.2 70.1 47.7 65.4 C 52.2 60.7 61.1 60.7 65.6 65.4 C 70.0 70.1 78.9 70.1 83.4 65.4 C 87.9 60.7 96.8 60.7 101.2 65.4 C 105.7 70.1 114.6 70.1 119.1 65.4 C 123.6 60.7 132.5 60.7 137.0 65.4 C 141.4 70.1 150.3 70.1 154.8 65.4 " fill="none" stroke="#d2d4d8" stroke-width="1.5" stroke-opacity="0.34"/><path d="M 12.0 74.8 C 16.5 70.1 25.4 70.1 29.9 74.8 C 34.3 79.5 43.2 79.5 47.7 74.8 C 52.2 70.1 61.1 70.1 65.6 74.8 C 70.0 79.5 78.9 79.5 83.4 74.8 C 87.9 70.1 96.8 70.1 101.2 74.8 C 105.7 79.5 114.6 79.5 119.1 74.8 C 123.6 70.1 132.5 70.1 137.0 74.8 C 141.4 79.5 150.3 79.5 154.8 74.8 " fill="none" stroke="#d2d4d8" stroke-width="1.5" stroke-opacity="0.34"/><path d="M 12.0 84.2 C 16.5 79.5 25.4 79.5 29.9 84.2 C 34.3 88.9 43.2 88.9 47.7 84.2 C 52.2 79.5 61.1 79.5 65.6 84.2 C 70.0 88.9 78.9 88.9 83.4 84.2 C 87.9 79.5 96.8 79.5 101.2 84.2 C 105.7 88.9 114.6 88.9 119.1 84.2 C 123.6 79.5 132.5 79.5 137.0 84.2 C 141.4 88.9 150.3 88.9 154.8 84.2 " fill="none" stroke="#d2d4d8" stroke-width="1.5" stroke-opacity="0.34"/><path d="M 12.0 93.6 C 16.5 88.9 25.4 88.9 29.9 93.6 C 34.3 98.3 43.2 98.3 47.7 93.6 C 52.2 88.9 61.1 88.9 65.6 93.6 C 70.0 98.3 78.9 98.3 83.4 93.6 C 87.9 88.9 96.8 88.9 101.2 93.6 C 105.7 98.3 114.6 98.3 119.1 93.6 C 123.6 88.9 132.5 88.9 137.0 93.6 C 141.4 98.3 150.3 98.3 154.8 93.6 " fill="none" stroke="#d2d4d8" stroke-width="1.5" stroke-opacity="0.34"/><path d="M 12.0 103.0 C 16.5 98.3 25.4 98.3 29.9 103.0 C 34.3 107.7 43.2 107.7 47.7 103.0 C 52.2 98.3 61.1 98.3 65.6 103.0 C 70.0 107.7 78.9 107.7 83.4 103.0 C 87.9 98.3 96.8 98.3 101.2 103.0 C 105.7 107.7 114.6 107.7 119.1 103.0 C 123.6 98.3 132.5 98.3 137.0 103.0 C 141.4 107.7 150.3 107.7 154.8 103.0 " fill="none" stroke="#d2d4d8" stroke-width="1.5" stroke-opacity="0.34"/><path d="M 12.0 112.4 C 16.5 107.7 25.4 107.7 29.9 112.4 C 34.3 117.1 43.2 117.1 47.7 112.4 C 52.2 107.7 61.1 107.7 65.6 112.4 C 70.0 117.1 78.9 117.1 83.4 112.4 C 87.9 107.7 96.8 107.7 101.2 112.4 C 105.7 117.1 114.6 117.1 119.1 112.4 C 123.6 107.7 132.5 107.7 137.0 112.4 C 141.4 117.1 150.3 117.1 154.8 112.4 " fill="none" stroke="#d2d4d8" stroke-width="1.5" stroke-opacity="0.34"/><path d="M 12.0 121.8 C 16.5 117.1 25.4 117.1 29.9 121.8 C 34.3 126.5 43.2 126.5 47.7 121.8 C 52.2 117.1 61.1 117.1 65.6 121.8 C 70.0 126.5 78.9 126.5 83.4 121.8 C 87.9 117.1 96.8 117.1 101.2 121.8 C 105.7 126.5 114.6 126.5 119.1 121.8 C 123.6 117.1 132.5 117.1 137.0 121.8 C 141.4 126.5 150.3 126.5 154.8 121.8 " fill="none" stroke="#d2d4d8" stroke-width="1.5" stroke-opacity="0.34"/><path d="M 12.0 131.2 C 16.5 126.5 25.4 126.5 29.9 131.2 C 34.3 135.9 43.2 135.9 47.7 131.2 C 52.2 126.5 61.1 126.5 65.6 131.2 C 70.0 135.9 78.9 135.9 83.4 131.2 C 87.9 126.5 96.8 126.5 101.2 131.2 C 105.7 135.9 114.6 135.9 119.1 131.2 C 123.6 126.5 132.5 126.5 137.0 131.2 C 141.4 135.9 150.3 135.9 154.8 131.2 " fill="none" stroke="#d2d4d8" stroke-width="1.5" stroke-opacity="0.34"/><path d="M 12.0 140.6 C 16.5 135.9 25.4 135.9 29.9 140.6 C 34.3 145.3 43.2 145.3 47.7 140.6 C 52.2 135.9 61.1 135.9 65.6 140.6 C 70.0 145.3 78.9 145.3 83.4 140.6 C 87.9 135.9 96.8 135.9 101.2 140.6 C 105.7 145.3 114.6 145.3 119.1 140.6 C 123.6 135.9 132.5 135.9 137.0 140.6 C 141.4 145.3 150.3 145.3 154.8 140.6 " fill="none" stroke="#d2d4d8" stroke-width="1.5" stroke-opacity="0.34"/><path d="M 12.0 150.0 C 16.5 145.3 25.4 145.3 29.9 150.0 C 34.3 154.7 43.2 154.7 47.7 150.0 C 52.2 145.3 61.1 145.3 65.6 150.0 C 70.0 154.7 78.9 154.7 83.4 150.0 C 87.9 145.3 96.8 145.3 101.2 150.0 C 105.7 154.7 114.6 154.7 119.1 150.0 C 123.6 145.3 132.5 145.3 137.0 150.0 C 141.4 154.7 150.3 154.7 154.8 150.0 " fill="none" stroke="#d2d4d8" stroke-width="1.5" stroke-opacity="0.34"/><path d="M 12.0 159.4 C 16.5 154.7 25.4 154.7 29.9 159.4 C 34.3 164.1 43.2 164.1 47.7 159.4 C 52.2 154.7 61.1 154.7 65.6 159.4 C 70.0 164.1 78.9 164.1 83.4 159.4 C 87.9 154.7 96.8 154.7 101.2 159.4 C 105.7 164.1 114.6 164.1 119.1 159.4 C 123.6 154.7 132.5 154.7 137.0 159.4 C 141.4 164.1 150.3 164.1 154.8 159.4 " fill="none" stroke="#d2d4d8" stroke-width="1.5" stroke-opacity="0.34"/><path d="M 12.0 168.8 C 16.5 164.1 25.4 164.1 29.9 168.8 C 34.3 173.5 43.2 173.5 47.7 168.8 C 52.2 164.1 61.1 164.1 65.6 168.8 C 70.0 173.5 78.9 173.5 83.4 168.8 C 87.9 164.1 96.8 164.1 101.2 168.8 C 105.7 173.5 114.6 173.5 119.1 168.8 C 123.6 164.1 132.5 164.1 137.0 168.8 C 141.4 173.5 150.3 173.5 154.8 168.8 " fill="none" stroke="#d2d4d8" stroke-width="1.5" stroke-opacity="0.34"/><path d="M 12.0 178.2 C 16.5 173.5 25.4 173.5 29.9 178.2 C 34.3 182.9 43.2 182.9 47.7 178.2 C 52.2 173.5 61.1 173.5 65.6 178.2 C 70.0 182.9 78.9 182.9 83.4 178.2 C 87.9 173.5 96.8 173.5 101.2 178.2 C 105.7 182.9 114.6 182.9 119.1 178.2 C 123.6 173.5 132.5 173.5 137.0 178.2 C 141.4 182.9 150.3 182.9 154.8 178.2 " fill="none" stroke="#d2d4d8" stroke-width="1.5" stroke-opacity="0.34"/><path d="M 12.0 187.6 C 16.5 182.9 25.4 182.9 29.9 187.6 C 34.3 192.3 43.2 192.3 47.7 187.6 C 52.2 182.9 61.1 182.9 65.6 187.6 C 70.0 192.3 78.9 192.3 83.4 187.6 C 87.9 182.9 96.8 182.9 101.2 187.6 C 105.7 192.3 114.6 192.3 119.1 187.6 C 123.6 182.9 132.5 182.9 137.0 187.6 C 141.4 192.3 150.3 192.3 154.8 187.6 " fill="none" stroke="#d2d4d8" stroke-width="1.5" stroke-opacity="0.34"/><path d="M 12.0 197.0 C 16.5 192.3 25.4 192.3 29.9 197.0 C 34.3 201.7 43.2 201.7 47.7 197.0 C 52.2 192.3 61.1 192.3 65.6 197.0 C 70.0 201.7 78.9 201.7 83.4 197.0 C 87.9 192.3 96.8 192.3 101.2 197.0 C 105.7 201.7 114.6 201.7 119.1 197.0 C 123.6 192.3 132.5 192.3 137.0 197.0 C 141.4 201.7 150.3 201.7 154.8 197.0 " fill="none" stroke="#d2d4d8" stroke-width="1.5" stroke-opacity="0.34"/><path d="M 12.0 206.4 C 16.5 201.7 25.4 201.7 29.9 206.4 C 34.3 211.1 43.2 211.1 47.7 206.4 C 52.2 201.7 61.1 201.7 65.6 206.4 C 70.0 211.1 78.9 211.1 83.4 206.4 C 87.9 201.7 96.8 201.7 101.2 206.4 C 105.7 211.1 114.6 211.1 119.1 206.4 C 123.6 201.7 132.5 201.7 137.0 206.4 C 141.4 211.1 150.3 211.1 154.8 206.4 " fill="none" stroke="#d2d4d8" stroke-width="1.5" stroke-opacity="0.34"/><path d="M 12.0 215.8 C 16.5 211.1 25.4 211.1 29.9 215.8 C 34.3 220.5 43.2 220.5 47.7 215.8 C 52.2 211.1 61.1 211.1 65.6 215.8 C 70.0 220.5 78.9 220.5 83.4 215.8 C 87.9 211.1 96.8 211.1 101.2 215.8 C 105.7 220.5 114.6 220.5 119.1 215.8 C 123.6 211.1 132.5 211.1 137.0 215.8 C 141.4 220.5 150.3 220.5 154.8 215.8 " fill="none" stroke="#d2d4d8" stroke-width="1.5" stroke-opacity="0.34"/><path d="M 12.0 225.2 C 16.5 220.5 25.4 220.5 29.9 225.2 C 34.3 229.9 43.2 229.9 47.7 225.2 C 52.2 220.5 61.1 220.5 65.6 225.2 C 70.0 229.9 78.9 229.9 83.4 225.2 C 87.9 220.5 96.8 220.5 101.2 225.2 C 105.7 229.9 114.6 229.9 119.1 225.2 C 123.6 220.5 132.5 220.5 137.0 225.2 C 141.4 229.9 150.3 229.9 154.8 225.2 " fill="none" stroke="#d2d4d8" stroke-width="1.5" stroke-opacity="0.34"/><path d="M 12.0 234.6 C 16.5 229.9 25.4 229.9 29.9 234.6 C 34.3 239.3 43.2 239.3 47.7 234.6 C 52.2 229.9 61.1 229.9 65.6 234.6 C 70.0 239.3 78.9 239.3 83.4 234.6 C 87.9 229.9 96.8 229.9 101.2 234.6 C 105.7 239.3 114.6 239.3 119.1 234.6 C 123.6 229.9 132.5 229.9 137.0 234.6 C 141.4 239.3 150.3 239.3 154.8 234.6 " fill="none" stroke="#d2d4d8" stroke-width="1.5" stroke-opacity="0.34"/><path d="M 12.0 244.0 C 16.5 239.3 25.4 239.3 29.9 244.0 C 34.3 248.7 43.2 248.7 47.7 244.0 C 52.2 239.3 61.1 239.3 65.6 244.0 C 70.0 248.7 78.9 248.7 83.4 244.0 C 87.9 239.3 96.8 239.3 101.2 244.0 C 105.7 248.7 114.6 248.7 119.1 244.0 C 123.6 239.3 132.5 239.3 137.0 244.0 C 141.4 248.7 150.3 248.7 154.8 244.0 " fill="none" stroke="#d2d4d8" stroke-width="1.5" stroke-opacity="0.34"/><path d="M 12.0 253.4 C 16.5 248.7 25.4 248.7 29.9 253.4 C 34.3 258.1 43.2 258.1 47.7 253.4 C 52.2 248.7 61.1 248.7 65.6 253.4 C 70.0 258.1 78.9 258.1 83.4 253.4 C 87.9 248.7 96.8 248.7 101.2 253.4 C 105.7 258.1 114.6 258.1 119.1 253.4 C 123.6 248.7 132.5 248.7 137.0 253.4 C 141.4 258.1 150.3 258.1 154.8 253.4 " fill="none" stroke="#d2d4d8" stroke-width="1.5" stroke-opacity="0.34"/><path d="M 12.0 262.8 C 16.5 258.1 25.4 258.1 29.9 262.8 C 34.3 267.5 43.2 267.5 47.7 262.8 C 52.2 258.1 61.1 258.1 65.6 262.8 C 70.0 267.5 78.9 267.5 83.4 262.8 C 87.9 258.1 96.8 258.1 101.2 262.8 C 105.7 267.5 114.6 267.5 119.1 262.8 C 123.6 258.1 132.5 258.1 137.0 262.8 C 141.4 267.5 150.3 267.5 154.8 262.8 " fill="none" stroke="#d2d4d8" stroke-width="1.5" stroke-opacity="0.34"/><path d="M 12.0 272.2 C 16.5 267.5 25.4 267.5 29.9 272.2 C 34.3 276.9 43.2 276.9 47.7 272.2 C 52.2 267.5 61.1 267.5 65.6 272.2 C 70.0 276.9 78.9 276.9 83.4 272.2 C 87.9 267.5 96.8 267.5 101.2 272.2 C 105.7 276.9 114.6 276.9 119.1 272.2 C 123.6 267.5 132.5 267.5 137.0 272.2 C 141.4 276.9 150.3 276.9 154.8 272.2 " fill="none" stroke="#d2d4d8" stroke-width="1.5" stroke-opacity="0.34"/><path d="M 12.0 281.6 C 16.5 276.9 25.4 276.9 29.9 281.6 C 34.3 286.3 43.2 286.3 47.7 281.6 C 52.2 276.9 61.1 276.9 65.6 281.6 C 70.0 286.3 78.9 286.3 83.4 281.6 C 87.9 276.9 96.8 276.9 101.2 281.6 C 105.7 286.3 114.6 286.3 119.1 281.6 C 123.6 276.9 132.5 276.9 137.0 281.6 C 141.4 286.3 150.3 286.3 154.8 281.6 " fill="none" stroke="#d2d4d8" stroke-width="1.5" stroke-opacity="0.34"/><path d="M 12.0 291.0 C 16.5 286.3 25.4 286.3 29.9 291.0 C 34.3 295.7 43.2 295.7 47.7 291.0 C 52.2 286.3 61.1 286.3 65.6 291.0 C 70.0 295.7 78.9 295.7 83.4 291.0 C 87.9 286.3 96.8 286.3 101.2 291.0 C 105.7 295.7 114.6 295.7 119.1 291.0 C 123.6 286.3 132.5 286.3 137.0 291.0 C 141.4 295.7 150.3 295.7 154.8 291.0 " fill="none" stroke="#d2d4d8" stroke-width="1.5" stroke-opacity="0.34"/><path d="M 12.0 300.4 C 16.5 295.7 25.4 295.7 29.9 300.4 C 34.3 305.1 43.2 305.1 47.7 300.4 C 52.2 295.7 61.1 295.7 65.6 300.4 C 70.0 305.1 78.9 305.1 83.4 300.4 C 87.9 295.7 96.8 295.7 101.2 300.4 C 105.7 305.1 114.6 305.1 119.1 300.4 C 123.6 295.7 132.5 295.7 137.0 300.4 C 141.4 305.1 150.3 305.1 154.8 300.4 " fill="none" stroke="#d2d4d8" stroke-width="1.5" stroke-opacity="0.34"/><path d="M 12.0 309.8 C 16.5 305.1 25.4 305.1 29.9 309.8 C 34.3 314.5 43.2 314.5 47.7 309.8 C 52.2 305.1 61.1 305.1 65.6 309.8 C 70.0 314.5 78.9 314.5 83.4 309.8 C 87.9 305.1 96.8 305.1 101.2 309.8 C 105.7 314.5 114.6 314.5 119.1 309.8 C 123.6 305.1 132.5 305.1 137.0 309.8 C 141.4 314.5 150.3 314.5 154.8 309.8 " fill="none" stroke="#d2d4d8" stroke-width="1.5" stroke-opacity="0.34"/><path d="M 12.0 319.2 C 16.5 314.5 25.4 314.5 29.9 319.2 C 34.3 323.9 43.2 323.9 47.7 319.2 C 52.2 314.5 61.1 314.5 65.6 319.2 C 70.0 323.9 78.9 323.9 83.4 319.2 C 87.9 314.5 96.8 314.5 101.2 319.2 C 105.7 323.9 114.6 323.9 119.1 319.2 C 123.6 314.5 132.5 314.5 137.0 319.2 C 141.4 323.9 150.3 323.9 154.8 319.2 " fill="none" stroke="#d2d4d8" stroke-width="1.5" stroke-opacity="0.34"/><path d="M 12.0 328.6 C 16.5 323.9 25.4 323.9 29.9 328.6 C 34.3 333.3 43.2 333.3 47.7 328.6 C 52.2 323.9 61.1 323.9 65.6 328.6 C 70.0 333.3 78.9 333.3 83.4 328.6 C 87.9 323.9 96.8 323.9 101.2 328.6 C 105.7 333.3 114.6 333.3 119.1 328.6 C 123.6 323.9 132.5 323.9 137.0 328.6 C 141.4 333.3 150.3 333.3 154.8 328.6 " fill="none" stroke="#d2d4d8" stroke-width="1.5" stroke-opacity="0.34"/><path d="M 12.0 338.0 C 16.5 333.3 25.4 333.3 29.9 338.0 C 34.3 342.7 43.2 342.7 47.7 338.0 C 52.2 333.3 61.1 333.3 65.6 338.0 C 70.0 342.7 78.9 342.7 83.4 338.0 C 87.9 333.3 96.8 333.3 101.2 338.0 C 105.7 342.7 114.6 342.7 119.1 338.0 C 123.6 333.3 132.5 333.3 137.0 338.0 C 141.4 342.7 150.3 342.7 154.8 338.0 " fill="none" stroke="#d2d4d8" stroke-width="1.5" stroke-opacity="0.34"/><path d="M 12.0 347.4 C 16.5 342.7 25.4 342.7 29.9 347.4 C 34.3 352.1 43.2 352.1 47.7 347.4 C 52.2 342.7 61.1 342.7 65.6 347.4 C 70.0 352.1 78.9 352.1 83.4 347.4 C 87.9 342.7 96.8 342.7 101.2 347.4 C 105.7 352.1 114.6 352.1 119.1 347.4 C 123.6 342.7 132.5 342.7 137.0 347.4 C 141.4 352.1 150.3 352.1 154.8 347.4 " fill="none" stroke="#d2d4d8" stroke-width="1.5" stroke-opacity="0.34"/>
<text x="14" y="30" fill="#2a2a2e" font-family="sans-serif" font-size="13" font-weight="700">STRAITS EAST</text>
<text x="14" y="44" fill="#888d96" font-family="sans-serif" font-size="9">VOICES 1-8</text>
<text x="38.0" y="30.0" fill="#888d96" font-family="sans-serif" font-size="8" text-anchor="middle">LVL</text>
<text x="81.0" y="30.0" fill="#888d96" font-family="sans-serif" font-size="8" text-anchor="middle">ATT</text>
<text x="124.0" y="30.0" fill="#888d96" font-family="sans-serif" font-size="8" text-anchor="middle">MOD</text>
<text x="167.0" y="30.0" fill="#888d96" font-family="sans-serif" font-size="8" text-anchor="middle">GATE</text>
<text x="210.0" y="30.0" fill="#888d96" font-family="sans-serif" font-size="8" text-anchor="middle">CV</text>
<text x="253.0" y="30.0" fill="#888d96" font-family="sans-serif" font-size="8" text-anchor="middle">ACC</text>
<text x="296.0" y="30.0" fill="#888d96" font-family="sans-serif" font-size="8" text-anchor="middle">A·ATT</text>
<text x="339.0" y="30.0" fill="#888d96" font-family="sans-serif" font-size="8" text-anchor="middle">A·MOD</text>
<text x="382.0" y="30.0" fill="#888d96" font-family="sans-serif" font-size="8" text-anchor="middle">A·CV</text>
<g>
<line x1="7.0" y1="32.0" x2="7.0" y2="310.0" stroke="#2f8a6a" stroke-width="1.3" opacity="0.42"/><line x1="9.6" y1="32.0" x2="9.6" y2="310.0" stroke="#2f8a6a" stroke-width="0.7" opacity="0.21"/><path d="M4.4 42.0 L8.3 38.4 L12.2 42.0 L8.3 45.6 Z" fill="none" stroke="#2f8a6a" stroke-width="0.7" opacity="0.34"/><path d="M4.4 72.0 L8.3 68.4 L12.2 72.0 L8.3 75.6 Z" fill="none" stroke="#2f8a6a" stroke-width="0.7" opacity="0.34"/><path d="M4.4 102.0 L8.3 98.4 L12.2 102.0 L8.3 105.6 Z" fill="none" stroke="#2f8a6a" stroke-width="0.7" opacity="0.34"/><path d="M4.4 132.0 L8.3 128.4 L12.2 132.0 L8.3 135.6 Z" fill="none" stroke="#2f8a6a" stroke-width="0.7" opacity="0.34"/><path d="M4.4 162.0 L8.3 158.4 L12.2 162.0 L8.3 165.6 Z" fill="none" stroke="#2f8a6a" stroke-width="0.7" opacity="0.34"/><path d="M4.4 192.0 L8.3 188.4 L12.2 192.0 L8.3 195.6 Z" fill="none" stroke="#2f8a6a" stroke-width="0.7" opacity="0.34"/><path d="M4.4 222.0 L8.3 218.4 L12.2 222.0 L8.3 225.6 Z" fill="none" stroke="#2f8a6a" stroke-width="0.7" opacity="0.34"/><path d="M4.4 252.0 L8.3 248.4 L12.2 252.0 L8.3 255.6 Z" fill="none" stroke="#2f8a6a" stroke-width="0.7" opacity="0.34"/><path d="M4.4 282.0 L8.3 278.4 L12.2 282.0 L8.3 285.6 Z" fill="none" stroke="#2f8a6a" stroke-width="0.7" opacity="0.34"/>
<line x1="413.0" y1="32.0" x2="413.0" y2="310.0" stroke="#2f8a6a" stroke-width="1.3" opacity="0.42"/><line x1="415.6" y1="32.0" x2="415.6" y2="310.0" stroke="#2f8a6a" stroke-width="0.7" opacity="0.21"/><path d="M410.4 42.0 L414.3 38.4 L418.2 42.0 L414.3 45.6 Z" fill="none" stroke="#2f8a6a" stroke-width="0.7" opacity="0.34"/><path d="M410.4 72.0 L414.3 68.4 L418.2 72.0 L414.3 75.6 Z" fill="none" stroke="#2f8a6a" stroke-width="0.7" opacity="0.34"/><path d="M410.4 102.0 L414.3 98.4 L418.2 102.0 L414.3 105.6 Z" fill="none" stroke="#2f8a6a" stroke-width="0.7" opacity="0.34"/><path d="M410.4 132.0 L414.3 128.4 L418.2 132.0 L414.3 135.6 Z" fill="none" stroke="#2f8a6a" stroke-width="0.7" opacity="0.34"/><path d="M410.4 162.0 L414.3 158.4 L418.2 162.0 L414.3 165.6 Z" fill="none" stroke="#2f8a6a" stroke-width="0.7" opacity="0.34"/><path d="M410.4 192.0 L414.3 188.4 L418.2 192.0 L414.3 195.6 Z" fill="none" stroke="#2f8a6a" stroke-width="0.7" opacity="0.34"/><path d="M410.4 222.0 L414.3 218.4 L418.2 222.0 L414.3 225.6 Z" fill="none" stroke="#2f8a6a" stroke-width="0.7" opacity="0.34"/><path d="M410.4 252.0 L414.3 248.4 L418.2 252.0 L414.3 255.6 Z" fill="none" stroke="#2f8a6a" stroke-width="0.7" opacity="0.34"/><path d="M410.4 282.0 L414.3 278.4 L418.2 282.0 L414.3 285.6 Z" fill="none" stroke="#2f8a6a" stroke-width="0.7" opacity="0.34"/>
<text x="16.0" y="53.0" fill="#888d96" font-family="sans-serif" font-size="9" text-anchor="end">V2</text>
<circle cx="38.0" cy="50.0" r="8.0" fill="#d4d6d9" stroke="#a8aeb6" stroke-width="1.2"/>
<circle cx="81.0" cy="50.0" r="8.0" fill="#d4d6d9" stroke="#a8aeb6" stroke-width="1.2"/>
<circle cx="124.0" cy="50.0" r="9.0" fill="#dadce0" stroke="#9298a0" stroke-width="1.2"/>
<circle cx="167.0" cy="50.0" r="9.0" fill="#dadce0" stroke="#9298a0" stroke-width="1.2"/>
<circle cx="210.0" cy="50.0" r="9.0" fill="#dadce0" stroke="#9298a0" stroke-width="1.2"/>
<circle cx="253.0" cy="50.0" r="8.0" fill="#d4d6d9" stroke="#a8aeb6" stroke-width="1.2"/>
<circle cx="296.0" cy="50.0" r="8.0" fill="#d4d6d9" stroke="#a8aeb6" stroke-width="1.2"/>
<circle cx="339.0" cy="50.0" r="9.0" fill="#dadce0" stroke="#9298a0" stroke-width="1.2"/>
<circle cx="382.0" cy="50.0" r="9.0" fill="#dadce0" stroke="#9298a0" stroke-width="1.2"/>
<text x="16.0" y="88.0" fill="#888d96" font-family="sans-serif" font-size="9" text-anchor="end">V3</text>
<circle cx="38.0" cy="85.0" r="8.0" fill="#d4d6d9" stroke="#a8aeb6" stroke-width="1.2"/>
<circle cx="81.0" cy="85.0" r="8.0" fill="#d4d6d9" stroke="#a8aeb6" stroke-width="1.2"/>
<circle cx="124.0" cy="85.0" r="9.0" fill="#dadce0" stroke="#9298a0" stroke-width="1.2"/>
<circle cx="167.0" cy="85.0" r="9.0" fill="#dadce0" stroke="#9298a0" stroke-width="1.2"/>
<circle cx="210.0" cy="85.0" r="9.0" fill="#dadce0" stroke="#9298a0" stroke-width="1.2"/>
<circle cx="253.0" cy="85.0" r="8.0" fill="#d4d6d9" stroke="#a8aeb6" stroke-width="1.2"/>
<circle cx="296.0" cy="85.0" r="8.0" fill="#d4d6d9" stroke="#a8aeb6" stroke-width="1.2"/>
<circle cx="339.0" cy="85.0" r="9.0" fill="#dadce0" stroke="#9298a0" stroke-width="1.2"/>
<circle cx="382.0" cy="85.0" r="9.0" fill="#dadce0" stroke="#9298a0" stroke-width="1.2"/>
<text x="16.0" y="123.0" fill="#888d96" font-family="sans-serif" font-size="9" text-anchor="end">V4</text>
<circle cx="38.0" cy="120.0" r="8.0" fill="#d4d6d9" stroke="#a8aeb6" stroke-width="1.2"/>
<circle cx="81.0" cy="120.0" r="8.0" fill="#d4d6d9" stroke="#a8aeb6" stroke-width="1.2"/>
<circle cx="124.0" cy="120.0" r="9.0" fill="#dadce0" stroke="#9298a0" stroke-width="1.2"/>
<circle cx="167.0" cy="120.0" r="9.0" fill="#dadce0" stroke="#9298a0" stroke-width="1.2"/>
<circle cx="210.0" cy="120.0" r="9.0" fill="#dadce0" stroke="#9298a0" stroke-width="1.2"/>
<circle cx="253.0" cy="120.0" r="8.0" fill="#d4d6d9" stroke="#a8aeb6" stroke-width="1.2"/>
<circle cx="296.0" cy="120.0" r="8.0" fill="#d4d6d9" stroke="#a8aeb6" stroke-width="1.2"/>
<circle cx="339.0" cy="120.0" r="9.0" fill="#dadce0" stroke="#9298a0" stroke-width="1.2"/>
<circle cx="382.0" cy="120.0" r="9.0" fill="#dadce0" stroke="#9298a0" stroke-width="1.2"/>
<text x="16.0" y="158.0" fill="#888d96" font-family="sans-serif" font-size="9" text-anchor="end">V5</text>
<circle cx="38.0" cy="155.0" r="8.0" fill="#d4d6d9" stroke="#a8aeb6" stroke-width="1.2"/>
<circle cx="81.0" cy="155.0" r="8.0" fill="#d4d6d9" stroke="#a8aeb6" stroke-width="1.2"/>
<circle cx="124.0" cy="155.0" r="9.0" fill="#dadce0" stroke="#9298a0" stroke-width="1.2"/>
<circle cx="167.0" cy="155.0" r="9.0" fill="#dadce0" stroke="#9298a0" stroke-width="1.2"/>
<circle cx="210.0" cy="155.0" r="9.0" fill="#dadce0" stroke="#9298a0" stroke-width="1.2"/>
<circle cx="253.0" cy="155.0" r="8.0" fill="#d4d6d9" stroke="#a8aeb6" stroke-width="1.2"/>
<circle cx="296.0" cy="155.0" r="8.0" fill="#d4d6d9" stroke="#a8aeb6" stroke-width="1.2"/>
<circle cx="339.0" cy="155.0" r="9.0" fill="#dadce0" stroke="#9298a0" stroke-width="1.2"/>
<circle cx="382.0" cy="155.0" r="9.0" fill="#dadce0" stroke="#9298a0" stroke-width="1.2"/>
<text x="16.0" y="193.0" fill="#888d96" font-family="sans-serif" font-size="9" text-anchor="end">V6</text>
<circle cx="38.0" cy="190.0" r="8.0" fill="#d4d6d9" stroke="#a8aeb6" stroke-width="1.2"/>
<circle cx="81.0" cy="190.0" r="8.0" fill="#d4d6d9" stroke="#a8aeb6" stroke-width="1.2"/>
<circle cx="124.0" cy="190.0" r="9.0" fill="#dadce0" stroke="#9298a0" stroke-width="1.2"/>
<circle cx="167.0" cy="190.0" r="9.0" fill="#dadce0" stroke="#9298a0" stroke-width="1.2"/>
<circle cx="210.0" cy="190.0" r="9.0" fill="#dadce0" stroke="#9298a0" stroke-width="1.2"/>
<circle cx="253.0" cy="190.0" r="8.0" fill="#d4d6d9" stroke="#a8aeb6" stroke-width="1.2"/>
<circle cx="296.0" cy="190.0" r="8.0" fill="#d4d6d9" stroke="#a8aeb6" stroke-width="1.2"/>
<circle cx="339.0" cy="190.0" r="9.0" fill="#dadce0" stroke="#9298a0" stroke-width="1.2"/>
<circle cx="382.0" cy="190.0" r="9.0" fill="#dadce0" stroke="#9298a0" stroke-width="1.2"/>
<text x="16.0" y="228.0" fill="#888d96" font-family="sans-serif" font-size="9" text-anchor="end">V7</text>
<circle cx="38.0" cy="225.0" r="8.0" fill="#d4d6d9" stroke="#a8aeb6" stroke-width="1.2"/>
<circle cx="81.0" cy="225.0" r="8.0" fill="#d4d6d9" stroke="#a8aeb6" stroke-width="1.2"/>
<circle cx="124.0" cy="225.0" r="9.0" fill="#dadce0" stroke="#9298a0" stroke-width="1.2"/>
<circle cx="167.0" cy="225.0" r="9.0" fill="#dadce0" stroke="#9298a0" stroke-width="1.2"/>
<circle cx="210.0" cy="225.0" r="9.0" fill="#dadce0" stroke="#9298a0" stroke-width="1.2"/>
<circle cx="253.0" cy="225.0" r="8.0" fill="#d4d6d9" stroke="#a8aeb6" stroke-width="1.2"/>
<circle cx="296.0" cy="225.0" r="8.0" fill="#d4d6d9" stroke="#a8aeb6" stroke-width="1.2"/>
<circle cx="339.0" cy="225.0" r="9.0" fill="#dadce0" stroke="#9298a0" stroke-width="1.2"/>
<circle cx="382.0" cy="225.0" r="9.0" fill="#dadce0" stroke="#9298a0" stroke-width="1.2"/>
<text x="16.0" y="263.0" fill="#888d96" font-family="sans-serif" font-size="9" text-anchor="end">V8</text>
<circle cx="38.0" cy="260.0" r="8.0" fill="#d4d6d9" stroke="#a8aeb6" stroke-width="1.2"/>
<circle cx="81.0" cy="260.0" r="8.0" fill="#d4d6d9" stroke="#a8aeb6" stroke-width="1.2"/>
<circle cx="124.0" cy="260.0" r="9.0" fill="#dadce0" stroke="#9298a0" stroke-width="1.2"/>
<circle cx="167.0" cy="260.0" r="9.0" fill="#dadce0" stroke="#9298a0" stroke-width="1.2"/>
<circle cx="210.0" cy="260.0" r="9.0" fill="#dadce0" stroke="#9298a0" stroke-width="1.2"/>
<circle cx="253.0" cy="260.0" r="8.0" fill="#d4d6d9" stroke="#a8aeb6" stroke-width="1.2"/>
<circle cx="296.0" cy="260.0" r="8.0" fill="#d4d6d9" stroke="#a8aeb6" stroke-width="1.2"/>
<circle cx="339.0" cy="260.0" r="9.0" fill="#dadce0" stroke="#9298a0" stroke-width="1.2"/>
<circle cx="382.0" cy="260.0" r="9.0" fill="#dadce0" stroke="#9298a0" stroke-width="1.2"/>
<circle cx="124.0" cy="300.0" r="9.0" fill="#dadce0" stroke="#9298a0" stroke-width="1.2"/>
<circle cx="167.0" cy="300.0" r="9.0" fill="#dadce0" stroke="#9298a0" stroke-width="1.2"/>
<circle cx="210.0" cy="300.0" r="9.0" fill="#dadce0" stroke="#9298a0" stroke-width="1.2"/>
<circle cx="339.0" cy="300.0" r="9.0" fill="#dadce0" stroke="#9298a0" stroke-width="1.2"/>
</g>
<g id="components">
<circle id="param_knob_0" cx="38.00" cy="50.00" r="0.5" fill="none" stroke="none"/>
<circle id="param_att_0" cx="81.00" cy="50.00" r="0.5" fill="none" stroke="none"/>
<circle id="input_modcv_0" cx="124.00" cy="50.00" r="0.5" fill="none" stroke="none"/>
<circle id="output_gate_0" cx="167.00" cy="50.00" r="0.5" fill="none" stroke="none"/>
<circle id="output_cv_0" cx="210.00" cy="50.00" r="0.5" fill="none" stroke="none"/>
<circle id="param_accknob_0" cx="253.00" cy="50.00" r="0.5" fill="none" stroke="none"/>
<circle id="param_accatt_0" cx="296.00" cy="50.00" r="0.5" fill="none" stroke="none"/>
<circle id="input_accmodcv_0" cx="339.00" cy="50.00" r="0.5" fill="none" stroke="none"/>
<circle id="output_acc_0" cx="382.00" cy="50.00" r="0.5" fill="none" stroke="none"/>
<circle id="param_knob_1" cx="38.00" cy="85.00" r="0.5" fill="none" stroke="none"/>
<circle id="param_att_1" cx="81.00" cy="85.00" r="0.5" fill="none" stroke="none"/>
<circle id="input_modcv_1" cx="124.00" cy="85.00" r="0.5" fill="none" stroke="none"/>
<circle id="output_gate_1" cx="167.00" cy="85.00" r="0.5" fill="none" stroke="none"/>
<circle id="output_cv_1" cx="210.00" cy="85.00" r="0.5" fill="none" stroke="none"/>
<circle id="param_accknob_1" cx="253.00" cy="85.00" r="0.5" fill="none" stroke="none"/>
<circle id="param_accatt_1" cx="296.00" cy="85.00" r="0.5" fill="none" stroke="none"/>
<circle id="input_accmodcv_1" cx="339.00" cy="85.00" r="0.5" fill="none" stroke="none"/>
<circle id="output_acc_1" cx="382.00" cy="85.00" r="0.5" fill="none" stroke="none"/>
<circle id="param_knob_2" cx="38.00" cy="120.00" r="0.5" fill="none" stroke="none"/>
<circle id="param_att_2" cx="81.00" cy="120.00" r="0.5" fill="none" stroke="none"/>
<circle id="input_modcv_2" cx="124.00" cy="120.00" r="0.5" fill="none" stroke="none"/>
<circle id="output_gate_2" cx="167.00" cy="120.00" r="0.5" fill="none" stroke="none"/>
<circle id="output_cv_2" cx="210.00" cy="120.00" r="0.5" fill="none" stroke="none"/>
<circle id="param_accknob_2" cx="253.00" cy="120.00" r="0.5" fill="none" stroke="none"/>
<circle id="param_accatt_2" cx="296.00" cy="120.00" r="0.5" fill="none" stroke="none"/>
<circle id="input_accmodcv_2" cx="339.00" cy="120.00" r="0.5" fill="none" stroke="none"/>
<circle id="output_acc_2" cx="382.00" cy="120.00" r="0.5" fill="none" stroke="none"/>
<circle id="param_knob_3" cx="38.00" cy="155.00" r="0.5" fill="none" stroke="none"/>
<circle id="param_att_3" cx="81.00" cy="155.00" r="0.5" fill="none" stroke="none"/>
<circle id="input_modcv_3" cx="124.00" cy="155.00" r="0.5" fill="none" stroke="none"/>
<circle id="output_gate_3" cx="167.00" cy="155.00" r="0.5" fill="none" stroke="none"/>
<circle id="output_cv_3" cx="210.00" cy="155.00" r="0.5" fill="none" stroke="none"/>
<circle id="param_accknob_3" cx="253.00" cy="155.00" r="0.5" fill="none" stroke="none"/>
<circle id="param_accatt_3" cx="296.00" cy="155.00" r="0.5" fill="none" stroke="none"/>
<circle id="input_accmodcv_3" cx="339.00" cy="155.00" r="0.5" fill="none" stroke="none"/>
<circle id="output_acc_3" cx="382.00" cy="155.00" r="0.5" fill="none" stroke="none"/>
<circle id="param_knob_4" cx="38.00" cy="190.00" r="0.5" fill="none" stroke="none"/>
<circle id="param_att_4" cx="81.00" cy="190.00" r="0.5" fill="none" stroke="none"/>
<circle id="input_modcv_4" cx="124.00" cy="190.00" r="0.5" fill="none" stroke="none"/>
<circle id="output_gate_4" cx="167.00" cy="190.00" r="0.5" fill="none" stroke="none"/>
<circle id="output_cv_4" cx="210.00" cy="190.00" r="0.5" fill="none" stroke="none"/>
<circle id="param_accknob_4" cx="253.00" cy="190.00" r="0.5" fill="none" stroke="none"/>
<circle id="param_accatt_4" cx="296.00" cy="190.00" r="0.5" fill="none" stroke="none"/>
<circle id="input_accmodcv_4" cx="339.00" cy="190.00" r="0.5" fill="none" stroke="none"/>
<circle id="output_acc_4" cx="382.00" cy="190.00" r="0.5" fill="none" stroke="none"/>
<circle id="param_knob_5" cx="38.00" cy="225.00" r="0.5" fill="none" stroke="none"/>
<circle id="param_att_5" cx="81.00" cy="225.00" r="0.5" fill="none" stroke="none"/>
<circle id="input_modcv_5" cx="124.00" cy="225.00" r="0.5" fill="none" stroke="none"/>
<circle id="output_gate_5" cx="167.00" cy="225.00" r="0.5" fill="none" stroke="none"/>
<circle id="output_cv_5" cx="210.00" cy="225.00" r="0.5" fill="none" stroke="none"/>
<circle id="param_accknob_5" cx="253.00" cy="225.00" r="0.5" fill="none" stroke="none"/>
<circle id="param_accatt_5" cx="296.00" cy="225.00" r="0.5" fill="none" stroke="none"/>
<circle id="input_accmodcv_5" cx="339.00" cy="225.00" r="0.5" fill="none" stroke="none"/>
<circle id="output_acc_5" cx="382.00" cy="225.00" r="0.5" fill="none" stroke="none"/>
<circle id="param_knob_6" cx="38.00" cy="260.00" r="0.5" fill="none" stroke="none"/>
<circle id="param_att_6" cx="81.00" cy="260.00" r="0.5" fill="none" stroke="none"/>
<circle id="input_modcv_6" cx="124.00" cy="260.00" r="0.5" fill="none" stroke="none"/>
<circle id="output_gate_6" cx="167.00" cy="260.00" r="0.5" fill="none" stroke="none"/>
<circle id="output_cv_6" cx="210.00" cy="260.00" r="0.5" fill="none" stroke="none"/>
<circle id="param_accknob_6" cx="253.00" cy="260.00" r="0.5" fill="none" stroke="none"/>
<circle id="param_accatt_6" cx="296.00" cy="260.00" r="0.5" fill="none" stroke="none"/>
<circle id="input_accmodcv_6" cx="339.00" cy="260.00" r="0.5" fill="none" stroke="none"/>
<circle id="output_acc_6" cx="382.00" cy="260.00" r="0.5" fill="none" stroke="none"/>
<circle id="input_global_modcv" cx="124.00" cy="300.00" r="0.5" fill="none" stroke="none"/>
<circle id="output_global_gate" cx="167.00" cy="300.00" r="0.5" fill="none" stroke="none"/>
<circle id="output_global_cv" cx="210.00" cy="300.00" r="0.5" fill="none" stroke="none"/>
<circle id="input_global_acc_cv" cx="339.00" cy="300.00" r="0.5" fill="none" stroke="none"/>
<circle id="light_connect" cx="210.00" cy="360.00" r="0.5" fill="none" stroke="none"/>
</g>
</svg>