<svg xmlns="http://www.w3.org/2000/svg" width="330.0" height="379.43" viewBox="0 0 330.0 379.43">
<rect width="330.0" height="379.43" fill="#dcdcdc"/>
<rect x="0" y="0" width="330.0" height="3.54" fill="#d4001a"/>
<circle cx="318.19" cy="17.72" r="4.72" fill="#d4001a"/>
<line x1="0" y1="44.29" x2="330.0" y2="44.29" stroke="#bcbcbc" stroke-width="1" opacity="0.7"/>
<rect x="17.72" y="41.34" width="50.2" height="265.75" rx="4.43" fill="#d0d0d0" stroke="#bcbcbc" stroke-width="1"/>
<rect x="17.72" y="41.34" width="50.2" height="6.5" fill="#1c7a70" opacity="0.5"/>
<rect x="262.09" y="41.34" width="50.2" height="265.75" rx="4.43" fill="#d0d0d0" stroke="#bcbcbc" stroke-width="1"/>
<rect x="262.09" y="41.34" width="50.2" height="6.5" fill="#a07a00" opacity="0.5"/>
<circle cx="29.53" cy="59.06" r="8.86" fill="#e8e2d6" stroke="#1c7a70" stroke-width="1.25"/>
<line x1="29.53" y1="59.06" x2="29.53" y2="51.97" stroke="#1c7a70" stroke-width="1"/>
<circle id="param_rest_0" cx="29.53" cy="59.06" r="0.5" fill="none" stroke="none"/>
<circle cx="273.9" cy="59.06" r="8.86" fill="#e8e2d6" stroke="#a07a00" stroke-width="1.25"/>
<line x1="273.9" y1="59.06" x2="273.9" y2="51.97" stroke="#a07a00" stroke-width="1"/>
<circle id="param_accent_0" cx="273.9" cy="59.06" r="0.5" fill="none" stroke="none"/>
<circle cx="29.53" cy="91.54" r="8.86" fill="#e8e2d6" stroke="#1c7a70" stroke-width="1.25"/>
<line x1="29.53" y1="91.54" x2="29.53" y2="84.45" stroke="#1c7a70" stroke-width="1"/>
<circle id="param_rest_1" cx="29.53" cy="91.54" r="0.5" fill="none" stroke="none"/>
<circle cx="273.9" cy="91.54" r="8.86" fill="#e8e2d6" stroke="#a07a00" stroke-width="1.25"/>
<line x1="273.9" y1="91.54" x2="273.9" y2="84.45" stroke="#a07a00" stroke-width="1"/>
<circle id="param_accent_1" cx="273.9" cy="91.54" r="0.5" fill="none" stroke="none"/>
<circle cx="29.53" cy="124.02" r="8.86" fill="#e8e2d6" stroke="#1c7a70" stroke-width="1.25"/>
<line x1="29.53" y1="124.02" x2="29.53" y2="116.93" stroke="#1c7a70" stroke-width="1"/>
<circle id="param_rest_2" cx="29.53" cy="124.02" r="0.5" fill="none" stroke="none"/>
<circle cx="273.9" cy="124.02" r="8.86" fill="#e8e2d6" stroke="#a07a00" stroke-width="1.25"/>
<line x1="273.9" y1="124.02" x2="273.9" y2="116.93" stroke="#a07a00" stroke-width="1"/>
<circle id="param_accent_2" cx="273.9" cy="124.02" r="0.5" fill="none" stroke="none"/>
<circle cx="29.53" cy="156.5" r="8.86" fill="#e8e2d6" stroke="#1c7a70" stroke-width="1.25"/>
<line x1="29.53" y1="156.5" x2="29.53" y2="149.41" stroke="#1c7a70" stroke-width="1"/>
<circle id="param_rest_3" cx="29.53" cy="156.5" r="0.5" fill="none" stroke="none"/>
<circle cx="273.9" cy="156.5" r="8.86" fill="#e8e2d6" stroke="#a07a00" stroke-width="1.25"/>
<line x1="273.9" y1="156.5" x2="273.9" y2="149.41" stroke="#a07a00" stroke-width="1"/>
<circle id="param_accent_3" cx="273.9" cy="156.5" r="0.5" fill="none" stroke="none"/>
<circle cx="29.53" cy="188.98" r="8.86" fill="#e8e2d6" stroke="#1c7a70" stroke-width="1.25"/>
<line x1="29.53" y1="188.98" x2="29.53" y2="181.89" stroke="#1c7a70" stroke-width="1"/>
<circle id="param_rest_4" cx="29.53" cy="188.98" r="0.5" fill="none" stroke="none"/>
<circle cx="273.9" cy="188.98" r="8.86" fill="#e8e2d6" stroke="#a07a00" stroke-width="1.25"/>
<line x1="273.9" y1="188.98" x2="273.9" y2="181.89" stroke="#a07a00" stroke-width="1"/>
<circle id="param_accent_4" cx="273.9" cy="188.98" r="0.5" fill="none" stroke="none"/>
<circle cx="29.53" cy="221.46" r="8.86" fill="#e8e2d6" stroke="#1c7a70" stroke-width="1.25"/>
<line x1="29.53" y1="221.46" x2="29.53" y2="214.37" stroke="#1c7a70" stroke-width="1"/>
<circle id="param_rest_5" cx="29.53" cy="221.46" r="0.5" fill="none" stroke="none"/>
<circle cx="273.9" cy="221.46" r="8.86" fill="#e8e2d6" stroke="#a07a00" stroke-width="1.25"/>
<line x1="273.9" y1="221.46" x2="273.9" y2="214.37" stroke="#a07a00" stroke-width="1"/>
<circle id="param_accent_5" cx="273.9" cy="221.46" r="0.5" fill="none" stroke="none"/>
<circle cx="29.53" cy="253.94" r="8.86" fill="#e8e2d6" stroke="#1c7a70" stroke-width="1.25"/>
<line x1="29.53" y1="253.94" x2="29.53" y2="246.85" stroke="#1c7a70" stroke-width="1"/>
<circle id="param_rest_6" cx="29.53" cy="253.94" r="0.5" fill="none" stroke="none"/>
<circle cx="273.9" cy="253.94" r="8.86" fill="#e8e2d6" stroke="#a07a00" stroke-width="1.25"/>
<line x1="273.9" y1="253.94" x2="273.9" y2="246.85" stroke="#a07a00" stroke-width="1"/>
<circle id="param_accent_6" cx="273.9" cy="253.94" r="0.5" fill="none" stroke="none"/>
<circle cx="29.53" cy="286.42" r="8.86" fill="#e8e2d6" stroke="#1c7a70" stroke-width="1.25"/>
<line x1="29.53" y1="286.42" x2="29.53" y2="279.33" stroke="#1c7a70" stroke-width="1"/>
<circle id="param_rest_7" cx="29.53" cy="286.42" r="0.5" fill="none" stroke="none"/>
<circle cx="273.9" cy="286.42" r="8.86" fill="#e8e2d6" stroke="#a07a00" stroke-width="1.25"/>
<line x1="273.9" y1="286.42" x2="273.9" y2="279.33" stroke="#a07a00" stroke-width="1"/>
<circle id="param_accent_7" cx="273.9" cy="286.42" r="0.5" fill="none" stroke="none"/>
<circle cx="56.1" cy="59.06" r="8.86" fill="#e8e2d6" stroke="#1c7a70" stroke-width="1.25"/>
<line x1="56.1" y1="59.06" x2="56.1" y2="51.97" stroke="#1c7a70" stroke-width="1"/>
<circle id="param_rest_8" cx="56.1" cy="59.06" r="0.5" fill="none" stroke="none"/>
<circle cx="300.47" cy="59.06" r="8.86" fill="#e8e2d6" stroke="#a07a00" stroke-width="1.25"/>
<line x1="300.47" y1="59.06" x2="300.47" y2="51.97" stroke="#a07a00" stroke-width="1"/>
<circle id="param_accent_8" cx="300.47" cy="59.06" r="0.5" fill="none" stroke="none"/>
<circle cx="56.1" cy="91.54" r="8.86" fill="#e8e2d6" stroke="#1c7a70" stroke-width="1.25"/>
<line x1="56.1" y1="91.54" x2="56.1" y2="84.45" stroke="#1c7a70" stroke-width="1"/>
<circle id="param_rest_9" cx="56.1" cy="91.54" r="0.5" fill="none" stroke="none"/>
<circle cx="300.47" cy="91.54" r="8.86" fill="#e8e2d6" stroke="#a07a00" stroke-width="1.25"/>
<line x1="300.47" y1="91.54" x2="300.47" y2="84.45" stroke="#a07a00" stroke-width="1"/>
<circle id="param_accent_9" cx="300.47" cy="91.54" r="0.5" fill="none" stroke="none"/>
<circle cx="56.1" cy="124.02" r="8.86" fill="#e8e2d6" stroke="#1c7a70" stroke-width="1.25"/>
<line x1="56.1" y1="124.02" x2="56.1" y2="116.93" stroke="#1c7a70" stroke-width="1"/>
<circle id="param_rest_10" cx="56.1" cy="124.02" r="0.5" fill="none" stroke="none"/>
<circle cx="300.47" cy="124.02" r="8.86" fill="#e8e2d6" stroke="#a07a00" stroke-width="1.25"/>
<line x1="300.47" y1="124.02" x2="300.47" y2="116.93" stroke="#a07a00" stroke-width="1"/>
<circle id="param_accent_10" cx="300.47" cy="124.02" r="0.5" fill="none" stroke="none"/>
<circle cx="56.1" cy="156.5" r="8.86" fill="#e8e2d6" stroke="#1c7a70" stroke-width="1.25"/>
<line x1="56.1" y1="156.5" x2="56.1" y2="149.41" stroke="#1c7a70" stroke-width="1"/>
<circle id="param_rest_11" cx="56.1" cy="156.5" r="0.5" fill="none" stroke="none"/>
<circle cx="300.47" cy="156.5" r="8.86" fill="#e8e2d6" stroke="#a07a00" stroke-width="1.25"/>
<line x1="300.47" y1="156.5" x2="300.47" y2="149.41" stroke="#a07a00" stroke-width="1"/>
<circle id="param_accent_11" cx="300.47" cy="156.5" r="0.5" fill="none" stroke="none"/>
<circle cx="56.1" cy="188.98" r="8.86" fill="#e8e2d6" stroke="#1c7a70" stroke-width="1.25"/>
<line x1="56.1" y1="188.98" x2="56.1" y2="181.89" stroke="#1c7a70" stroke-width="1"/>
<circle id="param_rest_12" cx="56.1" cy="188.98" r="0.5" fill="none" stroke="none"/>
<circle cx="300.47" cy="188.98" r="8.86" fill="#e8e2d6" stroke="#a07a00" stroke-width="1.25"/>
<line x1="300.47" y1="188.98" x2="300.47" y2="181.89" stroke="#a07a00" stroke-width="1"/>
<circle id="param_accent_12" cx="300.47" cy="188.98" r="0.5" fill="none" stroke="none"/>
<circle cx="56.1" cy="221.46" r="8.86" fill="#e8e2d6" stroke="#1c7a70" stroke-width="1.25"/>
<line x1="56.1" y1="221.46" x2="56.1" y2="214.37" stroke="#1c7a70" stroke-width="1"/>
<circle id="param_rest_13" cx="56.1" cy="221.46" r="0.5" fill="none" stroke="none"/>
<circle cx="300.47" cy="221.46" r="8.86" fill="#e8e2d6" stroke="#a07a00" stroke-width="1.25"/>
<line x1="300.47" y1="221.46" x2="300.47" y2="214.37" stroke="#a07a00" stroke-width="1"/>
<circle id="param_accent_13" cx="300.47" cy="221.46" r="0.5" fill="none" stroke="none"/>
<circle cx="56.1" cy="253.94" r="8.86" fill="#e8e2d6" stroke="#1c7a70" stroke-width="1.25"/>
<line x1="56.1" y1="253.94" x2="56.1" y2="246.85" stroke="#1c7a70" stroke-width="1"/>
<circle id="param_rest_14" cx="56.1" cy="253.94" r="0.5" fill="none" stroke="none"/>
<circle cx="300.47" cy="253.94" r="8.86" fill="#e8e2d6" stroke="#a07a00" stroke-width="1.25"/>
<line x1="300.47" y1="253.94" x2="300.47" y2="246.85" stroke="#a07a00" stroke-width="1"/>
<circle id="param_accent_14" cx="300.47" cy="253.94" r="0.5" fill="none" stroke="none"/>
<circle cx="92.4" cy="332.19" r="11.52" fill="#e2ddd2" stroke="#b0a898" stroke-width="1"/>
<circle id="output_polygate" cx="92.4" cy="332.19" r="0.5" fill="none" stroke="none"/>
<circle cx="165.0" cy="332.19" r="11.52" fill="#e2ddd2" stroke="#b0a898" stroke-width="1"/>
<circle id="output_polycv" cx="165.0" cy="332.19" r="0.5" fill="none" stroke="none"/>
<circle cx="237.6" cy="332.19" r="11.52" fill="#e2ddd2" stroke="#b0a898" stroke-width="1"/>
<circle id="output_polyaccent" cx="237.6" cy="332.19" r="0.5" fill="none" stroke="none"/>
<line x1="0" y1="311.52" x2="330.0" y2="311.52" stroke="#bcbcbc" stroke-width="1" opacity="0.6"/>
<circle id="light_connect" cx="165.0" cy="26.57" r="0.5" fill="none" stroke="none"/>
</svg>