<svg xmlns="http://www.w3.org/2000/svg" width="390" height="380" viewBox="0 0 390 380">
<rect x="0" y="0" width="390" height="380" fill="#e8e8ea"/>
<rect x="0" y="0" width="390" height="4" fill="#c0202a"/>
<circle cx="376" cy="14" r="5" fill="#c0202a"/>
<path d="M 121.3 320.0 Q 145.9 294.3 155.7 240.3 L 163.1 240.3 Q 150.8 294.3 141.0 320.0 Z" fill="#d8d9dc" fill-opacity="0.14"/><path d="M 185.2 320.0 Q 209.7 294.3 219.6 240.3 L 226.9 240.3 Q 214.6 294.3 204.8 320.0 Z" fill="#d8d9dc" fill-opacity="0.14"/><path d="M 249.0 320.0 Q 273.6 294.3 283.4 240.3 L 290.8 240.3 Q 278.5 294.3 268.7 320.0 Z" fill="#d8d9dc" fill-opacity="0.14"/><polygon points="160.6,320.0 168.0,240.3 180.3,240.3 180.3,320.0" fill="#d8d9dc" fill-opacity="0.14"/><polygon points="224.5,320.0 231.8,240.3 244.1,240.3 244.1,320.0" fill="#d8d9dc" fill-opacity="0.14"/><polygon points="288.3,320.0 295.7,240.3 308.0,240.3 308.0,320.0" fill="#d8d9dc" fill-opacity="0.14"/><line x1="160.6" y1="254.6" x2="180.3" y2="254.6" stroke="#c0202a" stroke-width="0.4" stroke-opacity="0.042"/><line x1="160.6" y1="267.4" x2="180.3" y2="267.4" stroke="#c0202a" stroke-width="0.4" stroke-opacity="0.042"/><line x1="160.6" y1="280.1" x2="180.3" y2="280.1" stroke="#c0202a" stroke-width="0.4" stroke-opacity="0.042"/><line x1="160.6" y1="292.9" x2="180.3" y2="292.9" stroke="#c0202a" stroke-width="0.4" stroke-opacity="0.042"/><line x1="160.6" y1="305.7" x2="180.3" y2="305.7" stroke="#c0202a" stroke-width="0.4" stroke-opacity="0.042"/><line x1="224.5" y1="254.6" x2="244.1" y2="254.6" stroke="#c0202a" stroke-width="0.4" stroke-opacity="0.042"/><line x1="224.5" y1="267.4" x2="244.1" y2="267.4" stroke="#c0202a" stroke-width="0.4" stroke-opacity="0.042"/><line x1="224.5" y1="280.1" x2="244.1" y2="280.1" stroke="#c0202a" stroke-width="0.4" stroke-opacity="0.042"/><line x1="224.5" y1="292.9" x2="244.1" y2="292.9" stroke="#c0202a" stroke-width="0.4" stroke-opacity="0.042"/><line x1="224.5" y1="305.7" x2="244.1" y2="305.7" stroke="#c0202a" stroke-width="0.4" stroke-opacity="0.042"/><line x1="288.3" y1="254.6" x2="308.0" y2="254.6" stroke="#c0202a" stroke-width="0.4" stroke-opacity="0.042"/><line x1="288.3" y1="267.4" x2="308.0" y2="267.4" stroke="#c0202a" stroke-width="0.4" stroke-opacity="0.042"/><line x1="288.3" y1="280.1" x2="308.0" y2="280.1" stroke="#c0202a" stroke-width="0.4" stroke-opacity="0.042"/><line x1="288.3" y1="292.9" x2="308.0" y2="292.9" stroke="#c0202a" stroke-width="0.4" stroke-opacity="0.042"/><line x1="288.3" y1="305.7" x2="308.0" y2="305.7" stroke="#c0202a" stroke-width="0.4" stroke-opacity="0.042"/><path d="M 62.4 230.0 Q 197.5 232.6 327.6 230.0 C 332.5 230.0 332.5 240.3 322.7 240.3 L 155.7 240.3 Q 96.8 240.3 62.4 230.0 Z" fill="#d8d9dc" fill-opacity="0.14"/><path d="M 62.4 230.0 Q 197.5 232.6 327.6 230.0" fill="none" stroke="#2a2a2e" stroke-width="0.8" stroke-opacity="0.098" stroke-linecap="round"/>
<path d="M 15.0 338.0 C 26.2 333.3 48.8 333.3 60.0 338.0 C 71.2 342.7 93.8 342.7 105.0 338.0 C 116.2 333.3 138.8 333.3 150.0 338.0 C 161.2 342.7 183.8 342.7 195.0 338.0 C 206.2 333.3 228.8 333.3 240.0 338.0 C 251.2 342.7 273.8 342.7 285.0 338.0 C 296.2 333.3 318.8 333.3 330.0 338.0 C 341.2 342.7 363.8 342.7 375.0 338.0 " fill="none" stroke="#d2d4d8" stroke-width="1.5" stroke-opacity="0.5"/><path d="M 15.0 347.4 C 26.2 342.7 48.8 342.7 60.0 347.4 C 71.2 352.1 93.8 352.1 105.0 347.4 C 116.2 342.7 138.8 342.7 150.0 347.4 C 161.2 352.1 183.8 352.1 195.0 347.4 C 206.2 342.7 228.8 342.7 240.0 347.4 C 251.2 352.1 273.8 352.1 285.0 347.4 C 296.2 342.7 318.8 342.7 330.0 347.4 C 341.2 352.1 363.8 352.1 375.0 347.4 " fill="none" stroke="#d2d4d8" stroke-width="1.5" stroke-opacity="0.5"/><path d="M 15.0 356.8 C 26.2 352.1 48.8 352.1 60.0 356.8 C 71.2 361.5 93.8 361.5 105.0 356.8 C 116.2 352.1 138.8 352.1 150.0 356.8 C 161.2 361.5 183.8 361.5 195.0 356.8 C 206.2 352.1 228.8 352.1 240.0 356.8 C 251.2 361.5 273.8 361.5 285.0 356.8 C 296.2 352.1 318.8 352.1 330.0 356.8 C 341.2 361.5 363.8 361.5 375.0 356.8 " fill="none" stroke="#d2d4d8" stroke-width="1.5" stroke-opacity="0.5"/>
<text x="14" y="30" fill="#2a2a2e" font-family="sans-serif" font-size="13" font-weight="700">STRAITS WEST</text>
<text x="14" y="44" fill="#888d96" font-family="sans-serif" font-size="9">VOICES 9-16</text>
<g>
<circle cx="48.0" cy="50.0" r="8.0" fill="#d4d6d9" stroke="#a8aeb6" stroke-width="1.2"/>
<circle cx="102.0" cy="50.0" r="8.0" fill="#d4d6d9" stroke="#a8aeb6" stroke-width="1.2"/>
<circle cx="168.0" cy="50.0" r="9.0" fill="#dadce0" stroke="#9298a0" stroke-width="1.2"/>
<circle cx="234.0" cy="50.0" r="9.0" fill="#dadce0" stroke="#9298a0" stroke-width="1.2"/>
<circle cx="288.0" cy="50.0" r="9.0" fill="#dadce0" stroke="#9298a0" stroke-width="1.2"/>
<circle cx="342.0" cy="50.0" r="9.0" fill="#dadce0" stroke="#9298a0" stroke-width="1.2"/>
<circle cx="48.0" cy="85.0" r="8.0" fill="#d4d6d9" stroke="#a8aeb6" stroke-width="1.2"/>
<circle cx="102.0" cy="85.0" r="8.0" fill="#d4d6d9" stroke="#a8aeb6" stroke-width="1.2"/>
<circle cx="168.0" cy="85.0" r="9.0" fill="#dadce0" stroke="#9298a0" stroke-width="1.2"/>
<circle cx="234.0" cy="85.0" r="9.0" fill="#dadce0" stroke="#9298a0" stroke-width="1.2"/>
<circle cx="288.0" cy="85.0" r="9.0" fill="#dadce0" stroke="#9298a0" stroke-width="1.2"/>
<circle cx="342.0" cy="85.0" r="9.0" fill="#dadce0" stroke="#9298a0" stroke-width="1.2"/>
<circle cx="48.0" cy="120.0" r="8.0" fill="#d4d6d9" stroke="#a8aeb6" stroke-width="1.2"/>
<circle cx="102.0" cy="120.0" r="8.0" fill="#d4d6d9" stroke="#a8aeb6" stroke-width="1.2"/>
<circle cx="168.0" cy="120.0" r="9.0" fill="#dadce0" stroke="#9298a0" stroke-width="1.2"/>
<circle cx="234.0" cy="120.0" r="9.0" fill="#dadce0" stroke="#9298a0" stroke-width="1.2"/>
<circle cx="288.0" cy="120.0" r="9.0" fill="#dadce0" stroke="#9298a0" stroke-width="1.2"/>
<circle cx="342.0" cy="120.0" r="9.0" fill="#dadce0" stroke="#9298a0" stroke-width="1.2"/>
<circle cx="48.0" cy="155.0" r="8.0" fill="#d4d6d9" stroke="#a8aeb6" stroke-width="1.2"/>
<circle cx="102.0" cy="155.0" r="8.0" fill="#d4d6d9" stroke="#a8aeb6" stroke-width="1.2"/>
<circle cx="168.0" cy="155.0" r="9.0" fill="#dadce0" stroke="#9298a0" stroke-width="1.2"/>
<circle cx="234.0" cy="155.0" r="9.0" fill="#dadce0" stroke="#9298a0" stroke-width="1.2"/>
<circle cx="288.0" cy="155.0" r="9.0" fill="#dadce0" stroke="#9298a0" stroke-width="1.2"/>
<circle cx="342.0" cy="155.0" r="9.0" fill="#dadce0" stroke="#9298a0" stroke-width="1.2"/>
<circle cx="48.0" cy="190.0" r="8.0" fill="#d4d6d9" stroke="#a8aeb6" stroke-width="1.2"/>
<circle cx="102.0" cy="190.0" r="8.0" fill="#d4d6d9" stroke="#a8aeb6" stroke-width="1.2"/>
<circle cx="168.0" cy="190.0" r="9.0" fill="#dadce0" stroke="#9298a0" stroke-width="1.2"/>
<circle cx="234.0" cy="190.0" r="9.0" fill="#dadce0" stroke="#9298a0" stroke-width="1.2"/>
<circle cx="288.0" cy="190.0" r="9.0" fill="#dadce0" stroke="#9298a0" stroke-width="1.2"/>
<circle cx="342.0" cy="190.0" r="9.0" fill="#dadce0" stroke="#9298a0" stroke-width="1.2"/>
<circle cx="48.0" cy="225.0" r="8.0" fill="#d4d6d9" stroke="#a8aeb6" stroke-width="1.2"/>
<circle cx="102.0" cy="225.0" r="8.0" fill="#d4d6d9" stroke="#a8aeb6" stroke-width="1.2"/>
<circle cx="168.0" cy="225.0" r="9.0" fill="#dadce0" stroke="#9298a0" stroke-width="1.2"/>
<circle cx="234.0" cy="225.0" r="9.0" fill="#dadce0" stroke="#9298a0" stroke-width="1.2"/>
<circle cx="288.0" cy="225.0" r="9.0" fill="#dadce0" stroke="#9298a0" stroke-width="1.2"/>
<circle cx="342.0" cy="225.0" r="9.0" fill="#dadce0" stroke="#9298a0" stroke-width="1.2"/>
<circle cx="48.0" cy="260.0" r="8.0" fill="#d4d6d9" stroke="#a8aeb6" stroke-width="1.2"/>
<circle cx="102.0" cy="260.0" r="8.0" fill="#d4d6d9" stroke="#a8aeb6" stroke-width="1.2"/>
<circle cx="168.0" cy="260.0" r="9.0" fill="#dadce0" stroke="#9298a0" stroke-width="1.2"/>
<circle cx="234.0" cy="260.0" r="9.0" fill="#dadce0" stroke="#9298a0" stroke-width="1.2"/>
<circle cx="288.0" cy="260.0" r="9.0" fill="#dadce0" stroke="#9298a0" stroke-width="1.2"/>
<circle cx="342.0" cy="260.0" r="9.0" fill="#dadce0" stroke="#9298a0" stroke-width="1.2"/>
<circle cx="48.0" cy="295.0" r="8.0" fill="#d4d6d9" stroke="#a8aeb6" stroke-width="1.2"/>
<circle cx="102.0" cy="295.0" r="8.0" fill="#d4d6d9" stroke="#a8aeb6" stroke-width="1.2"/>
<circle cx="168.0" cy="295.0" r="9.0" fill="#dadce0" stroke="#9298a0" stroke-width="1.2"/>
<circle cx="234.0" cy="295.0" r="9.0" fill="#dadce0" stroke="#9298a0" stroke-width="1.2"/>
<circle cx="288.0" cy="295.0" r="9.0" fill="#dadce0" stroke="#9298a0" stroke-width="1.2"/>
<circle cx="342.0" cy="295.0" r="9.0" fill="#dadce0" stroke="#9298a0" stroke-width="1.2"/>
<circle cx="48.0" cy="335.0" r="9.0" fill="#dadce0" stroke="#9298a0" stroke-width="1.2"/>
<circle cx="234.0" cy="335.0" r="9.0" fill="#dadce0" stroke="#9298a0" stroke-width="1.2"/>
<circle cx="288.0" cy="335.0" r="9.0" fill="#dadce0" stroke="#9298a0" stroke-width="1.2"/>
</g>
<g id="components">
<circle id="param_knob_0" cx="48.00" cy="50.00" r="0.5" fill="none" stroke="none"/>
<circle id="param_att_0" cx="102.00" cy="50.00" r="0.5" fill="none" stroke="none"/>
<circle id="input_modcv_0" cx="168.00" cy="50.00" r="0.5" fill="none" stroke="none"/>
<circle id="output_gate_0" cx="234.00" cy="50.00" r="0.5" fill="none" stroke="none"/>
<circle id="output_cv_0" cx="288.00" cy="50.00" r="0.5" fill="none" stroke="none"/>
<circle id="output_acc_0" cx="342.00" cy="50.00" r="0.5" fill="none" stroke="none"/>
<circle id="param_knob_1" cx="48.00" cy="85.00" r="0.5" fill="none" stroke="none"/>
<circle id="param_att_1" cx="102.00" cy="85.00" r="0.5" fill="none" stroke="none"/>
<circle id="input_modcv_1" cx="168.00" cy="85.00" r="0.5" fill="none" stroke="none"/>
<circle id="output_gate_1" cx="234.00" cy="85.00" r="0.5" fill="none" stroke="none"/>
<circle id="output_cv_1" cx="288.00" cy="85.00" r="0.5" fill="none" stroke="none"/>
<circle id="output_acc_1" cx="342.00" cy="85.00" r="0.5" fill="none" stroke="none"/>
<circle id="param_knob_2" cx="48.00" cy="120.00" r="0.5" fill="none" stroke="none"/>
<circle id="param_att_2" cx="102.00" cy="120.00" r="0.5" fill="none" stroke="none"/>
<circle id="input_modcv_2" cx="168.00" cy="120.00" r="0.5" fill="none" stroke="none"/>
<circle id="output_gate_2" cx="234.00" cy="120.00" r="0.5" fill="none" stroke="none"/>
<circle id="output_cv_2" cx="288.00" cy="120.00" r="0.5" fill="none" stroke="none"/>
<circle id="output_acc_2" cx="342.00" cy="120.00" r="0.5" fill="none" stroke="none"/>
<circle id="param_knob_3" cx="48.00" cy="155.00" r="0.5" fill="none" stroke="none"/>
<circle id="param_att_3" cx="102.00" cy="155.00" r="0.5" fill="none" stroke="none"/>
<circle id="input_modcv_3" cx="168.00" cy="155.00" r="0.5" fill="none" stroke="none"/>
<circle id="output_gate_3" cx="234.00" cy="155.00" r="0.5" fill="none" stroke="none"/>
<circle id="output_cv_3" cx="288.00" cy="155.00" r="0.5" fill="none" stroke="none"/>
<circle id="output_acc_3" cx="342.00" cy="155.00" r="0.5" fill="none" stroke="none"/>
<circle id="param_knob_4" cx="48.00" cy="190.00" r="0.5" fill="none" stroke="none"/>
<circle id="param_att_4" cx="102.00" cy="190.00" r="0.5" fill="none" stroke="none"/>
<circle id="input_modcv_4" cx="168.00" cy="190.00" r="0.5" fill="none" stroke="none"/>
<circle id="output_gate_4" cx="234.00" cy="190.00" r="0.5" fill="none" stroke="none"/>
<circle id="output_cv_4" cx="288.00" cy="190.00" r="0.5" fill="none" stroke="none"/>
<circle id="output_acc_4" cx="342.00" cy="190.00" r="0.5" fill="none" stroke="none"/>
<circle id="param_knob_5" cx="48.00" cy="225.00" r="0.5" fill="none" stroke="none"/>
<circle id="param_att_5" cx="102.00" cy="225.00" r="0.5" fill="none" stroke="none"/>
<circle id="input_modcv_5" cx="168.00" cy="225.00" r="0.5" fill="none" stroke="none"/>
<circle id="output_gate_5" cx="234.00" cy="225.00" r="0.5" fill="none" stroke="none"/>
<circle id="output_cv_5" cx="288.00" cy="225.00" r="0.5" fill="none" stroke="none"/>
<circle id="output_acc_5" cx="342.00" cy="225.00" r="0.5" fill="none" stroke="none"/>
<circle id="param_knob_6" cx="48.00" cy="260.00" r="0.5" fill="none" stroke="none"/>
<circle id="param_att_6" cx="102.00" cy="260.00" r="0.5" fill="none" stroke="none"/>
<circle id="input_modcv_6" cx="168.00" cy="260.00" r="0.5" fill="none" stroke="none"/>
<circle id="output_gate_6" cx="234.00" cy="260.00" r="0.5" fill="none" stroke="none"/>
<circle id="output_cv_6" cx="288.00" cy="260.00" r="0.5" fill="none" stroke="none"/>
<circle id="output_acc_6" cx="342.00" cy="260.00" r="0.5" fill="none" stroke="none"/>
<circle id="param_knob_7" cx="48.00" cy="295.00" r="0.5" fill="none" stroke="none"/>
<circle id="param_att_7" cx="102.00" cy="295.00" r="0.5" fill="none" stroke="none"/>
<circle id="input_modcv_7" cx="168.00" cy="295.00" r="0.5" fill="none" stroke="none"/>
<circle id="output_gate_7" cx="234.00" cy="295.00" r="0.5" fill="none" stroke="none"/>
<circle id="output_cv_7" cx="288.00" cy="295.00" r="0.5" fill="none" stroke="none"/>
<circle id="output_acc_7" cx="342.00" cy="295.00" r="0.5" fill="none" stroke="none"/>
<circle id="input_global_cv_in" cx="48.00" cy="335.00" r="0.5" fill="none" stroke="none"/>
<circle id="output_global_gate" cx="234.00" cy="335.00" r="0.5" fill="none" stroke="none"/>
<circle id="output_global_cv" cx="288.00" cy="335.00" r="0.5" fill="none" stroke="none"/>
</g>
</svg>