<svg xmlns="http://www.w3.org/2000/svg" width="330.0" height="379.43" viewBox="0 0 330.0 379.43">
<rect width="330.0" height="379.43" fill="#dcdcdc"/>
<rect x="0" y="0" width="330.0" height="3.54" fill="#d4001a"/>
<polyline points="14.76,59.06 18.15,61.31 21.54,60.9 24.92,60.45 28.31,61.48 31.7,60.78 35.08,57.96 38.47,56.88 41.86,57.7 45.25,57.17 48.63,56.39 52.02,58.36 55.41,60.82 58.79,60.74 62.18,60.39 65.57,61.61 68.95,61.35 72.34,58.63 75.73,57.22 79.11,57.84 82.5,57.24 85.89,56.11 89.27,57.69 92.66,60.27 96.05,60.5 99.43,60.21 102.82,61.61 106.21,61.81 109.59,59.3 112.98,57.64 116.37,58.07 119.75,57.43 123.14,55.95 126.53,57.09 129.92,59.68 133.3,60.17 136.69,59.95 140.08,61.48 143.46,62.16 146.85,59.94 150.24,58.11" fill="none" stroke="#6fa8a2" stroke-width="0.4" stroke-opacity="0.41"/>
<polyline points="14.76,73.29 18.15,75.0 21.54,73.38 24.92,71.94 28.31,70.68 31.7,67.6 35.08,65.52 38.47,67.63 41.86,71.02 45.25,72.36 48.63,73.4 52.02,74.76 55.41,73.14 58.79,68.88 62.18,66.75 65.57,67.46 68.95,67.99 72.34,69.06 75.73,72.62 79.11,75.38 82.5,74.02 85.89,71.3 89.27,69.99 92.66,68.19 96.05,65.91 99.43,66.95 102.82,70.96 106.21,73.28 109.59,73.41 112.98,73.9 116.37,73.26 119.75,69.5 123.14,66.24 126.53,66.83 129.92,68.67 133.3,69.68 136.69,72.02 140.08,75.12 143.46,74.76 146.85,71.28 150.24,69.04" fill="none" stroke="#6fa8a2" stroke-width="0.4" stroke-opacity="0.75"/>
<polyline points="14.76,88.03 18.15,87.23 21.54,82.86 24.92,79.52 28.31,77.48 31.7,76.99 35.08,80.7 38.47,86.61 41.86,88.25 45.25,84.63 48.63,80.6 52.02,78.2 55.41,76.82 58.79,78.7 62.18,84.46 65.57,88.39 68.95,86.39 72.34,81.97 75.73,79.02 79.11,77.16 82.5,77.39 85.89,82.01 89.27,87.5 92.66,87.78 96.05,83.63 99.43,79.98 102.82,77.79 106.21,76.84 109.59,79.73 112.98,85.71 116.37,88.44 119.75,85.44 123.14,81.18 126.53,78.55 129.92,76.92 133.3,78.02 136.69,83.37 140.08,88.12 143.46,87.08 146.85,82.68 150.24,79.43" fill="none" stroke="#6fa8a2" stroke-width="0.4" stroke-opacity="0.41"/>
<polyline points="14.76,101.56 18.15,98.66 21.54,95.54 24.92,93.18 28.31,89.25 31.7,85.62 35.08,86.22 38.47,89.4 41.86,91.77 45.25,94.71 48.63,99.29 52.02,101.57 55.41,99.61 58.79,96.91 62.18,94.77 65.57,90.77 68.95,86.38 72.34,85.87 75.73,88.33 79.11,90.34 82.5,93.05 85.89,97.91 89.27,101.17 92.66,100.21 96.05,98.06 99.43,96.3 102.82,92.47 106.21,87.5 109.59,85.92 112.98,87.57 116.37,89.09 119.75,91.37 123.14,96.29 126.53,100.39 129.92,100.43 133.3,98.94 136.69,97.71 140.08,94.24 143.46,88.92 146.85,86.36 150.24,87.16" fill="none" stroke="#6fa8a2" stroke-width="0.4" stroke-opacity="0.75"/>
<polyline points="14.76,107.15 18.15,104.49 21.54,103.88 24.92,103.81 28.31,102.44 31.7,102.68 35.08,105.71 38.47,107.51 41.86,106.6 45.25,106.18 48.63,106.35 52.02,104.3 55.41,101.78 58.79,102.52 62.18,104.71 65.57,105.18 68.95,105.69 72.34,107.66 75.73,107.73 79.11,104.85 82.5,103.06 85.89,103.54 89.27,103.27 92.66,102.79 96.05,104.98 99.43,107.74 102.82,107.38 106.21,105.76 109.59,105.6 112.98,104.78 116.37,102.29 119.75,101.86 123.14,104.42 126.53,106.03 129.92,105.9 133.3,106.84 136.69,107.73 140.08,105.58 143.46,102.73 146.85,102.77 150.24,103.75" fill="none" stroke="#6fa8a2" stroke-width="0.4" stroke-opacity="0.41"/>
<polyline points="14.76,117.51 18.15,113.78 21.54,113.23 24.92,113.81 28.31,115.05 31.7,118.55 35.08,121.38 38.47,119.3 41.86,114.9 45.25,113.15 48.63,113.59 52.02,114.34 55.41,116.97 58.79,120.72 62.18,120.71 65.57,116.5 68.95,113.42 72.34,113.35 75.73,113.95 79.11,115.62 82.5,119.42 85.89,121.38 89.27,118.34 92.66,114.21 96.05,113.17 99.43,113.71 102.82,114.68 106.21,117.83 109.59,121.18 112.98,120.01 116.37,115.57 119.75,113.21 123.14,113.48 126.53,114.14 129.92,116.32 133.3,120.2 136.69,121.11 140.08,117.32 143.46,113.7 146.85,113.25 150.24,113.83" fill="none" stroke="#6fa8a2" stroke-width="0.4" stroke-opacity="0.75"/>
<polyline points="14.76,126.07 18.15,123.95 21.54,123.58 24.92,122.48 28.31,122.91 31.7,126.83 35.08,130.61 38.47,131.69 41.86,132.59 45.25,133.77 48.63,131.84 52.02,127.45 55.41,124.89 58.79,124.08 62.18,122.48 65.57,122.09 68.95,125.45 72.34,129.38 75.73,130.88 79.11,132.17 82.5,134.01 85.89,132.92 89.27,128.82 92.66,125.97 96.05,124.83 99.43,122.77 102.82,121.56 106.21,124.21 109.59,128.09 112.98,129.9 116.37,131.48 119.75,133.93 123.14,133.74 126.53,130.12 129.92,127.15 133.3,125.77 136.69,123.35 140.08,121.34 143.46,123.16 146.85,126.83 150.24,128.8" fill="none" stroke="#6fa8a2" stroke-width="0.4" stroke-opacity="0.41"/>
<polyline points="14.76,133.67 18.15,132.65 21.54,134.04 24.92,136.35 28.31,141.25 31.7,146.54 35.08,146.96 38.47,142.93 41.86,138.94 45.25,135.6 48.63,132.2 52.02,132.2 55.41,137.4 58.79,143.03 62.18,145.24 65.57,145.62 68.95,144.53 72.34,139.69 75.73,133.59 79.11,131.8 82.5,134.28 85.89,137.38 89.27,141.16 92.66,145.95 96.05,147.42 99.43,143.31 102.82,138.04 106.21,135.01 109.59,132.92 112.98,132.54 116.37,136.82 119.75,143.25 123.14,146.16 126.53,145.36 129.92,143.57 133.3,139.85 136.69,134.07 140.08,131.2 143.46,133.91 146.85,138.31 150.24,141.71" fill="none" stroke="#6fa8a2" stroke-width="0.4" stroke-opacity="0.75"/>
<polyline points="14.76,148.04 18.15,149.75 21.54,150.72 24.92,151.29 28.31,153.15 31.7,153.53 35.08,150.45 38.47,147.98 41.86,149.0 45.25,150.53 48.63,150.93 52.02,152.36 55.41,153.82 58.79,151.9 62.18,148.55 65.57,148.3 68.95,150.1 72.34,150.78 75.73,151.6 79.11,153.51 82.5,153.09 85.89,149.67 89.27,147.94 92.66,149.43 96.05,150.66 99.43,151.09 102.82,152.81 106.21,153.74 109.59,151.11 112.98,148.16 116.37,148.66 119.75,150.37 123.14,150.85 126.53,152.0 129.92,153.75 133.3,152.49 136.69,148.99 140.08,148.08 143.46,149.82 146.85,150.73 150.24,151.34" fill="none" stroke="#6fa8a2" stroke-width="0.4" stroke-opacity="0.41"/>
<polyline points="14.76,158.6 18.15,160.5 21.54,160.98 24.92,162.67 28.31,166.0 31.7,166.98 35.08,165.17 38.47,164.14 41.86,163.57 45.25,160.76 48.63,157.88 52.02,158.33 55.41,159.95 58.79,160.26 62.18,161.69 65.57,165.19 68.95,166.83 72.34,165.53 75.73,164.7 79.11,164.41 82.5,161.77 85.89,158.49 89.27,158.28 92.66,159.57 96.05,159.64 99.43,160.72 102.82,164.24 106.21,166.47 109.59,165.69 112.98,165.1 116.37,165.17 119.75,162.83 123.14,159.26 126.53,158.45 129.92,159.37 133.3,159.15 136.69,159.8 140.08,163.21 143.46,165.91 146.85,165.65 150.24,165.33" fill="none" stroke="#6fa8a2" stroke-width="0.4" stroke-opacity="0.75"/>
<polyline points="14.76,170.62 18.15,173.89 21.54,176.1 24.92,178.9 28.31,179.87 31.7,176.16 35.08,171.24 38.47,169.35 41.86,169.19 45.25,169.44 48.63,172.56 52.02,177.79 55.41,179.93 58.79,177.95 62.18,175.55 65.57,173.15 68.95,169.31 72.34,167.19 75.73,170.02 79.11,174.53 82.5,176.87 85.89,178.33 89.27,179.32 92.66,176.72 96.05,171.33 99.43,168.45 102.82,169.15 106.21,170.4 109.59,172.6 112.98,177.16 116.37,180.32 119.75,178.56 123.14,174.85 126.53,172.42 129.92,169.88 133.3,167.6 136.69,169.39 140.08,174.53 143.46,177.84 146.85,178.34 150.24,178.42" fill="none" stroke="#6fa8a2" stroke-width="0.4" stroke-opacity="0.41"/>
<polyline points="14.76,184.63 18.15,189.3 21.54,191.46 24.92,190.98 28.31,185.97 31.7,179.08 35.08,177.39 38.47,182.2 41.86,187.81 45.25,190.87 48.63,191.62 52.02,188.48 55.41,181.54 58.79,177.12 62.18,179.85 65.57,185.87 68.95,189.95 72.34,191.64 75.73,190.31 79.11,184.41 82.5,178.07 85.89,178.02 89.27,183.55 92.66,188.69 96.05,191.23 99.43,191.35 102.82,187.17 106.21,180.1 109.59,177.12 112.98,181.11 116.37,186.99 119.75,190.5 123.14,191.69 126.53,189.4 129.92,182.81 133.3,177.4 136.69,178.94 140.08,184.86 143.46,189.43 146.85,191.51 150.24,190.87" fill="none" stroke="#6fa8a2" stroke-width="0.4" stroke-opacity="0.75"/>
<polyline points="14.76,198.25 18.15,197.76 21.54,198.5 24.92,199.84 28.31,198.45 31.7,195.9 35.08,195.59 38.47,195.75 41.86,194.18 45.25,193.75 48.63,196.12 52.02,197.8 55.41,197.47 58.79,198.23 62.18,199.92 65.57,199.0 68.95,196.48 72.34,195.95 75.73,196.09 79.11,194.4 82.5,193.48 85.89,195.52 89.27,197.33 92.66,197.11 96.05,197.86 99.43,199.85 102.82,199.44 106.21,197.05 109.59,196.34 112.98,196.49 116.37,194.74 119.75,193.35 123.14,194.99 126.53,196.85 129.92,196.72 133.3,197.4 136.69,199.63 140.08,199.75 143.46,197.57 146.85,196.75 150.24,196.94" fill="none" stroke="#6fa8a2" stroke-width="0.4" stroke-opacity="0.41"/>
<polyline points="14.76,211.38 18.15,211.16 21.54,211.4 24.92,209.9 28.31,205.82 31.7,203.56 35.08,205.09 38.47,206.98 41.86,208.13 45.25,210.76 48.63,213.15 52.02,211.51 55.41,207.82 58.79,206.13 62.18,205.47 65.57,204.25 68.95,205.34 72.34,209.5 75.73,212.17 79.11,211.49 82.5,210.53 85.89,209.65 89.27,206.53 92.66,203.43 96.05,204.35 99.43,207.39 102.82,208.98 106.21,210.37 109.59,212.54 112.98,212.06 116.37,208.12 119.75,205.27 123.14,205.18 126.53,205.11 129.92,205.49 133.3,208.81 136.69,212.43 140.08,212.25 143.46,210.06 146.85,208.84 150.24,206.96" fill="none" stroke="#6fa8a2" stroke-width="0.4" stroke-opacity="0.75"/>
<polyline points="14.76,224.66 18.15,223.21 21.54,220.6 24.92,216.15 28.31,213.18 31.7,216.1 35.08,221.99 38.47,224.73 41.86,223.9 45.25,221.83 48.63,218.02 52.02,213.78 55.41,214.25 58.79,219.79 62.18,224.21 65.57,224.45 68.95,222.78 72.34,219.76 75.73,215.17 79.11,213.28 82.5,217.36 85.89,222.98 89.27,224.75 92.66,223.53 96.05,221.19 99.43,216.98 102.82,213.34 106.21,215.18 109.59,221.06 112.98,224.58 116.37,224.17 119.75,222.29 123.14,218.83 126.53,214.33 129.92,213.69 133.3,218.7 136.69,223.75 140.08,224.63 143.46,223.13 146.85,220.45 150.24,215.96" fill="none" stroke="#6fa8a2" stroke-width="0.4" stroke-opacity="0.41"/>
<polyline points="14.76,236.84 18.15,235.24 21.54,232.73 24.92,227.73 28.31,223.97 31.7,224.3 35.08,225.91 38.47,227.29 41.86,231.02 45.25,236.25 48.63,238.4 52.02,237.35 55.41,236.33 58.79,234.37 62.18,229.46 65.57,224.98 68.95,224.34 72.34,225.26 75.73,226.02 79.11,229.24 82.5,234.68 85.89,237.71 89.27,237.5 92.66,237.14 96.05,235.87 99.43,231.28 102.82,226.29 106.21,224.76 109.59,224.96 112.98,225.01 116.37,227.53 119.75,232.94 123.14,236.69 126.53,237.28 129.92,237.6 133.3,237.14 136.69,233.1 140.08,227.83 143.46,225.53 146.85,225.03 150.24,224.32" fill="none" stroke="#6fa8a2" stroke-width="0.4" stroke-opacity="0.75"/>
<polyline points="14.76,243.08 18.15,243.02 21.54,241.77 24.92,239.52 28.31,240.1 31.7,242.93 35.08,243.98 38.47,243.76 41.86,244.82 45.25,245.01 48.63,242.24 52.02,239.96 55.41,240.7 58.79,241.59 62.18,241.4 65.57,242.95 68.95,245.62 72.34,245.4 75.73,242.99 79.11,242.13 82.5,241.95 85.89,240.26 89.27,239.71 92.66,242.37 96.05,244.65 99.43,244.28 102.82,244.08 106.21,244.65 109.59,242.96 112.98,240.0 116.37,239.88 119.75,241.76 123.14,242.26 126.53,242.7 129.92,244.95 133.3,245.88 136.69,243.5 140.08,241.4 143.46,241.49 146.85,241.01 150.24,239.97" fill="none" stroke="#6fa8a2" stroke-width="0.4" stroke-opacity="0.41"/>
<polyline points="14.76,253.99 18.15,252.31 21.54,250.28 24.92,250.61 28.31,254.94 31.7,258.54 35.08,257.53 38.47,254.78 41.86,253.0 45.25,251.03 48.63,249.96 52.02,252.96 55.41,257.61 58.79,258.4 62.18,255.78 65.57,253.63 68.95,251.87 72.34,250.01 75.73,251.28 79.11,256.01 82.5,258.7 85.89,256.92 89.27,254.32 92.66,252.63 96.05,250.59 99.43,250.22 102.82,254.04 106.21,258.22 109.59,257.97 112.98,255.2 116.37,253.28 119.75,251.41 123.14,249.9 126.53,252.15 129.92,256.96 133.3,258.62 136.69,256.28 140.08,253.92 143.46,252.23 146.85,250.22 150.24,250.72" fill="none" stroke="#6fa8a2" stroke-width="0.4" stroke-opacity="0.75"/>
<polyline points="14.76,263.32 18.15,261.72 21.54,259.42 24.92,260.01 28.31,263.81 31.7,266.65 35.08,267.99 38.47,270.41 41.86,272.12 45.25,269.93 48.63,266.25 52.02,264.39 55.41,262.58 58.79,259.7 62.18,259.37 65.57,262.61 68.95,265.46 72.34,266.94 75.73,269.64 79.11,272.13 82.5,270.82 85.89,267.44 89.27,265.53 92.66,263.63 96.05,260.29 99.43,259.04 102.82,261.59 106.21,264.31 109.59,265.79 112.98,268.63 116.37,271.82 119.75,271.43 123.14,268.51 126.53,266.68 129.92,264.82 133.3,261.15 136.69,259.02 140.08,260.8 143.46,263.24 146.85,264.6 150.24,267.44" fill="none" stroke="#6fa8a2" stroke-width="0.4" stroke-opacity="0.41"/>
<polyline points="14.76,271.75 18.15,270.33 21.54,271.31 24.92,276.77 28.31,282.65 31.7,284.06 35.08,282.35 38.47,279.94 41.86,275.54 45.25,270.21 48.63,269.16 52.02,273.18 55.41,277.62 58.79,280.78 62.18,283.86 65.57,284.31 68.95,279.53 72.34,273.48 75.73,270.95 79.11,270.92 82.5,272.03 85.89,276.32 89.27,282.49 92.66,284.89 96.05,282.38 99.43,278.9 102.82,275.37 106.21,270.9 109.59,268.94 112.98,272.64 116.37,278.32 119.75,281.58 123.14,283.28 126.53,283.73 129.92,280.03 133.3,273.52 136.69,270.04 140.08,270.91 143.46,273.04 146.85,276.41 150.24,281.89" fill="none" stroke="#6fa8a2" stroke-width="0.4" stroke-opacity="0.75"/>
<polyline points="14.76,287.18 18.15,286.68 21.54,287.9 24.92,291.03 28.31,291.61 31.7,288.82 35.08,287.01 38.47,287.2 41.86,286.86 45.25,287.06 48.63,289.84 52.02,291.92 55.41,290.06 58.79,287.39 62.18,287.07 65.57,287.1 68.95,286.69 72.34,288.53 75.73,291.52 79.11,291.17 82.5,288.21 85.89,286.97 89.27,287.21 92.66,286.73 96.05,287.46 99.43,290.53 102.82,291.83 106.21,289.37 109.59,287.13 112.98,287.15 116.37,286.97 119.75,286.83 123.14,289.24 126.53,291.82 129.92,290.6 133.3,287.71 136.69,287.01 140.08,287.17 143.46,286.67 146.85,288.01 150.24,291.14" fill="none" stroke="#6fa8a2" stroke-width="0.4" stroke-opacity="0.41"/>
<polyline points="14.76,297.27 18.15,297.33 21.54,299.9 24.92,303.35 28.31,303.87 31.7,302.9 35.08,303.1 38.47,302.22 41.86,298.7 45.25,296.24 48.63,296.7 52.02,296.99 55.41,296.65 58.79,298.84 62.18,302.48 65.57,303.57 68.95,302.96 72.34,303.47 75.73,303.08 79.11,299.77 82.5,296.91 85.89,296.88 89.27,296.89 92.66,296.13 96.05,297.82 99.43,301.51 102.82,303.09 106.21,302.83 109.59,303.64 112.98,303.82 116.37,300.84 119.75,297.71 123.14,297.24 126.53,297.0 129.92,295.79 133.3,296.9 136.69,300.49 140.08,302.46 143.46,302.52 146.85,303.62 150.24,304.37" fill="none" stroke="#6fa8a2" stroke-width="0.4" stroke-opacity="0.75"/>
<polyline points="179.76,59.06 183.15,61.31 186.54,60.9 189.92,60.45 193.31,61.48 196.7,60.78 200.08,57.96 203.47,56.88 206.86,57.7 210.25,57.17 213.63,56.39 217.02,58.36 220.41,60.82 223.79,60.74 227.18,60.39 230.57,61.61 233.95,61.35 237.34,58.63 240.73,57.22 244.11,57.84 247.5,57.24 250.89,56.11 254.27,57.69 257.66,60.27 261.05,60.5 264.43,60.21 267.82,61.61 271.21,61.81 274.59,59.3 277.98,57.64 281.37,58.07 284.75,57.43 288.14,55.95 291.53,57.09 294.92,59.68 298.3,60.17 301.69,59.95 305.08,61.48 308.46,62.16 311.85,59.94 315.24,58.11" fill="none" stroke="#d09a48" stroke-width="0.4" stroke-opacity="0.41"/>
<polyline points="179.76,73.29 183.15,75.0 186.54,73.38 189.92,71.94 193.31,70.68 196.7,67.6 200.08,65.52 203.47,67.63 206.86,71.02 210.25,72.36 213.63,73.4 217.02,74.76 220.41,73.14 223.79,68.88 227.18,66.75 230.57,67.46 233.95,67.99 237.34,69.06 240.73,72.62 244.11,75.38 247.5,74.02 250.89,71.3 254.27,69.99 257.66,68.19 261.05,65.91 264.43,66.95 267.82,70.96 271.21,73.28 274.59,73.41 277.98,73.9 281.37,73.26 284.75,69.5 288.14,66.24 291.53,66.83 294.92,68.67 298.3,69.68 301.69,72.02 305.08,75.12 308.46,74.76 311.85,71.28 315.24,69.04" fill="none" stroke="#d09a48" stroke-width="0.4" stroke-opacity="0.75"/>
<polyline points="179.76,88.03 183.15,87.23 186.54,82.86 189.92,79.52 193.31,77.48 196.7,76.99 200.08,80.7 203.47,86.61 206.86,88.25 210.25,84.63 213.63,80.6 217.02,78.2 220.41,76.82 223.79,78.7 227.18,84.46 230.57,88.39 233.95,86.39 237.34,81.97 240.73,79.02 244.11,77.16 247.5,77.39 250.89,82.01 254.27,87.5 257.66,87.78 261.05,83.63 264.43,79.98 267.82,77.79 271.21,76.84 274.59,79.73 277.98,85.71 281.37,88.44 284.75,85.44 288.14,81.18 291.53,78.55 294.92,76.92 298.3,78.02 301.69,83.37 305.08,88.12 308.46,87.08 311.85,82.68 315.24,79.43" fill="none" stroke="#d09a48" stroke-width="0.4" stroke-opacity="0.41"/>
<polyline points="179.76,101.56 183.15,98.66 186.54,95.54 189.92,93.18 193.31,89.25 196.7,85.62 200.08,86.22 203.47,89.4 206.86,91.77 210.25,94.71 213.63,99.29 217.02,101.57 220.41,99.61 223.79,96.91 227.18,94.77 230.57,90.77 233.95,86.38 237.34,85.87 240.73,88.33 244.11,90.34 247.5,93.05 250.89,97.91 254.27,101.17 257.66,100.21 261.05,98.06 264.43,96.3 267.82,92.47 271.21,87.5 274.59,85.92 277.98,87.57 281.37,89.09 284.75,91.37 288.14,96.29 291.53,100.39 294.92,100.43 298.3,98.94 301.69,97.71 305.08,94.24 308.46,88.92 311.85,86.36 315.24,87.16" fill="none" stroke="#d09a48" stroke-width="0.4" stroke-opacity="0.75"/>
<polyline points="179.76,107.15 183.15,104.49 186.54,103.88 189.92,103.81 193.31,102.44 196.7,102.68 200.08,105.71 203.47,107.51 206.86,106.6 210.25,106.18 213.63,106.35 217.02,104.3 220.41,101.78 223.79,102.52 227.18,104.71 230.57,105.18 233.95,105.69 237.34,107.66 240.73,107.73 244.11,104.85 247.5,103.06 250.89,103.54 254.27,103.27 257.66,102.79 261.05,104.98 264.43,107.74 267.82,107.38 271.21,105.76 274.59,105.6 277.98,104.78 281.37,102.29 284.75,101.86 288.14,104.42 291.53,106.03 294.92,105.9 298.3,106.84 301.69,107.73 305.08,105.58 308.46,102.73 311.85,102.77 315.24,103.75" fill="none" stroke="#d09a48" stroke-width="0.4" stroke-opacity="0.41"/>
<polyline points="179.76,117.51 183.15,113.78 186.54,113.23 189.92,113.81 193.31,115.05 196.7,118.55 200.08,121.38 203.47,119.3 206.86,114.9 210.25,113.15 213.63,113.59 217.02,114.34 220.41,116.97 223.79,120.72 227.18,120.71 230.57,116.5 233.95,113.42 237.34,113.35 240.73,113.95 244.11,115.62 247.5,119.42 250.89,121.38 254.27,118.34 257.66,114.21 261.05,113.17 264.43,113.71 267.82,114.68 271.21,117.83 274.59,121.18 277.98,120.01 281.37,115.57 284.75,113.21 288.14,113.48 291.53,114.14 294.92,116.32 298.3,120.2 301.69,121.11 305.08,117.32 308.46,113.7 311.85,113.25 315.24,113.83" fill="none" stroke="#d09a48" stroke-width="0.4" stroke-opacity="0.75"/>
<polyline points="179.76,126.07 183.15,123.95 186.54,123.58 189.92,122.48 193.31,122.91 196.7,126.83 200.08,130.61 203.47,131.69 206.86,132.59 210.25,133.77 213.63,131.84 217.02,127.45 220.41,124.89 223.79,124.08 227.18,122.48 230.57,122.09 233.95,125.45 237.34,129.38 240.73,130.88 244.11,132.17 247.5,134.01 250.89,132.92 254.27,128.82 257.66,125.97 261.05,124.83 264.43,122.77 267.82,121.56 271.21,124.21 274.59,128.09 277.98,129.9 281.37,131.48 284.75,133.93 288.14,133.74 291.53,130.12 294.92,127.15 298.3,125.77 301.69,123.35 305.08,121.34 308.46,123.16 311.85,126.83 315.24,128.8" fill="none" stroke="#d09a48" stroke-width="0.4" stroke-opacity="0.41"/>
<polyline points="179.76,133.67 183.15,132.65 186.54,134.04 189.92,136.35 193.31,141.25 196.7,146.54 200.08,146.96 203.47,142.93 206.86,138.94 210.25,135.6 213.63,132.2 217.02,132.2 220.41,137.4 223.79,143.03 227.18,145.24 230.57,145.62 233.95,144.53 237.34,139.69 240.73,133.59 244.11,131.8 247.5,134.28 250.89,137.38 254.27,141.16 257.66,145.95 261.05,147.42 264.43,143.31 267.82,138.04 271.21,135.01 274.59,132.92 277.98,132.54 281.37,136.82 284.75,143.25 288.14,146.16 291.53,145.36 294.92,143.57 298.3,139.85 301.69,134.07 305.08,131.2 308.46,133.91 311.85,138.31 315.24,141.71" fill="none" stroke="#d09a48" stroke-width="0.4" stroke-opacity="0.75"/>
<polyline points="179.76,148.04 183.15,149.75 186.54,150.72 189.92,151.29 193.31,153.15 196.7,153.53 200.08,150.45 203.47,147.98 206.86,149.0 210.25,150.53 213.63,150.93 217.02,152.36 220.41,153.82 223.79,151.9 227.18,148.55 230.57,148.3 233.95,150.1 237.34,150.78 240.73,151.6 244.11,153.51 247.5,153.09 250.89,149.67 254.27,147.94 257.66,149.43 261.05,150.66 264.43,151.09 267.82,152.81 271.21,153.74 274.59,151.11 277.98,148.16 281.37,148.66 284.75,150.37 288.14,150.85 291.53,152.0 294.92,153.75 298.3,152.49 301.69,148.99 305.08,148.08 308.46,149.82 311.85,150.73 315.24,151.34" fill="none" stroke="#d09a48" stroke-width="0.4" stroke-opacity="0.41"/>
<polyline points="179.76,158.6 183.15,160.5 186.54,160.98 189.92,162.67 193.31,166.0 196.7,166.98 200.08,165.17 203.47,164.14 206.86,163.57 210.25,160.76 213.63,157.88 217.02,158.33 220.41,159.95 223.79,160.26 227.18,161.69 230.57,165.19 233.95,166.83 237.34,165.53 240.73,164.7 244.11,164.41 247.5,161.77 250.89,158.49 254.27,158.28 257.66,159.57 261.05,159.64 264.43,160.72 267.82,164.24 271.21,166.47 274.59,165.69 277.98,165.1 281.37,165.17 284.75,162.83 288.14,159.26 291.53,158.45 294.92,159.37 298.3,159.15 301.69,159.8 305.08,163.21 308.46,165.91 311.85,165.65 315.24,165.33" fill="none" stroke="#d09a48" stroke-width="0.4" stroke-opacity="0.75"/>
<polyline points="179.76,170.62 183.15,173.89 186.54,176.1 189.92,178.9 193.31,179.87 196.7,176.16 200.08,171.24 203.47,169.35 206.86,169.19 210.25,169.44 213.63,172.56 217.02,177.79 220.41,179.93 223.79,177.95 227.18,175.55 230.57,173.15 233.95,169.31 237.34,167.19 240.73,170.02 244.11,174.53 247.5,176.87 250.89,178.33 254.27,179.32 257.66,176.72 261.05,171.33 264.43,168.45 267.82,169.15 271.21,170.4 274.59,172.6 277.98,177.16 281.37,180.32 284.75,178.56 288.14,174.85 291.53,172.42 294.92,169.88 298.3,167.6 301.69,169.39 305.08,174.53 308.46,177.84 311.85,178.34 315.24,178.42" fill="none" stroke="#d09a48" stroke-width="0.4" stroke-opacity="0.41"/>
<polyline points="179.76,184.63 183.15,189.3 186.54,191.46 189.92,190.98 193.31,185.97 196.7,179.08 200.08,177.39 203.47,182.2 206.86,187.81 210.25,190.87 213.63,191.62 217.02,188.48 220.41,181.54 223.79,177.12 227.18,179.85 230.57,185.87 233.95,189.95 237.34,191.64 240.73,190.31 244.11,184.41 247.5,178.07 250.89,178.02 254.27,183.55 257.66,188.69 261.05,191.23 264.43,191.35 267.82,187.17 271.21,180.1 274.59,177.12 277.98,181.11 281.37,186.99 284.75,190.5 288.14,191.69 291.53,189.4 294.92,182.81 298.3,177.4 301.69,178.94 305.08,184.86 308.46,189.43 311.85,191.51 315.24,190.87" fill="none" stroke="#d09a48" stroke-width="0.4" stroke-opacity="0.75"/>
<polyline points="179.76,198.25 183.15,197.76 186.54,198.5 189.92,199.84 193.31,198.45 196.7,195.9 200.08,195.59 203.47,195.75 206.86,194.18 210.25,193.75 213.63,196.12 217.02,197.8 220.41,197.47 223.79,198.23 227.18,199.92 230.57,199.0 233.95,196.48 237.34,195.95 240.73,196.09 244.11,194.4 247.5,193.48 250.89,195.52 254.27,197.33 257.66,197.11 261.05,197.86 264.43,199.85 267.82,199.44 271.21,197.05 274.59,196.34 277.98,196.49 281.37,194.74 284.75,193.35 288.14,194.99 291.53,196.85 294.92,196.72 298.3,197.4 301.69,199.63 305.08,199.75 308.46,197.57 311.85,196.75 315.24,196.94" fill="none" stroke="#d09a48" stroke-width="0.4" stroke-opacity="0.41"/>
<polyline points="179.76,211.38 183.15,211.16 186.54,211.4 189.92,209.9 193.31,205.82 196.7,203.56 200.08,205.09 203.47,206.98 206.86,208.13 210.25,210.76 213.63,213.15 217.02,211.51 220.41,207.82 223.79,206.13 227.18,205.47 230.57,204.25 233.95,205.34 237.34,209.5 240.73,212.17 244.11,211.49 247.5,210.53 250.89,209.65 254.27,206.53 257.66,203.43 261.05,204.35 264.43,207.39 267.82,208.98 271.21,210.37 274.59,212.54 277.98,212.06 281.37,208.12 284.75,205.27 288.14,205.18 291.53,205.11 294.92,205.49 298.3,208.81 301.69,212.43 305.08,212.25 308.46,210.06 311.85,208.84 315.24,206.96" fill="none" stroke="#d09a48" stroke-width="0.4" stroke-opacity="0.75"/>
<polyline points="179.76,224.66 183.15,223.21 186.54,220.6 189.92,216.15 193.31,213.18 196.7,216.1 200.08,221.99 203.47,224.73 206.86,223.9 210.25,221.83 213.63,218.02 217.02,213.78 220.41,214.25 223.79,219.79 227.18,224.21 230.57,224.45 233.95,222.78 237.34,219.76 240.73,215.17 244.11,213.28 247.5,217.36 250.89,222.98 254.27,224.75 257.66,223.53 261.05,221.19 264.43,216.98 267.82,213.34 271.21,215.18 274.59,221.06 277.98,224.58 281.37,224.17 284.75,222.29 288.14,218.83 291.53,214.33 294.92,213.69 298.3,218.7 301.69,223.75 305.08,224.63 308.46,223.13 311.85,220.45 315.24,215.96" fill="none" stroke="#d09a48" stroke-width="0.4" stroke-opacity="0.41"/>
<polyline points="179.76,236.84 183.15,235.24 186.54,232.73 189.92,227.73 193.31,223.97 196.7,224.3 200.08,225.91 203.47,227.29 206.86,231.02 210.25,236.25 213.63,238.4 217.02,237.35 220.41,236.33 223.79,234.37 227.18,229.46 230.57,224.98 233.95,224.34 237.34,225.26 240.73,226.02 244.11,229.24 247.5,234.68 250.89,237.71 254.27,237.5 257.66,237.14 261.05,235.87 264.43,231.28 267.82,226.29 271.21,224.76 274.59,224.96 277.98,225.01 281.37,227.53 284.75,232.94 288.14,236.69 291.53,237.28 294.92,237.6 298.3,237.14 301.69,233.1 305.08,227.83 308.46,225.53 311.85,225.03 315.24,224.32" fill="none" stroke="#d09a48" stroke-width="0.4" stroke-opacity="0.75"/>
<polyline points="179.76,243.08 183.15,243.02 186.54,241.77 189.92,239.52 193.31,240.1 196.7,242.93 200.08,243.98 203.47,243.76 206.86,244.82 210.25,245.01 213.63,242.24 217.02,239.96 220.41,240.7 223.79,241.59 227.18,241.4 230.57,242.95 233.95,245.62 237.34,245.4 240.73,242.99 244.11,242.13 247.5,241.95 250.89,240.26 254.27,239.71 257.66,242.37 261.05,244.65 264.43,244.28 267.82,244.08 271.21,244.65 274.59,242.96 277.98,240.0 281.37,239.88 284.75,241.76 288.14,242.26 291.53,242.7 294.92,244.95 298.3,245.88 301.69,243.5 305.08,241.4 308.46,241.49 311.85,241.01 315.24,239.97" fill="none" stroke="#d09a48" stroke-width="0.4" stroke-opacity="0.41"/>
<polyline points="179.76,253.99 183.15,252.31 186.54,250.28 189.92,250.61 193.31,254.94 196.7,258.54 200.08,257.53 203.47,254.78 206.86,253.0 210.25,251.03 213.63,249.96 217.02,252.96 220.41,257.61 223.79,258.4 227.18,255.78 230.57,253.63 233.95,251.87 237.34,250.01 240.73,251.28 244.11,256.01 247.5,258.7 250.89,256.92 254.27,254.32 257.66,252.63 261.05,250.59 264.43,250.22 267.82,254.04 271.21,258.22 274.59,257.97 277.98,255.2 281.37,253.28 284.75,251.41 288.14,249.9 291.53,252.15 294.92,256.96 298.3,258.62 301.69,256.28 305.08,253.92 308.46,252.23 311.85,250.22 315.24,250.72" fill="none" stroke="#d09a48" stroke-width="0.4" stroke-opacity="0.75"/>
<polyline points="179.76,263.32 183.15,261.72 186.54,259.42 189.92,260.01 193.31,263.81 196.7,266.65 200.08,267.99 203.47,270.41 206.86,272.12 210.25,269.93 213.63,266.25 217.02,264.39 220.41,262.58 223.79,259.7 227.18,259.37 230.57,262.61 233.95,265.46 237.34,266.94 240.73,269.64 244.11,272.13 247.5,270.82 250.89,267.44 254.27,265.53 257.66,263.63 261.05,260.29 264.43,259.04 267.82,261.59 271.21,264.31 274.59,265.79 277.98,268.63 281.37,271.82 284.75,271.43 288.14,268.51 291.53,266.68 294.92,264.82 298.3,261.15 301.69,259.02 305.08,260.8 308.46,263.24 311.85,264.6 315.24,267.44" fill="none" stroke="#d09a48" stroke-width="0.4" stroke-opacity="0.41"/>
<polyline points="179.76,271.75 183.15,270.33 186.54,271.31 189.92,276.77 193.31,282.65 196.7,284.06 200.08,282.35 203.47,279.94 206.86,275.54 210.25,270.21 213.63,269.16 217.02,273.18 220.41,277.62 223.79,280.78 227.18,283.86 230.57,284.31 233.95,279.53 237.34,273.48 240.73,270.95 244.11,270.92 247.5,272.03 250.89,276.32 254.27,282.49 257.66,284.89 261.05,282.38 264.43,278.9 267.82,275.37 271.21,270.9 274.59,268.94 277.98,272.64 281.37,278.32 284.75,281.58 288.14,283.28 291.53,283.73 294.92,280.03 298.3,273.52 301.69,270.04 305.08,270.91 308.46,273.04 311.85,276.41 315.24,281.89" fill="none" stroke="#d09a48" stroke-width="0.4" stroke-opacity="0.75"/>
<polyline points="179.76,287.18 183.15,286.68 186.54,287.9 189.92,291.03 193.31,291.61 196.7,288.82 200.08,287.01 203.47,287.2 206.86,286.86 210.25,287.06 213.63,289.84 217.02,291.92 220.41,290.06 223.79,287.39 227.18,287.07 230.57,287.1 233.95,286.69 237.34,288.53 240.73,291.52 244.11,291.17 247.5,288.21 250.89,286.97 254.27,287.21 257.66,286.73 261.05,287.46 264.43,290.53 267.82,291.83 271.21,289.37 274.59,287.13 277.98,287.15 281.37,286.97 284.75,286.83 288.14,289.24 291.53,291.82 294.92,290.6 298.3,287.71 301.69,287.01 305.08,287.17 308.46,286.67 311.85,288.01 315.24,291.14" fill="none" stroke="#d09a48" stroke-width="0.4" stroke-opacity="0.41"/>
<polyline points="179.76,297.27 183.15,297.33 186.54,299.9 189.92,303.35 193.31,303.87 196.7,302.9 200.08,303.1 203.47,302.22 206.86,298.7 210.25,296.24 213.63,296.7 217.02,296.99 220.41,296.65 223.79,298.84 227.18,302.48 230.57,303.57 233.95,302.96 237.34,303.47 240.73,303.08 244.11,299.77 247.5,296.91 250.89,296.88 254.27,296.89 257.66,296.13 261.05,297.82 264.43,301.51 267.82,303.09 271.21,302.83 274.59,303.64 277.98,303.82 281.37,300.84 284.75,297.71 288.14,297.24 291.53,297.0 294.92,295.79 298.3,296.9 301.69,300.49 305.08,302.46 308.46,302.52 311.85,303.62 315.24,304.37" fill="none" stroke="#d09a48" stroke-width="0.4" stroke-opacity="0.75"/>
<rect x="11.81" y="47.24" width="141.38" height="258.66" rx="4.43" fill="#5a9a94" fill-opacity="0.06" stroke="#5a9a94" stroke-width="0.3" stroke-opacity="0.4"/>
<rect x="176.81" y="47.24" width="141.38" height="258.66" rx="4.43" fill="#c88018" fill-opacity="0.08" stroke="#c88018" stroke-width="0.3" stroke-opacity="0.5"/>
<circle cx="82.5" cy="41.34" r="4.13" fill="#5a9a94"/>
<circle cx="247.5" cy="41.34" r="4.13" fill="#c88018"/>
<line x1="165.0" y1="59.06" x2="165.0" y2="300.0" stroke="#b0b8c0" stroke-width="1.77"/>
<circle cx="48.63" cy="80.02" r="8.86" fill="#c8ddd9" stroke="#5a9a94" stroke-width="2.36"/>
<line x1="48.63" y1="80.02" x2="48.63" y2="72.93" stroke="#5a5040" stroke-width="1.48"/>
<circle cx="48.63" cy="80.02" r="11.81" fill="none" stroke="#d4001a" stroke-width="1.48" stroke-opacity="0.8"/>
<circle id="param_rest_0" cx="48.63" cy="80.02" r="0.5" fill="none" stroke="none"/>
<circle cx="153.78" cy="80.02" r="2.07" fill="#4c6ab0" fill-opacity="1.0"/>
<circle cx="116.37" cy="80.02" r="8.86" fill="#c8ddd9" stroke="#5a9a94" stroke-width="1.48"/>
<line x1="116.37" y1="80.02" x2="116.37" y2="72.93" stroke="#5a5040" stroke-width="1.48"/>
<circle id="param_rest_1" cx="116.37" cy="80.02" r="0.5" fill="none" stroke="none"/>
<circle cx="153.78" cy="80.02" r="2.07" fill="#8a94a0" fill-opacity="0.5"/>
<circle cx="48.63" cy="110.14" r="8.86" fill="#c8ddd9" stroke="#5a9a94" stroke-width="1.48"/>
<line x1="48.63" y1="110.14" x2="48.63" y2="103.05" stroke="#5a5040" stroke-width="1.48"/>
<circle id="param_rest_2" cx="48.63" cy="110.14" r="0.5" fill="none" stroke="none"/>
<circle cx="153.78" cy="110.14" r="2.07" fill="#8a94a0" fill-opacity="0.5"/>
<circle cx="116.37" cy="110.14" r="8.86" fill="#c8ddd9" stroke="#5a9a94" stroke-width="1.48"/>
<line x1="116.37" y1="110.14" x2="116.37" y2="103.05" stroke="#5a5040" stroke-width="1.48"/>
<circle id="param_rest_3" cx="116.37" cy="110.14" r="0.5" fill="none" stroke="none"/>
<circle cx="153.78" cy="110.14" r="2.07" fill="#8a94a0" fill-opacity="0.5"/>
<circle cx="48.63" cy="140.26" r="8.86" fill="#c8ddd9" stroke="#5a9a94" stroke-width="1.48"/>
<line x1="48.63" y1="140.26" x2="48.63" y2="133.17" stroke="#5a5040" stroke-width="1.48"/>
<circle id="param_rest_4" cx="48.63" cy="140.26" r="0.5" fill="none" stroke="none"/>
<circle cx="153.78" cy="140.26" r="2.07" fill="#8a94a0" fill-opacity="0.5"/>
<circle cx="116.37" cy="140.26" r="8.86" fill="#c8ddd9" stroke="#5a9a94" stroke-width="1.48"/>
<line x1="116.37" y1="140.26" x2="116.37" y2="133.17" stroke="#5a5040" stroke-width="1.48"/>
<circle id="param_rest_5" cx="116.37" cy="140.26" r="0.5" fill="none" stroke="none"/>
<circle cx="153.78" cy="140.26" r="2.07" fill="#8a94a0" fill-opacity="0.5"/>
<circle cx="48.63" cy="170.37" r="8.86" fill="#c8ddd9" stroke="#5a9a94" stroke-width="1.48"/>
<line x1="48.63" y1="170.37" x2="48.63" y2="163.29" stroke="#5a5040" stroke-width="1.48"/>
<circle id="param_rest_6" cx="48.63" cy="170.37" r="0.5" fill="none" stroke="none"/>
<circle cx="153.78" cy="170.37" r="2.07" fill="#8a94a0" fill-opacity="0.5"/>
<circle cx="116.37" cy="170.37" r="8.86" fill="#c8ddd9" stroke="#5a9a94" stroke-width="1.48"/>
<line x1="116.37" y1="170.37" x2="116.37" y2="163.29" stroke="#5a5040" stroke-width="1.48"/>
<circle id="param_rest_7" cx="116.37" cy="170.37" r="0.5" fill="none" stroke="none"/>
<circle cx="153.78" cy="170.37" r="2.07" fill="#8a94a0" fill-opacity="0.5"/>
<circle cx="48.63" cy="200.49" r="8.86" fill="#c8ddd9" stroke="#5a9a94" stroke-width="1.48"/>
<line x1="48.63" y1="200.49" x2="48.63" y2="193.41" stroke="#5a5040" stroke-width="1.48"/>
<circle id="param_rest_8" cx="48.63" cy="200.49" r="0.5" fill="none" stroke="none"/>
<circle cx="153.78" cy="200.49" r="2.07" fill="#8a94a0" fill-opacity="0.5"/>
<circle cx="116.37" cy="200.49" r="8.86" fill="#c8ddd9" stroke="#5a9a94" stroke-width="1.48"/>
<line x1="116.37" y1="200.49" x2="116.37" y2="193.41" stroke="#5a5040" stroke-width="1.48"/>
<circle id="param_rest_9" cx="116.37" cy="200.49" r="0.5" fill="none" stroke="none"/>
<circle cx="153.78" cy="200.49" r="2.07" fill="#8a94a0" fill-opacity="0.5"/>
<circle cx="48.63" cy="230.61" r="8.86" fill="#c8ddd9" stroke="#5a9a94" stroke-width="1.48"/>
<line x1="48.63" y1="230.61" x2="48.63" y2="223.52" stroke="#5a5040" stroke-width="1.48"/>
<circle id="param_rest_10" cx="48.63" cy="230.61" r="0.5" fill="none" stroke="none"/>
<circle cx="153.78" cy="230.61" r="2.07" fill="#8a94a0" fill-opacity="0.5"/>
<circle cx="116.37" cy="230.61" r="8.86" fill="#c8ddd9" stroke="#5a9a94" stroke-width="1.48"/>
<line x1="116.37" y1="230.61" x2="116.37" y2="223.52" stroke="#5a5040" stroke-width="1.48"/>
<circle id="param_rest_11" cx="116.37" cy="230.61" r="0.5" fill="none" stroke="none"/>
<circle cx="153.78" cy="230.61" r="2.07" fill="#8a94a0" fill-opacity="0.5"/>
<circle cx="48.63" cy="260.73" r="8.86" fill="#c8ddd9" stroke="#5a9a94" stroke-width="1.48"/>
<line x1="48.63" y1="260.73" x2="48.63" y2="253.64" stroke="#5a5040" stroke-width="1.48"/>
<circle id="param_rest_12" cx="48.63" cy="260.73" r="0.5" fill="none" stroke="none"/>
<circle cx="153.78" cy="260.73" r="2.07" fill="#8a94a0" fill-opacity="0.5"/>
<circle cx="116.37" cy="260.73" r="8.86" fill="#c8ddd9" stroke="#5a9a94" stroke-width="1.48"/>
<line x1="116.37" y1="260.73" x2="116.37" y2="253.64" stroke="#5a5040" stroke-width="1.48"/>
<circle id="param_rest_13" cx="116.37" cy="260.73" r="0.5" fill="none" stroke="none"/>
<circle cx="153.78" cy="260.73" r="2.07" fill="#8a94a0" fill-opacity="0.5"/>
<circle cx="48.63" cy="290.85" r="8.86" fill="#c8ddd9" stroke="#5a9a94" stroke-width="1.48"/>
<line x1="48.63" y1="290.85" x2="48.63" y2="283.76" stroke="#5a5040" stroke-width="1.48"/>
<circle id="param_rest_14" cx="48.63" cy="290.85" r="0.5" fill="none" stroke="none"/>
<circle cx="153.78" cy="290.85" r="2.07" fill="#8a94a0" fill-opacity="0.5"/>
<circle cx="116.37" cy="290.85" r="8.86" fill="#c8ddd9" stroke="#5a9a94" stroke-width="1.48"/>
<line x1="116.37" y1="290.85" x2="116.37" y2="283.76" stroke="#5a5040" stroke-width="1.48"/>
<circle id="param_rest_15" cx="116.37" cy="290.85" r="0.5" fill="none" stroke="none"/>
<circle cx="153.78" cy="290.85" r="2.07" fill="#8a94a0" fill-opacity="0.5"/>
<circle cx="213.63" cy="80.02" r="8.86" fill="#e4d4b8" stroke="#c88018" stroke-width="2.36"/>
<line x1="213.63" y1="80.02" x2="213.63" y2="72.93" stroke="#5a5040" stroke-width="1.48"/>
<circle cx="213.63" cy="80.02" r="11.81" fill="none" stroke="#d4001a" stroke-width="1.48" stroke-opacity="0.8"/>
<circle id="param_accent_0" cx="213.63" cy="80.02" r="0.5" fill="none" stroke="none"/>
<circle cx="176.22" cy="80.02" r="2.07" fill="#4c6ab0" fill-opacity="1.0"/>
<circle cx="281.37" cy="80.02" r="8.86" fill="#e4d4b8" stroke="#c88018" stroke-width="1.48"/>
<line x1="281.37" y1="80.02" x2="281.37" y2="72.93" stroke="#5a5040" stroke-width="1.48"/>
<circle id="param_accent_1" cx="281.37" cy="80.02" r="0.5" fill="none" stroke="none"/>
<circle cx="176.22" cy="80.02" r="2.07" fill="#8a94a0" fill-opacity="0.5"/>
<circle cx="213.63" cy="110.14" r="8.86" fill="#e4d4b8" stroke="#c88018" stroke-width="1.48"/>
<line x1="213.63" y1="110.14" x2="213.63" y2="103.05" stroke="#5a5040" stroke-width="1.48"/>
<circle id="param_accent_2" cx="213.63" cy="110.14" r="0.5" fill="none" stroke="none"/>
<circle cx="176.22" cy="110.14" r="2.07" fill="#8a94a0" fill-opacity="0.5"/>
<circle cx="281.37" cy="110.14" r="8.86" fill="#e4d4b8" stroke="#c88018" stroke-width="1.48"/>
<line x1="281.37" y1="110.14" x2="281.37" y2="103.05" stroke="#5a5040" stroke-width="1.48"/>
<circle id="param_accent_3" cx="281.37" cy="110.14" r="0.5" fill="none" stroke="none"/>
<circle cx="176.22" cy="110.14" r="2.07" fill="#8a94a0" fill-opacity="0.5"/>
<circle cx="213.63" cy="140.26" r="8.86" fill="#e4d4b8" stroke="#c88018" stroke-width="1.48"/>
<line x1="213.63" y1="140.26" x2="213.63" y2="133.17" stroke="#5a5040" stroke-width="1.48"/>
<circle id="param_accent_4" cx="213.63" cy="140.26" r="0.5" fill="none" stroke="none"/>
<circle cx="176.22" cy="140.26" r="2.07" fill="#8a94a0" fill-opacity="0.5"/>
<circle cx="281.37" cy="140.26" r="8.86" fill="#e4d4b8" stroke="#c88018" stroke-width="1.48"/>
<line x1="281.37" y1="140.26" x2="281.37" y2="133.17" stroke="#5a5040" stroke-width="1.48"/>
<circle id="param_accent_5" cx="281.37" cy="140.26" r="0.5" fill="none" stroke="none"/>
<circle cx="176.22" cy="140.26" r="2.07" fill="#8a94a0" fill-opacity="0.5"/>
<circle cx="213.63" cy="170.37" r="8.86" fill="#e4d4b8" stroke="#c88018" stroke-width="1.48"/>
<line x1="213.63" y1="170.37" x2="213.63" y2="163.29" stroke="#5a5040" stroke-width="1.48"/>
<circle id="param_accent_6" cx="213.63" cy="170.37" r="0.5" fill="none" stroke="none"/>
<circle cx="176.22" cy="170.37" r="2.07" fill="#8a94a0" fill-opacity="0.5"/>
<circle cx="281.37" cy="170.37" r="8.86" fill="#e4d4b8" stroke="#c88018" stroke-width="1.48"/>
<line x1="281.37" y1="170.37" x2="281.37" y2="163.29" stroke="#5a5040" stroke-width="1.48"/>
<circle id="param_accent_7" cx="281.37" cy="170.37" r="0.5" fill="none" stroke="none"/>
<circle cx="176.22" cy="170.37" r="2.07" fill="#8a94a0" fill-opacity="0.5"/>
<circle cx="213.63" cy="200.49" r="8.86" fill="#e4d4b8" stroke="#c88018" stroke-width="1.48"/>
<line x1="213.63" y1="200.49" x2="213.63" y2="193.41" stroke="#5a5040" stroke-width="1.48"/>
<circle id="param_accent_8" cx="213.63" cy="200.49" r="0.5" fill="none" stroke="none"/>
<circle cx="176.22" cy="200.49" r="2.07" fill="#8a94a0" fill-opacity="0.5"/>
<circle cx="281.37" cy="200.49" r="8.86" fill="#e4d4b8" stroke="#c88018" stroke-width="1.48"/>
<line x1="281.37" y1="200.49" x2="281.37" y2="193.41" stroke="#5a5040" stroke-width="1.48"/>
<circle id="param_accent_9" cx="281.37" cy="200.49" r="0.5" fill="none" stroke="none"/>
<circle cx="176.22" cy="200.49" r="2.07" fill="#8a94a0" fill-opacity="0.5"/>
<circle cx="213.63" cy="230.61" r="8.86" fill="#e4d4b8" stroke="#c88018" stroke-width="1.48"/>
<line x1="213.63" y1="230.61" x2="213.63" y2="223.52" stroke="#5a5040" stroke-width="1.48"/>
<circle id="param_accent_10" cx="213.63" cy="230.61" r="0.5" fill="none" stroke="none"/>
<circle cx="176.22" cy="230.61" r="2.07" fill="#8a94a0" fill-opacity="0.5"/>
<circle cx="281.37" cy="230.61" r="8.86" fill="#e4d4b8" stroke="#c88018" stroke-width="1.48"/>
<line x1="281.37" y1="230.61" x2="281.37" y2="223.52" stroke="#5a5040" stroke-width="1.48"/>
<circle id="param_accent_11" cx="281.37" cy="230.61" r="0.5" fill="none" stroke="none"/>
<circle cx="176.22" cy="230.61" r="2.07" fill="#8a94a0" fill-opacity="0.5"/>
<circle cx="213.63" cy="260.73" r="8.86" fill="#e4d4b8" stroke="#c88018" stroke-width="1.48"/>
<line x1="213.63" y1="260.73" x2="213.63" y2="253.64" stroke="#5a5040" stroke-width="1.48"/>
<circle id="param_accent_12" cx="213.63" cy="260.73" r="0.5" fill="none" stroke="none"/>
<circle cx="176.22" cy="260.73" r="2.07" fill="#8a94a0" fill-opacity="0.5"/>
<circle cx="281.37" cy="260.73" r="8.86" fill="#e4d4b8" stroke="#c88018" stroke-width="1.48"/>
<line x1="281.37" y1="260.73" x2="281.37" y2="253.64" stroke="#5a5040" stroke-width="1.48"/>
<circle id="param_accent_13" cx="281.37" cy="260.73" r="0.5" fill="none" stroke="none"/>
<circle cx="176.22" cy="260.73" r="2.07" fill="#8a94a0" fill-opacity="0.5"/>
<circle cx="213.63" cy="290.85" r="8.86" fill="#e4d4b8" stroke="#c88018" stroke-width="1.48"/>
<line x1="213.63" y1="290.85" x2="213.63" y2="283.76" stroke="#5a5040" stroke-width="1.48"/>
<circle id="param_accent_14" cx="213.63" cy="290.85" r="0.5" fill="none" stroke="none"/>
<circle cx="176.22" cy="290.85" r="2.07" fill="#8a94a0" fill-opacity="0.5"/>
<circle cx="281.37" cy="290.85" r="8.86" fill="#e4d4b8" stroke="#c88018" stroke-width="1.48"/>
<line x1="281.37" y1="290.85" x2="281.37" y2="283.76" stroke="#5a5040" stroke-width="1.48"/>
<circle id="param_accent_15" cx="281.37" cy="290.85" r="0.5" fill="none" stroke="none"/>
<circle cx="176.22" cy="290.85" r="2.07" fill="#8a94a0" fill-opacity="0.5"/>
<circle cx="99.0" cy="323.62" r="10.63" fill="#e2ddd2" stroke="#b0a898" stroke-width="0.6"/>
<circle cx="99.0" cy="323.62" r="4.72" fill="none" stroke="#b07d00" stroke-width="0.4"/>
<circle id="output_polygate" cx="99.0" cy="323.62" r="0.5" fill="none" stroke="none"/>
<circle cx="165.0" cy="323.62" r="10.63" fill="#e2ddd2" stroke="#b0a898" stroke-width="0.6"/>
<circle cx="165.0" cy="323.62" r="4.72" fill="none" stroke="#b07d00" stroke-width="0.4"/>
<circle id="output_polycv" cx="165.0" cy="323.62" r="0.5" fill="none" stroke="none"/>
<circle cx="231.0" cy="323.62" r="10.63" fill="#e2ddd2" stroke="#b0a898" stroke-width="0.6"/>
<circle cx="231.0" cy="323.62" r="4.72" fill="none" stroke="#b07d00" stroke-width="0.4"/>
<circle id="output_polyaccent" cx="231.0" cy="323.62" r="0.5" fill="none" stroke="none"/>
<polyline points="14.76,341.34 22.28,343.6 29.79,343.18 37.3,342.74 44.81,343.76 52.32,343.07 59.83,340.24 67.35,339.16 74.86,339.98 82.37,339.45 89.88,338.68 97.39,340.64 104.91,343.11 112.42,343.03 119.93,342.67 127.44,343.89 134.95,343.63 142.46,340.91 149.98,339.51 157.49,340.12 165.0,339.52 172.51,338.39 180.02,339.97 187.54,342.55 195.05,342.78 202.56,342.5 210.07,343.89 217.58,344.1 225.09,341.58 232.61,339.92 240.12,340.35 247.63,339.71 255.14,338.23 262.65,339.37 270.17,341.97 277.68,342.45 285.19,342.23 292.7,343.77 300.21,344.45 307.72,342.22 315.24,340.39" fill="none" stroke="#b0b8c0" stroke-width="0.4" stroke-opacity="0.41"/>
<polyline points="14.76,346.72 22.28,348.43 29.79,346.81 37.3,345.38 44.81,344.11 52.32,341.04 59.83,338.95 67.35,341.06 74.86,344.45 82.37,345.79 89.88,346.83 97.39,348.19 104.91,346.58 112.42,342.31 119.93,340.18 127.44,340.9 134.95,341.42 142.46,342.49 149.98,346.06 157.49,348.82 165.0,347.45 172.51,344.73 180.02,343.43 187.54,341.62 195.05,339.34 202.56,340.39 210.07,344.4 217.58,346.72 225.09,346.84 232.61,347.33 240.12,346.69 247.63,342.93 255.14,339.68 262.65,340.26 270.17,342.11 277.68,343.12 285.19,345.45 292.7,348.55 300.21,348.19 307.72,344.71 315.24,342.48" fill="none" stroke="#b0b8c0" stroke-width="0.4" stroke-opacity="0.75"/>
<polyline points="14.76,352.61 22.28,351.81 29.79,347.44 37.3,344.11 44.81,342.07 52.32,341.58 59.83,345.29 67.35,351.2 74.86,352.84 82.37,349.21 89.88,345.19 97.39,342.78 104.91,341.4 112.42,343.29 119.93,349.05 127.44,352.98 134.95,350.97 142.46,346.56 149.98,343.6 157.49,341.74 165.0,341.97 172.51,346.59 180.02,352.09 187.54,352.37 195.05,348.22 202.56,344.56 210.07,342.37 217.58,341.42 225.09,344.32 232.61,350.3 240.12,353.02 247.63,350.02 255.14,345.76 262.65,343.14 270.17,341.5 277.68,342.6 285.19,347.95 292.7,352.7 300.21,351.67 307.72,347.27 315.24,344.01" fill="none" stroke="#b0b8c0" stroke-width="0.4" stroke-opacity="0.41"/>
<polyline points="14.76,357.29 22.28,354.39 29.79,351.28 37.3,348.92 44.81,344.98 52.32,341.36 59.83,341.95 67.35,345.14 74.86,347.5 82.37,350.45 89.88,355.03 97.39,357.3 104.91,355.34 112.42,352.64 119.93,350.5 127.44,346.51 134.95,342.12 142.46,341.6 149.98,344.07 157.49,346.08 165.0,348.78 172.51,353.65 180.02,356.91 187.54,355.94 195.05,353.8 202.56,352.04 210.07,348.2 217.58,343.24 225.09,341.65 232.61,343.3 240.12,344.82 247.63,347.11 255.14,352.03 262.65,356.12 270.17,356.17 277.68,354.67 285.19,353.45 292.7,349.98 300.21,344.66 307.72,342.09 315.24,342.89" fill="none" stroke="#b0b8c0" stroke-width="0.4" stroke-opacity="0.75"/>
<polyline points="14.76,354.03 22.28,351.38 29.79,350.77 37.3,350.7 44.81,349.33 52.32,349.57 59.83,352.6 67.35,354.4 74.86,353.49 82.37,353.07 89.88,353.24 97.39,351.19 104.91,348.67 112.42,349.41 119.93,351.6 127.44,352.06 134.95,352.58 142.46,354.55 149.98,354.62 157.49,351.74 165.0,349.95 172.51,350.43 180.02,350.16 187.54,349.67 195.05,351.86 202.56,354.63 210.07,354.26 217.58,352.64 225.09,352.49 232.61,351.67 240.12,349.18 247.63,348.75 255.14,351.31 262.65,352.92 270.17,352.79 277.68,353.73 285.19,354.62 292.7,352.47 300.21,349.62 307.72,349.66 315.24,350.64" fill="none" stroke="#b0b8c0" stroke-width="0.4" stroke-opacity="0.41"/>
<polyline points="14.76,355.55 22.28,351.82 29.79,351.27 37.3,351.85 44.81,353.09 52.32,356.59 59.83,359.41 67.35,357.34 74.86,352.94 82.37,351.19 89.88,351.63 97.39,352.38 104.91,355.01 112.42,358.76 119.93,358.74 127.44,354.54 134.95,351.46 142.46,351.39 149.98,351.99 157.49,353.66 165.0,357.46 172.51,359.42 180.02,356.38 187.54,352.25 195.05,351.2 202.56,351.75 210.07,352.72 217.58,355.87 225.09,359.22 232.61,358.04 240.12,353.61 247.63,351.25 255.14,351.52 262.65,352.17 270.17,354.36 277.68,358.23 285.19,359.15 292.7,355.36 300.21,351.74 307.72,351.29 315.24,351.87" fill="none" stroke="#b0b8c0" stroke-width="0.4" stroke-opacity="0.75"/>
<polyline points="14.76,355.26 22.28,353.14 29.79,352.77 37.3,351.67 44.81,352.1 52.32,356.02 59.83,359.8 67.35,360.88 74.86,361.78 82.37,362.96 89.88,361.03 97.39,356.64 104.91,354.08 112.42,353.27 119.93,351.67 127.44,351.28 134.95,354.64 142.46,358.57 149.98,360.07 157.49,361.36 165.0,363.2 172.51,362.11 180.02,358.01 187.54,355.16 195.05,354.02 202.56,351.96 210.07,350.75 217.58,353.4 225.09,357.28 232.61,359.09 240.12,360.67 247.63,363.12 255.14,362.93 262.65,359.31 270.17,356.34 277.68,354.96 285.19,352.54 292.7,350.53 300.21,352.35 307.72,356.02 315.24,357.99" fill="none" stroke="#b0b8c0" stroke-width="0.4" stroke-opacity="0.41"/>
<polyline points="14.76,354.01 22.28,353.0 29.79,354.38 37.3,356.7 44.81,361.59 52.32,366.88 59.83,367.31 67.35,363.27 74.86,359.28 82.37,355.94 89.88,352.54 97.39,352.54 104.91,357.74 112.42,363.37 119.93,365.58 127.44,365.97 134.95,364.87 142.46,360.03 149.98,353.93 157.49,352.14 165.0,354.62 172.51,357.72 180.02,361.5 187.54,366.29 195.05,367.76 202.56,363.65 210.07,358.38 217.58,355.35 225.09,353.27 232.61,352.88 240.12,357.16 247.63,363.59 255.14,366.5 262.65,365.71 270.17,363.91 277.68,360.19 285.19,354.41 292.7,351.54 300.21,354.25 307.72,358.65 315.24,362.05" fill="none" stroke="#b0b8c0" stroke-width="0.4" stroke-opacity="0.75"/>
<polyline points="14.76,359.54 22.28,361.24 29.79,362.22 37.3,362.78 44.81,364.65 52.32,365.02 59.83,361.94 67.35,359.48 74.86,360.49 82.37,362.02 89.88,362.42 97.39,363.85 104.91,365.31 112.42,363.39 119.93,360.04 127.44,359.79 134.95,361.59 142.46,362.27 149.98,363.1 157.49,365.0 165.0,364.58 172.51,361.17 180.02,359.44 187.54,360.92 195.05,362.15 202.56,362.58 210.07,364.3 217.58,365.23 225.09,362.6 232.61,359.65 240.12,360.15 247.63,361.86 255.14,362.34 262.65,363.49 270.17,365.24 277.68,363.98 285.19,360.49 292.7,359.57 300.21,361.31 307.72,362.23 315.24,362.83" fill="none" stroke="#b0b8c0" stroke-width="0.4" stroke-opacity="0.41"/>
<polyline points="14.76,361.24 22.28,363.14 29.79,363.63 37.3,365.32 44.81,368.64 52.32,369.62 59.83,367.81 67.35,366.78 74.86,366.22 82.37,363.4 89.88,360.53 97.39,360.98 104.91,362.6 112.42,362.9 119.93,364.34 127.44,367.83 134.95,369.48 142.46,368.17 149.98,367.34 157.49,367.06 165.0,364.41 172.51,361.13 180.02,360.93 187.54,362.21 195.05,362.28 202.56,363.36 210.07,366.89 217.58,369.11 225.09,368.33 232.61,367.75 240.12,367.81 247.63,365.47 255.14,361.91 262.65,361.09 270.17,362.01 277.68,361.8 285.19,362.44 292.7,365.85 300.21,368.55 307.72,368.29 315.24,367.98" fill="none" stroke="#b0b8c0" stroke-width="0.4" stroke-opacity="0.75"/>
<circle cx="306.38" cy="323.62" r="4.72" fill="#e2ddd2" stroke="#b0a898" stroke-width="0.3"/>
<circle id="light_connect" cx="306.38" cy="323.62" r="0.5" fill="none" stroke="none"/>
<g transform="translate(111.85,342.52) scale(0.16180) translate(-26.00,-65.00)"><g transform="translate(40.00,148.00) scale(0.11000,-0.11000)"><path d="M370 700H528Q535 700 539.0 696.0Q543 692 543 685V15Q543 8 539.0 4.0Q535 0 528 0H370Q363 0 359.0 4.0Q355 8 355 15V45Q355 48 353.0 49.0Q351 50 349 47Q312 -8 233 -8Q166 -8 112.5 34.5Q59 77 37 150Q22 200 22 262Q22 334 44 390Q68 451 119.0 489.5Q170 528 241 528Q314 528 349 482Q351 480 353.0 480.5Q355 481 355 484V685Q355 692 359.0 696.0Q363 700 370 700ZM355 259Q355 307 339 336Q321 367 287 367Q251 367 234 334Q219 306 219 259Q219 214 234 186Q252 153 287 153Q322 153 340 187Q355 216 355 259Z" fill="#111111"/></g>
<g transform="translate(201.37,148.00) scale(0.11000,-0.11000)"><path d="M358 370H275Q270 370 270 365V208Q270 158 306 158H343Q350 158 354.0 154.0Q358 150 358 143V15Q358 1 343 -1Q304 -4 268 -4Q177 -4 134.0 24.0Q91 52 90 130V365Q90 370 85 370H31Q24 370 20.0 374.0Q16 378 16 385V505Q16 512 20.0 516.0Q24 520 31 520H85Q90 520 90 525V645Q90 652 94.0 656.0Q98 660 105 660H255Q262 660 266.0 656.0Q270 652 270 645V525Q270 520 275 520H358Q365 520 369.0 516.0Q373 512 373 505V385Q373 378 369.0 374.0Q365 370 358 370Z" fill="#111111"/></g>
<g transform="translate(288.27,148.00) scale(0.11000,-0.11000)"><path d="M815 341V15Q815 8 811.0 4.0Q807 0 800 0H642Q635 0 631.0 4.0Q627 8 627 15V300Q627 330 612.5 348.5Q598 367 575 367Q551 367 536.0 348.5Q521 330 521 300V15Q521 8 517.0 4.0Q513 0 506 0H348Q341 0 337.0 4.0Q333 8 333 15V300Q333 330 317.5 348.5Q302 367 277 367Q255 367 240.5 353.5Q226 340 222 317Q221 315 221 311V15Q221 8 217.0 4.0Q213 0 206 0H48Q41 0 37.0 4.0Q33 8 33 15V505Q33 512 37.0 516.0Q41 520 48 520H206Q213 520 217.0 516.0Q221 512 221 505V455Q221 451 223.0 451.0Q225 451 227 454Q265 528 355 528Q406 528 444.5 504.5Q483 481 503 437Q506 432 509 438Q529 483 564.5 505.5Q600 528 648 528Q727 528 771.0 479.0Q815 430 815 341Z" fill="#111111"/></g><g transform="translate(377.92,148.00) scale(0.11000,-0.11000)"><path d="M32 181Q22 217 22 261Q22 310 34 350Q58 433 122.5 480.5Q187 528 280 528Q373 528 436.5 480.5Q500 433 524 352Q536 310 536 263Q536 225 528 187Q507 97 441.5 44.5Q376 -8 279 -8Q184 -8 118.5 43.0Q53 94 32 181ZM343 217Q347 236 347 262Q347 285 342 308Q327 367 279 367Q229 367 216 308Q211 291 211 262Q211 236 215 217Q230 153 279 153Q305 153 321.0 170.5Q337 188 343 217Z" fill="#111111"/></g><g transform="translate(436.00,148.00) scale(0.11000,-0.11000)"><path d="M370 700H528Q535 700 539.0 696.0Q543 692 543 685V15Q543 8 539.0 4.0Q535 0 528 0H370Q363 0 359.0 4.0Q355 8 355 15V45Q355 48 353.0 49.0Q351 50 349 47Q312 -8 233 -8Q166 -8 112.5 34.5Q59 77 37 150Q22 200 22 262Q22 334 44 390Q68 451 119.0 489.5Q170 528 241 528Q314 528 349 482Q351 480 353.0 480.5Q355 481 355 484V685Q355 692 359.0 696.0Q363 700 370 700ZM355 259Q355 307 339 336Q321 367 287 367Q251 367 234 334Q219 306 219 259Q219 214 234 186Q252 153 287 153Q322 153 340 187Q355 216 355 259Z" fill="#111111"/></g><g transform="translate(496.39,148.00) scale(0.11000,-0.11000)"><path d="M346 520H504Q511 520 515.0 516.0Q519 512 519 505V15Q519 8 515.0 4.0Q511 0 504 0H346Q339 0 335.0 4.0Q331 8 331 15V48Q331 51 329.0 52.0Q327 53 325 50Q284 -8 197 -8Q121 -8 76.0 41.5Q31 91 31 179V505Q31 512 35.0 516.0Q39 520 46 520H204Q211 520 215.0 516.0Q219 512 219 505V220Q219 190 234.5 171.5Q250 153 275 153Q297 153 311.5 166.5Q326 180 330 203Q331 205 331 209V505Q331 512 335.0 516.0Q339 520 346 520Z" fill="#111111"/></g><g transform="translate(553.81,148.00) scale(0.11000,-0.11000)"><path d="M33 15V685Q33 692 37.0 696.0Q41 700 48 700H206Q213 700 217.0 696.0Q221 692 221 685V15Q221 8 217.0 4.0Q213 0 206 0H48Q41 0 37.0 4.0Q33 8 33 15Z" fill="#111111"/></g><g transform="translate(578.45,148.00) scale(0.11000,-0.11000)"><path d="M507 355V15Q507 8 503.0 4.0Q499 0 492 0H334Q327 0 323.0 4.0Q319 8 319 15V50Q319 54 317.5 54.5Q316 55 314 52Q297 21 267.0 6.5Q237 -8 188 -8Q106 -8 59.0 29.5Q12 67 12 139Q12 215 65.5 256.0Q119 297 221 297H314Q319 297 319 302V320Q319 341 303.5 354.0Q288 367 262 367Q244 367 230.0 361.0Q216 355 210 345Q206 338 202.5 335.5Q199 333 193 334L32 354Q18 356 18 366Q22 411 54.0 448.0Q86 485 139.5 506.5Q193 528 259 528Q327 528 384.0 505.0Q441 482 474.0 442.0Q507 402 507 355ZM319 185V198Q319 203 314 203H264Q201 203 201 162Q201 144 212.5 133.0Q224 122 246 122Q278 122 298.5 139.0Q319 156 319 185Z" fill="#111111"/></g><g transform="translate(634.55,148.00) scale(0.11000,-0.11000)"><path d="M379 514Q388 509 386 495L362 341Q361 333 356.5 331.0Q352 329 344 331Q326 335 312 335Q297 335 284 332Q258 327 239.5 310.5Q221 294 221 266V15Q221 8 217.0 4.0Q213 0 206 0H48Q41 0 37.0 4.0Q33 8 33 15V505Q33 512 37.0 516.0Q41 520 48 520H206Q213 520 217.0 516.0Q221 512 221 505V481Q221 478 223.0 477.0Q225 476 226 478Q264 527 325 527Q359 527 379 514Z" fill="#111111"/></g>
<path d="M 38.0,144.8 L 111.3,144.8 L 151.4,118.8 L 191.6,88.8 L 578.9,88.8" fill="none" stroke="#f0ede8" stroke-width="9.0" stroke-linecap="round" stroke-linejoin="round"/>
<path d="M 38.0,144.8 L 111.3,144.8 L 151.4,118.8 L 191.6,88.8 L 578.9,88.8" fill="none" stroke="#d4001a" stroke-width="2.60" stroke-linecap="round" stroke-linejoin="round"/>
<path d="M 38.0,144.8 L 111.3,144.8 L 151.4,118.8 L 191.6,88.8 L 578.9,88.8" fill="none" stroke="#ff5533" stroke-width="0.88" stroke-linecap="round" stroke-linejoin="round" opacity="0.7"/>
<circle cx="38.0" cy="144.8" r="4.2" fill="#0d0d0d" stroke="#d4001a" stroke-width="1.76"/>
<circle cx="578.9" cy="88.8" r="4.2" fill="#0d0d0d" stroke="#d4001a" stroke-width="1.76"/>
<circle cx="111.3" cy="144.8" r="2.4" fill="#d4001a"/>
<circle cx="191.6" cy="88.8" r="2.4" fill="#d4001a"/>
<g transform="translate(151.430,118.850)"><circle r="34.100" fill="#1c1c1c" stroke="#000000" stroke-width="1.023"/><circle r="28.644" fill="#0a0202"/><g stroke="#a83020" stroke-width="0.682" opacity="0.9"><line x1="-28.644" y1="0" x2="28.644" y2="0"/><line x1="0" y1="-28.644" x2="0" y2="28.644"/></g><g stroke="#7a2018" stroke-width="0.443" opacity="0.6"><line x1="-28.644" y1="-14.322" x2="28.644" y2="-14.322"/><line x1="-14.322" y1="-28.644" x2="-14.322" y2="28.644"/><line x1="-28.644" y1="14.322" x2="28.644" y2="14.322"/><line x1="14.322" y1="-28.644" x2="14.322" y2="28.644"/></g><path d="M 19.10,0.00 L 19.01,1.05 L 18.76,2.09 L 18.34,3.13 L 17.76,4.16 L 17.01,5.16 L 16.12,6.15 L 15.09,7.11 L 13.92,8.05 L 12.63,8.95 L 11.22,9.82 L 9.72,10.65 L 8.13,11.44 L 6.47,12.18 L 4.75,12.87 L 2.99,13.52 L 1.20,14.11 L -0.60,14.64 L -2.39,15.12 L -4.17,15.54 L -5.90,15.89 L -7.58,16.18 L -9.20,16.41 L -10.73,16.58 L -12.17,16.68 L -13.50,16.71 L -14.71,16.68 L -15.79,16.58 L -16.73,16.41 L -17.53,16.18 L -18.16,15.89 L -18.64,15.54 L -18.95,15.12 L -19.09,14.64 L -19.06,14.11 L -18.86,13.52 L -18.50,12.87 L -17.97,12.18 L -17.28,11.44 L -16.44,10.65 L -15.45,9.82 L -14.32,8.95 L -13.07,8.05 L -11.70,7.11 L -10.23,6.15 L -8.67,5.16 L -7.03,4.16 L -5.33,3.13 L -3.58,2.09 L -1.80,1.05 L -0.00,0.00 L 1.80,-1.05 L 3.58,-2.09 L 5.33,-3.13 L 7.03,-4.16 L 8.67,-5.16 L 10.23,-6.15 L 11.70,-7.11 L 13.07,-8.05 L 14.32,-8.95 L 15.45,-9.82 L 16.44,-10.65 L 17.28,-11.44 L 17.97,-12.18 L 18.50,-12.87 L 18.86,-13.52 L 19.06,-14.11 L 19.09,-14.64 L 18.95,-15.12 L 18.64,-15.54 L 18.16,-15.89 L 17.53,-16.18 L 16.73,-16.41 L 15.79,-16.58 L 14.71,-16.68 L 13.50,-16.71 L 12.17,-16.68 L 10.73,-16.58 L 9.20,-16.41 L 7.58,-16.18 L 5.90,-15.89 L 4.17,-15.54 L 2.39,-15.12 L 0.60,-14.64 L -1.20,-14.11 L -2.99,-13.52 L -4.75,-12.87 L -6.47,-12.18 L -8.13,-11.44 L -9.72,-10.65 L -11.22,-9.82 L -12.63,-8.95 L -13.92,-8.05 L -15.09,-7.11 L -16.12,-6.15 L -17.01,-5.16 L -17.76,-4.16 L -18.34,-3.13 L -18.76,-2.09 L -19.01,-1.05 L -19.10,-0.00 L -19.01,1.05 L -18.76,2.09 L -18.34,3.13 L -17.76,4.16 L -17.01,5.16 L -16.12,6.15 L -15.09,7.11 L -13.92,8.05 L -12.63,8.95 L -11.22,9.82 L -9.72,10.65 L -8.13,11.44 L -6.47,12.18 L -4.75,12.87 L -2.99,13.52 L -1.20,14.11 L 0.60,14.64 L 2.39,15.12 L 4.17,15.54 L 5.90,15.89 L 7.58,16.18 L 9.20,16.41 L 10.73,16.58 L 12.17,16.68 L 13.50,16.71 L 14.71,16.68 L 15.79,16.58 L 16.73,16.41 L 17.53,16.18 L 18.16,15.89 L 18.64,15.54 L 18.95,15.12 L 19.09,14.64 L 19.06,14.11 L 18.86,13.52 L 18.50,12.87 L 17.97,12.18 L 17.28,11.44 L 16.44,10.65 L 15.45,9.82 L 14.32,8.95 L 13.07,8.05 L 11.70,7.11 L 10.23,6.15 L 8.67,5.16 L 7.03,4.16 L 5.33,3.13 L 3.58,2.09 L 1.80,1.05 L 0.00,0.00 L -1.80,-1.05 L -3.58,-2.09 L -5.33,-3.13 L -7.03,-4.16 L -8.67,-5.16 L -10.23,-6.15 L -11.70,-7.11 L -13.07,-8.05 L -14.32,-8.95 L -15.45,-9.82 L -16.44,-10.65 L -17.28,-11.44 L -17.97,-12.18 L -18.50,-12.87 L -18.86,-13.52 L -19.06,-14.11 L -19.09,-14.64 L -18.95,-15.12 L -18.64,-15.54 L -18.16,-15.89 L -17.53,-16.18 L -16.73,-16.41 L -15.79,-16.58 L -14.71,-16.68 L -13.50,-16.71 L -12.17,-16.68 L -10.73,-16.58 L -9.20,-16.41 L -7.58,-16.18 L -5.90,-15.89 L -4.17,-15.54 L -2.39,-15.12 L -0.60,-14.64 L 1.20,-14.11 L 2.99,-13.52 L 4.75,-12.87 L 6.47,-12.18 L 8.13,-11.44 L 9.72,-10.65 L 11.22,-9.82 L 12.63,-8.95 L 13.92,-8.05 L 15.09,-7.11 L 16.12,-6.15 L 17.01,-5.16 L 17.76,-4.16 L 18.34,-3.13 L 18.76,-2.09 L 19.01,-1.05 L 19.10,-0.00 Z" fill="none" stroke="#ff2a1a" stroke-width="1.705" stroke-linejoin="round"/><circle r="26.257" fill="none" stroke="#d4001a" stroke-width="1.876"/><circle r="26.257" fill="none" stroke="#ff5533" stroke-width="0.614" opacity="0.7"/><circle r="2.899" fill="#ff3322"/><circle r="1.364" fill="#ffccbb"/></g>
<circle cx="267.1" cy="142.5" r="5.0" fill="#d4001a"/><circle cx="267.1" cy="142.5" r="2.0" fill="#ff5544"/>


</g>
</svg>