<svg xmlns="http://www.w3.org/2000/svg" width="499.2" height="485.67" viewBox="0 0 499.2 485.67">
  <defs>
    <pattern id="g" x="0" y="0" width="499.2" height="2" patternUnits="userSpaceOnUse"><rect width="499.2" height="2" fill="#141416"/><rect y="1" width="499.2" height="0.6" fill="#1e2228" opacity="0.28"/></pattern>
    <linearGradient id="mbsG" x1="0" y1="0" x2="0" y2="1"><stop offset="0%" stop-color="#1e2535" stop-opacity="0.0"/><stop offset="50%" stop-color="#1e2535" stop-opacity="0.55"/><stop offset="100%" stop-color="#1e2535" stop-opacity="0.82"/></linearGradient>
  </defs>
  <rect width="499.2" height="485.67" fill="url(#g)"/>
  <rect x="0" y="0" width="6.8" height="485.67" fill="#dc2626" opacity="0.85"/>
  <rect x="0" y="0" width="499.2" height="45.4" fill="#0d0f14" opacity="0.92"/>
  <text x="249.6" y="18.9" font-size="13.2" font-family="monospace" text-anchor="middle" fill="#e4e4e7" font-weight="bold">SANDS MACRO</text>
  <text x="249.6" y="35.9" font-size="9.1" font-family="monospace" text-anchor="middle" fill="#555">Global · 12 mono CV inputs</text>
  <line x1="7.6" y1="45.4" x2="491.6" y2="45.4" stroke="#dc2626" stroke-width="0.8" opacity="0.55"/>
  <text x="30.2" y="51.0" font-size="8.3" font-family="monospace" text-anchor="middle" fill="#555" opacity="0.60">J1</text>
  <text x="68.0" y="51.0" font-size="8.3" font-family="monospace" text-anchor="middle" fill="#555" opacity="0.60">J2</text>
  <text x="113.4" y="51.0" font-size="8.3" font-family="monospace" text-anchor="middle" fill="#555" opacity="0.60">A1</text>
  <text x="147.4" y="51.0" font-size="8.3" font-family="monospace" text-anchor="middle" fill="#555" opacity="0.60">A2</text>
  <line x1="90.7" y1="52.9" x2="90.7" y2="461.1" stroke="#333" stroke-width="0.4" opacity="0.30" stroke-dasharray="2,4"/>
  <line x1="6.8" y1="189.0" x2="170.1" y2="189.0" stroke="#333" stroke-width="0.5" opacity="0.45" stroke-dasharray="2,3"/>
  <line x1="6.8" y1="325.0" x2="170.1" y2="325.0" stroke="#333" stroke-width="0.5" opacity="0.45" stroke-dasharray="2,3"/>
  <rect x="6.8" y="81.3" width="3.0" height="11.3" fill="#d4af37" opacity="0.60"/>
  <circle cx="30.2" cy="86.9" r="14.7" fill="none" stroke="#777" stroke-width="0.7" opacity="0.55"/>
  <circle cx="68.0" cy="86.9" r="14.7" fill="none" stroke="#777" stroke-width="0.7" opacity="0.55"/>
  <circle cx="113.4" cy="86.9" r="11.3" fill="none" stroke="#888" stroke-width="0.6" opacity="0.50"/>
  <circle cx="147.4" cy="86.9" r="11.3" fill="none" stroke="#888" stroke-width="0.6" opacity="0.50"/>
  <text x="170.1" y="83.2" font-size="7.9" font-family="monospace" text-anchor="end" fill="#d4af37" opacity="0.60">REST LEN</text>
  <text x="170.1" y="96.4" font-size="7.9" font-family="monospace" text-anchor="end" fill="#d4af37" opacity="0.50">REST OFF</text>
  <rect x="6.8" y="149.3" width="3.0" height="11.3" fill="#d4af37" opacity="0.60"/>
  <circle cx="30.2" cy="155.0" r="14.7" fill="none" stroke="#777" stroke-width="0.7" opacity="0.55"/>
  <circle cx="68.0" cy="155.0" r="14.7" fill="none" stroke="#777" stroke-width="0.7" opacity="0.55"/>
  <circle cx="113.4" cy="155.0" r="11.3" fill="none" stroke="#888" stroke-width="0.6" opacity="0.50"/>
  <circle cx="147.4" cy="155.0" r="11.3" fill="none" stroke="#888" stroke-width="0.6" opacity="0.50"/>
  <text x="170.1" y="151.2" font-size="7.9" font-family="monospace" text-anchor="end" fill="#d4af37" opacity="0.60">REST ROT</text>
  <text x="170.1" y="164.4" font-size="7.9" font-family="monospace" text-anchor="end" fill="#d4af37" opacity="0.50">REST SPR</text>
  <rect x="6.8" y="217.3" width="3.0" height="11.3" fill="#26a69a" opacity="0.60"/>
  <circle cx="30.2" cy="223.0" r="14.7" fill="none" stroke="#777" stroke-width="0.7" opacity="0.55"/>
  <circle cx="68.0" cy="223.0" r="14.7" fill="none" stroke="#777" stroke-width="0.7" opacity="0.55"/>
  <circle cx="113.4" cy="223.0" r="11.3" fill="none" stroke="#888" stroke-width="0.6" opacity="0.50"/>
  <circle cx="147.4" cy="223.0" r="11.3" fill="none" stroke="#888" stroke-width="0.6" opacity="0.50"/>
  <text x="170.1" y="219.2" font-size="7.9" font-family="monospace" text-anchor="end" fill="#26a69a" opacity="0.60">MEL LEN</text>
  <text x="170.1" y="232.4" font-size="7.9" font-family="monospace" text-anchor="end" fill="#26a69a" opacity="0.50">MEL OFF</text>
  <rect x="6.8" y="285.4" width="3.0" height="11.3" fill="#26a69a" opacity="0.60"/>
  <circle cx="30.2" cy="291.0" r="14.7" fill="none" stroke="#777" stroke-width="0.7" opacity="0.55"/>
  <circle cx="68.0" cy="291.0" r="14.7" fill="none" stroke="#777" stroke-width="0.7" opacity="0.55"/>
  <circle cx="113.4" cy="291.0" r="11.3" fill="none" stroke="#888" stroke-width="0.6" opacity="0.50"/>
  <circle cx="147.4" cy="291.0" r="11.3" fill="none" stroke="#888" stroke-width="0.6" opacity="0.50"/>
  <text x="170.1" y="287.2" font-size="7.9" font-family="monospace" text-anchor="end" fill="#26a69a" opacity="0.60">MEL ROT</text>
  <text x="170.1" y="300.5" font-size="7.9" font-family="monospace" text-anchor="end" fill="#26a69a" opacity="0.50">MEL SPR</text>
  <rect x="6.8" y="353.4" width="3.0" height="11.3" fill="#4a90d9" opacity="0.60"/>
  <circle cx="30.2" cy="359.1" r="14.7" fill="none" stroke="#777" stroke-width="0.7" opacity="0.55"/>
  <circle cx="68.0" cy="359.1" r="14.7" fill="none" stroke="#777" stroke-width="0.7" opacity="0.55"/>
  <circle cx="113.4" cy="359.1" r="11.3" fill="none" stroke="#888" stroke-width="0.6" opacity="0.50"/>
  <circle cx="147.4" cy="359.1" r="11.3" fill="none" stroke="#888" stroke-width="0.6" opacity="0.50"/>
  <text x="170.1" y="355.3" font-size="7.9" font-family="monospace" text-anchor="end" fill="#4a90d9" opacity="0.60">OCT LEN</text>
  <text x="170.1" y="368.5" font-size="7.9" font-family="monospace" text-anchor="end" fill="#4a90d9" opacity="0.50">OCT OFF</text>
  <rect x="6.8" y="421.4" width="3.0" height="11.3" fill="#4a90d9" opacity="0.60"/>
  <circle cx="30.2" cy="427.1" r="14.7" fill="none" stroke="#777" stroke-width="0.7" opacity="0.55"/>
  <circle cx="68.0" cy="427.1" r="14.7" fill="none" stroke="#777" stroke-width="0.7" opacity="0.55"/>
  <circle cx="113.4" cy="427.1" r="11.3" fill="none" stroke="#888" stroke-width="0.6" opacity="0.50"/>
  <circle cx="147.4" cy="427.1" r="11.3" fill="none" stroke="#888" stroke-width="0.6" opacity="0.50"/>
  <text x="170.1" y="423.3" font-size="7.9" font-family="monospace" text-anchor="end" fill="#4a90d9" opacity="0.60">OCT ROT</text>
  <text x="170.1" y="436.5" font-size="7.9" font-family="monospace" text-anchor="end" fill="#4a90d9" opacity="0.50">OCT SPR</text>
  <line x1="170.1" y1="45.4" x2="170.1" y2="485.7" stroke="#333" stroke-width="0.6" opacity="0.50"/>
  <rect x="173.9" y="60.5" width="310.2" height="400.6" fill="#0a0a0c" opacity="0.55" rx="1"/>
  <g fill="url(#mbsG)" stroke="none">
    <polygon points="215.2,464.0 261.3,464.0 263.8,481.2 212.6,481.2" />
    <polygon points="305.9,464.0 352.0,464.0 354.6,481.2 303.4,481.2" />
    <polygon points="396.7,464.0 442.7,464.0 445.3,481.2 394.1,481.2" />
    <polygon points="209.6,464.0 448.3,464.0 450.3,462.0 207.6,462.0" />
  </g>
  <line x1="240.6" y1="464.0" x2="240.6" y2="460.0" stroke="#dc2626" stroke-width="0.5" opacity="0.35"/>
  <circle cx="240.6" cy="459.0" r="1.0" fill="#dc2626" opacity="0.35"/>
  <line x1="317.3" y1="464.0" x2="317.3" y2="460.0" stroke="#dc2626" stroke-width="0.5" opacity="0.35"/>
  <circle cx="317.3" cy="459.0" r="1.0" fill="#dc2626" opacity="0.35"/>
  <line x1="396.4" y1="464.0" x2="396.4" y2="460.0" stroke="#dc2626" stroke-width="0.5" opacity="0.35"/>
  <circle cx="396.4" cy="459.0" r="1.0" fill="#dc2626" opacity="0.35"/>
  <g fill="none" stroke="#1a3c58">
    <path d="M0.0,483.2 L12.5,484.6 L25.0,484.2 L37.4,482.6 L49.9,481.8 L62.4,482.9 L74.9,484.5 L87.4,484.5 L99.8,482.9 L112.3,481.8 L124.8,482.5 L137.3,484.2 L149.8,484.7 L162.2,483.3 L174.7,481.9 L187.2,482.2 L199.7,483.9 L212.2,484.7 L224.6,483.7 L237.1,482.0 L249.6,482.0 L262.1,483.5 L274.6,484.7 L287.0,484.0 L299.5,482.3 L312.0,481.8 L324.5,483.2 L337.0,484.6 L349.4,484.3 L361.9,482.6 L374.4,481.8 L386.9,482.8 L399.4,484.4 L411.8,484.5 L424.3,483.0 L436.8,481.8 L449.3,482.5 L461.8,484.2 L474.2,484.7 L486.7,483.4 L499.2,481.9" stroke-width="0.4" opacity="0.3"/>
  </g>
  <g stroke="#dc2626" stroke-width="0.9" opacity="0.35">
    <line x1="6.8" y1="0" x2="6.8" y2="485.67" stroke-dasharray="3,5"/>
    <line x1="492.4" y1="0" x2="492.4" y2="485.67" stroke-dasharray="3,5"/>
  </g>
  <circle cx="484.1" cy="15.1" r="9.4" fill="#dc2626"/>
</svg>