<svg xmlns="http://www.w3.org/2000/svg" width="691.19" height="485.67" viewBox="0 0 691.19 485.67">
  <defs>
    <pattern id="g" x="0" y="0" width="691.19" height="2" patternUnits="userSpaceOnUse"><rect width="691.19" height="2" fill="#f7f7f7"/><rect y="1" width="691.19" height="0.6" fill="#cccccc" opacity="0.28"/></pattern>
    <linearGradient id="mbsG" x1="0" y1="0" x2="0" y2="1"><stop offset="0%" stop-color="#b8c0cc" stop-opacity="0.0"/><stop offset="50%" stop-color="#b8c0cc" stop-opacity="0.55"/><stop offset="100%" stop-color="#b8c0cc" stop-opacity="0.82"/></linearGradient>
  </defs>
  <rect width="691.19" height="485.67" fill="url(#g)"/>
  <rect x="0" y="0" width="6.8" height="485.67" fill="#26a69a" opacity="0.85"/>
  <rect x="0" y="0" width="691.19" height="45.4" fill="#e8e8e8" opacity="0.92"/>
  <text x="345.6" y="18.9" font-size="13.2" font-family="monospace" text-anchor="middle" fill="#222" font-weight="bold">SANDS EAST  V2–8</text>
  <text x="345.6" y="35.9" font-size="9.1" font-family="monospace" text-anchor="middle" fill="#888">12 poly CV: 3 lanes × LEN/OFF/ROT/SPR</text>
  <line x1="7.6" y1="45.4" x2="683.6" y2="45.4" stroke="#26a69a" stroke-width="0.8" opacity="0.55"/>
  <rect x="0" y="49.1" width="109.6" height="141.1" fill="#d4af37" opacity="0.05" rx="1"/>
  <rect x="0" y="190.2" width="109.6" height="141.1" fill="#26a69a" opacity="0.05" rx="1"/>
  <rect x="0" y="331.3" width="109.6" height="141.1" fill="#4a90d9" opacity="0.05" rx="1"/>
  <text x="37.8" y="47.2" font-size="8.3" font-family="monospace" text-anchor="middle" fill="#26a69a" opacity="0.65">CV</text>
  <text x="83.2" y="47.2" font-size="8.3" font-family="monospace" text-anchor="middle" fill="#888" opacity="0.65">ATT</text>
  <rect x="6.8" y="63.0" width="3.0" height="7.6" fill="#d4af37" opacity="0.55"/>
  <circle cx="37.8" cy="66.8" r="14.7" fill="none" stroke="#888" stroke-width="0.7" opacity="0.55"/>
  <circle cx="83.2" cy="66.8" r="11.3" fill="none" stroke="#666" stroke-width="0.6" opacity="0.50"/>
  <text x="109.6" y="70.2" font-size="8.3" font-family="monospace" text-anchor="end" fill="#d4af37" opacity="0.65">RST LEN</text>
  <rect x="6.8" y="98.3" width="3.0" height="7.6" fill="#d4af37" opacity="0.55"/>
  <circle cx="37.8" cy="102.0" r="14.7" fill="none" stroke="#888" stroke-width="0.7" opacity="0.55"/>
  <circle cx="83.2" cy="102.0" r="11.3" fill="none" stroke="#666" stroke-width="0.6" opacity="0.50"/>
  <text x="109.6" y="105.5" font-size="8.3" font-family="monospace" text-anchor="end" fill="#d4af37" opacity="0.65">RST OFF</text>
  <rect x="6.8" y="133.5" width="3.0" height="7.6" fill="#d4af37" opacity="0.55"/>
  <circle cx="37.8" cy="137.3" r="14.7" fill="none" stroke="#888" stroke-width="0.7" opacity="0.55"/>
  <circle cx="83.2" cy="137.3" r="11.3" fill="none" stroke="#666" stroke-width="0.6" opacity="0.50"/>
  <text x="109.6" y="140.7" font-size="8.3" font-family="monospace" text-anchor="end" fill="#d4af37" opacity="0.65">RST ROT</text>
  <rect x="6.8" y="168.8" width="3.0" height="7.6" fill="#d4af37" opacity="0.55"/>
  <circle cx="37.8" cy="172.6" r="14.7" fill="none" stroke="#888" stroke-width="0.7" opacity="0.55"/>
  <circle cx="83.2" cy="172.6" r="11.3" fill="none" stroke="#666" stroke-width="0.6" opacity="0.50"/>
  <text x="109.6" y="176.0" font-size="8.3" font-family="monospace" text-anchor="end" fill="#888888" opacity="0.65">RST SPR</text>
  <rect x="6.8" y="204.1" width="3.0" height="7.6" fill="#26a69a" opacity="0.55"/>
  <circle cx="37.8" cy="207.9" r="14.7" fill="none" stroke="#888" stroke-width="0.7" opacity="0.55"/>
  <circle cx="83.2" cy="207.9" r="11.3" fill="none" stroke="#666" stroke-width="0.6" opacity="0.50"/>
  <text x="109.6" y="211.3" font-size="8.3" font-family="monospace" text-anchor="end" fill="#26a69a" opacity="0.65">MEL LEN</text>
  <rect x="6.8" y="239.4" width="3.0" height="7.6" fill="#26a69a" opacity="0.55"/>
  <circle cx="37.8" cy="243.2" r="14.7" fill="none" stroke="#888" stroke-width="0.7" opacity="0.55"/>
  <circle cx="83.2" cy="243.2" r="11.3" fill="none" stroke="#666" stroke-width="0.6" opacity="0.50"/>
  <text x="109.6" y="246.6" font-size="8.3" font-family="monospace" text-anchor="end" fill="#26a69a" opacity="0.65">MEL OFF</text>
  <rect x="6.8" y="274.6" width="3.0" height="7.6" fill="#26a69a" opacity="0.55"/>
  <circle cx="37.8" cy="278.4" r="14.7" fill="none" stroke="#888" stroke-width="0.7" opacity="0.55"/>
  <circle cx="83.2" cy="278.4" r="11.3" fill="none" stroke="#666" stroke-width="0.6" opacity="0.50"/>
  <text x="109.6" y="281.8" font-size="8.3" font-family="monospace" text-anchor="end" fill="#26a69a" opacity="0.65">MEL ROT</text>
  <rect x="6.8" y="309.9" width="3.0" height="7.6" fill="#26a69a" opacity="0.55"/>
  <circle cx="37.8" cy="313.7" r="14.7" fill="none" stroke="#888" stroke-width="0.7" opacity="0.55"/>
  <circle cx="83.2" cy="313.7" r="11.3" fill="none" stroke="#666" stroke-width="0.6" opacity="0.50"/>
  <text x="109.6" y="317.1" font-size="8.3" font-family="monospace" text-anchor="end" fill="#888888" opacity="0.65">MEL SPR</text>
  <rect x="6.8" y="345.2" width="3.0" height="7.6" fill="#4a90d9" opacity="0.55"/>
  <circle cx="37.8" cy="349.0" r="14.7" fill="none" stroke="#888" stroke-width="0.7" opacity="0.55"/>
  <circle cx="83.2" cy="349.0" r="11.3" fill="none" stroke="#666" stroke-width="0.6" opacity="0.50"/>
  <text x="109.6" y="352.4" font-size="8.3" font-family="monospace" text-anchor="end" fill="#4a90d9" opacity="0.65">OCT LEN</text>
  <rect x="6.8" y="380.5" width="3.0" height="7.6" fill="#4a90d9" opacity="0.55"/>
  <circle cx="37.8" cy="384.2" r="14.7" fill="none" stroke="#888" stroke-width="0.7" opacity="0.55"/>
  <circle cx="83.2" cy="384.2" r="11.3" fill="none" stroke="#666" stroke-width="0.6" opacity="0.50"/>
  <text x="109.6" y="387.6" font-size="8.3" font-family="monospace" text-anchor="end" fill="#4a90d9" opacity="0.65">OCT OFF</text>
  <rect x="6.8" y="415.8" width="3.0" height="7.6" fill="#4a90d9" opacity="0.55"/>
  <circle cx="37.8" cy="419.5" r="14.7" fill="none" stroke="#888" stroke-width="0.7" opacity="0.55"/>
  <circle cx="83.2" cy="419.5" r="11.3" fill="none" stroke="#666" stroke-width="0.6" opacity="0.50"/>
  <text x="109.6" y="422.9" font-size="8.3" font-family="monospace" text-anchor="end" fill="#4a90d9" opacity="0.65">OCT ROT</text>
  <rect x="6.8" y="451.0" width="3.0" height="7.6" fill="#4a90d9" opacity="0.55"/>
  <circle cx="37.8" cy="454.8" r="14.7" fill="none" stroke="#888" stroke-width="0.7" opacity="0.55"/>
  <circle cx="83.2" cy="454.8" r="11.3" fill="none" stroke="#666" stroke-width="0.6" opacity="0.50"/>
  <text x="109.6" y="458.2" font-size="8.3" font-family="monospace" text-anchor="end" fill="#888888" opacity="0.65">OCT SPR</text>
  <line x1="6.8" y1="190.2" x2="109.6" y2="190.2" stroke="#bbb" stroke-width="0.5" opacity="0.45" stroke-dasharray="2,3"/>
  <line x1="6.8" y1="331.3" x2="109.6" y2="331.3" stroke="#bbb" stroke-width="0.5" opacity="0.45" stroke-dasharray="2,3"/>
  <line x1="109.6" y1="45.4" x2="109.6" y2="485.7" stroke="#bbb" stroke-width="0.6" opacity="0.50"/>
  <rect x="113.4" y="68.0" width="562.7" height="404.4" fill="#f0f0f0" opacity="0.55" rx="1"/>
  <rect x="113.4" y="30.2" width="562.7" height="34.0" fill="#e0e0e0" opacity="0.50" rx="1"/>
  <text x="153.6" y="47.2" font-size="9.1" font-family="monospace" text-anchor="middle" fill="#26a69a" opacity="0.70">V2</text>
  <text x="234.0" y="47.2" font-size="9.1" font-family="monospace" text-anchor="middle" fill="#26a69a" opacity="0.70">V3</text>
  <text x="314.4" y="47.2" font-size="9.1" font-family="monospace" text-anchor="middle" fill="#26a69a" opacity="0.70">V4</text>
  <text x="394.7" y="47.2" font-size="9.1" font-family="monospace" text-anchor="middle" fill="#26a69a" opacity="0.70">V5</text>
  <text x="475.1" y="47.2" font-size="9.1" font-family="monospace" text-anchor="middle" fill="#26a69a" opacity="0.70">V6</text>
  <text x="555.5" y="47.2" font-size="9.1" font-family="monospace" text-anchor="middle" fill="#26a69a" opacity="0.70">V7</text>
  <text x="635.9" y="47.2" font-size="9.1" font-family="monospace" text-anchor="middle" fill="#26a69a" opacity="0.70">V8</text>
  <g fill="url(#mbsG)" stroke="none">
    <polygon points="215.9,474.0 288.3,474.0 292.3,483.3 211.9,483.3" />
    <polygon points="358.5,474.0 430.9,474.0 435.0,483.3 354.5,483.3" />
    <polygon points="501.2,474.0 573.6,474.0 577.6,483.3 497.1,483.3" />
    <polygon points="208.9,474.0 580.6,474.0 582.6,472.0 206.9,472.0" />
  </g>
  <line x1="255.8" y1="474.0" x2="255.8" y2="470.0" stroke="#dc2626" stroke-width="0.5" opacity="0.35"/>
  <circle cx="255.8" cy="469.0" r="1.0" fill="#dc2626" opacity="0.35"/>
  <line x1="376.4" y1="474.0" x2="376.4" y2="470.0" stroke="#dc2626" stroke-width="0.5" opacity="0.35"/>
  <circle cx="376.4" cy="469.0" r="1.0" fill="#dc2626" opacity="0.35"/>
  <line x1="500.8" y1="474.0" x2="500.8" y2="470.0" stroke="#dc2626" stroke-width="0.5" opacity="0.35"/>
  <circle cx="500.8" cy="469.0" r="1.0" fill="#dc2626" opacity="0.35"/>
  <g fill="none" stroke="#7aa0b8">
  </g>
  <g stroke="#dc2626" stroke-width="0.9" opacity="0.35">
    <line x1="6.8" y1="0" x2="6.8" y2="485.67" stroke-dasharray="3,5"/>
    <line x1="684.4" y1="0" x2="684.4" y2="485.67" stroke-dasharray="3,5"/>
  </g>
  <circle cx="676.1" cy="15.1" r="9.4" fill="#dc2626"/>
</svg>