<svg xmlns="http://www.w3.org/2000/svg" width="390" height="380" viewBox="0 0 390 380">
<rect x="0" y="0" width="390" height="380" fill="#e8e8ea"/>
<rect x="0" y="0" width="390" height="4" fill="#c0202a"/>
<circle cx="376" cy="14" r="5" fill="#c0202a"/>
<g fill="none" stroke="#d8d9dc" stroke-width="1.0" opacity="0.390" stroke-linecap="round"><path d="M49.9 301.5 Q170.0 281.1 340.1 283.1"/><path d="M51.5 293.3 Q170.0 273.9 335.4 278.0"/><path d="M53.0 286.2 Q168.5 267.8 327.6 272.9"/><path d="M56.2 279.0 Q166.9 261.6 316.7 268.4"/><path d="M60.8 271.9 Q163.8 255.5 302.6 263.7"/><path d="M67.1 264.7 Q157.6 250.0 285.5 260.2"/><path d="M76.4 258.6 Q148.2 245.9 263.6 257.6"/><path d="M87.4 252.9 Q138.8 242.6 241.8 256.1"/></g><g fill="none" stroke="#d8d9dc" stroke-width="1.4" opacity="0.455"><ellipse cx="26.5" cy="309.7" rx="43.7" ry="75.6"/><ellipse cx="39.0" cy="309.7" rx="45.2" ry="75.6"/><ellipse cx="51.5" cy="309.7" rx="46.8" ry="75.6"/><ellipse cx="64.0" cy="309.7" rx="48.4" ry="75.6"/><ellipse cx="76.4" cy="309.7" rx="49.9" ry="75.6"/><ellipse cx="88.9" cy="309.7" rx="51.5" ry="75.6"/><ellipse cx="101.4" cy="309.7" rx="53.0" ry="75.6"/><ellipse cx="113.9" cy="309.7" rx="54.6" ry="75.6"/><ellipse cx="126.4" cy="309.7" rx="56.2" ry="75.6"/><ellipse cx="138.8" cy="309.7" rx="57.7" ry="75.6"/><ellipse cx="151.3" cy="309.7" rx="59.3" ry="75.6"/><ellipse cx="170.0" cy="309.7" rx="56.2" ry="75.6"/><ellipse cx="185.6" cy="309.7" rx="53.0" ry="75.6"/><ellipse cx="201.2" cy="309.7" rx="49.9" ry="75.6"/><ellipse cx="216.8" cy="309.7" rx="46.8" ry="75.6"/><ellipse cx="232.4" cy="309.7" rx="43.7" ry="75.6"/><ellipse cx="248.0" cy="309.7" rx="40.6" ry="75.6"/><ellipse cx="263.6" cy="309.7" rx="37.4" ry="75.6"/><ellipse cx="279.2" cy="309.7" rx="34.3" ry="75.6"/><ellipse cx="294.8" cy="309.7" rx="31.2" ry="75.6"/><ellipse cx="310.4" cy="309.7" rx="28.1" ry="75.6"/><ellipse cx="326.0" cy="309.7" rx="25.0" ry="75.6"/><ellipse cx="338.5" cy="309.7" rx="21.8" ry="75.6"/></g><path d="M39.0 232.0 L351.0 232.0 L351.0 283.1 C319.8 257.6 263.6 241.2 195.0 240.6 C113.9 241.2 51.5 256.5 49.9 301.5 L39.0 301.5 Z" fill="#e8e8ea"/><path d="M39.0 302.1 L351.0 302.1 L351.0 324.0 L39.0 324.0 Z" fill="#e8e8ea"/><path d="M340.1 283.1 L351.0 283.1 L351.0 302.1 L340.1 302.1 Z" fill="#e8e8ea"/><path d="M49.9 301.5 C51.5 256.5 113.9 241.2 195.0 240.6 C263.6 241.2 319.8 257.6 340.1 283.1" fill="none" stroke="#2a2a2e" stroke-width="2.0" opacity="0.520" stroke-linecap="round"/><polyline points="51.5,314.4 79.6,301.5 117.0,312.1 162.2,310.7 207.5,297.0 249.6,307.6 276.1,290.3" fill="none" stroke="#2a2a2e" stroke-width="1.5" opacity="0.390" stroke-linejoin="round" stroke-linecap="round"/>
<path d="M 15.0 338.0 C 26.2 333.3 48.8 333.3 60.0 338.0 C 71.2 342.7 93.8 342.7 105.0 338.0 C 116.2 333.3 138.8 333.3 150.0 338.0 C 161.2 342.7 183.8 342.7 195.0 338.0 C 206.2 333.3 228.8 333.3 240.0 338.0 C 251.2 342.7 273.8 342.7 285.0 338.0 C 296.2 333.3 318.8 333.3 330.0 338.0 C 341.2 342.7 363.8 342.7 375.0 338.0 " fill="none" stroke="#d2d4d8" stroke-width="1.5" stroke-opacity="0.5"/><path d="M 15.0 347.4 C 26.2 342.7 48.8 342.7 60.0 347.4 C 71.2 352.1 93.8 352.1 105.0 347.4 C 116.2 342.7 138.8 342.7 150.0 347.4 C 161.2 352.1 183.8 352.1 195.0 347.4 C 206.2 342.7 228.8 342.7 240.0 347.4 C 251.2 352.1 273.8 352.1 285.0 347.4 C 296.2 342.7 318.8 342.7 330.0 347.4 C 341.2 352.1 363.8 352.1 375.0 347.4 " fill="none" stroke="#d2d4d8" stroke-width="1.5" stroke-opacity="0.5"/><path d="M 15.0 356.8 C 26.2 352.1 48.8 352.1 60.0 356.8 C 71.2 361.5 93.8 361.5 105.0 356.8 C 116.2 352.1 138.8 352.1 150.0 356.8 C 161.2 361.5 183.8 361.5 195.0 356.8 C 206.2 352.1 228.8 352.1 240.0 356.8 C 251.2 361.5 273.8 361.5 285.0 356.8 C 296.2 352.1 318.8 352.1 330.0 356.8 C 341.2 361.5 363.8 361.5 375.0 356.8 " fill="none" stroke="#d2d4d8" stroke-width="1.5" stroke-opacity="0.5"/>
<text x="14" y="30" fill="#2a2a2e" font-family="sans-serif" font-size="13" font-weight="700">STRAITS EAST</text>
<text x="14" y="44" fill="#888d96" font-family="sans-serif" font-size="9">VOICES 1-8</text>
<g>
<circle cx="48.0" cy="50.0" r="8.0" fill="#d4d6d9" stroke="#a8aeb6" stroke-width="1.2"/>
<circle cx="102.0" cy="50.0" r="8.0" fill="#d4d6d9" stroke="#a8aeb6" stroke-width="1.2"/>
<circle cx="168.0" cy="50.0" r="9.0" fill="#dadce0" stroke="#9298a0" stroke-width="1.2"/>
<circle cx="234.0" cy="50.0" r="9.0" fill="#dadce0" stroke="#9298a0" stroke-width="1.2"/>
<circle cx="288.0" cy="50.0" r="9.0" fill="#dadce0" stroke="#9298a0" stroke-width="1.2"/>
<circle cx="342.0" cy="50.0" r="9.0" fill="#dadce0" stroke="#9298a0" stroke-width="1.2"/>
<circle cx="48.0" cy="85.0" r="8.0" fill="#d4d6d9" stroke="#a8aeb6" stroke-width="1.2"/>
<circle cx="102.0" cy="85.0" r="8.0" fill="#d4d6d9" stroke="#a8aeb6" stroke-width="1.2"/>
<circle cx="168.0" cy="85.0" r="9.0" fill="#dadce0" stroke="#9298a0" stroke-width="1.2"/>
<circle cx="234.0" cy="85.0" r="9.0" fill="#dadce0" stroke="#9298a0" stroke-width="1.2"/>
<circle cx="288.0" cy="85.0" r="9.0" fill="#dadce0" stroke="#9298a0" stroke-width="1.2"/>
<circle cx="342.0" cy="85.0" r="9.0" fill="#dadce0" stroke="#9298a0" stroke-width="1.2"/>
<circle cx="48.0" cy="120.0" r="8.0" fill="#d4d6d9" stroke="#a8aeb6" stroke-width="1.2"/>
<circle cx="102.0" cy="120.0" r="8.0" fill="#d4d6d9" stroke="#a8aeb6" stroke-width="1.2"/>
<circle cx="168.0" cy="120.0" r="9.0" fill="#dadce0" stroke="#9298a0" stroke-width="1.2"/>
<circle cx="234.0" cy="120.0" r="9.0" fill="#dadce0" stroke="#9298a0" stroke-width="1.2"/>
<circle cx="288.0" cy="120.0" r="9.0" fill="#dadce0" stroke="#9298a0" stroke-width="1.2"/>
<circle cx="342.0" cy="120.0" r="9.0" fill="#dadce0" stroke="#9298a0" stroke-width="1.2"/>
<circle cx="48.0" cy="155.0" r="8.0" fill="#d4d6d9" stroke="#a8aeb6" stroke-width="1.2"/>
<circle cx="102.0" cy="155.0" r="8.0" fill="#d4d6d9" stroke="#a8aeb6" stroke-width="1.2"/>
<circle cx="168.0" cy="155.0" r="9.0" fill="#dadce0" stroke="#9298a0" stroke-width="1.2"/>
<circle cx="234.0" cy="155.0" r="9.0" fill="#dadce0" stroke="#9298a0" stroke-width="1.2"/>
<circle cx="288.0" cy="155.0" r="9.0" fill="#dadce0" stroke="#9298a0" stroke-width="1.2"/>
<circle cx="342.0" cy="155.0" r="9.0" fill="#dadce0" stroke="#9298a0" stroke-width="1.2"/>
<circle cx="48.0" cy="190.0" r="8.0" fill="#d4d6d9" stroke="#a8aeb6" stroke-width="1.2"/>
<circle cx="102.0" cy="190.0" r="8.0" fill="#d4d6d9" stroke="#a8aeb6" stroke-width="1.2"/>
<circle cx="168.0" cy="190.0" r="9.0" fill="#dadce0" stroke="#9298a0" stroke-width="1.2"/>
<circle cx="234.0" cy="190.0" r="9.0" fill="#dadce0" stroke="#9298a0" stroke-width="1.2"/>
<circle cx="288.0" cy="190.0" r="9.0" fill="#dadce0" stroke="#9298a0" stroke-width="1.2"/>
<circle cx="342.0" cy="190.0" r="9.0" fill="#dadce0" stroke="#9298a0" stroke-width="1.2"/>
<circle cx="48.0" cy="225.0" r="8.0" fill="#d4d6d9" stroke="#a8aeb6" stroke-width="1.2"/>
<circle cx="102.0" cy="225.0" r="8.0" fill="#d4d6d9" stroke="#a8aeb6" stroke-width="1.2"/>
<circle cx="168.0" cy="225.0" r="9.0" fill="#dadce0" stroke="#9298a0" stroke-width="1.2"/>
<circle cx="234.0" cy="225.0" r="9.0" fill="#dadce0" stroke="#9298a0" stroke-width="1.2"/>
<circle cx="288.0" cy="225.0" r="9.0" fill="#dadce0" stroke="#9298a0" stroke-width="1.2"/>
<circle cx="342.0" cy="225.0" r="9.0" fill="#dadce0" stroke="#9298a0" stroke-width="1.2"/>
<circle cx="48.0" cy="260.0" r="8.0" fill="#d4d6d9" stroke="#a8aeb6" stroke-width="1.2"/>
<circle cx="102.0" cy="260.0" r="8.0" fill="#d4d6d9" stroke="#a8aeb6" stroke-width="1.2"/>
<circle cx="168.0" cy="260.0" r="9.0" fill="#dadce0" stroke="#9298a0" stroke-width="1.2"/>
<circle cx="234.0" cy="260.0" r="9.0" fill="#dadce0" stroke="#9298a0" stroke-width="1.2"/>
<circle cx="288.0" cy="260.0" r="9.0" fill="#dadce0" stroke="#9298a0" stroke-width="1.2"/>
<circle cx="342.0" cy="260.0" r="9.0" fill="#dadce0" stroke="#9298a0" stroke-width="1.2"/>
<circle cx="168.0" cy="300.0" r="9.0" fill="#dadce0" stroke="#9298a0" stroke-width="1.2"/>
<circle cx="234.0" cy="300.0" r="9.0" fill="#dadce0" stroke="#9298a0" stroke-width="1.2"/>
<circle cx="288.0" cy="300.0" r="9.0" fill="#dadce0" stroke="#9298a0" stroke-width="1.2"/>
</g>
<g id="components">
<circle id="param_knob_0" cx="48.00" cy="50.00" r="0.5" fill="none" stroke="none"/>
<circle id="param_att_0" cx="102.00" cy="50.00" r="0.5" fill="none" stroke="none"/>
<circle id="input_modcv_0" cx="168.00" cy="50.00" r="0.5" fill="none" stroke="none"/>
<circle id="output_gate_0" cx="234.00" cy="50.00" r="0.5" fill="none" stroke="none"/>
<circle id="output_cv_0" cx="288.00" cy="50.00" r="0.5" fill="none" stroke="none"/>
<circle id="output_acc_0" cx="342.00" cy="50.00" r="0.5" fill="none" stroke="none"/>
<circle id="param_knob_1" cx="48.00" cy="85.00" r="0.5" fill="none" stroke="none"/>
<circle id="param_att_1" cx="102.00" cy="85.00" r="0.5" fill="none" stroke="none"/>
<circle id="input_modcv_1" cx="168.00" cy="85.00" r="0.5" fill="none" stroke="none"/>
<circle id="output_gate_1" cx="234.00" cy="85.00" r="0.5" fill="none" stroke="none"/>
<circle id="output_cv_1" cx="288.00" cy="85.00" r="0.5" fill="none" stroke="none"/>
<circle id="output_acc_1" cx="342.00" cy="85.00" r="0.5" fill="none" stroke="none"/>
<circle id="param_knob_2" cx="48.00" cy="120.00" r="0.5" fill="none" stroke="none"/>
<circle id="param_att_2" cx="102.00" cy="120.00" r="0.5" fill="none" stroke="none"/>
<circle id="input_modcv_2" cx="168.00" cy="120.00" r="0.5" fill="none" stroke="none"/>
<circle id="output_gate_2" cx="234.00" cy="120.00" r="0.5" fill="none" stroke="none"/>
<circle id="output_cv_2" cx="288.00" cy="120.00" r="0.5" fill="none" stroke="none"/>
<circle id="output_acc_2" cx="342.00" cy="120.00" r="0.5" fill="none" stroke="none"/>
<circle id="param_knob_3" cx="48.00" cy="155.00" r="0.5" fill="none" stroke="none"/>
<circle id="param_att_3" cx="102.00" cy="155.00" r="0.5" fill="none" stroke="none"/>
<circle id="input_modcv_3" cx="168.00" cy="155.00" r="0.5" fill="none" stroke="none"/>
<circle id="output_gate_3" cx="234.00" cy="155.00" r="0.5" fill="none" stroke="none"/>
<circle id="output_cv_3" cx="288.00" cy="155.00" r="0.5" fill="none" stroke="none"/>
<circle id="output_acc_3" cx="342.00" cy="155.00" r="0.5" fill="none" stroke="none"/>
<circle id="param_knob_4" cx="48.00" cy="190.00" r="0.5" fill="none" stroke="none"/>
<circle id="param_att_4" cx="102.00" cy="190.00" r="0.5" fill="none" stroke="none"/>
<circle id="input_modcv_4" cx="168.00" cy="190.00" r="0.5" fill="none" stroke="none"/>
<circle id="output_gate_4" cx="234.00" cy="190.00" r="0.5" fill="none" stroke="none"/>
<circle id="output_cv_4" cx="288.00" cy="190.00" r="0.5" fill="none" stroke="none"/>
<circle id="output_acc_4" cx="342.00" cy="190.00" r="0.5" fill="none" stroke="none"/>
<circle id="param_knob_5" cx="48.00" cy="225.00" r="0.5" fill="none" stroke="none"/>
<circle id="param_att_5" cx="102.00" cy="225.00" r="0.5" fill="none" stroke="none"/>
<circle id="input_modcv_5" cx="168.00" cy="225.00" r="0.5" fill="none" stroke="none"/>
<circle id="output_gate_5" cx="234.00" cy="225.00" r="0.5" fill="none" stroke="none"/>
<circle id="output_cv_5" cx="288.00" cy="225.00" r="0.5" fill="none" stroke="none"/>
<circle id="output_acc_5" cx="342.00" cy="225.00" r="0.5" fill="none" stroke="none"/>
<circle id="param_knob_6" cx="48.00" cy="260.00" r="0.5" fill="none" stroke="none"/>
<circle id="param_att_6" cx="102.00" cy="260.00" r="0.5" fill="none" stroke="none"/>
<circle id="input_modcv_6" cx="168.00" cy="260.00" r="0.5" fill="none" stroke="none"/>
<circle id="output_gate_6" cx="234.00" cy="260.00" r="0.5" fill="none" stroke="none"/>
<circle id="output_cv_6" cx="288.00" cy="260.00" r="0.5" fill="none" stroke="none"/>
<circle id="output_acc_6" cx="342.00" cy="260.00" r="0.5" fill="none" stroke="none"/>
<circle id="input_global_modcv" cx="168.00" cy="300.00" r="0.5" fill="none" stroke="none"/>
<circle id="output_global_gate" cx="234.00" cy="300.00" r="0.5" fill="none" stroke="none"/>
<circle id="output_global_cv" cx="288.00" cy="300.00" r="0.5" fill="none" stroke="none"/>
<circle id="light_connect" cx="195.00" cy="360.00" r="0.5" fill="none" stroke="none"/>
</g>
</svg>