<svg xmlns="http://www.w3.org/2000/svg" xmlns:inkscape="http://www.inkscape.org/namespaces/inkscape" width="390.0" height="379.43" viewBox="0 0 390.0 379.43">
<g inkscape:label="artwork" inkscape:groupmode="layer">
<rect width="390.0" height="379.43" fill="#1a1d22"/>
<line x1="0" y1="29.5" x2="390.0" y2="29.5" stroke="#dc2626" stroke-width="1" opacity="0.4"/>
<rect x="135.8" y="47.2" width="242.4" height="271.6" rx="4.4" fill="#101216" stroke="#2a3038" stroke-width="1"/>
</g>
<g inkscape:label="control-graphics" inkscape:groupmode="layer">
<circle cx="23.6" cy="64.5" r="11.5" fill="#0e1013" stroke="#4a5058" stroke-width="1"/>
<circle cx="23.6" cy="64.5" r="5.0" fill="#101216"/>
<circle cx="53.1" cy="64.5" r="11.5" fill="#0e1013" stroke="#4a5058" stroke-width="1"/>
<circle cx="53.1" cy="64.5" r="5.0" fill="#101216"/>
<circle cx="88.6" cy="64.5" r="9.4" fill="#15181c" stroke="#3a4048" stroke-width="1"/>
<circle cx="115.2" cy="64.5" r="9.4" fill="#15181c" stroke="#3a4048" stroke-width="1"/>
<circle cx="23.6" cy="110.7" r="11.5" fill="#0e1013" stroke="#4a5058" stroke-width="1"/>
<circle cx="23.6" cy="110.7" r="5.0" fill="#101216"/>
<circle cx="53.1" cy="110.7" r="11.5" fill="#0e1013" stroke="#4a5058" stroke-width="1"/>
<circle cx="53.1" cy="110.7" r="5.0" fill="#101216"/>
<circle cx="88.6" cy="110.7" r="9.4" fill="#15181c" stroke="#3a4048" stroke-width="1"/>
<circle cx="115.2" cy="110.7" r="9.4" fill="#15181c" stroke="#3a4048" stroke-width="1"/>
<circle cx="23.6" cy="157.0" r="11.5" fill="#0e1013" stroke="#4a5058" stroke-width="1"/>
<circle cx="23.6" cy="157.0" r="5.0" fill="#101216"/>
<circle cx="53.1" cy="157.0" r="11.5" fill="#0e1013" stroke="#4a5058" stroke-width="1"/>
<circle cx="53.1" cy="157.0" r="5.0" fill="#101216"/>
<circle cx="88.6" cy="157.0" r="9.4" fill="#15181c" stroke="#3a4048" stroke-width="1"/>
<circle cx="115.2" cy="157.0" r="9.4" fill="#15181c" stroke="#3a4048" stroke-width="1"/>
<circle cx="23.6" cy="203.2" r="11.5" fill="#0e1013" stroke="#4a5058" stroke-width="1"/>
<circle cx="23.6" cy="203.2" r="5.0" fill="#101216"/>
<circle cx="53.1" cy="203.2" r="11.5" fill="#0e1013" stroke="#4a5058" stroke-width="1"/>
<circle cx="53.1" cy="203.2" r="5.0" fill="#101216"/>
<circle cx="88.6" cy="203.2" r="9.4" fill="#15181c" stroke="#3a4048" stroke-width="1"/>
<circle cx="115.2" cy="203.2" r="9.4" fill="#15181c" stroke="#3a4048" stroke-width="1"/>
<circle cx="23.6" cy="249.5" r="11.5" fill="#0e1013" stroke="#4a5058" stroke-width="1"/>
<circle cx="23.6" cy="249.5" r="5.0" fill="#101216"/>
<circle cx="53.1" cy="249.5" r="11.5" fill="#0e1013" stroke="#4a5058" stroke-width="1"/>
<circle cx="53.1" cy="249.5" r="5.0" fill="#101216"/>
<circle cx="88.6" cy="249.5" r="9.4" fill="#15181c" stroke="#3a4048" stroke-width="1"/>
<circle cx="115.2" cy="249.5" r="9.4" fill="#15181c" stroke="#3a4048" stroke-width="1"/>
<circle cx="23.6" cy="295.8" r="11.5" fill="#0e1013" stroke="#4a5058" stroke-width="1"/>
<circle cx="23.6" cy="295.8" r="5.0" fill="#101216"/>
<circle cx="53.1" cy="295.8" r="11.5" fill="#0e1013" stroke="#4a5058" stroke-width="1"/>
<circle cx="53.1" cy="295.8" r="5.0" fill="#101216"/>
<circle cx="88.6" cy="295.8" r="9.4" fill="#15181c" stroke="#3a4048" stroke-width="1"/>
<circle cx="115.2" cy="295.8" r="9.4" fill="#15181c" stroke="#3a4048" stroke-width="1"/>
</g><g inkscape:label="components" inkscape:groupmode="layer" id="components" style="display:none">
    <circle id="ATTEN_0_0" cx="113.385" cy="82.519" r="3.780" style="fill:#ff0000"/>
    <circle id="ATTEN_0_1" cx="147.400" cy="82.519" r="3.780" style="fill:#ff0000"/>
    <circle id="ATTEN_1_0" cx="113.385" cy="141.731" r="3.780" style="fill:#ff0000"/>
    <circle id="ATTEN_1_1" cx="147.400" cy="141.731" r="3.780" style="fill:#ff0000"/>
    <circle id="ATTEN_2_0" cx="113.385" cy="200.943" r="3.780" style="fill:#ff0000"/>
    <circle id="ATTEN_2_1" cx="147.400" cy="200.943" r="3.780" style="fill:#ff0000"/>
    <circle id="ATTEN_3_0" cx="113.385" cy="260.156" r="3.780" style="fill:#ff0000"/>
    <circle id="ATTEN_3_1" cx="147.400" cy="260.156" r="3.780" style="fill:#ff0000"/>
    <circle id="ATTEN_4_0" cx="113.385" cy="319.368" r="3.780" style="fill:#ff0000"/>
    <circle id="ATTEN_4_1" cx="147.400" cy="319.368" r="3.780" style="fill:#ff0000"/>
    <circle id="ATTEN_5_0" cx="113.385" cy="378.580" r="3.780" style="fill:#ff0000"/>
    <circle id="ATTEN_5_1" cx="147.400" cy="378.580" r="3.780" style="fill:#ff0000"/>
    <circle id="CV_0_0" cx="30.236" cy="82.519" r="3.780" style="fill:#00ff00"/>
    <circle id="CV_0_1" cx="68.031" cy="82.519" r="3.780" style="fill:#00ff00"/>
    <circle id="CV_1_0" cx="30.236" cy="141.731" r="3.780" style="fill:#00ff00"/>
    <circle id="CV_1_1" cx="68.031" cy="141.731" r="3.780" style="fill:#00ff00"/>
    <circle id="CV_2_0" cx="30.236" cy="200.943" r="3.780" style="fill:#00ff00"/>
    <circle id="CV_2_1" cx="68.031" cy="200.943" r="3.780" style="fill:#00ff00"/>
    <circle id="CV_3_0" cx="30.236" cy="260.156" r="3.780" style="fill:#00ff00"/>
    <circle id="CV_3_1" cx="68.031" cy="260.156" r="3.780" style="fill:#00ff00"/>
    <circle id="CV_4_0" cx="30.236" cy="319.368" r="3.780" style="fill:#00ff00"/>
    <circle id="CV_4_1" cx="68.031" cy="319.368" r="3.780" style="fill:#00ff00"/>
    <circle id="CV_5_0" cx="30.236" cy="378.580" r="3.780" style="fill:#00ff00"/>
    <circle id="CV_5_1" cx="68.031" cy="378.580" r="3.780" style="fill:#00ff00"/>


</g>
</svg>