<svg xmlns="http://www.w3.org/2000/svg" xmlns:inkscape="http://www.inkscape.org/namespaces/inkscape" width="600.0" height="379.43" viewBox="0 0 600.0 379.43">
<g inkscape:label="artwork" inkscape:groupmode="layer">
<rect width="600.0" height="379.43" fill="#1a1d22"/>
<line x1="0" y1="29.5" x2="600.0" y2="29.5" stroke="#dc2626" stroke-width="1" opacity="0.4"/>
<rect x="171.3" y="17.7" width="416.9" height="29.5" rx="3.0" fill="#202833" opacity="0.5"/>
<rect x="171.3" y="53.1" width="416.9" height="141.7" rx="4.4" fill="#101216" stroke="#2a3038" stroke-width="1"/>
</g>
<g inkscape:label="control-graphics" inkscape:groupmode="layer">
<circle cx="23.6" cy="64.5" r="11.5" fill="#0e1013" stroke="#4a5058" stroke-width="1"/>
<circle cx="23.6" cy="64.5" r="5.0" fill="#101216"/>
<circle cx="53.1" cy="64.5" r="11.5" fill="#0e1013" stroke="#4a5058" stroke-width="1"/>
<circle cx="53.1" cy="64.5" r="5.0" fill="#101216"/>
<circle cx="88.6" cy="64.5" r="9.4" fill="#15181c" stroke="#3a4048" stroke-width="1"/>
<circle cx="115.2" cy="64.5" r="9.4" fill="#15181c" stroke="#3a4048" stroke-width="1"/>
<circle cx="23.6" cy="110.7" r="11.5" fill="#0e1013" stroke="#4a5058" stroke-width="1"/>
<circle cx="23.6" cy="110.7" r="5.0" fill="#101216"/>
<circle cx="53.1" cy="110.7" r="11.5" fill="#0e1013" stroke="#4a5058" stroke-width="1"/>
<circle cx="53.1" cy="110.7" r="5.0" fill="#101216"/>
<circle cx="88.6" cy="110.7" r="9.4" fill="#15181c" stroke="#3a4048" stroke-width="1"/>
<circle cx="115.2" cy="110.7" r="9.4" fill="#15181c" stroke="#3a4048" stroke-width="1"/>
<circle cx="23.6" cy="157.0" r="11.5" fill="#0e1013" stroke="#4a5058" stroke-width="1"/>
<circle cx="23.6" cy="157.0" r="5.0" fill="#101216"/>
<circle cx="53.1" cy="157.0" r="11.5" fill="#0e1013" stroke="#4a5058" stroke-width="1"/>
<circle cx="53.1" cy="157.0" r="5.0" fill="#101216"/>
<circle cx="88.6" cy="157.0" r="9.4" fill="#15181c" stroke="#3a4048" stroke-width="1"/>
<circle cx="115.2" cy="157.0" r="9.4" fill="#15181c" stroke="#3a4048" stroke-width="1"/>
<circle cx="23.6" cy="203.2" r="11.5" fill="#0e1013" stroke="#4a5058" stroke-width="1"/>
<circle cx="23.6" cy="203.2" r="5.0" fill="#101216"/>
<circle cx="53.1" cy="203.2" r="11.5" fill="#0e1013" stroke="#4a5058" stroke-width="1"/>
<circle cx="53.1" cy="203.2" r="5.0" fill="#101216"/>
<circle cx="88.6" cy="203.2" r="9.4" fill="#15181c" stroke="#3a4048" stroke-width="1"/>
<circle cx="115.2" cy="203.2" r="9.4" fill="#15181c" stroke="#3a4048" stroke-width="1"/>
<circle cx="23.6" cy="249.5" r="11.5" fill="#0e1013" stroke="#4a5058" stroke-width="1"/>
<circle cx="23.6" cy="249.5" r="5.0" fill="#101216"/>
<circle cx="53.1" cy="249.5" r="11.5" fill="#0e1013" stroke="#4a5058" stroke-width="1"/>
<circle cx="53.1" cy="249.5" r="5.0" fill="#101216"/>
<circle cx="88.6" cy="249.5" r="9.4" fill="#15181c" stroke="#3a4048" stroke-width="1"/>
<circle cx="115.2" cy="249.5" r="9.4" fill="#15181c" stroke="#3a4048" stroke-width="1"/>
<circle cx="23.6" cy="295.8" r="11.5" fill="#0e1013" stroke="#4a5058" stroke-width="1"/>
<circle cx="23.6" cy="295.8" r="5.0" fill="#101216"/>
<circle cx="53.1" cy="295.8" r="11.5" fill="#0e1013" stroke="#4a5058" stroke-width="1"/>
<circle cx="53.1" cy="295.8" r="5.0" fill="#101216"/>
<circle cx="88.6" cy="295.8" r="9.4" fill="#15181c" stroke="#3a4048" stroke-width="1"/>
<circle cx="115.2" cy="295.8" r="9.4" fill="#15181c" stroke="#3a4048" stroke-width="1"/>
<circle cx="144.7" cy="87.6" r="9.4" fill="#15181c" stroke="#26a69a" stroke-width="1"/>
<circle cx="144.7" cy="180.1" r="9.4" fill="#15181c" stroke="#26a69a" stroke-width="1"/>
<circle cx="144.7" cy="272.6" r="9.4" fill="#15181c" stroke="#26a69a" stroke-width="1"/>
</g>
</svg>