<svg xmlns="http://www.w3.org/2000/svg" width="460.8" height="485.67" viewBox="0 0 460.8 485.67">
  <defs>
    <pattern id="grain" x="0" y="0" width="460.8" height="2" patternUnits="userSpaceOnUse"><rect width="460.8" height="2" fill="#f7f7f7"/><rect y="1" width="460.8" height="0.6" fill="#cccccc" opacity="0.30"/></pattern>
    <linearGradient id="mbsG" x1="0" y1="0" x2="0" y2="1"><stop offset="0%" stop-color="#b8c0cc" stop-opacity="0.0"/><stop offset="50%" stop-color="#b8c0cc" stop-opacity="0.50"/><stop offset="100%" stop-color="#b8c0cc" stop-opacity="0.80"/></linearGradient>
  </defs>
  <rect width="460.8" height="485.67" fill="url(#grain)"/>
  <rect x="0" y="0" width="6.8" height="485.67" fill="#2a6aaa" opacity="0.85"/>
  <rect x="0" y="0" width="460.8" height="49.1" fill="#e8e8e8" opacity="0.90"/>
  <text x="230.4" y="20.8" font-size="13.6" font-family="monospace" text-anchor="middle" fill="#222" font-weight="bold">SANDS WEST</text>
  <text x="230.4" y="39.7" font-size="10.2" font-family="monospace" text-anchor="middle" fill="#666666">Voices 9-16 · tabbed</text>
  <line x1="7.6" y1="49.1" x2="453.2" y2="49.1" stroke="#2a6aaa" stroke-width="0.7" opacity="0.60"/>
  <rect x="7.6" y="90.7" width="445.7" height="219.2" fill="#e8e8ea" rx="1.5" opacity="0.60"/>
  <line x1="7.6" y1="309.9" x2="453.2" y2="309.9" stroke="#cccccc" stroke-width="0.5" opacity="0.40"/>
  <text x="230.4" y="325.0" font-size="10.6" font-family="monospace" text-anchor="middle" fill="#666666">SPREAD</text>
  <circle cx="75.6" cy="351.5" r="15.1" fill="none" stroke="#666666" stroke-width="0.5" opacity="0.40"/>
  <text x="75.6" y="340.2" font-size="9.1" font-family="monospace" text-anchor="middle" fill="#666666">RST</text>
  <circle cx="226.8" cy="351.5" r="15.1" fill="none" stroke="#666666" stroke-width="0.5" opacity="0.40"/>
  <text x="226.8" y="340.2" font-size="9.1" font-family="monospace" text-anchor="middle" fill="#666666">MEL</text>
  <circle cx="377.9" cy="351.5" r="15.1" fill="none" stroke="#666666" stroke-width="0.5" opacity="0.40"/>
  <text x="377.9" y="340.2" font-size="9.1" font-family="monospace" text-anchor="middle" fill="#666666">OCT</text>
  <line x1="7.6" y1="377.9" x2="453.2" y2="377.9" stroke="#cccccc" stroke-width="0.4" opacity="0.30" stroke-dasharray="2,3"/>
  <text x="230.4" y="393.1" font-size="10.6" font-family="monospace" text-anchor="middle" fill="#666666">CV MOD</text>
  <circle cx="68.0" cy="427.1" r="14.7" fill="none" stroke="#888888" stroke-width="0.6" opacity="0.45"/>
  <text x="68.0" y="413.9" font-size="9.1" font-family="monospace" text-anchor="middle" fill="#666666">LEN</text>
  <circle cx="189.0" cy="427.1" r="14.7" fill="none" stroke="#888888" stroke-width="0.6" opacity="0.45"/>
  <text x="189.0" y="413.9" font-size="9.1" font-family="monospace" text-anchor="middle" fill="#666666">OFF</text>
  <circle cx="309.9" cy="427.1" r="14.7" fill="none" stroke="#888888" stroke-width="0.6" opacity="0.45"/>
  <text x="309.9" y="413.9" font-size="9.1" font-family="monospace" text-anchor="middle" fill="#666666">ROT</text>
  <circle cx="408.2" cy="427.1" r="11.3" fill="none" stroke="#2a6aaa" stroke-width="0.6" opacity="0.45"/>
  <text x="408.2" y="413.9" font-size="9.1" font-family="monospace" text-anchor="middle" fill="#666666">DEPTH</text>
  <g fill="url(#mbsG)" stroke="none">
    <polygon points="103.0,459.6 161.0,459.6 165.0,483.7 99.1,483.7"/>
    <polygon points="219.8,459.6 277.8,459.6 281.8,483.7 215.9,483.7"/>
    <polygon points="336.7,459.6 394.6,459.6 398.6,483.7 332.7,483.7"/>
    <polygon points="95.1,458.6 402.6,458.6 404.6,456.6 93.1,456.6"/>
  </g>
  <line x1="0" y1="459.6" x2="460.8" y2="459.6" stroke="#2a6aaa" stroke-width="0.5" opacity="0.25"/>
  <circle cx="445.7" cy="15.1" r="9.4" fill="#dc2626"/>
</svg>