<svg xmlns="http://www.w3.org/2000/svg" width="691.19" height="485.67" viewBox="0 0 691.19 485.67">
  <defs>
    <pattern id="g" x="0" y="0" width="691.19" height="2" patternUnits="userSpaceOnUse"><rect width="691.19" height="2" fill="#f7f7f7"/><rect y="1" width="691.19" height="0.6" fill="#cccccc" opacity="0.28"/></pattern>
    <linearGradient id="mbsG" x1="0" y1="0" x2="0" y2="1"><stop offset="0%" stop-color="#b8c0cc" stop-opacity="0.0"/><stop offset="50%" stop-color="#b8c0cc" stop-opacity="0.55"/><stop offset="100%" stop-color="#b8c0cc" stop-opacity="0.82"/></linearGradient>
  </defs>
  <rect width="691.19" height="485.67" fill="url(#g)"/>
  <rect x="0" y="0" width="6.8" height="485.67" fill="#26a69a" opacity="0.85"/>
  <rect x="0" y="0" width="691.19" height="45.4" fill="#e8e8e8" opacity="0.92"/>
  <text x="345.6" y="18.9" font-size="13.2" font-family="monospace" text-anchor="middle" fill="#222" font-weight="bold">SANDS EAST  V2–8</text>
  <text x="345.6" y="35.9" font-size="9.1" font-family="monospace" text-anchor="middle" fill="#888">2×6 poly CV: REST/MEL/OCT × LEN+OFF / ROT+SPR</text>
  <line x1="7.6" y1="45.4" x2="683.6" y2="45.4" stroke="#26a69a" stroke-width="0.8" opacity="0.55"/>
  <text x="30.2" y="51.0" font-size="8.3" font-family="monospace" text-anchor="middle" fill="#888" opacity="0.60">J1</text>
  <text x="68.0" y="51.0" font-size="8.3" font-family="monospace" text-anchor="middle" fill="#888" opacity="0.60">J2</text>
  <text x="113.4" y="51.0" font-size="8.3" font-family="monospace" text-anchor="middle" fill="#888" opacity="0.60">A1</text>
  <text x="147.4" y="51.0" font-size="8.3" font-family="monospace" text-anchor="middle" fill="#888" opacity="0.60">A2</text>
  <line x1="90.7" y1="52.9" x2="90.7" y2="461.1" stroke="#bbb" stroke-width="0.4" opacity="0.30" stroke-dasharray="2,4"/>
  <line x1="6.8" y1="189.0" x2="170.1" y2="189.0" stroke="#bbb" stroke-width="0.5" opacity="0.45" stroke-dasharray="2,3"/>
  <line x1="6.8" y1="325.0" x2="170.1" y2="325.0" stroke="#bbb" stroke-width="0.5" opacity="0.45" stroke-dasharray="2,3"/>
  <rect x="6.8" y="81.3" width="3.0" height="11.3" fill="#d4af37" opacity="0.60"/>
  <circle cx="30.2" cy="86.9" r="14.7" fill="none" stroke="#888" stroke-width="0.7" opacity="0.55"/>
  <circle cx="68.0" cy="86.9" r="14.7" fill="none" stroke="#888" stroke-width="0.7" opacity="0.55"/>
  <circle cx="113.4" cy="86.9" r="11.3" fill="none" stroke="#666" stroke-width="0.6" opacity="0.50"/>
  <circle cx="147.4" cy="86.9" r="11.3" fill="none" stroke="#666" stroke-width="0.6" opacity="0.50"/>
  <text x="170.1" y="83.2" font-size="7.9" font-family="monospace" text-anchor="end" fill="#d4af37" opacity="0.60">REST LEN</text>
  <text x="170.1" y="96.4" font-size="7.9" font-family="monospace" text-anchor="end" fill="#d4af37" opacity="0.50">REST OFF</text>
  <rect x="6.8" y="149.3" width="3.0" height="11.3" fill="#d4af37" opacity="0.60"/>
  <circle cx="30.2" cy="155.0" r="14.7" fill="none" stroke="#888" stroke-width="0.7" opacity="0.55"/>
  <circle cx="68.0" cy="155.0" r="14.7" fill="none" stroke="#888" stroke-width="0.7" opacity="0.55"/>
  <circle cx="113.4" cy="155.0" r="11.3" fill="none" stroke="#666" stroke-width="0.6" opacity="0.50"/>
  <circle cx="147.4" cy="155.0" r="11.3" fill="none" stroke="#666" stroke-width="0.6" opacity="0.50"/>
  <text x="170.1" y="151.2" font-size="7.9" font-family="monospace" text-anchor="end" fill="#d4af37" opacity="0.60">REST ROT</text>
  <text x="170.1" y="164.4" font-size="7.9" font-family="monospace" text-anchor="end" fill="#d4af37" opacity="0.50">REST SPR</text>
  <rect x="6.8" y="217.3" width="3.0" height="11.3" fill="#26a69a" opacity="0.60"/>
  <circle cx="30.2" cy="223.0" r="14.7" fill="none" stroke="#888" stroke-width="0.7" opacity="0.55"/>
  <circle cx="68.0" cy="223.0" r="14.7" fill="none" stroke="#888" stroke-width="0.7" opacity="0.55"/>
  <circle cx="113.4" cy="223.0" r="11.3" fill="none" stroke="#666" stroke-width="0.6" opacity="0.50"/>
  <circle cx="147.4" cy="223.0" r="11.3" fill="none" stroke="#666" stroke-width="0.6" opacity="0.50"/>
  <text x="170.1" y="219.2" font-size="7.9" font-family="monospace" text-anchor="end" fill="#26a69a" opacity="0.60">MEL LEN</text>
  <text x="170.1" y="232.4" font-size="7.9" font-family="monospace" text-anchor="end" fill="#26a69a" opacity="0.50">MEL OFF</text>
  <rect x="6.8" y="285.4" width="3.0" height="11.3" fill="#26a69a" opacity="0.60"/>
  <circle cx="30.2" cy="291.0" r="14.7" fill="none" stroke="#888" stroke-width="0.7" opacity="0.55"/>
  <circle cx="68.0" cy="291.0" r="14.7" fill="none" stroke="#888" stroke-width="0.7" opacity="0.55"/>
  <circle cx="113.4" cy="291.0" r="11.3" fill="none" stroke="#666" stroke-width="0.6" opacity="0.50"/>
  <circle cx="147.4" cy="291.0" r="11.3" fill="none" stroke="#666" stroke-width="0.6" opacity="0.50"/>
  <text x="170.1" y="287.2" font-size="7.9" font-family="monospace" text-anchor="end" fill="#26a69a" opacity="0.60">MEL ROT</text>
  <text x="170.1" y="300.5" font-size="7.9" font-family="monospace" text-anchor="end" fill="#26a69a" opacity="0.50">MEL SPR</text>
  <rect x="6.8" y="353.4" width="3.0" height="11.3" fill="#4a90d9" opacity="0.60"/>
  <circle cx="30.2" cy="359.1" r="14.7" fill="none" stroke="#888" stroke-width="0.7" opacity="0.55"/>
  <circle cx="68.0" cy="359.1" r="14.7" fill="none" stroke="#888" stroke-width="0.7" opacity="0.55"/>
  <circle cx="113.4" cy="359.1" r="11.3" fill="none" stroke="#666" stroke-width="0.6" opacity="0.50"/>
  <circle cx="147.4" cy="359.1" r="11.3" fill="none" stroke="#666" stroke-width="0.6" opacity="0.50"/>
  <text x="170.1" y="355.3" font-size="7.9" font-family="monospace" text-anchor="end" fill="#4a90d9" opacity="0.60">OCT LEN</text>
  <text x="170.1" y="368.5" font-size="7.9" font-family="monospace" text-anchor="end" fill="#4a90d9" opacity="0.50">OCT OFF</text>
  <rect x="6.8" y="421.4" width="3.0" height="11.3" fill="#4a90d9" opacity="0.60"/>
  <circle cx="30.2" cy="427.1" r="14.7" fill="none" stroke="#888" stroke-width="0.7" opacity="0.55"/>
  <circle cx="68.0" cy="427.1" r="14.7" fill="none" stroke="#888" stroke-width="0.7" opacity="0.55"/>
  <circle cx="113.4" cy="427.1" r="11.3" fill="none" stroke="#666" stroke-width="0.6" opacity="0.50"/>
  <circle cx="147.4" cy="427.1" r="11.3" fill="none" stroke="#666" stroke-width="0.6" opacity="0.50"/>
  <text x="170.1" y="423.3" font-size="7.9" font-family="monospace" text-anchor="end" fill="#4a90d9" opacity="0.60">OCT ROT</text>
  <text x="170.1" y="436.5" font-size="7.9" font-family="monospace" text-anchor="end" fill="#4a90d9" opacity="0.50">OCT SPR</text>
  <line x1="170.1" y1="45.4" x2="170.1" y2="485.7" stroke="#bbb" stroke-width="0.6" opacity="0.50"/>
  <rect x="173.9" y="68.0" width="502.2" height="393.1" fill="#f0f0f0" opacity="0.55" rx="1"/>
  <rect x="173.9" y="30.2" width="502.2" height="34.0" fill="#e0e0e0" opacity="0.50" rx="1"/>
  <text x="209.7" y="47.2" font-size="9.1" font-family="monospace" text-anchor="middle" fill="#26a69a" opacity="0.70">V2</text>
  <text x="281.5" y="47.2" font-size="9.1" font-family="monospace" text-anchor="middle" fill="#26a69a" opacity="0.70">V3</text>
  <text x="353.2" y="47.2" font-size="9.1" font-family="monospace" text-anchor="middle" fill="#26a69a" opacity="0.70">V4</text>
  <text x="425.0" y="47.2" font-size="9.1" font-family="monospace" text-anchor="middle" fill="#26a69a" opacity="0.70">V5</text>
  <text x="496.7" y="47.2" font-size="9.1" font-family="monospace" text-anchor="middle" fill="#26a69a" opacity="0.70">V6</text>
  <text x="568.5" y="47.2" font-size="9.1" font-family="monospace" text-anchor="middle" fill="#26a69a" opacity="0.70">V7</text>
  <text x="640.2" y="47.2" font-size="9.1" font-family="monospace" text-anchor="middle" fill="#26a69a" opacity="0.70">V8</text>
  <g fill="url(#mbsG)" stroke="none">
    <polygon points="265.3,464.0 330.0,464.0 333.6,481.2 261.8,481.2" />
    <polygon points="392.7,464.0 457.3,464.0 460.9,481.2 389.1,481.2" />
    <polygon points="520.0,464.0 584.6,464.0 588.2,481.2 516.4,481.2" />
    <polygon points="258.8,464.0 591.2,464.0 593.2,462.0 256.8,462.0" />
  </g>
  <line x1="300.9" y1="464.0" x2="300.9" y2="460.0" stroke="#dc2626" stroke-width="0.5" opacity="0.35"/>
  <circle cx="300.9" cy="459.0" r="1.0" fill="#dc2626" opacity="0.35"/>
  <line x1="408.6" y1="464.0" x2="408.6" y2="460.0" stroke="#dc2626" stroke-width="0.5" opacity="0.35"/>
  <circle cx="408.6" cy="459.0" r="1.0" fill="#dc2626" opacity="0.35"/>
  <line x1="519.6" y1="464.0" x2="519.6" y2="460.0" stroke="#dc2626" stroke-width="0.5" opacity="0.35"/>
  <circle cx="519.6" cy="459.0" r="1.0" fill="#dc2626" opacity="0.35"/>
  <g fill="none" stroke="#7aa0b8">
    <path d="M0.0,483.2 L17.3,484.7 L34.6,483.0 L51.8,481.8 L69.1,483.8 L86.4,484.6 L103.7,482.4 L121.0,482.1 L138.2,484.3 L155.5,484.2 L172.8,482.0 L190.1,482.6 L207.4,484.6 L224.6,483.7 L241.9,481.8 L259.2,483.1 L276.5,484.7 L293.8,483.1 L311.0,481.8 L328.3,483.7 L345.6,484.6 L362.9,482.5 L380.2,482.0 L397.4,484.2 L414.7,484.3 L432.0,482.1 L449.3,482.5 L466.6,484.6 L483.8,483.8 L501.1,481.8 L518.4,483.0 L535.7,484.7 L553.0,483.2 L570.2,481.8 L587.5,483.6 L604.8,484.7 L622.1,482.6 L639.4,482.0 L656.6,484.1 L673.9,484.4 L691.2,482.1" stroke-width="0.4" opacity="0.3"/>
  </g>
  <g stroke="#dc2626" stroke-width="0.9" opacity="0.35">
    <line x1="6.8" y1="0" x2="6.8" y2="485.67" stroke-dasharray="3,5"/>
    <line x1="684.4" y1="0" x2="684.4" y2="485.67" stroke-dasharray="3,5"/>
  </g>
  <circle cx="676.1" cy="15.1" r="9.4" fill="#dc2626"/>
</svg>