<svg xmlns="http://www.w3.org/2000/svg" width="460.8" height="485.67" viewBox="0 0 460.8 485.67">
  <defs>
    <pattern id="grain" x="0" y="0" width="460.8" height="2" patternUnits="userSpaceOnUse"><rect width="460.8" height="2" fill="#141416"/><rect y="1" width="460.8" height="0.6" fill="#1e2228" opacity="0.30"/></pattern>
    <linearGradient id="skyG" x1="0" y1="0" x2="0" y2="1"><stop offset="0%" stop-color="#0a1520" stop-opacity="0.70"/><stop offset="40%" stop-color="#141416" stop-opacity="0.0"/></linearGradient>
    <linearGradient id="mbsG" x1="0" y1="0" x2="0" y2="1"><stop offset="0%" stop-color="#1a2030" stop-opacity="0.0"/><stop offset="40%" stop-color="#1a2030" stop-opacity="0.50"/><stop offset="100%" stop-color="#1a2030" stop-opacity="0.75"/></linearGradient>
  </defs>
  <rect width="460.8" height="485.67" fill="url(#grain)"/>
  <rect x="0" y="0" width="460.8" height="207.9" fill="url(#skyG)"/>
  <rect x="0" y="0" width="6.8" height="485.67" fill="#4a90d9" opacity="0.85"/>
  <!-- MBS silhouette -->
  <g fill="url(#mbsG)" stroke="none">
    <polygon points="94.3,277.8 147.0,277.8 150.6,485.7 90.7,485.7"/>
    <polygon points="200.4,277.8 253.1,277.8 256.7,485.7 196.8,485.7"/>
    <polygon points="306.6,277.8 359.2,277.8 362.8,485.7 303.0,485.7"/>
    <polygon points="84.7,276.8 368.8,276.8 371.8,273.8 81.7,273.8"/>
  </g>
  <g fill="none" stroke="#dc2626" stroke-width="0.3" opacity="0.18">
    <polygon points="94.3,277.8 147.0,277.8 150.6,485.7 90.7,485.7"/>
    <line x1="91.7" y1="456.0" x2="149.6" y2="456.0"/>
    <line x1="91.7" y1="426.3" x2="149.6" y2="426.3"/>
    <line x1="91.7" y1="396.6" x2="149.6" y2="396.6"/>
    <line x1="91.7" y1="366.9" x2="149.6" y2="366.9"/>
    <line x1="91.7" y1="337.2" x2="149.6" y2="337.2"/>
    <line x1="91.7" y1="307.5" x2="149.6" y2="307.5"/>
    <polygon points="200.4,277.8 253.1,277.8 256.7,485.7 196.8,485.7"/>
    <line x1="197.8" y1="456.0" x2="255.7" y2="456.0"/>
    <line x1="197.8" y1="426.3" x2="255.7" y2="426.3"/>
    <line x1="197.8" y1="396.6" x2="255.7" y2="396.6"/>
    <line x1="197.8" y1="366.9" x2="255.7" y2="366.9"/>
    <line x1="197.8" y1="337.2" x2="255.7" y2="337.2"/>
    <line x1="197.8" y1="307.5" x2="255.7" y2="307.5"/>
    <polygon points="306.6,277.8 359.2,277.8 362.8,485.7 303.0,485.7"/>
    <line x1="304.0" y1="456.0" x2="361.8" y2="456.0"/>
    <line x1="304.0" y1="426.3" x2="361.8" y2="426.3"/>
    <line x1="304.0" y1="396.6" x2="361.8" y2="396.6"/>
    <line x1="304.0" y1="366.9" x2="361.8" y2="366.9"/>
    <line x1="304.0" y1="337.2" x2="361.8" y2="337.2"/>
    <line x1="304.0" y1="307.5" x2="361.8" y2="307.5"/>
    <polygon points="84.7,276.8 368.8,276.8 371.8,273.8 81.7,273.8"/>
    <line x1="87.7" y1="275.8" x2="365.8" y2="275.8"/>
  </g>
  <!-- Contour lines -->
  <path d="M7.6,230.1 L18.7,233.3 L29.8,232.9 L41.0,229.2 L52.1,224.2 L63.3,220.6 L74.4,220.3 L85.5,223.6 L96.7,228.6 L107.8,232.6 L119.0,233.4 L130.1,230.6 L141.3,225.7 L152.4,221.4 L163.6,220.0 L174.7,222.3 L185.8,227.1 L197.0,231.7 L208.1,233.6 L219.3,231.8 L230.4,227.3 L241.5,222.5 L252.7,220.0 L263.8,221.2 L275.0,225.5 L286.1,230.4 L297.2,233.4 L308.4,232.7 L319.5,228.8 L330.7,223.8 L341.8,220.4 L353.0,220.5 L364.1,223.9 L375.2,229.0 L386.4,232.8 L397.5,233.3 L408.7,230.3 L419.8,225.3 L430.9,221.2 L442.1,220.1 L453.2,222.6" fill="none" stroke="#2a3040" stroke-width="0.5" opacity="0.08"/>
  <path d="M7.6,246.6 L18.7,247.3 L29.8,245.7 L41.0,242.2 L52.1,237.9 L63.3,233.9 L74.4,231.3 L85.5,230.8 L96.7,232.5 L107.8,236.1 L119.0,240.4 L130.1,244.3 L141.3,246.8 L152.4,247.2 L163.6,245.3 L174.7,241.7 L185.8,237.3 L197.0,233.4 L208.1,231.1 L219.3,230.9 L230.4,232.9 L241.5,236.6 L252.7,240.9 L263.8,244.8 L275.0,247.0 L286.1,247.1 L297.2,244.9 L308.4,241.2 L319.5,236.8 L330.7,233.1 L341.8,230.9 L353.0,231.0 L364.1,233.3 L375.2,237.1 L386.4,241.5 L397.5,245.2 L408.7,247.2 L419.8,246.9 L430.9,244.5 L442.1,240.6 L453.2,236.3" fill="none" stroke="#2a3040" stroke-width="0.5" opacity="0.09"/>
  <path d="M7.6,260.6 L18.7,258.7 L29.8,255.5 L41.0,251.7 L52.1,247.8 L63.3,244.4 L74.4,242.2 L85.5,241.4 L96.7,242.3 L107.8,244.6 L119.0,248.0 L130.1,251.9 L141.3,255.8 L152.4,258.8 L163.6,260.7 L174.7,261.0 L185.8,259.7 L197.0,257.0 L208.1,253.4 L219.3,249.4 L230.4,245.8 L241.5,243.0 L252.7,241.6 L263.8,241.7 L275.0,243.4 L286.1,246.4 L297.2,250.2 L308.4,254.2 L319.5,257.6 L330.7,260.1 L341.8,261.1 L353.0,260.4 L364.1,258.3 L375.2,255.1 L386.4,251.2 L397.5,247.3 L408.7,244.1 L419.8,242.0 L430.9,241.5 L442.1,242.5 L453.2,245.0" fill="none" stroke="#2a3040" stroke-width="0.5" opacity="0.11"/>
  <path d="M7.6,266.0 L18.7,257.8 L29.8,252.7 L41.0,253.5 L52.1,259.7 L63.3,268.0 L74.4,273.8 L85.5,274.0 L96.7,268.5 L107.8,260.2 L119.0,253.8 L130.1,252.6 L141.3,257.3 L152.4,265.4 L163.6,272.5 L174.7,274.6 L185.8,270.7 L197.0,262.8 L208.1,255.3 L219.3,252.2 L230.4,255.3 L241.5,262.8 L252.7,270.7 L263.8,274.6 L275.0,272.5 L286.1,265.5 L297.2,257.3 L308.4,252.6 L319.5,253.7 L330.7,260.2 L341.8,268.5 L353.0,274.0 L364.1,273.8 L375.2,268.0 L386.4,259.7 L397.5,253.5 L408.7,252.7 L419.8,257.8 L430.9,266.0 L442.1,272.8 L453.2,274.6" fill="none" stroke="#2a3040" stroke-width="0.5" opacity="0.13"/>
  <path d="M7.6,270.6 L18.7,265.5 L29.8,263.2 L41.0,264.3 L52.1,268.6 L63.3,274.8 L74.4,281.2 L85.5,286.1 L96.7,288.2 L107.8,286.9 L119.0,282.5 L130.1,276.3 L141.3,269.9 L152.4,265.1 L163.6,263.2 L174.7,264.7 L185.8,269.3 L197.0,275.6 L208.1,281.9 L219.3,286.6 L230.4,288.3 L241.5,286.5 L252.7,281.8 L263.8,275.4 L275.0,269.1 L286.1,264.6 L297.2,263.2 L308.4,265.1 L319.5,270.0 L330.7,276.4 L341.8,282.7 L353.0,287.0 L364.1,288.2 L375.2,286.1 L386.4,281.1 L397.5,274.6 L408.7,268.4 L419.8,264.3 L430.9,263.2 L442.1,265.6 L453.2,270.8" fill="none" stroke="#2a3040" stroke-width="0.5" opacity="0.15"/>
  <path d="M7.6,275.5 L18.7,274.2 L29.8,275.2 L41.0,278.2 L52.1,282.9 L63.3,288.4 L74.4,293.8 L85.5,298.2 L96.7,301.0 L107.8,301.7 L119.0,300.1 L130.1,296.5 L141.3,291.5 L152.4,286.0 L163.6,280.8 L174.7,276.7 L185.8,274.5 L197.0,274.5 L208.1,276.7 L219.3,280.7 L230.4,285.9 L241.5,291.5 L252.7,296.4 L263.8,300.0 L275.0,301.6 L286.1,301.0 L297.2,298.3 L308.4,293.8 L319.5,288.4 L330.7,282.9 L341.8,278.3 L353.0,275.2 L364.1,274.2 L375.2,275.5 L386.4,278.8 L397.5,283.6 L408.7,289.1 L419.8,294.4 L430.9,298.7 L442.1,301.2 L453.2,301.6" fill="none" stroke="#2a3040" stroke-width="0.5" opacity="0.17"/>
  <path d="M7.6,288.0 L18.7,297.1 L29.8,307.8 L41.0,314.4 L52.1,313.3 L63.3,305.0 L74.4,294.1 L85.5,286.5 L96.7,286.4 L107.8,293.8 L119.0,304.7 L130.1,313.1 L141.3,314.5 L152.4,308.1 L163.6,297.4 L174.7,288.2 L185.8,285.5 L197.0,290.9 L208.1,301.3 L219.3,311.1 L230.4,315.0 L241.5,310.8 L252.7,300.9 L263.8,290.6 L275.0,285.5 L286.1,288.4 L297.2,297.8 L308.4,308.5 L319.5,314.6 L330.7,312.9 L341.8,304.3 L353.0,293.4 L364.1,286.3 L375.2,286.7 L386.4,294.5 L397.5,305.4 L408.7,313.5 L419.8,314.3 L430.9,307.5 L442.1,296.7 L453.2,287.8" fill="none" stroke="#2a3040" stroke-width="0.5" opacity="0.19"/>
  <path d="M7.6,307.5 L18.7,315.6 L29.8,322.9 L41.0,327.4 L52.1,327.7 L63.3,323.9 L74.4,316.9 L85.5,308.7 L96.7,301.6 L107.8,297.4 L119.0,297.3 L130.1,301.4 L141.3,308.5 L152.4,316.6 L163.6,323.7 L174.7,327.6 L185.8,327.4 L197.0,323.1 L208.1,315.9 L219.3,307.7 L230.4,300.8 L241.5,297.1 L252.7,297.6 L263.8,302.1 L275.0,309.5 L286.1,317.7 L297.2,324.4 L308.4,327.9 L319.5,327.1 L330.7,322.3 L341.8,314.9 L353.0,306.7 L364.1,300.2 L375.2,296.9 L386.4,298.0 L397.5,303.0 L408.7,310.5 L419.8,318.6 L430.9,325.0 L442.1,328.0 L453.2,326.7" fill="none" stroke="#2a3040" stroke-width="0.5" opacity="0.21"/>
  <path d="M7.6,330.9 L18.7,336.4 L29.8,339.9 L41.0,341.0 L52.1,339.4 L63.3,335.3 L74.4,329.6 L85.5,323.0 L96.7,316.7 L107.8,311.8 L119.0,308.9 L130.1,308.6 L141.3,310.9 L152.4,315.5 L163.6,321.6 L174.7,328.2 L185.8,334.2 L197.0,338.7 L208.1,340.8 L219.3,340.4 L230.4,337.3 L241.5,332.2 L252.7,325.9 L263.8,319.4 L275.0,313.7 L286.1,309.8 L297.2,308.4 L308.4,309.6 L319.5,313.3 L330.7,318.8 L341.8,325.3 L353.0,331.7 L364.1,337.0 L375.2,340.2 L386.4,340.9 L397.5,338.9 L408.7,334.7 L419.8,328.8 L430.9,322.2 L442.1,316.0 L453.2,311.2" fill="none" stroke="#2a3040" stroke-width="0.5" opacity="0.23"/>
  <path d="M7.6,353.5 L18.7,350.6 L29.8,340.2 L41.0,328.1 L52.1,320.7 L63.3,322.2 L74.4,331.7 L85.5,344.0 L96.7,352.5 L107.8,352.5 L119.0,344.0 L130.1,331.6 L141.3,322.2 L152.4,320.7 L163.6,328.1 L174.7,340.3 L185.8,350.6 L197.0,353.5 L208.1,347.3 L219.3,335.5 L230.4,324.4 L241.5,320.2 L252.7,325.1 L263.8,336.4 L275.0,348.0 L286.1,353.6 L297.2,350.1 L308.4,339.4 L319.5,327.4 L330.7,320.5 L341.8,322.6 L353.0,332.5 L364.1,344.8 L375.2,352.8 L386.4,352.1 L397.5,343.2 L408.7,330.8 L419.8,321.8 L430.9,321.0 L442.1,328.9 L453.2,341.1" fill="none" stroke="#2a3040" stroke-width="0.5" opacity="0.25"/>
  <path d="M7.6,364.0 L18.7,357.8 L29.8,349.3 L41.0,340.7 L52.1,334.4 L63.3,332.2 L74.4,334.6 L85.5,341.0 L96.7,349.6 L107.8,358.1 L119.0,364.2 L130.1,366.1 L141.3,363.4 L152.4,356.8 L163.6,348.1 L174.7,339.7 L185.8,333.9 L197.0,332.2 L208.1,335.2 L219.3,342.0 L230.4,350.8 L241.5,359.1 L252.7,364.7 L263.8,366.0 L275.0,362.8 L286.1,355.8 L297.2,347.0 L308.4,338.8 L319.5,333.4 L330.7,332.4 L341.8,335.9 L353.0,343.1 L364.1,351.9 L375.2,360.0 L386.4,365.1 L397.5,365.9 L408.7,362.1 L419.8,354.7 L430.9,345.9 L442.1,337.9 L453.2,333.0" fill="none" stroke="#2a3040" stroke-width="0.5" opacity="0.27"/>
  <path d="M7.6,367.2 L18.7,360.4 L29.8,353.8 L41.0,348.4 L52.1,345.1 L63.3,344.5 L74.4,346.7 L85.5,351.2 L96.7,357.5 L107.8,364.3 L119.0,370.7 L130.1,375.6 L141.3,378.1 L152.4,377.9 L163.6,375.0 L174.7,369.9 L185.8,363.4 L197.0,356.6 L208.1,350.5 L219.3,346.2 L230.4,344.4 L241.5,345.4 L252.7,349.0 L263.8,354.6 L275.0,361.3 L286.1,368.1 L297.2,373.7 L308.4,377.3 L319.5,378.4 L330.7,376.6 L341.8,372.4 L353.0,366.3 L364.1,359.5 L375.2,353.0 L386.4,347.8 L397.5,344.9 L408.7,344.7 L419.8,347.2 L430.9,352.0 L442.1,358.4 L453.2,365.2" fill="none" stroke="#2a3040" stroke-width="0.5" opacity="0.27"/>
  <path d="M7.6,363.0 L18.7,357.0 L29.8,360.1 L41.0,370.5 L52.1,382.7 L63.3,389.9 L74.4,388.2 L85.5,378.6 L96.7,366.3 L107.8,358.0 L119.0,358.2 L130.1,366.8 L141.3,379.1 L152.4,388.5 L163.6,389.7 L174.7,382.2 L185.8,370.0 L197.0,359.8 L208.1,357.1 L219.3,363.4 L230.4,375.3 L241.5,386.3 L252.7,390.4 L263.8,385.3 L275.0,373.9 L286.1,362.3 L297.2,356.9 L308.4,360.6 L319.5,371.4 L330.7,383.4 L341.8,390.1 L353.0,387.8 L364.1,377.8 L375.2,365.5 L386.4,357.7 L397.5,358.5 L408.7,367.6 L419.8,379.9 L430.9,388.9 L442.1,389.5 L453.2,381.5" fill="none" stroke="#2a3040" stroke-width="0.5" opacity="0.25"/>
  <path d="M7.6,370.0 L18.7,370.3 L29.8,374.8 L41.0,382.3 L52.1,390.8 L63.3,398.0 L74.4,401.8 L85.5,401.3 L96.7,396.6 L107.8,388.9 L119.0,380.4 L130.1,373.4 L141.3,369.8 L152.4,370.6 L163.6,375.6 L174.7,383.4 L185.8,391.9 L197.0,398.7 L208.1,402.0 L219.3,400.9 L230.4,395.7 L241.5,387.8 L252.7,379.4 L263.8,372.7 L275.0,369.6 L286.1,371.0 L297.2,376.5 L308.4,384.5 L319.5,392.9 L330.7,399.4 L341.8,402.1 L353.0,400.5 L364.1,394.8 L375.2,386.7 L386.4,378.4 L397.5,372.1 L408.7,369.6 L419.8,371.5 L430.9,377.4 L442.1,385.6 L453.2,393.9" fill="none" stroke="#2a3040" stroke-width="0.5" opacity="0.23"/>
  <path d="M7.6,384.2 L18.7,388.2 L29.8,393.9 L41.0,400.1 L52.1,406.1 L63.3,410.8 L74.4,413.4 L85.5,413.5 L96.7,411.1 L107.8,406.5 L119.0,400.6 L130.1,394.3 L141.3,388.6 L152.4,384.5 L163.6,382.6 L174.7,383.2 L185.8,386.3 L197.0,391.3 L208.1,397.4 L219.3,403.6 L230.4,409.0 L241.5,412.5 L252.7,413.8 L263.8,412.4 L275.0,408.7 L286.1,403.3 L297.2,397.0 L308.4,390.9 L319.5,386.0 L330.7,383.1 L341.8,382.6 L353.0,384.6 L364.1,388.9 L375.2,394.7 L386.4,401.0 L397.5,406.8 L408.7,411.3 L419.8,413.5 L430.9,413.3 L442.1,410.6 L453.2,405.8" fill="none" stroke="#2a3040" stroke-width="0.5" opacity="0.21"/>
  <path d="M7.6,409.6 L18.7,419.9 L29.8,425.0 L41.0,422.2 L52.1,412.9 L63.3,402.2 L74.4,395.9 L85.5,397.6 L96.7,406.1 L107.8,417.0 L119.0,424.2 L130.1,423.9 L141.3,416.2 L152.4,405.3 L163.6,397.1 L174.7,396.2 L185.8,403.0 L197.0,413.8 L208.1,422.7 L219.3,424.9 L230.4,419.2 L241.5,408.6 L252.7,399.0 L263.8,395.6 L275.0,400.2 L286.1,410.3 L297.2,420.5 L308.4,425.1 L319.5,421.7 L330.7,412.1 L341.8,401.6 L353.0,395.8 L364.1,398.0 L375.2,406.9 L386.4,417.7 L397.5,424.5 L408.7,423.6 L419.8,415.5 L430.9,404.6 L442.1,396.8 L453.2,396.4" fill="none" stroke="#2a3040" stroke-width="0.5" opacity="0.19"/>
  <path d="M7.6,430.3 L18.7,435.0 L29.8,436.3 L41.0,433.9 L52.1,428.3 L63.3,421.2 L74.4,414.5 L85.5,410.0 L96.7,408.9 L107.8,411.6 L119.0,417.2 L130.1,424.4 L141.3,431.0 L152.4,435.3 L163.6,436.2 L174.7,433.3 L185.8,427.5 L197.0,420.3 L208.1,413.8 L219.3,409.7 L230.4,409.1 L241.5,412.2 L252.7,418.1 L263.8,425.3 L275.0,431.7 L286.1,435.7 L297.2,436.0 L308.4,432.7 L319.5,426.6 L330.7,419.4 L341.8,413.1 L353.0,409.4 L364.1,409.3 L375.2,412.8 L386.4,419.0 L397.5,426.2 L408.7,432.4 L419.8,435.9 L430.9,435.8 L442.1,432.0 L453.2,425.7" fill="none" stroke="#2a3040" stroke-width="0.5" opacity="0.17"/>
  <path d="M7.6,446.9 L18.7,447.2 L29.8,445.5 L41.0,442.0 L52.1,437.4 L63.3,432.3 L74.4,427.6 L85.5,424.1 L96.7,422.4 L107.8,422.7 L119.0,425.0 L130.1,428.9 L141.3,433.7 L152.4,438.8 L163.6,443.1 L174.7,446.2 L185.8,447.4 L197.0,446.5 L208.1,443.7 L219.3,439.5 L230.4,434.5 L241.5,429.5 L252.7,425.5 L263.8,422.9 L275.0,422.3 L286.1,423.8 L297.2,427.0 L308.4,431.5 L319.5,436.6 L330.7,441.4 L341.8,445.1 L353.0,447.1 L364.1,447.1 L375.2,445.1 L386.4,441.5 L397.5,436.7 L408.7,431.6 L419.8,427.1 L430.9,423.8 L442.1,422.3 L453.2,422.9" fill="none" stroke="#2a3040" stroke-width="0.5" opacity="0.15"/>
  <path d="M7.6,455.1 L18.7,447.5 L29.8,439.7 L41.0,435.9 L52.1,438.2 L63.3,445.3 L74.4,453.4 L85.5,458.0 L96.7,456.7 L107.8,450.1 L119.0,441.9 L130.1,436.4 L141.3,436.8 L152.4,442.8 L163.6,451.1 L174.7,457.2 L185.8,457.8 L197.0,452.5 L208.1,444.3 L219.3,437.6 L230.4,436.0 L241.5,440.5 L252.7,448.5 L263.8,455.8 L275.0,458.3 L286.1,454.7 L297.2,446.9 L308.4,439.3 L319.5,435.8 L330.7,438.5 L341.8,445.9 L353.0,453.9 L364.1,458.1 L375.2,456.4 L386.4,449.5 L397.5,441.4 L408.7,436.3 L419.8,437.1 L430.9,443.3 L442.1,451.6 L453.2,457.4" fill="none" stroke="#2a3040" stroke-width="0.5" opacity="0.13"/>
  <path d="M7.6,460.8 L18.7,455.7 L29.8,451.6 L41.0,449.6 L52.1,450.2 L63.3,453.4 L74.4,458.2 L85.5,463.2 L96.7,467.2 L107.8,469.1 L119.0,468.2 L130.1,464.9 L141.3,460.1 L152.4,455.1 L163.6,451.2 L174.7,449.5 L185.8,450.5 L197.0,453.9 L208.1,458.8 L219.3,463.8 L230.4,467.6 L241.5,469.1 L252.7,467.9 L263.8,464.4 L275.0,459.4 L286.1,454.5 L297.2,450.8 L308.4,449.5 L319.5,450.9 L330.7,454.5 L341.8,459.5 L353.0,464.4 L364.1,467.9 L375.2,469.1 L386.4,467.6 L397.5,463.8 L408.7,458.8 L419.8,453.9 L430.9,450.5 L442.1,449.5 L453.2,451.2" fill="none" stroke="#2a3040" stroke-width="0.5" opacity="0.11"/>
  <path d="M7.6,467.1 L18.7,464.6 L29.8,463.4 L41.0,463.4 L52.1,464.8 L63.3,467.3 L74.4,470.4 L85.5,473.8 L96.7,476.8 L107.8,478.9 L119.0,479.8 L130.1,479.4 L141.3,477.7 L152.4,474.9 L163.6,471.7 L174.7,468.4 L185.8,465.6 L197.0,463.8 L208.1,463.2 L219.3,464.0 L230.4,466.1 L241.5,469.0 L252.7,472.4 L263.8,475.6 L275.0,478.1 L286.1,479.6 L297.2,479.8 L308.4,478.6 L319.5,476.2 L330.7,473.1 L341.8,469.8 L353.0,466.7 L364.1,464.4 L375.2,463.3 L386.4,463.5 L397.5,465.1 L408.7,467.7 L419.8,470.9 L430.9,474.2 L442.1,477.1 L453.2,479.1" fill="none" stroke="#2a3040" stroke-width="0.5" opacity="0.09"/>
  <path d="M7.6,477.0 L18.7,479.0 L29.8,483.6 L41.0,488.3 L52.1,490.6 L63.3,489.1 L74.4,484.7 L85.5,479.9 L96.7,477.1 L107.8,478.0 L119.0,482.0 L130.1,487.0 L141.3,490.2 L152.4,489.9 L163.6,486.3 L174.7,481.3 L185.8,477.6 L197.0,477.3 L208.1,480.6 L219.3,485.5 L230.4,489.6 L241.5,490.4 L252.7,487.7 L263.8,482.8 L275.0,478.4 L286.1,477.0 L297.2,479.2 L308.4,484.0 L319.5,488.6 L330.7,490.6 L341.8,488.9 L353.0,484.4 L364.1,479.6 L375.2,477.1 L386.4,478.2 L397.5,482.4 L408.7,487.3 L419.8,490.3 L430.9,489.8 L442.1,485.9 L453.2,480.9" fill="none" stroke="#2a3040" stroke-width="0.5" opacity="0.08"/>
  <g stroke="#1a4060" stroke-width="0.5" opacity="0.35">
    <path d="M7.6,434.5 L18.7,433.8 L29.8,431.0 L41.0,431.7 L52.1,434.4 L63.3,433.9 L74.4,431.1 L85.6,431.6 L96.7,434.4 L107.8,434.0 L119.0,431.2 L130.1,431.5 L141.3,434.3 L152.4,434.1 L163.5,431.3 L174.7,431.4 L185.8,434.2 L197.0,434.1 L208.1,431.3 L219.3,431.3 L230.4,434.1 L241.5,434.2 L252.7,431.4 L263.8,431.2 L275.0,434.0 L286.1,434.3 L297.3,431.5 L308.4,431.2 L319.5,433.9 L330.7,434.4 L341.8,431.6 L353.0,431.1 L364.1,433.8 L375.2,434.4 L386.4,431.7 L397.5,431.0 L408.7,433.7 L419.8,434.5 L431.0,431.8 L442.1,431.0 L453.2,433.6" fill="none"/>
    <path d="M7.6,441.8 L18.7,440.8 L29.8,439.1 L41.0,439.1 L52.1,440.9 L63.3,441.8 L74.4,440.6 L85.6,439.0 L96.7,439.2 L107.8,441.0 L119.0,441.8 L130.1,440.5 L141.3,439.0 L152.4,439.3 L163.5,441.1 L174.7,441.8 L185.8,440.4 L197.0,438.9 L208.1,439.4 L219.3,441.2 L230.4,441.7 L241.5,440.3 L252.7,438.9 L263.8,439.5 L275.0,441.3 L286.1,441.7 L297.3,440.2 L308.4,438.8 L319.5,439.6 L330.7,441.4 L341.8,441.6 L353.0,440.0 L364.1,438.8 L375.2,439.7 L386.4,441.4 L397.5,441.6 L408.7,439.9 L419.8,438.8 L431.0,439.8 L442.1,441.5 L453.2,441.5" fill="none"/>
    <path d="M7.6,448.7 L18.7,447.8 L29.8,447.0 L41.0,447.1 L52.1,448.0 L63.3,448.8 L74.4,448.6 L85.6,447.6 L96.7,446.9 L107.8,447.2 L119.0,448.2 L130.1,448.9 L141.3,448.5 L152.4,447.5 L163.5,446.9 L174.7,447.3 L185.8,448.4 L197.0,448.9 L208.1,448.3 L219.3,447.3 L230.4,446.9 L241.5,447.5 L252.7,448.5 L263.8,448.9 L275.0,448.2 L286.1,447.2 L297.3,446.9 L308.4,447.7 L319.5,448.6 L330.7,448.8 L341.8,448.0 L353.0,447.1 L364.1,447.0 L375.2,447.8 L386.4,448.7 L397.5,448.7 L408.7,447.8 L419.8,447.0 L431.0,447.1 L442.1,448.0 L453.2,448.8" fill="none"/>
  </g>
  <rect x="0" y="0" width="460.8" height="52.9" fill="#0e1018" opacity="0.85"/>
  <text x="230.4" y="22.7" font-size="14.4" font-family="monospace" text-anchor="middle" fill="#e4e4e7" font-weight="bold">SANDS WEST</text>
  <text x="230.4" y="41.6" font-size="10.6" font-family="monospace" text-anchor="middle" fill="#555">Voices 9-16 · tabbed</text>
  <line x1="7.6" y1="52.9" x2="453.2" y2="52.9" stroke="#4a90d9" stroke-width="0.8" opacity="0.60"/>
  <circle cx="445.7" cy="15.1" r="9.4" fill="#dc2626"/>
</svg>