<svg xmlns="http://www.w3.org/2000/svg" width="420" height="380" viewBox="0 0 420 380">
<rect x="0" y="0" width="420" height="380" fill="#e8e8ea"/>
<rect x="0" y="0" width="420" height="4" fill="#c0202a"/>
<circle cx="406" cy="14" r="5" fill="#c0202a"/>
<g fill="none" stroke="#d8d9dc" stroke-width="1.0" opacity="0.390" stroke-linecap="round"><path d="M53.8 301.5 Q183.1 281.1 366.2 283.1"/><path d="M55.4 293.3 Q183.1 273.9 361.2 278.0"/><path d="M57.1 286.2 Q181.4 267.8 352.8 272.9"/><path d="M60.5 279.0 Q179.8 261.6 341.0 268.4"/><path d="M65.5 271.9 Q176.4 255.5 325.9 263.7"/><path d="M72.2 264.7 Q169.7 250.0 307.4 260.2"/><path d="M82.3 258.6 Q159.6 245.9 283.9 257.6"/><path d="M94.1 252.9 Q149.5 242.6 260.4 256.1"/></g><g fill="none" stroke="#d8d9dc" stroke-width="1.4" opacity="0.455"><ellipse cx="28.6" cy="309.7" rx="47.0" ry="75.6"/><ellipse cx="42.0" cy="309.7" rx="48.7" ry="75.6"/><ellipse cx="55.4" cy="309.7" rx="50.4" ry="75.6"/><ellipse cx="68.9" cy="309.7" rx="52.1" ry="75.6"/><ellipse cx="82.3" cy="309.7" rx="53.8" ry="75.6"/><ellipse cx="95.8" cy="309.7" rx="55.4" ry="75.6"/><ellipse cx="109.2" cy="309.7" rx="57.1" ry="75.6"/><ellipse cx="122.6" cy="309.7" rx="58.8" ry="75.6"/><ellipse cx="136.1" cy="309.7" rx="60.5" ry="75.6"/><ellipse cx="149.5" cy="309.7" rx="62.2" ry="75.6"/><ellipse cx="163.0" cy="309.7" rx="63.8" ry="75.6"/><ellipse cx="183.1" cy="309.7" rx="60.5" ry="75.6"/><ellipse cx="199.9" cy="309.7" rx="57.1" ry="75.6"/><ellipse cx="216.7" cy="309.7" rx="53.8" ry="75.6"/><ellipse cx="233.5" cy="309.7" rx="50.4" ry="75.6"/><ellipse cx="250.3" cy="309.7" rx="47.0" ry="75.6"/><ellipse cx="267.1" cy="309.7" rx="43.7" ry="75.6"/><ellipse cx="283.9" cy="309.7" rx="40.3" ry="75.6"/><ellipse cx="300.7" cy="309.7" rx="37.0" ry="75.6"/><ellipse cx="317.5" cy="309.7" rx="33.6" ry="75.6"/><ellipse cx="334.3" cy="309.7" rx="30.2" ry="75.6"/><ellipse cx="351.1" cy="309.7" rx="26.9" ry="75.6"/><ellipse cx="364.6" cy="309.7" rx="23.5" ry="75.6"/></g><path d="M42.0 232.0 L378.0 232.0 L378.0 283.1 C344.4 257.6 283.9 241.2 210.0 240.6 C122.6 241.2 55.4 256.5 53.8 301.5 L42.0 301.5 Z" fill="#e8e8ea"/><path d="M42.0 302.1 L378.0 302.1 L378.0 324.0 L42.0 324.0 Z" fill="#e8e8ea"/><path d="M366.2 283.1 L378.0 283.1 L378.0 302.1 L366.2 302.1 Z" fill="#e8e8ea"/><path d="M53.8 301.5 C55.4 256.5 122.6 241.2 210.0 240.6 C283.9 241.2 344.4 257.6 366.2 283.1" fill="none" stroke="#2a2a2e" stroke-width="2.0" opacity="0.520" stroke-linecap="round"/><polyline points="55.4,314.4 85.7,301.5 126.0,312.1 174.7,310.7 223.4,297.0 268.8,307.6 297.4,290.3" fill="none" stroke="#2a2a2e" stroke-width="1.5" opacity="0.390" stroke-linejoin="round" stroke-linecap="round"/>
<path d="M 15.0 338.0 C 27.2 333.3 51.6 333.3 63.8 338.0 C 75.9 342.7 100.3 342.7 112.5 338.0 C 124.7 333.3 149.1 333.3 161.2 338.0 C 173.4 342.7 197.8 342.7 210.0 338.0 C 222.2 333.3 246.6 333.3 258.8 338.0 C 270.9 342.7 295.3 342.7 307.5 338.0 C 319.7 333.3 344.1 333.3 356.2 338.0 C 368.4 342.7 392.8 342.7 405.0 338.0 " fill="none" stroke="#d2d4d8" stroke-width="1.5" stroke-opacity="0.5"/><path d="M 15.0 347.4 C 27.2 342.7 51.6 342.7 63.8 347.4 C 75.9 352.1 100.3 352.1 112.5 347.4 C 124.7 342.7 149.1 342.7 161.2 347.4 C 173.4 352.1 197.8 352.1 210.0 347.4 C 222.2 342.7 246.6 342.7 258.8 347.4 C 270.9 352.1 295.3 352.1 307.5 347.4 C 319.7 342.7 344.1 342.7 356.2 347.4 C 368.4 352.1 392.8 352.1 405.0 347.4 " fill="none" stroke="#d2d4d8" stroke-width="1.5" stroke-opacity="0.5"/><path d="M 15.0 356.8 C 27.2 352.1 51.6 352.1 63.8 356.8 C 75.9 361.5 100.3 361.5 112.5 356.8 C 124.7 352.1 149.1 352.1 161.2 356.8 C 173.4 361.5 197.8 361.5 210.0 356.8 C 222.2 352.1 246.6 352.1 258.8 356.8 C 270.9 361.5 295.3 361.5 307.5 356.8 C 319.7 352.1 344.1 352.1 356.2 356.8 C 368.4 361.5 392.8 361.5 405.0 356.8 " fill="none" stroke="#d2d4d8" stroke-width="1.5" stroke-opacity="0.5"/>
<text x="14" y="30" fill="#2a2a2e" font-family="sans-serif" font-size="13" font-weight="700">STRAITS WEST</text>
<text x="14" y="44" fill="#888d96" font-family="sans-serif" font-size="9">VOICES 9-16</text>
<g>
<circle cx="38.0" cy="50.0" r="8.0" fill="#d4d6d9" stroke="#a8aeb6" stroke-width="1.2"/>
<circle cx="81.0" cy="50.0" r="8.0" fill="#d4d6d9" stroke="#a8aeb6" stroke-width="1.2"/>
<circle cx="124.0" cy="50.0" r="9.0" fill="#dadce0" stroke="#9298a0" stroke-width="1.2"/>
<circle cx="167.0" cy="50.0" r="9.0" fill="#dadce0" stroke="#9298a0" stroke-width="1.2"/>
<circle cx="210.0" cy="50.0" r="9.0" fill="#dadce0" stroke="#9298a0" stroke-width="1.2"/>
<circle cx="253.0" cy="50.0" r="8.0" fill="#d4d6d9" stroke="#a8aeb6" stroke-width="1.2"/>
<circle cx="296.0" cy="50.0" r="8.0" fill="#d4d6d9" stroke="#a8aeb6" stroke-width="1.2"/>
<circle cx="339.0" cy="50.0" r="9.0" fill="#dadce0" stroke="#9298a0" stroke-width="1.2"/>
<circle cx="382.0" cy="50.0" r="9.0" fill="#dadce0" stroke="#9298a0" stroke-width="1.2"/>
<circle cx="38.0" cy="85.0" r="8.0" fill="#d4d6d9" stroke="#a8aeb6" stroke-width="1.2"/>
<circle cx="81.0" cy="85.0" r="8.0" fill="#d4d6d9" stroke="#a8aeb6" stroke-width="1.2"/>
<circle cx="124.0" cy="85.0" r="9.0" fill="#dadce0" stroke="#9298a0" stroke-width="1.2"/>
<circle cx="167.0" cy="85.0" r="9.0" fill="#dadce0" stroke="#9298a0" stroke-width="1.2"/>
<circle cx="210.0" cy="85.0" r="9.0" fill="#dadce0" stroke="#9298a0" stroke-width="1.2"/>
<circle cx="253.0" cy="85.0" r="8.0" fill="#d4d6d9" stroke="#a8aeb6" stroke-width="1.2"/>
<circle cx="296.0" cy="85.0" r="8.0" fill="#d4d6d9" stroke="#a8aeb6" stroke-width="1.2"/>
<circle cx="339.0" cy="85.0" r="9.0" fill="#dadce0" stroke="#9298a0" stroke-width="1.2"/>
<circle cx="382.0" cy="85.0" r="9.0" fill="#dadce0" stroke="#9298a0" stroke-width="1.2"/>
<circle cx="38.0" cy="120.0" r="8.0" fill="#d4d6d9" stroke="#a8aeb6" stroke-width="1.2"/>
<circle cx="81.0" cy="120.0" r="8.0" fill="#d4d6d9" stroke="#a8aeb6" stroke-width="1.2"/>
<circle cx="124.0" cy="120.0" r="9.0" fill="#dadce0" stroke="#9298a0" stroke-width="1.2"/>
<circle cx="167.0" cy="120.0" r="9.0" fill="#dadce0" stroke="#9298a0" stroke-width="1.2"/>
<circle cx="210.0" cy="120.0" r="9.0" fill="#dadce0" stroke="#9298a0" stroke-width="1.2"/>
<circle cx="253.0" cy="120.0" r="8.0" fill="#d4d6d9" stroke="#a8aeb6" stroke-width="1.2"/>
<circle cx="296.0" cy="120.0" r="8.0" fill="#d4d6d9" stroke="#a8aeb6" stroke-width="1.2"/>
<circle cx="339.0" cy="120.0" r="9.0" fill="#dadce0" stroke="#9298a0" stroke-width="1.2"/>
<circle cx="382.0" cy="120.0" r="9.0" fill="#dadce0" stroke="#9298a0" stroke-width="1.2"/>
<circle cx="38.0" cy="155.0" r="8.0" fill="#d4d6d9" stroke="#a8aeb6" stroke-width="1.2"/>
<circle cx="81.0" cy="155.0" r="8.0" fill="#d4d6d9" stroke="#a8aeb6" stroke-width="1.2"/>
<circle cx="124.0" cy="155.0" r="9.0" fill="#dadce0" stroke="#9298a0" stroke-width="1.2"/>
<circle cx="167.0" cy="155.0" r="9.0" fill="#dadce0" stroke="#9298a0" stroke-width="1.2"/>
<circle cx="210.0" cy="155.0" r="9.0" fill="#dadce0" stroke="#9298a0" stroke-width="1.2"/>
<circle cx="253.0" cy="155.0" r="8.0" fill="#d4d6d9" stroke="#a8aeb6" stroke-width="1.2"/>
<circle cx="296.0" cy="155.0" r="8.0" fill="#d4d6d9" stroke="#a8aeb6" stroke-width="1.2"/>
<circle cx="339.0" cy="155.0" r="9.0" fill="#dadce0" stroke="#9298a0" stroke-width="1.2"/>
<circle cx="382.0" cy="155.0" r="9.0" fill="#dadce0" stroke="#9298a0" stroke-width="1.2"/>
<circle cx="38.0" cy="190.0" r="8.0" fill="#d4d6d9" stroke="#a8aeb6" stroke-width="1.2"/>
<circle cx="81.0" cy="190.0" r="8.0" fill="#d4d6d9" stroke="#a8aeb6" stroke-width="1.2"/>
<circle cx="124.0" cy="190.0" r="9.0" fill="#dadce0" stroke="#9298a0" stroke-width="1.2"/>
<circle cx="167.0" cy="190.0" r="9.0" fill="#dadce0" stroke="#9298a0" stroke-width="1.2"/>
<circle cx="210.0" cy="190.0" r="9.0" fill="#dadce0" stroke="#9298a0" stroke-width="1.2"/>
<circle cx="253.0" cy="190.0" r="8.0" fill="#d4d6d9" stroke="#a8aeb6" stroke-width="1.2"/>
<circle cx="296.0" cy="190.0" r="8.0" fill="#d4d6d9" stroke="#a8aeb6" stroke-width="1.2"/>
<circle cx="339.0" cy="190.0" r="9.0" fill="#dadce0" stroke="#9298a0" stroke-width="1.2"/>
<circle cx="382.0" cy="190.0" r="9.0" fill="#dadce0" stroke="#9298a0" stroke-width="1.2"/>
<circle cx="38.0" cy="225.0" r="8.0" fill="#d4d6d9" stroke="#a8aeb6" stroke-width="1.2"/>
<circle cx="81.0" cy="225.0" r="8.0" fill="#d4d6d9" stroke="#a8aeb6" stroke-width="1.2"/>
<circle cx="124.0" cy="225.0" r="9.0" fill="#dadce0" stroke="#9298a0" stroke-width="1.2"/>
<circle cx="167.0" cy="225.0" r="9.0" fill="#dadce0" stroke="#9298a0" stroke-width="1.2"/>
<circle cx="210.0" cy="225.0" r="9.0" fill="#dadce0" stroke="#9298a0" stroke-width="1.2"/>
<circle cx="253.0" cy="225.0" r="8.0" fill="#d4d6d9" stroke="#a8aeb6" stroke-width="1.2"/>
<circle cx="296.0" cy="225.0" r="8.0" fill="#d4d6d9" stroke="#a8aeb6" stroke-width="1.2"/>
<circle cx="339.0" cy="225.0" r="9.0" fill="#dadce0" stroke="#9298a0" stroke-width="1.2"/>
<circle cx="382.0" cy="225.0" r="9.0" fill="#dadce0" stroke="#9298a0" stroke-width="1.2"/>
<circle cx="38.0" cy="260.0" r="8.0" fill="#d4d6d9" stroke="#a8aeb6" stroke-width="1.2"/>
<circle cx="81.0" cy="260.0" r="8.0" fill="#d4d6d9" stroke="#a8aeb6" stroke-width="1.2"/>
<circle cx="124.0" cy="260.0" r="9.0" fill="#dadce0" stroke="#9298a0" stroke-width="1.2"/>
<circle cx="167.0" cy="260.0" r="9.0" fill="#dadce0" stroke="#9298a0" stroke-width="1.2"/>
<circle cx="210.0" cy="260.0" r="9.0" fill="#dadce0" stroke="#9298a0" stroke-width="1.2"/>
<circle cx="253.0" cy="260.0" r="8.0" fill="#d4d6d9" stroke="#a8aeb6" stroke-width="1.2"/>
<circle cx="296.0" cy="260.0" r="8.0" fill="#d4d6d9" stroke="#a8aeb6" stroke-width="1.2"/>
<circle cx="339.0" cy="260.0" r="9.0" fill="#dadce0" stroke="#9298a0" stroke-width="1.2"/>
<circle cx="382.0" cy="260.0" r="9.0" fill="#dadce0" stroke="#9298a0" stroke-width="1.2"/>
<circle cx="38.0" cy="295.0" r="8.0" fill="#d4d6d9" stroke="#a8aeb6" stroke-width="1.2"/>
<circle cx="81.0" cy="295.0" r="8.0" fill="#d4d6d9" stroke="#a8aeb6" stroke-width="1.2"/>
<circle cx="124.0" cy="295.0" r="9.0" fill="#dadce0" stroke="#9298a0" stroke-width="1.2"/>
<circle cx="167.0" cy="295.0" r="9.0" fill="#dadce0" stroke="#9298a0" stroke-width="1.2"/>
<circle cx="210.0" cy="295.0" r="9.0" fill="#dadce0" stroke="#9298a0" stroke-width="1.2"/>
<circle cx="253.0" cy="295.0" r="8.0" fill="#d4d6d9" stroke="#a8aeb6" stroke-width="1.2"/>
<circle cx="296.0" cy="295.0" r="8.0" fill="#d4d6d9" stroke="#a8aeb6" stroke-width="1.2"/>
<circle cx="339.0" cy="295.0" r="9.0" fill="#dadce0" stroke="#9298a0" stroke-width="1.2"/>
<circle cx="382.0" cy="295.0" r="9.0" fill="#dadce0" stroke="#9298a0" stroke-width="1.2"/>
<circle cx="38.0" cy="335.0" r="9.0" fill="#dadce0" stroke="#9298a0" stroke-width="1.2"/>
<circle cx="167.0" cy="335.0" r="9.0" fill="#dadce0" stroke="#9298a0" stroke-width="1.2"/>
<circle cx="210.0" cy="335.0" r="9.0" fill="#dadce0" stroke="#9298a0" stroke-width="1.2"/>
<circle cx="339.0" cy="335.0" r="9.0" fill="#dadce0" stroke="#9298a0" stroke-width="1.2"/>
</g>
<g id="components">
<circle id="param_knob_0" cx="38.00" cy="50.00" r="0.5" fill="none" stroke="none"/>
<circle id="param_att_0" cx="81.00" cy="50.00" r="0.5" fill="none" stroke="none"/>
<circle id="input_modcv_0" cx="124.00" cy="50.00" r="0.5" fill="none" stroke="none"/>
<circle id="output_gate_0" cx="167.00" cy="50.00" r="0.5" fill="none" stroke="none"/>
<circle id="output_cv_0" cx="210.00" cy="50.00" r="0.5" fill="none" stroke="none"/>
<circle id="param_accknob_0" cx="253.00" cy="50.00" r="0.5" fill="none" stroke="none"/>
<circle id="param_accatt_0" cx="296.00" cy="50.00" r="0.5" fill="none" stroke="none"/>
<circle id="input_accmodcv_0" cx="339.00" cy="50.00" r="0.5" fill="none" stroke="none"/>
<circle id="output_acc_0" cx="382.00" cy="50.00" r="0.5" fill="none" stroke="none"/>
<circle id="param_knob_1" cx="38.00" cy="85.00" r="0.5" fill="none" stroke="none"/>
<circle id="param_att_1" cx="81.00" cy="85.00" r="0.5" fill="none" stroke="none"/>
<circle id="input_modcv_1" cx="124.00" cy="85.00" r="0.5" fill="none" stroke="none"/>
<circle id="output_gate_1" cx="167.00" cy="85.00" r="0.5" fill="none" stroke="none"/>
<circle id="output_cv_1" cx="210.00" cy="85.00" r="0.5" fill="none" stroke="none"/>
<circle id="param_accknob_1" cx="253.00" cy="85.00" r="0.5" fill="none" stroke="none"/>
<circle id="param_accatt_1" cx="296.00" cy="85.00" r="0.5" fill="none" stroke="none"/>
<circle id="input_accmodcv_1" cx="339.00" cy="85.00" r="0.5" fill="none" stroke="none"/>
<circle id="output_acc_1" cx="382.00" cy="85.00" r="0.5" fill="none" stroke="none"/>
<circle id="param_knob_2" cx="38.00" cy="120.00" r="0.5" fill="none" stroke="none"/>
<circle id="param_att_2" cx="81.00" cy="120.00" r="0.5" fill="none" stroke="none"/>
<circle id="input_modcv_2" cx="124.00" cy="120.00" r="0.5" fill="none" stroke="none"/>
<circle id="output_gate_2" cx="167.00" cy="120.00" r="0.5" fill="none" stroke="none"/>
<circle id="output_cv_2" cx="210.00" cy="120.00" r="0.5" fill="none" stroke="none"/>
<circle id="param_accknob_2" cx="253.00" cy="120.00" r="0.5" fill="none" stroke="none"/>
<circle id="param_accatt_2" cx="296.00" cy="120.00" r="0.5" fill="none" stroke="none"/>
<circle id="input_accmodcv_2" cx="339.00" cy="120.00" r="0.5" fill="none" stroke="none"/>
<circle id="output_acc_2" cx="382.00" cy="120.00" r="0.5" fill="none" stroke="none"/>
<circle id="param_knob_3" cx="38.00" cy="155.00" r="0.5" fill="none" stroke="none"/>
<circle id="param_att_3" cx="81.00" cy="155.00" r="0.5" fill="none" stroke="none"/>
<circle id="input_modcv_3" cx="124.00" cy="155.00" r="0.5" fill="none" stroke="none"/>
<circle id="output_gate_3" cx="167.00" cy="155.00" r="0.5" fill="none" stroke="none"/>
<circle id="output_cv_3" cx="210.00" cy="155.00" r="0.5" fill="none" stroke="none"/>
<circle id="param_accknob_3" cx="253.00" cy="155.00" r="0.5" fill="none" stroke="none"/>
<circle id="param_accatt_3" cx="296.00" cy="155.00" r="0.5" fill="none" stroke="none"/>
<circle id="input_accmodcv_3" cx="339.00" cy="155.00" r="0.5" fill="none" stroke="none"/>
<circle id="output_acc_3" cx="382.00" cy="155.00" r="0.5" fill="none" stroke="none"/>
<circle id="param_knob_4" cx="38.00" cy="190.00" r="0.5" fill="none" stroke="none"/>
<circle id="param_att_4" cx="81.00" cy="190.00" r="0.5" fill="none" stroke="none"/>
<circle id="input_modcv_4" cx="124.00" cy="190.00" r="0.5" fill="none" stroke="none"/>
<circle id="output_gate_4" cx="167.00" cy="190.00" r="0.5" fill="none" stroke="none"/>
<circle id="output_cv_4" cx="210.00" cy="190.00" r="0.5" fill="none" stroke="none"/>
<circle id="param_accknob_4" cx="253.00" cy="190.00" r="0.5" fill="none" stroke="none"/>
<circle id="param_accatt_4" cx="296.00" cy="190.00" r="0.5" fill="none" stroke="none"/>
<circle id="input_accmodcv_4" cx="339.00" cy="190.00" r="0.5" fill="none" stroke="none"/>
<circle id="output_acc_4" cx="382.00" cy="190.00" r="0.5" fill="none" stroke="none"/>
<circle id="param_knob_5" cx="38.00" cy="225.00" r="0.5" fill="none" stroke="none"/>
<circle id="param_att_5" cx="81.00" cy="225.00" r="0.5" fill="none" stroke="none"/>
<circle id="input_modcv_5" cx="124.00" cy="225.00" r="0.5" fill="none" stroke="none"/>
<circle id="output_gate_5" cx="167.00" cy="225.00" r="0.5" fill="none" stroke="none"/>
<circle id="output_cv_5" cx="210.00" cy="225.00" r="0.5" fill="none" stroke="none"/>
<circle id="param_accknob_5" cx="253.00" cy="225.00" r="0.5" fill="none" stroke="none"/>
<circle id="param_accatt_5" cx="296.00" cy="225.00" r="0.5" fill="none" stroke="none"/>
<circle id="input_accmodcv_5" cx="339.00" cy="225.00" r="0.5" fill="none" stroke="none"/>
<circle id="output_acc_5" cx="382.00" cy="225.00" r="0.5" fill="none" stroke="none"/>
<circle id="param_knob_6" cx="38.00" cy="260.00" r="0.5" fill="none" stroke="none"/>
<circle id="param_att_6" cx="81.00" cy="260.00" r="0.5" fill="none" stroke="none"/>
<circle id="input_modcv_6" cx="124.00" cy="260.00" r="0.5" fill="none" stroke="none"/>
<circle id="output_gate_6" cx="167.00" cy="260.00" r="0.5" fill="none" stroke="none"/>
<circle id="output_cv_6" cx="210.00" cy="260.00" r="0.5" fill="none" stroke="none"/>
<circle id="param_accknob_6" cx="253.00" cy="260.00" r="0.5" fill="none" stroke="none"/>
<circle id="param_accatt_6" cx="296.00" cy="260.00" r="0.5" fill="none" stroke="none"/>
<circle id="input_accmodcv_6" cx="339.00" cy="260.00" r="0.5" fill="none" stroke="none"/>
<circle id="output_acc_6" cx="382.00" cy="260.00" r="0.5" fill="none" stroke="none"/>
<circle id="param_knob_7" cx="38.00" cy="295.00" r="0.5" fill="none" stroke="none"/>
<circle id="param_att_7" cx="81.00" cy="295.00" r="0.5" fill="none" stroke="none"/>
<circle id="input_modcv_7" cx="124.00" cy="295.00" r="0.5" fill="none" stroke="none"/>
<circle id="output_gate_7" cx="167.00" cy="295.00" r="0.5" fill="none" stroke="none"/>
<circle id="output_cv_7" cx="210.00" cy="295.00" r="0.5" fill="none" stroke="none"/>
<circle id="param_accknob_7" cx="253.00" cy="295.00" r="0.5" fill="none" stroke="none"/>
<circle id="param_accatt_7" cx="296.00" cy="295.00" r="0.5" fill="none" stroke="none"/>
<circle id="input_accmodcv_7" cx="339.00" cy="295.00" r="0.5" fill="none" stroke="none"/>
<circle id="output_acc_7" cx="382.00" cy="295.00" r="0.5" fill="none" stroke="none"/>
<circle id="input_global_cv_in" cx="38.00" cy="335.00" r="0.5" fill="none" stroke="none"/>
<circle id="output_global_gate" cx="167.00" cy="335.00" r="0.5" fill="none" stroke="none"/>
<circle id="output_global_cv" cx="210.00" cy="335.00" r="0.5" fill="none" stroke="none"/>
<circle id="input_global_acc_cv" cx="339.00" cy="335.00" r="0.5" fill="none" stroke="none"/>
<circle id="input_global_acc_cv" cx="339.00" cy="335.00" r="0.5" fill="none" stroke="none"/>
<circle id="light_connect" cx="210.00" cy="360.00" r="0.5" fill="none" stroke="none"/>
</g>
</svg>