<svg xmlns="http://www.w3.org/2000/svg" width="390" height="380" viewBox="0 0 390 380">
  <defs>
    <pattern id="grain" x="0" y="0" width="390" height="0.8" patternUnits="userSpaceOnUse"><rect width="390" height="0.8" fill="#18181a"/><rect y="0.4" width="390" height="0.15" fill="#161616" opacity="0.35"/></pattern>
    <linearGradient id="skyG" x1="0" y1="0" x2="0" y2="1"><stop offset="0%" stop-color="#0c0606" stop-opacity="1.0"/><stop offset="50%" stop-color="#18181a" stop-opacity="0.0"/></linearGradient>
    <linearGradient id="silG" x1="0" y1="0" x2="0" y2="1"><stop offset="0%" stop-color="#181e28" stop-opacity="0.60"/><stop offset="100%" stop-color="#181e28" stop-opacity="0.92"/></linearGradient>
    <linearGradient id="waveG" x1="0" y1="0" x2="0" y2="1"><stop offset="0%" stop-color="#100808" stop-opacity="0.65"/><stop offset="100%" stop-color="#18181a" stop-opacity="0.0"/></linearGradient>
  </defs>
  <rect width="390" height="380" fill="#18181a"/>
  <rect x="0" y="0" width="390" height="280" fill="url(#skyG)"/>
  <g fill="url(#silG)" stroke="none">
    <rect x="185" y="245" width="185" height="62" rx="2"/>
    <polygon points="198.0,245.0 360.0,245.0 352.0,231.0 206.0,231.0"/>
    <polygon points="210.0,267.0 350.0,267.0 344.0,259.0 216.0,259.0"/>
    <rect x="192" y="289" width="190" height="5" rx="1"/>
    <rect x="186" y="294" width="202" height="5" rx="1"/>
    <rect x="180" y="299" width="214" height="5" rx="1"/>
    <rect x="174" y="304" width="226" height="5" rx="1"/>
    <rect x="315" y="217" width="-40" height="28" rx="1"/>
  </g>
  <g stroke="#d4001a" stroke-width="0.35" fill="none" opacity="0.20">
    <line x1="200" y1="245" x2="200" y2="289"/>
    <line x1="218" y1="245" x2="218" y2="289"/>
    <line x1="236" y1="245" x2="236" y2="289"/>
    <line x1="254" y1="245" x2="254" y2="289"/>
    <line x1="272" y1="245" x2="272" y2="289"/>
    <line x1="290" y1="245" x2="290" y2="289"/>
    <line x1="308" y1="245" x2="308" y2="289"/>
    <line x1="326" y1="245" x2="326" y2="289"/>
    <line x1="344" y1="245" x2="344" y2="289"/>
    <line x1="362" y1="245" x2="362" y2="289"/>
    <line x1="190" y1="257" x2="368" y2="257"/>
    <line x1="190" y1="269" x2="368" y2="269"/>
    <line x1="190" y1="281" x2="368" y2="281"/>
  </g>
  <g stroke="#d4001a" stroke-width="0.25" fill="none" opacity="0.28">
    <rect x="204" y="253" width="9" height="6" rx="0.5"/>
    <rect x="218" y="253" width="9" height="6" rx="0.5"/>
    <rect x="232" y="253" width="9" height="6" rx="0.5"/>
    <rect x="246" y="253" width="9" height="6" rx="0.5"/>
    <rect x="260" y="253" width="9" height="6" rx="0.5"/>
    <rect x="274" y="253" width="9" height="6" rx="0.5"/>
    <rect x="288" y="253" width="9" height="6" rx="0.5"/>
    <rect x="302" y="253" width="9" height="6" rx="0.5"/>
    <rect x="316" y="253" width="9" height="6" rx="0.5"/>
    <rect x="330" y="253" width="9" height="6" rx="0.5"/>
    <rect x="344" y="253" width="9" height="6" rx="0.5"/>
    <rect x="358" y="253" width="9" height="6" rx="0.5"/>
    <rect x="204" y="263" width="9" height="6" rx="0.5"/>
    <rect x="218" y="263" width="9" height="6" rx="0.5"/>
    <rect x="232" y="263" width="9" height="6" rx="0.5"/>
    <rect x="246" y="263" width="9" height="6" rx="0.5"/>
    <rect x="260" y="263" width="9" height="6" rx="0.5"/>
    <rect x="274" y="263" width="9" height="6" rx="0.5"/>
    <rect x="288" y="263" width="9" height="6" rx="0.5"/>
    <rect x="302" y="263" width="9" height="6" rx="0.5"/>
    <rect x="316" y="263" width="9" height="6" rx="0.5"/>
    <rect x="330" y="263" width="9" height="6" rx="0.5"/>
    <rect x="344" y="263" width="9" height="6" rx="0.5"/>
    <rect x="358" y="263" width="9" height="6" rx="0.5"/>
    <rect x="204" y="273" width="9" height="6" rx="0.5"/>
    <rect x="218" y="273" width="9" height="6" rx="0.5"/>
    <rect x="232" y="273" width="9" height="6" rx="0.5"/>
    <rect x="246" y="273" width="9" height="6" rx="0.5"/>
    <rect x="260" y="273" width="9" height="6" rx="0.5"/>
    <rect x="274" y="273" width="9" height="6" rx="0.5"/>
    <rect x="288" y="273" width="9" height="6" rx="0.5"/>
    <rect x="302" y="273" width="9" height="6" rx="0.5"/>
    <rect x="316" y="273" width="9" height="6" rx="0.5"/>
    <rect x="330" y="273" width="9" height="6" rx="0.5"/>
    <rect x="344" y="273" width="9" height="6" rx="0.5"/>
    <rect x="358" y="273" width="9" height="6" rx="0.5"/>
  </g>
  <g fill="url(#silG)" stroke="none">
    <path d="M 185.0,245.0 A 67.5,22.0 0 0,1 320.0,245.0 Z"/>
  </g>
  <g fill="#181e28" stroke="none" opacity="0.85">
    <polygon points="185.0,246.7 178.0,245.0 185.0,243.3"/>
    <polygon points="185.3,242.4 180.1,237.5 187.0,239.5"/>
    <polygon points="188.3,238.1 185.1,231.7 190.9,236.0"/>
    <polygon points="193.6,234.2 191.8,227.2 196.6,232.6"/>
    <polygon points="201.0,230.8 200.3,223.6 204.2,229.6"/>
    <polygon points="210.2,227.8 210.1,220.6 213.5,227.0"/>
    <polygon points="220.7,225.6 221.3,218.4 224.1,225.0"/>
    <polygon points="232.3,224.0 233.4,216.9 235.7,223.7"/>
    <polygon points="244.6,223.1 246.1,216.1 248.0,223.0"/>
    <polygon points="257.0,223.0 258.9,216.1 260.4,223.1"/>
    <polygon points="269.3,223.7 271.6,216.9 272.7,224.0"/>
    <polygon points="280.9,225.0 283.7,218.4 284.3,225.6"/>
    <polygon points="291.5,227.0 294.9,220.6 294.8,227.8"/>
    <polygon points="300.8,229.6 304.7,223.6 304.0,230.8"/>
    <polygon points="308.4,232.6 313.2,227.2 311.4,234.2"/>
    <polygon points="314.1,236.0 319.9,231.7 316.7,238.1"/>
    <polygon points="318.0,239.5 324.9,237.5 319.7,242.4"/>
    <polygon points="320.0,243.3 327.0,245.0 320.0,246.7"/>
  </g>
  <line x1="252.5" y1="223.0" x2="252.5" y2="214.0" stroke="#d4001a" stroke-width="0.7" opacity="0.5"/>
  <circle cx="252.5" cy="213.0" r="1.6" fill="#d4001a" opacity="0.5"/>
  <path d="M 185.0,245.0 A 67.5,22.0 0 0,1 320.0,245.0" fill="none" stroke="#d4001a" stroke-width="0.8" opacity="0.45"/>
  <g fill="url(#silG)" stroke="none">
    <path d="M 270.0,245.0 A 67.5,22.0 0 0,1 405.0,245.0 Z"/>
  </g>
  <g fill="#181e28" stroke="none" opacity="0.85">
    <polygon points="270.0,246.7 263.0,245.0 270.0,243.3"/>
    <polygon points="270.3,242.4 265.1,237.5 272.0,239.5"/>
    <polygon points="273.3,238.1 270.1,231.7 275.9,236.0"/>
    <polygon points="278.6,234.2 276.8,227.2 281.6,232.6"/>
    <polygon points="286.0,230.8 285.3,223.6 289.2,229.6"/>
    <polygon points="295.2,227.8 295.1,220.6 298.5,227.0"/>
    <polygon points="305.7,225.6 306.3,218.4 309.1,225.0"/>
    <polygon points="317.3,224.0 318.4,216.9 320.7,223.7"/>
    <polygon points="329.6,223.1 331.1,216.1 333.0,223.0"/>
    <polygon points="342.0,223.0 343.9,216.1 345.4,223.1"/>
    <polygon points="354.3,223.7 356.6,216.9 357.7,224.0"/>
    <polygon points="365.9,225.0 368.7,218.4 369.3,225.6"/>
    <polygon points="376.5,227.0 379.9,220.6 379.8,227.8"/>
    <polygon points="385.8,229.6 389.7,223.6 389.0,230.8"/>
    <polygon points="393.4,232.6 398.2,227.2 396.4,234.2"/>
    <polygon points="399.1,236.0 404.9,231.7 401.7,238.1"/>
    <polygon points="403.0,239.5 409.9,237.5 404.7,242.4"/>
    <polygon points="405.0,243.3 412.0,245.0 405.0,246.7"/>
  </g>
  <line x1="337.5" y1="223.0" x2="337.5" y2="214.0" stroke="#d4001a" stroke-width="0.7" opacity="0.5"/>
  <circle cx="337.5" cy="213.0" r="1.6" fill="#d4001a" opacity="0.5"/>
  <path d="M 270.0,245.0 A 67.5,22.0 0 0,1 405.0,245.0" fill="none" stroke="#d4001a" stroke-width="0.8" opacity="0.45"/>
  <rect x="0" y="290" width="390" height="90" fill="url(#waveG)"/>
  <path d="M0.0,298.0 L4.9,299.1 L9.8,300.0 L14.6,300.9 L19.5,301.6 L24.4,302.2 L29.2,302.4 L34.1,302.5 L39.0,302.3 L43.9,301.8 L48.8,301.2 L53.6,300.4 L58.5,299.4 L63.4,298.4 L68.2,297.3 L73.1,296.3 L78.0,295.4 L82.9,294.6 L87.8,294.0 L92.6,293.6 L97.5,293.5 L102.4,293.6 L107.2,294.0 L112.1,294.6 L117.0,295.4 L121.9,296.3 L126.8,297.3 L131.6,298.4 L136.5,299.4 L141.4,300.4 L146.2,301.2 L151.1,301.8 L156.0,302.3 L160.9,302.5 L165.8,302.4 L170.6,302.2 L175.5,301.6 L180.4,300.9 L185.2,300.0 L190.1,299.1 L195.0,298.0 L199.9,296.9 L204.8,296.0 L209.6,295.1 L214.5,294.4 L219.4,293.8 L224.2,293.6 L229.1,293.5 L234.0,293.7 L238.9,294.2 L243.8,294.8 L248.6,295.6 L253.5,296.6 L258.4,297.6 L263.2,298.7 L268.1,299.7 L273.0,300.6 L277.9,301.4 L282.8,302.0 L287.6,302.4 L292.5,302.5 L297.4,302.4 L302.2,302.0 L307.1,301.4 L312.0,300.6 L316.9,299.7 L321.8,298.7 L326.6,297.6 L331.5,296.6 L336.4,295.6 L341.2,294.8 L346.1,294.2 L351.0,293.7 L355.9,293.5 L360.8,293.6 L365.6,293.8 L370.5,294.4 L375.4,295.1 L380.2,296.0 L385.1,296.9 L390.0,298.0" fill="none" stroke="#3a1414" stroke-width="0.7" opacity="0.55"/>
  <path d="M0.0,296.8 L4.9,297.9 L9.8,298.8 L14.6,299.7 L19.5,300.4 L24.4,301.0 L29.2,301.2 L34.1,301.3 L39.0,301.1 L43.9,300.6 L48.8,300.0 L53.6,299.2 L58.5,298.2 L63.4,297.2 L68.2,296.1 L73.1,295.1 L78.0,294.2 L82.9,293.4 L87.8,292.8 L92.6,292.4 L97.5,292.3 L102.4,292.4 L107.2,292.8 L112.1,293.4 L117.0,294.2 L121.9,295.1 L126.8,296.1 L131.6,297.2 L136.5,298.2 L141.4,299.2 L146.2,300.0 L151.1,300.6 L156.0,301.1 L160.9,301.3 L165.8,301.2 L170.6,301.0 L175.5,300.4 L180.4,299.7 L185.2,298.8 L190.1,297.9 L195.0,296.8 L199.9,295.7 L204.8,294.8 L209.6,293.9 L214.5,293.2 L219.4,292.6 L224.2,292.4 L229.1,292.3 L234.0,292.5 L238.9,293.0 L243.8,293.6 L248.6,294.4 L253.5,295.4 L258.4,296.4 L263.2,297.5 L268.1,298.5 L273.0,299.4 L277.9,300.2 L282.8,300.8 L287.6,301.2 L292.5,301.3 L297.4,301.2 L302.2,300.8 L307.1,300.2 L312.0,299.4 L316.9,298.5 L321.8,297.5 L326.6,296.4 L331.5,295.4 L336.4,294.4 L341.2,293.6 L346.1,293.0 L351.0,292.5 L355.9,292.3 L360.8,292.4 L365.6,292.6 L370.5,293.2 L375.4,293.9 L380.2,294.8 L385.1,295.7 L390.0,296.8" fill="none" stroke="#5a1e1e" stroke-width="0.4" opacity="0.30"/>
  <path d="M0.0,309.4 L4.9,310.2 L9.8,310.7 L14.6,311.0 L19.5,310.9 L24.4,310.6 L29.2,309.9 L34.1,309.1 L39.0,308.2 L43.9,307.2 L48.8,306.3 L53.6,305.6 L58.5,305.2 L63.4,305.0 L68.2,305.1 L73.1,305.6 L78.0,306.2 L82.9,307.1 L87.8,308.1 L92.6,309.0 L97.5,309.9 L102.4,310.5 L107.2,310.9 L112.1,311.0 L117.0,310.8 L121.9,310.3 L126.8,309.5 L131.6,308.7 L136.5,307.7 L141.4,306.8 L146.2,306.0 L151.1,305.4 L156.0,305.0 L160.9,305.0 L165.8,305.3 L170.6,305.9 L175.5,306.7 L180.4,307.6 L185.2,308.6 L190.1,309.5 L195.0,310.2 L199.9,310.7 L204.8,311.0 L209.6,310.9 L214.5,310.6 L219.4,309.9 L224.2,309.1 L229.1,308.2 L234.0,307.2 L238.9,306.3 L243.8,305.6 L248.6,305.2 L253.5,305.0 L258.4,305.1 L263.2,305.6 L268.1,306.3 L273.0,307.1 L277.9,308.1 L282.8,309.0 L287.6,309.9 L292.5,310.5 L297.4,310.9 L302.2,311.0 L307.1,310.8 L312.0,310.3 L316.9,309.5 L321.8,308.6 L326.6,307.7 L331.5,306.7 L336.4,305.9 L341.2,305.4 L346.1,305.0 L351.0,305.0 L355.9,305.3 L360.8,305.9 L365.6,306.7 L370.5,307.6 L375.4,308.6 L380.2,309.5 L385.1,310.2 L390.0,310.8" fill="none" stroke="#3a1414" stroke-width="0.6" opacity="0.48"/>
  <path d="M0.0,308.2 L4.9,309.0 L9.8,309.5 L14.6,309.8 L19.5,309.7 L24.4,309.4 L29.2,308.7 L34.1,307.9 L39.0,307.0 L43.9,306.0 L48.8,305.1 L53.6,304.4 L58.5,304.0 L63.4,303.8 L68.2,303.9 L73.1,304.4 L78.0,305.0 L82.9,305.9 L87.8,306.9 L92.6,307.8 L97.5,308.7 L102.4,309.3 L107.2,309.7 L112.1,309.8 L117.0,309.6 L121.9,309.1 L126.8,308.3 L131.6,307.5 L136.5,306.5 L141.4,305.6 L146.2,304.8 L151.1,304.2 L156.0,303.8 L160.9,303.8 L165.8,304.1 L170.6,304.7 L175.5,305.5 L180.4,306.4 L185.2,307.4 L190.1,308.3 L195.0,309.0 L199.9,309.5 L204.8,309.8 L209.6,309.7 L214.5,309.4 L219.4,308.7 L224.2,307.9 L229.1,307.0 L234.0,306.0 L238.9,305.1 L243.8,304.4 L248.6,304.0 L253.5,303.8 L258.4,303.9 L263.2,304.4 L268.1,305.1 L273.0,305.9 L277.9,306.9 L282.8,307.8 L287.6,308.7 L292.5,309.3 L297.4,309.7 L302.2,309.8 L307.1,309.6 L312.0,309.1 L316.9,308.3 L321.8,307.4 L326.6,306.5 L331.5,305.5 L336.4,304.7 L341.2,304.2 L346.1,303.8 L351.0,303.8 L355.9,304.1 L360.8,304.7 L365.6,305.5 L370.5,306.4 L375.4,307.4 L380.2,308.3 L385.1,309.0 L390.0,309.6" fill="none" stroke="#5a1e1e" stroke-width="0.4" opacity="0.26"/>
  <path d="M0.0,323.1 L4.9,323.4 L9.8,323.5 L14.6,323.4 L19.5,323.1 L24.4,322.6 L29.2,321.9 L34.1,321.1 L39.0,320.2 L43.9,319.2 L48.8,318.1 L53.6,317.1 L58.5,316.1 L63.4,315.1 L68.2,314.3 L73.1,313.6 L78.0,313.0 L82.9,312.7 L87.8,312.5 L92.6,312.5 L97.5,312.8 L102.4,313.2 L107.2,313.8 L112.1,314.5 L117.0,315.4 L121.9,316.4 L126.8,317.4 L131.6,318.5 L136.5,319.5 L141.4,320.5 L146.2,321.4 L151.1,322.1 L156.0,322.8 L160.9,323.2 L165.8,323.4 L170.6,323.5 L175.5,323.3 L180.4,323.0 L185.2,322.5 L190.1,321.8 L195.0,321.0 L199.9,320.0 L204.8,319.0 L209.6,318.0 L214.5,316.9 L219.4,315.9 L224.2,315.0 L229.1,314.2 L234.0,313.5 L238.9,313.0 L243.8,312.6 L248.6,312.5 L253.5,312.6 L258.4,312.8 L263.2,313.3 L268.1,313.9 L273.0,314.7 L277.9,315.6 L282.8,316.6 L287.6,317.6 L292.5,318.7 L297.4,319.7 L302.2,320.7 L307.1,321.5 L312.0,322.3 L316.9,322.8 L321.8,323.3 L326.6,323.5 L331.5,323.5 L336.4,323.3 L341.2,322.9 L346.1,322.4 L351.0,321.6 L355.9,320.8 L360.8,319.8 L365.6,318.8 L370.5,317.8 L375.4,316.7 L380.2,315.7 L385.1,314.8 L390.0,314.0" fill="none" stroke="#3a1414" stroke-width="0.7" opacity="0.42"/>
  <path d="M0.0,321.9 L4.9,322.2 L9.8,322.3 L14.6,322.2 L19.5,321.9 L24.4,321.4 L29.2,320.7 L34.1,319.9 L39.0,319.0 L43.9,318.0 L48.8,316.9 L53.6,315.9 L58.5,314.9 L63.4,313.9 L68.2,313.1 L73.1,312.4 L78.0,311.8 L82.9,311.5 L87.8,311.3 L92.6,311.3 L97.5,311.6 L102.4,312.0 L107.2,312.6 L112.1,313.3 L117.0,314.2 L121.9,315.2 L126.8,316.2 L131.6,317.3 L136.5,318.3 L141.4,319.3 L146.2,320.2 L151.1,320.9 L156.0,321.6 L160.9,322.0 L165.8,322.2 L170.6,322.3 L175.5,322.1 L180.4,321.8 L185.2,321.3 L190.1,320.6 L195.0,319.8 L199.9,318.8 L204.8,317.8 L209.6,316.8 L214.5,315.7 L219.4,314.7 L224.2,313.8 L229.1,313.0 L234.0,312.3 L238.9,311.8 L243.8,311.4 L248.6,311.3 L253.5,311.4 L258.4,311.6 L263.2,312.1 L268.1,312.7 L273.0,313.5 L277.9,314.4 L282.8,315.4 L287.6,316.4 L292.5,317.5 L297.4,318.5 L302.2,319.5 L307.1,320.3 L312.0,321.1 L316.9,321.6 L321.8,322.1 L326.6,322.3 L331.5,322.3 L336.4,322.1 L341.2,321.7 L346.1,321.2 L351.0,320.4 L355.9,319.6 L360.8,318.6 L365.6,317.6 L370.5,316.6 L375.4,315.5 L380.2,314.5 L385.1,313.6 L390.0,312.8" fill="none" stroke="#5a1e1e" stroke-width="0.4" opacity="0.23"/>
  <path d="M0.0,329.8 L4.9,330.3 L9.8,330.5 L14.6,330.3 L19.5,329.8 L24.4,329.0 L29.2,328.1 L34.1,327.2 L39.0,326.3 L43.9,325.8 L48.8,325.5 L53.6,325.6 L58.5,326.1 L63.4,326.8 L68.2,327.7 L73.1,328.6 L78.0,329.5 L82.9,330.1 L87.8,330.5 L92.6,330.4 L97.5,330.1 L102.4,329.4 L107.2,328.5 L112.1,327.5 L117.0,326.7 L121.9,326.0 L126.8,325.6 L131.6,325.5 L136.5,325.8 L141.4,326.5 L146.2,327.3 L151.1,328.3 L156.0,329.2 L160.9,329.9 L165.8,330.4 L170.6,330.5 L175.5,330.3 L180.4,329.7 L185.2,328.9 L190.1,327.9 L195.0,327.0 L199.9,326.2 L204.8,325.7 L209.6,325.5 L214.5,325.7 L219.4,326.2 L224.2,326.9 L229.1,327.9 L234.0,328.8 L238.9,329.6 L243.8,330.2 L248.6,330.5 L253.5,330.4 L258.4,330.0 L263.2,329.2 L268.1,328.3 L273.0,327.4 L277.9,326.5 L282.8,325.9 L287.6,325.5 L292.5,325.6 L297.4,325.9 L302.2,326.6 L307.1,327.5 L312.0,328.4 L316.9,329.3 L321.8,330.0 L326.6,330.4 L331.5,330.5 L336.4,330.2 L341.2,329.6 L346.1,328.7 L351.0,327.8 L355.9,326.9 L360.8,326.1 L365.6,325.6 L370.5,325.5 L375.4,325.7 L380.2,326.3 L385.1,327.1 L390.0,328.0" fill="none" stroke="#3a1414" stroke-width="0.5" opacity="0.36"/>
  <path d="M0.0,328.6 L4.9,329.1 L9.8,329.3 L14.6,329.1 L19.5,328.6 L24.4,327.8 L29.2,326.9 L34.1,326.0 L39.0,325.1 L43.9,324.6 L48.8,324.3 L53.6,324.4 L58.5,324.9 L63.4,325.6 L68.2,326.5 L73.1,327.4 L78.0,328.3 L82.9,328.9 L87.8,329.3 L92.6,329.2 L97.5,328.9 L102.4,328.2 L107.2,327.3 L112.1,326.3 L117.0,325.5 L121.9,324.8 L126.8,324.4 L131.6,324.3 L136.5,324.6 L141.4,325.3 L146.2,326.1 L151.1,327.1 L156.0,328.0 L160.9,328.7 L165.8,329.2 L170.6,329.3 L175.5,329.1 L180.4,328.5 L185.2,327.7 L190.1,326.7 L195.0,325.8 L199.9,325.0 L204.8,324.5 L209.6,324.3 L214.5,324.5 L219.4,325.0 L224.2,325.7 L229.1,326.7 L234.0,327.6 L238.9,328.4 L243.8,329.0 L248.6,329.3 L253.5,329.2 L258.4,328.8 L263.2,328.0 L268.1,327.1 L273.0,326.2 L277.9,325.3 L282.8,324.7 L287.6,324.3 L292.5,324.4 L297.4,324.7 L302.2,325.4 L307.1,326.3 L312.0,327.2 L316.9,328.1 L321.8,328.8 L326.6,329.2 L331.5,329.3 L336.4,329.0 L341.2,328.4 L346.1,327.5 L351.0,326.6 L355.9,325.7 L360.8,324.9 L365.6,324.4 L370.5,324.3 L375.4,324.5 L380.2,325.1 L385.1,325.9 L390.0,326.8" fill="none" stroke="#5a1e1e" stroke-width="0.4" opacity="0.20"/>
  <path d="M0.0,341.5 L4.9,340.8 L9.8,339.9 L14.6,339.0 L19.5,337.9 L24.4,336.9 L29.2,335.9 L34.1,335.1 L39.0,334.5 L43.9,334.1 L48.8,334.0 L53.6,334.2 L58.5,334.7 L63.4,335.4 L68.2,336.2 L73.1,337.3 L78.0,338.3 L82.9,339.4 L87.8,340.3 L92.6,341.1 L97.5,341.6 L102.4,341.9 L107.2,342.0 L112.1,341.7 L117.0,341.2 L121.9,340.5 L126.8,339.6 L131.6,338.5 L136.5,337.5 L141.4,336.4 L146.2,335.5 L151.1,334.8 L156.0,334.3 L160.9,334.0 L165.8,334.1 L170.6,334.4 L175.5,334.9 L180.4,335.7 L185.2,336.6 L190.1,337.7 L195.0,338.7 L199.9,339.8 L204.8,340.6 L209.6,341.3 L214.5,341.8 L219.4,342.0 L224.2,341.9 L229.1,341.5 L234.0,340.9 L238.9,340.1 L243.8,339.1 L248.6,338.1 L253.5,337.0 L258.4,336.1 L263.2,335.2 L268.1,334.5 L273.0,334.1 L277.9,334.0 L282.8,334.1 L287.6,334.6 L292.5,335.2 L297.4,336.1 L302.2,337.1 L307.1,338.1 L312.0,339.2 L316.9,340.1 L321.8,341.0 L326.6,341.6 L331.5,341.9 L336.4,342.0 L341.2,341.8 L346.1,341.3 L351.0,340.6 L355.9,339.7 L360.8,338.7 L365.6,337.7 L370.5,336.6 L375.4,335.7 L380.2,334.9 L385.1,334.3 L390.0,334.0" fill="none" stroke="#3a1414" stroke-width="0.6" opacity="0.3"/>
  <path d="M0.0,340.3 L4.9,339.6 L9.8,338.7 L14.6,337.8 L19.5,336.7 L24.4,335.7 L29.2,334.7 L34.1,333.9 L39.0,333.3 L43.9,332.9 L48.8,332.8 L53.6,333.0 L58.5,333.5 L63.4,334.2 L68.2,335.0 L73.1,336.1 L78.0,337.1 L82.9,338.2 L87.8,339.1 L92.6,339.9 L97.5,340.4 L102.4,340.7 L107.2,340.8 L112.1,340.5 L117.0,340.0 L121.9,339.3 L126.8,338.4 L131.6,337.3 L136.5,336.3 L141.4,335.2 L146.2,334.3 L151.1,333.6 L156.0,333.1 L160.9,332.8 L165.8,332.9 L170.6,333.2 L175.5,333.7 L180.4,334.5 L185.2,335.4 L190.1,336.5 L195.0,337.5 L199.9,338.6 L204.8,339.4 L209.6,340.1 L214.5,340.6 L219.4,340.8 L224.2,340.7 L229.1,340.3 L234.0,339.7 L238.9,338.9 L243.8,337.9 L248.6,336.9 L253.5,335.8 L258.4,334.9 L263.2,334.0 L268.1,333.3 L273.0,332.9 L277.9,332.8 L282.8,332.9 L287.6,333.4 L292.5,334.0 L297.4,334.9 L302.2,335.9 L307.1,336.9 L312.0,338.0 L316.9,338.9 L321.8,339.8 L326.6,340.4 L331.5,340.7 L336.4,340.8 L341.2,340.6 L346.1,340.1 L351.0,339.4 L355.9,338.5 L360.8,337.5 L365.6,336.5 L370.5,335.4 L375.4,334.5 L380.2,333.7 L385.1,333.1 L390.0,332.8" fill="none" stroke="#5a1e1e" stroke-width="0.4" opacity="0.17"/>
  <path d="M0.0,351.5 L4.9,351.4 L9.8,351.0 L14.6,350.3 L19.5,349.4 L24.4,348.4 L29.2,347.3 L34.1,346.3 L39.0,345.5 L43.9,344.9 L48.8,344.5 L53.6,344.5 L58.5,344.9 L63.4,345.5 L68.2,346.3 L73.1,347.3 L78.0,348.4 L82.9,349.4 L87.8,350.3 L92.6,351.0 L97.5,351.4 L102.4,351.5 L107.2,351.2 L112.1,350.7 L117.0,349.9 L121.9,348.9 L126.8,347.9 L131.6,346.8 L136.5,345.9 L141.4,345.1 L146.2,344.7 L151.1,344.5 L156.0,344.7 L160.9,345.1 L165.8,345.9 L170.6,346.8 L175.5,347.9 L180.4,348.9 L185.2,349.9 L190.1,350.7 L195.0,351.2 L199.9,351.5 L204.8,351.4 L209.6,351.0 L214.5,350.3 L219.4,349.4 L224.2,348.4 L229.1,347.3 L234.0,346.3 L238.9,345.5 L243.8,344.9 L248.6,344.5 L253.5,344.5 L258.4,344.9 L263.2,345.5 L268.1,346.3 L273.0,347.3 L277.9,348.4 L282.8,349.4 L287.6,350.3 L292.5,351.0 L297.4,351.4 L302.2,351.5 L307.1,351.3 L312.0,350.7 L316.9,349.9 L321.8,349.0 L326.6,347.9 L331.5,346.8 L336.4,345.9 L341.2,345.2 L346.1,344.7 L351.0,344.5 L355.9,344.7 L360.8,345.1 L365.6,345.9 L370.5,346.8 L375.4,347.8 L380.2,348.9 L385.1,349.9 L390.0,350.7" fill="none" stroke="#3a1414" stroke-width="0.5" opacity="0.24"/>
  <path d="M0.0,358.6 L4.9,359.2 L9.8,359.7 L14.6,360.0 L19.5,360.0 L24.4,359.7 L29.2,359.3 L34.1,358.6 L39.0,357.9 L43.9,357.2 L48.8,356.6 L53.6,356.2 L58.5,356.0 L63.4,356.1 L68.2,356.4 L73.1,356.9 L78.0,357.6 L82.9,358.3 L87.8,359.0 L92.6,359.5 L97.5,359.9 L102.4,360.0 L107.2,359.9 L112.1,359.5 L117.0,358.9 L121.9,358.2 L126.8,357.5 L131.6,356.9 L136.5,356.4 L141.4,356.1 L146.2,356.0 L151.1,356.2 L156.0,356.7 L160.9,357.3 L165.8,358.0 L170.6,358.7 L175.5,359.3 L180.4,359.8 L185.2,360.0 L190.1,360.0 L195.0,359.7 L199.9,359.2 L204.8,358.5 L209.6,357.8 L214.5,357.1 L219.4,356.6 L224.2,356.2 L229.1,356.0 L234.0,356.1 L238.9,356.4 L243.8,357.0 L248.6,357.7 L253.5,358.4 L258.4,359.0 L263.2,359.6 L268.1,359.9 L273.0,360.0 L277.9,359.8 L282.8,359.4 L287.6,358.8 L292.5,358.1 L297.4,357.4 L302.2,356.8 L307.1,356.3 L312.0,356.0 L316.9,356.0 L321.8,356.3 L326.6,356.7 L331.5,357.4 L336.4,358.1 L341.2,358.8 L346.1,359.4 L351.0,359.8 L355.9,360.0 L360.8,359.9 L365.6,359.6 L370.5,359.1 L375.4,358.4 L380.2,357.7 L385.1,357.1 L390.0,356.5" fill="none" stroke="#3a1414" stroke-width="0.5" opacity="0.18"/>
  <path d="M0.0,369.5 L4.9,368.6 L9.8,367.6 L14.6,366.6 L19.5,365.7 L24.4,364.9 L29.2,364.3 L34.1,363.8 L39.0,363.6 L43.9,363.5 L48.8,363.7 L53.6,364.0 L58.5,364.6 L63.4,365.3 L68.2,366.2 L73.1,367.1 L78.0,368.1 L82.9,369.1 L87.8,370.0 L92.6,370.8 L97.5,371.5 L102.4,372.0 L107.2,372.4 L112.1,372.5 L117.0,372.4 L121.9,372.1 L126.8,371.6 L131.6,371.0 L136.5,370.2 L141.4,369.2 L146.2,368.3 L151.1,367.3 L156.0,366.3 L160.9,365.5 L165.8,364.7 L170.6,364.1 L175.5,363.7 L180.4,363.5 L185.2,363.5 L190.1,363.8 L195.0,364.2 L199.9,364.8 L204.8,365.5 L209.6,366.4 L214.5,367.4 L219.4,368.4 L224.2,369.3 L229.1,370.2 L234.0,371.0 L238.9,371.7 L243.8,372.1 L248.6,372.4 L253.5,372.5 L258.4,372.4 L263.2,372.0 L268.1,371.5 L273.0,370.7 L277.9,369.9 L282.8,369.0 L287.6,368.0 L292.5,367.0 L297.4,366.1 L302.2,365.3 L307.1,364.5 L312.0,364.0 L316.9,363.6 L321.8,363.5 L326.6,363.6 L331.5,363.9 L336.4,364.3 L341.2,365.0 L346.1,365.8 L351.0,366.7 L355.9,367.6 L360.8,368.6 L365.6,369.6 L370.5,370.5 L375.4,371.2 L380.2,371.8 L385.1,372.2 L390.0,372.5" fill="none" stroke="#3a1414" stroke-width="0.5" opacity="0.14"/>
  <path d="M0.0,379.3 L4.9,379.5 L9.8,379.4 L14.6,379.1 L19.5,378.6 L24.4,377.9 L29.2,377.3 L34.1,376.8 L39.0,376.5 L43.9,376.5 L48.8,376.8 L53.6,377.3 L58.5,378.0 L63.4,378.6 L68.2,379.1 L73.1,379.4 L78.0,379.5 L82.9,379.3 L87.8,378.8 L92.6,378.2 L97.5,377.5 L102.4,377.0 L107.2,376.6 L112.1,376.5 L117.0,376.7 L121.9,377.1 L126.8,377.7 L131.6,378.4 L136.5,378.9 L141.4,379.4 L146.2,379.5 L151.1,379.4 L156.0,379.0 L160.9,378.4 L165.8,377.7 L170.6,377.1 L175.5,376.7 L180.4,376.5 L185.2,376.6 L190.1,376.9 L195.0,377.5 L199.9,378.1 L204.8,378.8 L209.6,379.2 L214.5,379.5 L219.4,379.4 L224.2,379.1 L229.1,378.6 L234.0,378.0 L238.9,377.3 L243.8,376.8 L248.6,376.5 L253.5,376.5 L258.4,376.8 L263.2,377.3 L268.1,377.9 L273.0,378.5 L277.9,379.1 L282.8,379.4 L287.6,379.5 L292.5,379.3 L297.4,378.8 L302.2,378.2 L307.1,377.6 L312.0,377.0 L316.9,376.6 L321.8,376.5 L326.6,376.7 L331.5,377.1 L336.4,377.7 L341.2,378.3 L346.1,378.9 L351.0,379.3 L355.9,379.5 L360.8,379.4 L365.6,379.0 L370.5,378.4 L375.4,377.8 L380.2,377.2 L385.1,376.7 L390.0,376.5" fill="none" stroke="#3a1414" stroke-width="0.4" opacity="0.1"/>
  <g stroke="#555555" stroke-width="0.6" fill="none" opacity="0.28">
    <path d="M18,0 L18,380 M372,0 L372,380"/>
  </g>
  <g stroke="#d4001a" stroke-width="1.0" opacity="0.35">
    <line x1="6" y1="0" x2="6" y2="380" stroke-dasharray="3,5"/>
    <line x1="384" y1="0" x2="384" y2="380" stroke-dasharray="3,5"/>
  </g>
  <g stroke="#d4001a" stroke-width="1.0" opacity="0.55">
    <line x1="3.0" y1="20" x2="9.0" y2="20"/>
    <line x1="381.0" y1="20" x2="387.0" y2="20"/>
    <line x1="3.0" y1="360" x2="9.0" y2="360"/>
    <line x1="381.0" y1="360" x2="387.0" y2="360"/>
  </g>
  <g stroke="#666666" stroke-width="0.5" fill="none" opacity="0.42">
    <polygon points="48.0,62.0 53.0,67.0 48.0,72.0 43.0,67.0" />
    <circle cx="48.0" cy="67.0" r="1.2" fill="#666666" stroke="none" opacity="0.50"/>
    <polygon points="102.0,62.0 107.0,67.0 102.0,72.0 97.0,67.0" />
    <circle cx="102.0" cy="67.0" r="1.2" fill="#666666" stroke="none" opacity="0.50"/>
    <polygon points="168.0,62.0 173.0,67.0 168.0,72.0 163.0,67.0" />
    <circle cx="168.0" cy="67.0" r="1.2" fill="#666666" stroke="none" opacity="0.50"/>
    <polygon points="234.0,62.0 239.0,67.0 234.0,72.0 229.0,67.0" />
    <circle cx="234.0" cy="67.0" r="1.2" fill="#666666" stroke="none" opacity="0.50"/>
    <polygon points="288.0,62.0 293.0,67.0 288.0,72.0 283.0,67.0" />
    <circle cx="288.0" cy="67.0" r="1.2" fill="#666666" stroke="none" opacity="0.50"/>
    <polygon points="342.0,62.0 347.0,67.0 342.0,72.0 337.0,67.0" />
    <circle cx="342.0" cy="67.0" r="1.2" fill="#666666" stroke="none" opacity="0.50"/>
    <polygon points="48.0,97.0 53.0,102.0 48.0,107.0 43.0,102.0" />
    <circle cx="48.0" cy="102.0" r="1.2" fill="#666666" stroke="none" opacity="0.50"/>
    <polygon points="102.0,97.0 107.0,102.0 102.0,107.0 97.0,102.0" />
    <circle cx="102.0" cy="102.0" r="1.2" fill="#666666" stroke="none" opacity="0.50"/>
    <polygon points="168.0,97.0 173.0,102.0 168.0,107.0 163.0,102.0" />
    <circle cx="168.0" cy="102.0" r="1.2" fill="#666666" stroke="none" opacity="0.50"/>
    <polygon points="234.0,97.0 239.0,102.0 234.0,107.0 229.0,102.0" />
    <circle cx="234.0" cy="102.0" r="1.2" fill="#666666" stroke="none" opacity="0.50"/>
    <polygon points="288.0,97.0 293.0,102.0 288.0,107.0 283.0,102.0" />
    <circle cx="288.0" cy="102.0" r="1.2" fill="#666666" stroke="none" opacity="0.50"/>
    <polygon points="342.0,97.0 347.0,102.0 342.0,107.0 337.0,102.0" />
    <circle cx="342.0" cy="102.0" r="1.2" fill="#666666" stroke="none" opacity="0.50"/>
    <polygon points="48.0,132.0 53.0,137.0 48.0,142.0 43.0,137.0" />
    <circle cx="48.0" cy="137.0" r="1.2" fill="#666666" stroke="none" opacity="0.50"/>
    <polygon points="102.0,132.0 107.0,137.0 102.0,142.0 97.0,137.0" />
    <circle cx="102.0" cy="137.0" r="1.2" fill="#666666" stroke="none" opacity="0.50"/>
    <polygon points="168.0,132.0 173.0,137.0 168.0,142.0 163.0,137.0" />
    <circle cx="168.0" cy="137.0" r="1.2" fill="#666666" stroke="none" opacity="0.50"/>
    <polygon points="234.0,132.0 239.0,137.0 234.0,142.0 229.0,137.0" />
    <circle cx="234.0" cy="137.0" r="1.2" fill="#666666" stroke="none" opacity="0.50"/>
    <polygon points="288.0,132.0 293.0,137.0 288.0,142.0 283.0,137.0" />
    <circle cx="288.0" cy="137.0" r="1.2" fill="#666666" stroke="none" opacity="0.50"/>
    <polygon points="342.0,132.0 347.0,137.0 342.0,142.0 337.0,137.0" />
    <circle cx="342.0" cy="137.0" r="1.2" fill="#666666" stroke="none" opacity="0.50"/>
    <polygon points="48.0,167.0 53.0,172.0 48.0,177.0 43.0,172.0" />
    <circle cx="48.0" cy="172.0" r="1.2" fill="#666666" stroke="none" opacity="0.50"/>
    <polygon points="102.0,167.0 107.0,172.0 102.0,177.0 97.0,172.0" />
    <circle cx="102.0" cy="172.0" r="1.2" fill="#666666" stroke="none" opacity="0.50"/>
    <polygon points="168.0,167.0 173.0,172.0 168.0,177.0 163.0,172.0" />
    <circle cx="168.0" cy="172.0" r="1.2" fill="#666666" stroke="none" opacity="0.50"/>
    <polygon points="234.0,167.0 239.0,172.0 234.0,177.0 229.0,172.0" />
    <circle cx="234.0" cy="172.0" r="1.2" fill="#666666" stroke="none" opacity="0.50"/>
    <polygon points="288.0,167.0 293.0,172.0 288.0,177.0 283.0,172.0" />
    <circle cx="288.0" cy="172.0" r="1.2" fill="#666666" stroke="none" opacity="0.50"/>
    <polygon points="342.0,167.0 347.0,172.0 342.0,177.0 337.0,172.0" />
    <circle cx="342.0" cy="172.0" r="1.2" fill="#666666" stroke="none" opacity="0.50"/>
    <polygon points="48.0,202.0 53.0,207.0 48.0,212.0 43.0,207.0" />
    <circle cx="48.0" cy="207.0" r="1.2" fill="#666666" stroke="none" opacity="0.50"/>
    <polygon points="102.0,202.0 107.0,207.0 102.0,212.0 97.0,207.0" />
    <circle cx="102.0" cy="207.0" r="1.2" fill="#666666" stroke="none" opacity="0.50"/>
    <polygon points="168.0,202.0 173.0,207.0 168.0,212.0 163.0,207.0" />
    <circle cx="168.0" cy="207.0" r="1.2" fill="#666666" stroke="none" opacity="0.50"/>
    <polygon points="234.0,202.0 239.0,207.0 234.0,212.0 229.0,207.0" />
    <circle cx="234.0" cy="207.0" r="1.2" fill="#666666" stroke="none" opacity="0.50"/>
    <polygon points="288.0,202.0 293.0,207.0 288.0,212.0 283.0,207.0" />
    <circle cx="288.0" cy="207.0" r="1.2" fill="#666666" stroke="none" opacity="0.50"/>
    <polygon points="342.0,202.0 347.0,207.0 342.0,212.0 337.0,207.0" />
    <circle cx="342.0" cy="207.0" r="1.2" fill="#666666" stroke="none" opacity="0.50"/>
    <polygon points="48.0,237.0 53.0,242.0 48.0,247.0 43.0,242.0" />
    <circle cx="48.0" cy="242.0" r="1.2" fill="#666666" stroke="none" opacity="0.50"/>
    <polygon points="102.0,237.0 107.0,242.0 102.0,247.0 97.0,242.0" />
    <circle cx="102.0" cy="242.0" r="1.2" fill="#666666" stroke="none" opacity="0.50"/>
    <polygon points="168.0,237.0 173.0,242.0 168.0,247.0 163.0,242.0" />
    <circle cx="168.0" cy="242.0" r="1.2" fill="#666666" stroke="none" opacity="0.50"/>
    <polygon points="234.0,237.0 239.0,242.0 234.0,247.0 229.0,242.0" />
    <circle cx="234.0" cy="242.0" r="1.2" fill="#666666" stroke="none" opacity="0.50"/>
    <polygon points="288.0,237.0 293.0,242.0 288.0,247.0 283.0,242.0" />
    <circle cx="288.0" cy="242.0" r="1.2" fill="#666666" stroke="none" opacity="0.50"/>
    <polygon points="342.0,237.0 347.0,242.0 342.0,247.0 337.0,242.0" />
    <circle cx="342.0" cy="242.0" r="1.2" fill="#666666" stroke="none" opacity="0.50"/>
    <polygon points="48.0,272.0 53.0,277.0 48.0,282.0 43.0,277.0" />
    <circle cx="48.0" cy="277.0" r="1.2" fill="#666666" stroke="none" opacity="0.50"/>
    <polygon points="102.0,272.0 107.0,277.0 102.0,282.0 97.0,277.0" />
    <circle cx="102.0" cy="277.0" r="1.2" fill="#666666" stroke="none" opacity="0.50"/>
    <polygon points="168.0,272.0 173.0,277.0 168.0,282.0 163.0,277.0" />
    <circle cx="168.0" cy="277.0" r="1.2" fill="#666666" stroke="none" opacity="0.50"/>
    <polygon points="234.0,272.0 239.0,277.0 234.0,282.0 229.0,277.0" />
    <circle cx="234.0" cy="277.0" r="1.2" fill="#666666" stroke="none" opacity="0.50"/>
    <polygon points="288.0,272.0 293.0,277.0 288.0,282.0 283.0,277.0" />
    <circle cx="288.0" cy="277.0" r="1.2" fill="#666666" stroke="none" opacity="0.50"/>
    <polygon points="342.0,272.0 347.0,277.0 342.0,282.0 337.0,277.0" />
    <circle cx="342.0" cy="277.0" r="1.2" fill="#666666" stroke="none" opacity="0.50"/>
    <polygon points="48.0,307.0 53.0,312.0 48.0,317.0 43.0,312.0" />
    <circle cx="48.0" cy="312.0" r="1.2" fill="#666666" stroke="none" opacity="0.50"/>
    <polygon points="102.0,307.0 107.0,312.0 102.0,317.0 97.0,312.0" />
    <circle cx="102.0" cy="312.0" r="1.2" fill="#666666" stroke="none" opacity="0.50"/>
    <polygon points="168.0,307.0 173.0,312.0 168.0,317.0 163.0,312.0" />
    <circle cx="168.0" cy="312.0" r="1.2" fill="#666666" stroke="none" opacity="0.50"/>
    <polygon points="234.0,307.0 239.0,312.0 234.0,317.0 229.0,312.0" />
    <circle cx="234.0" cy="312.0" r="1.2" fill="#666666" stroke="none" opacity="0.50"/>
    <polygon points="288.0,307.0 293.0,312.0 288.0,317.0 283.0,312.0" />
    <circle cx="288.0" cy="312.0" r="1.2" fill="#666666" stroke="none" opacity="0.50"/>
    <polygon points="342.0,307.0 347.0,312.0 342.0,317.0 337.0,312.0" />
    <circle cx="342.0" cy="312.0" r="1.2" fill="#666666" stroke="none" opacity="0.50"/>
  </g>
  <g fill="none" stroke-width="1.0">
    <g stroke="#888888">
      <circle cx="48" cy="50" r="9"/>
      <circle cx="234" cy="50" r="9"/>
      <circle cx="288" cy="50" r="9"/>
      <circle cx="342" cy="50" r="9"/>
      <circle cx="48" cy="85" r="9"/>
      <circle cx="234" cy="85" r="9"/>
      <circle cx="288" cy="85" r="9"/>
      <circle cx="342" cy="85" r="9"/>
      <circle cx="48" cy="120" r="9"/>
      <circle cx="234" cy="120" r="9"/>
      <circle cx="288" cy="120" r="9"/>
      <circle cx="342" cy="120" r="9"/>
      <circle cx="48" cy="155" r="9"/>
      <circle cx="234" cy="155" r="9"/>
      <circle cx="288" cy="155" r="9"/>
      <circle cx="342" cy="155" r="9"/>
      <circle cx="48" cy="190" r="9"/>
      <circle cx="234" cy="190" r="9"/>
      <circle cx="288" cy="190" r="9"/>
      <circle cx="342" cy="190" r="9"/>
      <circle cx="48" cy="225" r="9"/>
      <circle cx="234" cy="225" r="9"/>
      <circle cx="288" cy="225" r="9"/>
      <circle cx="342" cy="225" r="9"/>
      <circle cx="48" cy="260" r="9"/>
      <circle cx="234" cy="260" r="9"/>
      <circle cx="288" cy="260" r="9"/>
      <circle cx="342" cy="260" r="9"/>
      <circle cx="48" cy="295" r="9"/>
      <circle cx="234" cy="295" r="9"/>
      <circle cx="288" cy="295" r="9"/>
      <circle cx="342" cy="295" r="9"/>
      <circle cx="48" cy="330" r="9"/>
      <circle cx="234" cy="330" r="9"/>
      <circle cx="288" cy="330" r="9"/>
      <circle cx="342" cy="330" r="9"/>
    </g>
    <g stroke="#d4af37">
      <circle cx="102" cy="50" r="9"/>
      <circle cx="168" cy="50" r="9"/>
      <circle cx="102" cy="85" r="9"/>
      <circle cx="168" cy="85" r="9"/>
      <circle cx="102" cy="120" r="9"/>
      <circle cx="168" cy="120" r="9"/>
      <circle cx="102" cy="155" r="9"/>
      <circle cx="168" cy="155" r="9"/>
      <circle cx="102" cy="190" r="9"/>
      <circle cx="168" cy="190" r="9"/>
      <circle cx="102" cy="225" r="9"/>
      <circle cx="168" cy="225" r="9"/>
      <circle cx="102" cy="260" r="9"/>
      <circle cx="168" cy="260" r="9"/>
      <circle cx="102" cy="295" r="9"/>
      <circle cx="168" cy="295" r="9"/>
      <circle cx="102" cy="330" r="9"/>
      <circle cx="168" cy="330" r="9"/>
    </g>
  </g>
  <circle cx="380.0" cy="10" r="5" fill="#d4001a"/>
</svg>