<svg xmlns="http://www.w3.org/2000/svg" xmlns:inkscape="http://www.inkscape.org/namespaces/inkscape" width="630.0" height="379.43" viewBox="0 0 630.0 379.43">
<g inkscape:label="artwork" inkscape:groupmode="layer">
<rect width="630.0" height="379.43" fill="#16181c"/>
<line x1="0" y1="32.5" x2="630.0" y2="32.5" stroke="#dc2626" stroke-width="1.5" opacity="0.55"/>
<line x1="0" y1="354.3" x2="630.0" y2="354.3" stroke="#262b33" stroke-width="1" opacity="0.7"/>
<rect x="259.8" y="50.2" width="327.8" height="14.8" rx="3.0" fill="#202833" opacity="0.6"/>
<rect x="259.8" y="67.9" width="327.8" height="141.7" rx="4.4" fill="#101216" stroke="#2a2f37" stroke-width="1"/>
<path d="M 385.1 291.3 Q 399.1 263.7 404.7 205.9 L 408.8 205.9 Q 401.9 263.7 396.3 291.3 Z" fill="#2e333c" fill-opacity="0.16"/><path d="M 421.4 291.3 Q 435.4 263.7 441.0 205.9 L 445.1 205.9 Q 438.2 263.7 432.6 291.3 Z" fill="#2e333c" fill-opacity="0.16"/><path d="M 457.7 291.3 Q 471.7 263.7 477.3 205.9 L 481.4 205.9 Q 474.5 263.7 468.9 291.3 Z" fill="#2e333c" fill-opacity="0.16"/><polygon points="407.5,291.3 411.6,205.9 418.6,205.9 418.6,291.3" fill="#2e333c" fill-opacity="0.16"/><polygon points="443.7,291.3 447.9,205.9 454.9,205.9 454.9,291.3" fill="#2e333c" fill-opacity="0.16"/><polygon points="480.0,291.3 484.2,205.9 491.2,205.9 491.2,291.3" fill="#2e333c" fill-opacity="0.16"/><line x1="407.5" y1="221.3" x2="418.6" y2="221.3" stroke="#dc2626" stroke-width="0.4" stroke-opacity="0.048"/><line x1="407.5" y1="234.9" x2="418.6" y2="234.9" stroke="#dc2626" stroke-width="0.4" stroke-opacity="0.048"/><line x1="407.5" y1="248.6" x2="418.6" y2="248.6" stroke="#dc2626" stroke-width="0.4" stroke-opacity="0.048"/><line x1="407.5" y1="262.2" x2="418.6" y2="262.2" stroke="#dc2626" stroke-width="0.4" stroke-opacity="0.048"/><line x1="407.5" y1="275.9" x2="418.6" y2="275.9" stroke="#dc2626" stroke-width="0.4" stroke-opacity="0.048"/><line x1="443.7" y1="221.3" x2="454.9" y2="221.3" stroke="#dc2626" stroke-width="0.4" stroke-opacity="0.048"/><line x1="443.7" y1="234.9" x2="454.9" y2="234.9" stroke="#dc2626" stroke-width="0.4" stroke-opacity="0.048"/><line x1="443.7" y1="248.6" x2="454.9" y2="248.6" stroke="#dc2626" stroke-width="0.4" stroke-opacity="0.048"/><line x1="443.7" y1="262.2" x2="454.9" y2="262.2" stroke="#dc2626" stroke-width="0.4" stroke-opacity="0.048"/><line x1="443.7" y1="275.9" x2="454.9" y2="275.9" stroke="#dc2626" stroke-width="0.4" stroke-opacity="0.048"/><line x1="480.0" y1="221.3" x2="491.2" y2="221.3" stroke="#dc2626" stroke-width="0.4" stroke-opacity="0.048"/><line x1="480.0" y1="234.9" x2="491.2" y2="234.9" stroke="#dc2626" stroke-width="0.4" stroke-opacity="0.048"/><line x1="480.0" y1="248.6" x2="491.2" y2="248.6" stroke="#dc2626" stroke-width="0.4" stroke-opacity="0.048"/><line x1="480.0" y1="262.2" x2="491.2" y2="262.2" stroke="#dc2626" stroke-width="0.4" stroke-opacity="0.048"/><line x1="480.0" y1="275.9" x2="491.2" y2="275.9" stroke="#dc2626" stroke-width="0.4" stroke-opacity="0.048"/><path d="M 351.6 194.9 Q 428.4 197.6 502.4 194.9 C 505.2 194.9 505.2 205.9 499.6 205.9 L 404.7 205.9 Q 371.2 205.9 351.6 194.9 Z" fill="#2e333c" fill-opacity="0.16"/><path d="M 351.6 194.9 Q 428.4 197.6 502.4 194.9" fill="none" stroke="#d8d8dc" stroke-width="0.8" stroke-opacity="0.112" stroke-linecap="round"/><line x1="365.6" y1="291.3" x2="346.0" y2="261.0" stroke="#d8d8dc" stroke-width="0.5" stroke-opacity="0.072" stroke-linecap="round"/><line x1="365.6" y1="291.3" x2="354.4" y2="252.7" stroke="#d8d8dc" stroke-width="0.5" stroke-opacity="0.072" stroke-linecap="round"/><line x1="365.6" y1="291.3" x2="365.6" y2="247.2" stroke="#d8d8dc" stroke-width="0.5" stroke-opacity="0.072" stroke-linecap="round"/><line x1="365.6" y1="291.3" x2="376.7" y2="255.5" stroke="#d8d8dc" stroke-width="0.5" stroke-opacity="0.072" stroke-linecap="round"/><line x1="365.6" y1="291.3" x2="385.1" y2="263.7" stroke="#d8d8dc" stroke-width="0.5" stroke-opacity="0.072" stroke-linecap="round"/>
<line x1="262.8" y1="103.3" x2="584.6" y2="103.3" stroke="#2a2f37" stroke-width="0.75" opacity="0.7"/>
<line x1="262.8" y1="138.8" x2="584.6" y2="138.8" stroke="#2a2f37" stroke-width="0.75" opacity="0.7"/>
<line x1="262.8" y1="174.2" x2="584.6" y2="174.2" stroke="#2a2f37" stroke-width="0.75" opacity="0.7"/>
<path d="M 259.8 330.7 C 270.1 326.0 290.6 326.0 300.8 330.7 C 311.1 335.4 331.5 335.4 341.8 330.7 C 352.0 326.0 372.5 326.0 382.8 330.7 C 393.0 335.4 413.5 335.4 423.7 330.7 C 434.0 326.0 454.4 326.0 464.7 330.7 C 474.9 335.4 495.4 335.4 505.7 330.7 C 515.9 326.0 536.4 326.0 546.6 330.7 C 556.9 335.4 577.4 335.4 587.6 330.7 " fill="none" stroke="#333944" stroke-width="1.5" stroke-opacity="0.6"/><path d="M 259.8 340.2 C 270.1 335.4 290.6 335.4 300.8 340.2 C 311.1 344.9 331.5 344.9 341.8 340.2 C 352.0 335.4 372.5 335.4 382.8 340.2 C 393.0 344.9 413.5 344.9 423.7 340.2 C 434.0 335.4 454.4 335.4 464.7 340.2 C 474.9 344.9 495.4 344.9 505.7 340.2 C 515.9 335.4 536.4 335.4 546.6 340.2 C 556.9 344.9 577.4 344.9 587.6 340.2 " fill="none" stroke="#333944" stroke-width="1.5" stroke-opacity="0.6"/><path d="M 259.8 349.6 C 270.1 344.9 290.6 344.9 300.8 349.6 C 311.1 354.3 331.5 354.3 341.8 349.6 C 352.0 344.9 372.5 344.9 382.8 349.6 C 393.0 354.3 413.5 354.3 423.7 349.6 C 434.0 344.9 454.4 344.9 464.7 349.6 C 474.9 354.3 495.4 354.3 505.7 349.6 C 515.9 344.9 536.4 344.9 546.6 349.6 C 556.9 354.3 577.4 354.3 587.6 349.6 " fill="none" stroke="#333944" stroke-width="1.5" stroke-opacity="0.6"/>
<path d="M 469.2 369.1 Q 483.5 357.3 489.1 332.5 L 493.4 332.5 Q 486.3 357.3 480.6 369.1 Z" fill="#2e333c" fill-opacity="0.85"/><path d="M 506.2 369.1 Q 520.4 357.3 526.1 332.5 L 530.4 332.5 Q 523.3 357.3 517.6 369.1 Z" fill="#2e333c" fill-opacity="0.85"/><path d="M 543.2 369.1 Q 557.4 357.3 563.1 332.5 L 567.3 332.5 Q 560.2 357.3 554.5 369.1 Z" fill="#2e333c" fill-opacity="0.85"/><polygon points="492.0,369.1 496.3,332.5 503.4,332.5 503.4,369.1" fill="#2e333c" fill-opacity="0.85"/><polygon points="529.0,369.1 533.2,332.5 540.3,332.5 540.3,369.1" fill="#2e333c" fill-opacity="0.85"/><polygon points="565.9,369.1 570.2,332.5 577.3,332.5 577.3,369.1" fill="#2e333c" fill-opacity="0.85"/><path d="M 435.1 327.8 Q 513.3 328.9 588.7 327.8 C 591.5 327.8 591.5 332.5 585.8 332.5 L 489.1 332.5 Q 455.0 332.5 435.1 327.8 Z" fill="#2e333c" fill-opacity="0.85"/><path d="M 435.1 327.8 Q 513.3 328.9 588.7 327.8" fill="none" stroke="#d8d8dc" stroke-width="0.8" stroke-opacity="0.595" stroke-linecap="round"/>
<rect x="11.8" y="29.5" width="242.1" height="295.3" rx="5.9" fill="#13151a" stroke="#262b33" stroke-width="1"/>
<line x1="112.2" y1="35.4" x2="112.2" y2="318.9" stroke="#262b33" stroke-width="0.75" opacity="0.6"/>
</g>
<g inkscape:label="branding" inkscape:groupmode="layer">
<g transform="translate(32.48,13.29) scale(0.17297)"><g transform="translate(40.00,148.00) scale(0.11000,-0.11000)"><path d="M370 700H528Q535 700 539.0 696.0Q543 692 543 685V15Q543 8 539.0 4.0Q535 0 528 0H370Q363 0 359.0 4.0Q355 8 355 15V45Q355 48 353.0 49.0Q351 50 349 47Q312 -8 233 -8Q166 -8 112.5 34.5Q59 77 37 150Q22 200 22 262Q22 334 44 390Q68 451 119.0 489.5Q170 528 241 528Q314 528 349 482Q351 480 353.0 480.5Q355 481 355 484V685Q355 692 359.0 696.0Q363 700 370 700ZM355 259Q355 307 339 336Q321 367 287 367Q251 367 234 334Q219 306 219 259Q219 214 234 186Q252 153 287 153Q322 153 340 187Q355 216 355 259Z" fill="#f0ede8"/></g>
<g transform="translate(201.37,148.00) scale(0.11000,-0.11000)"><path d="M358 370H275Q270 370 270 365V208Q270 158 306 158H343Q350 158 354.0 154.0Q358 150 358 143V15Q358 1 343 -1Q304 -4 268 -4Q177 -4 134.0 24.0Q91 52 90 130V365Q90 370 85 370H31Q24 370 20.0 374.0Q16 378 16 385V505Q16 512 20.0 516.0Q24 520 31 520H85Q90 520 90 525V645Q90 652 94.0 656.0Q98 660 105 660H255Q262 660 266.0 656.0Q270 652 270 645V525Q270 520 275 520H358Q365 520 369.0 516.0Q373 512 373 505V385Q373 378 369.0 374.0Q365 370 358 370Z" fill="#f0ede8"/></g>
<g transform="translate(288.27,148.00) scale(0.11000,-0.11000)"><path d="M815 341V15Q815 8 811.0 4.0Q807 0 800 0H642Q635 0 631.0 4.0Q627 8 627 15V300Q627 330 612.5 348.5Q598 367 575 367Q551 367 536.0 348.5Q521 330 521 300V15Q521 8 517.0 4.0Q513 0 506 0H348Q341 0 337.0 4.0Q333 8 333 15V300Q333 330 317.5 348.5Q302 367 277 367Q255 367 240.5 353.5Q226 340 222 317Q221 315 221 311V15Q221 8 217.0 4.0Q213 0 206 0H48Q41 0 37.0 4.0Q33 8 33 15V505Q33 512 37.0 516.0Q41 520 48 520H206Q213 520 217.0 516.0Q221 512 221 505V455Q221 451 223.0 451.0Q225 451 227 454Q265 528 355 528Q406 528 444.5 504.5Q483 481 503 437Q506 432 509 438Q529 483 564.5 505.5Q600 528 648 528Q727 528 771.0 479.0Q815 430 815 341Z" fill="#f0ede8"/></g><g transform="translate(377.92,148.00) scale(0.11000,-0.11000)"><path d="M32 181Q22 217 22 261Q22 310 34 350Q58 433 122.5 480.5Q187 528 280 528Q373 528 436.5 480.5Q500 433 524 352Q536 310 536 263Q536 225 528 187Q507 97 441.5 44.5Q376 -8 279 -8Q184 -8 118.5 43.0Q53 94 32 181ZM343 217Q347 236 347 262Q347 285 342 308Q327 367 279 367Q229 367 216 308Q211 291 211 262Q211 236 215 217Q230 153 279 153Q305 153 321.0 170.5Q337 188 343 217Z" fill="#f0ede8"/></g><g transform="translate(436.00,148.00) scale(0.11000,-0.11000)"><path d="M370 700H528Q535 700 539.0 696.0Q543 692 543 685V15Q543 8 539.0 4.0Q535 0 528 0H370Q363 0 359.0 4.0Q355 8 355 15V45Q355 48 353.0 49.0Q351 50 349 47Q312 -8 233 -8Q166 -8 112.5 34.5Q59 77 37 150Q22 200 22 262Q22 334 44 390Q68 451 119.0 489.5Q170 528 241 528Q314 528 349 482Q351 480 353.0 480.5Q355 481 355 484V685Q355 692 359.0 696.0Q363 700 370 700ZM355 259Q355 307 339 336Q321 367 287 367Q251 367 234 334Q219 306 219 259Q219 214 234 186Q252 153 287 153Q322 153 340 187Q355 216 355 259Z" fill="#f0ede8"/></g><g transform="translate(496.39,148.00) scale(0.11000,-0.11000)"><path d="M346 520H504Q511 520 515.0 516.0Q519 512 519 505V15Q519 8 515.0 4.0Q511 0 504 0H346Q339 0 335.0 4.0Q331 8 331 15V48Q331 51 329.0 52.0Q327 53 325 50Q284 -8 197 -8Q121 -8 76.0 41.5Q31 91 31 179V505Q31 512 35.0 516.0Q39 520 46 520H204Q211 520 215.0 516.0Q219 512 219 505V220Q219 190 234.5 171.5Q250 153 275 153Q297 153 311.5 166.5Q326 180 330 203Q331 205 331 209V505Q331 512 335.0 516.0Q339 520 346 520Z" fill="#f0ede8"/></g><g transform="translate(553.81,148.00) scale(0.11000,-0.11000)"><path d="M33 15V685Q33 692 37.0 696.0Q41 700 48 700H206Q213 700 217.0 696.0Q221 692 221 685V15Q221 8 217.0 4.0Q213 0 206 0H48Q41 0 37.0 4.0Q33 8 33 15Z" fill="#f0ede8"/></g><g transform="translate(578.45,148.00) scale(0.11000,-0.11000)"><path d="M507 355V15Q507 8 503.0 4.0Q499 0 492 0H334Q327 0 323.0 4.0Q319 8 319 15V50Q319 54 317.5 54.5Q316 55 314 52Q297 21 267.0 6.5Q237 -8 188 -8Q106 -8 59.0 29.5Q12 67 12 139Q12 215 65.5 256.0Q119 297 221 297H314Q319 297 319 302V320Q319 341 303.5 354.0Q288 367 262 367Q244 367 230.0 361.0Q216 355 210 345Q206 338 202.5 335.5Q199 333 193 334L32 354Q18 356 18 366Q22 411 54.0 448.0Q86 485 139.5 506.5Q193 528 259 528Q327 528 384.0 505.0Q441 482 474.0 442.0Q507 402 507 355ZM319 185V198Q319 203 314 203H264Q201 203 201 162Q201 144 212.5 133.0Q224 122 246 122Q278 122 298.5 139.0Q319 156 319 185Z" fill="#f0ede8"/></g><g transform="translate(634.55,148.00) scale(0.11000,-0.11000)"><path d="M379 514Q388 509 386 495L362 341Q361 333 356.5 331.0Q352 329 344 331Q326 335 312 335Q297 335 284 332Q258 327 239.5 310.5Q221 294 221 266V15Q221 8 217.0 4.0Q213 0 206 0H48Q41 0 37.0 4.0Q33 8 33 15V505Q33 512 37.0 516.0Q41 520 48 520H206Q213 520 217.0 516.0Q221 512 221 505V481Q221 478 223.0 477.0Q225 476 226 478Q264 527 325 527Q359 527 379 514Z" fill="#f0ede8"/></g>
<path d="M 38.0,144.8 L 111.3,144.8 L 151.4,118.8 L 191.6,88.8 L 578.9,88.8" fill="none" stroke="#070707" stroke-width="9.0" stroke-linecap="round" stroke-linejoin="round"/>
<path d="M 38.0,144.8 L 111.3,144.8 L 151.4,118.8 L 191.6,88.8 L 578.9,88.8" fill="none" stroke="#d4001a" stroke-width="2.60" stroke-linecap="round" stroke-linejoin="round"/>
<path d="M 38.0,144.8 L 111.3,144.8 L 151.4,118.8 L 191.6,88.8 L 578.9,88.8" fill="none" stroke="#ff5533" stroke-width="0.88" stroke-linecap="round" stroke-linejoin="round" opacity="0.7"/>
<circle cx="38.0" cy="144.8" r="4.2" fill="#0d0d0d" stroke="#d4001a" stroke-width="1.76"/>
<circle cx="578.9" cy="88.8" r="4.2" fill="#0d0d0d" stroke="#d4001a" stroke-width="1.76"/>
<circle cx="111.3" cy="144.8" r="2.4" fill="#d4001a"/>
<circle cx="191.6" cy="88.8" r="2.4" fill="#d4001a"/>
<g transform="translate(151.430,118.850)"><circle r="34.100" fill="#1c1c1c" stroke="#000000" stroke-width="1.023"/><circle r="28.644" fill="#0a0202"/><g stroke="#a83020" stroke-width="0.682" opacity="0.9"><line x1="-28.644" y1="0" x2="28.644" y2="0"/><line x1="0" y1="-28.644" x2="0" y2="28.644"/></g><g stroke="#7a2018" stroke-width="0.443" opacity="0.6"><line x1="-28.644" y1="-14.322" x2="28.644" y2="-14.322"/><line x1="-14.322" y1="-28.644" x2="-14.322" y2="28.644"/><line x1="-28.644" y1="14.322" x2="28.644" y2="14.322"/><line x1="14.322" y1="-28.644" x2="14.322" y2="28.644"/></g><path d="M 19.10,0.00 L 19.01,1.05 L 18.76,2.09 L 18.34,3.13 L 17.76,4.16 L 17.01,5.16 L 16.12,6.15 L 15.09,7.11 L 13.92,8.05 L 12.63,8.95 L 11.22,9.82 L 9.72,10.65 L 8.13,11.44 L 6.47,12.18 L 4.75,12.87 L 2.99,13.52 L 1.20,14.11 L -0.60,14.64 L -2.39,15.12 L -4.17,15.54 L -5.90,15.89 L -7.58,16.18 L -9.20,16.41 L -10.73,16.58 L -12.17,16.68 L -13.50,16.71 L -14.71,16.68 L -15.79,16.58 L -16.73,16.41 L -17.53,16.18 L -18.16,15.89 L -18.64,15.54 L -18.95,15.12 L -19.09,14.64 L -19.06,14.11 L -18.86,13.52 L -18.50,12.87 L -17.97,12.18 L -17.28,11.44 L -16.44,10.65 L -15.45,9.82 L -14.32,8.95 L -13.07,8.05 L -11.70,7.11 L -10.23,6.15 L -8.67,5.16 L -7.03,4.16 L -5.33,3.13 L -3.58,2.09 L -1.80,1.05 L -0.00,0.00 L 1.80,-1.05 L 3.58,-2.09 L 5.33,-3.13 L 7.03,-4.16 L 8.67,-5.16 L 10.23,-6.15 L 11.70,-7.11 L 13.07,-8.05 L 14.32,-8.95 L 15.45,-9.82 L 16.44,-10.65 L 17.28,-11.44 L 17.97,-12.18 L 18.50,-12.87 L 18.86,-13.52 L 19.06,-14.11 L 19.09,-14.64 L 18.95,-15.12 L 18.64,-15.54 L 18.16,-15.89 L 17.53,-16.18 L 16.73,-16.41 L 15.79,-16.58 L 14.71,-16.68 L 13.50,-16.71 L 12.17,-16.68 L 10.73,-16.58 L 9.20,-16.41 L 7.58,-16.18 L 5.90,-15.89 L 4.17,-15.54 L 2.39,-15.12 L 0.60,-14.64 L -1.20,-14.11 L -2.99,-13.52 L -4.75,-12.87 L -6.47,-12.18 L -8.13,-11.44 L -9.72,-10.65 L -11.22,-9.82 L -12.63,-8.95 L -13.92,-8.05 L -15.09,-7.11 L -16.12,-6.15 L -17.01,-5.16 L -17.76,-4.16 L -18.34,-3.13 L -18.76,-2.09 L -19.01,-1.05 L -19.10,-0.00 L -19.01,1.05 L -18.76,2.09 L -18.34,3.13 L -17.76,4.16 L -17.01,5.16 L -16.12,6.15 L -15.09,7.11 L -13.92,8.05 L -12.63,8.95 L -11.22,9.82 L -9.72,10.65 L -8.13,11.44 L -6.47,12.18 L -4.75,12.87 L -2.99,13.52 L -1.20,14.11 L 0.60,14.64 L 2.39,15.12 L 4.17,15.54 L 5.90,15.89 L 7.58,16.18 L 9.20,16.41 L 10.73,16.58 L 12.17,16.68 L 13.50,16.71 L 14.71,16.68 L 15.79,16.58 L 16.73,16.41 L 17.53,16.18 L 18.16,15.89 L 18.64,15.54 L 18.95,15.12 L 19.09,14.64 L 19.06,14.11 L 18.86,13.52 L 18.50,12.87 L 17.97,12.18 L 17.28,11.44 L 16.44,10.65 L 15.45,9.82 L 14.32,8.95 L 13.07,8.05 L 11.70,7.11 L 10.23,6.15 L 8.67,5.16 L 7.03,4.16 L 5.33,3.13 L 3.58,2.09 L 1.80,1.05 L 0.00,0.00 L -1.80,-1.05 L -3.58,-2.09 L -5.33,-3.13 L -7.03,-4.16 L -8.67,-5.16 L -10.23,-6.15 L -11.70,-7.11 L -13.07,-8.05 L -14.32,-8.95 L -15.45,-9.82 L -16.44,-10.65 L -17.28,-11.44 L -17.97,-12.18 L -18.50,-12.87 L -18.86,-13.52 L -19.06,-14.11 L -19.09,-14.64 L -18.95,-15.12 L -18.64,-15.54 L -18.16,-15.89 L -17.53,-16.18 L -16.73,-16.41 L -15.79,-16.58 L -14.71,-16.68 L -13.50,-16.71 L -12.17,-16.68 L -10.73,-16.58 L -9.20,-16.41 L -7.58,-16.18 L -5.90,-15.89 L -4.17,-15.54 L -2.39,-15.12 L -0.60,-14.64 L 1.20,-14.11 L 2.99,-13.52 L 4.75,-12.87 L 6.47,-12.18 L 8.13,-11.44 L 9.72,-10.65 L 11.22,-9.82 L 12.63,-8.95 L 13.92,-8.05 L 15.09,-7.11 L 16.12,-6.15 L 17.01,-5.16 L 17.76,-4.16 L 18.34,-3.13 L 18.76,-2.09 L 19.01,-1.05 L 19.10,-0.00 Z" fill="none" stroke="#ff2a1a" stroke-width="1.705" stroke-linejoin="round"/><circle r="26.257" fill="none" stroke="#d4001a" stroke-width="1.876"/><circle r="26.257" fill="none" stroke="#ff5533" stroke-width="0.614" opacity="0.7"/><circle r="2.899" fill="#ff3322"/><circle r="1.364" fill="#ffccbb"/></g>
<circle cx="267.1" cy="142.5" r="5.0" fill="#d4001a"/><circle cx="267.1" cy="142.5" r="2.0" fill="#ff5544"/>
<polyline points="14,28 14,14 28,14" fill="none" stroke="#d4001a" stroke-width="1.8"/>
<polyline points="703,182 703,168 689,168" fill="none" stroke="#d4001a" stroke-width="1.8"/>
</g>
</g>
<g inkscape:label="control-graphics" inkscape:groupmode="layer">
<circle cx="17.7" cy="76.0" r="11.5" fill="#0b0d10" stroke="#4a5058" stroke-width="1"/>
<circle cx="17.7" cy="76.0" r="5.0" fill="#101216"/>
<circle cx="44.3" cy="76.0" r="11.5" fill="#0b0d10" stroke="#4a5058" stroke-width="1"/>
<circle cx="44.3" cy="76.0" r="5.0" fill="#101216"/>
<circle cx="70.9" cy="76.0" r="11.5" fill="#0b0d10" stroke="#4a5058" stroke-width="1"/>
<circle cx="70.9" cy="76.0" r="5.0" fill="#101216"/>
<circle cx="97.4" cy="76.0" r="11.5" fill="#0b0d10" stroke="#4a5058" stroke-width="1"/>
<circle cx="97.4" cy="76.0" r="5.0" fill="#101216"/>
<circle cx="127.0" cy="76.0" r="9.4" fill="#0f1114" stroke="#c8960c" stroke-width="1.25"/>
<line x1="127.0" y1="76.0" x2="127.0" y2="69.0" stroke="#c8960c" stroke-width="1"/>
<circle cx="153.5" cy="76.0" r="9.4" fill="#0f1114" stroke="#c8960c" stroke-width="1.25"/>
<line x1="153.5" y1="76.0" x2="153.5" y2="69.0" stroke="#c8960c" stroke-width="1"/>
<circle cx="180.1" cy="76.0" r="9.4" fill="#0f1114" stroke="#c8960c" stroke-width="1.25"/>
<line x1="180.1" y1="76.0" x2="180.1" y2="69.0" stroke="#c8960c" stroke-width="1"/>
<circle cx="206.7" cy="76.0" r="9.4" fill="#0f1114" stroke="#c8960c" stroke-width="1.25"/>
<line x1="206.7" y1="76.0" x2="206.7" y2="69.0" stroke="#c8960c" stroke-width="1"/>
<circle cx="236.2" cy="76.0" r="9.4" fill="#0f1114" stroke="#26a69a" stroke-width="1.25"/>
<line x1="236.2" y1="76.0" x2="236.2" y2="69.0" stroke="#26a69a" stroke-width="1"/>
<circle cx="17.7" cy="145.4" r="11.5" fill="#0b0d10" stroke="#4a5058" stroke-width="1"/>
<circle cx="17.7" cy="145.4" r="5.0" fill="#101216"/>
<circle cx="44.3" cy="145.4" r="11.5" fill="#0b0d10" stroke="#4a5058" stroke-width="1"/>
<circle cx="44.3" cy="145.4" r="5.0" fill="#101216"/>
<circle cx="70.9" cy="145.4" r="11.5" fill="#0b0d10" stroke="#4a5058" stroke-width="1"/>
<circle cx="70.9" cy="145.4" r="5.0" fill="#101216"/>
<circle cx="97.4" cy="145.4" r="11.5" fill="#0b0d10" stroke="#4a5058" stroke-width="1"/>
<circle cx="97.4" cy="145.4" r="5.0" fill="#101216"/>
<circle cx="127.0" cy="145.4" r="9.4" fill="#0f1114" stroke="#c8960c" stroke-width="1.25"/>
<line x1="127.0" y1="145.4" x2="127.0" y2="138.3" stroke="#c8960c" stroke-width="1"/>
<circle cx="153.5" cy="145.4" r="9.4" fill="#0f1114" stroke="#c8960c" stroke-width="1.25"/>
<line x1="153.5" y1="145.4" x2="153.5" y2="138.3" stroke="#c8960c" stroke-width="1"/>
<circle cx="180.1" cy="145.4" r="9.4" fill="#0f1114" stroke="#c8960c" stroke-width="1.25"/>
<line x1="180.1" y1="145.4" x2="180.1" y2="138.3" stroke="#c8960c" stroke-width="1"/>
<circle cx="206.7" cy="145.4" r="9.4" fill="#0f1114" stroke="#c8960c" stroke-width="1.25"/>
<line x1="206.7" y1="145.4" x2="206.7" y2="138.3" stroke="#c8960c" stroke-width="1"/>
<circle cx="236.2" cy="145.4" r="9.4" fill="#0f1114" stroke="#26a69a" stroke-width="1.25"/>
<line x1="236.2" y1="145.4" x2="236.2" y2="138.3" stroke="#26a69a" stroke-width="1"/>
<circle cx="17.7" cy="214.8" r="11.5" fill="#0b0d10" stroke="#4a5058" stroke-width="1"/>
<circle cx="17.7" cy="214.8" r="5.0" fill="#101216"/>
<circle cx="44.3" cy="214.8" r="11.5" fill="#0b0d10" stroke="#4a5058" stroke-width="1"/>
<circle cx="44.3" cy="214.8" r="5.0" fill="#101216"/>
<circle cx="70.9" cy="214.8" r="11.5" fill="#0b0d10" stroke="#4a5058" stroke-width="1"/>
<circle cx="70.9" cy="214.8" r="5.0" fill="#101216"/>
<circle cx="97.4" cy="214.8" r="11.5" fill="#0b0d10" stroke="#4a5058" stroke-width="1"/>
<circle cx="97.4" cy="214.8" r="5.0" fill="#101216"/>
<circle cx="127.0" cy="214.8" r="9.4" fill="#0f1114" stroke="#c8960c" stroke-width="1.25"/>
<line x1="127.0" y1="214.8" x2="127.0" y2="207.7" stroke="#c8960c" stroke-width="1"/>
<circle cx="153.5" cy="214.8" r="9.4" fill="#0f1114" stroke="#c8960c" stroke-width="1.25"/>
<line x1="153.5" y1="214.8" x2="153.5" y2="207.7" stroke="#c8960c" stroke-width="1"/>
<circle cx="180.1" cy="214.8" r="9.4" fill="#0f1114" stroke="#c8960c" stroke-width="1.25"/>
<line x1="180.1" y1="214.8" x2="180.1" y2="207.7" stroke="#c8960c" stroke-width="1"/>
<circle cx="206.7" cy="214.8" r="9.4" fill="#0f1114" stroke="#c8960c" stroke-width="1.25"/>
<line x1="206.7" y1="214.8" x2="206.7" y2="207.7" stroke="#c8960c" stroke-width="1"/>
<circle cx="236.2" cy="214.8" r="9.4" fill="#0f1114" stroke="#26a69a" stroke-width="1.25"/>
<line x1="236.2" y1="214.8" x2="236.2" y2="207.7" stroke="#26a69a" stroke-width="1"/>
<circle cx="17.7" cy="284.2" r="11.5" fill="#0b0d10" stroke="#4a5058" stroke-width="1"/>
<circle cx="17.7" cy="284.2" r="5.0" fill="#101216"/>
<circle cx="44.3" cy="284.2" r="11.5" fill="#0b0d10" stroke="#4a5058" stroke-width="1"/>
<circle cx="44.3" cy="284.2" r="5.0" fill="#101216"/>
<circle cx="70.9" cy="284.2" r="11.5" fill="#0b0d10" stroke="#4a5058" stroke-width="1"/>
<circle cx="70.9" cy="284.2" r="5.0" fill="#101216"/>
<circle cx="97.4" cy="284.2" r="11.5" fill="#0b0d10" stroke="#4a5058" stroke-width="1"/>
<circle cx="97.4" cy="284.2" r="5.0" fill="#101216"/>
<circle cx="127.0" cy="284.2" r="9.4" fill="#0f1114" stroke="#c8960c" stroke-width="1.25"/>
<line x1="127.0" y1="284.2" x2="127.0" y2="277.1" stroke="#c8960c" stroke-width="1"/>
<circle cx="153.5" cy="284.2" r="9.4" fill="#0f1114" stroke="#c8960c" stroke-width="1.25"/>
<line x1="153.5" y1="284.2" x2="153.5" y2="277.1" stroke="#c8960c" stroke-width="1"/>
<circle cx="180.1" cy="284.2" r="9.4" fill="#0f1114" stroke="#c8960c" stroke-width="1.25"/>
<line x1="180.1" y1="284.2" x2="180.1" y2="277.1" stroke="#c8960c" stroke-width="1"/>
<circle cx="206.7" cy="284.2" r="9.4" fill="#0f1114" stroke="#c8960c" stroke-width="1.25"/>
<line x1="206.7" y1="284.2" x2="206.7" y2="277.1" stroke="#c8960c" stroke-width="1"/>
<circle cx="236.2" cy="284.2" r="9.4" fill="#0f1114" stroke="#26a69a" stroke-width="1.25"/>
<line x1="236.2" y1="284.2" x2="236.2" y2="277.1" stroke="#26a69a" stroke-width="1"/>
<line x1="259.8" y1="209.7" x2="587.6" y2="209.7" stroke="#dc2626" stroke-width="1.0" opacity="0.6"/>
<rect x="263.5" y="218.5" width="74.6" height="65.0" rx="4.1" fill="#101216" stroke="#2a2f37" stroke-width="0.9" opacity="0.92"/>
<line x1="269.4" y1="240.7" x2="332.2" y2="240.7" stroke="#2a2f37" stroke-width="0.6" opacity="0.6"/>
<circle cx="300.8" cy="256.9" r="7.7" fill="#101216" stroke="#dc2626" stroke-width="1.2"/>
<rect x="345.5" y="218.5" width="74.6" height="65.0" rx="4.1" fill="#101216" stroke="#2a2f37" stroke-width="0.9" opacity="0.92"/>
<line x1="351.4" y1="240.7" x2="414.1" y2="240.7" stroke="#2a2f37" stroke-width="0.6" opacity="0.6"/>
<circle cx="382.8" cy="256.9" r="7.7" fill="#101216" stroke="#dc2626" stroke-width="1.2"/>
<rect x="427.4" y="218.5" width="74.6" height="65.0" rx="4.1" fill="#101216" stroke="#2a2f37" stroke-width="0.9" opacity="0.92"/>
<line x1="433.3" y1="240.7" x2="496.1" y2="240.7" stroke="#2a2f37" stroke-width="0.6" opacity="0.6"/>
<circle cx="464.7" cy="256.9" r="7.7" fill="#101216" stroke="#dc2626" stroke-width="1.2"/>
<rect x="509.4" y="218.5" width="74.6" height="65.0" rx="4.1" fill="#101216" stroke="#2a2f37" stroke-width="0.9" opacity="0.92"/>
<line x1="515.3" y1="240.7" x2="578.0" y2="240.7" stroke="#2a2f37" stroke-width="0.6" opacity="0.6"/>
<circle cx="546.6" cy="256.9" r="7.7" fill="#101216" stroke="#dc2626" stroke-width="1.2"/>
</g>
<g inkscape:label="components" inkscape:groupmode="layer">
<circle id="input_0" cx="17.72" cy="76.03" r="0.5" fill="none" stroke="none"/>
<circle id="input_1" cx="44.29" cy="76.03" r="0.5" fill="none" stroke="none"/>
<circle id="input_2" cx="70.87" cy="76.03" r="0.5" fill="none" stroke="none"/>
<circle id="input_3" cx="97.44" cy="76.03" r="0.5" fill="none" stroke="none"/>
<circle id="param_4" cx="126.97" cy="76.03" r="0.5" fill="none" stroke="none"/>
<circle id="param_5" cx="153.54" cy="76.03" r="0.5" fill="none" stroke="none"/>
<circle id="param_6" cx="180.12" cy="76.03" r="0.5" fill="none" stroke="none"/>
<circle id="param_7" cx="206.69" cy="76.03" r="0.5" fill="none" stroke="none"/>
<circle id="param_0" cx="236.22" cy="76.03" r="0.5" fill="none" stroke="none"/>
<circle id="input_4" cx="17.72" cy="145.42" r="0.5" fill="none" stroke="none"/>
<circle id="input_5" cx="44.29" cy="145.42" r="0.5" fill="none" stroke="none"/>
<circle id="input_6" cx="70.87" cy="145.42" r="0.5" fill="none" stroke="none"/>
<circle id="input_7" cx="97.44" cy="145.42" r="0.5" fill="none" stroke="none"/>
<circle id="param_8" cx="126.97" cy="145.42" r="0.5" fill="none" stroke="none"/>
<circle id="param_9" cx="153.54" cy="145.42" r="0.5" fill="none" stroke="none"/>
<circle id="param_10" cx="180.12" cy="145.42" r="0.5" fill="none" stroke="none"/>
<circle id="param_11" cx="206.69" cy="145.42" r="0.5" fill="none" stroke="none"/>
<circle id="param_1" cx="236.22" cy="145.42" r="0.5" fill="none" stroke="none"/>
<circle id="input_8" cx="17.72" cy="214.81" r="0.5" fill="none" stroke="none"/>
<circle id="input_9" cx="44.29" cy="214.81" r="0.5" fill="none" stroke="none"/>
<circle id="input_10" cx="70.87" cy="214.81" r="0.5" fill="none" stroke="none"/>
<circle id="input_11" cx="97.44" cy="214.81" r="0.5" fill="none" stroke="none"/>
<circle id="param_12" cx="126.97" cy="214.81" r="0.5" fill="none" stroke="none"/>
<circle id="param_13" cx="153.54" cy="214.81" r="0.5" fill="none" stroke="none"/>
<circle id="param_14" cx="180.12" cy="214.81" r="0.5" fill="none" stroke="none"/>
<circle id="param_15" cx="206.69" cy="214.81" r="0.5" fill="none" stroke="none"/>
<circle id="param_2" cx="236.22" cy="214.81" r="0.5" fill="none" stroke="none"/>
<circle id="input_12" cx="17.72" cy="284.20" r="0.5" fill="none" stroke="none"/>
<circle id="input_13" cx="44.29" cy="284.20" r="0.5" fill="none" stroke="none"/>
<circle id="input_14" cx="70.87" cy="284.20" r="0.5" fill="none" stroke="none"/>
<circle id="input_15" cx="97.44" cy="284.20" r="0.5" fill="none" stroke="none"/>
<circle id="param_16" cx="126.97" cy="284.20" r="0.5" fill="none" stroke="none"/>
<circle id="param_17" cx="153.54" cy="284.20" r="0.5" fill="none" stroke="none"/>
<circle id="param_18" cx="180.12" cy="284.20" r="0.5" fill="none" stroke="none"/>
<circle id="param_19" cx="206.69" cy="284.20" r="0.5" fill="none" stroke="none"/>
<circle id="param_3" cx="236.22" cy="284.20" r="0.5" fill="none" stroke="none"/>
<circle id="param_owner_0" cx="300.81" cy="256.89" r="0.5" fill="none" stroke="none"/>
<circle id="param_owner_1" cx="382.75" cy="256.89" r="0.5" fill="none" stroke="none"/>
<circle id="param_owner_2" cx="464.69" cy="256.89" r="0.5" fill="none" stroke="none"/>
<circle id="param_owner_3" cx="546.63" cy="256.89" r="0.5" fill="none" stroke="none"/>
<circle id="light_connect" cx="315.00" cy="366.14" r="0.5" fill="none" stroke="none"/>
</g>
</svg>