<svg xmlns="http://www.w3.org/2000/svg" width="537.6" height="485.67" viewBox="0 0 537.6 485.67">
  <defs>
    <pattern id="g" x="0" y="0" width="537.6" height="2" patternUnits="userSpaceOnUse"><rect width="537.6" height="2" fill="#141416"/><rect y="1" width="537.6" height="0.6" fill="#1e2228" opacity="0.28"/></pattern>
    <linearGradient id="mbsG" x1="0" y1="0" x2="0" y2="1"><stop offset="0%" stop-color="#1e2535" stop-opacity="0.0"/><stop offset="45%" stop-color="#1e2535" stop-opacity="0.55"/><stop offset="100%" stop-color="#1e2535" stop-opacity="0.82"/></linearGradient>
  </defs>
  <rect width="537.6" height="485.67" fill="url(#g)"/>
  <rect x="0" y="0" width="6.8" height="485.67" fill="#4a90d9" opacity="0.85"/>
  <rect x="0" y="0" width="537.6" height="49.1" fill="#0e1018" opacity="0.90"/>
  <text x="268.8" y="20.8" font-size="12.8" font-family="monospace" text-anchor="middle" fill="#e4e4e7" font-weight="bold">SANDS WEST  V9–16</text>
  <text x="268.8" y="39.7" font-size="9.8" font-family="monospace" text-anchor="middle" fill="#555">drag bars · handles = start/end/rot</text>
  <line x1="7.6" y1="49.1" x2="530.0" y2="49.1" stroke="#4a90d9" stroke-width="0.8" opacity="0.55"/>
  <rect x="7.6" y="52.9" width="522.5" height="34.0" fill="#111" opacity="0.50" rx="1"/>
  <text x="40.2" y="69.9" font-size="9.1" font-family="monospace" text-anchor="middle" fill="#4a90d9" opacity="0.70">V9</text>
  <text x="105.5" y="69.9" font-size="9.1" font-family="monospace" text-anchor="middle" fill="#4a90d9" opacity="0.70">V10</text>
  <text x="170.8" y="69.9" font-size="9.1" font-family="monospace" text-anchor="middle" fill="#4a90d9" opacity="0.70">V11</text>
  <text x="236.1" y="69.9" font-size="9.1" font-family="monospace" text-anchor="middle" fill="#4a90d9" opacity="0.70">V12</text>
  <text x="301.5" y="69.9" font-size="9.1" font-family="monospace" text-anchor="middle" fill="#4a90d9" opacity="0.70">V13</text>
  <text x="366.8" y="69.9" font-size="9.1" font-family="monospace" text-anchor="middle" fill="#4a90d9" opacity="0.70">V14</text>
  <text x="432.1" y="69.9" font-size="9.1" font-family="monospace" text-anchor="middle" fill="#4a90d9" opacity="0.70">V15</text>
  <text x="497.4" y="69.9" font-size="9.1" font-family="monospace" text-anchor="middle" fill="#4a90d9" opacity="0.70">V16</text>
  <rect x="7.6" y="90.7" width="522.5" height="219.2" fill="#0a0a0c" opacity="0.60" rx="1"/>
  <line x1="7.6" y1="309.9" x2="530.0" y2="309.9" stroke="#2a2a30" stroke-width="0.6" opacity="0.55"/>
  <text x="7.6" y="323.1" font-size="9.8" font-family="monospace" fill="#666">LOR CV</text>
  <text x="60.5" y="376.1" font-size="9.1" font-family="monospace" text-anchor="middle" fill="#666" opacity="0.70">LEN</text>
  <text x="128.5" y="376.1" font-size="9.1" font-family="monospace" text-anchor="middle" fill="#666" opacity="0.70">OFF</text>
  <text x="196.5" y="376.1" font-size="9.1" font-family="monospace" text-anchor="middle" fill="#666" opacity="0.70">ROT</text>
  <text x="257.0" y="376.1" font-size="9.1" font-family="monospace" text-anchor="middle" fill="#666" opacity="0.70">DEPTH</text>
  <text x="317.5" y="323.1" font-size="9.8" font-family="monospace" fill="#666">SPREAD</text>
  <text x="332.6" y="319.4" font-size="9.1" font-family="monospace" text-anchor="middle" fill="#4a90d9" opacity="0.72">RST</text>
  <circle cx="332.6" cy="332.6" r="13.2" fill="none" stroke="#888" stroke-width="0.7" opacity="0.55"/>
  <circle cx="332.6" cy="446.0" r="14.7" fill="none" stroke="#888" stroke-width="0.7" opacity="0.55"/>
  <text x="332.6" y="429.0" font-size="9.1" font-family="monospace" text-anchor="middle" fill="#666" opacity="0.60">CV</text>
  <text x="400.6" y="319.4" font-size="9.1" font-family="monospace" text-anchor="middle" fill="#4a90d9" opacity="0.72">MEL</text>
  <circle cx="400.6" cy="332.6" r="13.2" fill="none" stroke="#888" stroke-width="0.7" opacity="0.55"/>
  <circle cx="400.6" cy="446.0" r="14.7" fill="none" stroke="#888" stroke-width="0.7" opacity="0.55"/>
  <text x="400.6" y="429.0" font-size="9.1" font-family="monospace" text-anchor="middle" fill="#666" opacity="0.60">CV</text>
  <text x="468.7" y="319.4" font-size="9.1" font-family="monospace" text-anchor="middle" fill="#4a90d9" opacity="0.72">OCT</text>
  <circle cx="468.7" cy="332.6" r="13.2" fill="none" stroke="#888" stroke-width="0.7" opacity="0.55"/>
  <circle cx="468.7" cy="446.0" r="14.7" fill="none" stroke="#888" stroke-width="0.7" opacity="0.55"/>
  <text x="468.7" y="429.0" font-size="9.1" font-family="monospace" text-anchor="middle" fill="#666" opacity="0.60">CV</text>
  <line x1="294.8" y1="309.9" x2="294.8" y2="485.7" stroke="#2a2a30" stroke-width="0.4" opacity="0.35" stroke-dasharray="2,3"/>
  <circle cx="60.5" cy="393.1" r="14.7" fill="none" stroke="#888" stroke-width="0.7" opacity="0.55"/>
  <circle cx="128.5" cy="393.1" r="14.7" fill="none" stroke="#888" stroke-width="0.7" opacity="0.55"/>
  <circle cx="196.5" cy="393.1" r="14.7" fill="none" stroke="#888" stroke-width="0.7" opacity="0.55"/>
  <circle cx="257.0" cy="393.1" r="13.2" fill="none" stroke="#888" stroke-width="0.7" opacity="0.55"/>
  <text x="7.6" y="377.9" font-size="9.1" font-family="monospace" fill="#666">LOR poly →</text>
  <text x="7.6" y="430.9" font-size="9.1" font-family="monospace" fill="#666">SPR poly →</text>
  <line x1="0" y1="438.4" x2="537.6" y2="438.4" stroke="#4a90d9" stroke-width="0.5" opacity="0.22"/>
  <g fill="url(#mbsG)" stroke="none">
    <polygon points="106.3,443.1 180.8,443.1 184.9,473.9 102.1,473.9" />
    <polygon points="253.0,443.1 327.6,443.1 331.7,473.9 248.9,473.9" />
    <polygon points="399.8,443.1 474.3,443.1 478.5,473.9 395.7,473.9" />
    <polygon points="99.1,443.1 481.5,443.1 483.5,441.1 97.1,441.1" />
  </g>
  <g fill="none" stroke="#dc2626" stroke-width="0.25" opacity="0.18">
    <polygon points="106.3,443.1 180.8,443.1 184.9,473.9 102.1,473.9" />
    <line x1="103.1" y1="458.5" x2="183.9" y2="458.5"/>
    <polygon points="253.0,443.1 327.6,443.1 331.7,473.9 248.9,473.9" />
    <line x1="249.9" y1="458.5" x2="330.7" y2="458.5"/>
    <polygon points="399.8,443.1 474.3,443.1 478.5,473.9 395.7,473.9" />
    <line x1="396.7" y1="458.5" x2="477.5" y2="458.5"/>
    <polygon points="99.1,443.1 481.5,443.1 483.5,441.1 97.1,441.1" />
  </g>
  <line x1="147.3" y1="443.1" x2="147.3" y2="438.1" stroke="#dc2626" stroke-width="0.5" opacity="0.38"/>
  <circle cx="147.3" cy="437.1" r="1.1" fill="#dc2626" opacity="0.38"/>
  <line x1="271.5" y1="443.1" x2="271.5" y2="438.1" stroke="#dc2626" stroke-width="0.5" opacity="0.38"/>
  <circle cx="271.5" cy="437.1" r="1.1" fill="#dc2626" opacity="0.38"/>
  <line x1="399.4" y1="443.1" x2="399.4" y2="438.1" stroke="#dc2626" stroke-width="0.5" opacity="0.38"/>
  <circle cx="399.4" cy="437.1" r="1.1" fill="#dc2626" opacity="0.38"/>
  <g fill="none" stroke="#1a3c58">
    <path d="M0.0,475.9 L13.4,477.5 L26.9,477.1 L40.3,475.0 L53.8,474.1 L67.2,475.4 L80.6,477.3 L94.1,477.4 L107.5,475.5 L121.0,474.1 L134.4,475.0 L147.8,477.0 L161.3,477.6 L174.7,475.9 L188.2,474.2 L201.6,474.6 L215.0,476.6 L228.5,477.7 L241.9,476.3 L255.4,474.4 L268.8,474.3 L282.2,476.2 L295.7,477.6 L309.1,476.8 L322.6,474.7 L336.0,474.1 L349.4,475.8 L362.9,477.5 L376.3,477.1 L389.8,475.1 L403.2,474.1 L416.6,475.3 L430.1,477.3 L443.5,477.4 L457.0,475.5 L470.4,474.1 L483.8,474.9 L497.3,477.0 L510.7,477.6 L524.2,476.0 L537.6,474.2" stroke-width="0.4" opacity="0.35"/>
    <path d="M0.0,479.9 L13.4,479.5 L26.9,477.9 L40.3,478.1 L53.8,479.8 L67.2,479.7 L80.6,478.0 L94.1,478.0 L107.5,479.6 L121.0,479.8 L134.4,478.1 L147.8,477.9 L161.3,479.5 L174.7,479.9 L188.2,478.3 L201.6,477.8 L215.0,479.4 L228.5,480.0 L241.9,478.4 L255.4,477.7 L268.8,479.2 L282.2,480.0 L295.7,478.6 L309.1,477.7 L322.6,479.0 L336.0,480.0 L349.4,478.8 L362.9,477.7 L376.3,478.9 L389.8,480.1 L403.2,478.9 L416.6,477.7 L430.1,478.7 L443.5,480.0 L457.0,479.1 L470.4,477.7 L483.8,478.5 L497.3,480.0 L510.7,479.3 L524.2,477.7 L537.6,478.4" stroke-width="0.35" opacity="0.25"/>
    <path d="M0.0,483.8 L13.4,482.5 L26.9,480.7 L40.3,479.9 L53.8,480.9 L67.2,482.8 L80.6,483.8 L94.1,483.1 L107.5,481.2 L121.0,479.9 L134.4,480.4 L147.8,482.2 L161.3,483.7 L174.7,483.5 L188.2,481.9 L201.6,480.2 L215.0,480.0 L228.5,481.5 L241.9,483.3 L255.4,483.8 L268.8,482.5 L282.2,480.6 L295.7,479.9 L309.1,480.9 L322.6,482.8 L336.0,483.9 L349.4,483.1 L362.9,481.2 L376.3,479.9 L389.8,480.4 L403.2,482.2 L416.6,483.7 L430.1,483.5 L443.5,481.8 L457.0,480.2 L470.4,480.1 L483.8,481.6 L497.3,483.4 L510.7,483.8 L524.2,482.4 L537.6,480.6" stroke-width="0.35" opacity="0.18"/>
  </g>
  <circle cx="522.5" cy="15.1" r="9.4" fill="#dc2626"/>
</svg>