<svg xmlns="http://www.w3.org/2000/svg" xmlns:inkscape="http://www.inkscape.org/namespaces/inkscape" width="230.31" height="188.98" viewBox="0 0 230.31 188.98"><rect width="230.31" height="188.98" fill="#16181c"/><text x="11.81" y="17.72" font-family="sans-serif" font-size="8.86" fill="#d8d8dc">shophouse — scale-list fronts (keyboard shutters)</text><rect x="8.86" y="35.43" width="50.2" height="129.92" rx="2.36" fill="#13151a" stroke="#262b33" stroke-width="1.2"/><polygon points="5.91,36.91 33.96,26.57 62.01,36.91" fill="#dc2626" opacity="0.85"/><polygon points="5.91,36.91 33.96,26.57 62.01,36.91" fill="none" stroke="#262b33" stroke-width="0.8"/><rect x="13.58" y="43.11" width="40.75" height="59.76" fill="#101216" stroke="#2a2f37" stroke-width="0.8"/><rect x="15.94" y="45.47" width="4.56" height="55.04" rx="0.89" fill="#dc2626" stroke="#d8d8dc" stroke-width="0.6" opacity="1.00"/><line x1="17.72" y1="65.29" x2="18.73" y2="65.29" stroke="#d8d8dc" stroke-width="0.35" opacity="0.30"/><line x1="17.72" y1="80.7" x2="18.73" y2="80.7" stroke="#d8d8dc" stroke-width="0.35" opacity="0.30"/><rect x="21.98" y="45.47" width="4.56" height="55.04" rx="0.89" fill="#26a69a" stroke="#d8d8dc" stroke-width="0.6" opacity="1.00"/><line x1="23.75" y1="65.29" x2="24.76" y2="65.29" stroke="#d8d8dc" stroke-width="0.35" opacity="0.30"/><line x1="23.75" y1="80.7" x2="24.76" y2="80.7" stroke="#d8d8dc" stroke-width="0.35" opacity="0.30"/><rect x="28.01" y="45.47" width="4.56" height="55.04" rx="0.89" fill="#26a69a" stroke="#d8d8dc" stroke-width="0.6" opacity="1.00"/><line x1="29.78" y1="65.29" x2="30.79" y2="65.29" stroke="#d8d8dc" stroke-width="0.35" opacity="0.30"/><line x1="29.78" y1="80.7" x2="30.79" y2="80.7" stroke="#d8d8dc" stroke-width="0.35" opacity="0.30"/><rect x="34.04" y="45.47" width="4.56" height="55.04" rx="0.89" fill="#26a69a" stroke="#d8d8dc" stroke-width="0.6" opacity="1.00"/><line x1="35.81" y1="65.29" x2="36.83" y2="65.29" stroke="#d8d8dc" stroke-width="0.35" opacity="0.30"/><line x1="35.81" y1="80.7" x2="36.83" y2="80.7" stroke="#d8d8dc" stroke-width="0.35" opacity="0.30"/><rect x="40.07" y="45.47" width="4.56" height="55.04" rx="0.89" fill="#26a69a" stroke="#d8d8dc" stroke-width="0.6" opacity="1.00"/><line x1="41.84" y1="65.29" x2="42.86" y2="65.29" stroke="#d8d8dc" stroke-width="0.35" opacity="0.30"/><line x1="41.84" y1="80.7" x2="42.86" y2="80.7" stroke="#d8d8dc" stroke-width="0.35" opacity="0.30"/><rect x="46.11" y="45.47" width="4.56" height="55.04" rx="0.89" fill="#26a69a" stroke="#d8d8dc" stroke-width="0.6" opacity="1.00"/><line x1="47.88" y1="65.29" x2="48.89" y2="65.29" stroke="#d8d8dc" stroke-width="0.35" opacity="0.30"/><line x1="47.88" y1="80.7" x2="48.89" y2="80.7" stroke="#d8d8dc" stroke-width="0.35" opacity="0.30"/><rect x="52.14" y="45.47" width="4.56" height="55.04" rx="0.89" fill="#26a69a" stroke="#d8d8dc" stroke-width="0.6" opacity="1.00"/><line x1="53.91" y1="65.29" x2="54.92" y2="65.29" stroke="#d8d8dc" stroke-width="0.35" opacity="0.30"/><line x1="53.91" y1="80.7" x2="54.92" y2="80.7" stroke="#d8d8dc" stroke-width="0.35" opacity="0.30"/><rect x="19.92" y="45.47" width="2.64" height="30.27" rx="0.89" fill="#0b0d10" stroke="#3a4048" stroke-width="0.6" opacity="0.50"/><line x1="21.69" y1="56.37" x2="20.79" y2="56.37" stroke="#d8d8dc" stroke-width="0.35" opacity="0.15"/><line x1="21.69" y1="64.85" x2="20.79" y2="64.85" stroke="#d8d8dc" stroke-width="0.35" opacity="0.15"/><rect x="25.95" y="45.47" width="2.64" height="30.27" rx="0.89" fill="#0b0d10" stroke="#3a4048" stroke-width="0.6" opacity="0.50"/><line x1="27.72" y1="56.37" x2="26.82" y2="56.37" stroke="#d8d8dc" stroke-width="0.35" opacity="0.15"/><line x1="27.72" y1="64.85" x2="26.82" y2="64.85" stroke="#d8d8dc" stroke-width="0.35" opacity="0.15"/><rect x="38.01" y="45.47" width="2.64" height="30.27" rx="0.89" fill="#0b0d10" stroke="#3a4048" stroke-width="0.6" opacity="0.50"/><line x1="39.79" y1="56.37" x2="38.88" y2="56.37" stroke="#d8d8dc" stroke-width="0.35" opacity="0.15"/><line x1="39.79" y1="64.85" x2="38.88" y2="64.85" stroke="#d8d8dc" stroke-width="0.35" opacity="0.15"/><rect x="44.05" y="45.47" width="2.64" height="30.27" rx="0.89" fill="#0b0d10" stroke="#3a4048" stroke-width="0.6" opacity="0.50"/><line x1="45.82" y1="56.37" x2="44.92" y2="56.37" stroke="#d8d8dc" stroke-width="0.35" opacity="0.15"/><line x1="45.82" y1="64.85" x2="44.92" y2="64.85" stroke="#d8d8dc" stroke-width="0.35" opacity="0.15"/><rect x="50.08" y="45.47" width="2.64" height="30.27" rx="0.89" fill="#0b0d10" stroke="#3a4048" stroke-width="0.6" opacity="0.50"/><line x1="51.85" y1="56.37" x2="50.95" y2="56.37" stroke="#d8d8dc" stroke-width="0.35" opacity="0.15"/><line x1="51.85" y1="64.85" x2="50.95" y2="64.85" stroke="#d8d8dc" stroke-width="0.35" opacity="0.15"/><path d="M 13.58 162.4 L 13.58 132.28 Q 33.96 119.0 54.33 132.28 L 54.33 162.4 Z" fill="#101216" stroke="#c8960c" stroke-width="1.0" opacity="0.9"/><text x="33.96" y="161.81" text-anchor="middle" font-family="sans-serif" font-size="7.68" fill="#8a8f98">C maj / slot 1</text><rect x="64.37" y="35.43" width="50.2" height="129.92" rx="2.36" fill="#13151a" stroke="#262b33" stroke-width="1.2"/><polygon points="61.42,36.91 89.47,26.57 117.52,36.91" fill="#dc2626" opacity="0.85"/><polygon points="61.42,36.91 89.47,26.57 117.52,36.91" fill="none" stroke="#262b33" stroke-width="0.8"/><rect x="69.09" y="43.11" width="40.75" height="59.76" fill="#101216" stroke="#2a2f37" stroke-width="0.8"/><rect x="71.46" y="45.47" width="4.56" height="55.04" rx="0.89" fill="#26a69a" stroke="#d8d8dc" stroke-width="0.6" opacity="1.00"/><line x1="73.23" y1="65.29" x2="74.24" y2="65.29" stroke="#d8d8dc" stroke-width="0.35" opacity="0.30"/><line x1="73.23" y1="80.7" x2="74.24" y2="80.7" stroke="#d8d8dc" stroke-width="0.35" opacity="0.30"/><rect x="77.49" y="45.47" width="4.56" height="55.04" rx="0.89" fill="#26a69a" stroke="#d8d8dc" stroke-width="0.6" opacity="1.00"/><line x1="79.26" y1="65.29" x2="80.27" y2="65.29" stroke="#d8d8dc" stroke-width="0.35" opacity="0.30"/><line x1="79.26" y1="80.7" x2="80.27" y2="80.7" stroke="#d8d8dc" stroke-width="0.35" opacity="0.30"/><rect x="83.52" y="45.47" width="4.56" height="55.04" rx="0.89" fill="#26a69a" stroke="#d8d8dc" stroke-width="0.6" opacity="1.00"/><line x1="85.29" y1="65.29" x2="86.3" y2="65.29" stroke="#d8d8dc" stroke-width="0.35" opacity="0.30"/><line x1="85.29" y1="80.7" x2="86.3" y2="80.7" stroke="#d8d8dc" stroke-width="0.35" opacity="0.30"/><rect x="89.55" y="45.47" width="4.56" height="55.04" rx="0.89" fill="#26a69a" stroke="#d8d8dc" stroke-width="0.6" opacity="1.00"/><line x1="91.32" y1="65.29" x2="92.34" y2="65.29" stroke="#d8d8dc" stroke-width="0.35" opacity="0.30"/><line x1="91.32" y1="80.7" x2="92.34" y2="80.7" stroke="#d8d8dc" stroke-width="0.35" opacity="0.30"/><rect x="95.58" y="45.47" width="4.56" height="55.04" rx="0.89" fill="#26a69a" stroke="#d8d8dc" stroke-width="0.6" opacity="1.00"/><line x1="97.36" y1="65.29" x2="98.37" y2="65.29" stroke="#d8d8dc" stroke-width="0.35" opacity="0.30"/><line x1="97.36" y1="80.7" x2="98.37" y2="80.7" stroke="#d8d8dc" stroke-width="0.35" opacity="0.30"/><rect x="101.62" y="45.47" width="4.56" height="55.04" rx="0.89" fill="#dc2626" stroke="#d8d8dc" stroke-width="0.6" opacity="1.00"/><line x1="103.39" y1="65.29" x2="104.4" y2="65.29" stroke="#d8d8dc" stroke-width="0.35" opacity="0.30"/><line x1="103.39" y1="80.7" x2="104.4" y2="80.7" stroke="#d8d8dc" stroke-width="0.35" opacity="0.30"/><rect x="107.65" y="45.47" width="4.56" height="55.04" rx="0.89" fill="#26a69a" stroke="#d8d8dc" stroke-width="0.6" opacity="1.00"/><line x1="109.42" y1="65.29" x2="110.43" y2="65.29" stroke="#d8d8dc" stroke-width="0.35" opacity="0.30"/><line x1="109.42" y1="80.7" x2="110.43" y2="80.7" stroke="#d8d8dc" stroke-width="0.35" opacity="0.30"/><rect x="75.43" y="45.47" width="2.64" height="30.27" rx="0.89" fill="#0b0d10" stroke="#3a4048" stroke-width="0.6" opacity="0.50"/><line x1="77.2" y1="56.37" x2="76.3" y2="56.37" stroke="#d8d8dc" stroke-width="0.35" opacity="0.15"/><line x1="77.2" y1="64.85" x2="76.3" y2="64.85" stroke="#d8d8dc" stroke-width="0.35" opacity="0.15"/><rect x="81.46" y="45.47" width="2.64" height="30.27" rx="0.89" fill="#0b0d10" stroke="#3a4048" stroke-width="0.6" opacity="0.50"/><line x1="83.23" y1="56.37" x2="82.33" y2="56.37" stroke="#d8d8dc" stroke-width="0.35" opacity="0.15"/><line x1="83.23" y1="64.85" x2="82.33" y2="64.85" stroke="#d8d8dc" stroke-width="0.35" opacity="0.15"/><rect x="93.53" y="45.47" width="2.64" height="30.27" rx="0.89" fill="#0b0d10" stroke="#3a4048" stroke-width="0.6" opacity="0.50"/><line x1="95.3" y1="56.37" x2="94.4" y2="56.37" stroke="#d8d8dc" stroke-width="0.35" opacity="0.15"/><line x1="95.3" y1="64.85" x2="94.4" y2="64.85" stroke="#d8d8dc" stroke-width="0.35" opacity="0.15"/><rect x="99.56" y="45.47" width="2.64" height="30.27" rx="0.89" fill="#0b0d10" stroke="#3a4048" stroke-width="0.6" opacity="0.50"/><line x1="101.33" y1="56.37" x2="100.43" y2="56.37" stroke="#d8d8dc" stroke-width="0.35" opacity="0.15"/><line x1="101.33" y1="64.85" x2="100.43" y2="64.85" stroke="#d8d8dc" stroke-width="0.35" opacity="0.15"/><rect x="105.59" y="45.47" width="2.64" height="30.27" rx="0.89" fill="#0b0d10" stroke="#3a4048" stroke-width="0.6" opacity="0.50"/><line x1="107.36" y1="56.37" x2="106.46" y2="56.37" stroke="#d8d8dc" stroke-width="0.35" opacity="0.15"/><line x1="107.36" y1="64.85" x2="106.46" y2="64.85" stroke="#d8d8dc" stroke-width="0.35" opacity="0.15"/><path d="M 69.09 162.4 L 69.09 132.28 Q 89.47 119.0 109.84 132.28 L 109.84 162.4 Z" fill="#101216" stroke="#c8960c" stroke-width="1.0" opacity="0.9"/><text x="89.47" y="161.81" text-anchor="middle" font-family="sans-serif" font-size="7.68" fill="#8a8f98">A min / 2</text><rect x="119.88" y="35.43" width="50.2" height="129.92" rx="2.36" fill="#13151a" stroke="#262b33" stroke-width="1.2"/><polygon points="116.93,36.91 144.98,26.57 173.03,36.91" fill="#dc2626" opacity="0.85"/><polygon points="116.93,36.91 144.98,26.57 173.03,36.91" fill="none" stroke="#262b33" stroke-width="0.8"/><rect x="124.61" y="43.11" width="40.75" height="59.76" fill="#101216" stroke="#2a2f37" stroke-width="0.8"/><rect x="126.97" y="45.47" width="4.56" height="55.04" rx="0.89" fill="#26a69a" stroke="#d8d8dc" stroke-width="0.6" opacity="1.00"/><line x1="128.74" y1="65.29" x2="129.75" y2="65.29" stroke="#d8d8dc" stroke-width="0.35" opacity="0.30"/><line x1="128.74" y1="80.7" x2="129.75" y2="80.7" stroke="#d8d8dc" stroke-width="0.35" opacity="0.30"/><rect x="133.0" y="45.47" width="4.56" height="55.04" rx="0.89" fill="#dc2626" stroke="#d8d8dc" stroke-width="0.6" opacity="1.00"/><line x1="134.77" y1="65.29" x2="135.78" y2="65.29" stroke="#d8d8dc" stroke-width="0.35" opacity="0.30"/><line x1="134.77" y1="80.7" x2="135.78" y2="80.7" stroke="#d8d8dc" stroke-width="0.35" opacity="0.30"/><rect x="139.03" y="45.47" width="4.56" height="55.04" rx="0.89" fill="#26a69a" stroke="#d8d8dc" stroke-width="0.6" opacity="1.00"/><line x1="140.8" y1="65.29" x2="141.82" y2="65.29" stroke="#d8d8dc" stroke-width="0.35" opacity="0.30"/><line x1="140.8" y1="80.7" x2="141.82" y2="80.7" stroke="#d8d8dc" stroke-width="0.35" opacity="0.30"/><rect x="145.06" y="45.47" width="4.56" height="55.04" rx="0.89" fill="#26a69a" stroke="#d8d8dc" stroke-width="0.6" opacity="1.00"/><line x1="146.84" y1="65.29" x2="147.85" y2="65.29" stroke="#d8d8dc" stroke-width="0.35" opacity="0.30"/><line x1="146.84" y1="80.7" x2="147.85" y2="80.7" stroke="#d8d8dc" stroke-width="0.35" opacity="0.30"/><rect x="151.1" y="45.47" width="4.56" height="55.04" rx="0.89" fill="#26a69a" stroke="#d8d8dc" stroke-width="0.6" opacity="1.00"/><line x1="152.87" y1="65.29" x2="153.88" y2="65.29" stroke="#d8d8dc" stroke-width="0.35" opacity="0.30"/><line x1="152.87" y1="80.7" x2="153.88" y2="80.7" stroke="#d8d8dc" stroke-width="0.35" opacity="0.30"/><rect x="157.13" y="45.47" width="4.56" height="55.04" rx="0.89" fill="#26a69a" stroke="#d8d8dc" stroke-width="0.6" opacity="1.00"/><line x1="158.9" y1="65.29" x2="159.91" y2="65.29" stroke="#d8d8dc" stroke-width="0.35" opacity="0.30"/><line x1="158.9" y1="80.7" x2="159.91" y2="80.7" stroke="#d8d8dc" stroke-width="0.35" opacity="0.30"/><rect x="163.16" y="45.47" width="4.56" height="55.04" rx="0.89" fill="#26a69a" stroke="#d8d8dc" stroke-width="0.6" opacity="1.00"/><line x1="164.93" y1="65.29" x2="165.94" y2="65.29" stroke="#d8d8dc" stroke-width="0.35" opacity="0.30"/><line x1="164.93" y1="80.7" x2="165.94" y2="80.7" stroke="#d8d8dc" stroke-width="0.35" opacity="0.30"/><rect x="130.94" y="45.47" width="2.64" height="30.27" rx="0.89" fill="#0b0d10" stroke="#3a4048" stroke-width="0.6" opacity="0.50"/><line x1="132.71" y1="56.37" x2="131.81" y2="56.37" stroke="#d8d8dc" stroke-width="0.35" opacity="0.15"/><line x1="132.71" y1="64.85" x2="131.81" y2="64.85" stroke="#d8d8dc" stroke-width="0.35" opacity="0.15"/><rect x="136.97" y="45.47" width="2.64" height="30.27" rx="0.89" fill="#0b0d10" stroke="#3a4048" stroke-width="0.6" opacity="0.50"/><line x1="138.74" y1="56.37" x2="137.84" y2="56.37" stroke="#d8d8dc" stroke-width="0.35" opacity="0.15"/><line x1="138.74" y1="64.85" x2="137.84" y2="64.85" stroke="#d8d8dc" stroke-width="0.35" opacity="0.15"/><rect x="149.04" y="45.47" width="2.64" height="30.27" rx="0.89" fill="#0b0d10" stroke="#3a4048" stroke-width="0.6" opacity="0.50"/><line x1="150.81" y1="56.37" x2="149.91" y2="56.37" stroke="#d8d8dc" stroke-width="0.35" opacity="0.15"/><line x1="150.81" y1="64.85" x2="149.91" y2="64.85" stroke="#d8d8dc" stroke-width="0.35" opacity="0.15"/><rect x="155.07" y="45.47" width="2.64" height="30.27" rx="0.89" fill="#0b0d10" stroke="#3a4048" stroke-width="0.6" opacity="0.50"/><line x1="156.84" y1="56.37" x2="155.94" y2="56.37" stroke="#d8d8dc" stroke-width="0.35" opacity="0.15"/><line x1="156.84" y1="64.85" x2="155.94" y2="64.85" stroke="#d8d8dc" stroke-width="0.35" opacity="0.15"/><rect x="161.1" y="45.47" width="2.64" height="30.27" rx="0.89" fill="#0b0d10" stroke="#3a4048" stroke-width="0.6" opacity="0.50"/><line x1="162.87" y1="56.37" x2="161.97" y2="56.37" stroke="#d8d8dc" stroke-width="0.35" opacity="0.15"/><line x1="162.87" y1="64.85" x2="161.97" y2="64.85" stroke="#d8d8dc" stroke-width="0.35" opacity="0.15"/><path d="M 124.61 162.4 L 124.61 132.28 Q 144.98 119.0 165.35 132.28 L 165.35 162.4 Z" fill="#101216" stroke="#c8960c" stroke-width="1.0" opacity="0.9"/><text x="144.98" y="161.81" text-anchor="middle" font-family="sans-serif" font-size="7.68" fill="#8a8f98">D dor / 3</text><rect x="175.39" y="35.43" width="50.2" height="129.92" rx="2.36" fill="#13151a" stroke="#262b33" stroke-width="1.2"/><polygon points="172.44,36.91 200.49,26.57 228.54,36.91" fill="#dc2626" opacity="0.85"/><polygon points="172.44,36.91 200.49,26.57 228.54,36.91" fill="none" stroke="#262b33" stroke-width="0.8"/><rect x="180.12" y="43.11" width="40.75" height="59.76" fill="#101216" stroke="#2a2f37" stroke-width="0.8"/><rect x="182.48" y="45.47" width="4.56" height="55.04" rx="0.89" fill="#26a69a" stroke="#d8d8dc" stroke-width="0.6" opacity="1.00"/><line x1="184.25" y1="65.29" x2="185.26" y2="65.29" stroke="#d8d8dc" stroke-width="0.35" opacity="0.30"/><line x1="184.25" y1="80.7" x2="185.26" y2="80.7" stroke="#d8d8dc" stroke-width="0.35" opacity="0.30"/><rect x="188.51" y="45.47" width="4.56" height="55.04" rx="0.89" fill="#26a69a" stroke="#d8d8dc" stroke-width="0.6" opacity="1.00"/><line x1="190.28" y1="65.29" x2="191.3" y2="65.29" stroke="#d8d8dc" stroke-width="0.35" opacity="0.30"/><line x1="190.28" y1="80.7" x2="191.3" y2="80.7" stroke="#d8d8dc" stroke-width="0.35" opacity="0.30"/><rect x="194.54" y="45.47" width="4.56" height="55.04" rx="0.89" fill="#26a69a" stroke="#d8d8dc" stroke-width="0.6" opacity="1.00"/><line x1="196.32" y1="65.29" x2="197.33" y2="65.29" stroke="#d8d8dc" stroke-width="0.35" opacity="0.30"/><line x1="196.32" y1="80.7" x2="197.33" y2="80.7" stroke="#d8d8dc" stroke-width="0.35" opacity="0.30"/><rect x="200.58" y="45.47" width="4.56" height="55.04" rx="0.89" fill="#26a69a" stroke="#d8d8dc" stroke-width="0.6" opacity="1.00"/><line x1="202.35" y1="65.29" x2="203.36" y2="65.29" stroke="#d8d8dc" stroke-width="0.35" opacity="0.30"/><line x1="202.35" y1="80.7" x2="203.36" y2="80.7" stroke="#d8d8dc" stroke-width="0.35" opacity="0.30"/><rect x="206.61" y="45.47" width="4.56" height="55.04" rx="0.89" fill="#dc2626" stroke="#d8d8dc" stroke-width="0.6" opacity="1.00"/><line x1="208.38" y1="65.29" x2="209.39" y2="65.29" stroke="#d8d8dc" stroke-width="0.35" opacity="0.30"/><line x1="208.38" y1="80.7" x2="209.39" y2="80.7" stroke="#d8d8dc" stroke-width="0.35" opacity="0.30"/><rect x="212.64" y="45.47" width="4.56" height="55.04" rx="0.89" fill="#26a69a" stroke="#d8d8dc" stroke-width="0.6" opacity="1.00"/><line x1="214.41" y1="65.29" x2="215.42" y2="65.29" stroke="#d8d8dc" stroke-width="0.35" opacity="0.30"/><line x1="214.41" y1="80.7" x2="215.42" y2="80.7" stroke="#d8d8dc" stroke-width="0.35" opacity="0.30"/><rect x="218.67" y="45.47" width="4.56" height="55.04" rx="0.89" fill="#26a69a" stroke="#d8d8dc" stroke-width="0.6" opacity="1.00"/><line x1="220.44" y1="65.29" x2="221.46" y2="65.29" stroke="#d8d8dc" stroke-width="0.35" opacity="0.30"/><line x1="220.44" y1="80.7" x2="221.46" y2="80.7" stroke="#d8d8dc" stroke-width="0.35" opacity="0.30"/><rect x="186.45" y="45.47" width="2.64" height="30.27" rx="0.89" fill="#0b0d10" stroke="#3a4048" stroke-width="0.6" opacity="0.50"/><line x1="188.22" y1="56.37" x2="187.32" y2="56.37" stroke="#d8d8dc" stroke-width="0.35" opacity="0.15"/><line x1="188.22" y1="64.85" x2="187.32" y2="64.85" stroke="#d8d8dc" stroke-width="0.35" opacity="0.15"/><rect x="192.49" y="45.47" width="2.64" height="30.27" rx="0.89" fill="#0b0d10" stroke="#3a4048" stroke-width="0.6" opacity="0.50"/><line x1="194.26" y1="56.37" x2="193.36" y2="56.37" stroke="#d8d8dc" stroke-width="0.35" opacity="0.15"/><line x1="194.26" y1="64.85" x2="193.36" y2="64.85" stroke="#d8d8dc" stroke-width="0.35" opacity="0.15"/><rect x="204.55" y="45.47" width="2.64" height="30.27" rx="0.89" fill="#0b0d10" stroke="#3a4048" stroke-width="0.6" opacity="0.50"/><line x1="206.32" y1="56.37" x2="205.42" y2="56.37" stroke="#d8d8dc" stroke-width="0.35" opacity="0.15"/><line x1="206.32" y1="64.85" x2="205.42" y2="64.85" stroke="#d8d8dc" stroke-width="0.35" opacity="0.15"/><rect x="210.58" y="45.47" width="2.64" height="30.27" rx="0.89" fill="#0b0d10" stroke="#3a4048" stroke-width="0.6" opacity="0.50"/><line x1="212.35" y1="56.37" x2="211.45" y2="56.37" stroke="#d8d8dc" stroke-width="0.35" opacity="0.15"/><line x1="212.35" y1="64.85" x2="211.45" y2="64.85" stroke="#d8d8dc" stroke-width="0.35" opacity="0.15"/><rect x="216.61" y="45.47" width="2.64" height="30.27" rx="0.89" fill="#0b0d10" stroke="#3a4048" stroke-width="0.6" opacity="0.50"/><line x1="218.38" y1="56.37" x2="217.48" y2="56.37" stroke="#d8d8dc" stroke-width="0.35" opacity="0.15"/><line x1="218.38" y1="64.85" x2="217.48" y2="64.85" stroke="#d8d8dc" stroke-width="0.35" opacity="0.15"/><path d="M 180.12 162.4 L 180.12 132.28 Q 200.49 119.0 220.87 132.28 L 220.87 162.4 Z" fill="#101216" stroke="#c8960c" stroke-width="1.0" opacity="0.9"/><text x="200.49" y="161.81" text-anchor="middle" font-family="sans-serif" font-size="7.68" fill="#8a8f98">G mix / 4</text></svg>