<?xml version="1.0" encoding="UTF-8"?>
<svg xmlns="http://www.w3.org/2000/svg" width="53.150" height="53.150" viewBox="-9.000 -9.000 18.000 18.000">
<!-- generated by panel_src/gen_controls.py : do not hand-edit -->
<circle cx="0" cy="0" r="5.000" fill="#74736e" stroke="#2a2a27" stroke-width="0.140"/><circle cx="0" cy="0" r="4.650" fill="#5a5955"/><path d="M 4.650 0.000 L 4.406 0.178 L 4.206 0.340 L 4.037 0.490 L 3.889 0.632 L 3.759 0.767 L 3.641 0.897 L 3.534 1.024 L 3.436 1.147 L 3.344 1.268 L 3.259 1.389 L 3.179 1.509 L 3.103 1.629 L 3.031 1.750 L 2.962 1.873 L 2.896 1.999 L 2.832 2.128 L 2.771 2.262 L 2.711 2.402 L 2.654 2.549 L 2.598 2.704 L 2.544 2.871 L 2.492 3.052 L 2.443 3.251 L 2.397 3.473 L 2.357 3.727 L 2.325 4.027 L 2.325 4.027 L 2.049 3.905 L 1.809 3.813 L 1.594 3.741 L 1.397 3.684 L 1.215 3.639 L 1.043 3.602 L 0.881 3.572 L 0.725 3.549 L 0.574 3.531 L 0.427 3.517 L 0.283 3.507 L 0.141 3.502 L 0.000 3.500 L -0.141 3.502 L -0.283 3.507 L -0.427 3.517 L -0.574 3.531 L -0.725 3.549 L -0.881 3.572 L -1.043 3.602 L -1.215 3.639 L -1.397 3.684 L -1.594 3.741 L -1.809 3.813 L -2.049 3.905 L -2.325 4.027 L -2.325 4.027 L -2.357 3.727 L -2.397 3.473 L -2.443 3.251 L -2.492 3.052 L -2.544 2.871 L -2.598 2.704 L -2.654 2.549 L -2.711 2.402 L -2.771 2.262 L -2.832 2.128 L -2.896 1.999 L -2.962 1.873 L -3.031 1.750 L -3.103 1.629 L -3.179 1.509 L -3.259 1.389 L -3.344 1.268 L -3.436 1.147 L -3.534 1.024 L -3.641 0.897 L -3.759 0.767 L -3.889 0.632 L -4.037 0.490 L -4.206 0.340 L -4.406 0.178 L -4.650 0.000 L -4.650 0.000 L -4.406 -0.178 L -4.206 -0.340 L -4.037 -0.490 L -3.889 -0.632 L -3.759 -0.767 L -3.641 -0.897 L -3.534 -1.024 L -3.436 -1.147 L -3.344 -1.268 L -3.259 -1.389 L -3.179 -1.509 L -3.103 -1.629 L -3.031 -1.750 L -2.962 -1.873 L -2.896 -1.999 L -2.832 -2.128 L -2.771 -2.262 L -2.711 -2.402 L -2.654 -2.549 L -2.598 -2.704 L -2.544 -2.871 L -2.492 -3.052 L -2.443 -3.251 L -2.397 -3.473 L -2.357 -3.727 L -2.325 -4.027 L -2.325 -4.027 L -2.049 -3.905 L -1.809 -3.813 L -1.594 -3.741 L -1.397 -3.684 L -1.215 -3.639 L -1.043 -3.602 L -0.881 -3.572 L -0.725 -3.549 L -0.574 -3.531 L -0.427 -3.517 L -0.283 -3.507 L -0.141 -3.502 L -0.000 -3.500 L 0.141 -3.502 L 0.283 -3.507 L 0.427 -3.517 L 0.574 -3.531 L 0.725 -3.549 L 0.881 -3.572 L 1.043 -3.602 L 1.215 -3.639 L 1.397 -3.684 L 1.594 -3.741 L 1.809 -3.813 L 2.049 -3.905 L 2.325 -4.027 L 2.325 -4.027 L 2.357 -3.727 L 2.397 -3.473 L 2.443 -3.251 L 2.492 -3.052 L 2.544 -2.871 L 2.598 -2.704 L 2.654 -2.549 L 2.711 -2.402 L 2.771 -2.262 L 2.832 -2.128 L 2.896 -1.999 L 2.962 -1.873 L 3.031 -1.750 L 3.103 -1.629 L 3.179 -1.509 L 3.259 -1.389 L 3.344 -1.268 L 3.436 -1.147 L 3.534 -1.024 L 3.641 -0.897 L 3.759 -0.767 L 3.889 -0.632 L 4.037 -0.490 L 4.206 -0.340 L 4.406 -0.178 L 4.650 0.000 Z" fill="#8b8a84" stroke="#2a2a27" stroke-width="0.105" stroke-linejoin="round"/><circle cx="0" cy="0" r="3.300" fill="#9d9c96"/><line x1="0" y1="0" x2="0" y2="3.000" stroke="#1b1815" stroke-width="0.450" opacity="0.42" stroke-linecap="round"/><line x1="0" y1="0" x2="0" y2="-3.000" stroke="#1b1815" stroke-width="0.450" stroke-linecap="round"/>
</svg>
