<?xml version="1.0" encoding="UTF-8"?>
<svg xmlns="http://www.w3.org/2000/svg" width="47.240" height="47.240" viewBox="-8.000 -8.000 16.000 16.000">
<!-- generated by panel_src/gen_controls.py : do not hand-edit -->
<circle cx="0" cy="0" r="4.000" fill="#1f1f1f" stroke="#0b0b0b" stroke-width="0.112"/><path d="M 3.800 0.000 L 3.515 0.213 L 3.277 0.398 L 3.072 0.563 L 2.891 0.712 L 2.728 0.850 L 2.580 0.979 L 2.444 1.100 L 2.316 1.216 L 2.195 1.327 L 2.080 1.436 L 1.969 1.542 L 1.860 1.648 L 1.754 1.754 L 1.648 1.860 L 1.542 1.969 L 1.436 2.080 L 1.327 2.195 L 1.216 2.316 L 1.100 2.444 L 0.979 2.580 L 0.850 2.728 L 0.712 2.891 L 0.563 3.072 L 0.398 3.277 L 0.213 3.515 L -0.000 3.800 L 0.000 3.800 L -0.213 3.515 L -0.398 3.277 L -0.563 3.072 L -0.712 2.891 L -0.850 2.728 L -0.979 2.580 L -1.100 2.444 L -1.216 2.316 L -1.327 2.195 L -1.436 2.080 L -1.542 1.969 L -1.648 1.860 L -1.754 1.754 L -1.860 1.648 L -1.969 1.542 L -2.080 1.436 L -2.195 1.327 L -2.316 1.216 L -2.444 1.100 L -2.580 0.979 L -2.728 0.850 L -2.891 0.712 L -3.072 0.563 L -3.277 0.398 L -3.515 0.213 L -3.800 0.000 L -3.800 0.000 L -3.515 -0.213 L -3.277 -0.398 L -3.072 -0.563 L -2.891 -0.712 L -2.728 -0.850 L -2.580 -0.979 L -2.444 -1.100 L -2.316 -1.216 L -2.195 -1.327 L -2.080 -1.436 L -1.969 -1.542 L -1.860 -1.648 L -1.754 -1.754 L -1.648 -1.860 L -1.542 -1.969 L -1.436 -2.080 L -1.327 -2.195 L -1.216 -2.316 L -1.100 -2.444 L -0.979 -2.580 L -0.850 -2.728 L -0.712 -2.891 L -0.563 -3.072 L -0.398 -3.277 L -0.213 -3.515 L -0.000 -3.800 L -0.000 -3.800 L 0.213 -3.515 L 0.398 -3.277 L 0.563 -3.072 L 0.712 -2.891 L 0.850 -2.728 L 0.979 -2.580 L 1.100 -2.444 L 1.216 -2.316 L 1.327 -2.195 L 1.436 -2.080 L 1.542 -1.969 L 1.648 -1.860 L 1.754 -1.754 L 1.860 -1.648 L 1.969 -1.542 L 2.080 -1.436 L 2.195 -1.327 L 2.316 -1.216 L 2.444 -1.100 L 2.580 -0.979 L 2.728 -0.850 L 2.891 -0.712 L 3.072 -0.563 L 3.277 -0.398 L 3.515 -0.213 L 3.800 -0.000 Z" fill="#2e2e2e" stroke="#0b0b0b" stroke-width="0.084" stroke-linejoin="round"/><circle cx="0" cy="0" r="2.080" fill="#3a3a3a"/><line x1="0" y1="-0.400" x2="0" y2="-2.320" stroke="#e8e8e8" stroke-width="0.450" stroke-linecap="round"/>
</svg>
