<?xml version="1.0" encoding="UTF-8"?>
<svg xmlns="http://www.w3.org/2000/svg" width="26.575" height="26.575" viewBox="-4.500 -4.500 9.000 9.000">
<!-- generated by panel_src/gen_controls.py : do not hand-edit -->
<circle cx="0" cy="0" r="3.600" fill="#dcdad3" stroke="#2a2a27" stroke-width="0.101"/><path d="M 3.420 0.000 L 3.164 0.191 L 2.949 0.358 L 2.764 0.507 L 2.602 0.641 L 2.455 0.765 L 2.322 0.881 L 2.199 0.990 L 2.084 1.094 L 1.976 1.194 L 1.872 1.292 L 1.772 1.388 L 1.674 1.483 L 1.578 1.578 L 1.483 1.674 L 1.388 1.772 L 1.292 1.872 L 1.194 1.976 L 1.094 2.084 L 0.990 2.199 L 0.881 2.322 L 0.765 2.455 L 0.641 2.602 L 0.507 2.764 L 0.358 2.949 L 0.191 3.164 L -0.000 3.420 L 0.000 3.420 L -0.191 3.164 L -0.358 2.949 L -0.507 2.764 L -0.641 2.602 L -0.765 2.455 L -0.881 2.322 L -0.990 2.199 L -1.094 2.084 L -1.194 1.976 L -1.292 1.872 L -1.388 1.772 L -1.483 1.674 L -1.578 1.578 L -1.674 1.483 L -1.772 1.388 L -1.872 1.292 L -1.976 1.194 L -2.084 1.094 L -2.199 0.990 L -2.322 0.881 L -2.455 0.765 L -2.602 0.641 L -2.764 0.507 L -2.949 0.358 L -3.164 0.191 L -3.420 0.000 L -3.420 0.000 L -3.164 -0.191 L -2.949 -0.358 L -2.764 -0.507 L -2.602 -0.641 L -2.455 -0.765 L -2.322 -0.881 L -2.199 -0.990 L -2.084 -1.094 L -1.976 -1.194 L -1.872 -1.292 L -1.772 -1.388 L -1.674 -1.483 L -1.578 -1.578 L -1.483 -1.674 L -1.388 -1.772 L -1.292 -1.872 L -1.194 -1.976 L -1.094 -2.084 L -0.990 -2.199 L -0.881 -2.322 L -0.765 -2.455 L -0.641 -2.602 L -0.507 -2.764 L -0.358 -2.949 L -0.191 -3.164 L -0.000 -3.420 L -0.000 -3.420 L 0.191 -3.164 L 0.358 -2.949 L 0.507 -2.764 L 0.641 -2.602 L 0.765 -2.455 L 0.881 -2.322 L 0.990 -2.199 L 1.094 -2.084 L 1.194 -1.976 L 1.292 -1.872 L 1.388 -1.772 L 1.483 -1.674 L 1.578 -1.578 L 1.674 -1.483 L 1.772 -1.388 L 1.872 -1.292 L 1.976 -1.194 L 2.084 -1.094 L 2.199 -0.990 L 2.322 -0.881 L 2.455 -0.765 L 2.602 -0.641 L 2.764 -0.507 L 2.949 -0.358 L 3.164 -0.191 L 3.420 -0.000 Z" fill="#eeece6" stroke="#2a2a27" stroke-width="0.076" stroke-linejoin="round"/><circle cx="0" cy="0" r="1.872" fill="#f8f7f4"/><line x1="0" y1="-0.360" x2="0" y2="-2.088" stroke="#1b1815" stroke-width="0.450" stroke-linecap="round"/>
</svg>
