<?xml version="1.0" encoding="UTF-8"?>
<svg xmlns="http://www.w3.org/2000/svg" width="39.862" height="39.862" viewBox="-6.750 -6.750 13.500 13.500">
<!-- generated by panel_src/gen_controls.py : do not hand-edit -->
<circle cx="0" cy="0" r="5.000" fill="#d8d1bd" stroke="#2b2620" stroke-width="0.140"/><path d="M 4.750 0.000 L 4.394 0.266 L 4.096 0.497 L 3.839 0.704 L 3.613 0.891 L 3.410 1.063 L 3.225 1.223 L 3.055 1.375 L 2.895 1.519 L 2.744 1.659 L 2.600 1.795 L 2.461 1.928 L 2.325 2.060 L 2.192 2.192 L 2.060 2.325 L 1.928 2.461 L 1.795 2.600 L 1.659 2.744 L 1.519 2.895 L 1.375 3.055 L 1.223 3.225 L 1.063 3.410 L 0.891 3.613 L 0.704 3.839 L 0.497 4.096 L 0.266 4.394 L -0.000 4.750 L 0.000 4.750 L -0.266 4.394 L -0.497 4.096 L -0.704 3.839 L -0.891 3.613 L -1.063 3.410 L -1.223 3.225 L -1.375 3.055 L -1.519 2.895 L -1.659 2.744 L -1.795 2.600 L -1.928 2.461 L -2.060 2.325 L -2.192 2.192 L -2.325 2.060 L -2.461 1.928 L -2.600 1.795 L -2.744 1.659 L -2.895 1.519 L -3.055 1.375 L -3.225 1.223 L -3.410 1.063 L -3.613 0.891 L -3.839 0.704 L -4.096 0.497 L -4.394 0.266 L -4.750 0.000 L -4.750 0.000 L -4.394 -0.266 L -4.096 -0.497 L -3.839 -0.704 L -3.613 -0.891 L -3.410 -1.063 L -3.225 -1.223 L -3.055 -1.375 L -2.895 -1.519 L -2.744 -1.659 L -2.600 -1.795 L -2.461 -1.928 L -2.325 -2.060 L -2.192 -2.192 L -2.060 -2.325 L -1.928 -2.461 L -1.795 -2.600 L -1.659 -2.744 L -1.519 -2.895 L -1.375 -3.055 L -1.223 -3.225 L -1.063 -3.410 L -0.891 -3.613 L -0.704 -3.839 L -0.497 -4.096 L -0.266 -4.394 L -0.000 -4.750 L -0.000 -4.750 L 0.266 -4.394 L 0.497 -4.096 L 0.704 -3.839 L 0.891 -3.613 L 1.063 -3.410 L 1.223 -3.225 L 1.375 -3.055 L 1.519 -2.895 L 1.659 -2.744 L 1.795 -2.600 L 1.928 -2.461 L 2.060 -2.325 L 2.192 -2.192 L 2.325 -2.060 L 2.461 -1.928 L 2.600 -1.795 L 2.744 -1.659 L 2.895 -1.519 L 3.055 -1.375 L 3.225 -1.223 L 3.410 -1.063 L 3.613 -0.891 L 3.839 -0.704 L 4.096 -0.497 L 4.394 -0.266 L 4.750 -0.000 Z" fill="#e9e3d2" stroke="#2b2620" stroke-width="0.105" stroke-linejoin="round"/><circle cx="0" cy="0" r="2.600" fill="#f4f0e4"/><line x1="0" y1="-0.500" x2="0" y2="-2.900" stroke="#1b1815" stroke-width="0.450" stroke-linecap="round"/>
</svg>
