<?xml version="1.0" encoding="UTF-8"?>
<svg xmlns="http://www.w3.org/2000/svg" width="32.480" height="32.480" viewBox="-5.500 -5.500 11.000 11.000">
<!-- generated by panel_src/gen_controls.py : do not hand-edit -->
<circle cx="0" cy="0" r="3.600" fill="#1f1f1f" stroke="#0b0b0b" stroke-width="0.101"/><circle cx="0" cy="0" r="3.348" fill="#141414"/><path d="M 3.348 0.000 L 3.172 0.128 L 3.029 0.244 L 2.906 0.353 L 2.800 0.455 L 2.706 0.552 L 2.622 0.646 L 2.544 0.737 L 2.474 0.826 L 2.408 0.913 L 2.347 1.000 L 2.289 1.086 L 2.234 1.173 L 2.182 1.260 L 2.133 1.349 L 2.085 1.439 L 2.039 1.532 L 1.995 1.629 L 1.952 1.729 L 1.911 1.835 L 1.870 1.947 L 1.832 2.067 L 1.794 2.198 L 1.759 2.341 L 1.726 2.501 L 1.697 2.683 L 1.674 2.899 L 1.674 2.899 L 1.475 2.811 L 1.303 2.745 L 1.148 2.693 L 1.006 2.653 L 0.875 2.620 L 0.751 2.593 L 0.634 2.572 L 0.522 2.555 L 0.413 2.542 L 0.307 2.532 L 0.204 2.525 L 0.102 2.521 L 0.000 2.520 L -0.102 2.521 L -0.204 2.525 L -0.307 2.532 L -0.413 2.542 L -0.522 2.555 L -0.634 2.572 L -0.751 2.593 L -0.875 2.620 L -1.006 2.653 L -1.148 2.693 L -1.303 2.745 L -1.475 2.811 L -1.674 2.899 L -1.674 2.899 L -1.697 2.683 L -1.726 2.501 L -1.759 2.341 L -1.794 2.198 L -1.832 2.067 L -1.870 1.947 L -1.911 1.835 L -1.952 1.729 L -1.995 1.629 L -2.039 1.532 L -2.085 1.439 L -2.133 1.349 L -2.182 1.260 L -2.234 1.173 L -2.289 1.086 L -2.347 1.000 L -2.408 0.913 L -2.474 0.826 L -2.544 0.737 L -2.622 0.646 L -2.706 0.552 L -2.800 0.455 L -2.906 0.353 L -3.029 0.244 L -3.172 0.128 L -3.348 0.000 L -3.348 0.000 L -3.172 -0.128 L -3.029 -0.244 L -2.906 -0.353 L -2.800 -0.455 L -2.706 -0.552 L -2.622 -0.646 L -2.544 -0.737 L -2.474 -0.826 L -2.408 -0.913 L -2.347 -1.000 L -2.289 -1.086 L -2.234 -1.173 L -2.182 -1.260 L -2.133 -1.349 L -2.085 -1.439 L -2.039 -1.532 L -1.995 -1.629 L -1.952 -1.729 L -1.911 -1.835 L -1.870 -1.947 L -1.832 -2.067 L -1.794 -2.198 L -1.759 -2.341 L -1.726 -2.501 L -1.697 -2.683 L -1.674 -2.899 L -1.674 -2.899 L -1.475 -2.811 L -1.303 -2.745 L -1.148 -2.693 L -1.006 -2.653 L -0.875 -2.620 L -0.751 -2.593 L -0.634 -2.572 L -0.522 -2.555 L -0.413 -2.542 L -0.307 -2.532 L -0.204 -2.525 L -0.102 -2.521 L -0.000 -2.520 L 0.102 -2.521 L 0.204 -2.525 L 0.307 -2.532 L 0.413 -2.542 L 0.522 -2.555 L 0.634 -2.572 L 0.751 -2.593 L 0.875 -2.620 L 1.006 -2.653 L 1.148 -2.693 L 1.303 -2.745 L 1.475 -2.811 L 1.674 -2.899 L 1.674 -2.899 L 1.697 -2.683 L 1.726 -2.501 L 1.759 -2.341 L 1.794 -2.198 L 1.832 -2.067 L 1.870 -1.947 L 1.911 -1.835 L 1.952 -1.729 L 1.995 -1.629 L 2.039 -1.532 L 2.085 -1.439 L 2.133 -1.349 L 2.182 -1.260 L 2.234 -1.173 L 2.289 -1.086 L 2.347 -1.000 L 2.408 -0.913 L 2.474 -0.826 L 2.544 -0.737 L 2.622 -0.646 L 2.706 -0.552 L 2.800 -0.455 L 2.906 -0.353 L 3.029 -0.244 L 3.172 -0.128 L 3.348 0.000 Z" fill="#2e2e2e" stroke="#0b0b0b" stroke-width="0.076" stroke-linejoin="round"/><circle cx="0" cy="0" r="2.376" fill="#3a3a3a"/><line x1="0" y1="-0.576" x2="0" y2="-2.160" stroke="#e8e8e8" stroke-width="0.450" stroke-linecap="round"/>
</svg>
