<?xml version="1.0" encoding="UTF-8"?>
<svg xmlns="http://www.w3.org/2000/svg" width="64.961" height="64.961" viewBox="-11.000 -11.000 22.000 22.000">
<!-- generated by panel_src/gen_controls.py : do not hand-edit -->
<circle cx="0" cy="0" r="8.300" fill="#d8d1bd" stroke="#2b2620" stroke-width="0.232"/><circle cx="0" cy="0" r="7.719" fill="#b9b2a0"/><path d="M 7.719 0.000 L 7.314 0.295 L 6.982 0.564 L 6.701 0.814 L 6.456 1.049 L 6.239 1.274 L 6.044 1.490 L 5.866 1.699 L 5.703 1.904 L 5.552 2.106 L 5.410 2.305 L 5.277 2.504 L 5.151 2.704 L 5.032 2.905 L 4.917 3.109 L 4.807 3.318 L 4.702 3.533 L 4.599 3.755 L 4.501 3.987 L 4.405 4.231 L 4.312 4.489 L 4.223 4.766 L 4.137 5.067 L 4.055 5.396 L 3.979 5.765 L 3.912 6.187 L 3.860 6.685 L 3.859 6.685 L 3.402 6.482 L 3.003 6.329 L 2.646 6.210 L 2.319 6.116 L 2.016 6.040 L 1.732 5.979 L 1.462 5.930 L 1.203 5.891 L 0.952 5.861 L 0.709 5.838 L 0.470 5.822 L 0.234 5.813 L 0.000 5.810 L -0.234 5.813 L -0.470 5.822 L -0.709 5.838 L -0.952 5.861 L -1.203 5.891 L -1.462 5.930 L -1.732 5.979 L -2.016 6.040 L -2.319 6.116 L -2.646 6.210 L -3.003 6.329 L -3.402 6.482 L -3.859 6.685 L -3.859 6.685 L -3.912 6.187 L -3.979 5.765 L -4.055 5.396 L -4.137 5.067 L -4.223 4.766 L -4.312 4.489 L -4.405 4.231 L -4.501 3.987 L -4.599 3.755 L -4.702 3.533 L -4.807 3.318 L -4.917 3.109 L -5.032 2.905 L -5.151 2.704 L -5.277 2.504 L -5.410 2.305 L -5.552 2.106 L -5.703 1.904 L -5.866 1.699 L -6.044 1.490 L -6.239 1.274 L -6.456 1.049 L -6.701 0.814 L -6.982 0.564 L -7.314 0.295 L -7.719 0.000 L -7.719 0.000 L -7.314 -0.295 L -6.982 -0.564 L -6.701 -0.814 L -6.456 -1.049 L -6.239 -1.274 L -6.044 -1.490 L -5.866 -1.699 L -5.703 -1.904 L -5.552 -2.106 L -5.410 -2.305 L -5.277 -2.504 L -5.151 -2.704 L -5.032 -2.905 L -4.917 -3.109 L -4.807 -3.318 L -4.702 -3.533 L -4.599 -3.755 L -4.501 -3.987 L -4.405 -4.231 L -4.312 -4.489 L -4.223 -4.766 L -4.137 -5.067 L -4.055 -5.396 L -3.979 -5.765 L -3.912 -6.187 L -3.860 -6.685 L -3.860 -6.685 L -3.402 -6.482 L -3.003 -6.329 L -2.646 -6.210 L -2.319 -6.116 L -2.016 -6.040 L -1.732 -5.979 L -1.462 -5.930 L -1.203 -5.891 L -0.952 -5.861 L -0.709 -5.838 L -0.470 -5.822 L -0.234 -5.813 L -0.000 -5.810 L 0.234 -5.813 L 0.470 -5.822 L 0.709 -5.838 L 0.952 -5.861 L 1.203 -5.891 L 1.462 -5.930 L 1.732 -5.979 L 2.016 -6.040 L 2.319 -6.116 L 2.646 -6.210 L 3.003 -6.329 L 3.402 -6.482 L 3.860 -6.685 L 3.860 -6.685 L 3.912 -6.187 L 3.979 -5.765 L 4.055 -5.396 L 4.137 -5.067 L 4.223 -4.766 L 4.312 -4.489 L 4.405 -4.231 L 4.501 -3.987 L 4.599 -3.755 L 4.702 -3.533 L 4.807 -3.318 L 4.917 -3.109 L 5.032 -2.905 L 5.151 -2.704 L 5.277 -2.504 L 5.410 -2.305 L 5.552 -2.106 L 5.703 -1.904 L 5.866 -1.699 L 6.044 -1.490 L 6.239 -1.274 L 6.456 -1.049 L 6.701 -0.814 L 6.982 -0.564 L 7.314 -0.295 L 7.719 0.000 Z" fill="#e9e3d2" stroke="#2b2620" stroke-width="0.174" stroke-linejoin="round"/><circle cx="0" cy="0" r="5.478" fill="#f4f0e4"/><line x1="0" y1="0" x2="0" y2="4.980" stroke="#1b1815" stroke-width="0.623" opacity="0.42" stroke-linecap="round"/><line x1="0" y1="0" x2="0" y2="-4.980" stroke="#1b1815" stroke-width="0.623" stroke-linecap="round"/>
</svg>
